<?xml version="1.0" encoding="utf-8" standalone="no"?>
<!DOCTYPE svg PUBLIC "-//W3C//DTD SVG 1.1//EN"
  "http://www.w3.org/Graphics/SVG/1.1/DTD/svg11.dtd">
<svg xmlns:xlink="http://www.w3.org/1999/xlink" width="343.711083pt" height="193.337484pt" viewBox="0 0 343.711083 193.337484" xmlns="http://www.w3.org/2000/svg" version="1.1">
 <metadata>
  <rdf:RDF xmlns:dc="http://purl.org/dc/elements/1.1/" xmlns:cc="http://creativecommons.org/ns#" xmlns:rdf="http://www.w3.org/1999/02/22-rdf-syntax-ns#">
   <cc:Work>
    <dc:type rdf:resource="http://purl.org/dc/dcmitype/StillImage"/>
    <dc:date>2026-02-12T22:42:55.136405</dc:date>
    <dc:format>image/svg+xml</dc:format>
    <dc:creator>
     <cc:Agent>
      <dc:title>Matplotlib v3.10.0, https://matplotlib.org/</dc:title>
     </cc:Agent>
    </dc:creator>
   </cc:Work>
  </rdf:RDF>
 </metadata>
 <defs>
  <style type="text/css">*{stroke-linejoin: round; stroke-linecap: butt}</style>
 </defs>
 <g id="figure_1">
  <g id="patch_1">
   <path d="M 0 193.337484 
L 343.711083 193.337484 
L 343.711083 0 
L 0 0 
z
" style="fill: #ffffff"/>
  </g>
  <g id="axes_1">
   <g id="LineCollection_1">
    <path d="M 85.9868 175.092465 
L 87.877511 176.03996 
L 93.057014 178.473852 
L 98.352509 180.643631 
L 103.752746 182.537484 
L 103.752746 182.537484 
" clip-path="url(#p5d1ffb1e93)" style="fill: none; stroke: #000000"/>
    <path d="M 99.578807 176.171703 
L 104.922818 178.218469 
L 110.370611 179.970088 
L 115.907834 181.413901 
L 121.518693 182.537484 
L 121.518693 182.537484 
" clip-path="url(#p5d1ffb1e93)" style="fill: none; stroke: #000000"/>
    <path d="M 139.284639 182.537484 
L 145.000033 182.2766 
L 150.685106 181.635205 
L 156.312496 180.604982 
L 161.852628 179.179156 
L 167.273652 177.352843 
L 172.541414 175.123452 
L 177.619485 172.491182 
L 182.469316 169.459566 
L 187.050504 166.036165 
L 191.321347 162.23327 
L 195.23973 158.068745 
L 198.764605 153.566837 
L 201.858377 148.758918 
L 204.490753 143.683953 
L 206.645156 138.388342 
L 208.330023 132.924484 
L 209.599523 127.34771 
L 211.594854 116.076573 
L 213.714211 107.105722 
L 213.714211 107.105722 
L 214.619296 102.413319 
L 214.619296 102.413319 
L 214.927048 99.267045 
L 214.980981 96.728093 
L 214.980981 96.728093 
" clip-path="url(#p5d1ffb1e93)" style="fill: none; stroke: #000000"/>
    <path d="M 168.894551 182.537484 
L 168.894551 182.537484 
L 174.037088 180.031645 
L 178.980908 177.154108 
L 183.691335 173.909139 
L 188.132103 170.304488 
" clip-path="url(#p5d1ffb1e93)" style="fill: none; stroke: #000000"/>
    <path d="M 180.738515 182.537484 
L 180.738515 182.537484 
L 185.287313 179.068669 
L 189.567443 175.273768 
L 193.545894 171.164141 
L 197.189206 166.755113 
L 200.464276 162.066493 
L 203.339603 157.123029 
L 205.787162 151.95474 
L 207.785349 146.596865 
L 209.323678 141.089305 
" clip-path="url(#p5d1ffb1e93)" style="fill: none; stroke: #000000"/>
    <path d="M 192.582479 182.537484 
L 192.582479 182.537484 
L 196.293004 178.183363 
L 199.681806 173.574752 
L 202.721571 168.729144 
L 205.385998 163.667749 
L 207.650915 158.415704 
L 209.495908 153.002094 
" clip-path="url(#p5d1ffb1e93)" style="fill: none; stroke: #000000"/>
    <path d="M 210.348426 182.537484 
L 210.348426 182.537484 
L 212.431757 177.208777 
L 214.173546 171.759034 
L 215.559977 166.208398 
L 216.579527 160.578953 
L 217.223972 154.894456 
L 217.489848 149.179773 
L 217.380825 143.459887 
L 216.911934 137.757947 
L 216.118259 132.091404 
L 215.075678 126.46402 
L 213.960933 120.84914 
" clip-path="url(#p5d1ffb1e93)" style="fill: none; stroke: #000000"/>
    <path d="M 222.192391 182.537484 
L 222.192391 182.537484 
L 223.085532 176.885382 
L 223.667423 171.192902 
L 223.93218 165.476971 
L 223.875937 159.755259 
L 223.497493 154.045842 
L 222.799342 148.366649 
L 221.78941 142.734457 
L 220.48428 137.16304 
" clip-path="url(#p5d1ffb1e93)" style="fill: none; stroke: #000000"/>
    <path d="M 228.114373 182.537484 
L 228.114373 182.537484 
L 228.424903 176.823304 
L 228.448522 171.100808 
L 228.182104 165.384523 
L 227.624188 159.689344 
L 226.7755 154.030213 
L 225.639737 148.421639 
" clip-path="url(#p5d1ffb1e93)" style="fill: none; stroke: #000000"/>
    <path d="M 234.036355 182.537484 
L 234.036355 182.537484 
L 233.789322 176.819854 
L 233.283002 171.119378 
L 232.516171 165.448108 
L 231.488911 159.818217 
" clip-path="url(#p5d1ffb1e93)" style="fill: none; stroke: #000000"/>
    <path d="M 245.880319 182.537484 
L 245.880319 182.537484 
L 244.625628 176.953154 
L 243.168928 171.418105 
L 241.510786 165.940055 
L 239.652469 160.526653 
L 237.596132 155.18534 
L 235.345125 149.923105 
L 232.904539 144.746053 
L 230.28214 139.658624 
L 227.490275 134.662066 
L 224.550011 129.751112 
L 221.50157 124.9061 
L 218.437349 120.0708 
L 215.65333 115.078439 
L 215.65333 115.078439 
L 214.603651 112.772121 
L 214.603651 112.772121 
L 213.979362 110.626976 
L 213.979362 110.626976 
L 213.788226 108.633084 
" clip-path="url(#p5d1ffb1e93)" style="fill: none; stroke: #000000"/>
    <path d="M 257.724284 182.537484 
L 257.724284 182.537484 
L 255.628725 177.210924 
L 253.382373 171.946196 
L 250.986062 166.748023 
L 248.440955 161.621074 
L 245.748645 156.569882 
" clip-path="url(#p5d1ffb1e93)" style="fill: none; stroke: #000000"/>
    <path d="M 257.724284 170.69352 
L 257.724284 170.69352 
L 254.977756 165.671416 
L 252.103956 160.721049 
L 249.104241 155.845964 
L 245.980398 151.049476 
L 242.734834 146.334498 
L 239.37093 141.703202 
L 235.893615 137.15641 
L 232.310544 132.692409 
L 228.634615 128.304419 
" clip-path="url(#p5d1ffb1e93)" style="fill: none; stroke: #000000"/>
    <path d="M 257.724284 152.927573 
L 257.724284 152.927573 
L 253.922399 148.648153 
L 250.043267 144.438631 
L 246.088578 140.300011 
L 242.060817 136.232461 
L 237.963816 132.234633 
L 233.80392 128.302232 
L 229.592505 124.424956 
L 225.35268 120.578619 
L 221.141799 116.700957 
" clip-path="url(#p5d1ffb1e93)" style="fill: none; stroke: #000000"/>
    <path d="M 257.724284 147.005591 
L 257.724284 147.005591 
L 253.571599 143.065552 
L 249.359918 139.188645 
L 245.090937 135.374917 
L 240.767329 131.62322 
" clip-path="url(#p5d1ffb1e93)" style="fill: none; stroke: #000000"/>
    <path d="M 257.724284 135.161627 
L 257.724284 135.161627 
L 252.924419 132.042111 
L 248.097791 128.964161 
L 243.246018 125.925995 
L 238.37197 122.92367 
L 233.481084 119.948815 
L 228.584664 116.983052 
L 223.710843 113.980615 
" clip-path="url(#p5d1ffb1e93)" style="fill: none; stroke: #000000"/>
    <path d="M 257.724284 123.317662 
L 257.724284 123.317662 
L 252.418521 121.168343 
L 247.105736 119.036436 
L 241.787133 116.91909 
" clip-path="url(#p5d1ffb1e93)" style="fill: none; stroke: #000000"/>
    <path d="M 257.724284 117.39568 
L 257.724284 117.39568 
L 252.23911 115.757497 
L 246.751449 114.127661 
L 241.26212 112.503454 
L 235.77273 110.879465 
L 230.286786 109.243917 
L 224.813675 107.566269 
L 219.394243 105.72772 
L 219.394243 105.72772 
" clip-path="url(#p5d1ffb1e93)" style="fill: none; stroke: #000000"/>
    <path d="M 257.724284 105.551716 
L 257.724284 105.551716 
L 252.036592 104.90289 
L 246.348871 104.254342 
L 240.661231 103.605074 
L 234.9739 102.953094 
L 229.287411 102.293858 
L 223.603363 101.614117 
" clip-path="url(#p5d1ffb1e93)" style="fill: none; stroke: #000000"/>
    <path d="M 257.724284 99.629733 
L 257.724284 99.629733 
L 252.003343 99.425653 
L 246.282405 99.221519 
L 240.561473 99.017193 
L 234.840557 98.812393 
" clip-path="url(#p5d1ffb1e93)" style="fill: none; stroke: #000000"/>
    <path d="M 257.724284 93.707751 
L 257.724284 93.707751 
L 252.002872 93.898199 
L 246.281457 94.088513 
L 240.560032 94.278522 
L 234.838585 94.467887 
L 229.117092 94.655823 
L 223.395474 94.839946 
L 217.673282 95.004443 
L 217.673282 95.004443 
L 216.213808 95.035142 
L 216.213808 95.035142 
L 216.213808 95.035142 
L 215.325348 95.035174 
L 215.325348 95.035174 
L 215.325348 95.035174 
L 215.325348 95.035174 
L 214.901137 94.936261 
L 214.901137 94.936261 
L 214.901137 94.936261 
L 214.907482 94.851816 
L 214.909409 94.765818 
L 214.909283 94.674351 
L 214.907595 94.575214 
L 214.904671 94.4666 
L 214.900419 94.346769 
L 214.894387 94.213743 
L 214.886219 94.065103 
L 214.87527 93.898043 
L 214.860728 93.70908 
L 214.841768 93.493732 
L 214.817407 93.246015 
L 214.78695 92.957301 
L 214.749287 92.61517 
L 214.700042 92.205436 
L 214.629743 91.725511 
L 214.539526 91.124538 
L 214.416092 90.341412 
L 214.228542 89.284044 
L 213.91122 87.774434 
L 213.240992 85.27266 
L 213.240992 85.27266 
L 211.838196 81.435922 
L 210.152403 77.626751 
L 208.313974 74.257061 
L 205.842325 70.654453 
L 202.747339 67.049579 
L 199.09914 63.667466 
L 194.955751 60.649146 
L 190.384916 58.100971 
L 185.464265 56.104793 
L 180.278206 54.721791 
L 174.916864 53.995555 
L 169.474088 53.953291 
L 164.045041 54.606829 
L 158.724732 55.953484 
L 153.606324 57.976759 
L 148.779303 60.64718 
L 144.328144 63.923088 
L 140.330936 67.751466 
L 136.857696 72.069168 
L 133.969301 76.804151 
L 131.71641 81.876788 
L 130.138599 87.201393 
L 129.2637 92.687573 
L 129.107242 98.242176 
L 129.672241 103.770668 
L 130.949155 109.178989 
L 132.91599 114.375085 
L 135.538769 119.270799 
L 138.772092 123.783221 
L 142.559822 127.836165 
L 146.83637 131.361887 
L 151.527559 134.301918 
L 156.551943 136.608381 
L 161.822473 138.244975 
L 167.247745 139.187668 
L 172.734045 139.42541 
L 178.186361 138.960593 
L 183.51089 137.809494 
L 188.616317 136.002618 
L 193.415502 133.58537 
L 197.827683 130.618778 
L 201.779941 127.181444 
L 205.209298 123.373025 
" clip-path="url(#p5d1ffb1e93)" style="fill: none; stroke: #000000"/>
    <path d="M 257.724284 87.785769 
L 257.724284 87.785769 
L 252.02413 88.31405 
L 246.323808 88.840518 
L 240.623158 89.363431 
L 234.921873 89.87935 
L 229.219273 90.380433 
" clip-path="url(#p5d1ffb1e93)" style="fill: none; stroke: #000000"/>
    <path d="M 257.724284 81.863787 
L 257.724284 81.863787 
L 252.057057 82.6721 
L 246.388927 83.474055 
L 240.719184 84.26449 
" clip-path="url(#p5d1ffb1e93)" style="fill: none; stroke: #000000"/>
    <path d="M 257.724284 70.019822 
L 257.724284 70.019822 
L 252.129635 71.232526 
L 246.529813 72.421054 
L 240.9217 73.569642 
L 235.300033 74.64931 
L 229.655715 75.600705 
L 223.974851 76.281549 
L 218.27245 76.269686 
L 218.27245 76.269686 
L 215.294628 75.688824 
" clip-path="url(#p5d1ffb1e93)" style="fill: none; stroke: #000000"/>
    <path d="M 257.724284 64.09784 
L 257.724284 64.09784 
L 252.161874 65.450705 
L 246.591033 66.768309 
L 241.007279 68.029759 
L 235.403532 69.198213 
L 229.768852 70.203087 
L 224.090045 70.894627 
L 218.38311 70.928451 
L 218.38311 70.928451 
L 214.651603 70.321282 
L 210.973878 68.961815 
L 207.80338 67.195318 
" clip-path="url(#p5d1ffb1e93)" style="fill: none; stroke: #000000"/>
    <path d="M 257.724284 58.175858 
L 257.724284 58.175858 
L 252.19005 59.639669 
L 246.643982 61.057825 
L 241.080547 62.40582 
L 235.491594 63.642545 
L 229.865824 64.695016 
L 224.191952 65.426703 
L 218.481489 65.583787 
L 218.481489 65.583787 
L 213.940652 65.068253 
L 209.451076 63.830914 
" clip-path="url(#p5d1ffb1e93)" style="fill: none; stroke: #000000"/>
    <path d="M 257.724284 46.331893 
L 257.724284 46.331893 
L 252.236823 47.962218 
L 246.732073 49.532964 
L 241.20381 51.018366 
L 235.643975 52.379725 
L 230.04313 53.558235 
L 224.39334 54.465834 
L 218.696788 54.981434 
L 212.979824 54.978399 
L 207.290772 54.413067 
L 201.658064 53.409443 
L 196.059639 52.214876 
L 190.448463 51.085234 
L 184.79246 50.222669 
" clip-path="url(#p5d1ffb1e93)" style="fill: none; stroke: #000000"/>
    <path d="M 257.724284 40.409911 
L 257.724284 40.409911 
L 252.257425 42.108013 
L 246.771697 43.743923 
L 241.261128 45.293682 
L 235.718384 46.723216 
L 230.135343 47.984275 
L 224.50527 49.01082 
" clip-path="url(#p5d1ffb1e93)" style="fill: none; stroke: #000000"/>
    <path d="M 257.724284 34.487929 
L 257.724284 34.487929 
L 252.277343 36.248865 
L 246.810758 37.94766 
L 241.319047 39.563041 
L 235.795764 41.066276 
L 230.234061 42.419201 
" clip-path="url(#p5d1ffb1e93)" style="fill: none; stroke: #000000"/>
    <path d="M 257.724284 28.565947 
L 257.724284 28.565947 
L 252.297166 30.387067 
L 246.850343 32.148227 
L 241.378937 33.831205 
L 235.877428 35.412547 
L 230.340129 36.862831 
L 224.762292 38.147148 
L 219.141936 39.228579 
L 213.481994 40.077128 
L 207.791074 40.684685 
L 202.081048 41.080821 
L 196.362485 41.338532 
L 190.64235 41.563715 
L 184.926731 41.874885 
L 179.226445 42.384866 
L 173.561626 43.190168 
L 167.963523 44.36712 
L 162.473924 45.971784 
L 157.143248 48.041336 
L 152.028133 50.595769 
L 147.189001 53.639508 
L 142.687776 57.162838 
L 138.585809 61.143184 
L 134.942005 65.546284 
L 131.811198 70.327354 
L 129.242672 75.432228 
L 127.278868 80.798554 
" clip-path="url(#p5d1ffb1e93)" style="fill: none; stroke: #000000"/>
    <path d="M 257.724284 22.643964 
L 257.724284 22.643964 
L 252.317257 24.523914 
L 246.891038 26.347616 
L 241.441398 28.099902 
L 235.963699 29.762092 
L 230.453289 31.311934 
L 224.906278 32.724529 
L 219.32072 33.97525 
L 213.697938 35.045666 
L 208.043249 35.932577 
L 202.365262 36.657573 
L 196.673896 37.271948 
" clip-path="url(#p5d1ffb1e93)" style="fill: none; stroke: #000000"/>
    <path d="M 257.724284 16.721982 
L 257.724284 16.721982 
L 252.337797 18.660024 
L 246.933069 20.546512 
L 241.506505 22.369108 
L 236.054275 24.11323 
" clip-path="url(#p5d1ffb1e93)" style="fill: none; stroke: #000000"/>
    <path d="M 257.724284 10.8 
L 257.724284 10.8 
L 252.358839 12.795583 
L 246.976414 14.744841 
L 241.574007 16.637929 
L 236.148508 18.46366 
L 230.696949 20.209885 
L 225.216918 21.864414 
L 219.70711 23.416741 
L 214.167953 24.860787 
L 208.60213 26.198526 
L 203.014799 27.4438 
L 197.413462 28.625012 
L 191.80771 29.785338 
L 186.20926 30.979938 
L 180.632576 32.270987 
L 175.095884 33.722001 
L 169.622231 35.392893 
L 164.240131 37.336383 
L 158.983687 39.595808 
L 153.892141 42.203989 
L 149.009006 45.182799 
L 144.381014 48.54322 
L 140.056807 52.285563 
L 136.085667 56.399903 
L 132.516224 60.866591 
L 129.395194 65.656838 
L 126.766215 70.733378 
" clip-path="url(#p5d1ffb1e93)" style="fill: none; stroke: #000000"/>
    <path d="M 239.958337 10.8 
L 239.958337 10.8 
L 234.557126 12.696484 
L 229.132943 14.526147 
L 223.684282 16.281493 
L 218.210648 17.957298 
L 212.713004 19.552602 
L 207.19416 21.073074 
L 201.659019 22.533326 
L 196.114664 23.958402 
L 190.570397 25.383821 
" clip-path="url(#p5d1ffb1e93)" style="fill: none; stroke: #000000"/>
    <path d="M 216.270408 10.8 
L 216.270408 10.8 
L 210.831981 12.587087 
L 205.379535 14.331008 
L 199.917883 16.045966 
L 194.453768 17.753092 
L 188.996033 19.480404 
L 183.555838 21.261862 
L 178.14694 23.135623 
L 172.786068 25.141837 
L 167.493267 27.320309 
L 162.292162 29.708362 
L 157.210046 32.339071 
L 152.277771 35.239952 
L 147.529405 38.432019 
L 143.001707 41.929191 
L 138.733501 45.737974 
L 134.764879 49.857305 
L 131.13638 54.278569 
L 127.888116 58.985739 
" clip-path="url(#p5d1ffb1e93)" style="fill: none; stroke: #000000"/>
    <path d="M 192.582479 10.8 
L 192.582479 10.8 
L 187.222844 12.811094 
L 181.886602 14.883215 
L 176.586346 17.045338 
L 171.337161 19.328128 
L 166.156835 21.762495 
L 161.066018 24.37816 
L 156.088286 27.202341 
L 151.250094 30.25865 
L 146.580584 33.566203 
L 142.111275 37.138949 
L 137.875625 40.985184 
L 133.908508 45.107246 
L 130.24563 49.501329 
L 126.922843 54.157422 
L 123.975486 59.059346 
L 121.437659 64.184876 
L 119.341528 69.505952 
L 117.716575 74.988958 
L 116.588953 80.595081 
L 115.98077 86.280747 
L 115.909508 91.998104 
L 116.387385 97.695609 
L 117.420859 103.318653 
L 119.010131 108.810259 
L 121.148744 114.111834 
L 123.823258 119.163983 
L 127.012998 123.907357 
L 130.689897 128.283567 
L 134.818441 132.23611 
L 139.355702 135.711354 
L 144.251503 138.659505 
L 149.448685 141.035646 
L 154.883502 142.80073 
" clip-path="url(#p5d1ffb1e93)" style="fill: none; stroke: #000000"/>
    <path d="M 174.816533 10.8 
L 174.816533 10.8 
L 169.67707 13.320273 
L 164.606971 15.976892 
L 159.624268 18.793518 
L 154.749368 21.792317 
L 150.005015 24.993097 
L 145.416217 28.41259 
" clip-path="url(#p5d1ffb1e93)" style="fill: none; stroke: #000000"/>
    <path d="M 157.050586 10.8 
L 157.050586 10.8 
L 152.318398 14.019796 
L 147.707132 17.410138 
L 143.237166 20.984332 
L 138.930513 24.753319 
L 134.810667 28.725263 
L 130.902399 32.905185 
L 127.231499 37.29467 
L 123.824475 41.891628 
L 120.708215 46.690119 
L 117.909614 51.680227 
L 115.45517 56.847996 
L 113.370551 62.175408 
L 111.680163 67.640425 
L 110.406692 73.217072 
L 109.570642 78.875581 
L 109.189885 84.582568 
L 109.279192 90.301282 
L 109.849804 95.991894 
L 110.908988 101.611842 
L 112.459642 107.116222 
L 114.499913 112.458228 
L 117.022849 117.589648 
L 120.016089 122.461413 
L 123.461599 127.024184 
L 127.335457 131.228989 
" clip-path="url(#p5d1ffb1e93)" style="fill: none; stroke: #000000"/>
    <path d="M 145.206622 10.8 
L 145.206622 10.8 
L 140.84164 14.502087 
L 136.627378 18.374591 
L 132.58371 22.424611 
L 128.731608 26.656958 
L 125.093002 31.073903 
L 121.690553 35.674944 
L 118.547441 40.456616 
L 115.687082 45.412339 
" clip-path="url(#p5d1ffb1e93)" style="fill: none; stroke: #000000"/>
    <path d="M 139.284639 10.8 
L 139.284639 10.8 
L 135.124043 14.730311 
L 131.126369 18.825975 
L 127.310767 23.091519 
L 123.697266 27.529315 
" clip-path="url(#p5d1ffb1e93)" style="fill: none; stroke: #000000"/>
    <path d="M 133.362657 10.8 
L 133.362657 10.8 
L 129.415627 14.944699 
L 125.641661 19.247359 
L 122.058974 23.710329 
" clip-path="url(#p5d1ffb1e93)" style="fill: none; stroke: #000000"/>
    <path d="M 127.440675 10.8 
L 127.440675 10.8 
L 123.712838 15.142894 
L 120.166126 19.634734 
L 116.817682 24.276066 
L 113.685175 29.065597 
L 110.786661 34.000061 
L 108.140424 39.074096 
L 105.76481 44.280138 
L 103.678028 49.608342 
L 101.897957 55.046515 
L 100.441911 60.580069 
L 99.326415 66.192009 
L 98.566962 71.862927 
L 98.177753 77.571029 
L 98.17144 83.292191 
L 98.558858 89.000031 
L 99.348749 94.666013 
L 100.547488 100.25958 
L 102.158807 105.74832 
L 104.183526 111.098155 
L 106.619277 116.273565 
L 109.460248 121.237846 
L 112.696927 125.953401 
L 116.315861 130.382072 
L 120.299432 134.485497 
L 124.625647 138.225521 
L 129.267957 141.564642 
L 134.195091 144.466494 
L 139.370939 146.896389 
L 144.754456 148.82192 
L 150.299635 150.213608 
L 155.955524 151.045624 
L 161.666349 151.296596 
L 167.371733 150.950516 
L 173.007122 149.997738 
L 178.504449 148.436132 
L 183.793184 146.272362 
L 188.802022 143.52329 
L 193.46149 140.217491 
L 197.708149 136.396657 
" clip-path="url(#p5d1ffb1e93)" style="fill: none; stroke: #000000"/>
    <path d="M 115.596711 10.8 
L 115.596711 10.8 
L 112.311355 15.486608 
L 109.217407 20.301582 
L 106.3297 25.242859 
L 103.663345 30.306866 
L 101.233622 35.488426 
L 99.055865 40.780678 
L 97.145312 46.175003 
L 95.516977 51.660972 
L 94.185478 57.226291 
L 93.164876 62.856775 
L 92.468498 68.536324 
L 92.108748 74.246933 
L 92.096912 79.968691 
L 92.442956 85.679824 
L 93.155317 91.356747 
L 94.240688 96.974124 
" clip-path="url(#p5d1ffb1e93)" style="fill: none; stroke: #000000"/>
    <path d="M 103.752746 10.8 
L 103.752746 10.8 
L 100.898399 15.760984 
L 98.239217 20.829152 
L 95.787765 26.000886 
L 93.556732 31.271348 
L 91.55885 36.634421 
L 89.806799 42.082645 
L 88.313099 47.607173 
L 87.090009 53.197727 
L 86.149401 58.84256 
L 85.9868 59.996858 
" clip-path="url(#p5d1ffb1e93)" style="fill: none; stroke: #000000"/>
    <path d="M 93.647436 10.8 
L 92.679874 12.762853 
L 90.246571 17.943467 
L 88.011935 23.212742 
L 85.9868 28.565947 
L 85.9868 28.565947 
" clip-path="url(#p5d1ffb1e93)" style="fill: none; stroke: #000000"/>
    <path d="M 85.9868 81.863787 
L 85.9868 81.863787 
L 86.61213 87.551502 
L 87.578015 93.191235 
L 88.88972 98.760554 
L 90.550893 104.235649 
L 92.56338 109.59142 
L 94.927046 114.801567 
L 97.639587 119.838706 
L 100.696348 124.674497 
L 104.090128 129.2798 
L 107.810997 133.624856 
L 111.846101 137.679484 
L 116.179483 141.413307 
L 120.791896 144.796011 
L 125.660626 147.797637 
L 130.759319 150.388907 
L 136.057822 152.541588 
L 141.52204 154.228904 
L 147.113812 155.426025 
L 152.79081 156.110595 
L 158.506506 156.263341 
" clip-path="url(#p5d1ffb1e93)" style="fill: none; stroke: #000000"/>
    <path d="M 85.9868 111.473698 
L 85.9868 111.473698 
L 88.487338 116.620135 
L 91.305045 121.599837 
L 94.436051 126.388578 
L 97.874473 130.961401 
L 101.612265 135.292746 
L 105.639047 139.356572 
L 109.941957 143.126527 
L 114.50548 146.576114 
" clip-path="url(#p5d1ffb1e93)" style="fill: none; stroke: #000000"/>
    <path d="M 85.9868 129.239644 
L 85.9868 129.239644 
L 89.501685 133.754749 
L 93.283435 138.048638 
L 97.323958 142.099776 
L 101.613291 145.886267 
L 106.13947 149.385961 
L 110.888391 152.576573 
L 115.843678 155.435837 
L 120.986527 157.941672 
L 126.295568 160.072365 
L 131.746714 161.806796 
L 137.313009 163.124695 
L 142.964484 164.006934 
L 148.668014 164.435872 
L 154.387196 164.395756 
L 160.082251 163.873207 
L 165.709976 162.85778 
L 171.223766 161.34264 
L 176.57379 159.325348 
L 181.707362 156.808811 
L 186.569637 153.80237 
L 191.104891 150.323082 
L 195.258689 146.397041 
L 198.981494 142.060756 
L 202.234749 137.362177 
L 205.000936 132.360966 
" clip-path="url(#p5d1ffb1e93)" style="fill: none; stroke: #000000"/>
    <path d="M 85.9868 135.161627 
L 85.9868 135.161627 
L 89.795191 139.432204 
L 93.850672 143.468702 
L 98.144188 147.250827 
L 102.664896 150.758014 
" clip-path="url(#p5d1ffb1e93)" style="fill: none; stroke: #000000"/>
    <path d="M 85.9868 147.005591 
L 85.9868 147.005591 
L 90.304809 150.760449 
L 94.829315 154.26355 
L 99.549982 157.497247 
L 104.454885 160.443762 
L 109.530394 163.085285 
L 114.761074 165.404068 
L 120.129548 167.382558 
L 125.616387 169.003527 
L 131.199978 170.250244 
L 136.856391 171.106665 
L 142.559243 171.557659 
L 148.279566 171.589276 
L 153.985686 171.189056 
L 159.643117 170.346404 
L 165.214474 169.053036 
L 170.659457 167.303504 
L 175.934903 165.09585 
L 180.995006 162.432321 
L 185.791746 159.32027 
" clip-path="url(#p5d1ffb1e93)" style="fill: none; stroke: #000000"/>
    <path d="M 85.9868 158.849556 
L 85.9868 158.849556 
L 90.711885 162.077615 
L 95.604339 165.045702 
L 100.653274 167.738781 
L 105.846406 170.141793 
L 111.169973 172.239724 
L 116.608627 174.017693 
L 122.145336 175.461066 
L 127.76127 176.555577 
L 133.435692 177.287463 
L 139.145833 177.643648 
L 144.866778 177.611934 
L 150.57135 177.181236 
L 156.229994 176.34186 
" clip-path="url(#p5d1ffb1e93)" style="fill: none; stroke: #000000"/>
    <path d="M 201.825045 182.537484 
L 203.148411 180.322166 
L 205.906678 175.309359 
L 208.313288 170.118682 
L 210.348426 164.771538 
" clip-path="url(#p5d1ffb1e93)" style="fill: none; stroke: #000000"/>
    <path d="M 109.102868 47.810479 
L 106.98439 53.125975 
L 105.194675 58.560789 
L 103.752746 64.09784 
L 102.676343 69.716966 
L 101.982215 75.395786 
L 101.685275 81.10895 
L 101.798444 86.828491 
L 102.332334 92.523967 
L 103.294939 98.162617 
" clip-path="url(#p5d1ffb1e93)" style="fill: none; stroke: #000000"/>
    <path d="M 234.036355 81.863787 
L 228.36907 82.669733 
L 222.678354 83.273664 
L 222.678354 83.273664 
L 218.347359 83.337264 
L 218.347359 83.337264 
L 216.280377 83.044314 
L 216.280377 83.044314 
L 214.546299 82.331724 
" clip-path="url(#p5d1ffb1e93)" style="fill: none; stroke: #000000"/>
    <path d="M 239.62074 56.919571 
L 234.036355 58.175858 
L 228.408904 59.217322 
L 222.731066 59.915509 
L 217.018123 60.078595 
L 211.336752 59.515544 
L 206.084612 58.327997 
L 200.618192 56.636639 
" clip-path="url(#p5d1ffb1e93)" style="fill: none; stroke: #000000"/>
    <path d="M 106.223731 124.677394 
L 109.674728 129.239644 
L 113.472751 133.516556 
L 117.602005 137.474281 
L 122.042495 141.078945 
" clip-path="url(#p5d1ffb1e93)" style="fill: none; stroke: #000000"/>
    <path d="M 151.128604 147.005591 
L 156.748473 148.048638 
L 162.447417 148.482229 
L 168.159111 148.289117 
L 173.81303 147.459516 
" clip-path="url(#p5d1ffb1e93)" style="fill: none; stroke: #000000"/>
    <path d="M 216.270408 46.331893 
L 210.559751 46.686524 
L 204.837514 46.709524 
L 199.118145 46.486764 
L 193.402752 46.162951 
L 187.684641 45.901147 
L 181.962165 45.849736 
L 176.247935 46.128357 
" clip-path="url(#p5d1ffb1e93)" style="fill: none; stroke: #000000"/>
    <path d="M 121.518693 75.941804 
L 120.211161 81.507557 
L 119.463981 87.175483 
L 119.296133 92.889679 
L 119.720064 98.590312 
L 120.74112 104.214476 
" clip-path="url(#p5d1ffb1e93)" style="fill: none; stroke: #000000"/>
    <path d="M 172.04144 96.670738 
L 171.923577 96.843831 
L 171.77697 96.831841 
L 171.77861 96.776682 
L 171.72221 96.775553 
L 171.670932 96.702073 
L 171.758189 96.506067 
L 171.864174 96.462295 
L 171.868002 96.489739 
L 172.1486 94.879364 
L 172.1486 94.879364 
L 172.933275 91.713811 
L 173.162957 88.599028 
L 172.862853 85.659744 
L 172.014093 82.938559 
L 170.57698 80.483336 
L 168.504623 78.387306 
L 165.788821 76.804299 
L 162.511382 75.914955 
L 158.848289 75.862528 
L 155.025809 76.713737 
L 151.272662 78.459994 
L 147.792185 81.037349 
L 144.752697 84.346293 
L 142.286854 88.266174 
L 140.494293 92.664074 
L 139.444544 97.401301 
L 139.180091 102.337529 
L 139.718888 107.334088 
L 141.056706 112.256511 
L 143.169281 116.976893 
L 146.014334 121.375707 
L 149.533548 125.34342 
L 153.654776 128.782099 
L 158.293988 131.606237 
L 163.362488 133.745306 
L 168.894551 135.161627 
L 174.571899 135.739189 
L 174.571899 135.739189 
" clip-path="url(#p5d1ffb1e93)" style="fill: none; stroke: #000000"/>
    <path d="M 179.048994 98.966083 
L 184.525155 100.632046 
L 190.035503 102.181382 
L 195.585748 103.579756 
L 201.185883 104.757818 
L 205.652262 105.42962 
L 210.348426 105.551716 
L 210.348426 105.551716 
L 210.348426 105.551716 
L 211.823509 105.335729 
L 211.823509 105.335729 
L 212.902663 104.921102 
L 212.902663 104.921102 
" clip-path="url(#p5d1ffb1e93)" style="fill: none; stroke: #000000"/>
    <path d="M 181.8155 95.958812 
L 187.525031 95.545529 
L 193.234051 95.124103 
L 198.942128 94.69015 
L 204.648382 94.233038 
L 210.348426 93.707751 
L 210.348426 93.707751 
L 211.800487 93.545175 
L 211.800487 93.545175 
L 213.244869 93.33196 
L 213.244869 93.33196 
L 213.244869 93.33196 
" clip-path="url(#p5d1ffb1e93)" style="fill: none; stroke: #000000"/>
    <path d="M 180.738515 58.175858 
L 180.738515 58.175858 
L 176.146672 56.953944 
L 171.428631 56.389714 
L 166.484164 56.472613 
L 161.463213 57.238955 
" clip-path="url(#p5d1ffb1e93)" style="fill: none; stroke: #000000"/>
    <path d="M 178.84191 87.597868 
L 180.474895 84.347778 
L 181.499063 81.229467 
L 181.927764 78.207764 
L 181.730253 75.241768 
L 180.813585 72.321187 
L 179.050756 69.527057 
L 176.377626 67.05379 
L 172.870512 65.135712 
L 168.720909 63.955159 
L 164.162164 63.612096 
L 159.419764 64.138552 
L 154.692943 65.520513 
L 150.152472 67.713592 
L 145.942682 70.652811 
L 142.185128 74.257944 
L 138.980307 78.437449 
L 136.409446 83.091076 
L 134.533238 88.120001 
L 133.362657 93.707751 
L 133.050446 99.406319 
L 133.513321 104.598643 
" clip-path="url(#p5d1ffb1e93)" style="fill: none; stroke: #000000"/>
    <path d="M 127.565334 113.490826 
L 130.169157 118.578268 
L 133.362657 123.317662 
L 137.10249 127.636945 
L 141.339555 131.469342 
L 146.014061 134.753614 
" clip-path="url(#p5d1ffb1e93)" style="fill: none; stroke: #000000"/>
    <path d="M 168.350049 90.239547 
L 166.323328 88.598994 
L 163.866462 87.499722 
L 161.046784 87.086919 
L 158.010628 87.494719 
L 154.972268 88.794433 
L 152.168696 90.968653 
L 149.814022 93.9232 
L 148.077357 97.513928 
L 147.077632 101.57144 
L 146.887311 105.917959 
L 147.538562 110.377465 
L 149.029453 114.782358 
L 151.329598 118.977126 
L 154.385517 122.821384 
L 158.142499 126.203858 
L 162.972568 129.239644 
L 162.972568 129.239644 
L 167.428384 131.133032 
" clip-path="url(#p5d1ffb1e93)" style="fill: none; stroke: #000000"/>
    <path d="M 174.816533 129.239644 
L 174.816533 129.239644 
L 179.420729 129.991267 
L 184.111388 130.073298 
L 188.817682 129.485633 
L 193.406297 128.24071 
" clip-path="url(#p5d1ffb1e93)" style="fill: none; stroke: #000000"/>
    <path d="M 174.89682 106.030688 
L 177.230803 109.536409 
L 180.2306 112.674695 
L 183.798136 115.29069 
L 187.78604 117.256186 
L 192.005715 118.482355 
L 196.248934 118.930617 
L 200.342326 118.605889 
L 204.426444 117.39568 
L 204.426444 117.39568 
L 204.426444 117.39568 
L 206.864907 116.117158 
" clip-path="url(#p5d1ffb1e93)" style="fill: none; stroke: #000000"/>
    <path d="M 180.31617 102.727225 
L 185.23339 105.646367 
L 190.379305 108.138228 
L 195.421878 109.989201 
L 199.819702 111.060417 
L 204.426444 111.473698 
L 204.426444 111.473698 
L 204.426444 111.473698 
L 207.062838 111.260561 
L 207.062838 111.260561 
" clip-path="url(#p5d1ffb1e93)" style="fill: none; stroke: #000000"/>
    <path d="M 189.739573 90.319678 
L 194.991772 88.050949 
L 199.052764 85.958469 
L 201.823693 84.181162 
L 204.426444 81.863787 
L 204.426444 81.863787 
L 204.426444 81.863787 
L 205.712361 79.978666 
L 205.712361 79.978666 
L 206.362036 77.899021 
L 206.343961 75.700989 
L 205.780902 73.52945 
" clip-path="url(#p5d1ffb1e93)" style="fill: none; stroke: #000000"/>
    <path d="M 187.684239 86.968457 
L 190.9624 84.195597 
L 193.40855 81.592763 
L 195.160301 79.077249 
L 196.304536 76.525627 
L 196.820789 73.737711 
L 196.46688 70.525767 
L 194.930596 67.064699 
L 192.582479 64.09784 
L 192.582479 64.09784 
L 192.582479 64.09784 
L 189.555303 61.500398 
" clip-path="url(#p5d1ffb1e93)" style="fill: none; stroke: #000000"/>
    <path d="M 185.287686 81.315343 
L 186.33687 78.362679 
L 186.775146 75.427589 
L 186.533658 72.43692 
L 185.455471 69.386712 
L 183.410019 66.450957 
L 180.738515 64.09784 
L 180.738515 64.09784 
L 180.738515 64.09784 
" clip-path="url(#p5d1ffb1e93)" style="fill: none; stroke: #000000"/>
    <path d="M 164.841773 94.509563 
L 162.264197 95.037457 
L 159.771037 96.364469 
L 157.584656 98.500494 
L 155.928528 101.363697 
L 154.984104 104.796843 
L 154.870442 108.600624 
L 155.644238 112.562922 
L 157.3086 116.478211 
L 159.818343 120.151635 
L 162.972568 123.317662 
L 162.972568 123.317662 
L 162.972568 123.317662 
L 166.540654 125.85896 
" clip-path="url(#p5d1ffb1e93)" style="fill: none; stroke: #000000"/>
    <path d="M 167.591396 102.76288 
L 167.008222 105.817272 
L 167.21663 109.168984 
L 168.303983 112.625743 
L 170.291709 115.973906 
L 173.134914 119.002567 
L 176.721205 121.517641 
L 180.738515 123.317662 
L 180.738515 123.317662 
L 180.738515 123.317662 
L 184.798288 124.350332 
L 189.007739 124.727775 
L 193.27737 124.43902 
L 197.438008 123.487026 
L 201.315972 121.916109 
" clip-path="url(#p5d1ffb1e93)" style="fill: none; stroke: #000000"/>
    <path d="M 175.846967 76.381655 
L 174.187341 73.795282 
L 171.76125 71.574184 
L 168.894551 70.019822 
L 168.894551 70.019822 
L 168.894551 70.019822 
L 165.490589 69.053968 
L 162.028171 68.784355 
L 158.339597 69.157967 
L 154.554909 70.209298 
" clip-path="url(#p5d1ffb1e93)" style="fill: none; stroke: #000000"/>
    <path d="M 163.414913 84.455277 
L 160.424359 84.026609 
L 157.195231 84.445227 
L 153.963612 85.761763 
L 151.128604 87.785769 
L 151.128604 87.785769 
L 151.128604 87.785769 
L 148.644188 90.500054 
L 146.754137 93.597784 
" clip-path="url(#p5d1ffb1e93)" style="fill: none; stroke: #000000"/>
   </g>
   <g id="patch_2">
    <path d="M 94.905783 179.231368 
Q 95.305272 179.395055 94.670204 179.134841 
" clip-path="url(#p5d1ffb1e93)" style="fill: none; stroke: #000000; stroke-linecap: round"/>
    <path d="M 91.727155 175.767578 
L 94.670204 179.134841 
L 90.210564 179.468923 
z
" clip-path="url(#p5d1ffb1e93)" style="stroke: #000000; stroke-linecap: round"/>
   </g>
   <g id="patch_3">
    <path d="M 106.824758 178.829996 
Q 107.235736 178.962137 106.582345 178.752054 
" clip-path="url(#p5d1ffb1e93)" style="fill: none; stroke: #000000; stroke-linecap: round"/>
    <path d="M 103.386532 175.623672 
L 106.582345 178.752054 
L 102.162151 179.431675 
z
" clip-path="url(#p5d1ffb1e93)" style="stroke: #000000; stroke-linecap: round"/>
   </g>
   <g id="patch_4">
    <path d="M 196.47378 156.492638 
Q 196.737974 156.155215 196.312915 156.698093 
" clip-path="url(#p5d1ffb1e93)" style="fill: none; stroke: #000000; stroke-linecap: round"/>
    <path d="M 192.272238 158.614582 
L 196.312915 156.698093 
L 195.4217 161.080528 
z
" clip-path="url(#p5d1ffb1e93)" style="stroke: #000000; stroke-linecap: round"/>
   </g>
   <g id="patch_5">
    <path d="M 175.767908 179.024226 
Q 176.138453 178.808551 175.542724 179.155294 
" clip-path="url(#p5d1ffb1e93)" style="fill: none; stroke: #000000; stroke-linecap: round"/>
    <path d="M 171.079592 179.438936 
L 175.542724 179.155294 
L 173.091758 182.895985 
z
" clip-path="url(#p5d1ffb1e93)" style="stroke: #000000; stroke-linecap: round"/>
   </g>
   <g id="patch_6">
    <path d="M 198.3358 165.113638 
Q 198.581271 164.76222 198.186505 165.327371 
" clip-path="url(#p5d1ffb1e93)" style="fill: none; stroke: #000000; stroke-linecap: round"/>
    <path d="M 194.256318 167.461295 
L 198.186505 165.327371 
L 197.535532 169.751875 
z
" clip-path="url(#p5d1ffb1e93)" style="stroke: #000000; stroke-linecap: round"/>
   </g>
   <g id="patch_7">
    <path d="M 200.746021 171.878316 
Q 200.973855 171.515132 200.60755 172.099049 
" clip-path="url(#p5d1ffb1e93)" style="fill: none; stroke: #000000; stroke-linecap: round"/>
    <path d="M 196.78767 174.424671 
L 200.60755 172.099049 
L 200.176119 176.550326 
z
" clip-path="url(#p5d1ffb1e93)" style="stroke: #000000; stroke-linecap: round"/>
   </g>
   <g id="patch_8">
    <path d="M 217.316795 152.89934 
Q 217.336853 152.468227 217.30495 153.15394 
" clip-path="url(#p5d1ffb1e93)" style="fill: none; stroke: #000000; stroke-linecap: round"/>
    <path d="M 215.121212 157.056669 
L 217.30495 153.15394 
L 219.11689 157.242568 
z
" clip-path="url(#p5d1ffb1e93)" style="stroke: #000000; stroke-linecap: round"/>
   </g>
   <g id="patch_9">
    <path d="M 223.912545 163.479401 
Q 223.908302 163.047758 223.915048 163.734095 
" clip-path="url(#p5d1ffb1e93)" style="fill: none; stroke: #000000; stroke-linecap: round"/>
    <path d="M 221.954462 167.753561 
L 223.915048 163.734095 
L 225.954269 167.714243 
z
" clip-path="url(#p5d1ffb1e93)" style="stroke: #000000; stroke-linecap: round"/>
   </g>
   <g id="patch_10">
    <path d="M 228.35551 169.105132 
Q 228.335411 168.673899 228.367365 169.359487 
" clip-path="url(#p5d1ffb1e93)" style="fill: none; stroke: #000000; stroke-linecap: round"/>
    <path d="M 226.555759 173.448263 
L 228.367365 169.359487 
L 230.551421 173.262037 
z
" clip-path="url(#p5d1ffb1e93)" style="stroke: #000000; stroke-linecap: round"/>
   </g>
   <g id="patch_11">
    <path d="M 233.612555 174.829697 
Q 233.574359 174.399657 233.635077 175.083266 
" clip-path="url(#p5d1ffb1e93)" style="fill: none; stroke: #000000; stroke-linecap: round"/>
    <path d="M 231.99681 179.244525 
L 233.635077 175.083266 
L 235.981124 178.890635 
z
" clip-path="url(#p5d1ffb1e93)" style="stroke: #000000; stroke-linecap: round"/>
   </g>
   <g id="patch_12">
    <path d="M 231.989004 142.969924 
Q 231.791172 142.586131 232.105598 143.196115 
" clip-path="url(#p5d1ffb1e93)" style="fill: none; stroke: #000000; stroke-linecap: round"/>
    <path d="M 232.160587 147.667913 
L 232.105598 143.196115 
L 235.71603 145.835202 
z
" clip-path="url(#p5d1ffb1e93)" style="stroke: #000000; stroke-linecap: round"/>
   </g>
   <g id="patch_13">
    <path d="M 252.54577 170.131404 
Q 252.364994 169.739257 252.65228 170.36245 
" clip-path="url(#p5d1ffb1e93)" style="fill: none; stroke: #000000; stroke-linecap: round"/>
    <path d="M 252.510576 174.832341 
L 252.65228 170.36245 
L 256.14317 173.157748 
z
" clip-path="url(#p5d1ffb1e93)" style="stroke: #000000; stroke-linecap: round"/>
   </g>
   <g id="patch_14">
    <path d="M 244.847303 149.403378 
Q 244.60246 149.047682 244.991547 149.612927 
" clip-path="url(#p5d1ffb1e93)" style="fill: none; stroke: #000000; stroke-linecap: round"/>
    <path d="M 245.61214 154.041795 
L 244.991547 149.612927 
L 248.906997 151.773774 
z
" clip-path="url(#p5d1ffb1e93)" style="stroke: #000000; stroke-linecap: round"/>
   </g>
   <g id="patch_15">
    <path d="M 240.630467 134.836735 
Q 240.321392 134.535141 240.812511 135.014372 
" clip-path="url(#p5d1ffb1e93)" style="fill: none; stroke: #000000; stroke-linecap: round"/>
    <path d="M 242.278593 139.23937 
L 240.812511 135.014372 
L 245.072158 136.376505 
z
" clip-path="url(#p5d1ffb1e93)" style="stroke: #000000; stroke-linecap: round"/>
   </g>
   <g id="patch_16">
    <path d="M 247.869527 137.857192 
Q 247.547477 137.569487 248.059204 138.026642 
" clip-path="url(#p5d1ffb1e93)" style="fill: none; stroke: #000000; stroke-linecap: round"/>
    <path d="M 249.709765 142.18304 
L 248.059204 138.026642 
L 252.374659 139.200032 
z
" clip-path="url(#p5d1ffb1e93)" style="stroke: #000000; stroke-linecap: round"/>
   </g>
   <g id="patch_17">
    <path d="M 241.544385 124.87782 
Q 241.17669 124.651326 241.760923 125.011203 
" clip-path="url(#p5d1ffb1e93)" style="fill: none; stroke: #000000; stroke-linecap: round"/>
    <path d="M 244.117716 128.811931 
L 241.760923 125.011203 
L 246.215581 125.406206 
z
" clip-path="url(#p5d1ffb1e93)" style="stroke: #000000; stroke-linecap: round"/>
   </g>
   <g id="patch_18">
    <path d="M 250.563716 120.424049 
Q 250.162922 120.263219 250.799739 120.51876 
" clip-path="url(#p5d1ffb1e93)" style="fill: none; stroke: #000000; stroke-linecap: round"/>
    <path d="M 253.76718 123.864548 
L 250.799739 120.51876 
L 255.256833 120.15228 
z
" clip-path="url(#p5d1ffb1e93)" style="stroke: #000000; stroke-linecap: round"/>
   </g>
   <g id="patch_19">
    <path d="M 239.345659 111.936485 
Q 238.931542 111.813973 239.589527 112.008632 
" clip-path="url(#p5d1ffb1e93)" style="fill: none; stroke: #000000; stroke-linecap: round"/>
    <path d="M 242.85782 115.061214 
L 239.589527 112.008632 
L 243.992569 111.225547 
z
" clip-path="url(#p5d1ffb1e93)" style="stroke: #000000; stroke-linecap: round"/>
   </g>
   <g id="patch_20">
    <path d="M 244.363196 104.027669 
Q 243.934123 103.978688 244.615871 104.056513 
" clip-path="url(#p5d1ffb1e93)" style="fill: none; stroke: #000000; stroke-linecap: round"/>
    <path d="M 248.363225 106.497278 
L 244.615871 104.056513 
L 248.816895 102.523088 
z
" clip-path="url(#p5d1ffb1e93)" style="stroke: #000000; stroke-linecap: round"/>
   </g>
   <g id="patch_21">
    <path d="M 244.285107 99.150185 
Q 243.853523 99.13477 244.539261 99.159262 
" clip-path="url(#p5d1ffb1e93)" style="fill: none; stroke: #000000; stroke-linecap: round"/>
    <path d="M 248.465326 101.300759 
L 244.539261 99.159262 
L 248.608098 97.303307 
z
" clip-path="url(#p5d1ffb1e93)" style="stroke: #000000; stroke-linecap: round"/>
   </g>
   <g id="patch_22">
    <path d="M 142.881889 65.308258 
Q 142.605714 65.572767 143.136977 65.063943 
" clip-path="url(#p5d1ffb1e93)" style="fill: none; stroke: #000000; stroke-linecap: round"/>
    <path d="M 147.409135 63.741569 
L 143.136977 65.063943 
L 144.642372 60.852793 
z
" clip-path="url(#p5d1ffb1e93)" style="stroke: #000000; stroke-linecap: round"/>
   </g>
   <g id="patch_23">
    <path d="M 244.333591 89.023078 
Q 243.903537 89.062526 244.586843 88.999848 
" clip-path="url(#p5d1ffb1e93)" style="fill: none; stroke: #000000; stroke-linecap: round"/>
    <path d="M 248.75281 90.626106 
L 244.586843 88.999848 
L 248.38743 86.642829 
z
" clip-path="url(#p5d1ffb1e93)" style="stroke: #000000; stroke-linecap: round"/>
   </g>
   <g id="patch_24">
    <path d="M 250.078193 82.952079 
Q 249.650593 83.012578 250.330001 82.916452 
" clip-path="url(#p5d1ffb1e93)" style="fill: none; stroke: #000000; stroke-linecap: round"/>
    <path d="M 254.570736 84.336371 
L 250.330001 82.916452 
L 254.010377 80.375816 
z
" clip-path="url(#p5d1ffb1e93)" style="stroke: #000000; stroke-linecap: round"/>
   </g>
   <g id="patch_25">
    <path d="M 238.959057 73.946576 
Q 238.534962 74.028026 239.208835 73.898606 
" clip-path="url(#p5d1ffb1e93)" style="fill: none; stroke: #000000; stroke-linecap: round"/>
    <path d="M 243.51426 75.108279 
L 239.208835 73.898606 
L 242.759829 71.180069 
z
" clip-path="url(#p5d1ffb1e93)" style="stroke: #000000; stroke-linecap: round"/>
   </g>
   <g id="patch_26">
    <path d="M 233.436346 69.549036 
Q 233.011269 69.624843 233.68686 69.50436 
" clip-path="url(#p5d1ffb1e93)" style="fill: none; stroke: #000000; stroke-linecap: round"/>
    <path d="M 237.975865 70.771026 
L 233.68686 69.50436 
L 237.273595 66.833156 
z
" clip-path="url(#p5d1ffb1e93)" style="stroke: #000000; stroke-linecap: round"/>
   </g>
   <g id="patch_27">
    <path d="M 233.527519 64.009985 
Q 233.103114 64.089382 233.777677 63.963185 
" clip-path="url(#p5d1ffb1e93)" style="fill: none; stroke: #000000; stroke-linecap: round"/>
    <path d="M 238.077244 65.193519 
L 233.777677 63.963185 
L 237.341684 61.261731 
z
" clip-path="url(#p5d1ffb1e93)" style="stroke: #000000; stroke-linecap: round"/>
   </g>
   <g id="patch_28">
    <path d="M 222.39899 54.646345 
Q 221.972027 54.684989 222.658546 54.622852 
" clip-path="url(#p5d1ffb1e93)" style="fill: none; stroke: #000000; stroke-linecap: round"/>
    <path d="M 226.822546 56.25414 
L 222.658546 54.622852 
L 226.461977 52.270425 
z
" clip-path="url(#p5d1ffb1e93)" style="stroke: #000000; stroke-linecap: round"/>
   </g>
   <g id="patch_29">
    <path d="M 244.847841 44.284977 
Q 244.432126 44.40189 245.092693 44.216116 
" clip-path="url(#p5d1ffb1e93)" style="fill: none; stroke: #000000; stroke-linecap: round"/>
    <path d="M 249.484775 45.058501 
L 245.092693 44.216116 
L 248.401851 41.207881 
z
" clip-path="url(#p5d1ffb1e93)" style="stroke: #000000; stroke-linecap: round"/>
   </g>
   <g id="patch_30">
    <path d="M 244.893486 38.511624 
Q 244.479195 38.633487 245.137497 38.439848 
" clip-path="url(#p5d1ffb1e93)" style="fill: none; stroke: #000000; stroke-linecap: round"/>
    <path d="M 249.539314 39.229787 
L 245.137497 38.439848 
L 248.410539 35.392358 
z
" clip-path="url(#p5d1ffb1e93)" style="stroke: #000000; stroke-linecap: round"/>
   </g>
   <g id="patch_31">
    <path d="M 188.646907 41.672351 
Q 188.215724 41.695825 188.900921 41.658522 
" clip-path="url(#p5d1ffb1e93)" style="fill: none; stroke: #000000; stroke-linecap: round"/>
    <path d="M 193.00373 43.438118 
L 188.900921 41.658522 
L 192.786283 39.444033 
z
" clip-path="url(#p5d1ffb1e93)" style="stroke: #000000; stroke-linecap: round"/>
   </g>
   <g id="patch_32">
    <path d="M 228.51671 31.805101 
Q 228.098247 31.911666 228.763237 31.742321 
" clip-path="url(#p5d1ffb1e93)" style="fill: none; stroke: #000000; stroke-linecap: round"/>
    <path d="M 233.133086 32.693333 
L 228.763237 31.742321 
L 232.145956 28.817049 
z
" clip-path="url(#p5d1ffb1e93)" style="stroke: #000000; stroke-linecap: round"/>
   </g>
   <g id="patch_33">
    <path d="M 250.450892 19.318637 
Q 250.043163 19.460952 250.691013 19.234824 
" clip-path="url(#p5d1ffb1e93)" style="fill: none; stroke: #000000; stroke-linecap: round"/>
    <path d="M 255.126663 19.804918 
L 250.691013 19.234824 
L 253.808478 16.02836 
z
" clip-path="url(#p5d1ffb1e93)" style="stroke: #000000; stroke-linecap: round"/>
   </g>
   <g id="patch_34">
    <path d="M 189.853173 30.202399 
Q 189.430829 30.292518 190.101904 30.149324 
" clip-path="url(#p5d1ffb1e93)" style="fill: none; stroke: #000000; stroke-linecap: round"/>
    <path d="M 194.431202 31.270561 
L 190.101904 30.149324 
L 193.596472 27.358627 
z
" clip-path="url(#p5d1ffb1e93)" style="stroke: #000000; stroke-linecap: round"/>
   </g>
   <g id="patch_35">
    <path d="M 216.291304 18.514252 
Q 215.876565 18.634601 216.535567 18.443372 
" clip-path="url(#p5d1ffb1e93)" style="fill: none; stroke: #000000; stroke-linecap: round"/>
    <path d="M 220.934466 19.249405 
L 216.535567 18.443372 
L 219.819732 15.407872 
z
" clip-path="url(#p5d1ffb1e93)" style="stroke: #000000; stroke-linecap: round"/>
   </g>
   <g id="patch_36">
    <path d="M 170.93824 25.902388 
Q 170.538954 26.06673 171.173552 25.805535 
" clip-path="url(#p5d1ffb1e93)" style="fill: none; stroke: #000000; stroke-linecap: round"/>
    <path d="M 175.633716 26.132552 
L 171.173552 25.805535 
L 174.111264 22.433615 
z
" clip-path="url(#p5d1ffb1e93)" style="stroke: #000000; stroke-linecap: round"/>
   </g>
   <g id="patch_37">
    <path d="M 120.703809 66.047772 
Q 120.546701 66.446593 120.799372 65.805182 
" clip-path="url(#p5d1ffb1e93)" style="fill: none; stroke: #000000; stroke-linecap: round"/>
    <path d="M 124.126262 62.81657 
L 120.799372 65.805182 
L 120.404617 61.350503 
z
" clip-path="url(#p5d1ffb1e93)" style="stroke: #000000; stroke-linecap: round"/>
   </g>
   <g id="patch_38">
    <path d="M 162.867404 16.960236 
Q 162.491512 17.17272 163.088912 16.835022 
" clip-path="url(#p5d1ffb1e93)" style="fill: none; stroke: #000000; stroke-linecap: round"/>
    <path d="M 167.555267 16.607704 
L 163.088912 16.835022 
L 165.586871 13.125547 
z
" clip-path="url(#p5d1ffb1e93)" style="stroke: #000000; stroke-linecap: round"/>
   </g>
   <g id="patch_39">
    <path d="M 112.77875 64.088697 
Q 112.652054 64.498307 112.855734 63.83981 
" clip-path="url(#p5d1ffb1e93)" style="fill: none; stroke: #000000; stroke-linecap: round"/>
    <path d="M 115.948412 60.609432 
L 112.855734 63.83981 
L 112.127039 59.42744 
z
" clip-path="url(#p5d1ffb1e93)" style="stroke: #000000; stroke-linecap: round"/>
   </g>
   <g id="patch_40">
    <path d="M 131.23886 23.902213 
Q 130.94826 24.221499 131.410213 23.713945 
" clip-path="url(#p5d1ffb1e93)" style="fill: none; stroke: #000000; stroke-linecap: round"/>
    <path d="M 135.581726 22.101966 
L 131.410213 23.713945 
L 132.623537 19.409547 
z
" clip-path="url(#p5d1ffb1e93)" style="stroke: #000000; stroke-linecap: round"/>
   </g>
   <g id="patch_41">
    <path d="M 133.728371 16.160194 
Q 133.426789 16.469169 133.906147 15.978061 
" clip-path="url(#p5d1ffb1e93)" style="fill: none; stroke: #000000; stroke-linecap: round"/>
    <path d="M 138.131355 14.512587 
L 133.906147 15.978061 
L 135.268893 11.71861 
z
" clip-path="url(#p5d1ffb1e93)" style="stroke: #000000; stroke-linecap: round"/>
   </g>
   <g id="patch_42">
    <path d="M 128.098056 16.446848 
Q 127.81335 16.771439 128.265885 16.255508 
" clip-path="url(#p5d1ffb1e93)" style="fill: none; stroke: #000000; stroke-linecap: round"/>
    <path d="M 132.407089 14.567186 
L 128.265885 16.255508 
L 129.399949 11.929552 
z
" clip-path="url(#p5d1ffb1e93)" style="stroke: #000000; stroke-linecap: round"/>
   </g>
   <g id="patch_43">
    <path d="M 105.036276 112.910054 
Q 105.218839 113.297957 104.925303 112.674262 
" clip-path="url(#p5d1ffb1e93)" style="fill: none; stroke: #000000; stroke-linecap: round"/>
    <path d="M 105.031566 108.203389 
L 104.925303 112.674262 
L 101.412362 109.906728 
z
" clip-path="url(#p5d1ffb1e93)" style="stroke: #000000; stroke-linecap: round"/>
   </g>
   <g id="patch_44">
    <path d="M 96.576826 48.090271 
Q 96.453985 48.504129 96.649279 47.846172 
" clip-path="url(#p5d1ffb1e93)" style="fill: none; stroke: #000000; stroke-linecap: round"/>
    <path d="M 99.704795 44.580621 
L 96.649279 47.846172 
L 95.870149 43.442428 
z
" clip-path="url(#p5d1ffb1e93)" style="stroke: #000000; stroke-linecap: round"/>
   </g>
   <g id="patch_45">
    <path d="M 92.85923 33.14371 
Q 92.70851 33.548297 92.948085 32.905187 
" clip-path="url(#p5d1ffb1e93)" style="fill: none; stroke: #000000; stroke-linecap: round"/>
    <path d="M 96.218623 29.855009 
L 92.948085 32.905187 
L 92.470266 28.45865 
z
" clip-path="url(#p5d1ffb1e93)" style="stroke: #000000; stroke-linecap: round"/>
   </g>
   <g id="patch_46">
    <path d="M 89.466413 19.783082 
Q 89.297833 20.180593 89.565766 19.548805 
" clip-path="url(#p5d1ffb1e93)" style="fill: none; stroke: #000000; stroke-linecap: round"/>
    <path d="M 92.96875 16.647133 
L 89.565766 19.548805 
L 89.286218 15.085415 
z
" clip-path="url(#p5d1ffb1e93)" style="stroke: #000000; stroke-linecap: round"/>
   </g>
   <g id="patch_47">
    <path d="M 105.392795 130.800994 
Q 105.671679 131.126661 105.223346 130.603119 
" clip-path="url(#p5d1ffb1e93)" style="fill: none; stroke: #000000; stroke-linecap: round"/>
    <path d="M 104.140689 126.264011 
L 105.223346 130.603119 
L 101.102466 128.86578 
z
" clip-path="url(#p5d1ffb1e93)" style="stroke: #000000; stroke-linecap: round"/>
   </g>
   <g id="patch_48">
    <path d="M 95.636477 127.985047 
Q 95.895869 128.330018 95.483341 127.781389 
" clip-path="url(#p5d1ffb1e93)" style="fill: none; stroke: #000000; stroke-linecap: round"/>
    <path d="M 94.677924 123.382377 
L 95.483341 127.781389 
L 91.480882 125.786315 
z
" clip-path="url(#p5d1ffb1e93)" style="stroke: #000000; stroke-linecap: round"/>
   </g>
   <g id="patch_49">
    <path d="M 144.961276 164.157104 
Q 145.388763 164.189254 144.701363 164.137557 
" clip-path="url(#p5d1ffb1e93)" style="fill: none; stroke: #000000; stroke-linecap: round"/>
    <path d="M 140.862615 161.843213 
L 144.701363 164.137557 
L 140.562639 165.831949 
z
" clip-path="url(#p5d1ffb1e93)" style="stroke: #000000; stroke-linecap: round"/>
   </g>
   <g id="patch_50">
    <path d="M 91.211045 140.841431 
Q 91.516988 141.145942 91.03051 140.66174 
" clip-path="url(#p5d1ffb1e93)" style="fill: none; stroke: #000000; stroke-linecap: round"/>
    <path d="M 89.606347 136.422429 
L 91.03051 140.66174 
L 86.784563 139.257484 
z
" clip-path="url(#p5d1ffb1e93)" style="stroke: #000000; stroke-linecap: round"/>
   </g>
   <g id="patch_51">
    <path d="M 133.174752 170.549239 
Q 133.601468 170.613847 132.92275 170.511084 
" clip-path="url(#p5d1ffb1e93)" style="fill: none; stroke: #000000; stroke-linecap: round"/>
    <path d="M 129.267226 167.934818 
L 132.92275 170.511084 
L 128.668423 171.889743 
z
" clip-path="url(#p5d1ffb1e93)" style="stroke: #000000; stroke-linecap: round"/>
   </g>
   <g id="patch_52">
    <path d="M 118.541609 174.521605 
Q 118.959295 174.630492 118.295106 174.457343 
" clip-path="url(#p5d1ffb1e93)" style="fill: none; stroke: #000000; stroke-linecap: round"/>
    <path d="M 114.928989 171.512983 
L 118.295106 174.457343 
L 113.919947 175.38362 
z
" clip-path="url(#p5d1ffb1e93)" style="stroke: #000000; stroke-linecap: round"/>
   </g>
   <g id="patch_53">
    <path d="M 206.746877 173.497184 
Q 206.92843 173.105602 206.639705 173.728337 
" clip-path="url(#p5d1ffb1e93)" style="fill: none; stroke: #000000; stroke-linecap: round"/>
    <path d="M 203.14272 176.516006 
L 206.639705 173.728337 
L 206.77165 178.198526 
z
" clip-path="url(#p5d1ffb1e93)" style="stroke: #000000; stroke-linecap: round"/>
   </g>
   <g id="patch_54">
    <path d="M 102.434008 71.699562 
Q 102.381644 72.127969 102.464928 71.446602 
" clip-path="url(#p5d1ffb1e93)" style="fill: none; stroke: #000000; stroke-linecap: round"/>
    <path d="M 104.935464 67.718808 
L 102.464928 71.446602 
L 100.965014 67.233496 
z
" clip-path="url(#p5d1ffb1e93)" style="stroke: #000000; stroke-linecap: round"/>
   </g>
   <g id="patch_55">
    <path d="M 226.382321 82.880578 
Q 225.953016 82.926138 226.635503 82.853709 
" clip-path="url(#p5d1ffb1e93)" style="fill: none; stroke: #000000; stroke-linecap: round"/>
    <path d="M 230.824232 84.420409 
L 226.635503 82.853709 
L 230.4021 80.442746 
z
" clip-path="url(#p5d1ffb1e93)" style="stroke: #000000; stroke-linecap: round"/>
   </g>
   <g id="patch_56">
    <path d="M 220.730978 59.972605 
Q 220.302786 59.984828 220.992173 59.965149 
" clip-path="url(#p5d1ffb1e93)" style="fill: none; stroke: #000000; stroke-linecap: round"/>
    <path d="M 225.047614 61.850194 
L 220.992173 59.965149 
L 224.933474 57.851823 
z
" clip-path="url(#p5d1ffb1e93)" style="stroke: #000000; stroke-linecap: round"/>
   </g>
   <g id="patch_57">
    <path d="M 111.004407 130.736981 
Q 111.289074 131.057541 110.83136 130.542115 
" clip-path="url(#p5d1ffb1e93)" style="fill: none; stroke: #000000; stroke-linecap: round"/>
    <path d="M 109.670798 126.223192 
L 110.83136 130.542115 
L 106.679884 128.87921 
z
" clip-path="url(#p5d1ffb1e93)" style="stroke: #000000; stroke-linecap: round"/>
   </g>
   <g id="patch_58">
    <path d="M 158.74366 148.200437 
Q 159.170803 148.232935 158.483133 148.180615 
" clip-path="url(#p5d1ffb1e93)" style="fill: none; stroke: #000000; stroke-linecap: round"/>
    <path d="M 154.646387 145.882925 
L 158.483133 148.180615 
L 154.342934 149.871398 
z
" clip-path="url(#p5d1ffb1e93)" style="stroke: #000000; stroke-linecap: round"/>
   </g>
   <g id="patch_59">
    <path d="M 197.122781 46.373714 
Q 196.691614 46.349286 197.376692 46.3881 
" clip-path="url(#p5d1ffb1e93)" style="fill: none; stroke: #000000; stroke-linecap: round"/>
    <path d="M 201.257157 48.611159 
L 197.376692 46.3881 
L 201.483419 44.617564 
z
" clip-path="url(#p5d1ffb1e93)" style="stroke: #000000; stroke-linecap: round"/>
   </g>
   <g id="patch_60">
    <path d="M 119.405218 89.176009 
Q 119.392637 89.604295 119.412883 88.915029 
" clip-path="url(#p5d1ffb1e93)" style="fill: none; stroke: #000000; stroke-linecap: round"/>
    <path d="M 121.529466 84.975476 
L 119.412883 88.915029 
L 117.53119 84.858031 
z
" clip-path="url(#p5d1ffb1e93)" style="stroke: #000000; stroke-linecap: round"/>
   </g>
   <g id="patch_61">
    <path d="M 140.060656 94.620955 
Q 140.015037 94.826821 140.211302 93.941132 
" clip-path="url(#p5d1ffb1e93)" style="fill: none; stroke: #000000; stroke-linecap: round"/>
    <path d="M 143.029326 90.468562 
L 140.211302 93.941132 
L 139.12406 89.603171 
z
" clip-path="url(#p5d1ffb1e93)" style="stroke: #000000; stroke-linecap: round"/>
   </g>
   <g id="patch_62">
    <path d="M 197.540873 103.991042 
Q 197.963344 104.079914 197.291728 103.938631 
" clip-path="url(#p5d1ffb1e93)" style="fill: none; stroke: #000000; stroke-linecap: round"/>
    <path d="M 193.789115 101.158037 
L 197.291728 103.938631 
L 192.965685 105.072365 
z
" clip-path="url(#p5d1ffb1e93)" style="stroke: #000000; stroke-linecap: round"/>
   </g>
   <g id="patch_63">
    <path d="M 195.226861 94.9726 
Q 195.657475 94.939863 194.973272 94.991879 
" clip-path="url(#p5d1ffb1e93)" style="fill: none; stroke: #000000; stroke-linecap: round"/>
    <path d="M 190.833171 93.300856 
L 194.973272 94.991879 
L 191.136393 97.289347 
z
" clip-path="url(#p5d1ffb1e93)" style="stroke: #000000; stroke-linecap: round"/>
   </g>
   <g id="patch_64">
    <path d="M 169.42477 56.423311 
Q 169.190584 56.427237 170.074275 56.412421 
" clip-path="url(#p5d1ffb1e93)" style="fill: none; stroke: #000000; stroke-linecap: round"/>
    <path d="M 174.10724 58.345086 
L 170.074275 56.412421 
L 174.040185 54.345648 
z
" clip-path="url(#p5d1ffb1e93)" style="stroke: #000000; stroke-linecap: round"/>
   </g>
   <g id="patch_65">
    <path d="M 152.888283 66.392176 
Q 152.655495 66.504614 153.429457 66.130785 
" clip-path="url(#p5d1ffb1e93)" style="fill: none; stroke: #000000; stroke-linecap: round"/>
    <path d="M 157.901174 66.191992 
L 153.429457 66.130785 
L 156.161452 62.590136 
z
" clip-path="url(#p5d1ffb1e93)" style="stroke: #000000; stroke-linecap: round"/>
   </g>
   <g id="patch_66">
    <path d="M 134.671964 124.829833 
Q 134.952269 125.153568 134.500736 124.632074 
" clip-path="url(#p5d1ffb1e93)" style="fill: none; stroke: #000000; stroke-linecap: round"/>
    <path d="M 133.394423 120.298938 
L 134.500736 124.632074 
L 130.370439 122.917242 
z
" clip-path="url(#p5d1ffb1e93)" style="stroke: #000000; stroke-linecap: round"/>
   </g>
   <g id="patch_67">
    <path d="M 147.176685 107.899478 
Q 147.194811 108.023595 147.051376 107.041413 
" clip-path="url(#p5d1ffb1e93)" style="fill: none; stroke: #000000; stroke-linecap: round"/>
    <path d="M 148.45237 102.794388 
L 147.051376 107.041413 
L 144.494353 103.372403 
z
" clip-path="url(#p5d1ffb1e93)" style="stroke: #000000; stroke-linecap: round"/>
   </g>
   <g id="patch_68">
    <path d="M 186.09226 129.825951 
Q 186.278397 129.802708 185.355117 129.917996 
" clip-path="url(#p5d1ffb1e93)" style="fill: none; stroke: #000000; stroke-linecap: round"/>
    <path d="M 181.13813 128.42903 
L 185.355117 129.917996 
L 181.633751 132.398206 
z
" clip-path="url(#p5d1ffb1e93)" style="stroke: #000000; stroke-linecap: round"/>
   </g>
   <g id="patch_69">
    <path d="M 189.710443 117.815386 
Q 189.80316 117.842328 188.822253 117.557293 
" clip-path="url(#p5d1ffb1e93)" style="fill: none; stroke: #000000; stroke-linecap: round"/>
    <path d="M 185.53922 114.520568 
L 188.822253 117.557293 
L 184.423054 118.361685 
z
" clip-path="url(#p5d1ffb1e93)" style="stroke: #000000; stroke-linecap: round"/>
   </g>
   <g id="patch_70">
    <path d="M 192.257959 108.827823 
Q 192.579275 108.945769 191.851032 108.678453 
" clip-path="url(#p5d1ffb1e93)" style="fill: none; stroke: #000000; stroke-linecap: round"/>
    <path d="M 188.785191 105.422594 
L 191.851032 108.678453 
L 187.406841 109.177611 
z
" clip-path="url(#p5d1ffb1e93)" style="stroke: #000000; stroke-linecap: round"/>
   </g>
   <g id="patch_71">
    <path d="M 199.052764 85.958469 
Q 199.745496 85.514143 199.497144 85.673438 
" clip-path="url(#p5d1ffb1e93)" style="fill: none; stroke: #000000; stroke-linecap: round"/>
    <path d="M 195.050426 86.149562 
L 199.497144 85.673438 
L 197.210011 89.516487 
z
" clip-path="url(#p5d1ffb1e93)" style="stroke: #000000; stroke-linecap: round"/>
   </g>
   <g id="patch_72">
    <path d="M 196.304536 76.525627 
Q 196.433599 75.828648 196.359091 76.231014 
" clip-path="url(#p5d1ffb1e93)" style="fill: none; stroke: #000000; stroke-linecap: round"/>
    <path d="M 193.664206 79.79999 
L 196.359091 76.231014 
L 197.597341 80.528308 
z
" clip-path="url(#p5d1ffb1e93)" style="stroke: #000000; stroke-linecap: round"/>
   </g>
   <g id="patch_73">
    <path d="M 186.533658 72.43692 
Q 186.264111 71.674368 186.367173 71.965933 
" clip-path="url(#p5d1ffb1e93)" style="fill: none; stroke: #000000; stroke-linecap: round"/>
    <path d="M 185.814598 76.4038 
L 186.367173 71.965933 
L 189.585921 75.070713 
z
" clip-path="url(#p5d1ffb1e93)" style="stroke: #000000; stroke-linecap: round"/>
   </g>
   <g id="patch_74">
    <path d="M 155.253562 110.562426 
Q 155.255451 110.5721 155.043048 109.484468 
" clip-path="url(#p5d1ffb1e93)" style="fill: none; stroke: #000000; stroke-linecap: round"/>
    <path d="M 156.239291 105.175291 
L 155.043048 109.484468 
L 152.313453 105.941967 
z
" clip-path="url(#p5d1ffb1e93)" style="stroke: #000000; stroke-linecap: round"/>
   </g>
   <g id="patch_75">
    <path d="M 178.545472 122.335033 
Q 178.637666 122.376342 177.709564 121.960491 
" clip-path="url(#p5d1ffb1e93)" style="fill: none; stroke: #000000; stroke-linecap: round"/>
    <path d="M 174.877035 118.499743 
L 177.709564 121.960491 
L 173.241448 122.150066 
z
" clip-path="url(#p5d1ffb1e93)" style="stroke: #000000; stroke-linecap: round"/>
   </g>
   <g id="patch_76">
    <path d="M 168.894551 70.019822 
Q 168.04356 69.778359 168.268144 69.842083 
" clip-path="url(#p5d1ffb1e93)" style="fill: none; stroke: #000000; stroke-linecap: round"/>
    <path d="M 171.570299 72.858003 
L 168.268144 69.842083 
L 172.662173 69.009911 
z
" clip-path="url(#p5d1ffb1e93)" style="stroke: #000000; stroke-linecap: round"/>
   </g>
   <g id="patch_77">
    <path d="M 153.963612 85.761763 
Q 153.25486 86.267765 153.456041 86.124135 
" clip-path="url(#p5d1ffb1e93)" style="fill: none; stroke: #000000; stroke-linecap: round"/>
    <path d="M 157.873614 85.427681 
L 153.456041 86.124135 
L 155.549422 82.172204 
z
" clip-path="url(#p5d1ffb1e93)" style="stroke: #000000; stroke-linecap: round"/>
   </g>
   <g id="line2d_1">
    <defs>
     <path id="md63066efe0" d="M 0 5 
C 1.326016 5 2.597899 4.473168 3.535534 3.535534 
C 4.473168 2.597899 5 1.326016 5 0 
C 5 -1.326016 4.473168 -2.597899 3.535534 -3.535534 
C 2.597899 -4.473168 1.326016 -5 0 -5 
C -1.326016 -5 -2.597899 -4.473168 -3.535534 -3.535534 
C -4.473168 -2.597899 -5 -1.326016 -5 0 
C -5 1.326016 -4.473168 2.597899 -3.535534 3.535534 
C -2.597899 4.473168 -1.326016 5 0 5 
z
" style="stroke: #000000"/>
    </defs>
    <g clip-path="url(#p5d1ffb1e93)">
     <use xlink:href="#md63066efe0" x="214.789913" y="96.668742" style="stroke: #000000"/>
    </g>
   </g>
  </g>
 </g>
 <defs>
  <clipPath id="p5d1ffb1e93">
   <rect x="85.9868" y="10.8" width="171.737484" height="171.737484"/>
  </clipPath>
 </defs>
</svg>
