<?xml version="1.0" encoding="utf-8" standalone="no"?>
<!DOCTYPE svg PUBLIC "-//W3C//DTD SVG 1.1//EN"
  "http://www.w3.org/Graphics/SVG/1.1/DTD/svg11.dtd">
<svg xmlns:xlink="http://www.w3.org/1999/xlink" width="343.711083pt" height="193.337484pt" viewBox="0 0 343.711083 193.337484" xmlns="http://www.w3.org/2000/svg" version="1.1">
 <metadata>
  <rdf:RDF xmlns:dc="http://purl.org/dc/elements/1.1/" xmlns:cc="http://creativecommons.org/ns#" xmlns:rdf="http://www.w3.org/1999/02/22-rdf-syntax-ns#">
   <cc:Work>
    <dc:type rdf:resource="http://purl.org/dc/dcmitype/StillImage"/>
    <dc:date>2026-02-12T22:39:51.342022</dc:date>
    <dc:format>image/svg+xml</dc:format>
    <dc:creator>
     <cc:Agent>
      <dc:title>Matplotlib v3.10.0, https://matplotlib.org/</dc:title>
     </cc:Agent>
    </dc:creator>
   </cc:Work>
  </rdf:RDF>
 </metadata>
 <defs>
  <style type="text/css">*{stroke-linejoin: round; stroke-linecap: butt}</style>
 </defs>
 <g id="figure_1">
  <g id="patch_1">
   <path d="M 0 193.337484 
L 343.711083 193.337484 
L 343.711083 0 
L 0 0 
z
" style="fill: #ffffff"/>
  </g>
  <g id="axes_1">
   <g id="patch_2">
    <path d="M 32.744006 153.826131 
L 332.911083 153.826131 
L 332.911083 26.08268 
L 32.744006 26.08268 
z
" style="fill: #ffffff"/>
   </g>
   <g id="matplotlib.axis_1">
    <g id="xtick_1">
     <g id="line2d_1">
      <path d="M 46.387964 153.826131 
L 46.387964 26.08268 
" clip-path="url(#p12a8b91746)" style="fill: none; stroke: #b0b0b0; stroke-width: 0.8; stroke-linecap: square"/>
     </g>
     <g id="line2d_2">
      <defs>
       <path id="m905c941026" d="M 0 0 
L 0 3.5 
" style="stroke: #000000; stroke-width: 0.8"/>
      </defs>
      <g>
       <use xlink:href="#m905c941026" x="46.387964" y="153.826131" style="stroke: #000000; stroke-width: 0.8"/>
      </g>
     </g>
     <g id="text_1">
      <!-- $\mathdefault{0}$ -->
      <g transform="translate(43.897296 167.744629) scale(0.1 -0.1)">
       <defs>
        <path id="CMR17-30" d="M 2688 2038 
C 2688 2430 2682 3099 2413 3613 
C 2176 4063 1798 4224 1466 4224 
C 1158 4224 768 4082 525 3620 
C 269 3137 243 2539 243 2038 
C 243 1671 250 1112 448 623 
C 723 -39 1216 -128 1466 -128 
C 1760 -128 2208 -7 2470 604 
C 2662 1048 2688 1568 2688 2038 
z
M 1466 -26 
C 1056 -26 813 328 723 816 
C 653 1196 653 1749 653 2109 
C 653 2604 653 3015 736 3407 
C 858 3954 1216 4121 1466 4121 
C 1728 4121 2067 3947 2189 3420 
C 2272 3054 2278 2623 2278 2109 
C 2278 1691 2278 1176 2202 797 
C 2067 96 1690 -26 1466 -26 
z
" transform="scale(0.015625)"/>
       </defs>
       <use xlink:href="#CMR17-30" transform="scale(0.996264)"/>
      </g>
     </g>
    </g>
    <g id="xtick_2">
     <g id="line2d_3">
      <path d="M 100.963796 153.826131 
L 100.963796 26.08268 
" clip-path="url(#p12a8b91746)" style="fill: none; stroke: #b0b0b0; stroke-width: 0.8; stroke-linecap: square"/>
     </g>
     <g id="line2d_4">
      <g>
       <use xlink:href="#m905c941026" x="100.963796" y="153.826131" style="stroke: #000000; stroke-width: 0.8"/>
      </g>
     </g>
     <g id="text_2">
      <!-- $\mathdefault{2}$ -->
      <g transform="translate(98.473129 167.744629) scale(0.1 -0.1)">
       <defs>
        <path id="CMR17-32" d="M 2669 990 
L 2554 990 
C 2490 537 2438 460 2413 422 
C 2381 371 1920 371 1830 371 
L 602 371 
C 832 620 1280 1073 1824 1596 
C 2214 1966 2669 2400 2669 3033 
C 2669 3788 2067 4224 1395 4224 
C 691 4224 262 3603 262 3027 
C 262 2777 448 2745 525 2745 
C 589 2745 781 2783 781 3007 
C 781 3206 614 3264 525 3264 
C 486 3264 448 3257 422 3244 
C 544 3788 915 4057 1306 4057 
C 1862 4057 2227 3616 2227 3033 
C 2227 2477 1901 1998 1536 1583 
L 262 147 
L 262 0 
L 2515 0 
L 2669 990 
z
" transform="scale(0.015625)"/>
       </defs>
       <use xlink:href="#CMR17-32" transform="scale(0.996264)"/>
      </g>
     </g>
    </g>
    <g id="xtick_3">
     <g id="line2d_5">
      <path d="M 155.539628 153.826131 
L 155.539628 26.08268 
" clip-path="url(#p12a8b91746)" style="fill: none; stroke: #b0b0b0; stroke-width: 0.8; stroke-linecap: square"/>
     </g>
     <g id="line2d_6">
      <g>
       <use xlink:href="#m905c941026" x="155.539628" y="153.826131" style="stroke: #000000; stroke-width: 0.8"/>
      </g>
     </g>
     <g id="text_3">
      <!-- $\mathdefault{4}$ -->
      <g transform="translate(153.048961 167.744629) scale(0.1 -0.1)">
       <defs>
        <path id="CMR17-34" d="M 2150 4147 
C 2150 4281 2144 4288 2029 4288 
L 128 1254 
L 128 1088 
L 1779 1088 
L 1779 460 
C 1779 230 1766 166 1318 166 
L 1197 166 
L 1197 0 
C 1402 12 1747 12 1965 12 
C 2182 12 2528 12 2733 0 
L 2733 166 
L 2611 166 
C 2163 166 2150 230 2150 460 
L 2150 1088 
L 2803 1088 
L 2803 1254 
L 2150 1254 
L 2150 4147 
z
M 1798 3723 
L 1798 1254 
L 256 1254 
L 1798 3723 
z
" transform="scale(0.015625)"/>
       </defs>
       <use xlink:href="#CMR17-34" transform="scale(0.996264)"/>
      </g>
     </g>
    </g>
    <g id="xtick_4">
     <g id="line2d_7">
      <path d="M 210.115461 153.826131 
L 210.115461 26.08268 
" clip-path="url(#p12a8b91746)" style="fill: none; stroke: #b0b0b0; stroke-width: 0.8; stroke-linecap: square"/>
     </g>
     <g id="line2d_8">
      <g>
       <use xlink:href="#m905c941026" x="210.115461" y="153.826131" style="stroke: #000000; stroke-width: 0.8"/>
      </g>
     </g>
     <g id="text_4">
      <!-- $\mathdefault{6}$ -->
      <g transform="translate(207.624793 167.744629) scale(0.1 -0.1)">
       <defs>
        <path id="CMR17-36" d="M 678 2198 
C 678 3712 1395 4076 1811 4076 
C 1946 4076 2272 4049 2400 3782 
C 2298 3782 2106 3782 2106 3558 
C 2106 3385 2246 3328 2336 3328 
C 2394 3328 2566 3353 2566 3571 
C 2566 3987 2246 4224 1805 4224 
C 1043 4224 243 3411 243 2011 
C 243 257 966 -128 1478 -128 
C 2099 -128 2688 431 2688 1295 
C 2688 2101 2170 2688 1517 2688 
C 1126 2688 838 2430 678 1979 
L 678 2198 
z
M 1478 25 
C 691 25 691 1212 691 1450 
C 691 1914 909 2585 1504 2585 
C 1613 2585 1926 2585 2138 2140 
C 2253 1889 2253 1624 2253 1302 
C 2253 954 2253 696 2118 438 
C 1978 173 1773 25 1478 25 
z
" transform="scale(0.015625)"/>
       </defs>
       <use xlink:href="#CMR17-36" transform="scale(0.996264)"/>
      </g>
     </g>
    </g>
    <g id="xtick_5">
     <g id="line2d_9">
      <path d="M 264.691293 153.826131 
L 264.691293 26.08268 
" clip-path="url(#p12a8b91746)" style="fill: none; stroke: #b0b0b0; stroke-width: 0.8; stroke-linecap: square"/>
     </g>
     <g id="line2d_10">
      <g>
       <use xlink:href="#m905c941026" x="264.691293" y="153.826131" style="stroke: #000000; stroke-width: 0.8"/>
      </g>
     </g>
     <g id="text_5">
      <!-- $\mathdefault{8}$ -->
      <g transform="translate(262.200625 167.744629) scale(0.1 -0.1)">
       <defs>
        <path id="CMR17-38" d="M 1741 2289 
C 2144 2494 2554 2803 2554 3298 
C 2554 3884 1990 4224 1472 4224 
C 890 4224 378 3800 378 3215 
C 378 3054 416 2777 666 2533 
C 730 2469 998 2276 1171 2154 
C 883 2006 211 1652 211 945 
C 211 282 838 -128 1459 -128 
C 2144 -128 2720 366 2720 1022 
C 2720 1607 2330 1877 2074 2051 
L 1741 2289 
z
M 902 2855 
C 851 2887 595 3086 595 3388 
C 595 3781 998 4076 1459 4076 
C 1965 4076 2336 3716 2336 3298 
C 2336 2700 1670 2359 1638 2359 
C 1632 2359 1626 2359 1574 2398 
L 902 2855 
z
M 2080 1536 
C 2176 1466 2483 1253 2483 861 
C 2483 385 2010 25 1472 25 
C 890 25 448 443 448 951 
C 448 1459 838 1884 1280 2083 
L 2080 1536 
z
" transform="scale(0.015625)"/>
       </defs>
       <use xlink:href="#CMR17-38" transform="scale(0.996264)"/>
      </g>
     </g>
    </g>
    <g id="xtick_6">
     <g id="line2d_11">
      <path d="M 319.267125 153.826131 
L 319.267125 26.08268 
" clip-path="url(#p12a8b91746)" style="fill: none; stroke: #b0b0b0; stroke-width: 0.8; stroke-linecap: square"/>
     </g>
     <g id="line2d_12">
      <g>
       <use xlink:href="#m905c941026" x="319.267125" y="153.826131" style="stroke: #000000; stroke-width: 0.8"/>
      </g>
     </g>
     <g id="text_6">
      <!-- $\mathdefault{10}$ -->
      <g transform="translate(314.28579 167.744629) scale(0.1 -0.1)">
       <defs>
        <path id="CMR17-31" d="M 1702 4083 
C 1702 4217 1696 4224 1606 4224 
C 1357 3927 979 3833 621 3820 
C 602 3820 570 3820 563 3808 
C 557 3795 557 3782 557 3648 
C 755 3648 1088 3686 1344 3839 
L 1344 467 
C 1344 243 1331 166 781 166 
L 589 166 
L 589 0 
C 896 6 1216 12 1523 12 
C 1830 12 2150 6 2458 0 
L 2458 166 
L 2266 166 
C 1715 166 1702 236 1702 467 
L 1702 4083 
z
" transform="scale(0.015625)"/>
       </defs>
       <use xlink:href="#CMR17-31" transform="scale(0.996264)"/>
       <use xlink:href="#CMR17-30" transform="translate(45.690477 0) scale(0.996264)"/>
      </g>
     </g>
    </g>
    <g id="text_7">
     <!-- $t$ -->
     <g transform="translate(181.028733 180.600306) scale(0.1 -0.1)">
      <defs>
       <path id="CMMI12-74" d="M 1286 2566 
L 1875 2566 
C 1997 2566 2061 2566 2061 2681 
C 2061 2752 2022 2752 1894 2752 
L 1331 2752 
L 1568 3664 
C 1594 3752 1594 3764 1594 3808 
C 1594 3910 1510 3968 1427 3968 
C 1376 3968 1229 3948 1178 3746 
L 928 2752 
L 326 2752 
C 198 2752 141 2752 141 2630 
C 141 2566 186 2566 307 2566 
L 877 2566 
L 454 881 
C 403 657 384 593 384 510 
C 384 210 595 -64 954 -64 
C 1600 -64 1946 868 1946 913 
C 1946 951 1920 970 1882 970 
C 1869 970 1843 970 1830 944 
C 1824 938 1818 932 1773 830 
C 1638 510 1344 64 973 64 
C 781 64 768 223 768 364 
C 768 370 768 491 787 568 
L 1286 2566 
z
" transform="scale(0.015625)"/>
      </defs>
      <use xlink:href="#CMMI12-74" transform="scale(0.996264)"/>
     </g>
    </g>
   </g>
   <g id="matplotlib.axis_2">
    <g id="ytick_1">
     <g id="line2d_13">
      <path d="M 32.744006 148.01961 
L 332.911083 148.01961 
" clip-path="url(#p12a8b91746)" style="fill: none; stroke: #b0b0b0; stroke-width: 0.8; stroke-linecap: square"/>
     </g>
     <g id="line2d_14">
      <defs>
       <path id="m52f1bf44e3" d="M 0 0 
L -3.5 0 
" style="stroke: #000000; stroke-width: 0.8"/>
      </defs>
      <g>
       <use xlink:href="#m52f1bf44e3" x="32.744006" y="148.01961" style="stroke: #000000; stroke-width: 0.8"/>
      </g>
     </g>
     <g id="text_8">
      <!-- $\mathdefault{0}$ -->
      <g transform="translate(20.762671 151.47886) scale(0.1 -0.1)">
       <use xlink:href="#CMR17-30" transform="scale(0.996264)"/>
      </g>
     </g>
    </g>
    <g id="ytick_2">
     <g id="line2d_15">
      <path d="M 32.744006 124.793528 
L 332.911083 124.793528 
" clip-path="url(#p12a8b91746)" style="fill: none; stroke: #b0b0b0; stroke-width: 0.8; stroke-linecap: square"/>
     </g>
     <g id="line2d_16">
      <g>
       <use xlink:href="#m52f1bf44e3" x="32.744006" y="124.793528" style="stroke: #000000; stroke-width: 0.8"/>
      </g>
     </g>
     <g id="text_9">
      <!-- $\mathdefault{20}$ -->
      <g transform="translate(15.781335 128.252778) scale(0.1 -0.1)">
       <use xlink:href="#CMR17-32" transform="scale(0.996264)"/>
       <use xlink:href="#CMR17-30" transform="translate(45.690477 0) scale(0.996264)"/>
      </g>
     </g>
    </g>
    <g id="ytick_3">
     <g id="line2d_17">
      <path d="M 32.744006 101.567446 
L 332.911083 101.567446 
" clip-path="url(#p12a8b91746)" style="fill: none; stroke: #b0b0b0; stroke-width: 0.8; stroke-linecap: square"/>
     </g>
     <g id="line2d_18">
      <g>
       <use xlink:href="#m52f1bf44e3" x="32.744006" y="101.567446" style="stroke: #000000; stroke-width: 0.8"/>
      </g>
     </g>
     <g id="text_10">
      <!-- $\mathdefault{40}$ -->
      <g transform="translate(15.781335 105.026696) scale(0.1 -0.1)">
       <use xlink:href="#CMR17-34" transform="scale(0.996264)"/>
       <use xlink:href="#CMR17-30" transform="translate(45.690477 0) scale(0.996264)"/>
      </g>
     </g>
    </g>
    <g id="ytick_4">
     <g id="line2d_19">
      <path d="M 32.744006 78.341364 
L 332.911083 78.341364 
" clip-path="url(#p12a8b91746)" style="fill: none; stroke: #b0b0b0; stroke-width: 0.8; stroke-linecap: square"/>
     </g>
     <g id="line2d_20">
      <g>
       <use xlink:href="#m52f1bf44e3" x="32.744006" y="78.341364" style="stroke: #000000; stroke-width: 0.8"/>
      </g>
     </g>
     <g id="text_11">
      <!-- $\mathdefault{60}$ -->
      <g transform="translate(15.781335 81.800613) scale(0.1 -0.1)">
       <use xlink:href="#CMR17-36" transform="scale(0.996264)"/>
       <use xlink:href="#CMR17-30" transform="translate(45.690477 0) scale(0.996264)"/>
      </g>
     </g>
    </g>
    <g id="ytick_5">
     <g id="line2d_21">
      <path d="M 32.744006 55.115282 
L 332.911083 55.115282 
" clip-path="url(#p12a8b91746)" style="fill: none; stroke: #b0b0b0; stroke-width: 0.8; stroke-linecap: square"/>
     </g>
     <g id="line2d_22">
      <g>
       <use xlink:href="#m52f1bf44e3" x="32.744006" y="55.115282" style="stroke: #000000; stroke-width: 0.8"/>
      </g>
     </g>
     <g id="text_12">
      <!-- $\mathdefault{80}$ -->
      <g transform="translate(15.781335 58.574531) scale(0.1 -0.1)">
       <use xlink:href="#CMR17-38" transform="scale(0.996264)"/>
       <use xlink:href="#CMR17-30" transform="translate(45.690477 0) scale(0.996264)"/>
      </g>
     </g>
    </g>
    <g id="ytick_6">
     <g id="line2d_23">
      <path d="M 32.744006 31.8892 
L 332.911083 31.8892 
" clip-path="url(#p12a8b91746)" style="fill: none; stroke: #b0b0b0; stroke-width: 0.8; stroke-linecap: square"/>
     </g>
     <g id="line2d_24">
      <g>
       <use xlink:href="#m52f1bf44e3" x="32.744006" y="31.8892" style="stroke: #000000; stroke-width: 0.8"/>
      </g>
     </g>
     <g id="text_13">
      <!-- $\mathdefault{100}$ -->
      <g transform="translate(10.8 35.348449) scale(0.1 -0.1)">
       <use xlink:href="#CMR17-31" transform="scale(0.996264)"/>
       <use xlink:href="#CMR17-30" transform="translate(45.690477 0) scale(0.996264)"/>
       <use xlink:href="#CMR17-30" transform="translate(91.380954 0) scale(0.996264)"/>
      </g>
     </g>
    </g>
   </g>
   <g id="line2d_25">
    <path d="M 46.387964 148.01961 
L 55.675143 147.274236 
L 64.962321 146.302874 
L 74.2495 145.105527 
L 83.536679 143.682193 
L 92.823857 142.032873 
L 102.111036 140.157566 
L 111.398215 138.056274 
L 120.685393 135.728995 
L 129.972572 133.175729 
L 139.259751 130.396478 
L 148.820082 127.299429 
L 158.380413 123.962906 
L 167.940743 120.386907 
L 177.501074 116.571434 
L 187.061405 112.516485 
L 196.621736 108.222061 
L 206.182067 103.688162 
L 216.015551 98.774887 
L 225.849034 93.608258 
L 235.682517 88.188273 
L 245.516001 82.514933 
L 255.349484 76.588239 
L 265.45612 70.232905 
L 275.562755 63.609946 
L 285.669391 56.71936 
L 295.776026 49.56115 
L 305.882662 42.135313 
L 316.26245 34.230205 
L 319.267125 31.8892 
L 319.267125 31.8892 
" clip-path="url(#p12a8b91746)" style="fill: none; stroke: #1f77b4; stroke-linecap: square"/>
   </g>
   <g id="patch_3">
    <path d="M 32.744006 153.826131 
L 32.744006 26.08268 
" style="fill: none; stroke: #000000; stroke-width: 0.8; stroke-linejoin: miter; stroke-linecap: square"/>
   </g>
   <g id="patch_4">
    <path d="M 332.911083 153.826131 
L 332.911083 26.08268 
" style="fill: none; stroke: #000000; stroke-width: 0.8; stroke-linejoin: miter; stroke-linecap: square"/>
   </g>
   <g id="patch_5">
    <path d="M 32.744006 153.826131 
L 332.911083 153.826131 
" style="fill: none; stroke: #000000; stroke-width: 0.8; stroke-linejoin: miter; stroke-linecap: square"/>
   </g>
   <g id="patch_6">
    <path d="M 32.744006 26.08268 
L 332.911083 26.08268 
" style="fill: none; stroke: #000000; stroke-width: 0.8; stroke-linejoin: miter; stroke-linecap: square"/>
   </g>
   <g id="text_14">
    <!-- $\dot{d}(t)$ km/h -->
    <g transform="translate(161.444147 20.08268) scale(0.1 -0.1)">
     <defs>
      <path id="CMR17-5f" d="M 1056 3961 
C 1056 4115 934 4224 800 4224 
C 646 4224 538 4102 538 3961 
C 538 3807 659 3699 794 3699 
C 947 3699 1056 3820 1056 3961 
z
" transform="scale(0.015625)"/>
      <path id="CMMI12-64" d="M 3219 4255 
C 3226 4281 3238 4319 3238 4351 
C 3238 4416 3174 4416 3162 4416 
C 3155 4416 2842 4390 2810 4383 
C 2701 4377 2605 4364 2490 4358 
C 2330 4345 2285 4339 2285 4223 
C 2285 4159 2336 4159 2426 4159 
C 2739 4159 2746 4103 2746 4040 
C 2746 4002 2733 3951 2726 3932 
L 2336 2394 
C 2266 2560 2093 2816 1760 2816 
C 1037 2816 256 1883 256 938 
C 256 306 627 -64 1062 -64 
C 1414 -64 1715 210 1894 421 
C 1958 44 2259 -64 2451 -64 
C 2643 -64 2797 51 2912 281 
C 3014 498 3104 887 3104 913 
C 3104 945 3078 970 3040 970 
C 2982 970 2976 938 2950 842 
C 2854 466 2733 64 2470 64 
C 2285 64 2272 230 2272 357 
C 2272 383 2272 517 2317 696 
L 3219 4255 
z
M 1926 759 
C 1894 651 1894 638 1805 517 
C 1664 338 1382 64 1082 64 
C 819 64 672 300 672 676 
C 672 1028 870 1743 992 2011 
C 1210 2458 1510 2687 1760 2687 
C 2182 2687 2266 2164 2266 2113 
C 2266 2107 2246 2024 2240 2011 
L 1926 759 
z
" transform="scale(0.015625)"/>
      <path id="CMR17-28" d="M 1958 -1562 
C 1958 -1556 1958 -1543 1939 -1524 
C 1645 -1223 858 -403 858 1596 
C 858 3595 1632 4408 1946 4729 
C 1946 4735 1958 4748 1958 4767 
C 1958 4787 1939 4800 1914 4800 
C 1843 4800 1299 4325 986 3620 
C 666 2909 576 2218 576 1603 
C 576 1141 621 360 1005 -467 
C 1312 -1133 1837 -1600 1914 -1600 
C 1946 -1600 1958 -1588 1958 -1562 
z
" transform="scale(0.015625)"/>
      <path id="CMR17-29" d="M 1683 1596 
C 1683 2057 1638 2839 1254 3665 
C 947 4332 422 4800 346 4800 
C 326 4800 301 4793 301 4761 
C 301 4748 307 4742 314 4729 
C 621 4408 1402 3595 1402 1603 
C 1402 -396 627 -1210 314 -1530 
C 307 -1543 301 -1549 301 -1562 
C 301 -1594 326 -1600 346 -1600 
C 416 -1600 960 -1127 1274 -422 
C 1594 289 1683 981 1683 1596 
z
" transform="scale(0.015625)"/>
      <path id="CMSS17-6b" d="M 1696 1686 
L 2688 2735 
L 2074 2735 
L 954 1552 
L 954 4416 
L 480 4416 
L 480 0 
L 947 0 
L 947 891 
L 1376 1342 
L 2278 0 
L 2822 0 
L 1696 1686 
z
" transform="scale(0.015625)"/>
      <path id="CMSS17-6d" d="M 4288 1878 
C 4288 2309 4179 2816 3462 2816 
C 2982 2816 2694 2515 2566 2328 
C 2451 2668 2182 2816 1798 2816 
C 1363 2816 1088 2566 941 2386 
L 941 2783 
L 474 2783 
L 474 0 
L 960 0 
L 960 1556 
C 960 1936 1101 2425 1555 2425 
C 2138 2425 2138 2013 2138 1826 
L 2138 0 
L 2624 0 
L 2624 1556 
C 2624 1936 2765 2425 3219 2425 
C 3802 2425 3802 2013 3802 1826 
L 3802 0 
L 4288 0 
L 4288 1878 
z
" transform="scale(0.015625)"/>
      <path id="CMSS17-2f" d="M 2637 4575 
C 2669 4658 2669 4671 2669 4684 
C 2669 4761 2611 4800 2560 4800 
C 2483 4800 2458 4748 2432 4671 
L 365 -1376 
C 333 -1460 333 -1472 333 -1485 
C 333 -1562 390 -1600 442 -1600 
C 518 -1600 544 -1549 570 -1472 
L 2637 4575 
z
" transform="scale(0.015625)"/>
      <path id="CMSS17-68" d="M 2618 1878 
C 2618 2283 2522 2816 1798 2816 
C 1395 2816 1133 2617 947 2399 
L 947 4416 
L 474 4416 
L 474 0 
L 960 0 
L 960 1556 
C 960 1962 1114 2425 1549 2425 
C 2112 2425 2131 2045 2131 1826 
L 2131 0 
L 2618 0 
L 2618 1878 
z
" transform="scale(0.015625)"/>
     </defs>
     <use xlink:href="#CMR17-5f" transform="translate(29.167325 26.296621) scale(0.996264)"/>
     <use xlink:href="#CMMI12-64" transform="scale(0.996264)"/>
     <use xlink:href="#CMR17-28" transform="translate(50.689097 0) scale(0.996264)"/>
     <use xlink:href="#CMMI12-74" transform="translate(85.969865 0) scale(0.996264)"/>
     <use xlink:href="#CMR17-29" transform="translate(121.196195 0) scale(0.996264)"/>
     <use xlink:href="#CMSS17-6b" transform="translate(187.706075 0) scale(0.996264)"/>
     <use xlink:href="#CMSS17-6d" transform="translate(233.308565 0) scale(0.996264)"/>
     <use xlink:href="#CMSS17-2f" transform="translate(307.537819 0) scale(0.996264)"/>
     <use xlink:href="#CMSS17-68" transform="translate(354.381443 0) scale(0.996264)"/>
    </g>
   </g>
  </g>
 </g>
 <defs>
  <clipPath id="p12a8b91746">
   <rect x="32.744006" y="26.08268" width="300.167078" height="127.743451"/>
  </clipPath>
 </defs>
</svg>
