<?xml version="1.0" encoding="utf-8" standalone="no"?>
<!DOCTYPE svg PUBLIC "-//W3C//DTD SVG 1.1//EN"
  "http://www.w3.org/Graphics/SVG/1.1/DTD/svg11.dtd">
<svg xmlns:xlink="http://www.w3.org/1999/xlink" width="343.711083pt" height="193.337484pt" viewBox="0 0 343.711083 193.337484" xmlns="http://www.w3.org/2000/svg" version="1.1">
 <metadata>
  <rdf:RDF xmlns:dc="http://purl.org/dc/elements/1.1/" xmlns:cc="http://creativecommons.org/ns#" xmlns:rdf="http://www.w3.org/1999/02/22-rdf-syntax-ns#">
   <cc:Work>
    <dc:type rdf:resource="http://purl.org/dc/dcmitype/StillImage"/>
    <dc:date>2026-02-12T22:40:13.151038</dc:date>
    <dc:format>image/svg+xml</dc:format>
    <dc:creator>
     <cc:Agent>
      <dc:title>Matplotlib v3.10.0, https://matplotlib.org/</dc:title>
     </cc:Agent>
    </dc:creator>
   </cc:Work>
  </rdf:RDF>
 </metadata>
 <defs>
  <style type="text/css">*{stroke-linejoin: round; stroke-linecap: butt}</style>
 </defs>
 <g id="figure_1">
  <g id="patch_1">
   <path d="M 0 193.337484 
L 343.711083 193.337484 
L 343.711083 0 
L 0 0 
z
" style="fill: #ffffff"/>
  </g>
  <g id="axes_1">
   <g id="patch_2">
    <path d="M 42.963885 154.669988 
L 309.339975 154.669988 
L 309.339975 23.200498 
L 42.963885 23.200498 
z
" style="fill: #ffffff"/>
   </g>
   <g id="matplotlib.axis_1">
    <g id="xtick_1">
     <g id="line2d_1">
      <defs>
       <path id="m2d5d91212f" d="M 0 0 
L 0 3.5 
" style="stroke: #000000; stroke-width: 0.8"/>
      </defs>
      <g>
       <use xlink:href="#m2d5d91212f" x="55.07189" y="154.669988" style="stroke: #000000; stroke-width: 0.8"/>
      </g>
     </g>
     <g id="text_1">
      <!-- $\mathdefault{0.0}$ -->
      <g transform="translate(48.70685 168.588486) scale(0.1 -0.1)">
       <defs>
        <path id="CMR17-30" d="M 2688 2038 
C 2688 2430 2682 3099 2413 3613 
C 2176 4063 1798 4224 1466 4224 
C 1158 4224 768 4082 525 3620 
C 269 3137 243 2539 243 2038 
C 243 1671 250 1112 448 623 
C 723 -39 1216 -128 1466 -128 
C 1760 -128 2208 -7 2470 604 
C 2662 1048 2688 1568 2688 2038 
z
M 1466 -26 
C 1056 -26 813 328 723 816 
C 653 1196 653 1749 653 2109 
C 653 2604 653 3015 736 3407 
C 858 3954 1216 4121 1466 4121 
C 1728 4121 2067 3947 2189 3420 
C 2272 3054 2278 2623 2278 2109 
C 2278 1691 2278 1176 2202 797 
C 2067 96 1690 -26 1466 -26 
z
" transform="scale(0.015625)"/>
        <path id="CMMI12-3a" d="M 1178 307 
C 1178 492 1024 620 870 620 
C 685 620 557 467 557 313 
C 557 128 710 0 864 0 
C 1050 0 1178 153 1178 307 
z
" transform="scale(0.015625)"/>
       </defs>
       <use xlink:href="#CMR17-30" transform="scale(0.996264)"/>
       <use xlink:href="#CMMI12-3a" transform="translate(45.690477 0) scale(0.996264)"/>
       <use xlink:href="#CMR17-30" transform="translate(72.787654 0) scale(0.996264)"/>
      </g>
     </g>
    </g>
    <g id="xtick_2">
     <g id="line2d_2">
      <g>
       <use xlink:href="#m2d5d91212f" x="95.431903" y="154.669988" style="stroke: #000000; stroke-width: 0.8"/>
      </g>
     </g>
     <g id="text_2">
      <!-- $\mathdefault{0.5}$ -->
      <g transform="translate(89.066864 168.588486) scale(0.1 -0.1)">
       <defs>
        <path id="CMR17-35" d="M 730 3750 
C 794 3724 1056 3641 1325 3641 
C 1920 3641 2246 3961 2432 4140 
C 2432 4191 2432 4224 2394 4224 
C 2387 4224 2374 4224 2323 4198 
C 2099 4102 1837 4032 1517 4032 
C 1325 4032 1037 4055 723 4191 
C 653 4224 640 4224 634 4224 
C 602 4224 595 4217 595 4090 
L 595 2231 
C 595 2113 595 2080 659 2080 
C 691 2080 704 2093 736 2139 
C 941 2435 1222 2560 1542 2560 
C 1766 2560 2246 2415 2246 1293 
C 2246 1087 2246 716 2054 422 
C 1894 159 1645 25 1370 25 
C 947 25 518 319 403 812 
C 429 806 480 793 506 793 
C 589 793 749 838 749 1036 
C 749 1209 627 1280 506 1280 
C 358 1280 262 1190 262 1011 
C 262 454 704 -128 1382 -128 
C 2042 -128 2669 441 2669 1267 
C 2669 2054 2170 2662 1549 2662 
C 1222 2662 947 2540 730 2304 
L 730 3750 
z
" transform="scale(0.015625)"/>
       </defs>
       <use xlink:href="#CMR17-30" transform="scale(0.996264)"/>
       <use xlink:href="#CMMI12-3a" transform="translate(45.690477 0) scale(0.996264)"/>
       <use xlink:href="#CMR17-35" transform="translate(72.787654 0) scale(0.996264)"/>
      </g>
     </g>
    </g>
    <g id="xtick_3">
     <g id="line2d_3">
      <g>
       <use xlink:href="#m2d5d91212f" x="135.791917" y="154.669988" style="stroke: #000000; stroke-width: 0.8"/>
      </g>
     </g>
     <g id="text_3">
      <!-- $\mathdefault{1.0}$ -->
      <g transform="translate(129.426877 168.588486) scale(0.1 -0.1)">
       <defs>
        <path id="CMR17-31" d="M 1702 4083 
C 1702 4217 1696 4224 1606 4224 
C 1357 3927 979 3833 621 3820 
C 602 3820 570 3820 563 3808 
C 557 3795 557 3782 557 3648 
C 755 3648 1088 3686 1344 3839 
L 1344 467 
C 1344 243 1331 166 781 166 
L 589 166 
L 589 0 
C 896 6 1216 12 1523 12 
C 1830 12 2150 6 2458 0 
L 2458 166 
L 2266 166 
C 1715 166 1702 236 1702 467 
L 1702 4083 
z
" transform="scale(0.015625)"/>
       </defs>
       <use xlink:href="#CMR17-31" transform="scale(0.996264)"/>
       <use xlink:href="#CMMI12-3a" transform="translate(45.690477 0) scale(0.996264)"/>
       <use xlink:href="#CMR17-30" transform="translate(72.787654 0) scale(0.996264)"/>
      </g>
     </g>
    </g>
    <g id="xtick_4">
     <g id="line2d_4">
      <g>
       <use xlink:href="#m2d5d91212f" x="176.15193" y="154.669988" style="stroke: #000000; stroke-width: 0.8"/>
      </g>
     </g>
     <g id="text_4">
      <!-- $\mathdefault{1.5}$ -->
      <g transform="translate(169.786891 168.588486) scale(0.1 -0.1)">
       <use xlink:href="#CMR17-31" transform="scale(0.996264)"/>
       <use xlink:href="#CMMI12-3a" transform="translate(45.690477 0) scale(0.996264)"/>
       <use xlink:href="#CMR17-35" transform="translate(72.787654 0) scale(0.996264)"/>
      </g>
     </g>
    </g>
    <g id="xtick_5">
     <g id="line2d_5">
      <g>
       <use xlink:href="#m2d5d91212f" x="216.511944" y="154.669988" style="stroke: #000000; stroke-width: 0.8"/>
      </g>
     </g>
     <g id="text_5">
      <!-- $\mathdefault{2.0}$ -->
      <g transform="translate(210.146904 168.588486) scale(0.1 -0.1)">
       <defs>
        <path id="CMR17-32" d="M 2669 990 
L 2554 990 
C 2490 537 2438 460 2413 422 
C 2381 371 1920 371 1830 371 
L 602 371 
C 832 620 1280 1073 1824 1596 
C 2214 1966 2669 2400 2669 3033 
C 2669 3788 2067 4224 1395 4224 
C 691 4224 262 3603 262 3027 
C 262 2777 448 2745 525 2745 
C 589 2745 781 2783 781 3007 
C 781 3206 614 3264 525 3264 
C 486 3264 448 3257 422 3244 
C 544 3788 915 4057 1306 4057 
C 1862 4057 2227 3616 2227 3033 
C 2227 2477 1901 1998 1536 1583 
L 262 147 
L 262 0 
L 2515 0 
L 2669 990 
z
" transform="scale(0.015625)"/>
       </defs>
       <use xlink:href="#CMR17-32" transform="scale(0.996264)"/>
       <use xlink:href="#CMMI12-3a" transform="translate(45.690477 0) scale(0.996264)"/>
       <use xlink:href="#CMR17-30" transform="translate(72.787654 0) scale(0.996264)"/>
      </g>
     </g>
    </g>
    <g id="xtick_6">
     <g id="line2d_6">
      <g>
       <use xlink:href="#m2d5d91212f" x="256.871957" y="154.669988" style="stroke: #000000; stroke-width: 0.8"/>
      </g>
     </g>
     <g id="text_6">
      <!-- $\mathdefault{2.5}$ -->
      <g transform="translate(250.506918 168.588486) scale(0.1 -0.1)">
       <use xlink:href="#CMR17-32" transform="scale(0.996264)"/>
       <use xlink:href="#CMMI12-3a" transform="translate(45.690477 0) scale(0.996264)"/>
       <use xlink:href="#CMR17-35" transform="translate(72.787654 0) scale(0.996264)"/>
      </g>
     </g>
    </g>
    <g id="xtick_7">
     <g id="line2d_7">
      <g>
       <use xlink:href="#m2d5d91212f" x="297.231971" y="154.669988" style="stroke: #000000; stroke-width: 0.8"/>
      </g>
     </g>
     <g id="text_7">
      <!-- $\mathdefault{3.0}$ -->
      <g transform="translate(290.866932 168.588486) scale(0.1 -0.1)">
       <defs>
        <path id="CMR17-33" d="M 1414 2176 
C 1984 2176 2234 1673 2234 1094 
C 2234 322 1824 25 1453 25 
C 1114 25 563 193 390 691 
C 422 678 454 678 486 678 
C 640 678 755 780 755 947 
C 755 1132 614 1216 486 1216 
C 378 1216 211 1164 211 927 
C 211 335 787 -128 1466 -128 
C 2176 -128 2720 432 2720 1087 
C 2720 1718 2208 2176 1600 2246 
C 2086 2347 2554 2776 2554 3353 
C 2554 3856 2048 4224 1472 4224 
C 890 4224 378 3862 378 3347 
C 378 3123 544 3084 627 3084 
C 762 3084 877 3167 877 3334 
C 877 3500 762 3584 627 3584 
C 602 3584 570 3584 544 3571 
C 730 3999 1235 4076 1459 4076 
C 1683 4076 2106 3966 2106 3347 
C 2106 3167 2080 2851 1862 2574 
C 1670 2329 1453 2316 1242 2297 
C 1210 2297 1062 2284 1037 2284 
C 992 2278 966 2272 966 2227 
C 966 2182 973 2176 1101 2176 
L 1414 2176 
z
" transform="scale(0.015625)"/>
       </defs>
       <use xlink:href="#CMR17-33" transform="scale(0.996264)"/>
       <use xlink:href="#CMMI12-3a" transform="translate(45.690477 0) scale(0.996264)"/>
       <use xlink:href="#CMR17-30" transform="translate(72.787654 0) scale(0.996264)"/>
      </g>
     </g>
    </g>
    <g id="text_8">
     <!-- $t$ -->
     <g transform="translate(174.353119 181.444163) scale(0.1 -0.1)">
      <defs>
       <path id="CMMI12-74" d="M 1286 2566 
L 1875 2566 
C 1997 2566 2061 2566 2061 2681 
C 2061 2752 2022 2752 1894 2752 
L 1331 2752 
L 1568 3664 
C 1594 3752 1594 3764 1594 3808 
C 1594 3910 1510 3968 1427 3968 
C 1376 3968 1229 3948 1178 3746 
L 928 2752 
L 326 2752 
C 198 2752 141 2752 141 2630 
C 141 2566 186 2566 307 2566 
L 877 2566 
L 454 881 
C 403 657 384 593 384 510 
C 384 210 595 -64 954 -64 
C 1600 -64 1946 868 1946 913 
C 1946 951 1920 970 1882 970 
C 1869 970 1843 970 1830 944 
C 1824 938 1818 932 1773 830 
C 1638 510 1344 64 973 64 
C 781 64 768 223 768 364 
C 768 370 768 491 787 568 
L 1286 2566 
z
" transform="scale(0.015625)"/>
      </defs>
      <use xlink:href="#CMMI12-74" transform="scale(0.996264)"/>
     </g>
    </g>
   </g>
   <g id="matplotlib.axis_2">
    <g id="ytick_1">
     <g id="line2d_8">
      <defs>
       <path id="mf4916627ac" d="M 0 0 
L -3.5 0 
" style="stroke: #000000; stroke-width: 0.8"/>
      </defs>
      <g>
       <use xlink:href="#mf4916627ac" x="42.963885" y="148.694102" style="stroke: #000000; stroke-width: 0.8"/>
      </g>
     </g>
     <g id="text_9">
      <!-- $\mathdefault{0}$ -->
      <g transform="translate(30.98255 152.153351) scale(0.1 -0.1)">
       <use xlink:href="#CMR17-30" transform="scale(0.996264)"/>
      </g>
     </g>
    </g>
    <g id="ytick_2">
     <g id="line2d_9">
      <g>
       <use xlink:href="#mf4916627ac" x="42.963885" y="112.463806" style="stroke: #000000; stroke-width: 0.8"/>
      </g>
     </g>
     <g id="text_10">
      <!-- $\mathdefault{1}$ -->
      <g transform="translate(30.98255 115.923055) scale(0.1 -0.1)">
       <use xlink:href="#CMR17-31" transform="scale(0.996264)"/>
      </g>
     </g>
    </g>
    <g id="ytick_3">
     <g id="line2d_10">
      <g>
       <use xlink:href="#mf4916627ac" x="42.963885" y="76.23351" style="stroke: #000000; stroke-width: 0.8"/>
      </g>
     </g>
     <g id="text_11">
      <!-- $\mathdefault{2}$ -->
      <g transform="translate(30.98255 79.692759) scale(0.1 -0.1)">
       <use xlink:href="#CMR17-32" transform="scale(0.996264)"/>
      </g>
     </g>
    </g>
    <g id="ytick_4">
     <g id="line2d_11">
      <g>
       <use xlink:href="#mf4916627ac" x="42.963885" y="40.003214" style="stroke: #000000; stroke-width: 0.8"/>
      </g>
     </g>
     <g id="text_12">
      <!-- $\mathdefault{3}$ -->
      <g transform="translate(30.98255 43.462463) scale(0.1 -0.1)">
       <use xlink:href="#CMR17-33" transform="scale(0.996264)"/>
      </g>
     </g>
    </g>
    <g id="text_13">
     <!-- $x(t)$ -->
     <g transform="translate(24.49189 97.455386) rotate(-90) scale(0.1 -0.1)">
      <defs>
       <path id="CMMI12-78" d="M 3034 2624 
C 2829 2585 2752 2431 2752 2310 
C 2752 2156 2874 2105 2963 2105 
C 3155 2105 3290 2271 3290 2444 
C 3290 2694 2982 2816 2714 2816 
C 2323 2816 2106 2451 2048 2329 
C 1901 2790 1504 2816 1389 2816 
C 736 2816 390 1993 390 1849 
C 390 1823 416 1790 461 1790 
C 512 1790 525 1829 538 1855 
C 755 2572 1184 2687 1370 2687 
C 1658 2687 1715 2438 1715 2284 
C 1715 2143 1677 1993 1600 1678 
L 1382 778 
C 1286 390 1101 64 762 64 
C 730 64 570 64 435 126 
C 666 166 717 358 717 435 
C 717 563 621 640 499 640 
C 346 640 179 505 179 300 
C 179 57 480 -64 755 -64 
C 1062 -64 1280 153 1414 415 
C 1517 64 1837 -64 2074 -64 
C 2726 -64 3072 751 3072 896 
C 3072 929 3046 955 3008 955 
C 2950 955 2944 922 2925 870 
C 2752 300 2381 64 2093 64 
C 1869 64 1747 204 1747 467 
C 1747 607 1773 712 1875 1146 
L 2099 2039 
C 2195 2425 2413 2687 2707 2687 
C 2720 2687 2899 2687 3034 2624 
z
" transform="scale(0.015625)"/>
       <path id="CMR17-28" d="M 1958 -1562 
C 1958 -1556 1958 -1543 1939 -1524 
C 1645 -1223 858 -403 858 1596 
C 858 3595 1632 4408 1946 4729 
C 1946 4735 1958 4748 1958 4767 
C 1958 4787 1939 4800 1914 4800 
C 1843 4800 1299 4325 986 3620 
C 666 2909 576 2218 576 1603 
C 576 1141 621 360 1005 -467 
C 1312 -1133 1837 -1600 1914 -1600 
C 1946 -1600 1958 -1588 1958 -1562 
z
" transform="scale(0.015625)"/>
       <path id="CMR17-29" d="M 1683 1596 
C 1683 2057 1638 2839 1254 3665 
C 947 4332 422 4800 346 4800 
C 326 4800 301 4793 301 4761 
C 301 4748 307 4742 314 4729 
C 621 4408 1402 3595 1402 1603 
C 1402 -396 627 -1210 314 -1530 
C 307 -1543 301 -1549 301 -1562 
C 301 -1594 326 -1600 346 -1600 
C 416 -1600 960 -1127 1274 -422 
C 1594 289 1683 981 1683 1596 
z
" transform="scale(0.015625)"/>
      </defs>
      <use xlink:href="#CMMI12-78" transform="scale(0.996264)"/>
      <use xlink:href="#CMR17-28" transform="translate(55.43406 0) scale(0.996264)"/>
      <use xlink:href="#CMMI12-74" transform="translate(90.714827 0) scale(0.996264)"/>
      <use xlink:href="#CMR17-29" transform="translate(125.941158 0) scale(0.996264)"/>
     </g>
    </g>
   </g>
   <g id="line2d_12">
    <path d="M 55.07189 145.071072 
L 64.040781 143.686295 
L 73.009673 142.078184 
L 81.978565 140.24619 
L 90.947457 138.190083 
L 99.916349 135.910217 
L 109.127643 133.336585 
L 118.338938 130.527496 
L 127.550232 127.482413 
L 136.761527 124.201016 
L 145.972821 120.683205 
L 155.184115 116.929095 
L 164.39541 112.939019 
L 173.849107 108.599157 
L 183.302804 104.011694 
L 192.7565 99.17626 
L 202.210197 94.092478 
L 211.663894 88.760055 
L 221.359994 83.032396 
L 231.056093 77.042818 
L 240.752192 70.791273 
L 250.448292 64.277803 
L 260.386793 57.329804 
L 270.325295 50.106998 
L 280.263797 42.609727 
L 290.202299 34.838429 
L 297.231971 29.176384 
L 297.231971 29.176384 
" clip-path="url(#p590c4c54fb)" style="fill: none; stroke: #1f77b4; stroke-linecap: square"/>
   </g>
   <g id="line2d_13">
    <path d="M 55.07189 148.331799 
L 64.040781 147.81748 
L 73.009673 147.079353 
L 81.978565 146.117844 
L 90.947457 144.932426 
L 99.916349 143.523278 
L 108.885241 141.890989 
L 117.854133 140.034922 
L 126.823025 137.954749 
L 135.791917 135.650679 
L 145.003211 133.05201 
L 154.214505 130.218058 
L 163.4258 127.148268 
L 172.637094 123.842257 
L 181.848389 120.299847 
L 191.059683 116.521057 
L 200.270977 112.506114 
L 209.724674 108.140406 
L 219.178371 103.526889 
L 228.632068 98.665136 
L 238.085765 93.55493 
L 247.539462 88.196167 
L 257.235561 82.441739 
L 266.931661 76.425773 
L 276.62776 70.14831 
L 286.323859 63.609446 
L 296.262361 56.635978 
L 297.231971 55.940951 
L 297.231971 55.940951 
" clip-path="url(#p590c4c54fb)" style="fill: none; stroke: #ff7f0e; stroke-linecap: square"/>
   </g>
   <g id="line2d_14">
    <path d="M 55.07189 148.657871 
L 64.040781 148.418742 
L 73.009673 147.95595 
L 81.978565 147.269616 
L 90.947457 146.359401 
L 99.916349 145.225896 
L 108.885241 143.868501 
L 117.854133 142.287161 
L 126.823025 140.482669 
L 135.791917 138.454783 
L 144.760809 136.202947 
L 153.7297 133.726991 
L 162.940995 130.951057 
L 172.152289 127.939599 
L 181.363584 124.692989 
L 190.574878 121.210759 
L 199.786172 117.492499 
L 208.997467 113.537945 
L 218.451164 109.233496 
L 227.904861 104.680059 
L 237.358557 99.877826 
L 246.812254 94.82715 
L 256.265951 89.528546 
L 265.962051 83.836432 
L 275.65815 77.882937 
L 285.354249 71.668056 
L 295.050349 65.191792 
L 297.231971 63.698612 
L 297.231971 63.698612 
" clip-path="url(#p590c4c54fb)" style="fill: none; stroke: #2ca02c; stroke-linecap: square"/>
   </g>
   <g id="line2d_15">
    <path d="M 55.07189 148.690479 
L 64.040781 148.5384 
L 73.009673 148.162682 
L 81.978565 147.563245 
L 90.947457 146.740319 
L 99.916349 145.693451 
L 108.885241 144.42334 
L 117.854133 142.929475 
L 126.823025 141.211533 
L 135.791917 139.27004 
L 144.760809 137.105515 
L 153.7297 134.717411 
L 162.940995 132.031601 
L 172.152289 129.109384 
L 181.363584 125.950949 
L 190.574878 122.556803 
L 199.786172 118.927543 
L 208.997467 115.062916 
L 218.451164 110.851402 
L 227.904861 106.391181 
L 237.358557 101.682034 
L 246.812254 96.723863 
L 256.265951 91.516691 
L 265.962051 85.917494 
L 275.65815 80.056804 
L 285.354249 73.935044 
L 295.050349 67.552658 
L 297.231971 66.080644 
L 297.231971 66.080644 
" clip-path="url(#p590c4c54fb)" style="fill: none; stroke: #d62728; stroke-linecap: square"/>
   </g>
   <g id="line2d_16">
    <path d="M 55.07189 148.694102 
L 297.231971 148.694102 
L 297.231971 148.694102 
" clip-path="url(#p590c4c54fb)" style="fill: none; stroke: #9467bd; stroke-linecap: square"/>
   </g>
   <g id="patch_3">
    <path d="M 42.963885 154.669988 
L 42.963885 23.200498 
" style="fill: none; stroke: #000000; stroke-width: 0.8; stroke-linejoin: miter; stroke-linecap: square"/>
   </g>
   <g id="patch_4">
    <path d="M 309.339975 154.669988 
L 309.339975 23.200498 
" style="fill: none; stroke: #000000; stroke-width: 0.8; stroke-linejoin: miter; stroke-linecap: square"/>
   </g>
   <g id="patch_5">
    <path d="M 42.963885 154.669988 
L 309.339975 154.669988 
" style="fill: none; stroke: #000000; stroke-width: 0.8; stroke-linejoin: miter; stroke-linecap: square"/>
   </g>
   <g id="patch_6">
    <path d="M 42.963885 23.200498 
L 309.339975 23.200498 
" style="fill: none; stroke: #000000; stroke-width: 0.8; stroke-linejoin: miter; stroke-linecap: square"/>
   </g>
   <g id="legend_1">
    <g id="patch_7">
     <path d="M 49.963885 100.88639 
L 133.084667 100.88639 
Q 135.084667 100.88639 135.084667 98.88639 
L 135.084667 30.200498 
Q 135.084667 28.200498 133.084667 28.200498 
L 49.963885 28.200498 
Q 47.963885 28.200498 47.963885 30.200498 
L 47.963885 98.88639 
Q 47.963885 100.88639 49.963885 100.88639 
z
" style="fill: #ffffff; opacity: 0.8; stroke: #cccccc; stroke-linejoin: miter"/>
    </g>
    <g id="line2d_17">
     <path d="M 51.963885 35.700498 
L 61.963885 35.700498 
L 71.963885 35.700498 
" style="fill: none; stroke: #1f77b4; stroke-linecap: square"/>
    </g>
    <g id="text_14">
     <!-- $x_0 = 0.1$ -->
     <g transform="translate(79.963885 39.200498) scale(0.1 -0.1)">
      <defs>
       <path id="CMR17-3d" d="M 4115 2048 
C 4211 2048 4307 2048 4307 2156 
C 4307 2272 4198 2272 4090 2272 
L 512 2272 
C 403 2272 294 2272 294 2156 
C 294 2048 390 2048 486 2048 
L 4115 2048 
z
M 4090 927 
C 4198 927 4307 927 4307 1043 
C 4307 1152 4211 1152 4115 1152 
L 486 1152 
C 390 1152 294 1152 294 1043 
C 294 927 403 927 512 927 
L 4090 927 
z
" transform="scale(0.015625)"/>
      </defs>
      <use xlink:href="#CMMI12-78" transform="scale(0.996264)"/>
      <use xlink:href="#CMR17-30" transform="translate(55.43406 -14.943915) scale(0.697382)"/>
      <use xlink:href="#CMR17-3d" transform="translate(115.589382 0) scale(0.996264)"/>
      <use xlink:href="#CMR17-30" transform="translate(214.978179 0) scale(0.996264)"/>
      <use xlink:href="#CMMI12-3a" transform="translate(260.668656 0) scale(0.996264)"/>
      <use xlink:href="#CMR17-31" transform="translate(287.765834 0) scale(0.996264)"/>
     </g>
    </g>
    <g id="line2d_18">
     <path d="M 51.963885 49.637676 
L 61.963885 49.637676 
L 71.963885 49.637676 
" style="fill: none; stroke: #ff7f0e; stroke-linecap: square"/>
    </g>
    <g id="text_15">
     <!-- $x_0 = 0.01$ -->
     <g transform="translate(79.963885 53.137676) scale(0.1 -0.1)">
      <use xlink:href="#CMMI12-78" transform="scale(0.996264)"/>
      <use xlink:href="#CMR17-30" transform="translate(55.43406 -14.943915) scale(0.697382)"/>
      <use xlink:href="#CMR17-3d" transform="translate(115.589382 0) scale(0.996264)"/>
      <use xlink:href="#CMR17-30" transform="translate(214.978179 0) scale(0.996264)"/>
      <use xlink:href="#CMMI12-3a" transform="translate(260.668656 0) scale(0.996264)"/>
      <use xlink:href="#CMR17-30" transform="translate(287.765834 0) scale(0.996264)"/>
      <use xlink:href="#CMR17-31" transform="translate(333.456311 0) scale(0.996264)"/>
     </g>
    </g>
    <g id="line2d_19">
     <path d="M 51.963885 63.574855 
L 61.963885 63.574855 
L 71.963885 63.574855 
" style="fill: none; stroke: #2ca02c; stroke-linecap: square"/>
    </g>
    <g id="text_16">
     <!-- $x_0 = 0.001$ -->
     <g transform="translate(79.963885 67.074855) scale(0.1 -0.1)">
      <use xlink:href="#CMMI12-78" transform="scale(0.996264)"/>
      <use xlink:href="#CMR17-30" transform="translate(55.43406 -14.943915) scale(0.697382)"/>
      <use xlink:href="#CMR17-3d" transform="translate(115.589382 0) scale(0.996264)"/>
      <use xlink:href="#CMR17-30" transform="translate(214.978179 0) scale(0.996264)"/>
      <use xlink:href="#CMMI12-3a" transform="translate(260.668656 0) scale(0.996264)"/>
      <use xlink:href="#CMR17-30" transform="translate(287.765834 0) scale(0.996264)"/>
      <use xlink:href="#CMR17-30" transform="translate(333.456311 0) scale(0.996264)"/>
      <use xlink:href="#CMR17-31" transform="translate(379.146788 0) scale(0.996264)"/>
     </g>
    </g>
    <g id="line2d_20">
     <path d="M 51.963885 77.512033 
L 61.963885 77.512033 
L 71.963885 77.512033 
" style="fill: none; stroke: #d62728; stroke-linecap: square"/>
    </g>
    <g id="text_17">
     <!-- $x_0 = 0.0001$ -->
     <g transform="translate(79.963885 81.012033) scale(0.1 -0.1)">
      <use xlink:href="#CMMI12-78" transform="scale(0.996264)"/>
      <use xlink:href="#CMR17-30" transform="translate(55.43406 -14.943915) scale(0.697382)"/>
      <use xlink:href="#CMR17-3d" transform="translate(115.589382 0) scale(0.996264)"/>
      <use xlink:href="#CMR17-30" transform="translate(214.978179 0) scale(0.996264)"/>
      <use xlink:href="#CMMI12-3a" transform="translate(260.668656 0) scale(0.996264)"/>
      <use xlink:href="#CMR17-30" transform="translate(287.765834 0) scale(0.996264)"/>
      <use xlink:href="#CMR17-30" transform="translate(333.456311 0) scale(0.996264)"/>
      <use xlink:href="#CMR17-30" transform="translate(379.146788 0) scale(0.996264)"/>
      <use xlink:href="#CMR17-31" transform="translate(424.837265 0) scale(0.996264)"/>
     </g>
    </g>
    <g id="line2d_21">
     <path d="M 51.963885 91.449211 
L 61.963885 91.449211 
L 71.963885 91.449211 
" style="fill: none; stroke: #9467bd; stroke-linecap: square"/>
    </g>
    <g id="text_18">
     <!-- $x_0 = 0.0$ -->
     <g transform="translate(79.963885 94.949211) scale(0.1 -0.1)">
      <use xlink:href="#CMMI12-78" transform="scale(0.996264)"/>
      <use xlink:href="#CMR17-30" transform="translate(55.43406 -14.943915) scale(0.697382)"/>
      <use xlink:href="#CMR17-3d" transform="translate(115.589382 0) scale(0.996264)"/>
      <use xlink:href="#CMR17-30" transform="translate(214.978179 0) scale(0.996264)"/>
      <use xlink:href="#CMMI12-3a" transform="translate(260.668656 0) scale(0.996264)"/>
      <use xlink:href="#CMR17-30" transform="translate(287.765834 0) scale(0.996264)"/>
     </g>
    </g>
   </g>
  </g>
 </g>
 <defs>
  <clipPath id="p590c4c54fb">
   <rect x="42.963885" y="23.200498" width="266.37609" height="131.469489"/>
  </clipPath>
 </defs>
</svg>
