<?xml version="1.0" encoding="utf-8" standalone="no"?>
<!DOCTYPE svg PUBLIC "-//W3C//DTD SVG 1.1//EN"
  "http://www.w3.org/Graphics/SVG/1.1/DTD/svg11.dtd">
<svg xmlns:xlink="http://www.w3.org/1999/xlink" width="343.711083pt" height="193.337484pt" viewBox="0 0 343.711083 193.337484" xmlns="http://www.w3.org/2000/svg" version="1.1">
 <metadata>
  <rdf:RDF xmlns:dc="http://purl.org/dc/elements/1.1/" xmlns:cc="http://creativecommons.org/ns#" xmlns:rdf="http://www.w3.org/1999/02/22-rdf-syntax-ns#">
   <cc:Work>
    <dc:type rdf:resource="http://purl.org/dc/dcmitype/StillImage"/>
    <dc:date>2026-02-12T22:39:32.686242</dc:date>
    <dc:format>image/svg+xml</dc:format>
    <dc:creator>
     <cc:Agent>
      <dc:title>Matplotlib v3.10.0, https://matplotlib.org/</dc:title>
     </cc:Agent>
    </dc:creator>
   </cc:Work>
  </rdf:RDF>
 </metadata>
 <defs>
  <style type="text/css">*{stroke-linejoin: round; stroke-linecap: butt}</style>
 </defs>
 <g id="figure_1">
  <g id="patch_1">
   <path d="M 0 193.337484 
L 343.711083 193.337484 
L 343.711083 0 
L 0 0 
z
" style="fill: #ffffff"/>
  </g>
  <g id="axes_1">
   <g id="LineCollection_1">
    <path d="M 85.9868 182.537484 
L 171.704084 96.8202 
L 171.64082 96.883464 
" clip-path="url(#pd14abf8530)" style="fill: none; stroke: #000000"/>
    <path d="M 97.830764 182.537484 
L 97.830764 182.537484 
L 100.9572 177.74247 
L 104.179201 173.011118 
L 107.491568 168.342556 
L 110.88897 163.735481 
L 114.366005 159.188167 
" clip-path="url(#pd14abf8530)" style="fill: none; stroke: #000000"/>
    <path d="M 109.674728 182.537484 
L 109.674728 182.537484 
L 111.682863 177.177986 
L 113.895314 171.899564 
L 116.307249 166.709251 
L 118.911799 161.612827 
L 121.700221 156.614586 
L 124.662163 151.717103 
L 127.785969 146.921143 
L 131.059007 142.225646 
" clip-path="url(#pd14abf8530)" style="fill: none; stroke: #000000"/>
    <path d="M 121.518693 182.537484 
L 121.518693 182.537484 
L 122.351763 176.875619 
L 123.455826 171.260526 
L 124.840716 165.708231 
L 126.512344 160.235607 
" clip-path="url(#pd14abf8530)" style="fill: none; stroke: #000000"/>
    <path d="M 133.362657 182.537484 
L 133.362657 182.537484 
L 133.115481 176.81981 
L 133.138542 171.097214 
L 133.459421 165.384021 
L 134.105315 159.698902 
L 135.100853 154.065045 
L 136.465241 148.509536 
L 138.209108 143.061691 
L 140.331746 137.750262 
L 142.819631 132.599875 
L 145.646887 127.627469 
L 148.777618 122.839844 
" clip-path="url(#pd14abf8530)" style="fill: none; stroke: #000000"/>
    <path d="M 139.284639 182.537484 
L 139.284639 182.537484 
L 138.563134 176.85988 
L 138.09221 171.156396 
L 137.904194 165.437069 
L 138.034046 159.716726 
L 138.517712 154.016119 
" clip-path="url(#pd14abf8530)" style="fill: none; stroke: #000000"/>
    <path d="M 151.128604 182.537484 
L 151.128604 182.537484 
L 149.60624 177.019881 
L 148.27933 171.452317 
L 147.179756 165.835818 
L 146.345962 160.174299 
L 145.823772 154.47635 
L 145.666425 148.757755 
L 145.932792 143.044656 
" clip-path="url(#pd14abf8530)" style="fill: none; stroke: #000000"/>
    <path d="M 162.972568 182.537484 
L 162.972568 182.537484 
L 160.830257 177.229355 
L 158.828601 171.866766 
L 156.991975 166.445673 
L 155.351134 160.962486 
L 153.945257 155.414925 
L 152.824515 149.803606 
L 152.05298 144.134965 
L 151.710874 138.42628 
L 151.893429 132.713334 
L 152.70066 127.059162 
L 154.174009 121.653545 
L 156.134418 116.877887 
" clip-path="url(#pd14abf8530)" style="fill: none; stroke: #000000"/>
    <path d="M 168.894551 182.537484 
L 168.894551 182.537484 
L 166.499097 177.338547 
L 164.22088 172.087296 
L 162.080087 166.778708 
L 160.102391 161.407478 
" clip-path="url(#pd14abf8530)" style="fill: none; stroke: #000000"/>
    <path d="M 180.738515 182.537484 
L 180.738515 182.537484 
L 177.927107 177.551006 
L 175.195406 172.520478 
L 172.55642 167.440784 
L 170.026669 162.305938 
L 167.627545 157.108962 
L 165.387355 151.841818 
L 163.34447 146.495537 
L 161.552285 141.060918 
L 160.087046 135.53072 
L 159.059734 129.905694 
" clip-path="url(#pd14abf8530)" style="fill: none; stroke: #000000"/>
    <path d="M 192.582479 182.537484 
L 192.582479 182.537484 
L 189.449082 177.746684 
L 186.368702 172.921651 
L 183.349298 168.058266 
L 180.400847 163.151595 
L 177.536099 158.19567 
L 174.771701 153.183202 
L 172.129976 148.105211 
L 169.641781 142.95059 
L 167.35138 137.705699 
" clip-path="url(#pd14abf8530)" style="fill: none; stroke: #000000"/>
    <path d="M 204.426444 182.537484 
L 204.426444 182.537484 
L 201.040148 177.92192 
L 197.688282 173.281304 
L 194.375541 168.612694 
L 191.107708 163.912563 
L 187.892035 159.176627 
L 184.737788 154.399608 
L 181.657089 149.574905 
L 178.666251 144.694107 
L 175.787988 139.746293 
L 173.055309 134.716988 
L 170.51886 129.586686 
L 168.262021 124.329146 
L 166.435317 118.911915 
L 166.435317 118.911915 
L 165.416552 114.195397 
L 165.416552 114.195397 
L 165.138654 110.479745 
L 165.138654 110.479745 
" clip-path="url(#pd14abf8530)" style="fill: none; stroke: #000000"/>
    <path d="M 216.270408 182.537484 
L 216.270408 182.537484 
L 212.682287 178.076985 
L 209.115692 173.599258 
L 205.573281 169.102383 
L 202.058268 164.584067 
L 198.574602 160.04155 
L 195.127215 155.471456 
L 191.722388 150.869593 
L 188.368307 146.230653 
L 185.075953 141.547765 
L 181.860578 136.811799 
L 178.744333 132.010225 
L 175.761312 127.125175 
L 172.968342 122.129976 
" clip-path="url(#pd14abf8530)" style="fill: none; stroke: #000000"/>
    <path d="M 228.114373 182.537484 
L 228.114373 182.537484 
L 224.362635 178.213684 
L 220.623427 173.879046 
L 216.898147 169.532433 
L 213.188463 165.172505 
L 209.496383 160.797664 
L 205.824359 156.40598 
L 202.175439 151.99509 
L 198.553475 147.562048 
L 194.963458 143.103113 
L 191.412022 138.613415 
L 187.908299 134.086431 
L 184.465408 129.513096 
L 181.103308 124.88021 
L 177.854852 120.167329 
L 174.78084 115.339941 
L 172.017899 110.33227 
L 172.017899 110.33227 
L 170.314541 106.326576 
L 170.314541 106.326576 
L 169.617129 103.843591 
L 169.617129 103.843591 
" clip-path="url(#pd14abf8530)" style="fill: none; stroke: #000000"/>
    <path d="M 234.036355 182.537484 
L 234.036355 182.537484 
L 230.214153 178.275844 
L 226.401044 174.006066 
L 222.597995 169.727325 
L 218.806151 165.438654 
L 215.026877 161.138905 
" clip-path="url(#pd14abf8530)" style="fill: none; stroke: #000000"/>
    <path d="M 239.958337 182.537484 
L 239.958337 182.537484 
L 236.071994 178.334252 
L 232.191857 174.12529 
L 228.318557 169.910035 
L 224.452832 165.687834 
L 220.595556 161.457912 
" clip-path="url(#pd14abf8530)" style="fill: none; stroke: #000000"/>
    <path d="M 245.880319 182.537484 
L 245.880319 182.537484 
L 241.935398 178.389179 
L 237.994255 174.237285 
L 234.057255 170.081461 
L 230.124824 165.921314 
L 226.197464 161.75638 
" clip-path="url(#pd14abf8530)" style="fill: none; stroke: #000000"/>
    <path d="M 251.802302 182.537484 
L 251.802302 182.537484 
L 247.803717 178.44088 
L 243.806862 174.342588 
L 239.811897 170.242454 
L 235.819007 166.1403 
L 231.828407 162.035917 
" clip-path="url(#pd14abf8530)" style="fill: none; stroke: #000000"/>
    <path d="M 257.724284 182.537484 
L 172.034436 96.847636 
L 172.034436 96.847636 
" clip-path="url(#pd14abf8530)" style="fill: none; stroke: #000000"/>
    <path d="M 257.724284 176.615502 
L 257.724284 176.615502 
L 253.627679 172.616918 
L 249.529387 168.620063 
L 245.429254 164.625098 
L 241.327099 160.632207 
L 237.222717 156.641607 
L 233.115862 152.653553 
L 229.006243 148.668346 
" clip-path="url(#pd14abf8530)" style="fill: none; stroke: #000000"/>
    <path d="M 257.724284 170.69352 
L 257.724284 170.69352 
L 253.575979 166.748599 
L 249.424084 162.807455 
L 245.268261 158.870455 
L 241.108113 154.938025 
" clip-path="url(#pd14abf8530)" style="fill: none; stroke: #000000"/>
    <path d="M 257.724284 164.771538 
L 257.724284 164.771538 
L 253.521051 160.885194 
L 249.312089 157.005057 
L 245.096835 153.131757 
L 240.874633 149.266032 
L 236.644711 145.408757 
L 232.406149 141.56098 
L 228.157837 137.723973 
L 223.898415 133.899304 
L 219.626195 130.08894 
L 215.339032 126.295404 
L 211.034136 122.522011 
L 206.707778 118.773261 
L 202.354776 115.055511 
L 197.967583 111.378227 
L 193.534475 107.756556 
L 189.035448 104.217457 
L 184.430954 100.818069 
L 179.617983 97.731359 
L 179.617983 97.731359 
L 177.515907 96.604708 
L 177.515907 96.604708 
L 176.083542 96.00076 
L 176.083542 96.00076 
L 174.85208 95.675615 
L 174.85208 95.675615 
L 173.813242 95.656153 
L 173.813242 95.656153 
L 173.026672 95.93843 
L 173.026672 95.93843 
L 172.530958 96.334203 
L 172.530958 96.334203 
L 172.302491 96.602767 
" clip-path="url(#pd14abf8530)" style="fill: none; stroke: #000000"/>
    <path d="M 257.724284 158.849556 
L 257.724284 158.849556 
L 253.462643 155.027353 
L 249.192865 151.214244 
L 244.914125 147.411196 
L 240.625454 143.619352 
" clip-path="url(#pd14abf8530)" style="fill: none; stroke: #000000"/>
    <path d="M 257.724284 152.927573 
L 257.724284 152.927573 
L 253.400484 149.175836 
L 249.065845 145.436627 
L 244.719233 141.711348 
L 240.359305 138.001664 
L 235.984464 134.309583 
L 231.59278 130.63756 
L 227.181889 126.988639 
L 222.748847 123.366676 
L 218.289912 119.776659 
L 213.800214 116.225223 
L 209.273231 112.721499 
L 204.699895 109.278608 
L 200.067009 105.916508 
" clip-path="url(#pd14abf8530)" style="fill: none; stroke: #000000"/>
    <path d="M 257.724284 147.005591 
L 257.724284 147.005591 
L 253.334293 143.331531 
L 248.930441 139.674099 
L 244.51123 136.035247 
" clip-path="url(#pd14abf8530)" style="fill: none; stroke: #000000"/>
    <path d="M 257.724284 135.161627 
L 257.724284 135.161627 
L 253.188679 131.668939 
L 248.632118 128.203646 
L 244.052197 124.769299 
L 239.446041 121.37024 
L 234.810167 118.011852 
L 230.1403 114.700937 
L 225.4311 111.446273 
L 220.675771 108.259489 
L 215.865476 105.156476 
L 210.988418 102.159821 
L 206.028396 99.303271 
L 200.962475 96.640665 
L 195.757544 94.26597 
L 190.368316 92.36535 
L 190.368316 92.36535 
L 186.251723 91.447946 
L 186.251723 91.447946 
L 182.985688 91.21338 
L 182.985688 91.21338 
L 180.29079 91.499123 
L 180.29079 91.499123 
L 178.024749 92.207167 
" clip-path="url(#pd14abf8530)" style="fill: none; stroke: #000000"/>
    <path d="M 257.724284 123.317662 
L 257.724284 123.317662 
L 253.023695 120.050447 
L 248.293611 116.826107 
L 243.530509 113.650784 
L 238.73016 110.532109 
L 233.887427 107.479746 
L 228.995992 104.506184 
L 224.04797 101.627975 
L 219.033393 98.867727 
L 213.939499 96.257455 
L 208.749876 93.844576 
L 203.443848 91.703326 
L 197.998167 89.95807 
L 192.401161 88.833232 
L 192.401161 88.833232 
L 188.308841 88.567572 
L 188.308841 88.567572 
L 184.839995 88.870933 
L 184.839995 88.870933 
L 181.852753 89.650529 
" clip-path="url(#pd14abf8530)" style="fill: none; stroke: #000000"/>
    <path d="M 257.724284 111.473698 
L 257.724284 111.473698 
L 252.838104 108.491284 
L 247.912774 105.574046 
L 242.943614 102.732211 
L 237.92506 99.978692 
L 232.850459 97.330121 
L 227.711836 94.808403 
L 222.499662 92.443143 
L 217.202762 90.275579 
L 211.80879 88.365137 
L 206.306487 86.800607 
" clip-path="url(#pd14abf8530)" style="fill: none; stroke: #000000"/>
    <path d="M 257.724284 99.629733 
L 257.724284 99.629733 
L 252.633182 97.012695 
L 247.493478 94.49262 
L 242.299873 92.085846 
L 237.046374 89.813188 
L 231.72635 87.701632 
L 226.332808 85.786855 
L 220.859207 84.116944 
L 215.301488 82.757873 
L 209.662773 81.801055 
L 203.963629 81.37173 
L 198.261642 81.630673 
L 193.088682 82.610522 
L 188.691039 84.12113 
" clip-path="url(#pd14abf8530)" style="fill: none; stroke: #000000"/>
    <path d="M 257.724284 87.785769 
L 257.724284 87.785769 
L 252.416155 85.643457 
L 247.053566 83.641802 
L 241.632472 81.805175 
L 236.149285 80.164335 
L 230.601725 78.758458 
L 224.990406 77.637716 
L 219.321765 76.86618 
L 213.61308 76.524074 
L 207.900133 76.70663 
L 202.245961 77.513861 
" clip-path="url(#pd14abf8530)" style="fill: none; stroke: #000000"/>
    <path d="M 257.724284 81.863787 
L 257.724284 81.863787 
L 252.308505 80.010896 
L 246.838653 78.325005 
L 241.312637 76.83462 
L 235.729916 75.575111 
" clip-path="url(#pd14abf8530)" style="fill: none; stroke: #000000"/>
    <path d="M 257.724284 70.019822 
L 257.724284 70.019822 
L 252.116722 68.873521 
L 246.468282 67.951503 
L 240.784209 67.287289 
L 235.073893 66.919544 
L 229.352613 66.891625 
L 223.643513 67.249813 
L 217.979201 68.03943 
L 212.401742 69.298346 
L 206.959658 71.048415 
" clip-path="url(#pd14abf8530)" style="fill: none; stroke: #000000"/>
    <path d="M 257.724284 64.09784 
L 257.724284 64.09784 
L 252.04668 63.376334 
L 246.343196 62.905411 
L 240.623868 62.717394 
" clip-path="url(#pd14abf8530)" style="fill: none; stroke: #000000"/>
    <path d="M 257.724284 58.175858 
L 257.724284 58.175858 
L 252.006609 57.928682 
L 246.284014 57.951742 
L 240.57082 58.272622 
L 234.885702 58.918516 
L 229.251844 59.914054 
L 223.696335 61.278441 
L 218.24849 63.022309 
L 212.937061 65.144947 
" clip-path="url(#pd14abf8530)" style="fill: none; stroke: #000000"/>
    <path d="M 257.724284 52.253876 
L 257.724284 52.253876 
L 252.007984 52.52757 
L 246.312157 53.079724 
L 240.653483 53.92989 
L 235.051479 55.094744 
" clip-path="url(#pd14abf8530)" style="fill: none; stroke: #000000"/>
    <path d="M 257.724284 40.409911 
L 257.724284 40.409911 
L 252.17957 41.827258 
L 246.703666 43.490384 
L 241.308929 45.400235 
L 236.007036 47.554352 
L 230.808297 49.946736 
L 225.721046 52.567929 
L 220.751058 55.405369 
L 215.901252 58.443867 
" clip-path="url(#pd14abf8530)" style="fill: none; stroke: #000000"/>
    <path d="M 257.724284 34.487929 
L 257.724284 34.487929 
L 252.364785 36.496064 
L 247.086363 38.708515 
L 241.89605 41.120449 
" clip-path="url(#pd14abf8530)" style="fill: none; stroke: #000000"/>
    <path d="M 257.724284 28.565947 
L 257.724284 28.565947 
L 252.617213 31.15049 
L 247.589797 33.886797 
L 242.644106 36.768262 
" clip-path="url(#pd14abf8530)" style="fill: none; stroke: #000000"/>
    <path d="M 257.724284 16.721982 
L 257.724284 16.721982 
L 253.287775 20.339603 
L 248.886808 24.000381 
L 244.520038 27.7019 
L 240.186045 31.441754 
L 235.883325 35.217562 
L 231.610307 39.026962 
L 227.365365 42.867607 
L 223.14679 46.737199 
L 218.952829 50.633458 
L 214.781686 54.554124 
L 210.631506 58.496982 
L 206.500409 62.459828 
L 202.38648 66.440486 
L 198.287781 70.4368 
L 194.202361 74.446632 
L 190.128272 78.467848 
" clip-path="url(#pd14abf8530)" style="fill: none; stroke: #000000"/>
    <path d="M 257.724284 10.8 
L 257.724284 10.8 
L 253.676398 14.847886 
L 249.628513 18.895771 
L 245.580629 22.943655 
" clip-path="url(#pd14abf8530)" style="fill: none; stroke: #000000"/>
    <path d="M 251.802302 10.8 
L 251.802302 10.8 
L 248.184681 15.236509 
L 244.523903 19.637476 
L 240.822384 24.004246 
" clip-path="url(#pd14abf8530)" style="fill: none; stroke: #000000"/>
    <path d="M 239.958337 10.8 
L 239.958337 10.8 
L 237.373794 15.907071 
L 234.637487 20.934487 
L 231.756022 25.880178 
L 228.736789 30.743039 
L 225.587816 35.522963 
L 222.317617 40.220839 
L 218.935043 44.83853 
" clip-path="url(#pd14abf8530)" style="fill: none; stroke: #000000"/>
    <path d="M 228.114373 10.8 
L 228.114373 10.8 
L 226.697026 16.344714 
L 225.0339 21.820618 
L 223.124049 27.215354 
L 220.969932 32.517248 
L 218.577548 37.715987 
L 215.956355 42.803238 
L 213.118915 47.773226 
L 210.080417 52.623032 
L 206.858012 57.352819 
" clip-path="url(#pd14abf8530)" style="fill: none; stroke: #000000"/>
    <path d="M 216.270408 10.8 
L 216.270408 10.8 
L 215.996714 16.5163 
L 215.44456 22.212127 
L 214.594394 27.870801 
L 213.429539 33.472805 
L 211.938006 38.996476 
" clip-path="url(#pd14abf8530)" style="fill: none; stroke: #000000"/>
    <path d="M 210.348426 10.8 
L 210.348426 10.8 
L 210.595602 16.517675 
L 210.572542 22.24027 
L 210.251662 27.953464 
L 209.605768 33.638582 
" clip-path="url(#pd14abf8530)" style="fill: none; stroke: #000000"/>
    <path d="M 204.426444 10.8 
L 204.426444 10.8 
L 205.147949 16.477604 
L 205.618873 22.181088 
L 205.80689 27.900416 
L 205.677038 33.620759 
L 205.193371 39.321365 
L 204.321883 44.97485 
L 203.034834 50.547559 
L 201.315988 56.001783 
L 199.165454 61.300146 
L 196.602261 66.411519 
L 193.663268 71.316772 
" clip-path="url(#pd14abf8530)" style="fill: none; stroke: #000000"/>
    <path d="M 198.504462 10.8 
L 198.504462 10.8 
L 199.650763 16.407562 
L 200.572781 22.056002 
L 201.236994 27.740075 
" clip-path="url(#pd14abf8530)" style="fill: none; stroke: #000000"/>
    <path d="M 186.660497 10.8 
L 186.660497 10.8 
L 188.513388 16.215779 
L 190.199279 21.685631 
L 191.689664 27.211647 
L 192.949173 32.794368 
L 193.933876 38.431396 
L 194.589631 44.115114 
L 194.851204 49.829107 
L 194.643896 55.543242 
L 193.890625 61.20848 
L 192.527643 66.755329 
" clip-path="url(#pd14abf8530)" style="fill: none; stroke: #000000"/>
    <path d="M 180.738515 10.8 
L 180.738515 10.8 
L 182.880827 16.108129 
L 184.882482 21.470718 
L 186.719109 26.891812 
L 188.359949 32.374999 
" clip-path="url(#pd14abf8530)" style="fill: none; stroke: #000000"/>
    <path d="M 174.816533 10.8 
L 174.816533 10.8 
L 177.211987 15.998938 
L 179.490203 21.250189 
L 181.630997 26.558777 
L 183.608693 31.930006 
" clip-path="url(#pd14abf8530)" style="fill: none; stroke: #000000"/>
    <path d="M 168.894551 10.8 
L 168.894551 10.8 
L 171.511589 15.891102 
L 174.031664 21.030806 
L 176.438438 26.224411 
" clip-path="url(#pd14abf8530)" style="fill: none; stroke: #000000"/>
    <path d="M 162.972568 10.8 
L 162.972568 10.8 
L 165.783976 15.786479 
L 168.515677 20.817006 
L 171.154664 25.896701 
" clip-path="url(#pd14abf8530)" style="fill: none; stroke: #000000"/>
    <path d="M 151.128604 10.8 
L 151.128604 10.8 
L 154.262001 15.590801 
L 157.342381 20.415834 
L 160.361785 25.279219 
L 163.310236 30.18589 
L 166.174985 35.141814 
L 168.939382 40.154283 
L 171.581107 45.232273 
L 174.069303 50.386895 
L 176.359703 55.631785 
L 178.385994 60.983064 
L 180.043747 66.457154 
L 181.160249 72.060474 
L 181.160249 72.060474 
L 181.507488 76.674287 
L 181.507488 76.674287 
L 181.253017 80.596013 
L 180.272856 84.542345 
" clip-path="url(#pd14abf8530)" style="fill: none; stroke: #000000"/>
    <path d="M 139.284639 10.8 
L 139.284639 10.8 
L 142.670935 15.415565 
L 146.022801 20.056181 
L 149.335543 24.72479 
L 152.603375 29.424921 
L 155.819048 34.160858 
L 158.973296 38.937877 
L 162.053994 43.76258 
L 165.044832 48.643377 
L 167.923096 53.591191 
L 170.655774 58.620496 
L 173.192224 63.750799 
L 175.449063 69.008339 
L 177.275766 74.425569 
L 177.275766 74.425569 
" clip-path="url(#pd14abf8530)" style="fill: none; stroke: #000000"/>
    <path d="M 127.440675 10.8 
L 127.440675 10.8 
L 131.028797 15.2605 
L 134.595391 19.738226 
L 138.137803 24.235102 
L 141.652816 28.753418 
L 145.136481 33.295935 
L 148.583868 37.866028 
L 151.988696 42.467891 
L 155.342777 47.106832 
L 158.635131 51.78972 
L 161.850505 56.525685 
L 164.96675 61.327259 
L 167.949771 66.212309 
L 170.742741 71.207508 
" clip-path="url(#pd14abf8530)" style="fill: none; stroke: #000000"/>
    <path d="M 115.596711 10.8 
L 115.596711 10.8 
L 119.348448 15.1238 
L 123.087657 19.458438 
L 126.812936 23.805051 
L 130.52262 28.164979 
L 134.214701 32.53982 
L 137.886724 36.931504 
L 141.535645 41.342395 
L 145.157608 45.775437 
L 148.747625 50.234372 
L 152.299061 54.724069 
L 155.802785 59.251053 
L 159.245676 63.824389 
L 162.607776 68.457274 
L 165.856231 73.170156 
L 168.930244 77.997544 
L 171.693185 83.005214 
L 171.693185 83.005214 
L 173.396542 87.010908 
L 173.396542 87.010908 
L 174.093955 89.493894 
L 174.093955 89.493894 
" clip-path="url(#pd14abf8530)" style="fill: none; stroke: #000000"/>
    <path d="M 109.674728 10.8 
L 109.674728 10.8 
L 113.496931 15.061641 
L 117.31004 19.331419 
L 121.113088 23.610159 
L 124.904932 27.89883 
L 128.684207 32.19858 
" clip-path="url(#pd14abf8530)" style="fill: none; stroke: #000000"/>
    <path d="M 103.752746 10.8 
L 103.752746 10.8 
L 107.63909 15.003232 
L 111.519227 19.212195 
L 115.392527 23.427449 
L 119.258252 27.649651 
L 123.115527 31.879573 
" clip-path="url(#pd14abf8530)" style="fill: none; stroke: #000000"/>
    <path d="M 97.830764 10.8 
L 97.830764 10.8 
L 101.775685 14.948305 
L 105.716829 19.1002 
L 109.653829 23.256023 
L 113.586259 27.416171 
L 117.513619 31.581104 
" clip-path="url(#pd14abf8530)" style="fill: none; stroke: #000000"/>
    <path d="M 91.908782 10.8 
L 91.908782 10.8 
L 95.907366 14.896605 
L 99.904221 18.994896 
L 103.899186 23.09503 
L 107.892077 27.197184 
L 111.882676 31.301567 
" clip-path="url(#pd14abf8530)" style="fill: none; stroke: #000000"/>
    <path d="M 85.9868 10.8 
L 171.676648 96.489848 
L 171.676648 96.489848 
" clip-path="url(#pd14abf8530)" style="fill: none; stroke: #000000"/>
    <path d="M 85.9868 16.721982 
L 85.9868 16.721982 
L 90.083404 20.720567 
L 94.181696 24.717421 
L 98.28183 28.712387 
L 102.383984 32.705277 
L 106.488367 36.695877 
L 110.595222 40.683932 
L 114.704841 44.669139 
" clip-path="url(#pd14abf8530)" style="fill: none; stroke: #000000"/>
    <path d="M 85.9868 22.643964 
L 85.9868 22.643964 
L 90.135105 26.588886 
L 94.286999 30.530029 
L 98.442823 34.467029 
L 102.60297 38.39946 
" clip-path="url(#pd14abf8530)" style="fill: none; stroke: #000000"/>
    <path d="M 85.9868 28.565947 
L 85.9868 28.565947 
L 90.190032 32.45229 
L 94.398994 36.332427 
L 98.614249 40.205727 
L 102.83645 44.071452 
L 107.066372 47.928727 
L 111.304934 51.776505 
L 115.553247 55.613512 
L 119.812668 59.438181 
L 124.084888 63.248544 
L 128.372052 67.042081 
L 132.676947 70.815474 
L 137.003305 74.564224 
L 141.356308 78.281973 
L 145.7435 81.959258 
L 150.176608 85.580929 
L 154.675635 89.120028 
L 159.28013 92.519415 
L 164.093101 95.606125 
L 164.093101 95.606125 
" clip-path="url(#pd14abf8530)" style="fill: none; stroke: #000000"/>
    <path d="M 85.9868 34.487929 
L 85.9868 34.487929 
L 90.24844 38.310131 
L 94.518218 42.12324 
L 98.796959 45.926288 
L 103.08563 49.718133 
" clip-path="url(#pd14abf8530)" style="fill: none; stroke: #000000"/>
    <path d="M 85.9868 40.409911 
L 85.9868 40.409911 
L 90.3106 44.161649 
L 94.645238 47.900857 
L 98.991851 51.626137 
L 103.351779 55.335821 
L 107.72662 59.027901 
L 112.118304 62.699925 
L 116.529194 66.348845 
L 120.962236 69.970808 
L 125.421171 73.560826 
L 129.910869 77.112262 
L 134.437853 80.615985 
L 139.011188 84.058876 
L 143.644074 87.420976 
" clip-path="url(#pd14abf8530)" style="fill: none; stroke: #000000"/>
    <path d="M 85.9868 52.253876 
L 85.9868 52.253876 
L 90.447299 55.841997 
L 94.925026 59.408592 
L 99.421901 62.951003 
L 103.940217 66.466016 
L 108.482734 69.949682 
L 113.052828 73.397069 
L 117.654691 76.801896 
L 122.293631 80.155977 
L 126.976519 83.448331 
L 131.712485 86.663705 
L 136.514058 89.779951 
L 141.399109 92.762972 
L 146.394308 95.555942 
L 151.541307 98.052627 
L 156.904005 100.015736 
L 156.904005 100.015736 
L 160.38105 100.804441 
L 160.38105 100.804441 
L 163.175624 100.983775 
L 163.175624 100.983775 
L 165.452683 100.683949 
L 165.452683 100.683949 
" clip-path="url(#pd14abf8530)" style="fill: none; stroke: #000000"/>
    <path d="M 85.9868 64.09784 
L 85.9868 64.09784 
L 90.602364 67.484136 
L 95.24298 70.836002 
L 99.91159 74.148743 
L 104.611721 77.416576 
L 109.347657 80.632249 
L 114.124676 83.786496 
L 118.949379 86.867195 
L 123.830176 89.858033 
L 128.777991 92.736296 
L 133.807296 95.468975 
L 138.937598 98.005424 
L 144.195138 100.262263 
" clip-path="url(#pd14abf8530)" style="fill: none; stroke: #000000"/>
    <path d="M 85.9868 75.941804 
L 85.9868 75.941804 
L 90.7776 79.075202 
L 95.602633 82.155582 
L 100.466018 85.174986 
L 105.372689 88.123436 
L 110.328614 90.988185 
L 115.341082 93.752583 
L 120.419073 96.394308 
L 125.573694 98.882503 
L 130.818585 101.172904 
L 136.169863 103.199195 
L 141.643953 104.856948 
L 147.247274 105.97345 
L 147.247274 105.97345 
L 151.861087 106.320688 
L 151.861087 106.320688 
L 155.782812 106.066217 
L 159.729144 105.086057 
" clip-path="url(#pd14abf8530)" style="fill: none; stroke: #000000"/>
    <path d="M 85.9868 87.785769 
L 85.9868 87.785769 
L 90.973278 90.597177 
L 96.003805 93.328878 
L 101.0835 95.967864 
L 106.218346 98.497615 
L 111.415321 100.896739 
L 116.682466 103.136929 
L 122.028747 105.179814 
L 127.463366 106.971998 
" clip-path="url(#pd14abf8530)" style="fill: none; stroke: #000000"/>
    <path d="M 85.9868 99.629733 
L 85.9868 99.629733 
L 91.185737 102.025187 
L 96.436988 104.303404 
L 101.745576 106.444197 
L 107.116806 108.421893 
L 112.555889 110.203352 
L 118.067087 111.74519 
L 123.651892 112.989986 
L 129.305335 113.861535 
L 135.00886 114.260298 
L 140.718272 114.06356 
L 146.34895 113.141338 
L 151.233774 111.645139 
" clip-path="url(#pd14abf8530)" style="fill: none; stroke: #000000"/>
    <path d="M 85.9868 111.473698 
L 85.9868 111.473698 
L 91.402579 113.326589 
L 96.872431 115.012479 
L 102.398446 116.502865 
L 107.981167 117.762373 
L 113.618195 118.747077 
L 119.301913 119.402831 
L 125.015906 119.664405 
L 130.730041 119.457096 
L 136.39528 118.703826 
L 141.942129 117.340843 
L 147.229615 115.369547 
" clip-path="url(#pd14abf8530)" style="fill: none; stroke: #000000"/>
    <path d="M 85.9868 123.317662 
L 85.9868 123.317662 
L 91.594361 124.463964 
L 97.242801 125.385981 
L 102.926874 126.050195 
L 108.63719 126.417941 
L 114.35847 126.445859 
L 120.06757 126.087671 
L 125.731883 125.298054 
L 131.309341 124.039139 
L 136.751426 122.289069 
" clip-path="url(#pd14abf8530)" style="fill: none; stroke: #000000"/>
    <path d="M 85.9868 135.161627 
L 85.9868 135.161627 
L 91.704474 135.408803 
L 97.42707 135.385742 
L 103.140263 135.064863 
L 108.825382 134.418968 
L 114.459239 133.423431 
L 120.014748 132.059043 
L 125.462593 130.315176 
L 130.774022 128.192537 
" clip-path="url(#pd14abf8530)" style="fill: none; stroke: #000000"/>
    <path d="M 85.9868 141.083609 
L 85.9868 141.083609 
L 91.7031 140.809915 
L 97.398926 140.257761 
L 103.0576 139.407594 
L 108.659605 138.24274 
" clip-path="url(#pd14abf8530)" style="fill: none; stroke: #000000"/>
    <path d="M 85.9868 152.927573 
L 85.9868 152.927573 
L 91.531513 151.510227 
L 97.007418 149.8471 
L 102.402154 147.937249 
L 107.704048 145.783132 
L 112.902787 143.390749 
L 117.990037 140.769556 
L 122.960025 137.932115 
L 127.809831 134.893618 
" clip-path="url(#pd14abf8530)" style="fill: none; stroke: #000000"/>
    <path d="M 85.9868 164.771538 
L 85.9868 164.771538 
L 91.09387 162.186995 
L 96.121286 159.450688 
L 101.066978 156.569222 
L 105.929839 153.549989 
L 110.709762 150.401016 
L 115.407638 147.130817 
L 120.02533 143.748243 
" clip-path="url(#pd14abf8530)" style="fill: none; stroke: #000000"/>
    <path d="M 85.9868 128.426759 
L 86.237791 128.4664 
L 91.908782 129.239644 
L 97.607683 129.76336 
L 103.324987 130.00559 
" clip-path="url(#pd14abf8530)" style="fill: none; stroke: #000000"/>
    <path d="M 85.9868 104.838579 
L 87.647282 105.530484 
L 92.958744 107.664563 
L 98.325846 109.654165 
L 103.752746 111.473698 
" clip-path="url(#pd14abf8530)" style="fill: none; stroke: #000000"/>
    <path d="M 210.348426 152.927573 
L 206.569235 148.627755 
L 202.80786 144.312349 
L 199.067553 139.978678 
L 195.352634 135.623237 
L 191.669029 131.241301 
" clip-path="url(#pd14abf8530)" style="fill: none; stroke: #000000"/>
    <path d="M 216.270408 152.927573 
L 212.389043 148.719746 
L 208.517906 144.50251 
L 204.658722 140.274335 
L 200.813733 136.033252 
L 196.98594 131.776649 
" clip-path="url(#pd14abf8530)" style="fill: none; stroke: #000000"/>
    <path d="M 222.192391 152.927573 
L 218.222233 148.803415 
L 214.256513 144.674989 
L 210.295924 140.541642 
L 206.341349 136.40254 
L 202.393948 132.256598 
" clip-path="url(#pd14abf8530)" style="fill: none; stroke: #000000"/>
    <path d="M 180.738515 40.409911 
L 182.608822 45.818778 
L 184.208744 51.312777 
L 185.459566 56.89496 
L 186.250485 62.557543 
L 186.429475 68.266362 
L 185.830252 73.845228 
L 184.61082 78.514462 
" clip-path="url(#pd14abf8530)" style="fill: none; stroke: #000000"/>
    <path d="M 133.362657 40.409911 
L 137.141848 44.709729 
L 140.903224 49.025135 
L 144.64353 53.358807 
L 148.35845 57.714248 
L 152.042054 62.096183 
" clip-path="url(#pd14abf8530)" style="fill: none; stroke: #000000"/>
    <path d="M 127.440675 40.409911 
L 131.32204 44.617738 
L 135.193177 48.834975 
L 139.052361 53.063149 
L 142.897351 57.304232 
L 146.725144 61.560835 
" clip-path="url(#pd14abf8530)" style="fill: none; stroke: #000000"/>
    <path d="M 121.518693 40.409911 
L 125.488851 44.53407 
L 129.454571 48.662495 
L 133.41516 52.795843 
L 137.369734 56.934945 
L 141.317136 61.080886 
" clip-path="url(#pd14abf8530)" style="fill: none; stroke: #000000"/>
    <path d="M 222.192391 141.083609 
L 218.058498 137.123589 
L 213.919116 133.169307 
L 209.773272 129.221802 
L 205.61968 125.282452 
" clip-path="url(#pd14abf8530)" style="fill: none; stroke: #000000"/>
    <path d="M 121.518693 52.253876 
L 125.652586 56.213896 
L 129.791967 60.168178 
L 133.937811 64.115683 
L 138.091403 68.055032 
" clip-path="url(#pd14abf8530)" style="fill: none; stroke: #000000"/>
    <path d="M 192.582479 123.317662 
L 188.718669 119.093738 
L 184.883362 114.843951 
L 181.091208 110.555707 
L 177.375131 106.201764 
" clip-path="url(#pd14abf8530)" style="fill: none; stroke: #000000"/>
    <path d="M 151.128604 70.019822 
L 154.992414 74.243746 
L 158.827722 78.493533 
L 162.619875 82.781778 
L 166.335952 87.135721 
" clip-path="url(#pd14abf8530)" style="fill: none; stroke: #000000"/>
   </g>
   <g id="patch_2">
    <path d="M 135.974527 132.549757 
Q 136.279895 132.244389 135.794694 132.72959 
" clip-path="url(#pd14abf8530)" style="fill: none; stroke: #000000; stroke-linecap: round"/>
    <path d="M 131.552053 134.143804 
L 135.794694 132.72959 
L 134.38048 136.972231 
z
" clip-path="url(#pd14abf8530)" style="stroke: #000000; stroke-linecap: round"/>
   </g>
   <g id="patch_3">
    <path d="M 105.335618 171.381224 
Q 105.585502 171.02903 105.188431 171.588676 
" clip-path="url(#pd14abf8530)" style="fill: none; stroke: #000000; stroke-linecap: round"/>
    <path d="M 101.24267 173.693664 
L 105.188431 171.588676 
L 104.504965 176.008277 
z
" clip-path="url(#pd14abf8530)" style="stroke: #000000; stroke-linecap: round"/>
   </g>
   <g id="patch_4">
    <path d="M 119.885296 159.867836 
Q 120.095653 159.490771 119.761311 160.090079 
" clip-path="url(#pd14abf8530)" style="fill: none; stroke: #000000; stroke-linecap: round"/>
    <path d="M 116.065948 162.608867 
L 119.761311 160.090079 
L 119.559124 164.557642 
z
" clip-path="url(#pd14abf8530)" style="stroke: #000000; stroke-linecap: round"/>
   </g>
   <g id="patch_5">
    <path d="M 122.737215 174.915271 
Q 122.820505 174.491672 122.688092 175.165101 
" clip-path="url(#pd14abf8530)" style="fill: none; stroke: #000000; stroke-linecap: round"/>
    <path d="M 119.953947 178.704091 
L 122.688092 175.165101 
L 123.878797 179.475811 
z
" clip-path="url(#pd14abf8530)" style="stroke: #000000; stroke-linecap: round"/>
   </g>
   <g id="patch_6">
    <path d="M 135.578522 152.120074 
Q 135.680785 151.703682 135.516391 152.373059 
" clip-path="url(#pd14abf8530)" style="fill: none; stroke: #000000; stroke-linecap: round"/>
    <path d="M 132.62009 155.780616 
L 135.516391 152.373059 
L 136.504656 156.734634 
z
" clip-path="url(#pd14abf8530)" style="stroke: #000000; stroke-linecap: round"/>
   </g>
   <g id="patch_7">
    <path d="M 138.02657 169.159658 
Q 138.012386 168.728195 138.034936 169.414163 
" clip-path="url(#pd14abf8530)" style="fill: none; stroke: #000000; stroke-linecap: round"/>
    <path d="M 136.167441 173.477715 
L 138.034936 169.414163 
L 140.165281 173.346291 
z
" clip-path="url(#pd14abf8530)" style="stroke: #000000; stroke-linecap: round"/>
   </g>
   <g id="patch_8">
    <path d="M 146.888661 163.859262 
Q 146.82576 163.43216 146.925759 164.111161 
" clip-path="url(#pd14abf8530)" style="fill: none; stroke: #000000; stroke-linecap: round"/>
    <path d="M 145.529911 168.35988 
L 146.925759 164.111161 
L 149.487225 167.777071 
z
" clip-path="url(#pd14abf8530)" style="stroke: #000000; stroke-linecap: round"/>
   </g>
   <g id="patch_9">
    <path d="M 153.553982 153.455895 
Q 153.469434 153.03258 153.603865 153.705645 
" clip-path="url(#pd14abf8530)" style="fill: none; stroke: #000000; stroke-linecap: round"/>
    <path d="M 152.426043 158.019893 
L 153.603865 153.705645 
L 156.34857 157.236452 
z
" clip-path="url(#pd14abf8530)" style="stroke: #000000; stroke-linecap: round"/>
   </g>
   <g id="patch_10">
    <path d="M 165.703723 175.505224 
Q 165.531856 175.109073 165.804967 175.738589 
" clip-path="url(#pd14abf8530)" style="fill: none; stroke: #000000; stroke-linecap: round"/>
    <path d="M 165.5622 180.204131 
L 165.804967 175.738589 
L 169.23174 178.612128 
z
" clip-path="url(#pd14abf8530)" style="stroke: #000000; stroke-linecap: round"/>
   </g>
   <g id="patch_11">
    <path d="M 169.189084 160.491564 
Q 169.008096 160.099507 169.295712 160.722541 
" clip-path="url(#pd14abf8530)" style="fill: none; stroke: #000000; stroke-linecap: round"/>
    <path d="M 169.156394 165.192506 
L 169.295712 160.722541 
L 172.788094 163.515974 
z
" clip-path="url(#pd14abf8530)" style="stroke: #000000; stroke-linecap: round"/>
   </g>
   <g id="patch_12">
    <path d="M 179.400703 161.421377 
Q 179.184588 161.047505 179.527995 161.641587 
" clip-path="url(#pd14abf8530)" style="fill: none; stroke: #000000; stroke-linecap: round"/>
    <path d="M 179.79827 166.105548 
L 179.527995 161.641587 
L 183.261329 164.103743 
z
" clip-path="url(#pd14abf8530)" style="stroke: #000000; stroke-linecap: round"/>
   </g>
   <g id="patch_13">
    <path d="M 180.612925 147.870915 
Q 180.387297 147.502711 180.745825 148.087797 
" clip-path="url(#pd14abf8530)" style="fill: none; stroke: #000000; stroke-linecap: round"/>
    <path d="M 181.13046 152.543362 
L 180.745825 148.087797 
L 184.541057 150.453427 
z
" clip-path="url(#pd14abf8530)" style="stroke: #000000; stroke-linecap: round"/>
   </g>
   <g id="patch_14">
    <path d="M 193.938518 153.864849 
Q 193.68166 153.517687 194.089787 154.069299 
" clip-path="url(#pd14abf8530)" style="fill: none; stroke: #000000; stroke-linecap: round"/>
    <path d="M 194.861134 158.474412 
L 194.089787 154.069299 
L 198.076686 156.095289 
z
" clip-path="url(#pd14abf8530)" style="stroke: #000000; stroke-linecap: round"/>
   </g>
   <g id="patch_15">
    <path d="M 197.300125 146.005339 
Q 197.029296 145.66896 197.459617 146.203435 
" clip-path="url(#pd14abf8530)" style="fill: none; stroke: #000000; stroke-linecap: round"/>
    <path d="M 198.410297 150.573356 
L 197.459617 146.203435 
L 201.525962 148.064844 
z
" clip-path="url(#pd14abf8530)" style="stroke: #000000; stroke-linecap: round"/>
   </g>
   <g id="patch_16">
    <path d="M 225.073319 172.512267 
Q 224.786419 172.189481 225.242271 172.702351 
" clip-path="url(#pd14abf8530)" style="fill: none; stroke: #000000; stroke-linecap: round"/>
    <path d="M 226.404752 177.020758 
L 225.242271 172.702351 
L 229.394485 174.363411 
z
" clip-path="url(#pd14abf8530)" style="stroke: #000000; stroke-linecap: round"/>
   </g>
   <g id="patch_17">
    <path d="M 230.839606 172.653655 
Q 230.547406 172.335659 231.011678 172.840919 
" clip-path="url(#pd14abf8530)" style="fill: none; stroke: #000000; stroke-linecap: round"/>
    <path d="M 232.245426 177.139508 
L 231.011678 172.840919 
L 235.190798 174.433073 
z
" clip-path="url(#pd14abf8530)" style="stroke: #000000; stroke-linecap: round"/>
   </g>
   <g id="patch_18">
    <path d="M 236.619765 172.786399 
Q 236.32276 172.472886 236.794667 172.971022 
" clip-path="url(#pd14abf8530)" style="fill: none; stroke: #000000; stroke-linecap: round"/>
    <path d="M 238.093688 177.250338 
L 236.794667 172.971022 
L 240.997532 174.499395 
z
" clip-path="url(#pd14abf8530)" style="stroke: #000000; stroke-linecap: round"/>
   </g>
   <g id="patch_19">
    <path d="M 242.412136 172.911145 
Q 242.110758 172.601833 242.589613 173.093294 
" clip-path="url(#pd14abf8530)" style="fill: none; stroke: #000000; stroke-linecap: round"/>
    <path d="M 243.948593 177.353948 
L 242.589613 173.093294 
L 246.813524 174.562502 
z
" clip-path="url(#pd14abf8530)" style="stroke: #000000; stroke-linecap: round"/>
   </g>
   <g id="patch_20">
    <path d="M 215.832168 140.645368 
Q 215.526797 140.339998 216.011996 140.825196 
" clip-path="url(#pd14abf8530)" style="fill: none; stroke: #000000; stroke-linecap: round"/>
    <path d="M 217.42621 145.067837 
L 216.011996 140.825196 
L 220.254637 142.23941 
z
" clip-path="url(#pd14abf8530)" style="stroke: #000000; stroke-linecap: round"/>
   </g>
   <g id="patch_21">
    <path d="M 243.997105 163.231095 
Q 243.687641 162.929874 244.179344 163.40848 
" clip-path="url(#pd14abf8530)" style="fill: none; stroke: #000000; stroke-linecap: round"/>
    <path d="M 245.650689 167.631648 
L 244.179344 163.40848 
L 248.440685 164.765305 
z
" clip-path="url(#pd14abf8530)" style="stroke: #000000; stroke-linecap: round"/>
   </g>
   <g id="patch_22">
    <path d="M 252.126465 165.372662 
Q 251.813248 165.075345 252.310913 165.547748 
" clip-path="url(#pd14abf8530)" style="fill: none; stroke: #000000; stroke-linecap: round"/>
    <path d="M 253.835093 169.752136 
L 252.310913 165.547748 
L 256.588931 166.851037 
z
" clip-path="url(#pd14abf8530)" style="stroke: #000000; stroke-linecap: round"/>
   </g>
   <g id="patch_23">
    <path d="M 218.129456 128.764537 
Q 217.806035 128.478354 218.319916 128.933067 
" clip-path="url(#pd14abf8530)" style="fill: none; stroke: #000000; stroke-linecap: round"/>
    <path d="M 219.990187 133.081584 
L 218.319916 128.933067 
L 222.640892 130.08596 
z
" clip-path="url(#pd14abf8530)" style="stroke: #000000; stroke-linecap: round"/>
   </g>
   <g id="patch_24">
    <path d="M 251.971974 153.696116 
Q 251.649864 153.408458 252.161659 153.865515 
" clip-path="url(#pd14abf8530)" style="fill: none; stroke: #000000; stroke-linecap: round"/>
    <path d="M 253.812941 158.021627 
L 252.161659 153.865515 
L 256.477318 155.038156 
z
" clip-path="url(#pd14abf8530)" style="stroke: #000000; stroke-linecap: round"/>
   </g>
   <g id="patch_25">
    <path d="M 230.052845 129.363644 
Q 229.72009 129.088372 230.248803 129.525751 
" clip-path="url(#pd14abf8530)" style="fill: none; stroke: #000000; stroke-linecap: round"/>
    <path d="M 232.056055 133.616453 
L 230.248803 129.525751 
L 234.605715 130.53437 
z
" clip-path="url(#pd14abf8530)" style="stroke: #000000; stroke-linecap: round"/>
   </g>
   <g id="patch_26">
    <path d="M 251.796815 142.054645 
Q 251.464591 141.77873 251.992459 142.217128 
" clip-path="url(#pd14abf8530)" style="fill: none; stroke: #000000; stroke-linecap: round"/>
    <path d="M 253.791815 146.311309 
L 251.992459 142.217128 
L 256.347417 143.234152 
z
" clip-path="url(#pd14abf8530)" style="stroke: #000000; stroke-linecap: round"/>
   </g>
   <g id="patch_27">
    <path d="M 218.996396 107.176162 
Q 218.63351 106.942072 219.21014 107.314043 
" clip-path="url(#pd14abf8530)" style="fill: none; stroke: #000000; stroke-linecap: round"/>
    <path d="M 221.487301 111.163009 
L 219.21014 107.314043 
L 223.655609 107.801694 
z
" clip-path="url(#pd14abf8530)" style="stroke: #000000; stroke-linecap: round"/>
   </g>
   <g id="patch_28">
    <path d="M 222.297275 100.664314 
Q 221.918978 100.456083 222.520137 100.786987 
" clip-path="url(#pd14abf8530)" style="fill: none; stroke: #000000; stroke-linecap: round"/>
    <path d="M 225.059906 104.467961 
L 222.520137 100.786987 
L 226.988778 100.963756 
z
" clip-path="url(#pd14abf8530)" style="stroke: #000000; stroke-linecap: round"/>
   </g>
   <g id="patch_29">
    <path d="M 236.153409 99.05402 
Q 235.770584 98.854213 236.378915 99.171717 
" clip-path="url(#pd14abf8530)" style="fill: none; stroke: #000000; stroke-linecap: round"/>
    <path d="M 238.999587 102.795538 
L 236.378915 99.171717 
L 240.850375 99.249472 
z
" clip-path="url(#pd14abf8530)" style="stroke: #000000; stroke-linecap: round"/>
   </g>
   <g id="patch_30">
    <path d="M 224.421859 85.203854 
Q 224.008933 85.077877 224.665382 85.278149 
" clip-path="url(#pd14abf8530)" style="fill: none; stroke: #000000; stroke-linecap: round"/>
    <path d="M 227.907678 88.35833 
L 224.665382 85.278149 
L 229.074904 84.532421 
z
" clip-path="url(#pd14abf8530)" style="stroke: #000000; stroke-linecap: round"/>
   </g>
   <g id="patch_31">
    <path d="M 234.212515 79.673513 
Q 233.79401 79.567455 234.459279 79.736049 
" clip-path="url(#pd14abf8530)" style="fill: none; stroke: #000000; stroke-linecap: round"/>
    <path d="M 237.845392 82.65739 
L 234.459279 79.736049 
L 238.82802 78.779963 
z
" clip-path="url(#pd14abf8530)" style="stroke: #000000; stroke-linecap: round"/>
   </g>
   <g id="patch_32">
    <path d="M 250.398864 79.422316 
Q 249.986221 79.295133 250.642015 79.497259 
" clip-path="url(#pd14abf8530)" style="fill: none; stroke: #000000; stroke-linecap: round"/>
    <path d="M 253.875485 82.586704 
L 250.642015 79.497259 
L 255.053653 78.76415 
z
" clip-path="url(#pd14abf8530)" style="stroke: #000000; stroke-linecap: round"/>
   </g>
   <g id="patch_33">
    <path d="M 233.076474 66.909797 
Q 232.644864 66.907691 233.331274 66.91104 
" clip-path="url(#pd14abf8530)" style="fill: none; stroke: #000000; stroke-linecap: round"/>
    <path d="M 237.321467 68.930535 
L 233.331274 66.91104 
L 237.340986 64.930583 
z
" clip-path="url(#pd14abf8530)" style="stroke: #000000; stroke-linecap: round"/>
   </g>
   <g id="patch_34">
    <path d="M 250.055473 63.211925 
Q 249.625205 63.176399 250.30918 63.232873 
" clip-path="url(#pd14abf8530)" style="fill: none; stroke: #000000; stroke-linecap: round"/>
    <path d="M 254.131039 65.555241 
L 250.30918 63.232873 
L 254.46019 61.568807 
z
" clip-path="url(#pd14abf8530)" style="stroke: #000000; stroke-linecap: round"/>
   </g>
   <g id="patch_35">
    <path d="M 238.586025 58.498117 
Q 238.157143 58.546843 238.839149 58.469359 
" clip-path="url(#pd14abf8530)" style="fill: none; stroke: #000000; stroke-linecap: round"/>
    <path d="M 243.039351 60.005035 
L 238.839149 58.469359 
L 242.58781 56.030602 
z
" clip-path="url(#pd14abf8530)" style="stroke: #000000; stroke-linecap: round"/>
   </g>
   <g id="patch_36">
    <path d="M 250.01945 52.720338 
Q 249.58976 52.761993 250.272888 52.69577 
" clip-path="url(#pd14abf8530)" style="fill: none; stroke: #000000; stroke-linecap: round"/>
    <path d="M 254.4472 54.300488 
L 250.272888 52.69577 
L 254.061249 50.319151 
z
" clip-path="url(#pd14abf8530)" style="stroke: #000000; stroke-linecap: round"/>
   </g>
   <g id="patch_37">
    <path d="M 234.192046 48.389584 
Q 233.799856 48.570064 234.423318 48.283156 
" clip-path="url(#pd14abf8530)" style="fill: none; stroke: #000000; stroke-linecap: round"/>
    <path d="M 238.893113 48.427831 
L 234.423318 48.283156 
L 237.220935 44.794125 
z
" clip-path="url(#pd14abf8530)" style="stroke: #000000; stroke-linecap: round"/>
   </g>
   <g id="patch_38">
    <path d="M 250.521977 37.268477 
Q 250.123776 37.435383 250.756694 37.170095 
" clip-path="url(#pd14abf8530)" style="fill: none; stroke: #000000; stroke-linecap: round"/>
    <path d="M 255.218873 37.468354 
L 250.756694 37.170095 
L 253.672609 33.779308 
z
" clip-path="url(#pd14abf8530)" style="stroke: #000000; stroke-linecap: round"/>
   </g>
   <g id="patch_39">
    <path d="M 250.862036 32.105792 
Q 250.482771 32.312218 251.085508 31.984161 
" clip-path="url(#pd14abf8530)" style="fill: none; stroke: #000000; stroke-linecap: round"/>
    <path d="M 255.554938 31.828602 
L 251.085508 31.984161 
L 253.642718 28.315282 
z
" clip-path="url(#pd14abf8530)" style="stroke: #000000; stroke-linecap: round"/>
   </g>
   <g id="patch_40">
    <path d="M 225.892572 44.218563 
Q 225.574325 44.510483 226.079991 44.046648 
" clip-path="url(#pd14abf8530)" style="fill: none; stroke: #000000; stroke-linecap: round"/>
    <path d="M 230.379651 42.816637 
L 226.079991 44.046648 
L 227.675779 39.868913 
z
" clip-path="url(#pd14abf8530)" style="stroke: #000000; stroke-linecap: round"/>
   </g>
   <g id="patch_41">
    <path d="M 252.263196 16.261088 
Q 251.957826 16.566458 252.443025 16.081259 
" clip-path="url(#pd14abf8530)" style="fill: none; stroke: #000000; stroke-linecap: round"/>
    <path d="M 256.685665 14.667046 
L 252.443025 16.081259 
L 253.857238 11.838618 
z
" clip-path="url(#pd14abf8530)" style="stroke: #000000; stroke-linecap: round"/>
   </g>
   <g id="patch_42">
    <path d="M 246.906626 16.77298 
Q 246.630459 17.104986 247.069268 16.577453 
" clip-path="url(#pd14abf8530)" style="fill: none; stroke: #000000; stroke-linecap: round"/>
    <path d="M 251.164836 14.781256 
L 247.069268 16.577453 
L 248.089652 12.22328 
z
" clip-path="url(#pd14abf8530)" style="stroke: #000000; stroke-linecap: round"/>
   </g>
   <g id="patch_43">
    <path d="M 230.701944 27.577906 
Q 230.474175 27.944757 230.836143 27.361761 
" clip-path="url(#pd14abf8530)" style="fill: none; stroke: #000000; stroke-linecap: round"/>
    <path d="M 234.645189 25.018438 
L 230.836143 27.361761 
L 231.246912 22.90853 
z
" clip-path="url(#pd14abf8530)" style="stroke: #000000; stroke-linecap: round"/>
   </g>
   <g id="patch_44">
    <path d="M 220.1347 34.332238 
Q 219.95422 34.724428 220.241128 34.100966 
" clip-path="url(#pd14abf8530)" style="fill: none; stroke: #000000; stroke-linecap: round"/>
    <path d="M 223.730159 31.303349 
L 220.241128 34.100966 
L 220.096453 29.631171 
z
" clip-path="url(#pd14abf8530)" style="stroke: #000000; stroke-linecap: round"/>
   </g>
   <g id="patch_45">
    <path d="M 215.147749 24.187689 
Q 215.083613 24.614577 215.185588 23.935838 
" clip-path="url(#pd14abf8530)" style="fill: none; stroke: #000000; stroke-linecap: round"/>
    <path d="M 217.757685 20.277381 
L 215.185588 23.935838 
L 213.80208 19.683086 
z
" clip-path="url(#pd14abf8530)" style="stroke: #000000; stroke-linecap: round"/>
   </g>
   <g id="patch_46">
    <path d="M 210.587551 18.515554 
Q 210.585812 18.947263 210.588577 18.260948 
" clip-path="url(#pd14abf8530)" style="fill: none; stroke: #000000; stroke-linecap: round"/>
    <path d="M 212.60468 14.26904 
L 210.588577 18.260948 
L 208.604712 14.252921 
z
" clip-path="url(#pd14abf8530)" style="stroke: #000000; stroke-linecap: round"/>
   </g>
   <g id="patch_47">
    <path d="M 204.888265 41.300637 
Q 204.822946 41.724372 204.927961 41.043125 
" clip-path="url(#pd14abf8530)" style="fill: none; stroke: #000000; stroke-linecap: round"/>
    <path d="M 207.514018 37.394522 
L 204.927961 41.043125 
L 203.560712 36.785117 
z
" clip-path="url(#pd14abf8530)" style="stroke: #000000; stroke-linecap: round"/>
   </g>
   <g id="patch_48">
    <path d="M 199.972659 18.379551 
Q 200.042215 18.805666 199.931655 18.128352 
" clip-path="url(#pd14abf8530)" style="fill: none; stroke: #000000; stroke-linecap: round"/>
    <path d="M 201.261123 13.858397 
L 199.931655 18.128352 
L 197.313372 14.502804 
z
" clip-path="url(#pd14abf8530)" style="stroke: #000000; stroke-linecap: round"/>
   </g>
   <g id="patch_49">
    <path d="M 193.292954 34.762373 
Q 193.367239 35.187628 193.249134 34.511525 
" clip-path="url(#pd14abf8530)" style="fill: none; stroke: #000000; stroke-linecap: round"/>
    <path d="M 194.530984 30.227035 
L 193.249134 34.511525 
L 190.590652 30.915351 
z
" clip-path="url(#pd14abf8530)" style="stroke: #000000; stroke-linecap: round"/>
   </g>
   <g id="patch_50">
    <path d="M 183.579647 17.980322 
Q 183.730651 18.384873 183.490682 17.741979 
" clip-path="url(#pd14abf8530)" style="fill: none; stroke: #000000; stroke-linecap: round"/>
    <path d="M 183.965624 13.295134 
L 183.490682 17.741979 
L 180.218171 14.693919 
z
" clip-path="url(#pd14abf8530)" style="stroke: #000000; stroke-linecap: round"/>
   </g>
   <g id="patch_51">
    <path d="M 178.00736 17.83226 
Q 178.179228 18.228412 177.906117 17.598895 
" clip-path="url(#pd14abf8530)" style="fill: none; stroke: #000000; stroke-linecap: round"/>
    <path d="M 178.148884 13.133354 
L 177.906117 17.598895 
L 174.479343 14.725357 
z
" clip-path="url(#pd14abf8530)" style="stroke: #000000; stroke-linecap: round"/>
   </g>
   <g id="patch_52">
    <path d="M 172.391401 17.685481 
Q 172.581514 18.073217 172.27942 17.457095 
" clip-path="url(#pd14abf8530)" style="fill: none; stroke: #000000; stroke-linecap: round"/>
    <path d="M 172.314203 12.985095 
L 172.27942 17.457095 
L 168.722689 14.746069 
z
" clip-path="url(#pd14abf8530)" style="stroke: #000000; stroke-linecap: round"/>
   </g>
   <g id="patch_53">
    <path d="M 166.737671 17.542742 
Q 166.943749 17.922242 166.616295 17.319223 
" clip-path="url(#pd14abf8530)" style="fill: none; stroke: #000000; stroke-linecap: round"/>
    <path d="M 166.465056 12.849645 
L 166.616295 17.319223 
L 162.949889 14.758468 
z
" clip-path="url(#pd14abf8530)" style="stroke: #000000; stroke-linecap: round"/>
   </g>
   <g id="patch_54">
    <path d="M 172.449789 47.03186 
Q 172.637497 47.420722 172.339179 46.802718 
" clip-path="url(#pd14abf8530)" style="fill: none; stroke: #000000; stroke-linecap: round"/>
    <path d="M 172.401457 42.331016 
L 172.339179 46.802718 
L 168.799184 44.069874 
z
" clip-path="url(#pd14abf8530)" style="stroke: #000000; stroke-linecap: round"/>
   </g>
   <g id="patch_55">
    <path d="M 160.048832 40.622282 
Q 160.281239 40.986255 159.91195 40.40791 
" clip-path="url(#pd14abf8530)" style="fill: none; stroke: #000000; stroke-linecap: round"/>
    <path d="M 159.444932 35.960226 
L 159.91195 40.40791 
L 156.073592 38.112914 
z
" clip-path="url(#pd14abf8530)" style="stroke: #000000; stroke-linecap: round"/>
   </g>
   <g id="patch_56">
    <path d="M 149.772565 39.472636 
Q 150.029424 39.819798 149.621297 39.268186 
" clip-path="url(#pd14abf8530)" style="fill: none; stroke: #000000; stroke-linecap: round"/>
    <path d="M 148.849949 34.863072 
L 149.621297 39.268186 
L 145.634398 37.242196 
z
" clip-path="url(#pd14abf8530)" style="stroke: #000000; stroke-linecap: round"/>
   </g>
   <g id="patch_57">
    <path d="M 146.410959 47.332145 
Q 146.681788 47.668525 146.251466 47.134049 
" clip-path="url(#pd14abf8530)" style="fill: none; stroke: #000000; stroke-linecap: round"/>
    <path d="M 145.300787 42.764129 
L 146.251466 47.134049 
L 142.185122 45.27264 
z
" clip-path="url(#pd14abf8530)" style="stroke: #000000; stroke-linecap: round"/>
   </g>
   <g id="patch_58">
    <path d="M 118.637764 20.825217 
Q 118.924664 21.148003 118.468813 20.635133 
" clip-path="url(#pd14abf8530)" style="fill: none; stroke: #000000; stroke-linecap: round"/>
    <path d="M 117.306332 16.316726 
L 118.468813 20.635133 
L 114.316599 18.974074 
z
" clip-path="url(#pd14abf8530)" style="stroke: #000000; stroke-linecap: round"/>
   </g>
   <g id="patch_59">
    <path d="M 112.871478 20.683829 
Q 113.163677 21.001826 112.699405 20.496566 
" clip-path="url(#pd14abf8530)" style="fill: none; stroke: #000000; stroke-linecap: round"/>
    <path d="M 111.465657 16.197977 
L 112.699405 20.496566 
L 108.520285 18.904411 
z
" clip-path="url(#pd14abf8530)" style="stroke: #000000; stroke-linecap: round"/>
   </g>
   <g id="patch_60">
    <path d="M 107.091318 20.551085 
Q 107.388324 20.864598 106.916417 20.366462 
" clip-path="url(#pd14abf8530)" style="fill: none; stroke: #000000; stroke-linecap: round"/>
    <path d="M 105.617396 16.087147 
L 106.916417 20.366462 
L 102.713551 18.83809 
z
" clip-path="url(#pd14abf8530)" style="stroke: #000000; stroke-linecap: round"/>
   </g>
   <g id="patch_61">
    <path d="M 101.298948 20.42634 
Q 101.600326 20.735652 101.121471 20.244191 
" clip-path="url(#pd14abf8530)" style="fill: none; stroke: #000000; stroke-linecap: round"/>
    <path d="M 99.762491 15.983537 
L 101.121471 20.244191 
L 96.89756 18.774982 
z
" clip-path="url(#pd14abf8530)" style="stroke: #000000; stroke-linecap: round"/>
   </g>
   <g id="patch_62">
    <path d="M 127.878915 52.692116 
Q 128.184286 52.997487 127.699087 52.512288 
" clip-path="url(#pd14abf8530)" style="fill: none; stroke: #000000; stroke-linecap: round"/>
    <path d="M 126.284874 48.269647 
L 127.699087 52.512288 
L 123.456447 51.098074 
z
" clip-path="url(#pd14abf8530)" style="stroke: #000000; stroke-linecap: round"/>
   </g>
   <g id="patch_63">
    <path d="M 99.713978 30.106389 
Q 100.023443 30.40761 99.53174 29.929004 
" clip-path="url(#pd14abf8530)" style="fill: none; stroke: #000000; stroke-linecap: round"/>
    <path d="M 98.060395 25.705837 
L 99.53174 29.929004 
L 95.270399 28.57218 
z
" clip-path="url(#pd14abf8530)" style="stroke: #000000; stroke-linecap: round"/>
   </g>
   <g id="patch_64">
    <path d="M 91.584619 27.964822 
Q 91.897835 28.26214 91.40017 27.789736 
" clip-path="url(#pd14abf8530)" style="fill: none; stroke: #000000; stroke-linecap: round"/>
    <path d="M 89.875991 23.585348 
L 91.40017 27.789736 
L 87.122152 26.486447 
z
" clip-path="url(#pd14abf8530)" style="stroke: #000000; stroke-linecap: round"/>
   </g>
   <g id="patch_65">
    <path d="M 121.30419 60.768459 
Q 121.626484 61.055911 121.114395 60.599182 
" clip-path="url(#pd14abf8530)" style="fill: none; stroke: #000000; stroke-linecap: round"/>
    <path d="M 119.460446 56.444131 
L 121.114395 60.599182 
L 116.797984 59.429311 
z
" clip-path="url(#pd14abf8530)" style="stroke: #000000; stroke-linecap: round"/>
   </g>
   <g id="patch_66">
    <path d="M 91.73911 39.641368 
Q 92.06122 39.929027 91.549424 39.47197 
" clip-path="url(#pd14abf8530)" style="fill: none; stroke: #000000; stroke-linecap: round"/>
    <path d="M 89.898142 35.315858 
L 91.549424 39.47197 
L 87.233765 38.299328 
z
" clip-path="url(#pd14abf8530)" style="stroke: #000000; stroke-linecap: round"/>
   </g>
   <g id="patch_67">
    <path d="M 113.658239 63.97384 
Q 113.990994 64.249113 113.462281 63.811733 
" clip-path="url(#pd14abf8530)" style="fill: none; stroke: #000000; stroke-linecap: round"/>
    <path d="M 111.655029 59.721032 
L 113.462281 63.811733 
L 109.105368 62.803114 
z
" clip-path="url(#pd14abf8530)" style="stroke: #000000; stroke-linecap: round"/>
   </g>
   <g id="patch_68">
    <path d="M 123.928526 81.305408 
Q 124.281801 81.553781 123.720463 81.159127 
" clip-path="url(#pd14abf8530)" style="fill: none; stroke: #000000; stroke-linecap: round"/>
    <path d="M 121.59853 77.222453 
L 123.720463 81.159127 
L 119.297964 80.494669 
z
" clip-path="url(#pd14abf8530)" style="stroke: #000000; stroke-linecap: round"/>
   </g>
   <g id="patch_69">
    <path d="M 111.015415 81.733463 
Q 111.375791 81.971418 110.803172 81.593319 
" clip-path="url(#pd14abf8530)" style="fill: none; stroke: #000000; stroke-linecap: round"/>
    <path d="M 108.567218 77.72027 
L 110.803172 81.593319 
L 106.36316 81.058253 
z
" clip-path="url(#pd14abf8530)" style="stroke: #000000; stroke-linecap: round"/>
   </g>
   <g id="patch_70">
    <path d="M 122.21866 97.262989 
Q 122.607522 97.450697 121.989517 97.15238 
" clip-path="url(#pd14abf8530)" style="fill: none; stroke: #000000; stroke-linecap: round"/>
    <path d="M 119.256674 93.612385 
L 121.989517 97.15238 
L 117.517815 97.214657 
z
" clip-path="url(#pd14abf8530)" style="stroke: #000000; stroke-linecap: round"/>
   </g>
   <g id="patch_71">
    <path d="M 102.876183 96.851053 
Q 103.263553 97.041896 102.647997 96.738635 
" clip-path="url(#pd14abf8530)" style="fill: none; stroke: #000000; stroke-linecap: round"/>
    <path d="M 99.943702 93.176783 
L 102.647997 96.738635 
L 98.175939 96.764959 
z
" clip-path="url(#pd14abf8530)" style="stroke: #000000; stroke-linecap: round"/>
   </g>
   <g id="patch_72">
    <path d="M 114.479964 110.74164 
Q 114.895726 110.857956 114.234796 110.673051 
" clip-path="url(#pd14abf8530)" style="fill: none; stroke: #000000; stroke-linecap: round"/>
    <path d="M 110.921543 107.669327 
L 114.234796 110.673051 
L 109.843865 111.521418 
z
" clip-path="url(#pd14abf8530)" style="stroke: #000000; stroke-linecap: round"/>
   </g>
   <g id="patch_73">
    <path d="M 115.602501 118.976014 
Q 116.031278 119.025484 115.349388 118.946812 
" clip-path="url(#pd14abf8530)" style="fill: none; stroke: #000000; stroke-linecap: round"/>
    <path d="M 111.604975 116.501536 
L 115.349388 118.946812 
L 111.14652 120.475176 
z
" clip-path="url(#pd14abf8530)" style="stroke: #000000; stroke-linecap: round"/>
   </g>
   <g id="patch_74">
    <path d="M 110.63461 126.427688 
Q 111.06622 126.429794 110.379809 126.426444 
" clip-path="url(#pd14abf8530)" style="fill: none; stroke: #000000; stroke-linecap: round"/>
    <path d="M 106.389616 124.406949 
L 110.379809 126.426444 
L 106.370098 128.406902 
z
" clip-path="url(#pd14abf8530)" style="stroke: #000000; stroke-linecap: round"/>
   </g>
   <g id="patch_75">
    <path d="M 105.125058 134.839367 
Q 105.55394 134.790642 104.871935 134.868125 
" clip-path="url(#pd14abf8530)" style="fill: none; stroke: #000000; stroke-linecap: round"/>
    <path d="M 100.671732 133.33245 
L 104.871935 134.868125 
L 101.123273 137.306882 
z
" clip-path="url(#pd14abf8530)" style="stroke: #000000; stroke-linecap: round"/>
   </g>
   <g id="patch_76">
    <path d="M 93.691633 140.617146 
Q 94.121323 140.575492 93.438196 140.641714 
" clip-path="url(#pd14abf8530)" style="fill: none; stroke: #000000; stroke-linecap: round"/>
    <path d="M 89.263883 139.036997 
L 93.438196 140.641714 
L 89.649834 143.018334 
z
" clip-path="url(#pd14abf8530)" style="stroke: #000000; stroke-linecap: round"/>
   </g>
   <g id="patch_77">
    <path d="M 109.519037 144.947901 
Q 109.911227 144.76742 109.287765 145.054328 
" clip-path="url(#pd14abf8530)" style="fill: none; stroke: #000000; stroke-linecap: round"/>
    <path d="M 104.81797 144.909653 
L 109.287765 145.054328 
L 106.490148 148.54336 
z
" clip-path="url(#pd14abf8530)" style="stroke: #000000; stroke-linecap: round"/>
   </g>
   <g id="patch_78">
    <path d="M 102.764705 155.515144 
Q 103.131557 155.287375 102.548561 155.649343 
" clip-path="url(#pd14abf8530)" style="fill: none; stroke: #000000; stroke-linecap: round"/>
    <path d="M 98.09533 156.060113 
L 102.548561 155.649343 
L 100.205238 159.45839 
z
" clip-path="url(#pd14abf8530)" style="stroke: #000000; stroke-linecap: round"/>
   </g>
   <g id="patch_79">
    <path d="M 93.898388 129.422485 
Q 94.32831 129.461993 93.64489 129.399189 
" clip-path="url(#pd14abf8530)" style="fill: none; stroke: #000000; stroke-linecap: round"/>
    <path d="M 89.844698 127.041533 
L 93.64489 129.399189 
L 89.47865 131.024749 
z
" clip-path="url(#pd14abf8530)" style="stroke: #000000; stroke-linecap: round"/>
   </g>
   <g id="patch_80">
    <path d="M 94.832513 108.359175 
Q 95.237404 108.50927 94.593974 108.270748 
" clip-path="url(#pd14abf8530)" style="fill: none; stroke: #000000; stroke-linecap: round"/>
    <path d="M 91.538563 105.005099 
L 94.593974 108.270748 
L 90.148208 108.755688 
z
" clip-path="url(#pd14abf8530)" style="stroke: #000000; stroke-linecap: round"/>
   </g>
   <g id="patch_81">
    <path d="M 201.50204 142.799373 
Q 201.219873 142.472443 201.668206 142.9919 
" clip-path="url(#pd14abf8530)" style="fill: none; stroke: #000000; stroke-linecap: round"/>
    <path d="M 202.767658 147.326782 
L 201.668206 142.9919 
L 205.795783 144.713268 
z
" clip-path="url(#pd14abf8530)" style="stroke: #000000; stroke-linecap: round"/>
   </g>
   <g id="patch_82">
    <path d="M 207.170584 143.026365 
Q 206.879449 142.707394 207.342029 143.214203 
" clip-path="url(#pd14abf8530)" style="fill: none; stroke: #000000; stroke-linecap: round"/>
    <path d="M 208.561402 147.516892 
L 207.342029 143.214203 
L 211.515804 144.820319 
z
" clip-path="url(#pd14abf8530)" style="stroke: #000000; stroke-linecap: round"/>
   </g>
   <g id="patch_83">
    <path d="M 212.873787 143.23195 
Q 212.575003 142.920133 213.049737 143.415575 
" clip-path="url(#pd14abf8530)" style="fill: none; stroke: #000000; stroke-linecap: round"/>
    <path d="M 214.373094 147.687428 
L 213.049737 143.415575 
L 217.261234 144.920002 
z
" clip-path="url(#pd14abf8530)" style="stroke: #000000; stroke-linecap: round"/>
   </g>
   <g id="patch_84">
    <path d="M 185.736465 58.877417 
Q 185.795745 59.301834 185.700366 58.618966 
" clip-path="url(#pd14abf8530)" style="fill: none; stroke: #000000; stroke-linecap: round"/>
    <path d="M 187.12781 54.380759 
L 185.700366 58.618966 
L 183.166266 54.934086 
z
" clip-path="url(#pd14abf8530)" style="stroke: #000000; stroke-linecap: round"/>
   </g>
   <g id="patch_85">
    <path d="M 142.209044 50.538111 
Q 142.49121 50.865041 142.042877 50.345584 
" clip-path="url(#pd14abf8530)" style="fill: none; stroke: #000000; stroke-linecap: round"/>
    <path d="M 140.943425 46.010702 
L 142.042877 50.345584 
L 137.9153 48.624217 
z
" clip-path="url(#pd14abf8530)" style="stroke: #000000; stroke-linecap: round"/>
   </g>
   <g id="patch_86">
    <path d="M 136.5405 50.31112 
Q 136.831634 50.630091 136.369054 50.123281 
" clip-path="url(#pd14abf8530)" style="fill: none; stroke: #000000; stroke-linecap: round"/>
    <path d="M 135.149682 45.820593 
L 136.369054 50.123281 
L 132.19528 48.517166 
z
" clip-path="url(#pd14abf8530)" style="stroke: #000000; stroke-linecap: round"/>
   </g>
   <g id="patch_87">
    <path d="M 130.837296 50.105534 
Q 131.136081 50.417351 130.661346 49.921909 
" clip-path="url(#pd14abf8530)" style="fill: none; stroke: #000000; stroke-linecap: round"/>
    <path d="M 129.33799 45.650056 
L 130.661346 49.921909 
L 126.44985 48.417483 
z
" clip-path="url(#pd14abf8530)" style="stroke: #000000; stroke-linecap: round"/>
   </g>
   <g id="patch_88">
    <path d="M 216.613352 135.743066 
Q 216.30108 135.444757 216.797245 135.918735 
" clip-path="url(#pd14abf8530)" style="fill: none; stroke: #000000; stroke-linecap: round"/>
    <path d="M 218.308091 140.127933 
L 216.797245 135.918735 
L 221.071111 137.235577 
z
" clip-path="url(#pd14abf8530)" style="stroke: #000000; stroke-linecap: round"/>
   </g>
   <g id="patch_89">
    <path d="M 127.097731 57.594419 
Q 127.410004 57.892728 126.913838 57.418749 
" clip-path="url(#pd14abf8530)" style="fill: none; stroke: #000000; stroke-linecap: round"/>
    <path d="M 125.402992 53.209552 
L 126.913838 57.418749 
L 122.639973 56.101908 
z
" clip-path="url(#pd14abf8530)" style="stroke: #000000; stroke-linecap: round"/>
   </g>
   <g id="patch_90">
    <path d="M 187.379682 117.610048 
Q 187.090349 117.289446 187.550073 117.798853 
" clip-path="url(#pd14abf8530)" style="fill: none; stroke: #000000; stroke-linecap: round"/>
    <path d="M 188.745219 122.108333 
L 187.550073 117.798853 
L 191.714745 119.428424 
z
" clip-path="url(#pd14abf8530)" style="stroke: #000000; stroke-linecap: round"/>
   </g>
   <g id="patch_91">
    <path d="M 156.331401 75.727436 
Q 156.620735 76.048038 156.161011 75.538632 
" clip-path="url(#pd14abf8530)" style="fill: none; stroke: #000000; stroke-linecap: round"/>
    <path d="M 154.965864 71.229151 
L 156.161011 75.538632 
L 151.996338 73.909061 
z
" clip-path="url(#pd14abf8530)" style="stroke: #000000; stroke-linecap: round"/>
   </g>
   <g id="line2d_1">
    <defs>
     <path id="ma2059608a2" d="M 0 5 
C 1.326016 5 2.597899 4.473168 3.535534 3.535534 
C 4.473168 2.597899 5 1.326016 5 0 
C 5 -1.326016 4.473168 -2.597899 3.535534 -3.535534 
C 2.597899 -4.473168 1.326016 -5 0 -5 
C -1.326016 -5 -2.597899 -4.473168 -3.535534 -3.535534 
C -4.473168 -2.597899 -5 -1.326016 -5 0 
C -5 1.326016 -4.473168 2.597899 -3.535534 3.535534 
C -2.597899 4.473168 -1.326016 5 0 5 
z
" style="stroke: #000000"/>
    </defs>
    <g clip-path="url(#pd14abf8530)">
     <use xlink:href="#ma2059608a2" x="171.855542" y="96.668742" style="stroke: #000000"/>
    </g>
   </g>
  </g>
 </g>
 <defs>
  <clipPath id="pd14abf8530">
   <rect x="85.9868" y="10.8" width="171.737484" height="171.737484"/>
  </clipPath>
 </defs>
</svg>
