<?xml version="1.0" encoding="utf-8" standalone="no"?>
<!DOCTYPE svg PUBLIC "-//W3C//DTD SVG 1.1//EN"
  "http://www.w3.org/Graphics/SVG/1.1/DTD/svg11.dtd">
<!-- Created with matplotlib (https://matplotlib.org/) -->
<svg height="345.6pt" version="1.1" viewBox="0 0 460.8 345.6" width="460.8pt" xmlns="http://www.w3.org/2000/svg" xmlns:xlink="http://www.w3.org/1999/xlink">
 <defs>
  <style type="text/css">
*{stroke-linecap:butt;stroke-linejoin:round;}
  </style>
 </defs>
 <g id="figure_1">
  <g id="patch_1">
   <path d="M 0 345.6 
L 460.8 345.6 
L 460.8 0 
L 0 0 
z
" style="fill:#ffffff;"/>
  </g>
  <g id="axes_1">
   <g id="patch_2">
    <path d="M 33.791667 256.12 
L 447.48 256.12 
L 447.48 44.408676 
L 33.791667 44.408676 
z
" style="fill:#ffffff;"/>
   </g>
   <g id="matplotlib.axis_1">
    <g id="xtick_1">
     <g id="line2d_1">
      <defs>
       <path d="M 0 0 
L 0 3.5 
" id="m61e564f751" style="stroke:#000000;stroke-width:0.8;"/>
      </defs>
      <g>
       <use style="stroke:#000000;stroke-width:0.8;" x="127.811743" xlink:href="#m61e564f751" y="256.12"/>
      </g>
     </g>
     <g id="text_1">
      <!-- $0$ -->
      <defs>
       <path d="M 42 31.84375 
C 42 37.96875 41.90625 48.421875 37.703125 56.453125 
C 34 63.484375 28.09375 66 22.90625 66 
C 18.09375 66 12 63.78125 8.203125 56.5625 
C 4.203125 49.015625 3.796875 39.671875 3.796875 31.84375 
C 3.796875 26.109375 3.90625 17.375 7 9.734375 
C 11.296875 -0.609375 19 -2 22.90625 -2 
C 27.5 -2 34.5 -0.109375 38.59375 9.4375 
C 41.59375 16.375 42 24.5 42 31.84375 
z
M 22.90625 -0.40625 
C 16.5 -0.40625 12.703125 5.125 11.296875 12.75 
C 10.203125 18.6875 10.203125 27.328125 10.203125 32.953125 
C 10.203125 40.6875 10.203125 47.109375 11.5 53.234375 
C 13.40625 61.78125 19 64.390625 22.90625 64.390625 
C 27 64.390625 32.296875 61.671875 34.203125 53.4375 
C 35.5 47.71875 35.59375 40.984375 35.59375 32.953125 
C 35.59375 26.421875 35.59375 18.375 34.40625 12.453125 
C 32.296875 1.5 26.40625 -0.40625 22.90625 -0.40625 
z
" id="CMR17-48"/>
      </defs>
      <g transform="translate(119.815909 287.334752)scale(0.35 -0.35)">
       <use transform="scale(0.996264)" xlink:href="#CMR17-48"/>
      </g>
     </g>
    </g>
    <g id="xtick_2">
     <g id="line2d_2">
      <g>
       <use style="stroke:#000000;stroke-width:0.8;" x="278.243864" xlink:href="#m61e564f751" y="256.12"/>
      </g>
     </g>
     <g id="text_2">
      <!-- $2$ -->
      <defs>
       <path d="M 41.703125 15.46875 
L 39.90625 15.46875 
C 38.90625 8.390625 38.09375 7.1875 37.703125 6.59375 
C 37.203125 5.796875 30 5.796875 28.59375 5.796875 
L 9.40625 5.796875 
C 13 9.6875 20 16.765625 28.5 24.9375 
C 34.59375 30.71875 41.703125 37.5 41.703125 47.390625 
C 41.703125 59.1875 32.296875 66 21.796875 66 
C 10.796875 66 4.09375 56.296875 4.09375 47.296875 
C 4.09375 43.390625 7 42.890625 8.203125 42.890625 
C 9.203125 42.890625 12.203125 43.484375 12.203125 46.984375 
C 12.203125 50.09375 9.59375 51 8.203125 51 
C 7.59375 51 7 50.890625 6.59375 50.6875 
C 8.5 59.1875 14.296875 63.390625 20.40625 63.390625 
C 29.09375 63.390625 34.796875 56.5 34.796875 47.390625 
C 34.796875 38.703125 29.703125 31.21875 24 24.734375 
L 4.09375 2.296875 
L 4.09375 0 
L 39.296875 0 
z
" id="CMR17-50"/>
      </defs>
      <g transform="translate(270.24803 287.334752)scale(0.35 -0.35)">
       <use transform="scale(0.996264)" xlink:href="#CMR17-50"/>
      </g>
     </g>
    </g>
    <g id="xtick_3">
     <g id="line2d_3">
      <g>
       <use style="stroke:#000000;stroke-width:0.8;" x="428.675985" xlink:href="#m61e564f751" y="256.12"/>
      </g>
     </g>
     <g id="text_3">
      <!-- $4$ -->
      <defs>
       <path d="M 33.59375 64.796875 
C 33.59375 66.890625 33.5 67 31.703125 67 
L 2 19.59375 
L 2 17 
L 27.796875 17 
L 27.796875 7.1875 
C 27.796875 3.59375 27.59375 2.59375 20.59375 2.59375 
L 18.703125 2.59375 
L 18.703125 0 
C 21.90625 0.1875 27.296875 0.1875 30.703125 0.1875 
C 34.09375 0.1875 39.5 0.1875 42.703125 0 
L 42.703125 2.59375 
L 40.796875 2.59375 
C 33.796875 2.59375 33.59375 3.59375 33.59375 7.1875 
L 33.59375 17 
L 43.796875 17 
L 43.796875 19.59375 
L 33.59375 19.59375 
z
M 28.09375 58.171875 
L 28.09375 19.59375 
L 4 19.59375 
z
" id="CMR17-52"/>
      </defs>
      <g transform="translate(420.680151 287.334752)scale(0.35 -0.35)">
       <use transform="scale(0.996264)" xlink:href="#CMR17-52"/>
      </g>
     </g>
    </g>
    <g id="text_4">
     <!-- $t$ -->
     <defs>
      <path d="M 20.09375 40.09375 
L 29.296875 40.09375 
C 31.203125 40.09375 32.203125 40.09375 32.203125 41.890625 
C 32.203125 43 31.59375 43 29.59375 43 
L 20.796875 43 
L 24.5 57.25 
C 24.90625 58.625 24.90625 58.8125 24.90625 59.5 
C 24.90625 61.09375 23.59375 62 22.296875 62 
C 21.5 62 19.203125 61.6875 18.40625 58.53125 
L 14.5 43 
L 5.09375 43 
C 3.09375 43 2.203125 43 2.203125 41.09375 
C 2.203125 40.09375 2.90625 40.09375 4.796875 40.09375 
L 13.703125 40.09375 
L 7.09375 13.765625 
C 6.296875 10.265625 6 9.265625 6 7.96875 
C 6 3.28125 9.296875 -1 14.90625 -1 
C 25 -1 30.40625 13.5625 30.40625 14.265625 
C 30.40625 14.859375 30 15.15625 29.40625 15.15625 
C 29.203125 15.15625 28.796875 15.15625 28.59375 14.75 
C 28.5 14.65625 28.40625 14.5625 27.703125 12.96875 
C 25.59375 7.96875 21 1 15.203125 1 
C 12.203125 1 12 3.484375 12 5.6875 
C 12 5.78125 12 7.671875 12.296875 8.875 
z
" id="CMMI12-116"/>
     </defs>
     <g transform="translate(234.47123 322.331855)scale(0.35 -0.35)">
      <use transform="scale(0.996264)" xlink:href="#CMMI12-116"/>
     </g>
    </g>
   </g>
   <g id="matplotlib.axis_2">
    <g id="ytick_1">
     <g id="line2d_4">
      <defs>
       <path d="M 0 0 
L -3.5 0 
" id="m8f3935aaf9" style="stroke:#000000;stroke-width:0.8;"/>
      </defs>
      <g>
       <use style="stroke:#000000;stroke-width:0.8;" x="33.791667" xlink:href="#m8f3935aaf9" y="246.496758"/>
      </g>
     </g>
     <g id="text_5">
      <!-- $0$ -->
      <g transform="translate(10.8 258.604134)scale(0.35 -0.35)">
       <use transform="scale(0.996264)" xlink:href="#CMR17-48"/>
      </g>
     </g>
    </g>
    <g id="ytick_2">
     <g id="line2d_5">
      <g>
       <use style="stroke:#000000;stroke-width:0.8;" x="33.791667" xlink:href="#m8f3935aaf9" y="149.878251"/>
      </g>
     </g>
     <g id="text_6">
      <!-- $2$ -->
      <g transform="translate(10.8 161.985627)scale(0.35 -0.35)">
       <use transform="scale(0.996264)" xlink:href="#CMR17-50"/>
      </g>
     </g>
    </g>
    <g id="ytick_3">
     <g id="line2d_6">
      <g>
       <use style="stroke:#000000;stroke-width:0.8;" x="33.791667" xlink:href="#m8f3935aaf9" y="53.259744"/>
      </g>
     </g>
     <g id="text_7">
      <!-- $4$ -->
      <g transform="translate(10.8 65.36712)scale(0.35 -0.35)">
       <use transform="scale(0.996264)" xlink:href="#CMR17-52"/>
      </g>
     </g>
    </g>
   </g>
   <g id="line2d_7">
    <path clip-path="url(#p934602e22d)" d="M 52.595682 246.496758 
L 127.510577 246.496758 
L 127.887034 198.235838 
L 133.533885 201.726365 
L 139.180737 204.964436 
L 145.204045 208.160662 
L 151.227353 211.110915 
L 157.627118 213.997192 
L 164.40334 216.797067 
L 171.179561 219.355729 
L 178.33224 221.817788 
L 185.861375 224.168538 
L 193.766967 226.396227 
L 202.049016 228.491998 
L 210.707521 230.449772 
L 219.742483 232.266068 
L 229.530359 234.00248 
L 239.694692 235.581784 
L 250.611938 237.056432 
L 262.658554 238.453531 
L 275.458084 239.712125 
L 289.386984 240.859065 
L 304.821711 241.904969 
L 322.138722 242.849267 
L 341.714473 243.685086 
L 363.925422 244.403998 
L 389.900939 245.015134 
L 421.14685 245.518788 
L 428.675985 245.611943 
L 428.675985 245.611943 
" style="fill:none;stroke:#000000;stroke-dasharray:1.5,2.475;stroke-dashoffset:0;stroke-width:1.5;"/>
   </g>
   <g id="line2d_8">
    <path clip-path="url(#p934602e22d)" d="M 52.595682 246.496758 
L 127.510577 246.496758 
L 127.887034 150.071488 
L 130.898688 157.492143 
L 133.910342 164.341722 
L 136.921996 170.664174 
L 139.93365 176.500066 
L 142.945304 181.886841 
L 145.956958 186.859064 
L 148.968613 191.448636 
L 152.356723 196.191095 
L 155.744834 200.524986 
L 159.132945 204.485506 
L 162.521056 208.104824 
L 165.909167 211.412333 
L 169.297278 214.434897 
L 173.061845 217.48889 
L 176.826413 220.251981 
L 180.59098 222.751879 
L 184.732005 225.227627 
L 188.873029 227.445242 
L 193.39051 229.601609 
L 197.907991 231.513905 
L 202.801929 233.342095 
L 208.072324 235.062246 
L 213.719175 236.65646 
L 219.742483 238.112752 
L 226.142248 239.424671 
L 232.91847 240.590718 
L 240.447605 241.66227 
L 248.729654 242.617845 
L 258.141073 243.476613 
L 269.058319 244.237549 
L 281.481392 244.873096 
L 296.539662 245.40882 
L 314.986043 245.830586 
L 339.079276 246.145715 
L 373.713298 246.35699 
L 428.675985 246.464346 
L 428.675985 246.464346 
" style="fill:none;stroke:#000000;stroke-dasharray:5.55,2.4;stroke-dashoffset:0;stroke-width:1.5;"/>
   </g>
   <g id="line2d_9">
    <path clip-path="url(#p934602e22d)" d="M 52.595682 246.496758 
L 127.510577 246.496758 
L 127.887034 54.031918 
L 130.145775 75.816262 
L 132.404515 95.13492 
L 134.663256 112.266976 
L 136.921996 127.45992 
L 139.180737 140.933235 
L 141.439477 152.881558 
L 143.698218 163.477497 
L 145.956958 172.874123 
L 148.215699 181.207181 
L 150.47444 188.597053 
L 152.73318 195.150495 
L 154.991921 200.962178 
L 157.250661 206.116059 
L 159.509402 210.686593 
L 161.768142 214.739805 
L 164.026883 218.334251 
L 166.285623 221.521855 
L 168.544364 224.348667 
L 170.803105 226.855523 
L 173.438302 229.423881 
L 176.073499 231.656392 
L 178.708697 233.596971 
L 181.343894 235.283794 
L 184.355548 236.94323 
L 187.367202 238.357082 
L 190.755313 239.699154 
L 194.51988 240.932465 
L 198.660905 242.032292 
L 203.178386 242.985728 
L 208.072324 243.790277 
L 213.719175 244.49235 
L 220.495397 245.098834 
L 228.400989 245.578642 
L 238.565321 245.962017 
L 252.117765 246.236659 
L 272.822886 246.410274 
L 313.856673 246.487003 
L 428.675985 246.496736 
L 428.675985 246.496736 
" style="fill:none;stroke:#000000;stroke-linecap:square;stroke-width:1.5;"/>
   </g>
   <g id="patch_3">
    <path d="M 33.791667 256.12 
L 33.791667 44.408676 
" style="fill:none;stroke:#000000;stroke-linecap:square;stroke-linejoin:miter;stroke-width:0.8;"/>
   </g>
   <g id="patch_4">
    <path d="M 447.48 256.12 
L 447.48 44.408676 
" style="fill:none;stroke:#000000;stroke-linecap:square;stroke-linejoin:miter;stroke-width:0.8;"/>
   </g>
   <g id="patch_5">
    <path d="M 33.791667 256.12 
L 447.48 256.12 
" style="fill:none;stroke:#000000;stroke-linecap:square;stroke-linejoin:miter;stroke-width:0.8;"/>
   </g>
   <g id="patch_6">
    <path d="M 33.791667 44.408676 
L 447.48 44.408676 
" style="fill:none;stroke:#000000;stroke-linecap:square;stroke-linejoin:miter;stroke-width:0.8;"/>
   </g>
   <g id="text_8">
    <!-- $\delta_{\epsilon}(t)$ -->
    <defs>
     <path d="M 26 43.671875 
C 13.203125 40.578125 4 27.3125 4 15.640625 
C 4 4.984375 11.203125 -1 19.203125 -1 
C 31 -1 39 15.15625 39 28.40625 
C 39 37.390625 34.796875 42.859375 32.296875 46.15625 
C 28.59375 50.84375 22.59375 58.515625 22.59375 63.3125 
C 22.59375 65 23.90625 68 28.296875 68 
C 31.40625 68 33.296875 66.890625 36.296875 65.203125 
C 37.203125 64.59375 39.5 63.3125 40.796875 63.3125 
C 42.90625 63.3125 44.40625 65.40625 44.40625 67 
C 44.40625 68.890625 42.90625 69.1875 39.40625 70 
C 34.703125 71 33.296875 71 31.59375 71 
C 29.90625 71 20.09375 71 20.09375 60.8125 
C 20.09375 55.921875 22.59375 50.25 26 43.671875 
z
M 27.09375 41.765625 
C 30.90625 33.890625 32.40625 30.90625 32.40625 24.421875 
C 32.40625 16.640625 28.203125 1 19.296875 1 
C 15.40625 1 9.796875 3.578125 9.796875 12.859375 
C 9.796875 19.34375 13.5 38.1875 27.09375 41.765625 
z
" id="CMMI12-14"/>
     <path d="M 29.09375 23 
C 30.59375 23 32.296875 23 32.296875 24.59375 
C 32.296875 25.890625 31.296875 25.890625 29.5 25.890625 
L 13.296875 25.890625 
C 15.796875 34.75 21.703125 40.09375 30.59375 40.09375 
L 33.5 40.09375 
C 35.203125 40.09375 36.703125 40.09375 36.703125 41.6875 
C 36.703125 43 35.59375 43 33.796875 43 
L 30.40625 43 
C 18.09375 43 4.59375 33.375 4.59375 17.828125 
C 4.59375 6.5625 12.09375 -1 22 -1 
C 28.40625 -1 34.703125 3.015625 34.703125 4.03125 
C 34.703125 4.640625 34.40625 5.25 33.796875 5.25 
C 33.5 5.25 33.296875 5.15625 32.796875 4.75 
C 29 2.203125 25.296875 1 22.296875 1 
C 17 1 11.40625 4.546875 11.40625 14.375 
C 11.40625 16.296875 11.59375 18.9375 12.5 23 
z
" id="CMMI12-15"/>
     <path d="M 30.59375 -24.40625 
C 30.59375 -24.3125 30.59375 -24.109375 30.296875 -23.8125 
C 25.703125 -19.109375 13.40625 -6.296875 13.40625 24.9375 
C 13.40625 56.171875 25.5 68.875 30.40625 73.890625 
C 30.40625 73.984375 30.59375 74.1875 30.59375 74.484375 
C 30.59375 74.796875 30.296875 75 29.90625 75 
C 28.796875 75 20.296875 67.578125 15.40625 56.5625 
C 10.40625 45.453125 9 34.65625 9 25.046875 
C 9 17.828125 9.703125 5.625 15.703125 -7.296875 
C 20.5 -17.703125 28.703125 -25 29.90625 -25 
C 30.40625 -25 30.59375 -24.8125 30.59375 -24.40625 
z
" id="CMR17-40"/>
     <path d="M 26.296875 24.9375 
C 26.296875 32.140625 25.59375 44.359375 19.59375 57.265625 
C 14.796875 67.6875 6.59375 75 5.40625 75 
C 5.09375 75 4.703125 74.890625 4.703125 74.390625 
C 4.703125 74.1875 4.796875 74.09375 4.90625 73.890625 
C 9.703125 68.875 21.90625 56.171875 21.90625 25.046875 
C 21.90625 -6.1875 9.796875 -18.90625 4.90625 -23.90625 
C 4.796875 -24.109375 4.703125 -24.203125 4.703125 -24.40625 
C 4.703125 -24.90625 5.09375 -25 5.40625 -25 
C 6.5 -25 15 -17.609375 19.90625 -6.59375 
C 24.90625 4.515625 26.296875 15.328125 26.296875 24.9375 
z
" id="CMR17-41"/>
    </defs>
    <g transform="translate(209.487837 38.408676)scale(0.35 -0.35)">
     <use transform="translate(0 14.943915)scale(0.996264)" xlink:href="#CMMI12-14"/>
     <use transform="translate(43.205457 0)scale(0.697382)" xlink:href="#CMMI12-15"/>
     <use transform="translate(71.275731 14.943915)scale(0.996264)" xlink:href="#CMR17-40"/>
     <use transform="translate(106.556498 14.943915)scale(0.996264)" xlink:href="#CMMI12-116"/>
     <use transform="translate(141.782829 14.943915)scale(0.996264)" xlink:href="#CMR17-41"/>
    </g>
   </g>
   <g id="legend_1">
    <g id="patch_7">
     <path d="M 195.262908 218.75573 
L 422.98 218.75573 
Q 429.98 218.75573 429.98 211.75573 
L 429.98 68.908676 
Q 429.98 61.908676 422.98 61.908676 
L 195.262908 61.908676 
Q 188.262908 61.908676 188.262908 68.908676 
L 188.262908 211.75573 
Q 188.262908 218.75573 195.262908 218.75573 
z
" style="fill:#ffffff;opacity:0.8;stroke:#cccccc;stroke-linejoin:miter;"/>
    </g>
    <g id="line2d_10">
     <path d="M 202.262908 88.158676 
L 272.262908 88.158676 
" style="fill:none;stroke:#000000;stroke-dasharray:1.5,2.475;stroke-dashoffset:0;stroke-width:1.5;"/>
    </g>
    <g id="line2d_11"/>
    <g id="text_9">
     <!-- $\epsilon=1.0$ -->
     <defs>
      <path d="M 64.296875 32 
C 65.796875 32 67.296875 32 67.296875 33.6875 
C 67.296875 35.5 65.59375 35.5 63.90625 35.5 
L 8 35.5 
C 6.296875 35.5 4.59375 35.5 4.59375 33.6875 
C 4.59375 32 6.09375 32 7.59375 32 
z
M 63.90625 14.484375 
C 65.59375 14.484375 67.296875 14.484375 67.296875 16.296875 
C 67.296875 18 65.796875 18 64.296875 18 
L 7.59375 18 
C 6.09375 18 4.59375 18 4.59375 16.296875 
C 4.59375 14.484375 6.296875 14.484375 8 14.484375 
z
" id="CMR17-61"/>
      <path d="M 26.59375 63.796875 
C 26.59375 65.890625 26.5 66 25.09375 66 
C 21.203125 61.359375 15.296875 59.890625 9.703125 59.6875 
C 9.40625 59.6875 8.90625 59.6875 8.796875 59.5 
C 8.703125 59.296875 8.703125 59.09375 8.703125 57 
C 11.796875 57 17 57.59375 21 59.984375 
L 21 7.296875 
C 21 3.796875 20.796875 2.59375 12.203125 2.59375 
L 9.203125 2.59375 
L 9.203125 0 
C 14 0.09375 19 0.1875 23.796875 0.1875 
C 28.59375 0.1875 33.59375 0.09375 38.40625 0 
L 38.40625 2.59375 
L 35.40625 2.59375 
C 26.796875 2.59375 26.59375 3.6875 26.59375 7.296875 
z
" id="CMR17-49"/>
      <path d="M 18.40625 4.796875 
C 18.40625 7.6875 16 9.6875 13.59375 9.6875 
C 10.703125 9.6875 8.703125 7.296875 8.703125 4.890625 
C 8.703125 2 11.09375 0 13.5 0 
C 16.40625 0 18.40625 2.390625 18.40625 4.796875 
z
" id="CMMI12-58"/>
     </defs>
     <g transform="translate(300.262908 100.408676)scale(0.35 -0.35)">
      <use transform="scale(0.996264)" xlink:href="#CMMI12-15"/>
      <use transform="translate(67.062967 0)scale(0.996264)" xlink:href="#CMR17-61"/>
      <use transform="translate(166.451764 0)scale(0.996264)" xlink:href="#CMR17-49"/>
      <use transform="translate(212.142241 0)scale(0.996264)" xlink:href="#CMMI12-58"/>
      <use transform="translate(239.239418 0)scale(0.996264)" xlink:href="#CMR17-48"/>
     </g>
    </g>
    <g id="line2d_12">
     <path d="M 202.262908 136.941028 
L 272.262908 136.941028 
" style="fill:none;stroke:#000000;stroke-dasharray:5.55,2.4;stroke-dashoffset:0;stroke-width:1.5;"/>
    </g>
    <g id="line2d_13"/>
    <g id="text_10">
     <!-- $\epsilon=0.5$ -->
     <defs>
      <path d="M 11.40625 58.59375 
C 12.40625 58.1875 16.5 56.890625 20.703125 56.890625 
C 30 56.890625 35.09375 61.890625 38 64.6875 
C 38 65.484375 38 66 37.40625 66 
C 37.296875 66 37.09375 66 36.296875 65.59375 
C 32.796875 64.09375 28.703125 63 23.703125 63 
C 20.703125 63 16.203125 63.359375 11.296875 65.484375 
C 10.203125 66 10 66 9.90625 66 
C 9.40625 66 9.296875 65.890625 9.296875 63.90625 
L 9.296875 34.859375 
C 9.296875 33.015625 9.296875 32.5 10.296875 32.5 
C 10.796875 32.5 11 32.703125 11.5 33.421875 
C 14.703125 38.046875 19.09375 40 24.09375 40 
C 27.59375 40 35.09375 37.734375 35.09375 20.203125 
C 35.09375 16.984375 35.09375 11.1875 32.09375 6.59375 
C 29.59375 2.484375 25.703125 0.390625 21.40625 0.390625 
C 14.796875 0.390625 8.09375 4.984375 6.296875 12.6875 
C 6.703125 12.59375 7.5 12.390625 7.90625 12.390625 
C 9.203125 12.390625 11.703125 13.09375 11.703125 16.1875 
C 11.703125 18.890625 9.796875 20 7.90625 20 
C 5.59375 20 4.09375 18.59375 4.09375 15.796875 
C 4.09375 7.09375 11 -2 21.59375 -2 
C 31.90625 -2 41.703125 6.890625 41.703125 19.796875 
C 41.703125 32.09375 33.90625 41.59375 24.203125 41.59375 
C 19.09375 41.59375 14.796875 39.6875 11.40625 36 
z
" id="CMR17-53"/>
     </defs>
     <g transform="translate(300.262908 149.191028)scale(0.35 -0.35)">
      <use transform="scale(0.996264)" xlink:href="#CMMI12-15"/>
      <use transform="translate(67.062967 0)scale(0.996264)" xlink:href="#CMR17-61"/>
      <use transform="translate(166.451764 0)scale(0.996264)" xlink:href="#CMR17-48"/>
      <use transform="translate(212.142241 0)scale(0.996264)" xlink:href="#CMMI12-58"/>
      <use transform="translate(239.239418 0)scale(0.996264)" xlink:href="#CMR17-53"/>
     </g>
    </g>
    <g id="line2d_14">
     <path d="M 202.262908 185.723379 
L 272.262908 185.723379 
" style="fill:none;stroke:#000000;stroke-linecap:square;stroke-width:1.5;"/>
    </g>
    <g id="line2d_15"/>
    <g id="text_11">
     <!-- $\epsilon=0.25$ -->
     <g transform="translate(300.262908 197.973379)scale(0.35 -0.35)">
      <use transform="scale(0.996264)" xlink:href="#CMMI12-15"/>
      <use transform="translate(67.062967 0)scale(0.996264)" xlink:href="#CMR17-61"/>
      <use transform="translate(166.451764 0)scale(0.996264)" xlink:href="#CMR17-48"/>
      <use transform="translate(212.142241 0)scale(0.996264)" xlink:href="#CMMI12-58"/>
      <use transform="translate(239.239418 0)scale(0.996264)" xlink:href="#CMR17-50"/>
      <use transform="translate(284.929895 0)scale(0.996264)" xlink:href="#CMR17-53"/>
     </g>
    </g>
   </g>
  </g>
 </g>
 <defs>
  <clipPath id="p934602e22d">
   <rect height="211.711324" width="413.688333" x="33.791667" y="44.408676"/>
  </clipPath>
 </defs>
</svg>
