<?xml version="1.0" encoding="utf-8" standalone="no"?>
<!DOCTYPE svg PUBLIC "-//W3C//DTD SVG 1.1//EN"
  "http://www.w3.org/Graphics/SVG/1.1/DTD/svg11.dtd">
<svg xmlns:xlink="http://www.w3.org/1999/xlink" width="343.711083pt" height="193.337484pt" viewBox="0 0 343.711083 193.337484" xmlns="http://www.w3.org/2000/svg" version="1.1">
 <metadata>
  <rdf:RDF xmlns:dc="http://purl.org/dc/elements/1.1/" xmlns:cc="http://creativecommons.org/ns#" xmlns:rdf="http://www.w3.org/1999/02/22-rdf-syntax-ns#">
   <cc:Work>
    <dc:type rdf:resource="http://purl.org/dc/dcmitype/StillImage"/>
    <dc:date>2026-02-12T22:40:57.066328</dc:date>
    <dc:format>image/svg+xml</dc:format>
    <dc:creator>
     <cc:Agent>
      <dc:title>Matplotlib v3.10.0, https://matplotlib.org/</dc:title>
     </cc:Agent>
    </dc:creator>
   </cc:Work>
  </rdf:RDF>
 </metadata>
 <defs>
  <style type="text/css">*{stroke-linejoin: round; stroke-linecap: butt}</style>
 </defs>
 <g id="figure_1">
  <g id="patch_1">
   <path d="M 0 193.337484 
L 343.711083 193.337484 
L 343.711083 0 
L 0 0 
z
" style="fill: #ffffff"/>
  </g>
  <g id="axes_1">
   <g id="LineCollection_1">
    <path d="M 147.417799 121.106485 
L 147.432944 121.09134 
L 147.210293 121.313991 
L 147.210293 121.313991 
L 85.9868 182.537484 
L 85.9868 182.537484 
" clip-path="url(#pc1d135e9a2)" style="fill: none; stroke: #000000"/>
    <path d="M 233.809087 180.09657 
L 228.564385 177.807178 
L 223.210047 175.787821 
L 217.758666 174.047081 
L 212.227749 172.577304 
L 206.636797 171.353486 
L 201.004156 170.336027 
L 195.344887 169.4764 
L 189.670137 168.723864 
L 183.987613 168.031477 
L 178.302458 167.360773 
L 172.617879 166.685233 
L 166.935298 165.993108 
L 161.254028 165.290245 
L 155.57082 164.603468 
L 149.88 163.984797 
L 144.175541 163.515896 
L 138.457019 163.309691 
L 132.740342 163.501515 
L 127.068079 164.219494 
L 121.505341 165.537239 
L 116.114047 167.441968 
L 110.925824 169.850251 
L 105.937616 172.653047 
L 101.125405 175.750498 
L 96.458726 179.064391 
L 91.908782 182.537484 
L 91.908782 182.537484 
" clip-path="url(#pc1d135e9a2)" style="fill: none; stroke: #000000"/>
    <path d="M 226.281897 182.537484 
L 220.968267 181.121084 
L 215.407804 179.766462 
L 209.79545 178.644113 
L 204.14698 177.718124 
L 198.475107 176.945984 
L 192.789142 176.283673 
L 187.095464 175.690175 
L 181.398274 175.130895 
L 175.700249 174.580124 
L 170.002856 174.022869 
L 164.306365 173.456453 
L 158.609662 172.892201 
L 152.910164 172.357415 
L 147.204318 171.89755 
L 141.489365 171.577982 
L 135.767176 171.483492 
L 130.050144 171.711913 
L 124.366652 172.357983 
L 118.760322 173.488452 
L 113.278822 175.120485 
L 107.957562 177.219445 
L 102.810214 179.717482 
L 97.830764 182.537484 
L 97.830764 182.537484 
" clip-path="url(#pc1d135e9a2)" style="fill: none; stroke: #000000"/>
    <path d="M 187.841771 182.537484 
L 183.593257 182.187703 
L 177.88777 181.720523 
L 172.182302 181.253113 
L 166.477332 180.779665 
L 160.772482 180.304753 
L 155.066451 179.844441 
L 149.357156 179.42749 
L 143.642424 179.096482 
L 137.921607 178.908248 
L 132.198429 178.932327 
L 126.484728 179.245472 
L 120.803434 179.920548 
L 115.187777 181.011053 
L 109.674728 182.537484 
L 109.674728 182.537484 
" clip-path="url(#pc1d135e9a2)" style="fill: none; stroke: #000000"/>
    <path d="M 145.206622 182.537484 
L 145.206622 182.537484 
L 139.486875 182.312556 
L 133.763448 182.257558 
L 128.043404 182.439737 
L 126.277919 182.537484 
" clip-path="url(#pc1d135e9a2)" style="fill: none; stroke: #000000"/>
    <path d="M 210.348426 182.537484 
L 210.348426 182.537484 
L 204.687506 181.689974 
L 199.006905 180.984296 
L 193.314456 180.379964 
L 187.615459 179.839834 
" clip-path="url(#pc1d135e9a2)" style="fill: none; stroke: #000000"/>
    <path d="M 245.880319 182.537484 
L 245.880319 182.537484 
L 241.084495 179.412948 
L 236.179416 176.463385 
L 231.155936 173.720974 
L 226.009195 171.218255 
L 220.740879 168.983389 
L 215.360573 167.033694 
L 209.885163 165.369103 
L 204.335961 163.968446 
L 198.734695 162.790765 
L 193.100212 161.781457 
L 187.44704 160.880927 
L 181.785611 160.033052 
L 176.123132 159.192134 
L 170.464115 158.328366 
L 164.810039 157.432797 
L 159.158199 156.523103 
L 153.500474 155.651552 
L 147.824201 154.916039 
L 142.120124 154.471192 
L 136.403962 154.522921 
L 130.74289 155.270198 
L 125.467935 156.713654 
L 120.560307 158.730219 
L 115.57127 161.400748 
L 110.752533 164.483806 
" clip-path="url(#pc1d135e9a2)" style="fill: none; stroke: #000000"/>
    <path d="M 257.724284 182.537484 
L 172.031056 96.844256 
L 172.031967 96.845167 
" clip-path="url(#pc1d135e9a2)" style="fill: none; stroke: #000000"/>
    <path d="M 257.724284 176.615502 
L 257.724284 176.615502 
L 254.116132 172.171424 
L 250.593889 167.65907 
L 247.177767 163.06602 
L 243.892691 158.378579 
L 240.768686 153.582599 
L 237.840262 148.665145 
L 235.14395 143.617092 
L 232.712851 138.436437 
L 230.568049 133.130949 
L 228.708743 127.718551 
L 227.105737 122.224237 
L 225.702412 116.674936 
L 224.423711 111.095148 
L 223.189342 105.505231 
L 221.926952 99.92166 
L 220.583834 94.357103 
L 219.138811 88.818143 
L 217.619489 83.298904 
L 216.136327 77.770133 
L 214.957923 72.173577 
L 214.957923 72.173577 
L 214.566308 67.649779 
L 214.566308 67.649779 
L 214.877934 63.834417 
L 215.897683 60.084193 
L 217.455224 56.62753 
L 219.651935 52.976338 
L 222.698622 48.781774 
L 226.321035 44.351816 
L 230.094133 40.047584 
L 233.95521 35.82151 
L 237.87087 31.645749 
L 241.822082 27.503527 
L 245.797395 23.384392 
L 249.789588 19.281597 
L 253.793932 15.190648 
L 257.724284 11.184576 
" clip-path="url(#pc1d135e9a2)" style="fill: none; stroke: #000000"/>
    <path d="M 257.724284 164.771538 
L 257.724284 164.771538 
L 255.095593 159.687648 
L 252.708282 154.48634 
L 250.586391 149.171434 
L 248.74338 143.753538 
L 247.177179 138.249065 
L 245.867854 132.677544 
L 244.779168 127.05831 
L 243.863719 121.407875 
L 243.069744 115.738819 
L 242.347686 110.060008 
L 241.655495 104.377431 
L 240.962585 98.694942 
L 240.252974 93.01452 
L 239.528293 87.335994 
L 238.811329 81.6565 
L 238.150542 75.97035 
L 237.625241 70.270655 
L 237.348808 64.554901 
L 237.462064 58.836218 
L 238.10409 53.155911 
L 239.360198 47.5813 
L 241.223332 42.178444 
L 243.608584 36.982107 
L 246.401848 31.990227 
L 249.498113 27.178235 
L 252.815419 22.51453 
L 256.294181 17.969216 
L 257.724284 16.153544 
" clip-path="url(#pc1d135e9a2)" style="fill: none; stroke: #000000"/>
    <path d="M 257.724284 152.927573 
L 257.724284 152.927573 
L 255.996388 147.471712 
L 254.532897 141.938881 
L 253.314312 136.346697 
L 252.308165 130.712052 
L 251.473218 125.049173 
L 250.764707 119.368839 
L 250.139323 113.678604 
L 249.559175 107.983512 
L 248.994696 102.286828 
L 248.426747 96.590491 
L 247.84838 90.895202 
L 247.266582 85.200261 
L 246.704314 79.503386 
L 246.202873 73.80097 
L 245.824136 68.089482 
L 245.651113 62.368904 
L 245.783366 56.648681 
L 246.322385 50.954268 
L 247.345957 45.328383 
L 248.882531 39.820969 
L 250.904439 34.47176 
" clip-path="url(#pc1d135e9a2)" style="fill: none; stroke: #000000"/>
    <path d="M 257.724284 141.083609 
L 257.724284 141.083609 
L 256.651655 135.46138 
L 255.768339 129.805989 
L 255.033688 124.129097 
" clip-path="url(#pc1d135e9a2)" style="fill: none; stroke: #000000"/>
    <path d="M 257.724284 117.39568 
L 257.724284 117.39568 
L 257.218185 111.693548 
L 256.739987 105.988978 
L 256.269264 100.283782 
L 255.794507 94.578921 
L 255.314148 88.874528 
L 254.837632 83.169815 
L 254.386618 77.463061 
L 253.996246 71.75195 
L 253.716132 66.034644 
L 253.610158 60.312001 
L 253.753366 54.59105 
L 254.223734 48.888844 
L 255.088081 43.234115 
L 256.385848 37.663588 
L 257.724284 32.766596 
" clip-path="url(#pc1d135e9a2)" style="fill: none; stroke: #000000"/>
    <path d="M 257.724284 75.941804 
L 257.724284 75.941804 
L 257.382366 70.227598 
L 257.151457 64.508087 
L 257.090339 58.784723 
L 257.266868 53.064512 
" clip-path="url(#pc1d135e9a2)" style="fill: none; stroke: #000000"/>
    <path d="M 109.901997 13.240915 
L 115.146699 15.530306 
L 120.501036 17.549663 
L 125.952417 19.290404 
L 131.483335 20.760181 
L 137.074286 21.983998 
L 142.706928 23.001458 
L 148.366196 23.861084 
L 154.040947 24.61362 
L 159.72347 25.306007 
L 165.408626 25.976711 
L 171.093205 26.652252 
L 176.775785 27.344377 
L 182.457055 28.04724 
L 188.140263 28.734017 
L 193.831083 29.352688 
L 199.535542 29.821589 
L 205.254065 30.027793 
L 210.970742 29.835969 
L 216.643004 29.117991 
L 222.205743 27.800245 
L 227.597037 25.895517 
L 232.78526 23.487233 
L 237.773467 20.684438 
L 242.585679 17.586987 
L 247.252358 14.273094 
L 251.802302 10.8 
L 251.802302 10.8 
" clip-path="url(#pc1d135e9a2)" style="fill: none; stroke: #000000"/>
    <path d="M 117.429186 10.8 
L 122.742817 12.2164 
L 128.30328 13.571023 
L 133.915634 14.693372 
L 139.564103 15.61936 
L 145.235976 16.3915 
L 150.921941 17.053811 
L 156.61562 17.647309 
L 162.312809 18.206589 
L 168.010835 18.75736 
L 173.708227 19.314616 
L 179.404718 19.881032 
L 185.101422 20.445283 
L 190.800919 20.98007 
L 196.506765 21.439935 
L 202.221718 21.759502 
L 207.943908 21.853992 
L 213.660939 21.625572 
L 219.344432 20.979502 
L 224.950761 19.849032 
L 230.432261 18.216999 
L 235.753522 16.118039 
L 240.90087 13.620003 
L 245.880319 10.8 
L 245.880319 10.8 
" clip-path="url(#pc1d135e9a2)" style="fill: none; stroke: #000000"/>
    <path d="M 155.869312 10.8 
L 160.117826 11.149781 
L 165.823314 11.616961 
L 171.528782 12.084371 
L 177.233752 12.55782 
L 182.938601 13.032732 
L 188.644632 13.493043 
L 194.353927 13.909995 
L 200.06866 14.241003 
L 205.789476 14.429236 
L 211.512655 14.405157 
L 217.226356 14.092012 
L 222.90765 13.416936 
L 228.523307 12.326432 
L 234.036355 10.8 
L 234.036355 10.8 
" clip-path="url(#pc1d135e9a2)" style="fill: none; stroke: #000000"/>
    <path d="M 198.504462 10.8 
L 198.504462 10.8 
L 204.224209 11.024928 
L 209.947636 11.079926 
L 215.667679 10.897747 
L 217.433165 10.8 
" clip-path="url(#pc1d135e9a2)" style="fill: none; stroke: #000000"/>
    <path d="M 139.284639 10.8 
L 139.284639 10.8 
L 144.967923 11.483949 
L 150.662201 12.070932 
L 156.362522 12.596961 
" clip-path="url(#pc1d135e9a2)" style="fill: none; stroke: #000000"/>
    <path d="M 97.830764 10.8 
L 97.830764 10.8 
L 102.626589 13.924536 
L 107.531667 16.874099 
L 112.555147 19.61651 
L 117.701889 22.11923 
L 122.970204 24.354095 
L 128.35051 26.303791 
L 133.82592 27.968381 
L 139.375123 29.369039 
L 144.976389 30.54672 
L 150.610871 31.556027 
L 156.264043 32.456557 
L 161.925473 33.304433 
L 167.587951 34.14535 
L 173.246968 35.009119 
L 178.901044 35.904688 
L 184.552885 36.814381 
L 190.210609 37.685932 
L 195.886883 38.421445 
L 201.590959 38.866292 
L 207.307122 38.814563 
L 212.968194 38.067286 
L 218.243148 36.623831 
L 223.150777 34.607265 
L 228.139813 31.936736 
L 232.95855 28.853679 
" clip-path="url(#pc1d135e9a2)" style="fill: none; stroke: #000000"/>
    <path d="M 85.9868 10.8 
L 171.680028 96.493228 
L 171.679117 96.492317 
" clip-path="url(#pc1d135e9a2)" style="fill: none; stroke: #000000"/>
    <path d="M 85.9868 16.721982 
L 85.9868 16.721982 
L 89.594952 21.16606 
L 93.117194 25.678414 
L 96.533317 30.271465 
L 99.818392 34.958905 
L 102.942398 39.754885 
L 105.870822 44.67234 
L 108.567134 49.720393 
L 110.998232 54.901048 
L 113.143035 60.206536 
L 115.002341 65.618934 
L 116.605346 71.113247 
L 118.008671 76.662549 
L 119.287373 82.242336 
L 120.521742 87.832253 
L 121.784131 93.415825 
L 123.127249 98.980381 
L 124.572273 104.519342 
L 126.091595 110.03858 
L 127.574756 115.567352 
L 128.75316 121.163907 
L 128.75316 121.163907 
L 129.144776 125.687706 
L 129.144776 125.687706 
L 128.833149 129.503067 
L 127.8134 133.253292 
L 126.25586 136.709954 
L 124.059148 140.361147 
" clip-path="url(#pc1d135e9a2)" style="fill: none; stroke: #000000"/>
    <path d="M 85.9868 28.565947 
L 85.9868 28.565947 
L 88.61549 33.649836 
L 91.002802 38.851144 
L 93.124693 44.166051 
L 94.967704 49.583946 
L 96.533905 55.08842 
L 97.84323 60.65994 
L 98.931915 66.279175 
L 99.847364 71.929609 
L 100.64134 77.598665 
L 101.363398 83.277476 
L 102.055588 88.960054 
L 102.748498 94.642543 
L 103.45811 100.322964 
L 104.182791 106.001491 
L 104.899754 111.680985 
L 105.560542 117.367134 
L 106.085843 123.066829 
L 106.362275 128.782583 
L 106.24902 134.501266 
L 105.606993 140.181573 
L 104.350885 145.756184 
L 102.487752 151.159041 
L 100.1025 156.355377 
L 97.309235 161.347257 
L 94.21297 166.159249 
L 90.895665 170.822954 
L 87.416903 175.368268 
L 85.9868 177.183941 
" clip-path="url(#pc1d135e9a2)" style="fill: none; stroke: #000000"/>
    <path d="M 85.9868 40.409911 
L 85.9868 40.409911 
L 87.714695 45.865773 
L 89.178186 51.398604 
L 90.396771 56.990787 
L 91.402918 62.625432 
L 92.237866 68.288312 
L 92.946376 73.968645 
L 93.571761 79.65888 
L 94.151908 85.353973 
L 94.716388 91.050657 
L 95.284336 96.746994 
L 95.862703 102.442282 
L 96.444501 108.137223 
L 97.006769 113.834099 
L 97.50821 119.536514 
L 97.886948 125.248003 
L 98.059971 130.968581 
L 97.927718 136.688804 
L 97.388699 142.383217 
L 96.365126 148.009101 
L 94.828552 153.516516 
L 92.806645 158.865724 
" clip-path="url(#pc1d135e9a2)" style="fill: none; stroke: #000000"/>
    <path d="M 85.9868 58.175858 
L 85.9868 58.175858 
L 86.83431 63.836778 
L 87.539988 69.517379 
L 88.14432 75.209828 
L 88.68445 80.908825 
" clip-path="url(#pc1d135e9a2)" style="fill: none; stroke: #000000"/>
    <path d="M 85.9868 87.785769 
L 85.9868 87.785769 
L 86.446461 93.491867 
L 86.910301 99.197626 
L 87.37904 104.902986 
L 87.842702 110.608757 
L 88.279505 116.316614 
L 88.654686 122.028741 
L 88.919628 127.746774 
L 89.012175 133.469675 
L 88.859702 139.190455 
L 88.386896 144.892595 
L 87.528946 150.548497 
L 86.246733 156.122836 
L 85.9868 157.087201 
" clip-path="url(#pc1d135e9a2)" style="fill: none; stroke: #000000"/>
    <path d="M 252.969383 182.537484 
L 250.283789 180.273077 
L 245.880319 176.615502 
L 241.4133 173.035869 
L 236.870753 169.552764 
L 232.238894 166.189631 
L 227.50297 162.975121 
L 222.648664 159.942928 
L 217.664588 157.129874 
L 212.545722 154.571017 
L 207.296822 152.291119 
L 201.933888 150.293625 
L 196.481987 148.551841 
L 190.970217 147.007568 
L 185.426786 145.579291 
L 179.87681 144.176264 
L 174.342479 142.713565 
L 168.843042 141.12576 
L 163.391337 139.381331 
L 157.982901 137.50591 
L 152.571447 135.639677 
L 147.039712 134.218756 
L 147.039712 134.218756 
L 143.738472 133.943011 
L 143.738472 133.943011 
L 140.704556 134.326811 
L 137.787636 135.343096 
" clip-path="url(#pc1d135e9a2)" style="fill: none; stroke: #000000"/>
    <path d="M 90.741701 10.8 
L 93.427294 13.064408 
L 97.830764 16.721982 
L 102.297784 20.301615 
L 106.84033 23.784721 
L 111.472189 27.147854 
L 116.208113 30.362363 
L 121.062419 33.394556 
L 126.046496 36.20761 
L 131.165361 38.766468 
L 136.414262 41.046366 
L 141.777196 43.04386 
L 147.229096 44.785643 
L 152.740866 46.329916 
L 158.284297 47.758193 
L 163.834274 49.16122 
L 169.368604 50.623919 
L 174.868041 52.211724 
L 180.319746 53.956154 
L 185.728182 55.831574 
L 191.139637 57.697807 
L 196.671372 59.118729 
L 196.671372 59.118729 
L 199.972612 59.394473 
L 199.972612 59.394473 
L 203.006528 59.010674 
L 205.923448 57.994389 
L 208.766766 56.458228 
L 211.990703 54.22242 
L 215.980777 50.9872 
" clip-path="url(#pc1d135e9a2)" style="fill: none; stroke: #000000"/>
    <path d="M 91.908782 99.629733 
L 92.438117 105.32979 
L 92.961125 111.030426 
L 93.450302 116.734011 
L 93.86181 122.443549 
L 94.134259 128.160982 
" clip-path="url(#pc1d135e9a2)" style="fill: none; stroke: #000000"/>
    <path d="M 245.880319 152.927573 
L 243.424304 147.758489 
L 241.24412 142.467386 
L 239.352973 137.066224 
L 237.74407 131.574097 
L 236.388026 126.013655 
L 235.235989 120.406871 
L 234.227524 114.77209 
L 233.300257 109.123162 
L 232.398643 103.470027 
L 231.481088 97.819481 
L 230.525924 92.175187 
L 229.537747 86.536551 
L 228.555945 80.896819 
L 227.667466 75.242109 
L 227.023628 69.556351 
L 226.847935 63.842241 
L 227.388605 58.159376 
L 228.655824 52.991721 
" clip-path="url(#pc1d135e9a2)" style="fill: none; stroke: #000000"/>
    <path d="M 97.830764 40.409911 
L 100.28678 45.578995 
L 102.466963 50.870098 
L 104.35811 56.271261 
L 105.967014 61.763387 
L 107.323058 67.323829 
L 108.475095 72.930613 
L 109.483559 78.565395 
L 110.410827 84.214323 
L 111.31244 89.867458 
L 112.229995 95.518004 
L 113.185159 101.162297 
L 114.173336 106.800934 
L 115.155138 112.440665 
L 116.043618 118.095375 
L 116.687456 123.781134 
L 116.863149 129.495244 
L 116.322479 135.178109 
L 115.05526 140.345764 
L 113.221769 145.039034 
L 110.757775 149.763071 
L 107.693834 154.592789 
L 104.341922 159.230572 
" clip-path="url(#pc1d135e9a2)" style="fill: none; stroke: #000000"/>
    <path d="M 239.958337 158.849556 
L 236.443825 154.331274 
L 233.05076 149.721317 
L 229.809226 145.003884 
L 226.753794 140.164222 
L 223.920082 135.191868 
L 221.337081 130.085019 
L 219.014934 124.854278 
L 216.931374 119.52348 
L 209.246277 97.958879 
L 206.863058 92.757946 
L 204.026053 87.793988 
L 200.564924 83.253985 
L 200.564924 83.253985 
L 197.878974 80.814451 
L 197.878974 80.814451 
L 195.697567 79.607834 
L 195.697567 79.607834 
L 193.76356 79.232667 
L 191.766605 79.582751 
L 190.009718 80.398496 
L 187.987845 81.7571 
L 185.341984 83.92302 
L 181.533096 87.394869 
L 172.039863 96.495703 
L 172.04553 96.493456 
" clip-path="url(#pc1d135e9a2)" style="fill: none; stroke: #000000"/>
    <path d="M 103.752746 34.487929 
L 107.267258 39.006211 
L 110.660324 43.616167 
L 113.901857 48.3336 
L 116.957289 53.173262 
L 119.791001 58.145616 
L 122.374002 63.252465 
L 124.69615 68.483206 
L 126.77971 73.814004 
L 134.464806 95.378605 
L 136.848026 100.579538 
L 139.68503 105.543496 
L 143.146159 110.0835 
L 143.146159 110.0835 
L 145.832109 112.523033 
L 145.832109 112.523033 
L 148.013516 113.729651 
L 148.013516 113.729651 
L 149.947524 114.104818 
L 151.944478 113.754734 
L 153.701366 112.938989 
L 155.723239 111.580384 
L 158.369099 109.414465 
L 162.177987 105.942615 
L 171.671221 96.841781 
L 171.665553 96.844029 
" clip-path="url(#pc1d135e9a2)" style="fill: none; stroke: #000000"/>
    <path d="M 210.348426 158.849556 
L 204.911447 157.063504 
L 199.394979 155.538751 
L 193.824109 154.224099 
L 188.221085 153.051836 
L 182.603685 151.949393 
L 176.9855 150.85091 
L 171.376443 149.707116 
L 165.781898 148.494446 
L 160.199597 147.226214 
L 154.614475 145.970758 
L 148.99561 144.884401 
L 143.314295 144.260273 
L 143.314295 144.260273 
L 138.661383 144.369529 
L 133.998973 145.266923 
L 129.957866 146.736546 
L 125.948039 148.79588 
L 121.597054 151.593111 
" clip-path="url(#pc1d135e9a2)" style="fill: none; stroke: #000000"/>
    <path d="M 228.114373 158.849556 
L 223.56845 155.371002 
L 218.922802 152.027158 
L 214.161869 148.850109 
L 209.273353 145.873684 
L 204.252613 143.12659 
L 199.107484 140.620021 
L 193.86095 138.332111 
L 188.550243 136.195664 
L 183.224608 134.096123 
L 177.947706 131.879456 
L 172.811151 129.361478 
L 167.971844 126.324624 
L 167.971844 126.324624 
L 164.615345 123.427959 
L 164.615345 123.427959 
L 162.45577 120.690354 
L 162.45577 120.690354 
L 161.26531 118.110702 
L 160.868138 115.256854 
L 161.231187 112.749281 
L 162.133141 110.289727 
" clip-path="url(#pc1d135e9a2)" style="fill: none; stroke: #000000"/>
    <path d="M 234.892127 93.446016 
L 234.036355 87.785769 
L 233.181392 82.125401 
L 232.387566 76.456351 
L 231.759026 70.767532 
L 231.450603 65.054932 
L 231.654351 59.342358 
L 232.538106 53.699946 
L 234.106031 48.35278 
L 236.254406 43.30475 
" clip-path="url(#pc1d135e9a2)" style="fill: none; stroke: #000000"/>
    <path d="M 133.362657 34.487929 
L 138.799637 36.273981 
L 144.316105 37.798734 
L 149.886974 39.113385 
L 155.489998 40.285648 
L 161.107398 41.388092 
L 166.725584 42.486574 
L 172.33464 43.630368 
L 177.929186 44.843039 
L 183.511486 46.11127 
L 189.096609 47.366726 
L 194.715473 48.453083 
L 200.396788 49.077212 
L 200.396788 49.077212 
L 205.049701 48.967955 
L 209.71211 48.070562 
L 213.753218 46.600938 
L 217.763044 44.541605 
L 222.114029 41.744373 
" clip-path="url(#pc1d135e9a2)" style="fill: none; stroke: #000000"/>
    <path d="M 115.596711 34.487929 
L 120.142633 37.966482 
L 124.788281 41.310326 
L 129.549215 44.487375 
L 134.43773 47.4638 
L 139.45847 50.210894 
L 144.6036 52.717464 
L 149.850133 55.005374 
L 155.16084 57.14182 
L 160.486476 59.241361 
L 165.763377 61.458029 
L 170.899932 63.976007 
L 175.739239 67.01286 
L 175.739239 67.01286 
L 179.095739 69.909525 
L 179.095739 69.909525 
L 181.255313 72.647131 
L 181.255313 72.647131 
L 182.445773 75.226782 
L 182.842946 78.080631 
L 182.479896 80.588203 
L 181.577942 83.047757 
" clip-path="url(#pc1d135e9a2)" style="fill: none; stroke: #000000"/>
    <path d="M 108.818956 99.891468 
L 109.674728 105.551716 
L 110.529691 111.212084 
L 111.323518 116.881133 
L 111.952058 122.569952 
L 112.26048 128.282553 
L 112.056733 133.995127 
L 111.172978 139.637538 
" clip-path="url(#pc1d135e9a2)" style="fill: none; stroke: #000000"/>
    <path d="M 222.192391 141.083609 
L 218.78421 136.484851 
L 215.528446 131.777189 
L 212.447416 126.953513 
L 209.547045 122.018988 
L 206.798096 116.998053 
L 204.114495 111.941468 
L 201.336234 106.937453 
L 198.219721 102.143604 
L 198.219721 102.143604 
L 195.157498 98.543581 
L 195.157498 98.543581 
L 192.249508 96.133766 
L 192.249508 96.133766 
L 189.347653 94.601165 
L 186.141326 93.778228 
L 183.066777 93.686874 
L 179.922788 94.147424 
" clip-path="url(#pc1d135e9a2)" style="fill: none; stroke: #000000"/>
    <path d="M 223.442383 87.450226 
L 222.192391 81.863787 
L 221.028987 76.259273 
L 220.171348 70.60372 
L 219.980275 64.899243 
L 219.980275 64.899243 
L 220.517397 60.518225 
L 221.752508 56.232113 
" clip-path="url(#pc1d135e9a2)" style="fill: none; stroke: #000000"/>
    <path d="M 121.518693 52.253876 
L 124.926874 56.852634 
L 128.182638 61.560295 
L 131.263667 66.383972 
L 134.164038 71.318496 
L 136.912987 76.339431 
L 139.596588 81.396017 
L 142.374849 86.400032 
L 145.491362 91.19388 
L 145.491362 91.19388 
L 148.553586 94.793903 
L 148.553586 94.793903 
L 151.461576 97.203718 
L 151.461576 97.203718 
L 154.36343 98.73632 
L 157.569758 99.559256 
L 160.644306 99.65061 
L 163.788295 99.19006 
" clip-path="url(#pc1d135e9a2)" style="fill: none; stroke: #000000"/>
    <path d="M 120.2687 105.887258 
L 121.518693 111.473698 
L 122.682096 117.078212 
L 123.539735 122.733764 
L 123.730809 128.438242 
L 123.730809 128.438242 
L 123.193686 132.819259 
L 121.958576 137.105371 
" clip-path="url(#pc1d135e9a2)" style="fill: none; stroke: #000000"/>
    <path d="M 155.435808 141.127399 
L 150.037123 139.765599 
L 145.778389 139.030046 
L 141.815447 138.869068 
L 137.459784 139.540878 
L 133.362657 141.083609 
L 133.362657 141.083609 
L 133.362657 141.083609 
" clip-path="url(#pc1d135e9a2)" style="fill: none; stroke: #000000"/>
    <path d="M 186.660497 141.083609 
L 181.190281 139.396203 
L 175.747666 137.623262 
L 170.373405 135.655531 
L 165.114137 133.401229 
L 160.020876 130.795455 
L 155.138296 127.813648 
L 150.440285 124.543991 
L 150.440285 124.543991 
L 149.208558 123.669722 
L 149.208558 123.669722 
" clip-path="url(#pc1d135e9a2)" style="fill: none; stroke: #000000"/>
    <path d="M 210.348426 141.083609 
L 205.731882 137.699534 
L 201.012907 134.459948 
L 196.197942 131.36459 
L 191.315585 128.375984 
L 186.4293 125.393772 
L 181.660881 122.231046 
L 177.24881 118.604885 
L 177.24881 118.604885 
L 174.538604 115.543877 
L 174.538604 115.543877 
L 172.708567 112.483538 
L 171.552692 109.066996 
L 171.126939 105.7463 
" clip-path="url(#pc1d135e9a2)" style="fill: none; stroke: #000000"/>
    <path d="M 216.270408 105.551716 
L 214.61602 100.07178 
L 212.795224 94.645527 
L 210.742234 89.303378 
L 208.435202 84.065841 
L 205.943643 78.912222 
L 203.67295 73.666234 
L 203.67295 73.666234 
L 203.110281 71.439892 
L 203.110281 71.439892 
L 203.128588 69.294242 
L 203.809947 67.175215 
L 204.912342 65.242181 
L 206.656306 62.911976 
" clip-path="url(#pc1d135e9a2)" style="fill: none; stroke: #000000"/>
    <path d="M 184.936822 49.445193 
L 190.487288 50.845074 
L 195.658423 51.915293 
L 199.989683 52.406618 
L 204.426444 52.253876 
L 204.426444 52.253876 
L 204.426444 52.253876 
" clip-path="url(#pc1d135e9a2)" style="fill: none; stroke: #000000"/>
    <path d="M 157.050586 52.253876 
L 162.520802 53.941281 
L 167.963418 55.714222 
L 173.337679 57.681954 
L 178.596946 59.936256 
L 183.690207 62.542029 
L 188.572788 65.523836 
L 193.270799 68.793494 
L 193.270799 68.793494 
L 194.502526 69.667762 
L 194.502526 69.667762 
L 195.791675 70.407444 
L 195.791675 70.407444 
L 196.849686 70.5643 
L 197.898515 70.07239 
L 198.809966 69.409363 
L 200.273203 68.097744 
" clip-path="url(#pc1d135e9a2)" style="fill: none; stroke: #000000"/>
    <path d="M 133.362657 52.253876 
L 137.979202 55.63795 
L 142.698176 58.877537 
L 147.513141 61.972894 
L 152.395498 64.961501 
L 157.281784 67.943713 
L 162.050202 71.106439 
L 166.462273 74.7326 
L 166.462273 74.7326 
L 169.172479 77.793608 
L 169.172479 77.793608 
L 171.002516 80.853946 
L 172.158392 84.270489 
L 172.584144 87.591185 
" clip-path="url(#pc1d135e9a2)" style="fill: none; stroke: #000000"/>
    <path d="M 127.440675 87.785769 
L 129.095064 93.265704 
L 130.915859 98.691957 
L 132.96885 104.034106 
L 135.275881 109.271643 
L 137.76744 114.425263 
L 140.038133 119.671251 
L 140.038133 119.671251 
L 140.600803 121.897592 
L 140.600803 121.897592 
L 140.582496 124.043243 
L 139.901136 126.162269 
" clip-path="url(#pc1d135e9a2)" style="fill: none; stroke: #000000"/>
    <path d="M 204.426444 123.317662 
L 200.991898 118.737963 
L 197.571823 114.147371 
L 194.039726 109.643984 
L 190.185651 105.421491 
L 190.185651 105.421491 
L 186.575941 102.357054 
L 182.396333 99.900477 
L 178.518606 98.412366 
" clip-path="url(#pc1d135e9a2)" style="fill: none; stroke: #000000"/>
    <path d="M 206.917466 104.779605 
L 204.426444 99.629733 
L 201.457421 94.746929 
L 201.457421 94.746929 
L 198.546214 91.225764 
L 198.546214 91.225764 
L 195.771721 88.912819 
L 195.771721 88.912819 
L 193.121344 87.572008 
L 190.164942 87.015871 
L 187.533829 87.259092 
L 184.97471 88.060413 
" clip-path="url(#pc1d135e9a2)" style="fill: none; stroke: #000000"/>
    <path d="M 139.284639 70.019822 
L 142.719185 74.599521 
L 146.13926 79.190113 
L 149.671357 83.693501 
L 153.525432 87.915993 
L 153.525432 87.915993 
L 157.135142 90.980431 
L 161.31475 93.437007 
L 165.192478 94.925118 
" clip-path="url(#pc1d135e9a2)" style="fill: none; stroke: #000000"/>
    <path d="M 136.793617 88.557879 
L 139.284639 93.707751 
L 142.253662 98.590556 
L 142.253662 98.590556 
L 145.16487 102.11172 
L 145.16487 102.11172 
L 147.939363 104.424666 
L 147.939363 104.424666 
L 150.589739 105.765476 
L 153.546141 106.321613 
L 156.177254 106.078393 
L 158.736373 105.277071 
" clip-path="url(#pc1d135e9a2)" style="fill: none; stroke: #000000"/>
    <path d="M 192.582479 123.317662 
L 188.120977 119.731085 
L 183.796261 115.983755 
L 179.821276 111.877817 
L 179.821276 111.877817 
L 176.981156 108.063475 
L 174.685787 103.767343 
" clip-path="url(#pc1d135e9a2)" style="fill: none; stroke: #000000"/>
    <path d="M 151.128604 70.019822 
L 155.590107 73.6064 
L 159.914822 77.35373 
L 163.889808 81.459667 
L 163.889808 81.459667 
L 166.729928 85.27401 
L 169.025297 89.570141 
" clip-path="url(#pc1d135e9a2)" style="fill: none; stroke: #000000"/>
   </g>
   <g id="patch_2">
    <path d="M 116.956612 151.567672 
Q 116.651243 151.87304 117.136444 151.38784 
" clip-path="url(#pc1d135e9a2)" style="fill: none; stroke: #000000; stroke-linecap: round"/>
    <path d="M 121.379085 149.973626 
L 117.136444 151.38784 
L 118.550658 147.145199 
z
" clip-path="url(#pc1d135e9a2)" style="stroke: #000000; stroke-linecap: round"/>
   </g>
   <g id="patch_3">
    <path d="M 164.951847 165.747723 
Q 164.523255 165.6947 165.204238 165.778948 
" clip-path="url(#pc1d135e9a2)" style="fill: none; stroke: #000000; stroke-linecap: round"/>
    <path d="M 168.928414 168.254935 
L 165.204238 165.778948 
L 169.419534 164.285199 
z
" clip-path="url(#pc1d135e9a2)" style="stroke: #000000; stroke-linecap: round"/>
   </g>
   <g id="patch_4">
    <path d="M 162.317526 173.259461 
Q 161.88777 173.216894 162.570603 173.284528 
" clip-path="url(#pc1d135e9a2)" style="fill: none; stroke: #000000; stroke-linecap: round"/>
    <path d="M 166.353992 175.669054 
L 162.570603 173.284528 
L 166.748258 171.688532 
z
" clip-path="url(#pc1d135e9a2)" style="stroke: #000000; stroke-linecap: round"/>
   </g>
   <g id="patch_5">
    <path d="M 147.362023 179.311928 
Q 146.930906 179.286957 147.615953 179.326636 
" clip-path="url(#pc1d135e9a2)" style="fill: none; stroke: #000000; stroke-linecap: round"/>
    <path d="M 151.49361 181.55459 
L 147.615953 179.326636 
L 151.72491 177.561283 
z
" clip-path="url(#pc1d135e9a2)" style="stroke: #000000; stroke-linecap: round"/>
   </g>
   <g id="patch_6">
    <path d="M 137.488706 182.293355 
Q 137.056933 182.289206 137.743144 182.2958 
" clip-path="url(#pc1d135e9a2)" style="fill: none; stroke: #000000; stroke-linecap: round"/>
    <path d="M 141.723741 184.334143 
L 137.743144 182.2958 
L 141.762177 180.334328 
z
" clip-path="url(#pc1d135e9a2)" style="stroke: #000000; stroke-linecap: round"/>
   </g>
   <g id="patch_7">
    <path d="M 197.019551 180.773311 
Q 196.590116 180.72772 197.272467 180.800161 
" clip-path="url(#pc1d135e9a2)" style="fill: none; stroke: #000000; stroke-linecap: round"/>
    <path d="M 201.038973 183.211267 
L 197.272467 180.800161 
L 201.461255 179.233619 
z
" clip-path="url(#pc1d135e9a2)" style="stroke: #000000; stroke-linecap: round"/>
   </g>
   <g id="patch_8">
    <path d="M 179.80872 159.73947 
Q 179.381546 159.676031 180.060277 159.776828 
" clip-path="url(#pc1d135e9a2)" style="fill: none; stroke: #000000; stroke-linecap: round"/>
    <path d="M 183.723093 162.342716 
L 180.060277 159.776828 
L 184.310677 158.386108 
z
" clip-path="url(#pc1d135e9a2)" style="stroke: #000000; stroke-linecap: round"/>
   </g>
   <g id="patch_9">
    <path d="M 215.832246 140.645447 
Q 215.526876 140.340077 216.012076 140.825276 
" clip-path="url(#pc1d135e9a2)" style="fill: none; stroke: #000000; stroke-linecap: round"/>
    <path d="M 217.426289 145.067917 
L 216.012076 140.825276 
L 220.254716 142.23949 
z
" clip-path="url(#pc1d135e9a2)" style="stroke: #000000; stroke-linecap: round"/>
   </g>
   <g id="patch_10">
    <path d="M 220.079346 92.423335 
Q 219.970334 92.005479 220.143553 92.669448 
" clip-path="url(#pc1d135e9a2)" style="fill: none; stroke: #000000; stroke-linecap: round"/>
    <path d="M 219.218063 97.044773 
L 220.143553 92.669448 
L 223.088519 96.035035 
z
" clip-path="url(#pc1d135e9a2)" style="stroke: #000000; stroke-linecap: round"/>
   </g>
   <g id="patch_11">
    <path d="M 239.999972 91.032027 
Q 239.945303 90.603642 240.032166 91.284296 
" clip-path="url(#pc1d135e9a2)" style="fill: none; stroke: #000000; stroke-linecap: round"/>
    <path d="M 238.554621 95.505298 
L 240.032166 91.284296 
L 242.522441 94.998934 
z
" clip-path="url(#pc1d135e9a2)" style="stroke: #000000; stroke-linecap: round"/>
   </g>
   <g id="patch_12">
    <path d="M 248.224827 94.602145 
Q 248.181196 94.172496 248.250521 94.855159 
" clip-path="url(#pc1d135e9a2)" style="fill: none; stroke: #000000; stroke-linecap: round"/>
    <path d="M 246.664884 99.036757 
L 248.250521 94.855159 
L 250.644417 98.632628 
z
" clip-path="url(#pc1d135e9a2)" style="stroke: #000000; stroke-linecap: round"/>
   </g>
   <g id="patch_13">
    <path d="M 256.343271 133.486963 
Q 256.276634 133.060324 256.382531 133.738325 
" clip-path="url(#pc1d135e9a2)" style="fill: none; stroke: #000000; stroke-linecap: round"/>
    <path d="M 255.023766 137.999048 
L 256.382531 133.738325 
L 258.97585 137.381771 
z
" clip-path="url(#pc1d135e9a2)" style="stroke: #000000; stroke-linecap: round"/>
   </g>
   <g id="patch_14">
    <path d="M 254.250331 75.469191 
Q 254.220881 75.038348 254.267675 75.722936 
" clip-path="url(#pc1d135e9a2)" style="fill: none; stroke: #000000; stroke-linecap: round"/>
    <path d="M 252.545107 79.850013 
L 254.267675 75.722936 
L 256.535795 79.577237 
z
" clip-path="url(#pc1d135e9a2)" style="stroke: #000000; stroke-linecap: round"/>
   </g>
   <g id="patch_15">
    <path d="M 257.301751 68.230796 
Q 257.284331 67.799319 257.312012 68.484966 
" clip-path="url(#pc1d135e9a2)" style="fill: none; stroke: #000000; stroke-linecap: round"/>
    <path d="M 255.474997 72.562389 
L 257.312012 68.484966 
L 259.471741 72.401032 
z
" clip-path="url(#pc1d135e9a2)" style="stroke: #000000; stroke-linecap: round"/>
   </g>
   <g id="patch_16">
    <path d="M 178.759236 27.589761 
Q 179.187828 27.642785 178.506845 27.558536 
" clip-path="url(#pc1d135e9a2)" style="fill: none; stroke: #000000; stroke-linecap: round"/>
    <path d="M 174.782669 25.082549 
L 178.506845 27.558536 
L 174.29155 29.052285 
z
" clip-path="url(#pc1d135e9a2)" style="stroke: #000000; stroke-linecap: round"/>
   </g>
   <g id="patch_17">
    <path d="M 181.393557 20.078024 
Q 181.823314 20.120591 181.14048 20.052957 
" clip-path="url(#pc1d135e9a2)" style="fill: none; stroke: #000000; stroke-linecap: round"/>
    <path d="M 177.357091 17.66843 
L 181.14048 20.052957 
L 176.962825 21.648952 
z
" clip-path="url(#pc1d135e9a2)" style="stroke: #000000; stroke-linecap: round"/>
   </g>
   <g id="patch_18">
    <path d="M 196.349061 14.025557 
Q 196.780177 14.050528 196.09513 14.010848 
" clip-path="url(#pc1d135e9a2)" style="fill: none; stroke: #000000; stroke-linecap: round"/>
    <path d="M 192.217473 11.782895 
L 196.09513 14.010848 
L 191.986173 15.776202 
z
" clip-path="url(#pc1d135e9a2)" style="stroke: #000000; stroke-linecap: round"/>
   </g>
   <g id="patch_19">
    <path d="M 206.222378 11.044129 
Q 206.65415 11.048278 205.96794 11.041684 
" clip-path="url(#pc1d135e9a2)" style="fill: none; stroke: #000000; stroke-linecap: round"/>
    <path d="M 201.987342 9.003341 
L 205.96794 11.041684 
L 201.948907 13.003157 
z
" clip-path="url(#pc1d135e9a2)" style="stroke: #000000; stroke-linecap: round"/>
   </g>
   <g id="patch_20">
    <path d="M 146.955916 11.688877 
Q 147.385489 11.733159 146.702921 11.662798 
" clip-path="url(#pc1d135e9a2)" style="fill: none; stroke: #000000; stroke-linecap: round"/>
    <path d="M 142.929085 9.263182 
L 146.702921 11.662798 
L 142.518927 13.242097 
z
" clip-path="url(#pc1d135e9a2)" style="stroke: #000000; stroke-linecap: round"/>
   </g>
   <g id="patch_21">
    <path d="M 163.902363 33.598015 
Q 164.329538 33.661453 163.650807 33.560657 
" clip-path="url(#pc1d135e9a2)" style="fill: none; stroke: #000000; stroke-linecap: round"/>
    <path d="M 159.987991 30.994769 
L 163.650807 33.560657 
L 159.400407 34.951377 
z
" clip-path="url(#pc1d135e9a2)" style="stroke: #000000; stroke-linecap: round"/>
   </g>
   <g id="patch_22">
    <path d="M 127.878837 52.692038 
Q 128.184207 52.997408 127.699008 52.512208 
" clip-path="url(#pc1d135e9a2)" style="fill: none; stroke: #000000; stroke-linecap: round"/>
    <path d="M 126.284794 48.269568 
L 127.699008 52.512208 
L 123.456367 51.097995 
z
" clip-path="url(#pc1d135e9a2)" style="stroke: #000000; stroke-linecap: round"/>
   </g>
   <g id="patch_23">
    <path d="M 117.095277 73.050625 
Q 117.201143 73.469262 117.032905 72.803985 
" clip-path="url(#pc1d135e9a2)" style="fill: none; stroke: #000000; stroke-linecap: round"/>
    <path d="M 117.991206 68.435729 
L 117.032905 72.803985 
L 114.113281 69.416391 
z
" clip-path="url(#pc1d135e9a2)" style="stroke: #000000; stroke-linecap: round"/>
   </g>
   <g id="patch_24">
    <path d="M 103.711111 102.305458 
Q 103.765781 102.733843 103.678917 102.053188 
" clip-path="url(#pc1d135e9a2)" style="fill: none; stroke: #000000; stroke-linecap: round"/>
    <path d="M 105.156462 97.832186 
L 103.678917 102.053188 
L 101.188643 98.338551 
z
" clip-path="url(#pc1d135e9a2)" style="stroke: #000000; stroke-linecap: round"/>
   </g>
   <g id="patch_25">
    <path d="M 95.486256 98.735339 
Q 95.529888 99.164989 95.460562 98.482325 
" clip-path="url(#pc1d135e9a2)" style="fill: none; stroke: #000000; stroke-linecap: round"/>
    <path d="M 97.046199 94.300728 
L 95.460562 98.482325 
L 93.066667 94.704857 
z
" clip-path="url(#pc1d135e9a2)" style="stroke: #000000; stroke-linecap: round"/>
   </g>
   <g id="patch_26">
    <path d="M 87.750973 71.504733 
Q 87.796564 71.934168 87.724123 71.251817 
" clip-path="url(#pc1d135e9a2)" style="fill: none; stroke: #000000; stroke-linecap: round"/>
    <path d="M 89.290665 67.063029 
L 87.724123 71.251817 
L 85.313017 67.485311 
z
" clip-path="url(#pc1d135e9a2)" style="stroke: #000000; stroke-linecap: round"/>
   </g>
   <g id="patch_27">
    <path d="M 88.747183 124.025027 
Q 88.76717 124.456392 88.735409 123.770922 
" clip-path="url(#pc1d135e9a2)" style="fill: none; stroke: #000000; stroke-linecap: round"/>
    <path d="M 90.548127 119.682639 
L 88.735409 123.770922 
L 86.552413 119.867778 
z
" clip-path="url(#pc1d135e9a2)" style="stroke: #000000; stroke-linecap: round"/>
   </g>
   <g id="patch_28">
    <path d="M 200.030514 149.685531 
Q 199.619226 149.554132 200.27294 149.762982 
" clip-path="url(#pc1d135e9a2)" style="fill: none; stroke: #000000; stroke-linecap: round"/>
    <path d="M 203.474553 152.885429 
L 200.27294 149.762982 
L 204.691865 149.07516 
z
" clip-path="url(#pc1d135e9a2)" style="stroke: #000000; stroke-linecap: round"/>
   </g>
   <g id="patch_29">
    <path d="M 149.153371 45.324782 
Q 149.569176 45.441281 148.908404 45.256147 
" clip-path="url(#pc1d135e9a2)" style="fill: none; stroke: #000000; stroke-linecap: round"/>
    <path d="M 145.596302 42.251155 
L 148.908404 45.256147 
L 144.517149 46.102834 
z
" clip-path="url(#pc1d135e9a2)" style="stroke: #000000; stroke-linecap: round"/>
   </g>
   <g id="patch_30">
    <path d="M 93.131907 113.021668 
Q 93.168811 113.451943 93.110175 112.768274 
" clip-path="url(#pc1d135e9a2)" style="fill: none; stroke: #000000; stroke-linecap: round"/>
    <path d="M 94.761048 108.611999 
L 93.110175 112.768274 
L 90.775679 108.953811 
z
" clip-path="url(#pc1d135e9a2)" style="stroke: #000000; stroke-linecap: round"/>
   </g>
   <g id="patch_31">
    <path d="M 232.985484 107.149533 
Q 232.917467 106.723064 233.025539 107.400674 
" clip-path="url(#pc1d135e9a2)" style="fill: none; stroke: #000000; stroke-linecap: round"/>
    <path d="M 231.680494 111.665748 
L 233.025539 107.400674 
L 235.630571 111.035754 
z
" clip-path="url(#pc1d135e9a2)" style="stroke: #000000; stroke-linecap: round"/>
   </g>
   <g id="patch_32">
    <path d="M 112.563463 97.488546 
Q 112.63552 97.914348 112.521029 97.23779 
" clip-path="url(#pc1d135e9a2)" style="fill: none; stroke: #000000; stroke-linecap: round"/>
    <path d="M 113.825575 92.960155 
L 112.521029 97.23779 
L 109.881649 93.627572 
z
" clip-path="url(#pc1d135e9a2)" style="stroke: #000000; stroke-linecap: round"/>
   </g>
   <g id="patch_33">
    <path d="M 212.535331 106.815416 
Q 212.393439 106.407558 212.61891 107.055656 
" clip-path="url(#pc1d135e9a2)" style="fill: none; stroke: #000000; stroke-linecap: round"/>
    <path d="M 212.044279 111.490721 
L 212.61891 107.055656 
L 215.822183 110.1764 
z
" clip-path="url(#pc1d135e9a2)" style="stroke: #000000; stroke-linecap: round"/>
   </g>
   <g id="patch_34">
    <path d="M 131.175752 86.522068 
Q 131.317645 86.929926 131.092173 86.281828 
" clip-path="url(#pc1d135e9a2)" style="fill: none; stroke: #000000; stroke-linecap: round"/>
    <path d="M 131.666805 81.846763 
L 131.092173 86.281828 
L 127.8889 83.161084 
z
" clip-path="url(#pc1d135e9a2)" style="stroke: #000000; stroke-linecap: round"/>
   </g>
   <g id="patch_35">
    <path d="M 163.832999 148.051679 
Q 163.411873 147.956005 164.080999 148.108022 
" clip-path="url(#pc1d135e9a2)" style="fill: none; stroke: #000000; stroke-linecap: round"/>
    <path d="M 167.538517 150.944493 
L 164.080999 148.108022 
L 168.424687 147.043891 
z
" clip-path="url(#pc1d135e9a2)" style="stroke: #000000; stroke-linecap: round"/>
   </g>
   <g id="patch_36">
    <path d="M 192.00687 137.586232 
Q 191.606234 137.42506 192.242844 137.681162 
" clip-path="url(#pc1d135e9a2)" style="fill: none; stroke: #000000; stroke-linecap: round"/>
    <path d="M 195.207369 141.029533 
L 192.242844 137.681162 
L 196.700256 137.318565 
z
" clip-path="url(#pc1d135e9a2)" style="stroke: #000000; stroke-linecap: round"/>
   </g>
   <g id="patch_37">
    <path d="M 231.651349 68.773143 
Q 231.628082 68.342187 231.665089 69.02764 
" clip-path="url(#pc1d135e9a2)" style="fill: none; stroke: #000000; stroke-linecap: round"/>
    <path d="M 229.883643 73.129645 
L 231.665089 69.02764 
L 233.877826 72.914 
z
" clip-path="url(#pc1d135e9a2)" style="stroke: #000000; stroke-linecap: round"/>
   </g>
   <g id="patch_38">
    <path d="M 179.878085 45.285805 
Q 180.29921 45.38148 179.630084 45.229462 
" clip-path="url(#pc1d135e9a2)" style="fill: none; stroke: #000000; stroke-linecap: round"/>
    <path d="M 176.172567 42.392991 
L 179.630084 45.229462 
L 175.286397 46.293594 
z
" clip-path="url(#pc1d135e9a2)" style="stroke: #000000; stroke-linecap: round"/>
   </g>
   <g id="patch_39">
    <path d="M 151.704213 55.751252 
Q 152.10485 55.912425 151.468239 55.656322 
" clip-path="url(#pc1d135e9a2)" style="fill: none; stroke: #000000; stroke-linecap: round"/>
    <path d="M 148.503714 52.307951 
L 151.468239 55.656322 
L 147.010827 56.01892 
z
" clip-path="url(#pc1d135e9a2)" style="stroke: #000000; stroke-linecap: round"/>
   </g>
   <g id="patch_40">
    <path d="M 111.542954 118.86722 
Q 111.590371 119.296381 111.515007 118.614271 
" clip-path="url(#pc1d135e9a2)" style="fill: none; stroke: #000000; stroke-linecap: round"/>
    <path d="M 113.063636 114.418827 
L 111.515007 118.614271 
L 109.087829 114.858102 
z
" clip-path="url(#pc1d135e9a2)" style="stroke: #000000; stroke-linecap: round"/>
   </g>
   <g id="patch_41">
    <path d="M 205.861194 115.232693 
Q 205.658745 114.851226 205.980414 115.457333 
" clip-path="url(#pc1d135e9a2)" style="fill: none; stroke: #000000; stroke-linecap: round"/>
    <path d="M 206.088934 119.928152 
L 205.980414 115.457333 
L 209.622182 118.053008 
z
" clip-path="url(#pc1d135e9a2)" style="stroke: #000000; stroke-linecap: round"/>
   </g>
   <g id="patch_42">
    <path d="M 220.72873 74.279277 
Q 220.664449 73.855387 220.767796 74.536893 
" clip-path="url(#pc1d135e9a2)" style="fill: none; stroke: #000000; stroke-linecap: round"/>
    <path d="M 219.390128 78.791541 
L 220.767796 74.536893 
L 223.344914 78.191816 
z
" clip-path="url(#pc1d135e9a2)" style="stroke: #000000; stroke-linecap: round"/>
   </g>
   <g id="patch_43">
    <path d="M 137.849889 78.104792 
Q 138.052338 78.486258 137.730669 77.880151 
" clip-path="url(#pc1d135e9a2)" style="fill: none; stroke: #000000; stroke-linecap: round"/>
    <path d="M 137.622149 73.409332 
L 137.730669 77.880151 
L 134.088902 75.284476 
z
" clip-path="url(#pc1d135e9a2)" style="stroke: #000000; stroke-linecap: round"/>
   </g>
   <g id="patch_44">
    <path d="M 122.982354 119.058207 
Q 123.046635 119.482098 122.943287 118.800592 
" clip-path="url(#pc1d135e9a2)" style="fill: none; stroke: #000000; stroke-linecap: round"/>
    <path d="M 124.320955 114.545944 
L 122.943287 118.800592 
L 120.36617 115.145669 
z
" clip-path="url(#pc1d135e9a2)" style="stroke: #000000; stroke-linecap: round"/>
   </g>
   <g id="patch_45">
    <path d="M 145.778389 139.030046 
Q 144.787654 138.989801 144.914031 138.994935 
" clip-path="url(#pc1d135e9a2)" style="fill: none; stroke: #000000; stroke-linecap: round"/>
    <path d="M 148.82956 141.155636 
L 144.914031 138.994935 
L 148.991909 137.158932 
z
" clip-path="url(#pc1d135e9a2)" style="stroke: #000000; stroke-linecap: round"/>
   </g>
   <g id="patch_46">
    <path d="M 168.537283 134.868506 
Q 168.140527 134.698443 168.771383 134.968849 
" clip-path="url(#pc1d135e9a2)" style="fill: none; stroke: #000000; stroke-linecap: round"/>
    <path d="M 171.659943 138.38297 
L 168.771383 134.968849 
L 173.235816 134.706473 
z
" clip-path="url(#pc1d135e9a2)" style="stroke: #000000; stroke-linecap: round"/>
   </g>
   <g id="patch_47">
    <path d="M 189.60968 127.33483 
Q 189.241061 127.109854 189.826775 127.467329 
" clip-path="url(#pc1d135e9a2)" style="fill: none; stroke: #000000; stroke-linecap: round"/>
    <path d="M 192.199179 131.258331 
L 189.826775 127.467329 
L 194.28302 127.844007 
z
" clip-path="url(#pc1d135e9a2)" style="stroke: #000000; stroke-linecap: round"/>
   </g>
   <g id="patch_48">
    <path d="M 207.565346 82.266604 
Q 207.377384 81.877818 207.676058 82.495603 
" clip-path="url(#pc1d135e9a2)" style="fill: none; stroke: #000000; stroke-linecap: round"/>
    <path d="M 207.616487 86.967342 
L 207.676058 82.495603 
L 211.217707 85.226303 
z
" clip-path="url(#pc1d135e9a2)" style="stroke: #000000; stroke-linecap: round"/>
   </g>
   <g id="patch_49">
    <path d="M 192.444138 51.250064 
Q 192.758497 51.315124 191.978023 51.153597 
" clip-path="url(#pc1d135e9a2)" style="fill: none; stroke: #000000; stroke-linecap: round"/>
    <path d="M 188.466362 48.384438 
L 191.978023 51.153597 
L 187.655699 52.301431 
z
" clip-path="url(#pc1d135e9a2)" style="stroke: #000000; stroke-linecap: round"/>
   </g>
   <g id="patch_50">
    <path d="M 180.375111 60.845986 
Q 180.759344 61.042565 180.148243 60.729918 
" clip-path="url(#pc1d135e9a2)" style="fill: none; stroke: #000000; stroke-linecap: round"/>
    <path d="M 177.498156 57.127552 
L 180.148243 60.729918 
L 175.676298 60.688567 
z
" clip-path="url(#pc1d135e9a2)" style="stroke: #000000; stroke-linecap: round"/>
   </g>
   <g id="patch_51">
    <path d="M 154.101403 66.002654 
Q 154.470022 66.22763 153.884308 65.870156 
" clip-path="url(#pc1d135e9a2)" style="fill: none; stroke: #000000; stroke-linecap: round"/>
    <path d="M 151.511904 62.079153 
L 153.884308 65.870156 
L 149.428064 65.493478 
z
" clip-path="url(#pc1d135e9a2)" style="stroke: #000000; stroke-linecap: round"/>
   </g>
   <g id="patch_52">
    <path d="M 133.774283 105.862641 
Q 133.948324 106.257758 133.671678 105.629703 
" clip-path="url(#pc1d135e9a2)" style="fill: none; stroke: #000000; stroke-linecap: round"/>
    <path d="M 133.889557 101.162877 
L 133.671678 105.629703 
L 130.228946 102.775304 
z
" clip-path="url(#pc1d135e9a2)" style="stroke: #000000; stroke-linecap: round"/>
   </g>
   <g id="patch_53">
    <path d="M 192.690424 108.165699 
Q 192.401556 107.849218 192.866412 108.35851 
" clip-path="url(#pc1d135e9a2)" style="fill: none; stroke: #000000; stroke-linecap: round"/>
    <path d="M 194.085827 112.661187 
L 192.866412 108.35851 
L 197.040203 109.964584 
z
" clip-path="url(#pc1d135e9a2)" style="stroke: #000000; stroke-linecap: round"/>
   </g>
   <g id="patch_54">
    <path d="M 200.180925 93.202981 
Q 200.091371 93.094664 200.714224 93.848017 
" clip-path="url(#pc1d135e9a2)" style="fill: none; stroke: #000000; stroke-linecap: round"/>
    <path d="M 201.721606 98.205216 
L 200.714224 93.848017 
L 204.804412 95.656432 
z
" clip-path="url(#pc1d135e9a2)" style="stroke: #000000; stroke-linecap: round"/>
   </g>
   <g id="patch_55">
    <path d="M 151.02066 85.171785 
Q 151.309527 85.488266 150.844671 84.978974 
" clip-path="url(#pc1d135e9a2)" style="fill: none; stroke: #000000; stroke-linecap: round"/>
    <path d="M 149.625256 80.676297 
L 150.844671 84.978974 
L 146.670881 83.3729 
z
" clip-path="url(#pc1d135e9a2)" style="stroke: #000000; stroke-linecap: round"/>
   </g>
   <g id="patch_56">
    <path d="M 143.530158 100.134504 
Q 143.619712 100.242821 142.996859 99.489467 
" clip-path="url(#pc1d135e9a2)" style="fill: none; stroke: #000000; stroke-linecap: round"/>
    <path d="M 141.989478 95.132268 
L 142.996859 99.489467 
L 138.906671 97.681053 
z
" clip-path="url(#pc1d135e9a2)" style="stroke: #000000; stroke-linecap: round"/>
   </g>
   <g id="patch_57">
    <path d="M 182.404628 114.546276 
Q 182.106698 114.238531 182.586425 114.734061 
" clip-path="url(#pc1d135e9a2)" style="fill: none; stroke: #000000; stroke-linecap: round"/>
    <path d="M 183.931709 118.999059 
L 182.586425 114.734061 
L 186.805594 116.216832 
z
" clip-path="url(#pc1d135e9a2)" style="stroke: #000000; stroke-linecap: round"/>
   </g>
   <g id="patch_58">
    <path d="M 161.306455 78.791209 
Q 161.604385 79.098954 161.124659 78.603423 
" clip-path="url(#pc1d135e9a2)" style="fill: none; stroke: #000000; stroke-linecap: round"/>
    <path d="M 159.779374 74.338425 
L 161.124659 78.603423 
L 156.905489 77.120652 
z
" clip-path="url(#pc1d135e9a2)" style="stroke: #000000; stroke-linecap: round"/>
   </g>
   <g id="line2d_1">
    <defs>
     <path id="mf721101566" d="M 0 2.5 
C 0.663008 2.5 1.29895 2.236584 1.767767 1.767767 
C 2.236584 1.29895 2.5 0.663008 2.5 0 
C 2.5 -0.663008 2.236584 -1.29895 1.767767 -1.767767 
C 1.29895 -2.236584 0.663008 -2.5 0 -2.5 
C -0.663008 -2.5 -1.29895 -2.236584 -1.767767 -1.767767 
C -2.236584 -1.29895 -2.5 -0.663008 -2.5 0 
C -2.5 0.663008 -2.236584 1.29895 -1.767767 1.767767 
C -1.29895 2.236584 -0.663008 2.5 0 2.5 
z
" style="stroke: #000000"/>
    </defs>
    <g clip-path="url(#pc1d135e9a2)">
     <use xlink:href="#mf721101566" x="171.855542" y="96.668742" style="stroke: #000000"/>
    </g>
   </g>
  </g>
 </g>
 <defs>
  <clipPath id="pc1d135e9a2">
   <rect x="85.9868" y="10.8" width="171.737484" height="171.737484"/>
  </clipPath>
 </defs>
</svg>
