<?xml version="1.0" encoding="utf-8" standalone="no"?>
<!DOCTYPE svg PUBLIC "-//W3C//DTD SVG 1.1//EN"
  "http://www.w3.org/Graphics/SVG/1.1/DTD/svg11.dtd">
<svg xmlns:xlink="http://www.w3.org/1999/xlink" width="343.711083pt" height="193.337484pt" viewBox="0 0 343.711083 193.337484" xmlns="http://www.w3.org/2000/svg" version="1.1">
 <metadata>
  <rdf:RDF xmlns:dc="http://purl.org/dc/elements/1.1/" xmlns:cc="http://creativecommons.org/ns#" xmlns:rdf="http://www.w3.org/1999/02/22-rdf-syntax-ns#">
   <cc:Work>
    <dc:type rdf:resource="http://purl.org/dc/dcmitype/StillImage"/>
    <dc:date>2026-02-12T22:41:48.664584</dc:date>
    <dc:format>image/svg+xml</dc:format>
    <dc:creator>
     <cc:Agent>
      <dc:title>Matplotlib v3.10.0, https://matplotlib.org/</dc:title>
     </cc:Agent>
    </dc:creator>
   </cc:Work>
  </rdf:RDF>
 </metadata>
 <defs>
  <style type="text/css">*{stroke-linejoin: round; stroke-linecap: butt}</style>
 </defs>
 <g id="figure_1">
  <g id="patch_1">
   <path d="M 0 193.337484 
L 343.711083 193.337484 
L 343.711083 0 
L 0 0 
z
" style="fill: #ffffff"/>
  </g>
  <g id="axes_1">
   <g id="LineCollection_1">
    <path d="M 85.9868 164.559244 
L 89.41657 166.637049 
L 93.627041 169.588367 
L 97.455373 173.180051 
L 100.915731 177.580439 
L 103.752746 182.537484 
L 103.752746 182.537484 
" clip-path="url(#pb803f37af6)" style="fill: none; stroke: #000000"/>
    <path d="M 97.334593 164.828257 
L 101.121532 168.194719 
L 104.552016 172.356747 
L 107.461577 177.269128 
L 109.674728 182.537484 
L 109.674728 182.537484 
" clip-path="url(#pb803f37af6)" style="fill: none; stroke: #000000"/>
    <path d="M 85.9868 152.893086 
L 87.997578 153.430711 
L 93.162144 155.099614 
L 97.736324 157.184037 
L 101.833965 159.747407 
L 105.542905 162.910987 
L 108.907708 166.868157 
L 111.845622 171.760761 
L 114.037165 177.036716 
L 115.596711 182.537484 
L 115.596711 182.537484 
" clip-path="url(#pb803f37af6)" style="fill: none; stroke: #000000"/>
    <path d="M 85.9868 146.968217 
L 88.421101 147.343545 
L 94.029952 148.456568 
L 99.058401 149.984044 
L 103.488997 151.920921 
L 107.442789 154.330462 
L 111.014273 157.339839 
L 114.254299 161.163197 
L 117.103494 166.034071 
L 119.187497 171.352246 
L 120.610739 176.889566 
L 121.518693 182.537484 
L 121.518693 182.537484 
" clip-path="url(#pb803f37af6)" style="fill: none; stroke: #000000"/>
    <path d="M 85.9868 140.97877 
L 90.609799 141.292625 
L 96.300715 141.874064 
L 101.80725 142.901596 
L 106.5734 144.315042 
L 110.751747 146.135801 
L 114.469465 148.435009 
L 117.825676 151.361046 
L 120.866549 155.170013 
L 123.500163 160.130729 
L 125.330328 165.541271 
L 126.492281 171.139665 
L 127.153452 176.8222 
L 127.440675 182.537484 
L 127.440675 182.537484 
" clip-path="url(#pb803f37af6)" style="fill: none; stroke: #000000"/>
    <path d="M 85.9868 135.117813 
L 89.814969 134.951183 
L 95.536578 134.820506 
L 101.256251 134.978641 
L 106.948664 135.532114 
L 111.970368 136.489443 
L 116.287088 137.828409 
L 120.056659 139.581415 
L 123.411247 141.846948 
L 126.449499 144.834474 
L 129.177056 148.88738 
L 131.366493 154.152457 
L 132.700748 159.708129 
L 133.415887 165.382511 
L 133.690171 171.097799 
L 133.64512 176.820726 
L 133.362657 182.537484 
L 133.362657 182.537484 
" clip-path="url(#pb803f37af6)" style="fill: none; stroke: #000000"/>
    <path d="M 85.9868 129.222791 
L 89.248577 128.771897 
L 94.926859 128.048328 
L 100.621428 127.46949 
L 106.331792 127.084255 
L 112.052692 126.966977 
L 117.765531 127.235504 
L 122.539426 127.900402 
L 126.564373 128.93756 
L 130.023131 130.368713 
L 133.072876 132.293441 
L 135.833836 134.954209 
L 138.246832 138.672082 
L 139.841683 142.75707 
L 139.841683 142.75707 
L 141.018089 148.34493 
L 141.501942 154.043139 
L 141.529955 159.765004 
L 141.246974 165.481269 
L 140.742895 171.182907 
L 140.075763 176.868076 
L 139.284639 182.537484 
L 139.284639 182.537484 
" clip-path="url(#pb803f37af6)" style="fill: none; stroke: #000000"/>
    <path d="M 85.9868 123.314885 
L 88.177404 122.828366 
L 93.769812 121.605507 
L 99.371379 120.425427 
L 104.984164 119.300104 
L 110.610803 118.246629 
L 116.254615 117.290366 
L 121.919547 116.47084 
L 127.609171 115.853656 
L 133.320914 115.556868 
L 137.823179 115.694203 
L 141.434556 116.200587 
L 144.402387 117.060568 
L 146.94436 118.34887 
L 149.215423 120.311544 
L 150.880725 122.794421 
L 150.880725 122.794421 
L 152.092742 126.079478 
L 152.092742 126.079478 
L 152.902767 131.724598 
L 152.901346 137.443228 
L 152.458931 143.148627 
L 151.751853 148.828517 
L 150.872611 154.484773 
L 149.874443 160.12145 
L 148.790309 165.742319 
L 147.64181 171.350438 
L 146.443743 176.948204 
L 145.206622 182.537484 
L 145.206622 182.537484 
" clip-path="url(#pb803f37af6)" style="fill: none; stroke: #000000"/>
    <path d="M 257.724284 75.942736 
L 253.823294 77.100072 
L 248.338165 78.738382 
L 242.860001 80.399813 
L 237.390569 82.089734 
L 231.932279 83.815251 
L 226.4885 85.585931 
L 221.064076 87.414885 
L 215.666182 89.320433 
L 210.30582 91.328612 
L 205.000461 93.476914 
L 199.778775 95.819353 
L 194.68852 98.431661 
L 189.807294 101.410891 
L 185.247526 104.855978 
L 181.132459 108.818936 
L 177.533433 113.258378 
L 174.42561 118.058922 
L 171.717254 123.098833 
L 169.306171 128.289239 
L 167.109096 133.57461 
L 165.065848 138.921718 
L 163.134615 144.310483 
L 161.286466 149.728403 
L 159.50116 155.167403 
L 157.764293 160.622092 
L 156.065418 166.088749 
L 154.396818 171.564735 
L 152.752692 177.048123 
L 151.128604 182.537484 
L 151.128604 182.537484 
" clip-path="url(#pb803f37af6)" style="fill: none; stroke: #000000"/>
    <path d="M 257.724284 81.865795 
L 256.772986 82.208644 
L 251.397432 84.176719 
L 246.044465 86.205334 
L 240.719141 88.305313 
L 235.427995 90.489794 
L 230.179535 92.774682 
L 224.984904 95.179082 
L 219.858686 97.7256 
L 214.819836 100.440266 
L 209.892535 103.351706 
L 205.106526 106.489093 
L 200.496221 109.878497 
L 196.097742 113.537891 
L 191.943666 117.472203 
L 188.056707 121.670731 
L 184.444963 126.108694 
L 181.101045 130.75243 
L 178.005205 135.56573 
L 175.130466 140.514786 
L 172.447476 145.570764 
L 169.92791 150.710415 
L 167.546266 155.915611 
L 165.28054 161.172432 
L 163.112201 166.470258 
L 161.025858 171.800966 
L 159.008807 177.15832 
L 157.050586 182.537484 
L 157.050586 182.537484 
" clip-path="url(#pb803f37af6)" style="fill: none; stroke: #000000"/>
    <path d="M 257.724284 87.785397 
L 256.481644 88.309879 
L 251.224437 90.574967 
L 246.004956 92.925547 
L 240.830579 95.373644 
L 235.710339 97.932822 
L 230.655239 100.618106 
L 225.678526 103.445703 
L 220.795878 106.432426 
L 216.02533 109.594721 
L 211.386806 112.947289 
L 206.901091 116.501375 
L 202.588184 120.263047 
L 198.465219 124.231883 
L 194.54439 128.400569 
L 190.831452 132.755609 
L 187.325263 137.279008 
L 184.018417 141.950397 
L 180.8987 146.749051 
L 177.950853 151.6554 
L 175.158219 156.651924 
L 172.504044 161.723513 
L 169.972346 166.857461 
L 167.548418 172.043253 
L 165.219049 177.272272 
L 162.972568 182.537484 
L 162.972568 182.537484 
" clip-path="url(#pb803f37af6)" style="fill: none; stroke: #000000"/>
    <path d="M 257.724284 93.69575 
L 255.171814 94.931651 
L 250.042944 97.473799 
L 244.965935 100.117852 
L 239.949438 102.874813 
L 235.003476 105.7562 
L 230.139479 108.773677 
L 225.370212 111.938523 
L 220.709497 115.260929 
L 216.171728 118.749172 
L 211.77112 122.408763 
L 207.520753 126.24171 
L 203.431525 130.24608 
L 199.511202 134.41598 
L 195.763763 138.742003 
L 192.189178 143.212048 
L 188.783641 147.812342 
L 185.540178 152.528469 
L 182.449458 157.346231 
L 179.500651 162.252275 
L 176.682207 167.23447 
L 173.982471 172.282074 
L 171.39014 177.385749 
L 168.894551 182.537484 
L 168.894551 182.537484 
" clip-path="url(#pb803f37af6)" style="fill: none; stroke: #000000"/>
    <path d="M 257.724284 105.547687 
L 256.371055 106.334092 
L 251.452289 109.26202 
L 246.599596 112.298097 
L 241.820818 115.449125 
L 237.124298 118.721387 
L 232.518719 122.120345 
L 228.012847 125.650321 
L 223.615221 129.314189 
L 219.333782 133.113123 
L 215.175482 137.046431 
L 211.145913 141.111515 
L 207.249012 145.303967 
L 203.486864 149.617794 
L 199.859647 154.045735 
L 196.365705 158.57965 
L 193.001745 163.2109 
L 189.763102 167.930712 
L 186.64406 172.730472 
L 183.638162 177.601957 
L 180.738515 182.537484 
L 180.738515 182.537484 
" clip-path="url(#pb803f37af6)" style="fill: none; stroke: #000000"/>
    <path d="M 257.724284 117.393111 
L 256.722851 118.061966 
L 251.99715 121.292238 
L 247.344646 124.627009 
L 242.771513 128.06976 
L 238.283906 131.62322 
L 233.887793 135.289219 
L 229.588767 139.068567 
L 225.39185 142.960972 
L 221.30131 146.965011 
L 217.320492 151.078157 
L 213.451699 155.296859 
L 209.696119 159.616679 
L 206.053809 164.032459 
L 202.523739 168.538511 
L 199.10388 173.128812 
L 195.791334 177.79719 
L 192.582479 182.537484 
L 192.582479 182.537484 
" clip-path="url(#pb803f37af6)" style="fill: none; stroke: #000000"/>
    <path d="M 257.724284 129.236535 
L 256.722788 129.983761 
L 252.170984 133.454816 
L 247.694792 137.022814 
L 243.298728 140.689051 
L 238.987048 144.454144 
L 234.763643 148.317979 
L 230.63192 152.279691 
L 226.594708 156.337671 
L 222.654176 160.489603 
L 218.811773 164.732524 
L 215.0682 169.062912 
L 211.423412 173.476789 
L 207.876639 177.969832 
L 204.426444 182.537484 
L 204.426444 182.537484 
" clip-path="url(#pb803f37af6)" style="fill: none; stroke: #000000"/>
    <path d="M 257.724284 141.078888 
L 256.566389 142.024615 
L 252.169312 145.689754 
L 247.847366 149.443176 
L 243.603693 153.284861 
L 239.441109 157.214253 
L 235.362033 161.230265 
L 231.368435 165.331289 
L 227.46179 169.515233 
L 223.643049 173.77957 
L 219.912627 178.121393 
L 216.270408 182.537484 
L 216.270408 182.537484 
" clip-path="url(#pb803f37af6)" style="fill: none; stroke: #000000"/>
    <path d="M 237.590384 165.598492 
L 233.615839 169.718028 
L 229.724218 173.915992 
L 225.916296 178.190033 
L 222.192391 182.537484 
L 222.192391 182.537484 
" clip-path="url(#pb803f37af6)" style="fill: none; stroke: #000000"/>
    <path d="M 257.724284 152.920384 
L 256.341626 154.138077 
L 252.081413 157.961496 
L 247.89419 161.864706 
L 243.782054 165.846941 
L 239.74678 169.90704 
L 235.789784 174.043471 
L 231.912102 178.25435 
L 228.114373 182.537484 
L 228.114373 182.537484 
" clip-path="url(#pb803f37af6)" style="fill: none; stroke: #000000"/>
    <path d="M 257.724284 158.798015 
L 254.110039 162.14865 
L 249.947686 166.078401 
L 245.85777 170.083484 
L 241.841824 174.162733 
L 237.90106 178.314662 
L 234.036355 182.537484 
L 234.036355 182.537484 
" clip-path="url(#pb803f37af6)" style="fill: none; stroke: #000000"/>
    <path d="M 257.724284 164.761179 
L 256.090778 166.294453 
L 251.951435 170.24846 
L 247.882074 174.274453 
L 243.884027 178.371274 
L 239.958337 182.537484 
L 239.958337 182.537484 
" clip-path="url(#pb803f37af6)" style="fill: none; stroke: #000000"/>
    <path d="M 257.724284 147.005591 
L 257.724284 147.005591 
L 253.376833 150.729496 
L 249.102791 154.537418 
L 244.904827 158.42904 
" clip-path="url(#pb803f37af6)" style="fill: none; stroke: #000000"/>
    <path d="M 257.724284 70.019822 
L 257.724284 70.019822 
L 252.135004 71.256943 
L 246.537238 72.45501 
L 240.929119 73.60351 
L 235.308249 74.687643 
L 229.671572 75.685811 
L 224.015317 76.565054 
L 218.335426 77.272132 
L 212.630028 77.714546 
L 206.911398 77.715968 
L 201.266277 76.905942 
L 201.266277 76.905942 
L 197.98122 75.693925 
L 197.98122 75.693925 
L 195.498343 74.028623 
L 193.535669 71.757561 
L 192.247368 69.215588 
L 191.387386 66.247757 
L 190.881002 62.63638 
L 190.743667 58.134115 
L 191.040455 52.422372 
L 191.65764 46.732747 
L 192.477165 41.067816 
L 193.433429 35.424004 
L 194.486903 29.797365 
L 195.612226 24.18458 
L 196.792307 18.583012 
L 198.015165 12.990605 
L 198.501685 10.8 
" clip-path="url(#pb803f37af6)" style="fill: none; stroke: #000000"/>
    <path d="M 257.724284 64.09784 
L 257.724284 64.09784 
L 252.054876 64.888964 
L 246.369706 65.556095 
L 240.668069 66.060175 
L 234.951803 66.343155 
L 229.229938 66.315142 
L 223.53173 65.831289 
L 217.943869 64.654884 
L 217.943869 64.654884 
L 213.858882 63.060033 
L 210.141008 60.647036 
L 207.480241 57.886076 
L 205.555513 54.836331 
L 204.12436 51.377574 
L 203.087202 47.352626 
L 202.422303 42.578731 
L 202.153777 36.865893 
L 202.271055 31.144993 
L 202.656289 25.434629 
L 203.235127 19.74006 
L 203.958696 14.061777 
L 204.40959 10.8 
" clip-path="url(#pb803f37af6)" style="fill: none; stroke: #000000"/>
    <path d="M 257.724284 58.175858 
L 257.724284 58.175858 
L 252.007526 58.45832 
L 246.284598 58.503371 
L 240.569311 58.229087 
L 234.894928 57.513949 
L 229.339256 56.179694 
L 224.074179 53.990257 
L 220.021273 51.2627 
L 217.033747 48.224447 
L 214.768214 44.86986 
L 213.015208 41.100289 
L 211.676242 36.783569 
L 210.718913 31.761865 
L 210.165441 26.069451 
L 210.007305 20.349779 
L 210.137982 14.62817 
L 210.304612 10.8 
" clip-path="url(#pb803f37af6)" style="fill: none; stroke: #000000"/>
    <path d="M 257.724284 52.253876 
L 257.724284 52.253876 
L 252.009 51.966652 
L 246.326465 51.305482 
L 240.72807 50.143529 
L 235.317529 48.313363 
L 230.356812 45.679749 
L 226.547845 42.638876 
L 223.621808 39.282666 
L 221.322601 35.564948 
L 219.501841 31.386601 
L 218.088396 26.620451 
L 217.060863 21.113915 
L 216.479425 15.422999 
L 216.16557 10.8 
" clip-path="url(#pb803f37af6)" style="fill: none; stroke: #000000"/>
    <path d="M 257.724284 46.331893 
L 257.724284 46.331893 
L 252.076365 45.42394 
L 246.539045 44.000698 
L 241.220871 41.916694 
L 236.349996 39.0675 
L 232.526639 35.827474 
L 229.517261 32.25599 
L 227.10772 28.302198 
L 225.170844 23.871602 
L 223.643367 18.843152 
L 222.530345 13.234302 
L 222.155016 10.8 
" clip-path="url(#pb803f37af6)" style="fill: none; stroke: #000000"/>
    <path d="M 257.724284 40.409911 
L 257.724284 40.409911 
L 252.223516 38.850365 
L 246.947561 36.658822 
L 242.054957 33.720908 
L 238.097787 30.356105 
L 234.934206 26.647166 
L 232.370836 22.549525 
L 230.286414 17.975344 
L 228.617511 12.810778 
L 228.079885 10.8 
" clip-path="url(#pb803f37af6)" style="fill: none; stroke: #000000"/>
    <path d="M 257.724284 34.487929 
L 257.724284 34.487929 
L 252.455928 32.274778 
L 247.543546 29.365217 
L 243.381519 25.934733 
L 240.015057 22.147793 
L 237.26496 17.973969 
L 235.008141 13.333695 
L 233.956404 10.8 
" clip-path="url(#pb803f37af6)" style="fill: none; stroke: #000000"/>
    <path d="M 85.9868 117.394748 
L 89.887789 116.237412 
L 95.372918 114.599103 
L 100.851083 112.937672 
L 106.320515 111.247751 
L 111.778804 109.522233 
L 117.222583 107.751554 
L 122.647008 105.922599 
L 128.044902 104.017051 
L 133.405264 102.008873 
L 138.710622 99.860571 
L 143.932309 97.518131 
L 149.022564 94.905824 
L 153.903789 91.926593 
L 158.463558 88.481506 
L 162.578624 84.518549 
L 166.177651 80.079106 
L 169.285473 75.278563 
L 171.993829 70.238652 
L 174.404912 65.048246 
L 176.601987 59.762875 
L 178.645235 54.415766 
L 180.576468 49.027001 
L 182.424617 43.609082 
L 184.209923 38.170081 
L 185.946791 32.715392 
L 187.645666 27.248735 
L 189.314265 21.77275 
L 190.958392 16.289361 
L 192.582479 10.8 
L 192.582479 10.8 
" clip-path="url(#pb803f37af6)" style="fill: none; stroke: #000000"/>
    <path d="M 85.9868 111.471689 
L 86.938098 111.12884 
L 92.313652 109.160765 
L 97.666618 107.13215 
L 102.991942 105.032171 
L 108.283089 102.84769 
L 113.531548 100.562803 
L 118.72618 98.158402 
L 123.852398 95.611884 
L 128.891248 92.897218 
L 133.818549 89.985778 
L 138.604557 86.848391 
L 143.214862 83.458987 
L 147.613341 79.799594 
L 151.767417 75.865282 
L 155.654376 71.666753 
L 159.26612 67.228791 
L 162.610039 62.585055 
L 165.705878 57.771754 
L 168.580618 52.822698 
L 171.263607 47.766721 
L 173.783174 42.627069 
L 176.164818 37.421874 
L 178.430543 32.165052 
L 180.598882 26.867227 
L 182.685225 21.536518 
L 184.702276 16.179164 
L 186.660497 10.8 
L 186.660497 10.8 
" clip-path="url(#pb803f37af6)" style="fill: none; stroke: #000000"/>
    <path d="M 85.9868 105.552088 
L 87.229439 105.027606 
L 92.486646 102.762518 
L 97.706127 100.411938 
L 102.880505 97.96384 
L 108.000744 95.404662 
L 113.055844 92.719379 
L 118.032557 89.891781 
L 122.915205 86.905058 
L 127.685753 83.742763 
L 132.324277 80.390196 
L 136.809992 76.836109 
L 141.122899 73.074437 
L 145.245864 69.105601 
L 149.166694 64.936916 
L 152.879631 60.581875 
L 156.385821 56.058477 
L 159.692667 51.387087 
L 162.812383 46.588433 
L 165.760231 41.682084 
L 168.552864 36.685561 
L 171.207039 31.613972 
L 173.738737 26.480024 
L 176.162665 21.294231 
L 178.492034 16.065212 
L 180.738515 10.8 
L 180.738515 10.8 
" clip-path="url(#pb803f37af6)" style="fill: none; stroke: #000000"/>
    <path d="M 85.9868 99.641735 
L 88.53927 98.405833 
L 93.668139 95.863686 
L 98.745148 93.219633 
L 103.761645 90.462672 
L 108.707608 87.581285 
L 113.571604 84.563807 
L 118.340871 81.398962 
L 123.001586 78.076556 
L 127.539355 74.588312 
L 131.939963 70.928722 
L 136.19033 67.095775 
L 140.279559 63.091405 
L 144.199882 58.921504 
L 147.94732 54.595481 
L 151.521905 50.125437 
L 154.927442 45.525142 
L 158.170905 40.809016 
L 161.261626 35.991254 
L 164.210432 31.08521 
L 167.028876 26.103015 
L 169.728612 21.055411 
L 172.320944 15.951735 
L 174.816533 10.8 
L 174.816533 10.8 
" clip-path="url(#pb803f37af6)" style="fill: none; stroke: #000000"/>
    <path d="M 85.9868 87.789797 
L 87.340028 87.003393 
L 92.258795 84.075465 
L 97.111487 81.039387 
L 101.890266 77.888359 
L 106.586785 74.616097 
L 111.192365 71.21714 
L 115.698237 67.687164 
L 120.095863 64.023295 
L 124.377301 60.224361 
L 128.535602 56.291054 
L 132.56517 52.22597 
L 136.462071 48.033517 
L 140.224219 43.719691 
L 143.851437 39.291749 
L 147.345378 34.757834 
L 150.709338 30.126584 
L 153.947981 25.406773 
L 157.067024 20.607013 
L 160.072922 15.735528 
L 162.972568 10.8 
L 162.972568 10.8 
" clip-path="url(#pb803f37af6)" style="fill: none; stroke: #000000"/>
    <path d="M 85.9868 75.944373 
L 86.988233 75.275518 
L 91.713934 72.045246 
L 96.366438 68.710475 
L 100.93957 65.267724 
L 105.427177 61.714264 
L 109.82329 58.048265 
L 114.122317 54.268917 
L 118.319233 50.376512 
L 122.409773 46.372473 
L 126.390591 42.259328 
L 130.259384 38.040626 
L 134.014964 33.720805 
L 137.657274 29.305025 
L 141.187344 24.798974 
L 144.607203 20.208673 
L 147.91975 15.540295 
L 151.128604 10.8 
L 151.128604 10.8 
" clip-path="url(#pb803f37af6)" style="fill: none; stroke: #000000"/>
    <path d="M 85.9868 64.100949 
L 86.988295 63.353724 
L 91.540099 59.882668 
L 96.016291 56.314671 
L 100.412356 52.648433 
L 104.724035 48.883341 
L 108.94744 45.019506 
L 113.079163 41.057794 
L 117.116375 36.999813 
L 121.056908 32.847881 
L 124.899311 28.604961 
L 128.642883 24.274573 
L 132.287671 19.860695 
L 135.834444 15.367652 
L 139.284639 10.8 
L 139.284639 10.8 
" clip-path="url(#pb803f37af6)" style="fill: none; stroke: #000000"/>
    <path d="M 85.9868 52.258597 
L 87.144694 51.31287 
L 91.541771 47.647731 
L 95.863717 43.894309 
L 100.10739 40.052624 
L 104.269974 36.123231 
L 108.34905 32.10722 
L 112.342648 28.006196 
L 116.249294 23.822251 
L 120.068035 19.557914 
L 123.798456 15.216091 
L 127.440675 10.8 
L 127.440675 10.8 
" clip-path="url(#pb803f37af6)" style="fill: none; stroke: #000000"/>
    <path d="M 106.1207 27.738992 
L 110.095244 23.619457 
L 113.986866 19.421493 
L 117.794788 15.147451 
L 121.518693 10.8 
L 121.518693 10.8 
" clip-path="url(#pb803f37af6)" style="fill: none; stroke: #000000"/>
    <path d="M 85.9868 40.417101 
L 87.369458 39.199407 
L 91.62967 35.375989 
L 95.816894 31.472779 
L 99.929029 27.490544 
L 103.964304 23.430444 
L 107.921299 19.294014 
L 111.798981 15.083135 
L 115.596711 10.8 
L 115.596711 10.8 
" clip-path="url(#pb803f37af6)" style="fill: none; stroke: #000000"/>
    <path d="M 85.9868 34.539469 
L 89.601045 31.188835 
L 93.763397 27.259084 
L 97.853314 23.254001 
L 101.86926 19.174751 
L 105.810023 15.022822 
L 109.674728 10.8 
L 109.674728 10.8 
" clip-path="url(#pb803f37af6)" style="fill: none; stroke: #000000"/>
    <path d="M 85.9868 28.576306 
L 87.620305 27.043032 
L 91.759648 23.089025 
L 95.829009 19.063032 
L 99.827056 14.966211 
L 103.752746 10.8 
L 103.752746 10.8 
" clip-path="url(#pb803f37af6)" style="fill: none; stroke: #000000"/>
    <path d="M 227.622264 163.733391 
L 223.746236 167.94568 
L 219.96221 172.240821 
L 216.270408 176.615502 
L 212.67049 181.066114 
L 211.50505 182.537484 
" clip-path="url(#pb803f37af6)" style="fill: none; stroke: #000000"/>
    <path d="M 257.724284 31.577711 
L 256.868145 31.201698 
L 251.802302 28.565947 
L 247.180213 25.217424 
L 243.459728 21.520848 
" clip-path="url(#pb803f37af6)" style="fill: none; stroke: #000000"/>
    <path d="M 257.724284 26.827646 
L 253.839451 24.148959 
L 249.765177 20.902719 
L 245.880319 16.721982 
L 242.676361 11.997241 
L 241.98406 10.8 
" clip-path="url(#pb803f37af6)" style="fill: none; stroke: #000000"/>
    <path d="M 116.088819 29.604094 
L 119.964847 25.391804 
L 123.748873 21.096664 
L 127.440675 16.721982 
L 131.040593 12.271371 
L 132.206034 10.8 
" clip-path="url(#pb803f37af6)" style="fill: none; stroke: #000000"/>
    <path d="M 85.9868 45.553514 
L 87.596843 44.174873 
L 91.908782 40.409911 
L 96.146437 36.561538 
L 100.307338 32.630312 
" clip-path="url(#pb803f37af6)" style="fill: none; stroke: #000000"/>
    <path d="M 103.4781 123.355585 
L 109.159388 122.658019 
L 114.860129 122.149956 
L 120.577145 121.915086 
L 125.960534 122.069852 
L 130.366709 122.616866 
L 134.034416 123.528754 
L 137.16021 124.831622 
L 139.918098 126.653523 
L 142.384028 129.259506 
L 144.175944 132.347717 
L 144.175944 132.347717 
L 145.51847 136.312838 
L 145.51847 136.312838 
L 146.408388 141.953376 
L 146.613241 147.669096 
L 146.393995 153.387305 
L 145.896581 159.089216 
L 145.206622 164.771538 
" clip-path="url(#pb803f37af6)" style="fill: none; stroke: #000000"/>
    <path d="M 238.683162 124.276041 
L 234.165091 127.790572 
L 229.744605 131.427019 
L 225.428457 135.186666 
L 221.222718 139.069399 
L 217.132519 143.073648 
L 213.161811 147.196423 
L 209.313201 151.433424 
L 205.587855 155.779236 
L 201.985492 160.227572 
L 198.504462 164.771538 
" clip-path="url(#pb803f37af6)" style="fill: none; stroke: #000000"/>
    <path d="M 225.83389 147.918306 
L 221.803247 151.982709 
L 217.877898 156.148902 
L 214.05942 160.413279 
L 210.348426 164.771538 
" clip-path="url(#pb803f37af6)" style="fill: none; stroke: #000000"/>
    <path d="M 248.936788 128.059929 
L 244.405665 131.55783 
L 239.958337 135.161627 
L 235.600078 138.87262 
L 231.335702 142.691098 
" clip-path="url(#pb803f37af6)" style="fill: none; stroke: #000000"/>
    <path d="M 257.724284 101.00599 
L 254.702283 102.675575 
L 249.720987 105.495814 
L 244.803488 108.425748 
L 239.958337 111.473698 
L 235.194896 114.647737 
L 230.523097 117.955043 
" clip-path="url(#pb803f37af6)" style="fill: none; stroke: #000000"/>
    <path d="M 239.958337 70.019822 
L 234.276015 70.709782 
L 228.574105 71.207195 
L 222.855895 71.426442 
L 217.140175 71.221589 
L 211.499638 70.331671 
L 211.499638 70.331671 
L 207.534517 68.989144 
L 207.534517 68.989144 
L 204.446305 67.197229 
L 201.840323 64.731299 
L 200.018422 61.973411 
L 198.715554 58.847616 
L 197.803666 55.179909 
L 197.256651 50.773735 
L 197.101885 45.390346 
L 197.336755 39.67333 
L 197.844818 33.972589 
L 198.542384 28.291301 
" clip-path="url(#pb803f37af6)" style="fill: none; stroke: #000000"/>
    <path d="M 105.027922 69.061443 
L 109.545993 65.546913 
L 113.966479 61.910465 
L 118.282627 58.150818 
L 122.488365 54.268085 
L 126.578565 50.263836 
L 130.549273 46.141062 
L 134.397882 41.904061 
L 138.123229 37.558248 
L 141.725592 33.109913 
L 145.206622 28.565947 
" clip-path="url(#pb803f37af6)" style="fill: none; stroke: #000000"/>
    <path d="M 117.877193 45.419178 
L 121.907836 41.354775 
L 125.833185 37.188582 
L 129.651664 32.924206 
L 133.362657 28.565947 
" clip-path="url(#pb803f37af6)" style="fill: none; stroke: #000000"/>
    <path d="M 94.774296 65.277556 
L 99.305418 61.779655 
L 103.752746 58.175858 
L 108.111005 54.464864 
L 112.375382 50.646386 
" clip-path="url(#pb803f37af6)" style="fill: none; stroke: #000000"/>
    <path d="M 85.9868 92.331494 
L 89.008801 90.661909 
L 93.990096 87.84167 
L 98.907595 84.911736 
L 103.752746 81.863787 
L 108.516187 78.689747 
L 113.187987 75.382441 
" clip-path="url(#pb803f37af6)" style="fill: none; stroke: #000000"/>
    <path d="M 107.496007 140.429495 
L 111.906978 141.913503 
L 115.782929 143.821976 
L 119.246193 146.255713 
L 122.384073 149.415282 
L 125.193847 153.605816 
L 127.440675 158.849556 
" clip-path="url(#pb803f37af6)" style="fill: none; stroke: #000000"/>
    <path d="M 234.036355 52.253876 
L 228.792616 50.007048 
L 224.602082 47.197273 
L 221.442513 44.059393 
L 219.008775 40.596129 
L 217.100303 36.720178 
L 215.616295 32.309207 
" clip-path="url(#pb803f37af6)" style="fill: none; stroke: #000000"/>
    <path d="M 117.155418 112.53552 
L 122.718159 111.184054 
L 128.289161 109.867165 
L 133.871885 108.601142 
L 139.471905 107.414818 
L 145.098476 106.365143 
L 150.286242 105.633861 
L 153.988742 105.388528 
L 156.7022 105.506453 
L 158.765621 105.934884 
L 160.514486 106.782924 
L 161.860163 108.176797 
L 161.860163 108.176797 
L 162.742194 110.264781 
L 162.742194 110.264781 
L 163.128792 113.278264 
L 163.128792 113.278264 
L 162.806122 118.982855 
L 161.948001 124.64093 
L 160.861516 130.26097 
L 159.654662 135.856717 
L 158.375927 141.436579 
L 157.050586 147.005591 
" clip-path="url(#pb803f37af6)" style="fill: none; stroke: #000000"/>
    <path d="M 222.802587 122.824004 
L 218.408078 126.491372 
L 214.142526 130.307891 
L 210.014205 134.272412 
L 206.02948 138.38124 
L 202.192396 142.628312 
L 198.504462 147.005591 
L 194.964786 151.503663 
L 191.569867 156.112065 
L 188.314394 160.820111 
L 185.191555 165.61726 
L 182.193512 170.493469 
" clip-path="url(#pb803f37af6)" style="fill: none; stroke: #000000"/>
    <path d="M 227.753693 80.50641 
L 222.192391 81.863787 
L 216.623378 83.189128 
L 211.043517 84.467863 
L 205.447769 85.674717 
L 199.827729 86.761202 
L 194.169654 87.619323 
L 188.465064 87.941993 
L 188.465064 87.941993 
L 185.45158 87.555395 
L 185.45158 87.555395 
L 183.363596 86.673363 
L 183.363596 86.673363 
L 181.969724 85.327686 
L 181.121684 83.578822 
L 180.693253 81.5154 
L 180.575328 78.801942 
L 180.820661 75.099443 
L 181.551942 69.911676 
L 182.601618 64.285106 
L 183.787941 58.685085 
L 185.053964 53.102361 
L 186.370854 47.53136 
" clip-path="url(#pb803f37af6)" style="fill: none; stroke: #000000"/>
    <path d="M 120.908496 70.51348 
L 125.303006 66.846112 
L 129.568557 63.029594 
L 133.696878 59.065072 
L 137.681603 54.956245 
L 141.518687 50.709173 
L 145.206622 46.331893 
L 148.746297 41.833822 
L 152.141216 37.225419 
L 155.396689 32.517373 
L 158.519528 27.720224 
L 161.517571 22.844016 
" clip-path="url(#pb803f37af6)" style="fill: none; stroke: #000000"/>
    <path d="M 218.950786 121.690297 
L 214.57975 125.38541 
L 210.348426 129.239644 
L 206.265894 133.251122 
L 202.338436 137.414551 
" clip-path="url(#pb803f37af6)" style="fill: none; stroke: #000000"/>
    <path d="M 124.760297 71.647187 
L 129.131334 67.952074 
L 133.362657 64.09784 
L 137.44519 60.086362 
L 141.372647 55.922934 
" clip-path="url(#pb803f37af6)" style="fill: none; stroke: #000000"/>
    <path d="M 207.337969 98.046226 
L 202.346053 100.84412 
L 197.52346 103.922742 
L 192.927329 107.328198 
L 188.618782 111.089527 
L 184.647683 115.205377 
L 181.036001 119.640936 
L 177.771608 124.339412 
L 174.816533 129.239644 
L 172.122193 134.28861 
L 169.638951 139.445392 
L 167.324549 144.680561 
L 165.144538 149.973372 
L 163.071742 155.309239 
" clip-path="url(#pb803f37af6)" style="fill: none; stroke: #000000"/>
    <path d="M 207.162812 109.415391 
L 202.628019 112.905826 
L 198.290449 116.638088 
L 194.174168 120.612901 
L 190.295531 124.820026 
L 186.660497 129.239644 
" clip-path="url(#pb803f37af6)" style="fill: none; stroke: #000000"/>
    <path d="M 213.122664 115.879116 
L 208.69286 119.502964 
L 204.426444 123.317662 
L 200.337226 127.321674 
L 196.434361 131.507549 
" clip-path="url(#pb803f37af6)" style="fill: none; stroke: #000000"/>
    <path d="M 136.373115 95.291259 
L 141.36503 92.493364 
L 146.187624 89.414743 
L 150.783755 86.009286 
L 155.092302 82.247958 
L 159.0634 78.132108 
L 162.675082 73.696549 
L 165.939475 68.998072 
L 168.894551 64.09784 
L 171.588891 59.048874 
L 174.072133 53.892093 
L 176.386534 48.656923 
L 178.566545 43.364113 
L 180.639341 38.028245 
" clip-path="url(#pb803f37af6)" style="fill: none; stroke: #000000"/>
    <path d="M 136.548272 83.922093 
L 141.083064 80.431659 
L 145.420634 76.699396 
L 149.536916 72.724584 
L 153.415552 68.517458 
L 157.050586 64.09784 
" clip-path="url(#pb803f37af6)" style="fill: none; stroke: #000000"/>
    <path d="M 130.58842 77.458368 
L 135.018224 73.83452 
L 139.284639 70.019822 
L 143.373857 66.01581 
L 147.276722 61.829935 
" clip-path="url(#pb803f37af6)" style="fill: none; stroke: #000000"/>
    <path d="M 137.042439 111.005336 
L 142.244718 110.597657 
L 146.212595 110.622802 
L 149.305345 111.004049 
L 151.794478 111.724959 
L 153.950091 112.912942 
L 155.891435 114.964508 
L 157.050586 117.39568 
L 157.050586 117.39568 
L 157.050586 117.39568 
L 157.787641 120.918787 
L 157.96791 124.328842 
L 157.768257 128.944798 
" clip-path="url(#pb803f37af6)" style="fill: none; stroke: #000000"/>
    <path d="M 192.797031 93.649497 
L 187.516374 95.850088 
L 183.383708 97.967925 
L 179.886542 100.29736 
L 176.50912 103.442258 
L 173.802468 107.079377 
L 173.802468 107.079377 
L 171.10635 112.118408 
L 168.894551 117.39568 
" clip-path="url(#pb803f37af6)" style="fill: none; stroke: #000000"/>
    <path d="M 204.131597 82.581457 
L 199.515641 82.781111 
L 196.105587 82.600842 
L 192.582479 81.863787 
L 192.582479 81.863787 
L 192.582479 81.863787 
L 190.151308 80.704635 
L 188.099741 78.763291 
L 186.911759 76.607678 
L 186.190849 74.118546 
L 185.809601 71.025795 
L 185.784457 67.057918 
L 186.192136 61.85564 
" clip-path="url(#pb803f37af6)" style="fill: none; stroke: #000000"/>
    <path d="M 150.914052 99.687987 
L 156.194709 97.487396 
L 160.327376 95.36956 
L 163.824541 93.040125 
L 167.201963 89.895226 
L 169.908616 86.258107 
L 169.908616 86.258107 
L 172.604733 81.219076 
L 174.816533 75.941804 
" clip-path="url(#pb803f37af6)" style="fill: none; stroke: #000000"/>
    <path d="M 183.683535 94.760672 
L 180.02262 96.249812 
L 177.297524 97.696903 
L 174.816533 99.629733 
L 174.816533 99.629733 
L 174.816533 99.629733 
L 172.883702 102.110725 
L 171.436611 104.835821 
L 169.947472 108.496736 
" clip-path="url(#pb803f37af6)" style="fill: none; stroke: #000000"/>
    <path d="M 160.027548 98.576812 
L 163.688463 97.087673 
L 166.413559 95.640582 
L 168.894551 93.707751 
L 168.894551 93.707751 
L 168.894551 93.707751 
L 170.827381 91.22676 
L 172.274472 88.501664 
L 173.763612 84.840749 
" clip-path="url(#pb803f37af6)" style="fill: none; stroke: #000000"/>
   </g>
   <g id="patch_2">
    <path d="M 95.086966 170.958047 
Q 95.314086 171.171128 94.725838 170.619242 
" clip-path="url(#pb803f37af6)" style="fill: none; stroke: #000000; stroke-linecap: round"/>
    <path d="M 93.1771 166.423839 
L 94.725838 170.619242 
L 90.440273 169.340991 
z
" clip-path="url(#pb803f37af6)" style="stroke: #000000; stroke-linecap: round"/>
   </g>
   <g id="patch_3">
    <path d="M 105.570647 174.07656 
Q 105.788722 174.444749 105.437035 173.850975 
" clip-path="url(#pb803f37af6)" style="fill: none; stroke: #000000; stroke-linecap: round"/>
    <path d="M 105.119403 169.390133 
L 105.437035 173.850975 
L 101.677782 171.428576 
z
" clip-path="url(#pb803f37af6)" style="stroke: #000000; stroke-linecap: round"/>
   </g>
   <g id="patch_4">
    <path d="M 106.839208 164.435502 
Q 107.032257 164.662537 106.501062 164.037827 
" clip-path="url(#pb803f37af6)" style="fill: none; stroke: #000000; stroke-linecap: round"/>
    <path d="M 105.433577 159.694962 
L 106.501062 164.037827 
L 102.386279 162.286096 
z
" clip-path="url(#pb803f37af6)" style="stroke: #000000; stroke-linecap: round"/>
   </g>
   <g id="patch_5">
    <path d="M 112.308385 158.866942 
Q 112.471336 159.05923 111.911467 158.398563 
" clip-path="url(#pb803f37af6)" style="fill: none; stroke: #000000; stroke-linecap: round"/>
    <path d="M 110.851242 154.05392 
L 111.911467 158.398563 
L 107.799618 156.639957 
z
" clip-path="url(#pb803f37af6)" style="stroke: #000000; stroke-linecap: round"/>
   </g>
   <g id="patch_6">
    <path d="M 115.97386 149.746582 
Q 116.060715 149.822305 115.304841 149.163312 
" clip-path="url(#pb803f37af6)" style="fill: none; stroke: #000000; stroke-linecap: round"/>
    <path d="M 113.604097 145.027194 
L 115.304841 149.163312 
L 110.9755 148.042236 
z
" clip-path="url(#pb803f37af6)" style="stroke: #000000; stroke-linecap: round"/>
   </g>
   <g id="patch_7">
    <path d="M 124.838395 143.250268 
Q 124.884384 143.295489 124.133177 142.556824 
" clip-path="url(#pb803f37af6)" style="fill: none; stroke: #000000; stroke-linecap: round"/>
    <path d="M 122.683299 138.326239 
L 124.133177 142.556824 
L 119.878781 141.178375 
z
" clip-path="url(#pb803f37af6)" style="stroke: #000000; stroke-linecap: round"/>
   </g>
   <g id="patch_8">
    <path d="M 133.072876 132.293441 
Q 133.763116 132.958633 133.648314 132.847998 
" clip-path="url(#pb803f37af6)" style="fill: none; stroke: #000000; stroke-linecap: round"/>
    <path d="M 132.155952 128.632211 
L 133.648314 132.847998 
L 129.380268 131.512416 
z
" clip-path="url(#pb803f37af6)" style="stroke: #000000; stroke-linecap: round"/>
   </g>
   <g id="patch_9">
    <path d="M 146.94436 118.34887 
Q 147.512126 118.839538 147.233978 118.59916 
" clip-path="url(#pb803f37af6)" style="fill: none; stroke: #000000; stroke-linecap: round"/>
    <path d="M 145.515281 114.47047 
L 147.233978 118.59916 
L 142.899807 117.496903 
z
" clip-path="url(#pb803f37af6)" style="stroke: #000000; stroke-linecap: round"/>
   </g>
   <g id="patch_10">
    <path d="M 183.806851 106.2434 
Q 183.498422 106.540429 183.995306 106.061912 
" clip-path="url(#pb803f37af6)" style="fill: none; stroke: #000000; stroke-linecap: round"/>
    <path d="M 188.263819 104.727823 
L 183.995306 106.061912 
L 185.489143 101.846648 
z
" clip-path="url(#pb803f37af6)" style="stroke: #000000; stroke-linecap: round"/>
   </g>
   <g id="patch_11">
    <path d="M 194.647467 114.911442 
Q 194.334085 115.208245 194.832454 114.736241 
" clip-path="url(#pb803f37af6)" style="fill: none; stroke: #000000; stroke-linecap: round"/>
    <path d="M 199.11194 113.437781 
L 194.832454 114.736241 
L 196.361377 110.533576 
z
" clip-path="url(#pb803f37af6)" style="stroke: #000000; stroke-linecap: round"/>
   </g>
   <g id="patch_12">
    <path d="M 201.14877 121.648651 
Q 200.837736 121.948058 201.332183 121.472095 
" clip-path="url(#pb803f37af6)" style="fill: none; stroke: #000000; stroke-linecap: round"/>
    <path d="M 205.600987 120.138935 
L 201.332183 121.472095 
L 202.826938 117.257156 
z
" clip-path="url(#pb803f37af6)" style="stroke: #000000; stroke-linecap: round"/>
   </g>
   <g id="patch_13">
    <path d="M 206.093117 127.63972 
Q 205.784628 127.941807 206.274953 127.461657 
" clip-path="url(#pb803f37af6)" style="fill: none; stroke: #000000; stroke-linecap: round"/>
    <path d="M 210.532188 126.092001 
L 206.274953 127.461657 
L 207.733569 123.234076 
z
" clip-path="url(#pb803f37af6)" style="stroke: #000000; stroke-linecap: round"/>
   </g>
   <g id="patch_14">
    <path d="M 213.768674 138.465637 
Q 213.464686 138.772305 213.947791 138.284942 
" clip-path="url(#pb803f37af6)" style="fill: none; stroke: #000000; stroke-linecap: round"/>
    <path d="M 218.184186 136.852128 
L 213.947791 138.284942 
L 215.343376 134.036138 
z
" clip-path="url(#pb803f37af6)" style="stroke: #000000; stroke-linecap: round"/>
   </g>
   <g id="patch_15">
    <path d="M 223.963756 144.358867 
Q 223.655168 144.660929 224.145552 144.180915 
" clip-path="url(#pb803f37af6)" style="fill: none; stroke: #000000; stroke-linecap: round"/>
    <path d="M 228.403063 142.812118 
L 224.145552 144.180915 
L 225.605021 139.953629 
z
" clip-path="url(#pb803f37af6)" style="stroke: #000000; stroke-linecap: round"/>
   </g>
   <g id="patch_16">
    <path d="M 229.222444 153.696417 
Q 228.917879 154.002549 229.401853 153.516086 
" clip-path="url(#pb803f37af6)" style="fill: none; stroke: #000000; stroke-linecap: round"/>
    <path d="M 233.640851 152.090993 
L 229.401853 153.516086 
L 230.805177 149.269831 
z
" clip-path="url(#pb803f37af6)" style="stroke: #000000; stroke-linecap: round"/>
   </g>
   <g id="patch_17">
    <path d="M 238.017018 158.616328 
Q 237.709294 158.919293 238.198275 158.437872 
" clip-path="url(#pb803f37af6)" style="fill: none; stroke: #000000; stroke-linecap: round"/>
    <path d="M 242.451804 157.056753 
L 238.198275 158.437872 
L 239.645497 154.206378 
z
" clip-path="url(#pb803f37af6)" style="stroke: #000000; stroke-linecap: round"/>
   </g>
   <g id="patch_18">
    <path d="M 228.394792 175.40815 
Q 228.107524 175.730581 228.563995 175.218235 
" clip-path="url(#pb803f37af6)" style="fill: none; stroke: #000000; stroke-linecap: round"/>
    <path d="M 232.718169 173.562083 
L 228.563995 175.218235 
L 229.731578 170.901205 
z
" clip-path="url(#pb803f37af6)" style="stroke: #000000; stroke-linecap: round"/>
   </g>
   <g id="patch_19">
    <path d="M 242.373255 167.264407 
Q 242.068836 167.570699 242.552558 167.084 
" clip-path="url(#pb803f37af6)" style="fill: none; stroke: #000000; stroke-linecap: round"/>
    <path d="M 246.790842 165.656783 
L 242.552558 167.084 
L 243.953755 162.837043 
z
" clip-path="url(#pb803f37af6)" style="stroke: #000000; stroke-linecap: round"/>
   </g>
   <g id="patch_20">
    <path d="M 244.455718 171.507636 
Q 244.152757 171.815372 244.63416 171.326381 
" clip-path="url(#pb803f37af6)" style="fill: none; stroke: #000000; stroke-linecap: round"/>
    <path d="M 248.865612 169.879035 
L 244.63416 171.326381 
L 246.015154 167.072812 
z
" clip-path="url(#pb803f37af6)" style="stroke: #000000; stroke-linecap: round"/>
   </g>
   <g id="patch_21">
    <path d="M 250.530735 171.654019 
Q 250.223745 171.957738 250.711548 171.475133 
" clip-path="url(#pb803f37af6)" style="fill: none; stroke: #000000; stroke-linecap: round"/>
    <path d="M 254.961704 170.083668 
L 250.711548 171.475133 
L 252.148469 167.24013 
z
" clip-path="url(#pb803f37af6)" style="stroke: #000000; stroke-linecap: round"/>
   </g>
   <g id="patch_22">
    <path d="M 251.884675 152.058922 
Q 251.562243 152.34619 252.074589 151.889719 
" clip-path="url(#pb803f37af6)" style="fill: none; stroke: #000000; stroke-linecap: round"/>
    <path d="M 256.39162 150.722136 
L 252.074589 151.889719 
L 253.730741 147.735545 
z
" clip-path="url(#pb803f37af6)" style="stroke: #000000; stroke-linecap: round"/>
   </g>
   <g id="patch_23">
    <path d="M 195.498343 74.028623 
Q 195.007675 73.460857 195.248053 73.739006 
" clip-path="url(#pb803f37af6)" style="fill: none; stroke: #000000; stroke-linecap: round"/>
    <path d="M 196.35031 78.073176 
L 195.248053 73.739006 
L 199.376743 75.457703 
z
" clip-path="url(#pb803f37af6)" style="stroke: #000000; stroke-linecap: round"/>
   </g>
   <g id="patch_24">
    <path d="M 210.141008 60.647036 
Q 209.475816 59.956796 209.586452 60.071598 
" clip-path="url(#pb803f37af6)" style="fill: none; stroke: #000000; stroke-linecap: round"/>
    <path d="M 210.922034 64.339644 
L 209.586452 60.071598 
L 213.802238 61.56396 
z
" clip-path="url(#pb803f37af6)" style="stroke: #000000; stroke-linecap: round"/>
   </g>
   <g id="patch_25">
    <path d="M 218.617953 49.835552 
Q 218.572732 49.789563 219.311397 50.54077 
" clip-path="url(#pb803f37af6)" style="fill: none; stroke: #000000; stroke-linecap: round"/>
    <path d="M 220.689846 54.795165 
L 219.311397 50.54077 
L 223.541982 51.990648 
z
" clip-path="url(#pb803f37af6)" style="stroke: #000000; stroke-linecap: round"/>
   </g>
   <g id="patch_26">
    <path d="M 225.236272 41.134481 
Q 225.160549 41.047626 225.819542 41.803501 
" clip-path="url(#pb803f37af6)" style="fill: none; stroke: #000000; stroke-linecap: round"/>
    <path d="M 226.940617 46.132841 
L 225.819542 41.803501 
L 229.95566 43.504245 
z
" clip-path="url(#pb803f37af6)" style="stroke: #000000; stroke-linecap: round"/>
   </g>
   <g id="patch_27">
    <path d="M 234.822894 37.773388 
Q 234.630606 37.610437 235.291273 38.170306 
" clip-path="url(#pb803f37af6)" style="fill: none; stroke: #000000; stroke-linecap: round"/>
    <path d="M 237.049879 42.282155 
L 235.291273 38.170306 
L 239.635916 39.23053 
z
" clip-path="url(#pb803f37af6)" style="stroke: #000000; stroke-linecap: round"/>
   </g>
   <g id="patch_28">
    <path d="M 240.530442 32.424605 
Q 240.303407 32.231556 240.928117 32.762751 
" clip-path="url(#pb803f37af6)" style="fill: none; stroke: #000000; stroke-linecap: round"/>
    <path d="M 242.679848 36.877534 
L 240.928117 32.762751 
L 245.270982 33.830236 
z
" clip-path="url(#pb803f37af6)" style="stroke: #000000; stroke-linecap: round"/>
   </g>
   <g id="patch_29">
    <path d="M 242.050057 24.436968 
Q 241.874172 24.239116 242.441105 24.87686 
" clip-path="url(#pb803f37af6)" style="fill: none; stroke: #000000; stroke-linecap: round"/>
    <path d="M 243.603929 29.195174 
L 242.441105 24.87686 
L 246.593451 26.537589 
z
" clip-path="url(#pb803f37af6)" style="stroke: #000000; stroke-linecap: round"/>
   </g>
   <g id="patch_30">
    <path d="M 159.904233 87.094084 
Q 160.212662 86.797056 159.715778 87.275573 
" clip-path="url(#pb803f37af6)" style="fill: none; stroke: #000000; stroke-linecap: round"/>
    <path d="M 155.447264 88.609661 
L 159.715778 87.275573 
L 158.22194 91.490837 
z
" clip-path="url(#pb803f37af6)" style="stroke: #000000; stroke-linecap: round"/>
   </g>
   <g id="patch_31">
    <path d="M 149.063617 78.426042 
Q 149.376998 78.12924 148.878629 78.601243 
" clip-path="url(#pb803f37af6)" style="fill: none; stroke: #000000; stroke-linecap: round"/>
    <path d="M 144.599143 79.899704 
L 148.878629 78.601243 
L 147.349706 82.803908 
z
" clip-path="url(#pb803f37af6)" style="stroke: #000000; stroke-linecap: round"/>
   </g>
   <g id="patch_32">
    <path d="M 142.562313 71.688833 
Q 142.873347 71.389426 142.3789 71.86539 
" clip-path="url(#pb803f37af6)" style="fill: none; stroke: #000000; stroke-linecap: round"/>
    <path d="M 138.110096 73.19855 
L 142.3789 71.86539 
L 140.884146 76.080329 
z
" clip-path="url(#pb803f37af6)" style="stroke: #000000; stroke-linecap: round"/>
   </g>
   <g id="patch_33">
    <path d="M 137.617966 65.697765 
Q 137.926455 65.395677 137.43613 65.875827 
" clip-path="url(#pb803f37af6)" style="fill: none; stroke: #000000; stroke-linecap: round"/>
    <path d="M 133.178896 67.245483 
L 137.43613 65.875827 
L 135.977514 70.103408 
z
" clip-path="url(#pb803f37af6)" style="stroke: #000000; stroke-linecap: round"/>
   </g>
   <g id="patch_34">
    <path d="M 129.942409 54.871847 
Q 130.246397 54.565179 129.763293 55.052542 
" clip-path="url(#pb803f37af6)" style="fill: none; stroke: #000000; stroke-linecap: round"/>
    <path d="M 125.526898 56.485357 
L 129.763293 55.052542 
L 128.367707 59.301347 
z
" clip-path="url(#pb803f37af6)" style="stroke: #000000; stroke-linecap: round"/>
   </g>
   <g id="patch_35">
    <path d="M 119.747327 48.978618 
Q 120.055915 48.676555 119.565531 49.156569 
" clip-path="url(#pb803f37af6)" style="fill: none; stroke: #000000; stroke-linecap: round"/>
    <path d="M 115.308021 50.525366 
L 119.565531 49.156569 
L 118.106063 53.383856 
z
" clip-path="url(#pb803f37af6)" style="stroke: #000000; stroke-linecap: round"/>
   </g>
   <g id="patch_36">
    <path d="M 114.488639 39.641067 
Q 114.793204 39.334935 114.309231 39.821398 
" clip-path="url(#pb803f37af6)" style="fill: none; stroke: #000000; stroke-linecap: round"/>
    <path d="M 110.070232 41.246492 
L 114.309231 39.821398 
L 112.905907 44.067653 
z
" clip-path="url(#pb803f37af6)" style="stroke: #000000; stroke-linecap: round"/>
   </g>
   <g id="patch_37">
    <path d="M 105.694066 34.721157 
Q 106.001789 34.418191 105.512808 34.899612 
" clip-path="url(#pb803f37af6)" style="fill: none; stroke: #000000; stroke-linecap: round"/>
    <path d="M 101.259279 36.280732 
L 105.512808 34.899612 
L 104.065586 39.131107 
z
" clip-path="url(#pb803f37af6)" style="stroke: #000000; stroke-linecap: round"/>
   </g>
   <g id="patch_38">
    <path d="M 115.316292 17.929335 
Q 115.603559 17.606903 115.147089 18.11925 
" clip-path="url(#pb803f37af6)" style="fill: none; stroke: #000000; stroke-linecap: round"/>
    <path d="M 110.992915 19.775402 
L 115.147089 18.11925 
L 113.979506 22.43628 
z
" clip-path="url(#pb803f37af6)" style="stroke: #000000; stroke-linecap: round"/>
   </g>
   <g id="patch_39">
    <path d="M 101.337829 26.073077 
Q 101.642248 25.766786 101.158525 26.253484 
" clip-path="url(#pb803f37af6)" style="fill: none; stroke: #000000; stroke-linecap: round"/>
    <path d="M 96.920241 27.680702 
L 101.158525 26.253484 
L 99.757329 30.500442 
z
" clip-path="url(#pb803f37af6)" style="stroke: #000000; stroke-linecap: round"/>
   </g>
   <g id="patch_40">
    <path d="M 99.255365 21.829849 
Q 99.558326 21.522112 99.076924 22.011103 
" clip-path="url(#pb803f37af6)" style="fill: none; stroke: #000000; stroke-linecap: round"/>
    <path d="M 94.845471 23.45845 
L 99.076924 22.011103 
L 97.695929 26.264673 
z
" clip-path="url(#pb803f37af6)" style="stroke: #000000; stroke-linecap: round"/>
   </g>
   <g id="patch_41">
    <path d="M 93.180348 21.683466 
Q 93.487338 21.379747 92.999535 21.862351 
" clip-path="url(#pb803f37af6)" style="fill: none; stroke: #000000; stroke-linecap: round"/>
    <path d="M 88.74938 23.253816 
L 92.999535 21.862351 
L 91.562614 26.097355 
z
" clip-path="url(#pb803f37af6)" style="stroke: #000000; stroke-linecap: round"/>
   </g>
   <g id="patch_42">
    <path d="M 218.673324 173.768114 
Q 218.394817 174.098138 218.837373 173.573722 
" clip-path="url(#pb803f37af6)" style="fill: none; stroke: #000000; stroke-linecap: round"/>
    <path d="M 222.945596 171.806662 
L 218.837373 173.573722 
L 219.888659 169.226907 
z
" clip-path="url(#pb803f37af6)" style="stroke: #000000; stroke-linecap: round"/>
   </g>
   <g id="patch_43">
    <path d="M 250.184119 27.393637 
Q 249.837688 27.142661 250.396661 27.547615 
" clip-path="url(#pb803f37af6)" style="fill: none; stroke: #000000; stroke-linecap: round"/>
    <path d="M 252.46257 31.513976 
L 250.396661 27.547615 
L 254.809296 28.274705 
z
" clip-path="url(#pb803f37af6)" style="stroke: #000000; stroke-linecap: round"/>
   </g>
   <g id="patch_44">
    <path d="M 248.405097 19.439053 
Q 248.113923 19.125702 248.583804 19.63137 
" clip-path="url(#pb803f37af6)" style="fill: none; stroke: #000000; stroke-linecap: round"/>
    <path d="M 249.841534 23.923004 
L 248.583804 19.63137 
L 252.771749 21.200166 
z
" clip-path="url(#pb803f37af6)" style="stroke: #000000; stroke-linecap: round"/>
   </g>
   <g id="patch_45">
    <path d="M 125.037759 19.56937 
Q 125.316267 19.239346 124.873711 19.763763 
" clip-path="url(#pb803f37af6)" style="fill: none; stroke: #000000; stroke-linecap: round"/>
    <path d="M 120.765487 21.530823 
L 124.873711 19.763763 
L 123.822425 24.110577 
z
" clip-path="url(#pb803f37af6)" style="stroke: #000000; stroke-linecap: round"/>
   </g>
   <g id="patch_46">
    <path d="M 93.388237 39.066363 
Q 93.707923 38.776044 93.199939 39.237363 
" clip-path="url(#pb803f37af6)" style="fill: none; stroke: #000000; stroke-linecap: round"/>
    <path d="M 88.894201 40.445926 
L 93.199939 39.237363 
L 91.583346 43.407091 
z
" clip-path="url(#pb803f37af6)" style="stroke: #000000; stroke-linecap: round"/>
   </g>
   <g id="patch_47">
    <path d="M 139.918098 126.653523 
Q 140.534581 127.305019 140.382617 127.144424 
" clip-path="url(#pb803f37af6)" style="fill: none; stroke: #000000; stroke-linecap: round"/>
    <path d="M 139.086051 122.864364 
L 140.382617 127.144424 
L 136.180629 125.613641 
z
" clip-path="url(#pb803f37af6)" style="stroke: #000000; stroke-linecap: round"/>
   </g>
   <g id="patch_48">
    <path d="M 215.746261 144.512996 
Q 215.446713 144.824016 215.922744 144.329754 
" clip-path="url(#pb803f37af6)" style="fill: none; stroke: #000000; stroke-linecap: round"/>
    <path d="M 220.138069 142.83609 
L 215.922744 144.329754 
L 217.257008 140.061296 
z
" clip-path="url(#pb803f37af6)" style="stroke: #000000; stroke-linecap: round"/>
   </g>
   <g id="patch_49">
    <path d="M 216.544787 157.637686 
Q 216.256723 157.959388 216.714482 157.448175 
" clip-path="url(#pb803f37af6)" style="fill: none; stroke: #000000; stroke-linecap: round"/>
    <path d="M 220.872784 155.802415 
L 216.714482 157.448175 
L 217.892855 153.134077 
z
" clip-path="url(#pb803f37af6)" style="stroke: #000000; stroke-linecap: round"/>
   </g>
   <g id="patch_50">
    <path d="M 242.853009 132.815991 
Q 242.517505 133.08786 243.050645 132.655841 
" clip-path="url(#pb803f37af6)" style="fill: none; stroke: #000000; stroke-linecap: round"/>
    <path d="M 247.417553 131.691415 
L 243.050645 132.655841 
L 244.899249 128.583659 
z
" clip-path="url(#pb803f37af6)" style="stroke: #000000; stroke-linecap: round"/>
   </g>
   <g id="patch_51">
    <path d="M 243.111944 109.489852 
Q 242.746428 109.719787 243.327268 109.354398 
" clip-path="url(#pb803f37af6)" style="fill: none; stroke: #000000; stroke-linecap: round"/>
    <path d="M 247.778 108.917387 
L 243.327268 109.354398 
L 245.648099 105.531605 
z
" clip-path="url(#pb803f37af6)" style="stroke: #000000; stroke-linecap: round"/>
   </g>
   <g id="patch_52">
    <path d="M 204.446305 67.197229 
Q 203.79481 66.580746 203.955404 66.73271 
" clip-path="url(#pb803f37af6)" style="fill: none; stroke: #000000; stroke-linecap: round"/>
    <path d="M 205.486188 70.934698 
L 203.955404 66.73271 
L 208.235465 68.029276 
z
" clip-path="url(#pb803f37af6)" style="stroke: #000000; stroke-linecap: round"/>
   </g>
   <g id="patch_53">
    <path d="M 127.964823 48.824489 
Q 128.264371 48.513469 127.78834 49.00773 
" clip-path="url(#pb803f37af6)" style="fill: none; stroke: #000000; stroke-linecap: round"/>
    <path d="M 123.573015 50.501394 
L 127.78834 49.00773 
L 126.454076 53.276189 
z
" clip-path="url(#pb803f37af6)" style="stroke: #000000; stroke-linecap: round"/>
   </g>
   <g id="patch_54">
    <path d="M 127.166297 35.699798 
Q 127.454361 35.378096 126.996602 35.889309 
" clip-path="url(#pb803f37af6)" style="fill: none; stroke: #000000; stroke-linecap: round"/>
    <path d="M 122.8383 37.53507 
L 126.996602 35.889309 
L 125.818229 40.203407 
z
" clip-path="url(#pb803f37af6)" style="stroke: #000000; stroke-linecap: round"/>
   </g>
   <g id="patch_55">
    <path d="M 100.858074 60.521493 
Q 101.193578 60.249625 100.660438 60.681644 
" clip-path="url(#pb803f37af6)" style="fill: none; stroke: #000000; stroke-linecap: round"/>
    <path d="M 96.29353 61.646069 
L 100.660438 60.681644 
L 98.811834 64.753825 
z
" clip-path="url(#pb803f37af6)" style="stroke: #000000; stroke-linecap: round"/>
   </g>
   <g id="patch_56">
    <path d="M 100.59914 83.847633 
Q 100.964655 83.617697 100.383816 83.983087 
" clip-path="url(#pb803f37af6)" style="fill: none; stroke: #000000; stroke-linecap: round"/>
    <path d="M 95.933083 84.420097 
L 100.383816 83.983087 
L 98.062984 87.805879 
z
" clip-path="url(#pb803f37af6)" style="stroke: #000000; stroke-linecap: round"/>
   </g>
   <g id="patch_57">
    <path d="M 120.652723 147.671965 
Q 120.733928 147.753732 120.027291 147.04221 
" clip-path="url(#pb803f37af6)" style="fill: none; stroke: #000000; stroke-linecap: round"/>
    <path d="M 118.627698 142.794724 
L 120.027291 147.04221 
L 115.789546 145.613393 
z
" clip-path="url(#pb803f37af6)" style="stroke: #000000; stroke-linecap: round"/>
   </g>
   <g id="patch_58">
    <path d="M 223.18583 45.790743 
Q 223.104064 45.709538 223.815585 46.416175 
" clip-path="url(#pb803f37af6)" style="fill: none; stroke: #000000; stroke-linecap: round"/>
    <path d="M 225.244402 50.65392 
L 223.815585 46.416175 
L 228.063071 47.815768 
z
" clip-path="url(#pb803f37af6)" style="stroke: #000000; stroke-linecap: round"/>
   </g>
   <g id="patch_59">
    <path d="M 158.765621 105.934884 
Q 159.202837 106.146894 158.634054 105.871087 
" clip-path="url(#pb803f37af6)" style="fill: none; stroke: #000000; stroke-linecap: round"/>
    <path d="M 155.907518 102.326231 
L 158.634054 105.871087 
L 154.162248 105.925402 
z
" clip-path="url(#pb803f37af6)" style="stroke: #000000; stroke-linecap: round"/>
   </g>
   <g id="patch_60">
    <path d="M 200.90486 144.156512 
Q 200.626645 144.486732 201.068801 143.961928 
" clip-path="url(#pb803f37af6)" style="fill: none; stroke: #000000; stroke-linecap: round"/>
    <path d="M 205.175593 142.191546 
L 201.068801 143.961928 
L 202.11657 139.614265 
z
" clip-path="url(#pb803f37af6)" style="stroke: #000000; stroke-linecap: round"/>
   </g>
   <g id="patch_61">
    <path d="M 188.465064 87.941993 
Q 187.711693 87.845343 188.067267 87.890959 
" clip-path="url(#pb803f37af6)" style="fill: none; stroke: #000000; stroke-linecap: round"/>
    <path d="M 191.780259 90.383688 
L 188.067267 87.890959 
L 192.289245 86.416203 
z
" clip-path="url(#pb803f37af6)" style="stroke: #000000; stroke-linecap: round"/>
   </g>
   <g id="patch_62">
    <path d="M 142.806223 49.180972 
Q 143.084439 48.850752 142.642283 49.375556 
" clip-path="url(#pb803f37af6)" style="fill: none; stroke: #000000; stroke-linecap: round"/>
    <path d="M 138.53549 51.145939 
L 142.642283 49.375556 
L 141.594514 53.72322 
z
" clip-path="url(#pb803f37af6)" style="stroke: #000000; stroke-linecap: round"/>
   </g>
   <g id="patch_63">
    <path d="M 213.102505 126.731005 
Q 212.783297 127.021766 213.290629 126.559646 
" clip-path="url(#pb803f37af6)" style="fill: none; stroke: #000000; stroke-linecap: round"/>
    <path d="M 217.594547 125.344619 
L 213.290629 126.559646 
L 214.900958 122.387496 
z
" clip-path="url(#pb803f37af6)" style="stroke: #000000; stroke-linecap: round"/>
   </g>
   <g id="patch_64">
    <path d="M 130.608578 66.60648 
Q 130.927787 66.315719 130.420454 66.777838 
" clip-path="url(#pb803f37af6)" style="fill: none; stroke: #000000; stroke-linecap: round"/>
    <path d="M 126.116537 67.992866 
L 130.420454 66.777838 
L 128.810126 70.949989 
z
" clip-path="url(#pb803f37af6)" style="stroke: #000000; stroke-linecap: round"/>
   </g>
   <g id="patch_65">
    <path d="M 179.896333 121.281273 
Q 179.650069 121.635724 180.041733 121.071998 
" clip-path="url(#pb803f37af6)" style="fill: none; stroke: #000000; stroke-linecap: round"/>
    <path d="M 183.966537 118.92819 
L 180.041733 121.071998 
L 180.681569 116.645869 
z
" clip-path="url(#pb803f37af6)" style="stroke: #000000; stroke-linecap: round"/>
   </g>
   <g id="patch_66">
    <path d="M 196.853368 118.025779 
Q 196.542838 118.325637 197.036578 117.848867 
" clip-path="url(#pb803f37af6)" style="fill: none; stroke: #000000; stroke-linecap: round"/>
    <path d="M 201.303293 116.509038 
L 197.036578 117.848867 
L 198.524744 113.631597 
z
" clip-path="url(#pb803f37af6)" style="stroke: #000000; stroke-linecap: round"/>
   </g>
   <g id="patch_67">
    <path d="M 207.203364 120.834756 
Q 206.881508 121.122535 207.393111 120.665098 
" clip-path="url(#pb803f37af6)" style="fill: none; stroke: #000000; stroke-linecap: round"/>
    <path d="M 211.708068 119.489875 
L 207.393111 120.665098 
L 209.041906 116.507999 
z
" clip-path="url(#pb803f37af6)" style="stroke: #000000; stroke-linecap: round"/>
   </g>
   <g id="patch_68">
    <path d="M 163.814751 72.056211 
Q 164.061015 71.701761 163.669351 72.265487 
" clip-path="url(#pb803f37af6)" style="fill: none; stroke: #000000; stroke-linecap: round"/>
    <path d="M 159.744547 74.409295 
L 163.669351 72.265487 
L 163.029515 76.691615 
z
" clip-path="url(#pb803f37af6)" style="stroke: #000000; stroke-linecap: round"/>
   </g>
   <g id="patch_69">
    <path d="M 146.857715 75.311705 
Q 147.168245 75.011848 146.674506 75.488618 
" clip-path="url(#pb803f37af6)" style="fill: none; stroke: #000000; stroke-linecap: round"/>
    <path d="M 142.40779 76.828446 
L 146.674506 75.488618 
L 145.186339 79.705887 
z
" clip-path="url(#pb803f37af6)" style="stroke: #000000; stroke-linecap: round"/>
   </g>
   <g id="patch_70">
    <path d="M 136.507719 72.502729 
Q 136.829576 72.21495 136.317972 72.672386 
" clip-path="url(#pb803f37af6)" style="fill: none; stroke: #000000; stroke-linecap: round"/>
    <path d="M 132.003016 73.84761 
L 136.317972 72.672386 
L 134.669177 76.829485 
z
" clip-path="url(#pb803f37af6)" style="stroke: #000000; stroke-linecap: round"/>
   </g>
   <g id="patch_71">
    <path d="M 151.794478 111.724959 
Q 152.333381 112.021955 151.893105 111.779314 
" clip-path="url(#pb803f37af6)" style="fill: none; stroke: #000000; stroke-linecap: round"/>
    <path d="M 149.355218 108.097041 
L 151.893105 111.779314 
L 147.424555 111.60026 
z
" clip-path="url(#pb803f37af6)" style="stroke: #000000; stroke-linecap: round"/>
   </g>
   <g id="patch_72">
    <path d="M 178.425411 101.657897 
Q 178.311621 101.763853 179.016065 101.107908 
" clip-path="url(#pb803f37af6)" style="fill: none; stroke: #000000; stroke-linecap: round"/>
    <path d="M 183.306398 99.845748 
L 179.016065 101.107908 
L 180.580537 96.918346 
z
" clip-path="url(#pb803f37af6)" style="stroke: #000000; stroke-linecap: round"/>
   </g>
   <g id="patch_73">
    <path d="M 188.099741 78.763291 
Q 187.802746 78.224388 188.045387 78.664664 
" clip-path="url(#pb803f37af6)" style="fill: none; stroke: #000000; stroke-linecap: round"/>
    <path d="M 188.224441 83.133214 
L 188.045387 78.664664 
L 191.727659 81.202551 
z
" clip-path="url(#pb803f37af6)" style="stroke: #000000; stroke-linecap: round"/>
   </g>
   <g id="patch_74">
    <path d="M 165.285672 91.679588 
Q 165.399462 91.573632 164.695018 92.229577 
" clip-path="url(#pb803f37af6)" style="fill: none; stroke: #000000; stroke-linecap: round"/>
    <path d="M 160.404686 93.491736 
L 164.695018 92.229577 
L 163.130546 96.419138 
z
" clip-path="url(#pb803f37af6)" style="stroke: #000000; stroke-linecap: round"/>
   </g>
   <g id="patch_75">
    <path d="M 174.816533 99.629733 
Q 174.333325 100.249981 174.537226 99.988253 
" clip-path="url(#pb803f37af6)" style="fill: none; stroke: #000000; stroke-linecap: round"/>
    <path d="M 178.573227 98.061936 
L 174.537226 99.988253 
L 175.417774 95.603662 
z
" clip-path="url(#pb803f37af6)" style="stroke: #000000; stroke-linecap: round"/>
   </g>
   <g id="patch_76">
    <path d="M 166.413559 95.640582 
Q 167.033807 95.157374 166.772079 95.361275 
" clip-path="url(#pb803f37af6)" style="fill: none; stroke: #000000; stroke-linecap: round"/>
    <path d="M 162.387488 96.241823 
L 166.772079 95.361275 
L 164.845763 99.397276 
z
" clip-path="url(#pb803f37af6)" style="stroke: #000000; stroke-linecap: round"/>
   </g>
   <g id="line2d_1">
    <defs>
     <path id="m0f32619181" d="M 0 2.5 
C 0.663008 2.5 1.29895 2.236584 1.767767 1.767767 
C 2.236584 1.29895 2.5 0.663008 2.5 0 
C 2.5 -0.663008 2.236584 -1.29895 1.767767 -1.767767 
C 1.29895 -2.236584 0.663008 -2.5 0 -2.5 
C -0.663008 -2.5 -1.29895 -2.236584 -1.767767 -1.767767 
C -2.236584 -1.29895 -2.5 -0.663008 -2.5 0 
C -2.5 0.663008 -2.236584 1.29895 -1.767767 1.767767 
C -1.29895 2.236584 -0.663008 2.5 0 2.5 
z
" style="stroke: #000000"/>
    </defs>
    <g clip-path="url(#pb803f37af6)">
     <use xlink:href="#m0f32619181" x="171.855542" y="96.668742" style="stroke: #000000"/>
    </g>
   </g>
  </g>
 </g>
 <defs>
  <clipPath id="pb803f37af6">
   <rect x="85.9868" y="10.8" width="171.737484" height="171.737484"/>
  </clipPath>
 </defs>
</svg>
