<?xml version="1.0" encoding="utf-8" standalone="no"?>
<!DOCTYPE svg PUBLIC "-//W3C//DTD SVG 1.1//EN"
  "http://www.w3.org/Graphics/SVG/1.1/DTD/svg11.dtd">
<svg xmlns:xlink="http://www.w3.org/1999/xlink" width="343.711083pt" height="193.337484pt" viewBox="0 0 343.711083 193.337484" xmlns="http://www.w3.org/2000/svg" version="1.1">
 <metadata>
  <rdf:RDF xmlns:dc="http://purl.org/dc/elements/1.1/" xmlns:cc="http://creativecommons.org/ns#" xmlns:rdf="http://www.w3.org/1999/02/22-rdf-syntax-ns#">
   <cc:Work>
    <dc:type rdf:resource="http://purl.org/dc/dcmitype/StillImage"/>
    <dc:date>2026-02-12T22:42:51.204028</dc:date>
    <dc:format>image/svg+xml</dc:format>
    <dc:creator>
     <cc:Agent>
      <dc:title>Matplotlib v3.10.0, https://matplotlib.org/</dc:title>
     </cc:Agent>
    </dc:creator>
   </cc:Work>
  </rdf:RDF>
 </metadata>
 <defs>
  <style type="text/css">*{stroke-linejoin: round; stroke-linecap: butt}</style>
 </defs>
 <g id="figure_1">
  <g id="patch_1">
   <path d="M 0 193.337484 
L 343.711083 193.337484 
L 343.711083 0 
L 0 0 
z
" style="fill: #ffffff"/>
  </g>
  <g id="axes_1">
   <g id="patch_2">
    <path d="M 30.530079 166.681808 
L 332.911083 166.681808 
L 332.911083 10.8 
L 30.530079 10.8 
z
" style="fill: #ffffff"/>
   </g>
   <g id="matplotlib.axis_1">
    <g id="xtick_1">
     <g id="line2d_1">
      <path d="M 55.728496 166.681808 
L 55.728496 10.8 
" clip-path="url(#p584604f747)" style="fill: none; stroke: #b0b0b0; stroke-width: 0.8; stroke-linecap: square"/>
     </g>
     <g id="line2d_2">
      <defs>
       <path id="m5a0de18953" d="M 0 0 
L 0 3.5 
" style="stroke: #000000; stroke-width: 0.8"/>
      </defs>
      <g>
       <use xlink:href="#m5a0de18953" x="55.728496" y="166.681808" style="stroke: #000000; stroke-width: 0.8"/>
      </g>
     </g>
     <g id="text_1">
      <!-- $-2\pi$ -->
      <g transform="translate(46.523969 180.600306) scale(0.1 -0.1)">
       <defs>
        <path id="CMSY10-0" d="M 4218 1472 
C 4326 1472 4442 1472 4442 1600 
C 4442 1728 4326 1728 4218 1728 
L 755 1728 
C 646 1728 531 1728 531 1600 
C 531 1472 646 1472 755 1472 
L 4218 1472 
z
" transform="scale(0.015625)"/>
        <path id="CMR17-32" d="M 2669 990 
L 2554 990 
C 2490 537 2438 460 2413 422 
C 2381 371 1920 371 1830 371 
L 602 371 
C 832 620 1280 1073 1824 1596 
C 2214 1966 2669 2400 2669 3033 
C 2669 3788 2067 4224 1395 4224 
C 691 4224 262 3603 262 3027 
C 262 2777 448 2745 525 2745 
C 589 2745 781 2783 781 3007 
C 781 3206 614 3264 525 3264 
C 486 3264 448 3257 422 3244 
C 544 3788 915 4057 1306 4057 
C 1862 4057 2227 3616 2227 3033 
C 2227 2477 1901 1998 1536 1583 
L 262 147 
L 262 0 
L 2515 0 
L 2669 990 
z
" transform="scale(0.015625)"/>
        <path id="CMMI12-19" d="M 1658 2406 
L 2381 2406 
C 2208 1691 2099 1225 2099 715 
C 2099 625 2099 -64 2362 -64 
C 2496 -64 2611 57 2611 166 
C 2611 198 2611 210 2566 306 
C 2394 746 2394 1295 2394 1340 
C 2394 1378 2394 1832 2528 2406 
L 3245 2406 
C 3328 2406 3539 2406 3539 2611 
C 3539 2752 3418 2752 3302 2752 
L 1197 2752 
C 1050 2752 832 2752 538 2438 
C 371 2253 166 1915 166 1876 
C 166 1838 198 1825 237 1825 
C 282 1825 288 1844 320 1883 
C 653 2406 986 2406 1146 2406 
L 1510 2406 
C 1370 1927 1210 1372 685 255 
C 634 153 634 140 634 102 
C 634 -32 749 -64 806 -64 
C 992 -64 1043 102 1120 370 
C 1222 695 1222 708 1286 964 
L 1658 2406 
z
" transform="scale(0.015625)"/>
       </defs>
       <use xlink:href="#CMSY10-0" transform="scale(0.996264)"/>
       <use xlink:href="#CMR17-32" transform="translate(77.487468 0) scale(0.996264)"/>
       <use xlink:href="#CMMI12-19" transform="translate(123.177945 0) scale(0.996264)"/>
      </g>
     </g>
    </g>
    <g id="xtick_2">
     <g id="line2d_3">
      <path d="M 118.724539 166.681808 
L 118.724539 10.8 
" clip-path="url(#p584604f747)" style="fill: none; stroke: #b0b0b0; stroke-width: 0.8; stroke-linecap: square"/>
     </g>
     <g id="line2d_4">
      <g>
       <use xlink:href="#m5a0de18953" x="118.724539" y="166.681808" style="stroke: #000000; stroke-width: 0.8"/>
      </g>
     </g>
     <g id="text_2">
      <!-- $\pi$ -->
      <g transform="translate(115.885051 180.600306) scale(0.1 -0.1)">
       <use xlink:href="#CMMI12-19" transform="scale(0.996264)"/>
      </g>
     </g>
    </g>
    <g id="xtick_3">
     <g id="line2d_5">
      <path d="M 181.720581 166.681808 
L 181.720581 10.8 
" clip-path="url(#p584604f747)" style="fill: none; stroke: #b0b0b0; stroke-width: 0.8; stroke-linecap: square"/>
     </g>
     <g id="line2d_6">
      <g>
       <use xlink:href="#m5a0de18953" x="181.720581" y="166.681808" style="stroke: #000000; stroke-width: 0.8"/>
      </g>
     </g>
     <g id="text_3">
      <!-- $0$ -->
      <g transform="translate(179.229914 180.600306) scale(0.1 -0.1)">
       <defs>
        <path id="CMR17-30" d="M 2688 2038 
C 2688 2430 2682 3099 2413 3613 
C 2176 4063 1798 4224 1466 4224 
C 1158 4224 768 4082 525 3620 
C 269 3137 243 2539 243 2038 
C 243 1671 250 1112 448 623 
C 723 -39 1216 -128 1466 -128 
C 1760 -128 2208 -7 2470 604 
C 2662 1048 2688 1568 2688 2038 
z
M 1466 -26 
C 1056 -26 813 328 723 816 
C 653 1196 653 1749 653 2109 
C 653 2604 653 3015 736 3407 
C 858 3954 1216 4121 1466 4121 
C 1728 4121 2067 3947 2189 3420 
C 2272 3054 2278 2623 2278 2109 
C 2278 1691 2278 1176 2202 797 
C 2067 96 1690 -26 1466 -26 
z
" transform="scale(0.015625)"/>
       </defs>
       <use xlink:href="#CMR17-30" transform="scale(0.996264)"/>
      </g>
     </g>
    </g>
    <g id="xtick_4">
     <g id="line2d_7">
      <path d="M 244.716624 166.681808 
L 244.716624 10.8 
" clip-path="url(#p584604f747)" style="fill: none; stroke: #b0b0b0; stroke-width: 0.8; stroke-linecap: square"/>
     </g>
     <g id="line2d_8">
      <g>
       <use xlink:href="#m5a0de18953" x="244.716624" y="166.681808" style="stroke: #000000; stroke-width: 0.8"/>
      </g>
     </g>
     <g id="text_4">
      <!-- $\pi$ -->
      <g transform="translate(241.877136 180.600306) scale(0.1 -0.1)">
       <use xlink:href="#CMMI12-19" transform="scale(0.996264)"/>
      </g>
     </g>
    </g>
    <g id="xtick_5">
     <g id="line2d_9">
      <path d="M 307.712666 166.681808 
L 307.712666 10.8 
" clip-path="url(#p584604f747)" style="fill: none; stroke: #b0b0b0; stroke-width: 0.8; stroke-linecap: square"/>
     </g>
     <g id="line2d_10">
      <g>
       <use xlink:href="#m5a0de18953" x="307.712666" y="166.681808" style="stroke: #000000; stroke-width: 0.8"/>
      </g>
     </g>
     <g id="text_5">
      <!-- $2\pi$ -->
      <g transform="translate(302.382511 180.600306) scale(0.1 -0.1)">
       <use xlink:href="#CMR17-32" transform="scale(0.996264)"/>
       <use xlink:href="#CMMI12-19" transform="translate(45.690477 0) scale(0.996264)"/>
      </g>
     </g>
    </g>
   </g>
   <g id="matplotlib.axis_2">
    <g id="ytick_1">
     <g id="line2d_11">
      <path d="M 30.530079 151.093627 
L 332.911083 151.093627 
" clip-path="url(#p584604f747)" style="fill: none; stroke: #b0b0b0; stroke-width: 0.8; stroke-linecap: square"/>
     </g>
     <g id="line2d_12">
      <defs>
       <path id="mb41c93c7bc" d="M 0 0 
L -3.5 0 
" style="stroke: #000000; stroke-width: 0.8"/>
      </defs>
      <g>
       <use xlink:href="#mb41c93c7bc" x="30.530079" y="151.093627" style="stroke: #000000; stroke-width: 0.8"/>
      </g>
     </g>
     <g id="text_6">
      <!-- $\mathdefault{−4}$ -->
      <g transform="translate(10.8 154.552876) scale(0.1 -0.1)">
       <defs>
        <path id="CMR17-34" d="M 2150 4147 
C 2150 4281 2144 4288 2029 4288 
L 128 1254 
L 128 1088 
L 1779 1088 
L 1779 460 
C 1779 230 1766 166 1318 166 
L 1197 166 
L 1197 0 
C 1402 12 1747 12 1965 12 
C 2182 12 2528 12 2733 0 
L 2733 166 
L 2611 166 
C 2163 166 2150 230 2150 460 
L 2150 1088 
L 2803 1088 
L 2803 1254 
L 2150 1254 
L 2150 4147 
z
M 1798 3723 
L 1798 1254 
L 256 1254 
L 1798 3723 
z
" transform="scale(0.015625)"/>
       </defs>
       <use xlink:href="#CMSY10-0" transform="scale(0.996264)"/>
       <use xlink:href="#CMR17-34" transform="translate(77.487468 0) scale(0.996264)"/>
      </g>
     </g>
    </g>
    <g id="ytick_2">
     <g id="line2d_13">
      <path d="M 30.530079 119.917265 
L 332.911083 119.917265 
" clip-path="url(#p584604f747)" style="fill: none; stroke: #b0b0b0; stroke-width: 0.8; stroke-linecap: square"/>
     </g>
     <g id="line2d_14">
      <g>
       <use xlink:href="#mb41c93c7bc" x="30.530079" y="119.917265" style="stroke: #000000; stroke-width: 0.8"/>
      </g>
     </g>
     <g id="text_7">
      <!-- $\mathdefault{−2}$ -->
      <g transform="translate(10.8 123.376515) scale(0.1 -0.1)">
       <use xlink:href="#CMSY10-0" transform="scale(0.996264)"/>
       <use xlink:href="#CMR17-32" transform="translate(77.487468 0) scale(0.996264)"/>
      </g>
     </g>
    </g>
    <g id="ytick_3">
     <g id="line2d_15">
      <path d="M 30.530079 88.740904 
L 332.911083 88.740904 
" clip-path="url(#p584604f747)" style="fill: none; stroke: #b0b0b0; stroke-width: 0.8; stroke-linecap: square"/>
     </g>
     <g id="line2d_16">
      <g>
       <use xlink:href="#mb41c93c7bc" x="30.530079" y="88.740904" style="stroke: #000000; stroke-width: 0.8"/>
      </g>
     </g>
     <g id="text_8">
      <!-- $\mathdefault{0}$ -->
      <g transform="translate(18.548744 92.200153) scale(0.1 -0.1)">
       <use xlink:href="#CMR17-30" transform="scale(0.996264)"/>
      </g>
     </g>
    </g>
    <g id="ytick_4">
     <g id="line2d_17">
      <path d="M 30.530079 57.564542 
L 332.911083 57.564542 
" clip-path="url(#p584604f747)" style="fill: none; stroke: #b0b0b0; stroke-width: 0.8; stroke-linecap: square"/>
     </g>
     <g id="line2d_18">
      <g>
       <use xlink:href="#mb41c93c7bc" x="30.530079" y="57.564542" style="stroke: #000000; stroke-width: 0.8"/>
      </g>
     </g>
     <g id="text_9">
      <!-- $\mathdefault{2}$ -->
      <g transform="translate(18.548744 61.023792) scale(0.1 -0.1)">
       <use xlink:href="#CMR17-32" transform="scale(0.996264)"/>
      </g>
     </g>
    </g>
    <g id="ytick_5">
     <g id="line2d_19">
      <path d="M 30.530079 26.388181 
L 332.911083 26.388181 
" clip-path="url(#p584604f747)" style="fill: none; stroke: #b0b0b0; stroke-width: 0.8; stroke-linecap: square"/>
     </g>
     <g id="line2d_20">
      <g>
       <use xlink:href="#mb41c93c7bc" x="30.530079" y="26.388181" style="stroke: #000000; stroke-width: 0.8"/>
      </g>
     </g>
     <g id="text_10">
      <!-- $\mathdefault{4}$ -->
      <g transform="translate(18.548744 29.84743) scale(0.1 -0.1)">
       <use xlink:href="#CMR17-34" transform="scale(0.996264)"/>
      </g>
     </g>
    </g>
   </g>
   <g id="LineCollection_1">
    <path d="M 51.383941 166.681808 
L 51.383941 166.681808 
L 51.383941 166.681808 
L 47.620352 164.931228 
L 44.992394 163.059001 
L 41.906627 160.179996 
L 38.546888 156.184277 
L 35.213431 151.283434 
L 32.370881 146.299557 
L 30.530079 142.806754 
" clip-path="url(#p584604f747)" style="fill: none; stroke: #000000"/>
    <path d="M 62.36149 10.8 
L 64.641099 12.324783 
L 68.839309 15.80767 
L 68.839309 15.80767 
L 72.949384 20.545516 
L 76.305723 25.442705 
L 79.173445 30.42289 
L 81.682168 35.454757 
L 83.90279 40.522678 
L 85.87576 45.617855 
L 87.623827 50.73486 
L 89.158278 55.87006 
L 90.48264 61.020779 
L 91.595109 66.184791 
L 92.490373 71.359996 
L 93.161462 76.544188 
L 93.601394 81.734941 
L 93.804669 86.929578 
L 93.768492 92.125236 
L 93.493354 97.319 
L 92.982924 102.508049 
L 92.24328 107.689775 
L 91.281562 112.861824 
L 90.10442 118.022036 
L 88.716255 123.168296 
L 87.117492 128.298279 
L 85.302507 133.409077 
L 83.256902 138.496606 
L 80.953248 143.554596 
L 78.343261 148.572589 
L 75.341339 153.531266 
L 71.785198 158.389288 
L 68.483849 161.986081 
L 65.685432 164.374164 
L 61.810873 166.681808 
L 61.810873 166.681808 
L 61.810873 166.681808 
" clip-path="url(#p584604f747)" style="fill: none; stroke: #000000"/>
    <path d="M 154.783699 166.681808 
L 154.092249 165.632672 
L 150.970187 160.692574 
L 148.054696 155.718862 
L 145.294865 150.721509 
L 142.6537 145.70709 
L 140.102373 140.68029 
L 137.616344 135.644782 
L 135.172276 130.603805 
L 132.744446 125.560741 
L 130.29838 120.520038 
L 127.775377 115.489546 
L 125.037211 110.490072 
L 123.085127 107.48674 
L 121.642017 105.764259 
L 120.568109 104.857914 
L 119.494335 104.343911 
L 118.017025 104.320688 
L 118.017025 104.320688 
L 116.49086 105.166641 
L 116.49086 105.166641 
L 115.04978 106.63711 
L 115.04978 106.63711 
L 111.824379 111.555313 
L 109.148289 116.564459 
L 106.644997 121.597635 
L 104.203751 126.638966 
L 101.772896 131.681643 
L 99.320358 136.721525 
L 96.821155 141.7553 
L 94.251809 146.779659 
L 91.587056 151.790759 
L 88.796611 156.783584 
L 85.840973 161.750969 
L 82.664735 166.681808 
L 82.664735 166.681808 
" clip-path="url(#p584604f747)" style="fill: none; stroke: #000000"/>
    <path d="M 144.380364 166.681808 
L 143.60324 165.543941 
L 140.244532 160.644859 
L 136.811518 155.759625 
L 133.164412 150.916539 
L 129.66968 146.851459 
L 126.853069 144.162217 
L 124.488031 142.419578 
L 122.416663 141.341917 
L 120.280638 140.711957 
L 117.837768 140.617797 
L 117.837768 140.617797 
L 115.206119 141.276602 
L 115.206119 141.276602 
L 112.435314 142.775924 
L 112.435314 142.775924 
L 107.424741 147.265892 
L 103.438276 152.035965 
L 99.85643 156.892406 
L 96.448723 161.78242 
L 93.091666 166.681808 
L 93.091666 166.681808 
" clip-path="url(#p584604f747)" style="fill: none; stroke: #000000"/>
    <path d="M 133.985301 166.681808 
L 132.656493 165.361952 
L 129.265286 162.300911 
L 126.407217 160.25398 
L 123.891674 158.930321 
L 121.465944 158.124551 
L 118.461321 157.80687 
L 115.525456 158.240747 
L 115.525456 158.240747 
L 112.311933 159.534453 
L 112.311933 159.534453 
L 108.402141 162.143727 
L 108.402141 162.143727 
L 103.518597 166.681808 
L 103.518597 166.681808 
" clip-path="url(#p584604f747)" style="fill: none; stroke: #000000"/>
    <path d="M 166.080184 166.681808 
L 166.080184 166.681808 
L 162.114737 161.910069 
L 158.762384 157.011731 
L 155.822921 152.042455 
L 153.191958 147.027064 
L 150.809837 141.978561 
L 148.64157 136.904427 
L 146.667637 131.809218 
L 144.879308 126.695818 
L 143.276169 121.566128 
L 141.864498 116.421528 
L 140.656108 111.263225 
L 139.666809 106.092582 
L 138.914409 100.9114 
L 138.416072 95.722128 
L 138.185129 90.527903 
L 138.228367 85.332377 
L 138.544439 80.139345 
L 139.124199 74.952323 
L 139.952742 69.774231 
L 141.012411 64.607298 
L 142.285741 59.453153 
L 143.758059 54.31308 
L 145.419142 49.1883 
L 147.264678 44.080316 
L 149.29743 38.991273 
L 151.529145 33.924477 
L 153.983372 28.885194 
L 156.701156 23.882175 
L 159.752404 18.930933 
L 163.261314 14.062012 
L 165.83597 10.8 
" clip-path="url(#p584604f747)" style="fill: none; stroke: #000000"/>
    <path d="M 187.791314 10.8 
L 190.57311 12.657051 
L 195.707864 17.105782 
L 199.621434 21.889013 
L 202.852693 26.80885 
L 205.628082 31.803041 
L 208.061486 36.844779 
L 210.215957 41.920306 
L 212.127554 47.021707 
L 213.816317 52.144005 
L 215.291692 57.283802 
L 216.556049 62.438524 
L 217.606855 67.605963 
L 218.438656 72.783977 
L 219.044671 77.970295 
L 219.418503 83.162423 
L 219.555529 88.357639 
L 219.453903 93.553071 
L 219.114974 98.745838 
L 218.542975 103.933187 
L 217.744106 109.112583 
L 216.725181 114.281724 
L 215.491962 119.438456 
L 214.047488 124.580592 
L 212.39025 129.70563 
L 210.511917 134.81032 
L 208.394242 139.889964 
L 206.003767 144.937155 
L 203.281874 149.939139 
L 200.123022 154.871339 
L 196.651471 159.307793 
L 193.458818 162.536056 
L 190.750705 164.656545 
L 186.934047 166.681808 
L 186.934047 166.681808 
L 186.934047 166.681808 
" clip-path="url(#p584604f747)" style="fill: none; stroke: #000000"/>
    <path d="M 281.540003 166.681808 
L 278.981804 162.603789 
L 275.988876 157.642423 
L 273.185211 152.651622 
L 270.528244 147.639465 
L 267.987259 142.611308 
L 265.539041 137.570908 
L 263.165178 132.521048 
L 260.850294 127.463905 
L 258.580609 122.401314 
L 256.34248 117.334984 
L 254.1199 112.266838 
L 251.88843 107.199756 
L 249.593061 102.140436 
L 247.72906 98.394354 
L 246.574028 96.493662 
L 245.845107 95.620464 
L 245.208607 95.176076 
L 244.317979 95.127577 
L 244.317979 95.127577 
L 244.317979 95.127577 
L 243.048661 96.28421 
L 243.048661 96.28421 
L 240.281112 101.277101 
L 237.953442 106.332515 
L 235.711557 111.398378 
L 233.486548 116.466239 
L 231.250312 121.532788 
L 228.985575 126.595971 
L 226.678311 131.654045 
L 224.314737 136.705196 
L 221.879758 141.74731 
L 219.355529 146.777722 
L 216.719761 151.79287 
L 213.94316 156.787713 
L 210.985449 161.754721 
L 207.787909 166.681808 
L 207.787909 166.681808 
" clip-path="url(#p584604f747)" style="fill: none; stroke: #000000"/>
    <path d="M 271.24084 166.681808 
L 270.971244 166.28256 
L 267.666559 161.373722 
L 264.338401 156.469138 
L 260.881599 151.588556 
L 257.11303 146.771312 
L 254.027642 143.433609 
L 251.497823 141.251149 
L 249.337024 139.866633 
L 247.36376 139.037043 
L 244.923597 138.627794 
L 242.42828 138.935033 
L 242.42828 138.935033 
L 239.726449 140.080751 
L 239.726449 140.080751 
L 236.441131 142.496542 
L 236.441131 142.496542 
L 232.022496 147.159463 
L 228.289932 151.984946 
L 224.847037 156.868249 
L 221.52257 161.773514 
L 218.21484 166.681808 
L 218.21484 166.681808 
" clip-path="url(#p584604f747)" style="fill: none; stroke: #000000"/>
    <path d="M 260.992992 166.681808 
L 257.962788 163.734672 
L 254.693039 160.856865 
L 251.921046 158.941399 
L 249.466158 157.715048 
L 247.017598 156.976641 
L 243.807932 156.781919 
L 240.839284 157.396808 
L 240.839284 157.396808 
L 237.575782 158.913829 
L 237.575782 158.913829 
L 233.292133 162.076621 
L 233.292133 162.076621 
L 228.641772 166.681808 
L 228.641772 166.681808 
" clip-path="url(#p584604f747)" style="fill: none; stroke: #000000"/>
    <path d="M 301.63029 166.681808 
L 301.63029 166.681808 
L 301.63029 166.681808 
L 297.75573 164.374164 
L 294.957313 161.986081 
L 291.655965 158.389288 
L 288.099823 153.531266 
L 285.097902 148.572589 
L 282.487914 143.554596 
L 280.18426 138.496606 
L 278.138655 133.409077 
L 276.32367 128.298279 
L 274.724907 123.168296 
L 273.336742 118.022036 
L 272.1596 112.861824 
L 271.197882 107.689775 
L 270.458239 102.508049 
L 269.947808 97.319 
L 269.67267 92.125236 
L 269.636493 86.929578 
L 269.839769 81.734941 
L 270.279701 76.544188 
L 270.950789 71.359996 
L 271.846054 66.184791 
L 272.958523 61.020779 
L 274.282885 55.87006 
L 275.817335 50.73486 
L 277.565402 45.617855 
L 279.538372 40.522678 
L 281.758994 35.454757 
L 284.267718 30.42289 
L 287.135439 25.442705 
L 290.491778 20.545516 
L 294.601854 15.80767 
L 294.601854 15.80767 
L 298.800063 12.324783 
L 301.079673 10.8 
" clip-path="url(#p584604f747)" style="fill: none; stroke: #000000"/>
    <path d="M 332.911083 142.806754 
L 331.070282 146.299557 
L 328.227732 151.283434 
L 324.894275 156.184277 
L 321.534535 160.179996 
L 318.448769 163.059001 
L 315.82081 164.931228 
L 312.057221 166.681808 
L 312.057221 166.681808 
L 312.057221 166.681808 
" clip-path="url(#p584604f747)" style="fill: none; stroke: #000000"/>
    <path d="M 332.911083 129.055164 
L 332.911083 129.055164 
L 330.943784 134.15072 
L 328.653238 139.210005 
L 325.958005 144.215444 
L 322.702247 149.129915 
" clip-path="url(#p584604f747)" style="fill: none; stroke: #000000"/>
    <path d="M 332.911083 107.554225 
L 332.911083 107.554225 
L 331.924141 112.724908 
L 330.676018 117.88051 
L 329.143905 123.015619 
L 327.288976 128.122153 
L 325.043092 133.186352 
L 322.278062 138.180665 
" clip-path="url(#p584604f747)" style="fill: none; stroke: #000000"/>
    <path d="M 315.934982 142.785189 
L 313.654504 144.485567 
L 311.525055 145.563269 
L 309.237889 146.190115 
L 306.657254 146.251414 
L 306.657254 146.251414 
L 303.9044 145.555733 
L 303.9044 145.555733 
L 300.917265 143.893127 
L 300.917265 143.893127 
L 297.42069 140.680637 
L 297.42069 140.680637 
L 293.851885 135.828839 
L 291.125038 130.829142 
L 288.937465 125.758238 
L 287.152742 120.645098 
L 285.699302 115.503942 
L 284.536537 110.343057 
L 283.640571 105.167991 
L 282.997266 99.982914 
L 282.598466 94.791295 
L 282.439905 89.596242 
L 282.520049 84.40071 
L 282.839685 79.207635 
L 283.402134 74.020061 
L 284.214124 68.841311 
L 285.287613 63.675286 
L 286.642831 58.526996 
L 288.31412 53.403662 
L 290.361195 48.317153 
L 292.895371 43.290496 
L 295.67953 38.994492 
L 298.273254 35.939885 
L 300.651808 33.849155 
L 302.843365 32.481647 
L 304.978313 31.64258 
L 307.62319 31.2605 
L 310.293507 31.605896 
L 310.293507 31.605896 
L 313.166572 32.812911 
L 313.166572 32.812911 
L 316.325446 35.174107 
L 316.325446 35.174107 
L 320.364875 39.921154 
L 323.34956 44.880509 
L 325.71227 49.930166 
L 327.632119 55.030147 
L 329.198853 60.162389 
L 330.462239 65.316951 
L 331.451282 70.487492 
L 332.183166 75.669435 
L 332.667919 80.859105 
L 332.911083 86.053286 
L 332.911083 86.053286 
" clip-path="url(#p584604f747)" style="fill: none; stroke: #000000"/>
    <path d="M 297.896382 22.695517 
L 300.492386 20.805451 
L 302.911288 19.572658 
L 305.400129 18.826421 
L 308.609859 18.636597 
L 311.604272 19.245522 
L 311.604272 19.245522 
L 314.852862 20.774217 
L 314.852862 20.774217 
L 318.541469 23.629045 
L 318.541469 23.629045 
L 322.702247 28.351892 
L 325.958005 33.266363 
L 328.653238 38.271802 
L 330.943784 43.331088 
L 332.911083 48.426643 
L 332.911083 48.426643 
" clip-path="url(#p584604f747)" style="fill: none; stroke: #000000"/>
    <path d="M 321.268189 10.8 
L 322.673763 12.283386 
L 326.657625 17.051727 
L 329.99976 21.952026 
L 332.911083 26.925704 
L 332.911083 26.925704 
" clip-path="url(#p584604f747)" style="fill: none; stroke: #000000"/>
    <path d="M 208.657463 10.8 
L 209.348914 11.849136 
L 212.470975 16.789234 
L 215.386466 21.762946 
L 218.146297 26.760298 
L 220.787463 31.774718 
L 223.33879 36.801518 
L 225.824818 41.837026 
L 228.268886 46.878002 
L 230.696717 51.921067 
L 233.142782 56.961769 
L 235.665785 61.992262 
L 238.403951 66.991735 
L 240.356036 69.995067 
L 241.799145 71.717549 
L 242.873053 72.623893 
L 243.946827 73.137896 
L 245.424138 73.161119 
L 245.424138 73.161119 
L 246.950303 72.315167 
L 246.950303 72.315167 
L 248.391383 70.844698 
L 248.391383 70.844698 
L 251.616784 65.926494 
L 254.292873 60.917348 
L 256.796165 55.884173 
L 259.237412 50.842841 
L 261.668266 45.800165 
L 264.120804 40.760283 
L 266.620008 35.726508 
L 269.189354 30.702148 
L 271.854106 25.691048 
L 274.644551 20.698224 
L 277.600189 15.730839 
L 280.776427 10.8 
L 280.776427 10.8 
" clip-path="url(#p584604f747)" style="fill: none; stroke: #000000"/>
    <path d="M 219.060799 10.8 
L 219.837923 11.937867 
L 223.19663 16.836949 
L 226.629644 21.722183 
L 230.27675 26.565269 
L 233.771482 30.630348 
L 236.588094 33.31959 
L 238.953131 35.06223 
L 241.0245 36.139891 
L 243.160525 36.769851 
L 245.603394 36.864011 
L 245.603394 36.864011 
L 248.235043 36.205205 
L 248.235043 36.205205 
L 251.005848 34.705884 
L 251.005848 34.705884 
L 256.016422 30.215915 
L 260.002887 25.445843 
L 263.584732 20.589401 
L 266.99244 15.699388 
L 270.349496 10.8 
L 270.349496 10.8 
" clip-path="url(#p584604f747)" style="fill: none; stroke: #000000"/>
    <path d="M 229.455862 10.8 
L 230.784669 12.119856 
L 234.175877 15.180896 
L 237.033945 17.227827 
L 239.549489 18.551486 
L 241.975218 19.357257 
L 244.979841 19.674938 
L 247.915706 19.24106 
L 247.915706 19.24106 
L 251.129229 17.947355 
L 251.129229 17.947355 
L 255.039021 15.338081 
L 255.039021 15.338081 
L 259.922565 10.8 
L 259.922565 10.8 
" clip-path="url(#p584604f747)" style="fill: none; stroke: #000000"/>
    <path d="M 144.085634 30.704085 
L 146.721401 25.688937 
L 149.498003 20.694095 
L 152.455714 15.727087 
L 155.653253 10.8 
L 155.653253 10.8 
" clip-path="url(#p584604f747)" style="fill: none; stroke: #000000"/>
    <path d="M 92.200323 10.8 
L 92.469918 11.199247 
L 95.774603 16.108086 
L 99.102761 21.01267 
L 102.559563 25.893252 
L 106.328133 30.710495 
L 109.41352 34.048199 
L 111.943339 36.230659 
L 114.104138 37.615175 
L 116.077402 38.444765 
L 118.517565 38.854014 
L 121.012883 38.546775 
L 121.012883 38.546775 
L 123.714713 37.401057 
L 123.714713 37.401057 
L 127.000031 34.985266 
L 127.000031 34.985266 
L 131.418667 30.322344 
L 135.151231 25.496861 
L 138.594125 20.613559 
L 141.918592 15.708294 
L 145.226322 10.8 
L 145.226322 10.8 
" clip-path="url(#p584604f747)" style="fill: none; stroke: #000000"/>
    <path d="M 102.448171 10.8 
L 105.478374 13.747136 
L 108.748123 16.624942 
L 111.520117 18.540409 
L 113.975004 19.76676 
L 116.423564 20.505166 
L 119.633231 20.699888 
L 122.601879 20.085 
L 122.601879 20.085 
L 125.86538 18.567979 
L 125.86538 18.567979 
L 130.149029 15.405187 
L 130.149029 15.405187 
L 134.799391 10.8 
L 134.799391 10.8 
" clip-path="url(#p584604f747)" style="fill: none; stroke: #000000"/>
    <path d="M 82.664735 10.8 
L 82.664735 10.8 
L 85.840973 15.730839 
L 88.796611 20.698224 
L 91.587056 25.691048 
L 94.251809 30.702148 
L 96.821155 35.726508 
L 99.320358 40.760283 
L 101.772896 45.800165 
L 104.203751 50.842841 
L 106.644997 55.884173 
L 109.148289 60.917348 
L 111.824379 65.926494 
L 115.04978 70.844698 
L 115.04978 70.844698 
L 116.49086 72.315167 
L 116.49086 72.315167 
L 118.017025 73.161119 
L 118.017025 73.161119 
L 119.494335 73.137896 
L 120.568109 72.623893 
L 121.642017 71.717549 
L 123.085127 69.995067 
L 125.037211 66.991735 
L 127.775377 61.992262 
L 130.29838 56.961769 
L 132.744446 51.921067 
L 135.172276 46.878002 
L 137.616344 41.837026 
" clip-path="url(#p584604f747)" style="fill: none; stroke: #000000"/>
    <path d="M 30.530079 34.675054 
L 32.370881 31.182251 
L 35.213431 26.198374 
L 38.546888 21.297531 
L 41.906627 17.301812 
L 44.992394 14.422806 
L 47.620352 12.550579 
L 51.383941 10.8 
L 51.383941 10.8 
L 51.383941 10.8 
" clip-path="url(#p584604f747)" style="fill: none; stroke: #000000"/>
    <path d="M 30.530079 48.426643 
L 30.530079 48.426643 
L 32.497379 43.331088 
L 34.787925 38.271802 
L 37.483158 33.266363 
L 40.738916 28.351892 
" clip-path="url(#p584604f747)" style="fill: none; stroke: #000000"/>
    <path d="M 30.530079 69.927582 
L 30.530079 69.927582 
L 31.517022 64.7569 
L 32.765144 59.601297 
L 34.297257 54.466189 
L 36.152186 49.359655 
L 38.39807 44.295455 
L 41.163101 39.301143 
" clip-path="url(#p584604f747)" style="fill: none; stroke: #000000"/>
    <path d="M 47.50618 34.696619 
L 49.786658 32.996241 
L 51.916108 31.918539 
L 54.203274 31.291692 
L 56.783909 31.230394 
L 56.783909 31.230394 
L 59.536762 31.926075 
L 59.536762 31.926075 
L 62.523898 33.588681 
L 62.523898 33.588681 
L 66.020472 36.801171 
L 66.020472 36.801171 
L 69.589278 41.652968 
L 72.316125 46.652666 
L 74.503697 51.72357 
L 76.28842 56.836709 
L 77.741861 61.977866 
L 78.904626 67.13875 
L 79.800591 72.313817 
L 80.443897 77.498893 
L 80.842696 82.690513 
L 81.001258 87.885566 
L 80.921113 93.081097 
L 80.601477 98.274172 
L 80.039029 103.461747 
L 79.227039 108.640497 
L 78.15355 113.806522 
L 76.798332 118.954812 
L 75.127042 124.078145 
L 73.079967 129.164655 
L 70.545791 134.191312 
L 67.761633 138.487316 
L 65.167909 141.541923 
L 62.789355 143.632652 
L 60.597797 145.000161 
L 58.462849 145.839227 
L 55.817973 146.221308 
L 53.147655 145.875911 
L 53.147655 145.875911 
L 50.27459 144.668896 
L 50.27459 144.668896 
L 47.115717 142.3077 
L 47.115717 142.3077 
L 43.076288 137.560654 
L 40.091602 132.601299 
L 37.728893 127.551642 
L 35.809043 122.451661 
L 34.242309 117.319418 
L 32.978924 112.164857 
L 31.98988 106.994316 
L 31.257997 101.812372 
L 30.773243 96.622703 
L 30.530079 91.428521 
L 30.530079 91.428521 
" clip-path="url(#p584604f747)" style="fill: none; stroke: #000000"/>
    <path d="M 40.738916 149.129915 
L 37.483158 144.215444 
L 34.787925 139.210005 
L 32.497379 134.15072 
L 30.530079 129.055164 
L 30.530079 129.055164 
" clip-path="url(#p584604f747)" style="fill: none; stroke: #000000"/>
    <path d="M 190.385012 159.382696 
L 187.82182 160.911483 
L 185.353273 161.877288 
L 182.552133 162.377649 
L 179.60085 162.223936 
L 179.60085 162.223936 
L 176.507116 161.306573 
L 176.507116 161.306573 
L 176.507116 161.306573 
L 172.782208 159.194149 
L 170.166913 157.010653 
L 167.074561 153.67221 
L 163.737991 149.094058 
" clip-path="url(#p584604f747)" style="fill: none; stroke: #000000"/>
    <path d="M 328.994451 92.737659 
L 328.662735 97.930456 
L 328.062655 103.116811 
L 327.18024 108.292357 
L 325.990761 113.4514 
L 324.451274 118.585492 
L 322.484152 123.67993 
" clip-path="url(#p584604f747)" style="fill: none; stroke: #000000"/>
    <path d="M 315.898606 121.020718 
L 313.949439 123.444097 
L 312.160362 125.013689 
L 310.521129 125.962116 
L 308.661487 126.507135 
L 306.518145 126.464125 
L 306.518145 126.464125 
L 304.222062 125.602652 
L 304.222062 125.602652 
L 301.75088 123.681017 
L 301.75088 123.681017 
L 298.667422 119.587452 
L 298.667422 119.587452 
L 296.222241 114.551284 
L 294.491808 109.434318 
L 293.258504 104.278454 
L 292.424366 99.101054 
L 291.940315 93.911688 
L 291.782706 88.716911 
L 291.944541 83.522179 
L 292.43319 78.332961 
L 293.272869 73.155876 
L 294.51387 68.000681 
L 296.257561 62.885426 
L 298.344804 58.514412 
L 300.37079 55.458921 
L 302.25055 53.424013 
L 303.96809 52.139093 
L 305.611644 51.377337 
L 307.921444 51.039573 
L 310.158972 51.514412 
L 310.158972 51.514412 
L 312.526875 52.91208 
L 312.526875 52.91208 
L 315.310365 55.860494 
L 315.310365 55.860494 
L 318.213374 60.828082 
L 320.213142 65.91814 
L 321.642629 71.06027 
L 322.637977 76.229987 
L 323.265263 81.415227 
L 323.557523 86.608437 
L 323.52826 91.803826 
L 323.176069 96.996016 
L 322.484152 102.178991 
" clip-path="url(#p584604f747)" style="fill: none; stroke: #000000"/>
    <path d="M 151.228349 58.587439 
L 152.650667 53.443714 
L 154.306345 48.31862 
L 156.212975 43.216844 
L 158.402225 38.145484 
L 160.929762 33.116489 
L 163.896528 28.152665 
L 167.225482 23.633321 
L 170.275454 20.374822 
L 173.056151 18.099111 
L 175.619342 16.570324 
L 178.087889 15.60452 
L 180.889029 15.104159 
L 183.840313 15.257872 
L 183.840313 15.257872 
L 186.934047 16.175235 
L 186.934047 16.175235 
L 186.934047 16.175235 
L 190.658955 18.287658 
" clip-path="url(#p584604f747)" style="fill: none; stroke: #000000"/>
    <path d="M 34.446711 84.744149 
L 34.778427 79.551352 
L 35.378508 74.364996 
L 36.260923 69.189451 
L 37.450402 64.030408 
L 38.989889 58.896316 
L 40.95701 53.801878 
" clip-path="url(#p584604f747)" style="fill: none; stroke: #000000"/>
    <path d="M 47.542556 56.461089 
L 49.491723 54.03771 
L 51.280801 52.468119 
L 52.920034 51.519691 
L 54.779675 50.974672 
L 56.923017 51.017683 
L 56.923017 51.017683 
L 59.2191 51.879156 
L 59.2191 51.879156 
L 61.690282 53.800791 
L 61.690282 53.800791 
L 64.77374 57.894355 
L 64.77374 57.894355 
L 67.218921 62.930523 
L 68.949355 68.04749 
L 70.182659 73.203354 
L 71.016797 78.380753 
L 71.500847 83.570119 
L 71.658456 88.764896 
L 71.496621 93.959629 
L 71.007972 99.148847 
L 70.168294 104.325931 
L 68.927292 109.481126 
L 67.183602 114.596382 
L 65.096359 118.967396 
L 63.070372 122.022886 
L 61.190613 124.057795 
L 59.473072 125.342715 
L 57.829519 126.10447 
L 55.519718 126.442235 
L 53.28219 125.967395 
L 53.28219 125.967395 
L 50.914288 124.569728 
L 50.914288 124.569728 
L 48.130797 121.621314 
L 48.130797 121.621314 
L 45.227788 116.653726 
L 43.22802 111.563668 
L 41.798533 106.421537 
L 40.803186 101.251821 
L 40.1759 96.066581 
L 39.88364 90.87337 
L 39.912903 85.677982 
L 40.265093 80.485792 
L 40.95701 75.302817 
" clip-path="url(#p584604f747)" style="fill: none; stroke: #000000"/>
    <path d="M 70.312439 147.264607 
L 67.341969 150.807313 
L 64.625048 153.292887 
L 62.131816 154.972728 
L 59.779593 156.046807 
L 57.23498 156.660603 
L 54.429611 156.685073 
L 54.429611 156.685073 
L 51.383941 155.931338 
L 51.383941 155.931338 
L 51.383941 155.931338 
L 47.803389 154.023635 
" clip-path="url(#p584604f747)" style="fill: none; stroke: #000000"/>
    <path d="M 201.42783 139.338938 
L 198.602807 144.324551 
L 195.449982 148.784357 
L 192.545154 151.988873 
L 189.891031 154.214905 
L 187.444247 155.6996 
L 185.08305 156.629884 
L 182.350142 157.100046 
L 179.492243 156.901009 
L 179.492243 156.901009 
L 176.507116 155.931338 
L 176.507116 155.931338 
L 176.507116 155.931338 
L 172.8787 153.720253 
" clip-path="url(#p584604f747)" style="fill: none; stroke: #000000"/>
    <path d="M 315.305684 155.04908 
L 312.889054 156.385574 
L 310.48556 157.207687 
L 307.523554 157.534851 
L 304.604191 157.118253 
L 304.604191 157.118253 
L 301.63029 155.931338 
L 301.63029 155.931338 
L 301.63029 155.931338 
L 297.949213 153.40821 
L 295.333275 150.844788 
L 292.24946 146.96526 
L 289.147299 142.024685 
" clip-path="url(#p584604f747)" style="fill: none; stroke: #000000"/>
    <path d="M 315.971584 106.108693 
L 314.496644 109.467216 
L 312.057221 112.92946 
L 312.057221 112.92946 
L 312.057221 112.92946 
L 310.201236 114.440721 
L 310.201236 114.440721 
L 308.258404 115.123451 
L 308.258404 115.123451 
L 306.477222 114.98898 
L 305.08895 114.385491 
L 303.736222 113.344246 
L 302.231257 111.593213 
L 300.619696 108.858183 
L 299.009787 104.823038 
L 297.702374 99.673943 
L 296.964525 94.493511 
L 296.695506 89.300574 
L 296.865246 84.106451 
L 297.491416 78.921827 
L 298.651372 73.762394 
L 300.552501 68.664345 
L 300.552501 68.664345 
L 303.136911 64.61574 
L 303.136911 64.61574 
L 305.143951 62.908216 
L 305.143951 62.908216 
L 307.093766 62.192959 
L 307.093766 62.192959 
L 308.888755 62.301405 
L 310.297057 62.893197 
L 311.648639 63.912386 
L 313.154288 65.632143 
L 314.769371 68.322264 
L 316.390993 72.299556 
" clip-path="url(#p584604f747)" style="fill: none; stroke: #000000"/>
    <path d="M 310.850017 73.171806 
L 310.850017 73.171806 
L 312.888643 76.871301 
L 312.888643 76.871301 
L 314.266034 82.012888 
L 314.798774 87.198744 
L 314.657083 92.391537 
L 313.912293 97.088237 
L 312.057221 102.178991 
L 312.057221 102.178991 
L 310.265321 104.694472 
L 310.265321 104.694472 
" clip-path="url(#p584604f747)" style="fill: none; stroke: #000000"/>
    <path d="M 296.540725 50.242784 
L 298.878175 46.94587 
L 301.039911 44.698046 
L 303.02298 43.233455 
L 304.888737 42.339729 
L 307.117319 41.861432 
L 309.514277 42.046118 
L 309.514277 42.046118 
L 312.057221 43.051408 
L 312.057221 43.051408 
L 312.057221 43.051408 
L 315.195874 45.445664 
" clip-path="url(#p584604f747)" style="fill: none; stroke: #000000"/>
    <path d="M 173.550132 23.266902 
L 175.996915 21.782207 
L 178.358112 20.851924 
L 181.091021 20.381762 
L 183.948919 20.580799 
L 183.948919 20.580799 
L 186.934047 21.550469 
L 186.934047 21.550469 
L 186.934047 21.550469 
L 190.562463 23.761555 
L 193.083715 26.01921 
L 196.070791 29.485101 
L 199.264169 34.226861 
L 201.978009 39.229192 
" clip-path="url(#p584604f747)" style="fill: none; stroke: #000000"/>
    <path d="M 47.469578 71.373114 
L 48.944519 68.014592 
L 51.383941 64.552347 
L 51.383941 64.552347 
L 51.383941 64.552347 
L 53.239927 63.041087 
L 53.239927 63.041087 
L 55.182758 62.358357 
L 55.182758 62.358357 
L 56.963941 62.492827 
L 58.352212 63.096317 
L 59.70494 64.137562 
L 61.209905 65.888595 
L 62.821466 68.623625 
L 64.431375 72.658769 
L 65.738788 77.807865 
L 66.476637 82.988297 
L 66.745656 88.181234 
L 66.575916 93.375357 
L 65.949746 98.559981 
L 64.789791 103.719414 
L 62.888661 108.817463 
L 62.888661 108.817463 
L 60.304251 112.866068 
L 60.304251 112.866068 
L 58.297211 114.573592 
L 58.297211 114.573592 
L 56.347396 115.288849 
L 56.347396 115.288849 
L 54.552408 115.180402 
L 53.144105 114.58861 
L 51.792523 113.569421 
L 50.286875 111.849665 
L 48.671791 109.159543 
L 47.050169 105.182252 
" clip-path="url(#p584604f747)" style="fill: none; stroke: #000000"/>
    <path d="M 52.591145 104.310002 
L 52.591145 104.310002 
L 50.55252 100.610507 
L 50.55252 100.610507 
L 49.175129 95.46892 
L 48.642389 90.283064 
L 48.78408 85.090271 
L 49.52887 80.39357 
L 51.383941 75.302817 
L 51.383941 75.302817 
L 53.175841 72.787335 
L 53.175841 72.787335 
" clip-path="url(#p584604f747)" style="fill: none; stroke: #000000"/>
    <path d="M 66.900438 127.239024 
L 64.562987 130.535938 
L 62.401252 132.783762 
L 60.418183 134.248352 
L 58.552425 135.142079 
L 56.323843 135.620376 
L 53.926885 135.43569 
L 53.926885 135.43569 
L 51.383941 134.430399 
L 51.383941 134.430399 
L 51.383941 134.430399 
L 48.245288 132.036144 
" clip-path="url(#p584604f747)" style="fill: none; stroke: #000000"/>
    <path d="M 191.915737 146.892503 
L 189.390491 149.066314 
L 187.062948 150.504594 
L 184.811973 151.397676 
L 182.140921 151.835423 
L 179.376858 151.58434 
L 179.376858 151.58434 
L 176.507116 150.556103 
L 176.507116 150.556103 
L 176.507116 150.556103 
L 172.980877 148.232263 
L 170.555283 145.886365 
L 167.679534 142.271161 
L 164.641064 137.340097 
L 162.168322 132.304524 
L 160.112889 127.21861 
L 158.392685 122.099431 
L 156.961788 116.956499 
L 155.793591 111.795879 
L 154.872593 106.621938 
L 154.189977 101.438165 
L 153.740975 96.247609 
L 153.523246 91.053102 
L 153.535848 85.857385 
L 153.778824 80.663174 
L 154.253206 75.473217 
L 154.961523 70.290359 
L 155.90884 65.117676 
" clip-path="url(#p584604f747)" style="fill: none; stroke: #000000"/>
    <path d="M 48.589008 27.568444 
L 50.889217 26.272993 
L 53.191516 25.481402 
L 56.115878 25.190891 
L 58.945571 25.669345 
L 58.945571 25.669345 
L 61.810873 26.925704 
L 61.810873 26.925704 
L 61.810873 26.925704 
L 65.386571 29.579568 
L 67.908128 32.254893 
L 70.872238 36.310625 
" clip-path="url(#p584604f747)" style="fill: none; stroke: #000000"/>
    <path d="M 162.176763 53.207445 
L 164.223111 48.120833 
L 166.751094 43.093275 
L 169.552388 38.751965 
L 172.162799 35.660747 
L 174.556696 33.541443 
L 176.761815 32.151864 
L 178.90051 31.29722 
L 181.517862 30.894878 
L 184.186659 31.206428 
L 184.186659 31.206428 
L 186.934047 32.300939 
L 186.934047 32.300939 
L 186.934047 32.300939 
L 190.351132 34.754989 
" clip-path="url(#p584604f747)" style="fill: none; stroke: #000000"/>
    <path d="M 182.959684 36.114569 
L 182.959684 36.114569 
L 185.620937 36.892799 
L 185.620937 36.892799 
L 188.51037 38.674543 
L 188.51037 38.674543 
L 191.964036 42.182963 
L 191.964036 42.182963 
L 195.227335 47.092746 
L 197.699632 52.127745 
L 199.652026 57.224173 
L 201.208285 62.357127 
L 202.433727 67.514042 
L 203.365531 72.687354 
L 204.025515 77.871822 
L 204.426299 83.06336 
L 204.574528 88.258459 
L 204.472471 93.453852 
L 204.118543 98.646292 
L 203.50694 103.832331 
L 202.626243 109.008013 
L 201.456547 114.168352 
L 199.963892 119.306295 
L 198.088893 124.410371 
L 195.720132 129.458369 
L 193.096415 133.742934 
L 190.636229 136.776656 
L 188.376057 138.840433 
L 186.297097 140.179499 
L 184.272533 140.995335 
L 181.697246 141.358788 
L 179.124896 140.976072 
L 179.124896 140.976072 
L 176.507116 139.805634 
L 176.507116 139.805634 
L 176.507116 139.805634 
L 173.207941 137.19948 
" clip-path="url(#p584604f747)" style="fill: none; stroke: #000000"/>
    <path d="M 181.463325 136.15703 
L 178.989623 135.689837 
L 178.989623 135.689837 
L 176.507116 134.430399 
L 176.507116 134.430399 
L 176.507116 134.430399 
L 173.337134 131.644148 
L 171.217531 128.901007 
L 168.744706 124.649427 
L 166.535019 119.582445 
L 164.833335 114.462322 
L 163.52478 109.311105 
L 162.549255 104.14009 
L 161.873059 98.956278 
L 161.477182 93.764712 
L 161.351897 88.569513 
L 161.494316 83.374429 
L 161.907671 78.183216 
L 162.602077 73.000025 
L 163.597139 67.829966 
L 164.92749 62.680167 
L 166.654692 57.562161 
" clip-path="url(#p584604f747)" style="fill: none; stroke: #000000"/>
    <path d="M 132.856893 139.940951 
L 129.388772 135.064034 
L 126.624698 131.794246 
L 124.397504 129.710152 
L 122.529297 128.426558 
L 120.836785 127.678496 
L 118.464315 127.345026 
L 116.198826 127.828659 
L 116.198826 127.828659 
L 113.945528 129.055164 
L 113.945528 129.055164 
L 113.945528 129.055164 
L 110.504336 132.122098 
" clip-path="url(#p584604f747)" style="fill: none; stroke: #000000"/>
    <path d="M 253.851594 132.569497 
L 251.396492 129.942503 
L 249.378909 128.291793 
L 247.661642 127.311164 
L 245.842379 126.743487 
L 243.719456 126.720576 
L 243.719456 126.720576 
L 241.417612 127.488316 
L 241.417612 127.488316 
L 239.068703 129.055164 
L 239.068703 129.055164 
L 239.068703 129.055164 
L 235.444041 132.723612 
" clip-path="url(#p584604f747)" style="fill: none; stroke: #000000"/>
    <path d="M 259.922565 112.92946 
L 258.508095 107.785114 
L 257.340299 102.624507 
L 256.480058 97.448113 
L 255.99041 92.259178 
L 255.916529 87.064435 
L 256.265547 81.872629 
L 257.003166 76.691408 
L 258.07006 71.525164 
L 259.403329 66.37517 
L 260.949923 61.240908 
" clip-path="url(#p584604f747)" style="fill: none; stroke: #000000"/>
    <path d="M 230.584269 37.540857 
L 234.05239 42.417773 
L 236.816464 45.687562 
L 239.043658 47.771656 
L 240.911865 49.05525 
L 242.604378 49.803312 
L 244.976847 50.136782 
L 247.242336 49.653149 
L 247.242336 49.653149 
L 249.495634 48.426643 
L 249.495634 48.426643 
L 249.495634 48.426643 
L 252.936827 45.35971 
" clip-path="url(#p584604f747)" style="fill: none; stroke: #000000"/>
    <path d="M 172.313788 53.046914 
L 174.438921 50.304186 
L 176.39387 48.486425 
L 178.184295 47.349765 
L 180.017388 46.674965 
L 182.218716 46.491055 
L 182.218716 46.491055 
L 184.58908 47.059041 
L 184.58908 47.059041 
L 186.934047 48.426643 
L 186.934047 48.426643 
L 186.934047 48.426643 
L 189.959945 51.429751 
L 191.963996 54.375755 
" clip-path="url(#p584604f747)" style="fill: none; stroke: #000000"/>
    <path d="M 109.589569 44.912311 
L 112.044671 47.539305 
L 114.062253 49.190015 
L 115.77952 50.170644 
L 117.598783 50.73832 
L 119.721706 50.761232 
L 119.721706 50.761232 
L 122.02355 49.993492 
L 122.02355 49.993492 
L 124.37246 48.426643 
L 124.37246 48.426643 
L 124.37246 48.426643 
L 127.997122 44.758196 
" clip-path="url(#p584604f747)" style="fill: none; stroke: #000000"/>
    <path d="M 103.518597 59.177113 
L 105.29463 64.291733 
L 106.899234 69.421296 
L 108.2746 74.568329 
L 109.334574 79.734778 
L 109.971893 84.919058 
L 110.095354 90.112843 
L 109.685468 95.302785 
" clip-path="url(#p584604f747)" style="fill: none; stroke: #000000"/>
    <path d="M 103.518597 80.678052 
L 103.868369 85.870309 
L 103.885269 91.065632 
L 103.568451 96.258417 
L 102.935359 101.443602 
L 102.01622 106.617519 
L 100.846102 111.77807 
L 99.458166 116.924344 
" clip-path="url(#p584604f747)" style="fill: none; stroke: #000000"/>
    <path d="M 190.214467 119.775118 
L 188.255974 122.397576 
L 186.452933 124.11079 
L 184.809529 125.15932 
L 183.07126 125.774711 
L 180.981729 125.874717 
L 180.981729 125.874717 
L 178.72284 125.18824 
L 178.72284 125.18824 
L 176.507116 123.67993 
L 176.507116 123.67993 
L 176.507116 123.67993 
L 173.645956 120.411141 
L 171.772521 117.204868 
" clip-path="url(#p584604f747)" style="fill: none; stroke: #000000"/>
    <path d="M 252.865077 122.269385 
L 249.495634 118.304695 
L 249.495634 118.304695 
L 249.495634 118.304695 
L 247.531053 116.773175 
L 247.531053 116.773175 
L 245.557193 115.992006 
L 245.557193 115.992006 
L 243.726185 116.024267 
L 242.236864 116.573166 
L 240.804001 117.522997 
L 239.044422 119.18761 
L 236.82951 121.922322 
L 233.904882 126.321296 
" clip-path="url(#p584604f747)" style="fill: none; stroke: #000000"/>
    <path d="M 172.254965 65.999711 
L 174.121893 62.292937 
L 175.911088 59.786046 
L 177.559824 58.17463 
L 179.051429 57.21297 
L 180.706208 56.653141 
L 182.689199 56.646809 
L 182.689199 56.646809 
L 184.820583 57.467102 
L 184.820583 57.467102 
L 186.934047 59.177113 
L 186.934047 59.177113 
L 186.934047 59.177113 
L 189.60039 62.778172 
L 191.316258 66.323845 
" clip-path="url(#p584604f747)" style="fill: none; stroke: #000000"/>
    <path d="M 178.571011 114.959462 
L 178.571011 114.959462 
L 176.507116 112.92946 
L 176.507116 112.92946 
L 176.507116 112.92946 
L 174.082237 108.904659 
L 172.573622 104.909928 
L 171.310445 99.757545 
" clip-path="url(#p584604f747)" style="fill: none; stroke: #000000"/>
    <path d="M 189.466119 68.731041 
L 191.255608 73.840646 
L 192.36222 79.003413 
L 192.960756 84.189005 
L 193.118682 89.383297 
L 192.851196 94.576332 
L 192.130718 99.757545 
L 190.867541 104.909928 
L 189.358926 108.904659 
L 186.934047 112.92946 
L 186.934047 112.92946 
L 186.934047 112.92946 
L 184.870151 114.959462 
L 184.870151 114.959462 
" clip-path="url(#p584604f747)" style="fill: none; stroke: #000000"/>
    <path d="M 229.132707 66.352296 
L 230.399918 71.506721 
L 231.40294 76.676401 
L 232.089376 81.859595 
L 232.412082 87.052021 
L 232.34467 92.246968 
L 231.892568 97.436934 
L 231.090745 102.615873 
L 229.989977 107.780401 
L 228.641772 112.92946 
" clip-path="url(#p584604f747)" style="fill: none; stroke: #000000"/>
    <path d="M 145.226322 107.554225 
L 144.493025 102.372259 
L 143.98902 97.183044 
L 143.720294 91.989191 
L 143.690418 86.793521 
L 143.899786 81.598948 
L 144.345548 76.408326 
L 145.022187 71.224325 
" clip-path="url(#p584604f747)" style="fill: none; stroke: #000000"/>
    <path d="M 172.666182 95.211551 
L 172.288971 90.020783 
L 172.419891 84.826777 
L 173.08 79.644004 
L 174.234626 74.973072 
L 176.507116 69.927582 
L 176.507116 69.927582 
L 178.580871 67.365014 
L 178.580871 67.365014 
" clip-path="url(#p584604f747)" style="fill: none; stroke: #000000"/>
   </g>
   <g id="patch_3">
    <path d="M 37.422172 154.530721 
Q 37.151165 154.132288 37.508955 154.65831 
" clip-path="url(#p584604f747)" style="fill: none; stroke: #000000; stroke-linecap: round"/>
    <path d="M 38.104888 159.090562 
L 37.508955 154.65831 
L 41.412317 156.840915 
z
" clip-path="url(#p584604f747)" style="stroke: #000000; stroke-linecap: round"/>
   </g>
   <g id="patch_4">
    <path d="M 93.790732 88.931226 
Q 93.788656 89.229316 93.794365 88.4094 
" clip-path="url(#p584604f747)" style="fill: none; stroke: #000000; stroke-linecap: round"/>
    <path d="M 95.822168 84.423423 
L 93.794365 88.4094 
L 91.822265 84.395572 
z
" clip-path="url(#p584604f747)" style="stroke: #000000; stroke-linecap: round"/>
   </g>
   <g id="patch_5">
    <path d="M 119.494335 104.343911 
Q 119.125008 104.338106 119.873576 104.349873 
" clip-path="url(#p584604f747)" style="fill: none; stroke: #000000; stroke-linecap: round"/>
    <path d="M 123.841646 106.412497 
L 119.873576 104.349873 
L 123.904517 102.412991 
z
" clip-path="url(#p584604f747)" style="stroke: #000000; stroke-linecap: round"/>
   </g>
   <g id="patch_6">
    <path d="M 120.280638 140.711957 
Q 119.66992 140.688417 120.176407 140.707939 
" clip-path="url(#p584604f747)" style="fill: none; stroke: #000000; stroke-linecap: round"/>
    <path d="M 124.096406 142.860521 
L 120.176407 140.707939 
L 124.250472 138.863489 
z
" clip-path="url(#p584604f747)" style="stroke: #000000; stroke-linecap: round"/>
   </g>
   <g id="patch_7">
    <path d="M 121.465944 158.124551 
Q 120.714788 158.045131 121.075469 158.083266 
" clip-path="url(#p584604f747)" style="fill: none; stroke: #000000; stroke-linecap: round"/>
    <path d="M 124.843008 160.492758 
L 121.075469 158.083266 
L 125.263586 156.51493 
z
" clip-path="url(#p584604f747)" style="stroke: #000000; stroke-linecap: round"/>
   </g>
   <g id="patch_8">
    <path d="M 138.201787 88.526307 
Q 138.204267 88.228224 138.197444 89.048136 
" clip-path="url(#p584604f747)" style="fill: none; stroke: #000000; stroke-linecap: round"/>
    <path d="M 136.164226 93.031354 
L 138.197444 89.048136 
L 140.164088 93.064641 
z
" clip-path="url(#p584604f747)" style="stroke: #000000; stroke-linecap: round"/>
   </g>
   <g id="patch_9">
    <path d="M 219.516377 90.359199 
Q 219.510547 90.657277 219.526582 89.837535 
" clip-path="url(#p584604f747)" style="fill: none; stroke: #000000; stroke-linecap: round"/>
    <path d="M 221.604427 85.877414 
L 219.526582 89.837535 
L 217.605192 85.799186 
z
" clip-path="url(#p584604f747)" style="stroke: #000000; stroke-linecap: round"/>
   </g>
   <g id="patch_10">
    <path d="M 245.208607 95.176076 
Q 244.98595 95.163951 245.879673 95.21262 
" clip-path="url(#p584604f747)" style="fill: none; stroke: #000000; stroke-linecap: round"/>
    <path d="M 249.765005 97.427161 
L 245.879673 95.21262 
L 249.982506 93.433079 
z
" clip-path="url(#p584604f747)" style="stroke: #000000; stroke-linecap: round"/>
   </g>
   <g id="patch_11">
    <path d="M 244.923597 138.627794 
Q 244.299768 138.704604 244.785593 138.644786 
" clip-path="url(#p584604f747)" style="fill: none; stroke: #000000; stroke-linecap: round"/>
    <path d="M 249.00002 140.140982 
L 244.785593 138.644786 
L 248.511206 136.170962 
z
" clip-path="url(#p584604f747)" style="stroke: #000000; stroke-linecap: round"/>
   </g>
   <g id="patch_12">
    <path d="M 247.017598 156.976641 
Q 246.215182 156.927961 246.528747 156.946984 
" clip-path="url(#p584604f747)" style="fill: none; stroke: #000000; stroke-linecap: round"/>
    <path d="M 250.400294 159.185537 
L 246.528747 156.946984 
L 250.642518 155.192878 
z
" clip-path="url(#p584604f747)" style="stroke: #000000; stroke-linecap: round"/>
   </g>
   <g id="patch_13">
    <path d="M 269.658733 90.123589 
Q 269.656657 89.825498 269.662366 90.645414 
" clip-path="url(#p584604f747)" style="fill: none; stroke: #000000; stroke-linecap: round"/>
    <path d="M 267.690266 94.659243 
L 269.662366 90.645414 
L 271.690169 94.631391 
z
" clip-path="url(#p584604f747)" style="stroke: #000000; stroke-linecap: round"/>
   </g>
   <g id="patch_14">
    <path d="M 327.103015 152.93699 
Q 326.832009 153.335423 327.189799 152.809401 
" clip-path="url(#p584604f747)" style="fill: none; stroke: #000000; stroke-linecap: round"/>
    <path d="M 331.093161 150.626796 
L 327.189799 152.809401 
L 327.785732 148.377148 
z
" clip-path="url(#p584604f747)" style="stroke: #000000; stroke-linecap: round"/>
   </g>
   <g id="patch_15">
    <path d="M 327.704379 140.972174 
Q 327.505 141.342449 327.83568 140.728328 
" clip-path="url(#p584604f747)" style="fill: none; stroke: #000000; stroke-linecap: round"/>
    <path d="M 331.49302 138.154641 
L 327.83568 140.728328 
L 327.971135 136.258244 
z
" clip-path="url(#p584604f747)" style="stroke: #000000; stroke-linecap: round"/>
   </g>
   <g id="patch_16">
    <path d="M 328.461893 124.893168 
Q 328.339167 125.231027 328.598159 124.518033 
" clip-path="url(#p584604f747)" style="fill: none; stroke: #000000; stroke-linecap: round"/>
    <path d="M 331.843657 121.441227 
L 328.598159 124.518033 
L 328.084013 120.075551 
z
" clip-path="url(#p584604f747)" style="stroke: #000000; stroke-linecap: round"/>
   </g>
   <g id="patch_17">
    <path d="M 285.796481 61.742163 
Q 285.880851 61.421652 285.68061 62.182342 
" clip-path="url(#p584604f747)" style="fill: none; stroke: #000000; stroke-linecap: round"/>
    <path d="M 282.728241 65.541436 
L 285.68061 62.182342 
L 286.596464 66.559694 
z
" clip-path="url(#p584604f747)" style="stroke: #000000; stroke-linecap: round"/>
   </g>
   <g id="patch_18">
    <path d="M 319.86406 25.130301 
Q 320.242959 25.560385 319.882786 25.151557 
" clip-path="url(#p584604f747)" style="fill: none; stroke: #000000; stroke-linecap: round"/>
    <path d="M 318.739292 20.828084 
L 319.882786 25.151557 
L 315.737911 23.472268 
z
" clip-path="url(#p584604f747)" style="stroke: #000000; stroke-linecap: round"/>
   </g>
   <g id="patch_19">
    <path d="M 327.785269 18.705099 
Q 328.056981 19.103488 327.698731 18.578216 
" clip-path="url(#p584604f747)" style="fill: none; stroke: #000000; stroke-linecap: round"/>
    <path d="M 327.097208 14.146718 
L 327.698731 18.578216 
L 323.792619 16.400536 
z
" clip-path="url(#p584604f747)" style="stroke: #000000; stroke-linecap: round"/>
   </g>
   <g id="patch_20">
    <path d="M 243.946827 73.137896 
Q 244.316155 73.143702 243.567587 73.131935 
" clip-path="url(#p584604f747)" style="fill: none; stroke: #000000; stroke-linecap: round"/>
    <path d="M 239.599516 71.06931 
L 243.567587 73.131935 
L 239.536645 75.068816 
z
" clip-path="url(#p584604f747)" style="stroke: #000000; stroke-linecap: round"/>
   </g>
   <g id="patch_21">
    <path d="M 243.160525 36.769851 
Q 243.771242 36.793391 243.264755 36.773868 
" clip-path="url(#p584604f747)" style="fill: none; stroke: #000000; stroke-linecap: round"/>
    <path d="M 239.344756 34.621287 
L 243.264755 36.773868 
L 239.19069 38.618319 
z
" clip-path="url(#p584604f747)" style="stroke: #000000; stroke-linecap: round"/>
   </g>
   <g id="patch_22">
    <path d="M 241.975218 19.357257 
Q 242.726374 19.436677 242.365693 19.398542 
" clip-path="url(#p584604f747)" style="fill: none; stroke: #000000; stroke-linecap: round"/>
    <path d="M 238.598155 16.98905 
L 242.365693 19.398542 
L 238.177576 20.966877 
z
" clip-path="url(#p584604f747)" style="stroke: #000000; stroke-linecap: round"/>
   </g>
   <g id="patch_23">
    <path d="M 150.521937 18.974559 
Q 150.749397 18.592575 150.404836 19.171211 
" clip-path="url(#p584604f747)" style="fill: none; stroke: #000000; stroke-linecap: round"/>
    <path d="M 146.639899 21.584766 
L 150.404836 19.171211 
L 150.076718 23.631294 
z
" clip-path="url(#p584604f747)" style="stroke: #000000; stroke-linecap: round"/>
   </g>
   <g id="patch_24">
    <path d="M 118.517565 38.854014 
Q 119.141395 38.777204 118.65557 38.837022 
" clip-path="url(#p584604f747)" style="fill: none; stroke: #000000; stroke-linecap: round"/>
    <path d="M 114.441143 37.340825 
L 118.65557 38.837022 
L 114.929956 41.310846 
z
" clip-path="url(#p584604f747)" style="stroke: #000000; stroke-linecap: round"/>
   </g>
   <g id="patch_25">
    <path d="M 116.423564 20.505166 
Q 117.225981 20.553847 116.912415 20.534824 
" clip-path="url(#p584604f747)" style="fill: none; stroke: #000000; stroke-linecap: round"/>
    <path d="M 113.040868 18.29627 
L 116.912415 20.534824 
L 112.798644 22.288929 
z
" clip-path="url(#p584604f747)" style="stroke: #000000; stroke-linecap: round"/>
   </g>
   <g id="patch_26">
    <path d="M 107.536062 57.675767 
Q 107.716353 58.038264 107.39876 57.399705 
" clip-path="url(#p584604f747)" style="fill: none; stroke: #000000; stroke-linecap: round"/>
    <path d="M 107.408221 52.927579 
L 107.39876 57.399705 
L 103.826736 54.708861 
z
" clip-path="url(#p584604f747)" style="stroke: #000000; stroke-linecap: round"/>
   </g>
   <g id="patch_27">
    <path d="M 36.338147 24.544818 
Q 36.609153 24.146385 36.251364 24.672407 
" clip-path="url(#p584604f747)" style="fill: none; stroke: #000000; stroke-linecap: round"/>
    <path d="M 32.348002 26.855012 
L 36.251364 24.672407 
L 35.65543 29.104659 
z
" clip-path="url(#p584604f747)" style="stroke: #000000; stroke-linecap: round"/>
   </g>
   <g id="patch_28">
    <path d="M 35.736784 36.509634 
Q 35.936162 36.139358 35.605482 36.75348 
" clip-path="url(#p584604f747)" style="fill: none; stroke: #000000; stroke-linecap: round"/>
    <path d="M 31.948142 39.327167 
L 35.605482 36.75348 
L 35.470027 41.223564 
z
" clip-path="url(#p584604f747)" style="stroke: #000000; stroke-linecap: round"/>
   </g>
   <g id="patch_29">
    <path d="M 34.97927 52.58864 
Q 35.101996 52.250781 34.843004 52.963774 
" clip-path="url(#p584604f747)" style="fill: none; stroke: #000000; stroke-linecap: round"/>
    <path d="M 31.597505 56.040581 
L 34.843004 52.963774 
L 35.35715 57.406257 
z
" clip-path="url(#p584604f747)" style="stroke: #000000; stroke-linecap: round"/>
   </g>
   <g id="patch_30">
    <path d="M 77.644681 115.739645 
Q 77.560311 116.060156 77.760552 115.299466 
" clip-path="url(#p584604f747)" style="fill: none; stroke: #000000; stroke-linecap: round"/>
    <path d="M 80.712922 111.940371 
L 77.760552 115.299466 
L 76.844698 110.922114 
z
" clip-path="url(#p584604f747)" style="stroke: #000000; stroke-linecap: round"/>
   </g>
   <g id="patch_31">
    <path d="M 36.534299 142.453276 
Q 36.33492 142.083 36.6656 142.697122 
" clip-path="url(#p584604f747)" style="fill: none; stroke: #000000; stroke-linecap: round"/>
    <path d="M 36.801055 147.167206 
L 36.6656 142.697122 
L 40.32294 145.270809 
z
" clip-path="url(#p584604f747)" style="stroke: #000000; stroke-linecap: round"/>
   </g>
   <g id="patch_32">
    <path d="M 174.764703 160.318437 
Q 174.704682 160.284399 175.617192 160.80189 
" clip-path="url(#p584604f747)" style="fill: none; stroke: #000000; stroke-linecap: round"/>
    <path d="M 178.110017 164.514817 
L 175.617192 160.80189 
L 180.083228 161.035387 
z
" clip-path="url(#p584604f747)" style="stroke: #000000; stroke-linecap: round"/>
   </g>
   <g id="patch_33">
    <path d="M 326.731281 110.239593 
Q 326.658391 110.555736 326.836687 109.782426 
" clip-path="url(#p584604f747)" style="fill: none; stroke: #000000; stroke-linecap: round"/>
    <path d="M 329.684228 106.33402 
L 326.836687 109.782426 
L 325.786487 105.435349 
z
" clip-path="url(#p584604f747)" style="stroke: #000000; stroke-linecap: round"/>
   </g>
   <g id="patch_34">
    <path d="M 295.158389 66.109935 
Q 295.272052 65.776494 295.024982 66.501293 
" clip-path="url(#p584604f747)" style="fill: none; stroke: #000000; stroke-linecap: round"/>
    <path d="M 291.841347 69.642068 
L 295.024982 66.501293 
L 295.627421 70.932666 
z
" clip-path="url(#p584604f747)" style="stroke: #000000; stroke-linecap: round"/>
   </g>
   <g id="patch_35">
    <path d="M 161.956831 31.398056 
Q 162.184988 31.016317 161.839561 31.594266 
" clip-path="url(#p584604f747)" style="fill: none; stroke: #000000; stroke-linecap: round"/>
    <path d="M 158.070702 34.001692 
L 161.839561 31.594266 
L 161.504187 36.053809 
z
" clip-path="url(#p584604f747)" style="stroke: #000000; stroke-linecap: round"/>
   </g>
   <g id="patch_36">
    <path d="M 36.709881 67.242214 
Q 36.782772 66.926072 36.604476 67.699381 
" clip-path="url(#p584604f747)" style="fill: none; stroke: #000000; stroke-linecap: round"/>
    <path d="M 33.756934 71.147788 
L 36.604476 67.699381 
L 37.654676 72.046458 
z
" clip-path="url(#p584604f747)" style="stroke: #000000; stroke-linecap: round"/>
   </g>
   <g id="patch_37">
    <path d="M 68.282774 111.371873 
Q 68.16911 111.705313 68.41618 110.980514 
" clip-path="url(#p584604f747)" style="fill: none; stroke: #000000; stroke-linecap: round"/>
    <path d="M 71.599816 107.83974 
L 68.41618 110.980514 
L 67.813742 106.549141 
z
" clip-path="url(#p584604f747)" style="stroke: #000000; stroke-linecap: round"/>
   </g>
   <g id="patch_38">
    <path d="M 62.131816 154.972728 
Q 61.54376 155.241248 61.972728 155.045371 
" clip-path="url(#p584604f747)" style="fill: none; stroke: #000000; stroke-linecap: round"/>
    <path d="M 66.442078 155.203204 
L 61.972728 155.045371 
L 64.780604 151.564591 
z
" clip-path="url(#p584604f747)" style="stroke: #000000; stroke-linecap: round"/>
   </g>
   <g id="patch_39">
    <path d="M 192.545154 151.988873 
Q 191.881624 152.545381 192.074722 152.383428 
" clip-path="url(#p584604f747)" style="fill: none; stroke: #000000; stroke-linecap: round"/>
    <path d="M 196.424714 151.345369 
L 192.074722 152.383428 
L 193.85427 148.280599 
z
" clip-path="url(#p584604f747)" style="stroke: #000000; stroke-linecap: round"/>
   </g>
   <g id="patch_40">
    <path d="M 299.980276 154.800366 
Q 299.885014 154.73507 300.711948 155.301877 
" clip-path="url(#p584604f747)" style="fill: none; stroke: #000000; stroke-linecap: round"/>
    <path d="M 302.880557 159.213032 
L 300.711948 155.301877 
L 305.142037 155.913682 
z
" clip-path="url(#p584604f747)" style="stroke: #000000; stroke-linecap: round"/>
   </g>
   <g id="patch_41">
    <path d="M 296.760899 87.299518 
Q 296.770638 87.001515 296.743859 87.82095 
" clip-path="url(#p584604f747)" style="fill: none; stroke: #000000; stroke-linecap: round"/>
    <path d="M 294.614279 91.753492 
L 296.743859 87.82095 
L 298.612145 91.884139 
z
" clip-path="url(#p584604f747)" style="stroke: #000000; stroke-linecap: round"/>
   </g>
   <g id="patch_42">
    <path d="M 314.744187 89.199288 
Q 314.736057 89.497214 314.758424 88.677522 
" clip-path="url(#p584604f747)" style="fill: none; stroke: #000000; stroke-linecap: round"/>
    <path d="M 316.866783 84.733562 
L 314.758424 88.677522 
L 312.868271 84.624459 
z
" clip-path="url(#p584604f747)" style="stroke: #000000; stroke-linecap: round"/>
   </g>
   <g id="patch_43">
    <path d="M 303.02298 43.233455 
Q 303.489419 43.010024 302.947538 43.269593 
" clip-path="url(#p584604f747)" style="fill: none; stroke: #000000; stroke-linecap: round"/>
    <path d="M 298.476043 43.193892 
L 302.947538 43.269593 
L 300.20408 46.801369 
z
" clip-path="url(#p584604f747)" style="stroke: #000000; stroke-linecap: round"/>
   </g>
   <g id="patch_44">
    <path d="M 190.562463 23.761555 
Q 191.192776 24.325968 190.990179 24.144553 
" clip-path="url(#p584604f747)" style="fill: none; stroke: #000000; stroke-linecap: round"/>
    <path d="M 189.344449 19.986239 
L 190.990179 24.144553 
L 186.67609 22.966149 
z
" clip-path="url(#p584604f747)" style="stroke: #000000; stroke-linecap: round"/>
   </g>
   <g id="patch_45">
    <path d="M 66.680263 90.18229 
Q 66.670525 90.480293 66.697303 89.660858 
" clip-path="url(#p584604f747)" style="fill: none; stroke: #000000; stroke-linecap: round"/>
    <path d="M 68.826884 85.728316 
L 66.697303 89.660858 
L 64.829018 85.597668 
z
" clip-path="url(#p584604f747)" style="stroke: #000000; stroke-linecap: round"/>
   </g>
   <g id="patch_46">
    <path d="M 48.696976 88.28252 
Q 48.705105 87.984594 48.682739 88.804286 
" clip-path="url(#p584604f747)" style="fill: none; stroke: #000000; stroke-linecap: round"/>
    <path d="M 46.574379 92.748245 
L 48.682739 88.804286 
L 50.572891 92.857349 
z
" clip-path="url(#p584604f747)" style="stroke: #000000; stroke-linecap: round"/>
   </g>
   <g id="patch_47">
    <path d="M 60.418183 134.248352 
Q 59.951743 134.471784 60.493624 134.212215 
" clip-path="url(#p584604f747)" style="fill: none; stroke: #000000; stroke-linecap: round"/>
    <path d="M 64.965119 134.287916 
L 60.493624 134.212215 
L 63.237082 130.680439 
z
" clip-path="url(#p584604f747)" style="stroke: #000000; stroke-linecap: round"/>
   </g>
   <g id="patch_48">
    <path d="M 156.519721 115.003628 
Q 156.448705 114.689908 156.62453 115.466634 
" clip-path="url(#p584604f747)" style="fill: none; stroke: #000000; stroke-linecap: round"/>
    <path d="M 155.55701 119.80949 
L 156.62453 115.466634 
L 159.458303 118.926364 
z
" clip-path="url(#p584604f747)" style="stroke: #000000; stroke-linecap: round"/>
   </g>
   <g id="patch_49">
    <path d="M 63.413651 28.115278 
Q 63.506187 28.183957 62.700942 27.586309 
" clip-path="url(#p584604f747)" style="fill: none; stroke: #000000; stroke-linecap: round"/>
    <path d="M 60.68091 23.596388 
L 62.700942 27.586309 
L 58.296986 26.808382 
z
" clip-path="url(#p584604f747)" style="stroke: #000000; stroke-linecap: round"/>
   </g>
   <g id="patch_50">
    <path d="M 170.844847 37.22145 
Q 170.85122 37.213903 170.136251 38.06056 
" clip-path="url(#p584604f747)" style="fill: none; stroke: #000000; stroke-linecap: round"/>
    <path d="M 166.027452 39.82628 
L 170.136251 38.06056 
L 169.083547 42.407032 
z
" clip-path="url(#p584604f747)" style="stroke: #000000; stroke-linecap: round"/>
   </g>
   <g id="patch_51">
    <path d="M 204.53521 90.260004 
Q 204.529355 90.55808 204.545457 89.738337 
" clip-path="url(#p584604f747)" style="fill: none; stroke: #000000; stroke-linecap: round"/>
    <path d="M 206.623631 85.778388 
L 204.545457 89.738337 
L 202.624403 85.699828 
z
" clip-path="url(#p584604f747)" style="stroke: #000000; stroke-linecap: round"/>
   </g>
   <g id="patch_52">
    <path d="M 162.290729 102.158193 
Q 162.250943 101.853189 162.355772 102.656826 
" clip-path="url(#p584604f747)" style="fill: none; stroke: #000000; stroke-linecap: round"/>
    <path d="M 160.889965 106.881919 
L 162.355772 102.656826 
L 164.856362 106.364527 
z
" clip-path="url(#p584604f747)" style="stroke: #000000; stroke-linecap: round"/>
   </g>
   <g id="patch_53">
    <path d="M 124.397504 129.710152 
Q 123.930452 129.389254 124.384891 129.701486 
" clip-path="url(#p584604f747)" style="fill: none; stroke: #000000; stroke-linecap: round"/>
    <path d="M 126.549137 133.615057 
L 124.384891 129.701486 
L 128.814296 130.318232 
z
" clip-path="url(#p584604f747)" style="stroke: #000000; stroke-linecap: round"/>
   </g>
   <g id="patch_54">
    <path d="M 245.842379 126.743487 
Q 245.311648 126.73776 245.898887 126.744097 
" clip-path="url(#p584604f747)" style="fill: none; stroke: #000000; stroke-linecap: round"/>
    <path d="M 249.87707 128.787148 
L 245.898887 126.744097 
L 249.920237 124.787381 
z
" clip-path="url(#p584604f747)" style="stroke: #000000; stroke-linecap: round"/>
   </g>
   <g id="patch_55">
    <path d="M 256.050649 85.069341 
Q 256.070843 84.768937 256.016048 85.584048 
" clip-path="url(#p584604f747)" style="fill: none; stroke: #000000; stroke-linecap: round"/>
    <path d="M 253.752258 89.440894 
L 256.016048 85.584048 
L 257.74325 89.709187 
z
" clip-path="url(#p584604f747)" style="stroke: #000000; stroke-linecap: round"/>
   </g>
   <g id="patch_56">
    <path d="M 239.043658 47.771656 
Q 239.51071 48.092554 239.056271 47.780322 
" clip-path="url(#p584604f747)" style="fill: none; stroke: #000000; stroke-linecap: round"/>
    <path d="M 236.892025 43.866751 
L 239.056271 47.780322 
L 234.626867 47.163576 
z
" clip-path="url(#p584604f747)" style="stroke: #000000; stroke-linecap: round"/>
   </g>
   <g id="patch_57">
    <path d="M 182.218716 46.491055 
Q 182.811307 46.633052 182.316642 46.514521 
" clip-path="url(#p584604f747)" style="fill: none; stroke: #000000; stroke-linecap: round"/>
    <path d="M 178.892804 43.637485 
L 182.316642 46.514521 
L 177.960711 47.52737 
z
" clip-path="url(#p584604f747)" style="stroke: #000000; stroke-linecap: round"/>
   </g>
   <g id="patch_58">
    <path d="M 117.598783 50.73832 
Q 118.129514 50.744048 117.542276 50.73771 
" clip-path="url(#p584604f747)" style="fill: none; stroke: #000000; stroke-linecap: round"/>
    <path d="M 113.564093 48.694659 
L 117.542276 50.73771 
L 113.520925 52.694426 
z
" clip-path="url(#p584604f747)" style="stroke: #000000; stroke-linecap: round"/>
   </g>
   <g id="patch_59">
    <path d="M 108.676749 76.528452 
Q 108.740668 76.840003 108.579886 76.056333 
" clip-path="url(#p584604f747)" style="fill: none; stroke: #000000; stroke-linecap: round"/>
    <path d="M 109.735163 71.735993 
L 108.579886 76.056333 
L 105.816781 72.539907 
z
" clip-path="url(#p584604f747)" style="stroke: #000000; stroke-linecap: round"/>
   </g>
   <g id="patch_60">
    <path d="M 103.325787 98.245902 
Q 103.288846 98.548456 103.387407 97.741217 
" clip-path="url(#p584604f747)" style="fill: none; stroke: #000000; stroke-linecap: round"/>
    <path d="M 105.857449 94.013095 
L 103.387407 97.741217 
L 101.886935 93.52831 
z
" clip-path="url(#p584604f747)" style="stroke: #000000; stroke-linecap: round"/>
   </g>
   <g id="patch_61">
    <path d="M 180.981729 125.874717 
Q 180.417007 125.703098 180.922012 125.856569 
" clip-path="url(#p584604f747)" style="fill: none; stroke: #000000; stroke-linecap: round"/>
    <path d="M 184.167645 128.933233 
L 180.922012 125.856569 
L 185.330723 125.10606 
z
" clip-path="url(#p584604f747)" style="stroke: #000000; stroke-linecap: round"/>
   </g>
   <g id="patch_62">
    <path d="M 242.236864 116.573166 
Q 241.878648 116.810623 242.452314 116.430346 
" clip-path="url(#p584604f747)" style="fill: none; stroke: #000000; stroke-linecap: round"/>
    <path d="M 246.891353 115.887269 
L 242.452314 116.430346 
L 244.681275 112.553269 
z
" clip-path="url(#p584604f747)" style="stroke: #000000; stroke-linecap: round"/>
   </g>
   <g id="patch_63">
    <path d="M 180.706208 56.653141 
Q 181.201955 56.651558 180.579675 56.653545 
" clip-path="url(#p584604f747)" style="fill: none; stroke: #000000; stroke-linecap: round"/>
    <path d="M 176.573309 54.666329 
L 180.579675 56.653545 
L 176.586082 58.666308 
z
" clip-path="url(#p584604f747)" style="stroke: #000000; stroke-linecap: round"/>
   </g>
   <g id="patch_64">
    <path d="M 173.376547 107.03603 
Q 173.352238 106.971661 173.722927 107.953227 
" clip-path="url(#p584604f747)" style="fill: none; stroke: #000000; stroke-linecap: round"/>
    <path d="M 173.265093 112.401865 
L 173.722927 107.953227 
L 177.007138 110.988678 
z
" clip-path="url(#p584604f747)" style="stroke: #000000; stroke-linecap: round"/>
   </g>
   <g id="patch_65">
    <path d="M 193.015893 91.378863 
Q 193.000416 91.679339 193.042451 90.863261 
" clip-path="url(#p584604f747)" style="fill: none; stroke: #000000; stroke-linecap: round"/>
    <path d="M 195.245565 86.971438 
L 193.042451 90.863261 
L 191.250861 86.765676 
z
" clip-path="url(#p584604f747)" style="stroke: #000000; stroke-linecap: round"/>
   </g>
   <g id="patch_66">
    <path d="M 232.386111 89.053395 
Q 232.382244 89.351445 232.392883 88.531555 
" clip-path="url(#p584604f747)" style="fill: none; stroke: #000000; stroke-linecap: round"/>
    <path d="M 234.444616 84.557842 
L 232.392883 88.531555 
L 230.444953 84.505941 
z
" clip-path="url(#p584604f747)" style="stroke: #000000; stroke-linecap: round"/>
   </g>
   <g id="patch_67">
    <path d="M 143.708784 89.987539 
Q 143.70707 89.689448 143.711785 90.509372 
" clip-path="url(#p584604f747)" style="fill: none; stroke: #000000; stroke-linecap: round"/>
    <path d="M 141.734819 94.520806 
L 143.711785 90.509372 
L 145.734753 94.497805 
z
" clip-path="url(#p584604f747)" style="stroke: #000000; stroke-linecap: round"/>
   </g>
   <g id="patch_68">
    <path d="M 172.672267 82.845277 
Q 172.711106 82.540334 172.608688 83.344465 
" clip-path="url(#p584604f747)" style="fill: none; stroke: #000000; stroke-linecap: round"/>
    <path d="M 170.119334 87.05972 
L 172.608688 83.344465 
L 174.087279 87.565101 
z
" clip-path="url(#p584604f747)" style="stroke: #000000; stroke-linecap: round"/>
   </g>
   <g id="line2d_21">
    <defs>
     <path id="ma6d03df234" d="M 0 1.5 
C 0.397805 1.5 0.77937 1.341951 1.06066 1.06066 
C 1.341951 0.77937 1.5 0.397805 1.5 0 
C 1.5 -0.397805 1.341951 -0.77937 1.06066 -1.06066 
C 0.77937 -1.341951 0.397805 -1.5 0 -1.5 
C -0.397805 -1.5 -0.77937 -1.341951 -1.06066 -1.06066 
C -1.341951 -0.77937 -1.5 -0.397805 -1.5 0 
C -1.5 0.397805 -1.341951 0.77937 -1.06066 1.06066 
C -0.77937 1.341951 -0.397805 1.5 0 1.5 
z
" style="stroke: #000000"/>
    </defs>
    <g clip-path="url(#p584604f747)">
     <use xlink:href="#ma6d03df234" x="55.728496" y="88.740904" style="stroke: #000000"/>
     <use xlink:href="#ma6d03df234" x="118.724539" y="88.740904" style="stroke: #000000"/>
     <use xlink:href="#ma6d03df234" x="181.720581" y="88.740904" style="stroke: #000000"/>
     <use xlink:href="#ma6d03df234" x="244.716624" y="88.740904" style="stroke: #000000"/>
     <use xlink:href="#ma6d03df234" x="307.712666" y="88.740904" style="stroke: #000000"/>
    </g>
   </g>
   <g id="patch_69">
    <path d="M 30.530079 166.681808 
L 30.530079 10.8 
" style="fill: none; stroke: #000000; stroke-width: 0.8; stroke-linejoin: miter; stroke-linecap: square"/>
   </g>
   <g id="patch_70">
    <path d="M 332.911083 166.681808 
L 332.911083 10.8 
" style="fill: none; stroke: #000000; stroke-width: 0.8; stroke-linejoin: miter; stroke-linecap: square"/>
   </g>
   <g id="patch_71">
    <path d="M 30.530079 166.681808 
L 332.911083 166.681808 
" style="fill: none; stroke: #000000; stroke-width: 0.8; stroke-linejoin: miter; stroke-linecap: square"/>
   </g>
   <g id="patch_72">
    <path d="M 30.530079 10.8 
L 332.911083 10.8 
" style="fill: none; stroke: #000000; stroke-width: 0.8; stroke-linejoin: miter; stroke-linecap: square"/>
   </g>
  </g>
 </g>
 <defs>
  <clipPath id="p584604f747">
   <rect x="30.530079" y="10.8" width="302.381004" height="155.881808"/>
  </clipPath>
 </defs>
</svg>
