<?xml version="1.0" encoding="utf-8" standalone="no"?>
<!DOCTYPE svg PUBLIC "-//W3C//DTD SVG 1.1//EN"
  "http://www.w3.org/Graphics/SVG/1.1/DTD/svg11.dtd">
<svg xmlns:xlink="http://www.w3.org/1999/xlink" width="343.711083pt" height="193.337484pt" viewBox="0 0 343.711083 193.337484" xmlns="http://www.w3.org/2000/svg" version="1.1">
 <metadata>
  <rdf:RDF xmlns:dc="http://purl.org/dc/elements/1.1/" xmlns:cc="http://creativecommons.org/ns#" xmlns:rdf="http://www.w3.org/1999/02/22-rdf-syntax-ns#">
   <cc:Work>
    <dc:type rdf:resource="http://purl.org/dc/dcmitype/StillImage"/>
    <dc:date>2026-02-12T22:42:47.878281</dc:date>
    <dc:format>image/svg+xml</dc:format>
    <dc:creator>
     <cc:Agent>
      <dc:title>Matplotlib v3.10.0, https://matplotlib.org/</dc:title>
     </cc:Agent>
    </dc:creator>
   </cc:Work>
  </rdf:RDF>
 </metadata>
 <defs>
  <style type="text/css">*{stroke-linejoin: round; stroke-linecap: butt}</style>
 </defs>
 <g id="figure_1">
  <g id="patch_1">
   <path d="M 0 193.337484 
L 343.711083 193.337484 
L 343.711083 0 
L 0 0 
z
" style="fill: #ffffff"/>
  </g>
  <g id="axes_1">
   <g id="patch_2">
    <path d="M 30.530079 166.681808 
L 332.911083 166.681808 
L 332.911083 10.8 
L 30.530079 10.8 
z
" style="fill: #ffffff"/>
   </g>
   <g id="matplotlib.axis_1">
    <g id="xtick_1">
     <g id="line2d_1">
      <path d="M 55.728496 166.681808 
L 55.728496 10.8 
" clip-path="url(#pd2d58c4a01)" style="fill: none; stroke: #b0b0b0; stroke-width: 0.8; stroke-linecap: square"/>
     </g>
     <g id="line2d_2">
      <defs>
       <path id="m458444664e" d="M 0 0 
L 0 3.5 
" style="stroke: #000000; stroke-width: 0.8"/>
      </defs>
      <g>
       <use xlink:href="#m458444664e" x="55.728496" y="166.681808" style="stroke: #000000; stroke-width: 0.8"/>
      </g>
     </g>
     <g id="text_1">
      <!-- $-2\pi$ -->
      <g transform="translate(46.523969 180.600306) scale(0.1 -0.1)">
       <defs>
        <path id="CMSY10-0" d="M 4218 1472 
C 4326 1472 4442 1472 4442 1600 
C 4442 1728 4326 1728 4218 1728 
L 755 1728 
C 646 1728 531 1728 531 1600 
C 531 1472 646 1472 755 1472 
L 4218 1472 
z
" transform="scale(0.015625)"/>
        <path id="CMR17-32" d="M 2669 990 
L 2554 990 
C 2490 537 2438 460 2413 422 
C 2381 371 1920 371 1830 371 
L 602 371 
C 832 620 1280 1073 1824 1596 
C 2214 1966 2669 2400 2669 3033 
C 2669 3788 2067 4224 1395 4224 
C 691 4224 262 3603 262 3027 
C 262 2777 448 2745 525 2745 
C 589 2745 781 2783 781 3007 
C 781 3206 614 3264 525 3264 
C 486 3264 448 3257 422 3244 
C 544 3788 915 4057 1306 4057 
C 1862 4057 2227 3616 2227 3033 
C 2227 2477 1901 1998 1536 1583 
L 262 147 
L 262 0 
L 2515 0 
L 2669 990 
z
" transform="scale(0.015625)"/>
        <path id="CMMI12-19" d="M 1658 2406 
L 2381 2406 
C 2208 1691 2099 1225 2099 715 
C 2099 625 2099 -64 2362 -64 
C 2496 -64 2611 57 2611 166 
C 2611 198 2611 210 2566 306 
C 2394 746 2394 1295 2394 1340 
C 2394 1378 2394 1832 2528 2406 
L 3245 2406 
C 3328 2406 3539 2406 3539 2611 
C 3539 2752 3418 2752 3302 2752 
L 1197 2752 
C 1050 2752 832 2752 538 2438 
C 371 2253 166 1915 166 1876 
C 166 1838 198 1825 237 1825 
C 282 1825 288 1844 320 1883 
C 653 2406 986 2406 1146 2406 
L 1510 2406 
C 1370 1927 1210 1372 685 255 
C 634 153 634 140 634 102 
C 634 -32 749 -64 806 -64 
C 992 -64 1043 102 1120 370 
C 1222 695 1222 708 1286 964 
L 1658 2406 
z
" transform="scale(0.015625)"/>
       </defs>
       <use xlink:href="#CMSY10-0" transform="scale(0.996264)"/>
       <use xlink:href="#CMR17-32" transform="translate(77.487468 0) scale(0.996264)"/>
       <use xlink:href="#CMMI12-19" transform="translate(123.177945 0) scale(0.996264)"/>
      </g>
     </g>
    </g>
    <g id="xtick_2">
     <g id="line2d_3">
      <path d="M 118.724539 166.681808 
L 118.724539 10.8 
" clip-path="url(#pd2d58c4a01)" style="fill: none; stroke: #b0b0b0; stroke-width: 0.8; stroke-linecap: square"/>
     </g>
     <g id="line2d_4">
      <g>
       <use xlink:href="#m458444664e" x="118.724539" y="166.681808" style="stroke: #000000; stroke-width: 0.8"/>
      </g>
     </g>
     <g id="text_2">
      <!-- $\pi$ -->
      <g transform="translate(115.885051 180.600306) scale(0.1 -0.1)">
       <use xlink:href="#CMMI12-19" transform="scale(0.996264)"/>
      </g>
     </g>
    </g>
    <g id="xtick_3">
     <g id="line2d_5">
      <path d="M 181.720581 166.681808 
L 181.720581 10.8 
" clip-path="url(#pd2d58c4a01)" style="fill: none; stroke: #b0b0b0; stroke-width: 0.8; stroke-linecap: square"/>
     </g>
     <g id="line2d_6">
      <g>
       <use xlink:href="#m458444664e" x="181.720581" y="166.681808" style="stroke: #000000; stroke-width: 0.8"/>
      </g>
     </g>
     <g id="text_3">
      <!-- $0$ -->
      <g transform="translate(179.229914 180.600306) scale(0.1 -0.1)">
       <defs>
        <path id="CMR17-30" d="M 2688 2038 
C 2688 2430 2682 3099 2413 3613 
C 2176 4063 1798 4224 1466 4224 
C 1158 4224 768 4082 525 3620 
C 269 3137 243 2539 243 2038 
C 243 1671 250 1112 448 623 
C 723 -39 1216 -128 1466 -128 
C 1760 -128 2208 -7 2470 604 
C 2662 1048 2688 1568 2688 2038 
z
M 1466 -26 
C 1056 -26 813 328 723 816 
C 653 1196 653 1749 653 2109 
C 653 2604 653 3015 736 3407 
C 858 3954 1216 4121 1466 4121 
C 1728 4121 2067 3947 2189 3420 
C 2272 3054 2278 2623 2278 2109 
C 2278 1691 2278 1176 2202 797 
C 2067 96 1690 -26 1466 -26 
z
" transform="scale(0.015625)"/>
       </defs>
       <use xlink:href="#CMR17-30" transform="scale(0.996264)"/>
      </g>
     </g>
    </g>
    <g id="xtick_4">
     <g id="line2d_7">
      <path d="M 244.716624 166.681808 
L 244.716624 10.8 
" clip-path="url(#pd2d58c4a01)" style="fill: none; stroke: #b0b0b0; stroke-width: 0.8; stroke-linecap: square"/>
     </g>
     <g id="line2d_8">
      <g>
       <use xlink:href="#m458444664e" x="244.716624" y="166.681808" style="stroke: #000000; stroke-width: 0.8"/>
      </g>
     </g>
     <g id="text_4">
      <!-- $\pi$ -->
      <g transform="translate(241.877136 180.600306) scale(0.1 -0.1)">
       <use xlink:href="#CMMI12-19" transform="scale(0.996264)"/>
      </g>
     </g>
    </g>
    <g id="xtick_5">
     <g id="line2d_9">
      <path d="M 307.712666 166.681808 
L 307.712666 10.8 
" clip-path="url(#pd2d58c4a01)" style="fill: none; stroke: #b0b0b0; stroke-width: 0.8; stroke-linecap: square"/>
     </g>
     <g id="line2d_10">
      <g>
       <use xlink:href="#m458444664e" x="307.712666" y="166.681808" style="stroke: #000000; stroke-width: 0.8"/>
      </g>
     </g>
     <g id="text_5">
      <!-- $2\pi$ -->
      <g transform="translate(302.382511 180.600306) scale(0.1 -0.1)">
       <use xlink:href="#CMR17-32" transform="scale(0.996264)"/>
       <use xlink:href="#CMMI12-19" transform="translate(45.690477 0) scale(0.996264)"/>
      </g>
     </g>
    </g>
   </g>
   <g id="matplotlib.axis_2">
    <g id="ytick_1">
     <g id="line2d_11">
      <path d="M 30.530079 151.093627 
L 332.911083 151.093627 
" clip-path="url(#pd2d58c4a01)" style="fill: none; stroke: #b0b0b0; stroke-width: 0.8; stroke-linecap: square"/>
     </g>
     <g id="line2d_12">
      <defs>
       <path id="mfb041010bc" d="M 0 0 
L -3.5 0 
" style="stroke: #000000; stroke-width: 0.8"/>
      </defs>
      <g>
       <use xlink:href="#mfb041010bc" x="30.530079" y="151.093627" style="stroke: #000000; stroke-width: 0.8"/>
      </g>
     </g>
     <g id="text_6">
      <!-- $\mathdefault{−4}$ -->
      <g transform="translate(10.8 154.552876) scale(0.1 -0.1)">
       <defs>
        <path id="CMR17-34" d="M 2150 4147 
C 2150 4281 2144 4288 2029 4288 
L 128 1254 
L 128 1088 
L 1779 1088 
L 1779 460 
C 1779 230 1766 166 1318 166 
L 1197 166 
L 1197 0 
C 1402 12 1747 12 1965 12 
C 2182 12 2528 12 2733 0 
L 2733 166 
L 2611 166 
C 2163 166 2150 230 2150 460 
L 2150 1088 
L 2803 1088 
L 2803 1254 
L 2150 1254 
L 2150 4147 
z
M 1798 3723 
L 1798 1254 
L 256 1254 
L 1798 3723 
z
" transform="scale(0.015625)"/>
       </defs>
       <use xlink:href="#CMSY10-0" transform="scale(0.996264)"/>
       <use xlink:href="#CMR17-34" transform="translate(77.487468 0) scale(0.996264)"/>
      </g>
     </g>
    </g>
    <g id="ytick_2">
     <g id="line2d_13">
      <path d="M 30.530079 119.917265 
L 332.911083 119.917265 
" clip-path="url(#pd2d58c4a01)" style="fill: none; stroke: #b0b0b0; stroke-width: 0.8; stroke-linecap: square"/>
     </g>
     <g id="line2d_14">
      <g>
       <use xlink:href="#mfb041010bc" x="30.530079" y="119.917265" style="stroke: #000000; stroke-width: 0.8"/>
      </g>
     </g>
     <g id="text_7">
      <!-- $\mathdefault{−2}$ -->
      <g transform="translate(10.8 123.376515) scale(0.1 -0.1)">
       <use xlink:href="#CMSY10-0" transform="scale(0.996264)"/>
       <use xlink:href="#CMR17-32" transform="translate(77.487468 0) scale(0.996264)"/>
      </g>
     </g>
    </g>
    <g id="ytick_3">
     <g id="line2d_15">
      <path d="M 30.530079 88.740904 
L 332.911083 88.740904 
" clip-path="url(#pd2d58c4a01)" style="fill: none; stroke: #b0b0b0; stroke-width: 0.8; stroke-linecap: square"/>
     </g>
     <g id="line2d_16">
      <g>
       <use xlink:href="#mfb041010bc" x="30.530079" y="88.740904" style="stroke: #000000; stroke-width: 0.8"/>
      </g>
     </g>
     <g id="text_8">
      <!-- $\mathdefault{0}$ -->
      <g transform="translate(18.548744 92.200153) scale(0.1 -0.1)">
       <use xlink:href="#CMR17-30" transform="scale(0.996264)"/>
      </g>
     </g>
    </g>
    <g id="ytick_4">
     <g id="line2d_17">
      <path d="M 30.530079 57.564542 
L 332.911083 57.564542 
" clip-path="url(#pd2d58c4a01)" style="fill: none; stroke: #b0b0b0; stroke-width: 0.8; stroke-linecap: square"/>
     </g>
     <g id="line2d_18">
      <g>
       <use xlink:href="#mfb041010bc" x="30.530079" y="57.564542" style="stroke: #000000; stroke-width: 0.8"/>
      </g>
     </g>
     <g id="text_9">
      <!-- $\mathdefault{2}$ -->
      <g transform="translate(18.548744 61.023792) scale(0.1 -0.1)">
       <use xlink:href="#CMR17-32" transform="scale(0.996264)"/>
      </g>
     </g>
    </g>
    <g id="ytick_5">
     <g id="line2d_19">
      <path d="M 30.530079 26.388181 
L 332.911083 26.388181 
" clip-path="url(#pd2d58c4a01)" style="fill: none; stroke: #b0b0b0; stroke-width: 0.8; stroke-linecap: square"/>
     </g>
     <g id="line2d_20">
      <g>
       <use xlink:href="#mfb041010bc" x="30.530079" y="26.388181" style="stroke: #000000; stroke-width: 0.8"/>
      </g>
     </g>
     <g id="text_10">
      <!-- $\mathdefault{4}$ -->
      <g transform="translate(18.548744 29.84743) scale(0.1 -0.1)">
       <use xlink:href="#CMR17-34" transform="scale(0.996264)"/>
      </g>
     </g>
    </g>
   </g>
   <g id="LineCollection_1">
    <path d="M 40.95701 166.681808 
L 40.95701 166.681808 
L 38.329329 161.666024 
L 35.95481 156.616592 
L 33.791064 151.54194 
L 31.810193 146.447417 
L 30.530079 143.001434 
" clip-path="url(#pd2d58c4a01)" style="fill: none; stroke: #000000"/>
    <path d="M 61.810873 166.681808 
L 61.810873 166.681808 
L 61.810873 166.681808 
L 58.084936 164.981299 
L 55.436169 163.135925 
L 52.438388 160.369987 
L 49.243314 156.573323 
L 45.956486 151.664924 
L 43.203221 146.668033 
L 40.834885 141.618297 
L 38.769309 136.533058 
L 36.957678 131.422009 
L 35.370245 126.291109 
L 33.989274 121.14432 
L 32.805139 115.984493 
L 31.814254 110.813847 
L 31.017643 105.634291 
L 30.530079 102.019094 
" clip-path="url(#pd2d58c4a01)" style="fill: none; stroke: #000000"/>
    <path d="M 137.102914 166.681808 
L 135.46121 163.470303 
L 132.846893 158.452136 
L 130.10591 153.452103 
L 127.146255 148.485778 
L 123.849926 143.682373 
L 121.144159 140.46642 
L 118.854925 138.356213 
L 116.85121 137.017648 
L 114.935521 136.203952 
L 112.306634 135.830655 
L 109.724886 136.261227 
L 109.724886 136.261227 
L 106.880404 137.542813 
L 106.880404 137.542813 
L 102.679349 140.630082 
L 102.679349 140.630082 
L 97.910237 145.204717 
L 93.489027 149.874095 
L 89.032 154.534301 
L 84.236591 159.1024 
L 80.073476 162.467591 
L 76.726999 164.651395 
L 72.237804 166.681808 
L 72.237804 166.681808 
L 72.237804 166.681808 
" clip-path="url(#pd2d58c4a01)" style="fill: none; stroke: #000000"/>
    <path d="M 122.161347 166.681808 
L 120.97512 165.554053 
L 118.131595 163.167716 
L 115.561265 161.563667 
L 113.086571 160.529523 
L 110.199754 159.947014 
L 107.10705 160.024737 
L 107.10705 160.024737 
L 103.633754 160.878528 
L 103.633754 160.878528 
L 99.552785 162.702369 
L 99.552785 162.702369 
L 93.091666 166.681808 
L 93.091666 166.681808 
" clip-path="url(#pd2d58c4a01)" style="fill: none; stroke: #000000"/>
    <path d="M 145.226322 166.681808 
L 145.226322 166.681808 
L 143.002692 161.613784 
L 140.81832 156.541219 
L 138.661594 151.465507 
L 136.520288 146.388058 
L 134.380391 141.310451 
L 132.224186 136.234682 
L 130.026577 131.163652 
L 127.747099 126.102295 
L 125.308733 121.060869 
L 122.522428 116.068814 
L 118.595238 111.30641 
L 118.595238 111.30641 
L 116.755793 110.390427 
L 116.755793 110.390427 
L 115.087674 110.384143 
L 113.752305 110.887926 
L 112.445812 111.774324 
L 110.758724 113.386742 
L 108.526726 116.112779 
L 105.366922 120.663051 
L 102.204111 125.596501 
L 99.088582 130.53809 
L 95.917488 135.470209 
L 92.609615 140.378222 
" clip-path="url(#pd2d58c4a01)" style="fill: none; stroke: #000000"/>
    <path d="M 155.653253 166.681808 
L 155.653253 166.681808 
L 153.462898 161.610032 
L 151.392339 156.524877 
L 149.430634 151.428252 
L 147.57065 146.321494 
L 145.808494 141.20552 
L 144.143344 136.080919 
L 142.577438 130.948014 
L 141.116335 125.806913 
L 139.76934 120.657553 
L 138.550111 115.499764 
L 137.477297 110.333376 
L 136.575118 105.158385 
L 135.873481 99.975226 
L 135.406997 94.785137 
L 135.212102 89.59058 
L 135.32211 84.395487 
L 135.76091 79.205101 
L 136.538067 74.025282 
L 137.64812 68.861566 
L 139.075024 63.718502 
L 140.799766 58.599679 
L 142.808129 53.508378 
L 145.097556 48.448722 
L 147.684273 43.427401 
L 150.612817 38.456537 
L 153.977275 33.560392 
L 157.974394 28.795062 
L 163.075818 24.332823 
L 163.075818 24.332823 
L 166.638024 22.297236 
L 166.638024 22.297236 
L 169.884911 21.249701 
L 169.884911 21.249701 
L 172.879742 20.993619 
L 175.805045 21.42451 
L 178.257813 22.323687 
L 180.719889 23.744351 
L 183.339343 25.856329 
L 186.163131 28.87466 
L 189.19413 33.055153 
L 192.060215 38.033986 
L 194.442053 43.081589 
L 196.460429 48.171636 
L 198.18186 53.290825 
L 199.644879 58.431444 
L 200.871649 63.588521 
L 201.873661 68.758515 
L 202.65482 73.938627 
L 203.213165 79.126379 
L 203.541617 84.319324 
L 203.628154 89.514795 
L 203.455181 94.709626 
L 202.997757 99.899765 
L 202.219724 105.079581 
L 201.065295 110.240383 
L 199.43934 115.366598 
L 197.152653 120.423193 
L 193.713502 125.291755 
L 193.713502 125.291755 
L 191.199722 127.385671 
L 191.199722 127.385671 
L 188.831401 128.430122 
L 188.831401 128.430122 
L 186.58988 128.649742 
L 184.488129 128.204319 
L 182.764059 127.362171 
L 180.91767 125.961927 
L 178.896815 123.7906 
L 176.709854 120.580458 
L 174.435079 116.047971 
L 172.544537 110.946442 
L 171.135608 105.802707 
L 170.12391 100.633846 
L 169.474387 95.449422 
L 169.18209 90.256398 
" clip-path="url(#pd2d58c4a01)" style="fill: none; stroke: #000000"/>
    <path d="M 166.080184 166.681808 
L 166.080184 166.681808 
L 163.508971 161.658169 
L 161.175057 156.603664 
L 159.040803 151.525667 
L 157.081268 146.428935 
L 155.280139 141.316666 
L 153.627331 136.191082 
L 152.117672 131.053768 
L 150.750031 125.905896 
L 149.526751 120.748385 
L 148.453346 115.582026 
L 147.538236 110.407597 
L 146.792475 105.225976 
L 146.229375 100.038261 
L 145.863982 94.845886 
L 145.712436 89.650728 
L 145.791132 84.45519 
L 146.115984 79.262243 
L 146.70196 74.075438 
L 147.56332 68.898907 
L 148.714946 63.73746 
" clip-path="url(#pd2d58c4a01)" style="fill: none; stroke: #000000"/>
    <path d="M 186.934047 166.681808 
L 186.934047 166.681808 
L 186.934047 166.681808 
L 183.172867 164.716702 
L 180.46984 162.635921 
L 177.391358 159.541679 
L 174.114832 155.334528 
L 171.014368 150.393093 
L 168.389163 145.377626 
L 166.117429 140.315987 
L 164.129894 135.22243 
L 162.38478 130.105203 
" clip-path="url(#pd2d58c4a01)" style="fill: none; stroke: #000000"/>
    <path d="M 263.411639 166.681808 
L 262.871748 165.605275 
L 260.316241 160.57903 
L 257.669465 155.565429 
L 254.865584 150.574794 
L 251.784403 145.628624 
L 248.7545 141.497084 
L 246.242762 138.754302 
L 244.09328 136.975739 
L 242.185459 135.873166 
L 240.168325 135.211276 
L 237.797269 135.083843 
L 237.797269 135.083843 
L 235.164607 135.721161 
L 235.164607 135.721161 
L 232.344871 137.186033 
L 232.344871 137.186033 
L 226.994379 141.574745 
L 222.461733 146.214642 
L 218.109588 150.901354 
L 213.623066 155.553703 
L 208.913008 159.898686 
L 204.960069 162.934529 
L 201.741856 164.895882 
L 197.360978 166.681808 
L 197.360978 166.681808 
L 197.360978 166.681808 
" clip-path="url(#pd2d58c4a01)" style="fill: none; stroke: #000000"/>
    <path d="M 249.108812 166.681808 
L 246.463096 164.262842 
L 243.693016 162.037995 
L 241.173305 160.553913 
L 238.693408 159.60621 
L 235.650397 159.123473 
L 232.511004 159.358668 
L 232.511004 159.358668 
L 228.967926 160.401194 
L 228.967926 160.401194 
L 224.488229 162.619704 
L 224.488229 162.619704 
L 218.21484 166.681808 
L 218.21484 166.681808 
" clip-path="url(#pd2d58c4a01)" style="fill: none; stroke: #000000"/>
    <path d="M 280.776427 166.681808 
L 280.776427 166.681808 
L 278.597816 161.608675 
L 276.532378 156.522958 
L 274.570027 151.426391 
L 272.704131 146.320199 
L 270.931152 141.205213 
L 269.250461 136.081954 
L 267.664508 130.95068 
L 266.179072 125.811427 
L 264.803831 120.664045 
L 263.553098 115.508257 
L 262.446702 110.343748 
L 261.510861 105.170349 
L 260.778582 99.988328 
L 260.288731 94.798842 
L 260.082783 89.604454 
L 260.198502 84.409473 
L 260.661805 79.219742 
L 261.480434 74.041699 
L 262.643593 68.881137 
L 264.128339 63.742441 
L 265.909126 58.628709 
L 267.96672 53.542606 
L 270.295028 48.487625 
L 272.906892 43.469703 
L 275.842818 38.499893 
L 279.188744 33.600153 
L 283.121449 28.819902 
L 288.050279 24.302321 
L 288.050279 24.302321 
L 291.757045 21.993883 
L 291.757045 21.993883 
L 295.092515 20.752989 
L 295.092515 20.752989 
L 298.151072 20.341621 
L 301.263968 20.665395 
L 303.772489 21.49002 
L 306.23025 22.810846 
L 308.830879 24.790069 
L 311.630587 27.633019 
L 314.641193 31.589088 
L 317.623588 36.549275 
L 320.092403 41.585613 
L 322.18268 46.667886 
L 323.967893 51.78124 
L 325.490512 56.917246 
L 326.775193 62.07057 
L 327.835221 67.237491 
L 328.675924 72.41513 
L 329.296563 77.60101 
L 329.691322 82.792742 
L 329.849606 87.987782 
L 329.75568 93.18318 
L 329.387375 98.375246 
L 328.713118 103.558999 
L 327.685617 108.727067 
L 326.227564 113.867022 
L 324.194934 118.953472 
L 321.255287 123.915022 
L 321.255287 123.915022 
L 318.435293 126.909946 
L 318.435293 126.909946 
L 315.98786 128.412893 
L 315.98786 128.412893 
L 313.671518 129.000786 
L 313.671518 129.000786 
L 311.50069 128.851139 
L 309.672311 128.209388 
L 307.899786 127.121345 
L 305.960999 125.374776 
L 303.844563 122.734011 
L 301.589032 118.917858 
L 299.383228 113.851257 
L 297.734451 108.726856 
L 296.515404 103.570023 
L 295.669701 98.393152 
L 295.177655 93.204101 
L 295.045871 88.009367 
" clip-path="url(#pd2d58c4a01)" style="fill: none; stroke: #000000"/>
    <path d="M 291.203359 166.681808 
L 291.203359 166.681808 
L 288.68398 161.651126 
L 286.38749 156.592028 
L 284.28035 151.511 
L 282.340231 146.412279 
L 280.552595 141.29874 
L 278.908619 136.172392 
L 277.404045 131.034675 
L 276.038503 125.88665 
L 274.815009 120.729148 
L 273.739704 115.562892 
L 272.821633 110.3886 
L 272.072513 105.207108 
L 271.506355 100.019482 
L 271.138893 94.827149 
L 270.986885 89.632 
L 271.067184 84.436476 
L 271.395858 79.243601 
L 271.987611 74.056977 
L 272.855919 68.880757 
L 274.014298 63.719709 
" clip-path="url(#pd2d58c4a01)" style="fill: none; stroke: #000000"/>
    <path d="M 312.057221 166.681808 
L 312.057221 166.681808 
L 312.057221 166.681808 
L 308.256198 164.441048 
L 305.487888 162.103249 
L 302.326953 158.657679 
L 298.969681 154.013906 
L 296.044222 149.043529 
L 293.543286 144.01098 
L 291.367444 138.938052 
L 289.458633 133.836448 
L 287.781513 128.713155 
L 286.314673 123.572691 
L 285.045879 118.418215 
L 283.969513 113.252109 
L 283.084948 108.076341 
L 282.395608 102.892701 
L 281.908323 97.702991 
L 281.632935 92.509174 
L 281.582223 87.313524 
L 281.772118 82.118783 
L 282.2225 76.928383 
L 282.959082 71.746794 
L 284.017148 66.580191 
L 285.449673 61.437938 
L 287.345101 56.336321 
L 289.874578 51.310232 
L 293.453913 46.465651 
L 293.453913 46.465651 
L 296.318695 44.030297 
L 296.318695 44.030297 
L 298.93765 42.76315 
L 298.93765 42.76315 
L 301.39283 42.35682 
L 303.88578 42.69713 
L 305.805609 43.47807 
L 307.774407 44.767375 
L 309.91554 46.766113 
L 312.242432 49.716547 
L 314.714462 53.896136 
L 316.98211 58.95623 
" clip-path="url(#pd2d58c4a01)" style="fill: none; stroke: #000000"/>
    <path d="M 332.911083 155.931338 
L 332.911083 155.931338 
L 327.209409 160.192708 
L 327.209409 160.192708 
L 323.487059 161.990275 
L 323.487059 161.990275 
L 320.087712 162.873708 
L 320.087712 162.873708 
L 316.952067 163.002067 
L 313.967175 162.479867 
L 311.375604 161.491526 
L 308.758975 159.961901 
" clip-path="url(#pd2d58c4a01)" style="fill: none; stroke: #000000"/>
    <path d="M 332.911083 145.180869 
L 332.911083 145.180869 
L 328.489625 149.840981 
L 328.489625 149.840981 
L 324.559594 152.778497 
L 324.559594 152.778497 
L 321.165195 154.3911 
L 321.165195 154.3911 
L 318.07398 155.091567 
L 318.07398 155.091567 
L 315.190019 155.062718 
L 312.557829 154.444788 
L 310.166986 153.373572 
L 307.681974 151.720367 
L 305.015965 149.298924 
L 302.14051 145.875095 
L 299.072076 141.181286 
L 296.447773 136.166409 
" clip-path="url(#pd2d58c4a01)" style="fill: none; stroke: #000000"/>
    <path d="M 332.911083 129.055164 
L 332.911083 129.055164 
L 330.12025 134.045361 
L 326.516121 138.890609 
L 326.516121 138.890609 
L 322.869609 142.29264 
L 322.869609 142.29264 
L 319.775205 144.115236 
L 319.775205 144.115236 
L 316.94093 144.960165 
L 316.94093 144.960165 
L 314.294865 145.04089 
L 311.851675 144.506066 
L 309.701492 143.536984 
L 307.451634 142.000652 
" clip-path="url(#pd2d58c4a01)" style="fill: none; stroke: #000000"/>
    <path d="M 332.911083 107.554225 
L 332.911083 107.554225 
L 331.74896 112.714845 
L 330.201742 117.848188 
L 328.173714 122.936074 
" clip-path="url(#pd2d58c4a01)" style="fill: none; stroke: #000000"/>
    <path d="M 328.736916 43.740562 
L 330.311385 48.872605 
L 331.700811 54.018849 
L 332.911083 59.177113 
L 332.911083 59.177113 
" clip-path="url(#pd2d58c4a01)" style="fill: none; stroke: #000000"/>
    <path d="M 321.156925 10.8 
L 322.006604 12.324953 
L 324.637555 17.340315 
L 327.006146 22.3905 
L 329.156912 27.466622 
L 331.118906 32.563084 
L 332.911083 37.676174 
L 332.911083 37.676174 
" clip-path="url(#pd2d58c4a01)" style="fill: none; stroke: #000000"/>
    <path d="M 301.63029 10.8 
L 301.63029 10.8 
L 301.63029 10.8 
L 305.356226 12.500509 
L 308.004993 14.345883 
L 311.002774 17.111821 
L 314.197849 20.908485 
L 317.484677 25.816884 
L 320.237942 30.813775 
" clip-path="url(#pd2d58c4a01)" style="fill: none; stroke: #000000"/>
    <path d="M 226.338249 10.8 
L 227.979952 14.011505 
L 230.594269 19.029671 
L 233.335252 24.029704 
L 236.294907 28.99603 
L 239.591236 33.799435 
L 242.297004 37.015388 
L 244.586238 39.125595 
L 246.589953 40.464159 
L 248.505642 41.277856 
L 251.134528 41.651153 
L 253.716276 41.220581 
L 253.716276 41.220581 
L 256.560758 39.938995 
L 256.560758 39.938995 
L 260.761813 36.851725 
L 260.761813 36.851725 
L 265.530925 32.277091 
L 269.952136 27.607712 
L 274.409162 22.947507 
L 279.204571 18.379408 
L 283.367686 15.014217 
L 286.714164 12.830412 
L 291.203359 10.8 
L 291.203359 10.8 
L 291.203359 10.8 
" clip-path="url(#pd2d58c4a01)" style="fill: none; stroke: #000000"/>
    <path d="M 241.279815 10.8 
L 242.466042 11.927755 
L 245.309567 14.314091 
L 247.879897 15.918141 
L 250.354592 16.952285 
L 253.241408 17.534794 
L 256.334112 17.45707 
L 256.334112 17.45707 
L 259.807408 16.60328 
L 259.807408 16.60328 
L 263.888377 14.779439 
L 263.888377 14.779439 
L 270.349496 10.8 
L 270.349496 10.8 
" clip-path="url(#pd2d58c4a01)" style="fill: none; stroke: #000000"/>
    <path d="M 218.21484 10.8 
L 218.21484 10.8 
L 220.43847 15.868024 
L 222.622842 20.940589 
L 224.779568 26.016301 
L 226.920874 31.09375 
L 229.060771 36.171357 
L 231.216977 41.247126 
L 233.414586 46.318156 
L 235.694064 51.379513 
L 238.132429 56.420938 
L 240.918735 61.412994 
L 244.845925 66.175397 
L 244.845925 66.175397 
L 246.685369 67.091381 
L 246.685369 67.091381 
L 248.353489 67.097665 
L 249.688857 66.593882 
L 250.99535 65.707484 
L 252.682438 64.095066 
L 254.914436 61.369029 
L 258.074241 56.818757 
L 261.237051 51.885307 
L 264.35258 46.943717 
" clip-path="url(#pd2d58c4a01)" style="fill: none; stroke: #000000"/>
    <path d="M 207.787909 10.8 
L 207.787909 10.8 
L 209.978264 15.871776 
L 212.048823 20.956931 
L 214.010529 26.053556 
L 215.870512 31.160314 
L 217.632669 36.276288 
L 219.297819 41.400889 
L 220.863725 46.533794 
L 222.324827 51.674895 
L 223.671822 56.824255 
L 224.891052 61.982044 
L 225.963865 67.148432 
L 226.866045 72.323422 
L 227.567682 77.506582 
L 228.034165 82.696671 
L 228.229061 87.891227 
L 228.119052 93.08632 
L 227.680253 98.276707 
L 226.903096 103.456526 
L 225.793042 108.620242 
L 224.366139 113.763306 
L 222.641396 118.882129 
L 220.633034 123.97343 
L 218.343607 129.033086 
L 215.75689 134.054407 
L 212.828346 139.025271 
L 209.463887 143.921416 
L 205.466768 148.686746 
L 200.365344 153.148984 
L 200.365344 153.148984 
L 196.803138 155.184571 
L 196.803138 155.184571 
L 193.556252 156.232107 
L 193.556252 156.232107 
L 190.561421 156.488189 
L 187.636117 156.057298 
L 185.183349 155.158121 
L 182.721274 153.737457 
L 180.10182 151.625478 
L 177.278031 148.607148 
L 174.247033 144.426655 
L 171.380948 139.447821 
" clip-path="url(#pd2d58c4a01)" style="fill: none; stroke: #000000"/>
    <path d="M 197.360978 10.8 
L 197.360978 10.8 
L 199.932191 15.823639 
L 202.266106 20.878144 
L 204.400359 25.956141 
L 206.359894 31.052872 
L 208.161024 36.165142 
L 209.813832 41.290726 
L 211.32349 46.42804 
L 212.691131 51.575912 
L 213.914412 56.733423 
L 214.987817 61.899782 
L 215.902927 67.074211 
L 216.648688 72.255832 
L 217.211787 77.443547 
L 217.57718 82.635922 
L 217.728727 87.83108 
L 217.650031 93.026618 
L 217.325179 98.219564 
L 216.739203 103.40637 
L 215.877842 108.582901 
L 214.726216 113.744348 
" clip-path="url(#pd2d58c4a01)" style="fill: none; stroke: #000000"/>
    <path d="M 176.507116 10.8 
L 176.507116 10.8 
L 176.507116 10.8 
L 180.268295 12.765106 
L 182.971322 14.845887 
L 186.049804 17.940129 
L 189.32633 22.14728 
L 192.426794 27.088715 
L 195.052 32.104182 
L 197.323734 37.165821 
" clip-path="url(#pd2d58c4a01)" style="fill: none; stroke: #000000"/>
    <path d="M 100.029524 10.8 
L 100.569414 11.876533 
L 103.124921 16.902778 
L 105.771698 21.916379 
L 108.575578 26.907013 
L 111.65676 31.853184 
L 114.686663 35.984724 
L 117.1984 38.727505 
L 119.347882 40.506069 
L 121.255703 41.608641 
L 123.272837 42.270532 
L 125.643894 42.397964 
L 125.643894 42.397964 
L 128.276556 41.760647 
L 128.276556 41.760647 
L 131.096292 40.295775 
L 131.096292 40.295775 
L 136.446783 35.907063 
L 140.97943 31.267166 
L 145.331574 26.580454 
L 149.818097 21.928104 
L 154.528155 17.583122 
L 158.481094 14.547279 
L 161.699306 12.585926 
L 166.080184 10.8 
L 166.080184 10.8 
L 166.080184 10.8 
" clip-path="url(#pd2d58c4a01)" style="fill: none; stroke: #000000"/>
    <path d="M 114.332351 10.8 
L 116.978066 13.218966 
L 119.748146 15.443812 
L 122.267858 16.927894 
L 124.747755 17.875598 
L 127.790765 18.358335 
L 130.930158 18.12314 
L 130.930158 18.12314 
L 134.473237 17.080613 
L 134.473237 17.080613 
L 138.952933 14.862104 
L 138.952933 14.862104 
L 145.226322 10.8 
L 145.226322 10.8 
" clip-path="url(#pd2d58c4a01)" style="fill: none; stroke: #000000"/>
    <path d="M 82.664735 10.8 
L 82.664735 10.8 
L 84.843346 15.873133 
L 86.908784 20.95885 
L 88.871135 26.055417 
L 90.737031 31.161609 
L 92.510011 36.276595 
L 94.190702 41.399853 
L 95.776655 46.531128 
L 97.262091 51.670381 
L 98.637331 56.817762 
L 99.888064 61.973551 
L 100.994461 67.13806 
L 101.930302 72.311459 
L 102.66258 77.49348 
L 103.152432 82.682966 
L 103.35838 87.877354 
L 103.242661 93.072335 
L 102.779357 98.262066 
L 101.960728 103.440109 
L 100.79757 108.600671 
L 99.312824 113.739366 
L 97.532036 118.853098 
L 95.474442 123.939202 
L 93.146135 128.994182 
" clip-path="url(#pd2d58c4a01)" style="fill: none; stroke: #000000"/>
    <path d="M 72.237804 10.8 
L 72.237804 10.8 
L 74.757182 15.830682 
L 77.053673 20.889779 
L 79.160813 25.970808 
L 81.100932 31.069529 
L 82.888567 36.183068 
L 84.532543 41.309415 
L 86.037117 46.447132 
L 87.402659 51.595158 
L 88.626153 56.752659 
L 89.701458 61.918916 
L 90.619529 67.093207 
L 91.368649 72.2747 
L 91.934807 77.462325 
L 92.30227 82.654658 
L 92.454277 87.849807 
L 92.373979 93.045332 
L 92.045305 98.238207 
L 91.453551 103.424831 
L 90.585243 108.60105 
L 89.426864 113.762099 
" clip-path="url(#pd2d58c4a01)" style="fill: none; stroke: #000000"/>
    <path d="M 51.383941 10.8 
L 51.383941 10.8 
L 51.383941 10.8 
L 55.184965 13.04076 
L 57.953274 15.378558 
L 61.114209 18.824129 
L 64.471481 23.467902 
L 67.39694 28.438278 
L 69.897876 33.470828 
L 72.073718 38.543756 
L 73.982529 43.645359 
L 75.659649 48.768653 
L 77.126489 53.909117 
L 78.395283 59.063592 
L 79.47165 64.229698 
L 80.356214 69.405467 
L 81.045554 74.589107 
L 81.532839 79.778817 
L 81.808227 84.972633 
L 81.858939 90.168284 
L 81.669044 95.363025 
L 81.218662 100.553424 
L 80.48208 105.735014 
L 79.424014 110.901617 
L 77.991489 116.043869 
L 76.096062 121.145487 
L 73.566584 126.171575 
L 69.98725 131.016157 
L 69.98725 131.016157 
L 67.122467 133.45151 
L 67.122467 133.45151 
L 64.503512 134.718658 
L 64.503512 134.718658 
L 62.048332 135.124988 
L 59.555383 134.784678 
L 57.635553 134.003738 
L 55.666755 132.714433 
L 53.525622 130.715695 
L 51.19873 127.765261 
L 48.7267 123.585671 
L 46.459053 118.525578 
L 44.694704 113.411135 
L 43.323311 108.264305 
L 42.291046 103.096277 
L 41.573621 97.914031 
L 41.166069 92.722855 
L 41.079819 87.52769 
L 41.344876 82.3343 
L 42.019564 77.151143 
L 43.218586 71.994198 
L 45.208698 66.906325 
L 45.208698 66.906325 
L 47.615533 63.356722 
L 47.615533 63.356722 
L 49.564525 61.786913 
L 49.564525 61.786913 
L 51.503938 61.1311 
L 51.503938 61.1311 
L 53.312209 61.257569 
L 54.760671 61.84831 
" clip-path="url(#pd2d58c4a01)" style="fill: none; stroke: #000000"/>
    <path d="M 30.530079 21.550469 
L 30.530079 21.550469 
L 36.231754 17.2891 
L 36.231754 17.2891 
L 39.954104 15.491533 
L 39.954104 15.491533 
L 43.353451 14.6081 
L 43.353451 14.6081 
L 46.489096 14.479741 
L 49.473988 15.00194 
L 52.065558 15.990281 
L 54.682187 17.519906 
" clip-path="url(#pd2d58c4a01)" style="fill: none; stroke: #000000"/>
    <path d="M 30.530079 32.300939 
L 30.530079 32.300939 
L 34.951538 27.640826 
L 34.951538 27.640826 
L 38.881568 24.703311 
L 38.881568 24.703311 
L 42.275968 23.090708 
L 42.275968 23.090708 
L 45.367182 22.39024 
L 45.367182 22.39024 
L 48.251143 22.41909 
L 50.883333 23.037019 
L 53.274177 24.108236 
L 55.759188 25.761441 
L 58.425197 28.182884 
L 61.300653 31.606713 
L 64.369086 36.300522 
L 66.993389 41.315399 
" clip-path="url(#pd2d58c4a01)" style="fill: none; stroke: #000000"/>
    <path d="M 30.530079 48.426643 
L 30.530079 48.426643 
L 33.320913 43.436447 
L 36.925042 38.591198 
L 36.925042 38.591198 
L 40.571553 35.189168 
L 40.571553 35.189168 
L 43.665957 33.366572 
L 43.665957 33.366572 
L 46.500232 32.521642 
L 46.500232 32.521642 
L 49.146298 32.440918 
L 51.589487 32.975741 
L 53.73967 33.944824 
L 55.989528 35.481155 
" clip-path="url(#pd2d58c4a01)" style="fill: none; stroke: #000000"/>
    <path d="M 30.530079 64.552347 
L 30.530079 64.552347 
L 32.04869 59.416626 
L 34.016501 54.322187 
L 36.586763 49.301203 
L 40.11506 44.444231 
L 40.11506 44.444231 
L 43.212819 41.666458 
L 43.212819 41.666458 
" clip-path="url(#pd2d58c4a01)" style="fill: none; stroke: #000000"/>
    <path d="M 84.985763 150.220074 
L 80.899129 154.452494 
L 77.352827 157.428797 
L 74.219301 159.466891 
L 71.372184 160.802178 
L 68.579134 161.605275 
L 65.237065 161.867925 
L 61.810873 161.306573 
L 61.810873 161.306573 
L 61.810873 161.306573 
L 58.198406 159.760737 
" clip-path="url(#pd2d58c4a01)" style="fill: none; stroke: #000000"/>
    <path d="M 123.360435 160.519621 
L 120.37227 157.420117 
L 117.763381 155.322038 
L 115.401045 153.945923 
L 113.045651 153.081348 
L 109.98696 152.6988 
L 106.954794 153.090623 
L 106.954794 153.090623 
L 103.541092 154.32422 
L 103.541092 154.32422 
L 98.851545 157.0456 
L 98.851545 157.0456 
L 93.091666 161.306573 
L 87.531216 165.640267 
L 86.175535 166.681808 
" clip-path="url(#pd2d58c4a01)" style="fill: none; stroke: #000000"/>
    <path d="M 206.09179 155.561561 
L 202.639299 158.287812 
L 199.574057 160.139131 
L 196.762589 161.332884 
L 193.885865 162.024224 
L 190.288928 162.088967 
L 186.934047 161.306573 
L 186.934047 161.306573 
L 186.934047 161.306573 
L 183.288726 159.488928 
" clip-path="url(#pd2d58c4a01)" style="fill: none; stroke: #000000"/>
    <path d="M 254.890484 166.681808 
L 251.763452 162.516454 
L 248.435185 158.484266 
L 245.593248 155.721305 
L 243.090885 153.867848 
L 240.792825 152.670666 
L 238.357905 151.936624 
L 235.570093 151.749792 
L 235.570093 151.749792 
L 232.49795 152.292726 
L 232.49795 152.292726 
L 229.053917 153.694673 
L 229.053917 153.694673 
L 223.810031 156.986143 
L 223.810031 156.986143 
L 218.21484 161.306573 
L 212.698498 165.654888 
L 211.360767 166.681808 
" clip-path="url(#pd2d58c4a01)" style="fill: none; stroke: #000000"/>
    <path d="M 321.974601 71.054879 
L 322.82779 76.231773 
L 323.393897 81.419118 
L 323.668794 86.612691 
L 323.63547 91.808067 
L 323.260558 96.999672 
L 322.484152 102.178991 
" clip-path="url(#pd2d58c4a01)" style="fill: none; stroke: #000000"/>
    <path d="M 240.080727 16.962187 
L 243.068892 20.061691 
L 245.677782 22.159769 
L 248.040117 23.535885 
L 250.395512 24.40046 
L 253.454202 24.783008 
L 256.486369 24.391185 
L 256.486369 24.391185 
L 259.900071 23.157588 
L 259.900071 23.157588 
L 264.589618 20.436208 
L 264.589618 20.436208 
L 270.349496 16.175235 
L 275.909946 11.841541 
L 277.265628 10.8 
" clip-path="url(#pd2d58c4a01)" style="fill: none; stroke: #000000"/>
    <path d="M 157.349373 21.920246 
L 160.801863 19.193996 
L 163.867105 17.342677 
L 166.678574 16.148923 
L 169.555297 15.457584 
L 173.152235 15.39284 
L 176.507116 16.175235 
L 176.507116 16.175235 
L 176.507116 16.175235 
L 180.152436 17.99288 
" clip-path="url(#pd2d58c4a01)" style="fill: none; stroke: #000000"/>
    <path d="M 108.550678 10.8 
L 111.677711 14.965353 
L 115.005977 18.997541 
L 117.847914 21.760503 
L 120.350277 23.61396 
L 122.648337 24.811142 
L 125.083258 25.545184 
L 127.871069 25.732015 
L 127.871069 25.732015 
L 130.943213 25.189082 
L 130.943213 25.189082 
L 134.387246 23.787135 
L 134.387246 23.787135 
L 139.631131 20.495664 
L 139.631131 20.495664 
L 145.226322 16.175235 
L 150.742664 11.82692 
L 152.080395 10.8 
" clip-path="url(#pd2d58c4a01)" style="fill: none; stroke: #000000"/>
    <path d="M 295.939498 74.766421 
L 297.364579 70.434982 
L 298.86598 67.482358 
L 300.308185 65.582443 
L 301.62698 64.441315 
L 302.935849 63.781186 
L 304.686199 63.554555 
L 304.686199 63.554555 
L 306.656625 64.155646 
L 306.656625 64.155646 
L 308.666403 65.722565 
L 308.666403 65.722565 
L 311.823997 70.639107 
L 313.697444 75.740468 
L 314.841665 80.900746 
L 315.404755 86.086857 
L 315.392407 91.280634 
L 314.729846 96.189474 
L 313.911297 99.053281 
L 312.057221 102.178991 
L 312.057221 102.178991 
L 312.057221 102.178991 
L 310.494574 103.321885 
L 310.494574 103.321885 
L 309.006815 103.381886 
L 307.921897 102.882891 
L 306.96613 102.031312 
" clip-path="url(#pd2d58c4a01)" style="fill: none; stroke: #000000"/>
    <path d="M 46.679204 43.373278 
L 48.944299 42.878321 
L 51.383941 43.051408 
L 51.383941 43.051408 
L 51.383941 43.051408 
L 51.383941 43.051408 
L 51.383941 43.051408 
L 53.889676 43.986673 
L 55.760561 45.214393 
L 57.90116 47.207123 
L 60.209 50.132143 
L 62.664503 54.286595 
L 64.926248 59.347343 
L 66.681055 64.462639 
L 68.040344 69.61031 
L 69.058116 74.779092 
L 69.758438 79.961948 
L 70.145618 85.153524 
L 70.207044 90.348762 
L 69.910482 95.541662 
L 69.193018 100.723212 
L 67.928681 105.875778 
L 65.81311 110.94904 
L 65.81311 110.94904 
L 63.498891 114.121903 
L 63.498891 114.121903 
L 61.572366 115.546766 
L 61.572366 115.546766 
L 59.643007 116.085395 
L 59.643007 116.085395 
L 57.8645 115.864758 
L 56.468242 115.224421 
L 55.026208 114.110883 
L 53.41672 112.272669 
L 51.674123 109.435164 
L 49.905436 105.299526 
L 48.445885 100.161376 
L 47.565291 94.987116 
L 47.199632 89.796187 
L 47.376128 84.603024 
L 48.244263 79.430209 
L 50.365513 74.367826 
L 50.365513 74.367826 
L 51.717161 72.949184 
L 51.717161 72.949184 
L 53.281161 72.30737 
L 53.281161 72.30737 
L 54.697534 72.515745 
" clip-path="url(#pd2d58c4a01)" style="fill: none; stroke: #000000"/>
    <path d="M 85.498372 123.189457 
L 83.377507 128.268047 
L 80.797117 133.289031 
L 77.653188 138.129647 
L 74.721037 141.62641 
L 72.043332 144.058284 
L 69.598466 145.681182 
L 67.301243 146.700507 
L 64.766842 147.259865 
L 62.006259 147.192736 
L 62.006259 147.192736 
L 59.065517 146.321366 
L 59.065517 146.321366 
L 55.90951 144.427892 
L 55.90951 144.427892 
L 51.383941 139.805634 
" clip-path="url(#pd2d58c4a01)" style="fill: none; stroke: #000000"/>
    <path d="M 301.63029 96.803756 
L 300.958098 91.622002 
L 300.929941 86.428786 
L 301.69767 81.253036 
L 301.69767 81.253036 
L 303.278319 77.352969 
L 303.278319 77.352969 
L 304.494939 76.019554 
L 304.494939 76.019554 
L 305.973646 75.489397 
L 305.973646 75.489397 
" clip-path="url(#pd2d58c4a01)" style="fill: none; stroke: #000000"/>
    <path d="M 290.671834 70.573908 
L 292.203135 65.440587 
L 294.114483 61.055705 
L 296.013047 58.003904 
L 297.823307 55.957704 
L 299.373903 54.750241 
L 301.63029 53.801878 
L 301.63029 53.801878 
L 301.63029 53.801878 
L 301.63029 53.801878 
L 301.63029 53.801878 
L 303.708787 53.66946 
L 305.583217 54.153108 
" clip-path="url(#pd2d58c4a01)" style="fill: none; stroke: #000000"/>
    <path d="M 289.240971 37.91825 
L 291.845724 35.471666 
L 294.227889 33.840506 
L 296.463106 32.816719 
L 298.929274 32.248916 
L 301.63029 32.300939 
L 301.63029 32.300939 
L 301.63029 32.300939 
L 301.63029 32.300939 
L 301.63029 32.300939 
L 304.332795 33.06617 
L 306.45826 34.190876 
L 308.776958 35.969419 
L 311.278949 38.580246 
" clip-path="url(#pd2d58c4a01)" style="fill: none; stroke: #000000"/>
    <path d="M 61.810873 69.927582 
L 63.390265 75.056458 
L 64.413429 80.223915 
L 64.956752 85.410972 
L 65.02154 90.605357 
L 64.535926 95.793096 
L 63.276258 100.943111 
L 63.276258 100.943111 
L 61.375838 104.654441 
L 61.375838 104.654441 
L 59.908334 106.062755 
L 59.908334 106.062755 
L 58.282999 106.637373 
L 58.282999 106.637373 
L 56.824085 106.390541 
" clip-path="url(#pd2d58c4a01)" style="fill: none; stroke: #000000"/>
    <path d="M 212.012041 116.739231 
L 210.348964 121.863229 
L 208.299352 126.949519 
L 205.77425 131.977796 
L 202.759481 136.68032 
L 199.936557 140.06533 
L 197.35218 142.408006 
L 194.985736 143.962086 
L 192.752532 144.928187 
L 190.129297 145.447761 
L 186.934047 145.180869 
L 186.934047 145.180869 
L 186.934047 145.180869 
L 186.934047 145.180869 
L 184.155773 144.139053 
L 182.011088 142.787457 
" clip-path="url(#pd2d58c4a01)" style="fill: none; stroke: #000000"/>
    <path d="M 259.922565 145.180869 
L 257.619695 140.12227 
L 255.233593 135.073989 
L 252.695072 130.045683 
L 249.857382 125.060845 
L 246.281052 120.210771 
L 246.281052 120.210771 
L 244.236566 118.408097 
L 244.236566 118.408097 
L 242.276034 117.464083 
L 242.276034 117.464083 
L 240.37438 117.323478 
L 238.690001 117.789661 
L 237.204683 118.618259 
L 235.374222 120.092665 
L 233.047316 122.527983 
L 229.903433 126.479364 
L 226.400818 131.351205 
" clip-path="url(#pd2d58c4a01)" style="fill: none; stroke: #000000"/>
    <path d="M 151.429121 60.742577 
L 153.092199 55.618579 
L 155.14181 50.532288 
L 157.666913 45.504012 
L 160.681681 40.801488 
L 163.504606 37.416478 
L 166.088982 35.073802 
L 168.455427 33.519722 
L 170.68863 32.553621 
L 173.311866 32.034046 
L 176.507116 32.300939 
L 176.507116 32.300939 
L 176.507116 32.300939 
L 176.507116 32.300939 
L 179.28539 33.342754 
L 181.430074 34.694351 
" clip-path="url(#pd2d58c4a01)" style="fill: none; stroke: #000000"/>
    <path d="M 103.518597 32.300939 
L 105.821468 37.359538 
L 108.207569 42.407819 
L 110.74609 47.436125 
L 113.58378 52.420962 
L 117.160111 57.271037 
L 117.160111 57.271037 
L 119.204596 59.073711 
L 119.204596 59.073711 
L 121.165128 60.017725 
L 121.165128 60.017725 
L 123.066783 60.15833 
L 124.751162 59.692147 
L 126.236479 58.863549 
L 128.066941 57.389143 
L 130.393847 54.953825 
L 133.537729 51.002444 
L 137.040344 46.130603 
" clip-path="url(#pd2d58c4a01)" style="fill: none; stroke: #000000"/>
    <path d="M 72.237804 112.92946 
L 70.037953 117.996023 
L 66.609216 122.864015 
L 66.609216 122.864015 
L 64.272369 124.732163 
L 64.272369 124.732163 
L 62.014216 125.635655 
L 62.014216 125.635655 
L 59.87909 125.734991 
L 57.974956 125.232012 
" clip-path="url(#pd2d58c4a01)" style="fill: none; stroke: #000000"/>
    <path d="M 171.580917 38.102103 
L 173.93897 37.569332 
L 176.507116 37.676174 
L 176.507116 37.676174 
L 176.507116 37.676174 
L 176.507116 37.676174 
L 176.507116 37.676174 
L 179.109249 38.516683 
L 181.105744 39.685091 
L 183.334459 41.554899 
L 185.742276 44.301863 
L 188.326775 48.205328 
L 190.870589 53.229894 
" clip-path="url(#pd2d58c4a01)" style="fill: none; stroke: #000000"/>
    <path d="M 124.302755 136.969588 
L 121.667297 133.517851 
L 119.485189 131.285928 
L 117.614177 129.886711 
L 115.911366 129.055153 
L 113.645384 128.616228 
L 111.300058 128.934969 
L 111.300058 128.934969 
L 108.832135 130.038074 
L 108.832135 130.038074 
L 103.518597 134.430399 
" clip-path="url(#pd2d58c4a01)" style="fill: none; stroke: #000000"/>
    <path d="M 176.507116 134.430399 
L 173.55049 129.468292 
L 171.226864 124.414261 
L 169.3484 119.310348 
L 167.823447 114.174843 
" clip-path="url(#pd2d58c4a01)" style="fill: none; stroke: #000000"/>
    <path d="M 201.070414 129.615789 
L 197.360978 134.430399 
L 197.360978 134.430399 
L 194.280112 137.059053 
L 194.280112 137.059053 
L 191.505233 138.452741 
L 191.505233 138.452741 
L 188.922555 138.962216 
L 186.198728 138.69077 
L 184.14931 137.938355 
L 182.105408 136.699691 
" clip-path="url(#pd2d58c4a01)" style="fill: none; stroke: #000000"/>
    <path d="M 239.138407 40.512219 
L 241.773866 43.963957 
L 243.955974 46.195879 
L 245.826985 47.595097 
L 247.529796 48.426654 
L 249.795778 48.86558 
L 252.141105 48.546839 
L 252.141105 48.546839 
L 254.609028 47.443734 
L 254.609028 47.443734 
L 259.922565 43.051408 
" clip-path="url(#pd2d58c4a01)" style="fill: none; stroke: #000000"/>
    <path d="M 159.888472 120.202939 
L 158.736956 115.04114 
L 157.779305 109.868825 
L 157.01716 104.687889 
L 156.455864 99.500158 
L 156.104043 94.307558 
L 155.973389 89.112266 
L 156.078792 83.916872 
L 156.438979 78.724583 
L 157.078078 73.539535 
L 158.028861 68.367365 
L 159.339542 63.216446 
L 161.088915 58.100928 
L 163.425512 53.05001 
L 165.809395 49.258198 
L 168.056721 46.625687 
L 170.130187 44.877342 
L 172.049785 43.783231 
L 174.099813 43.139875 
L 176.507116 43.051408 
L 176.507116 43.051408 
L 176.507116 43.051408 
L 176.507116 43.051408 
L 176.507116 43.051408 
L 178.929003 43.678765 
L 180.785156 44.662638 
" clip-path="url(#pd2d58c4a01)" style="fill: none; stroke: #000000"/>
    <path d="M 251.636691 112.631439 
L 249.495634 107.554225 
L 247.041364 102.515967 
L 247.041364 102.515967 
L 245.464049 100.158026 
L 245.464049 100.158026 
L 244.234359 99.1094 
L 244.234359 99.1094 
L 244.234359 99.1094 
L 243.063895 98.933361 
L 242.064283 99.364149 
L 241.239771 100.080981 
L 239.974758 101.624743 
L 238.140337 104.449962 
L 235.30178 109.435013 
" clip-path="url(#pd2d58c4a01)" style="fill: none; stroke: #000000"/>
    <path d="M 249.495634 96.803756 
L 248.566646 91.631901 
L 248.608125 86.446491 
L 249.827083 81.29992 
L 251.70162 76.218732 
L 253.900354 71.148371 
" clip-path="url(#pd2d58c4a01)" style="fill: none; stroke: #000000"/>
    <path d="M 111.804471 64.850368 
L 113.945528 69.927582 
L 116.399798 74.965841 
L 116.399798 74.965841 
L 117.977113 77.323782 
L 117.977113 77.323782 
L 119.206803 78.372408 
L 119.206803 78.372408 
L 119.206803 78.372408 
L 120.377267 78.548446 
L 121.376879 78.117659 
L 122.201391 77.400827 
L 123.466405 75.857065 
L 125.300825 73.031845 
L 128.139383 68.046795 
" clip-path="url(#pd2d58c4a01)" style="fill: none; stroke: #000000"/>
    <path d="M 113.945528 80.678052 
L 114.874516 85.849907 
L 114.833038 91.035316 
L 113.61408 96.181888 
L 111.739543 101.263076 
L 109.540809 106.333437 
" clip-path="url(#pd2d58c4a01)" style="fill: none; stroke: #000000"/>
    <path d="M 234.460899 65.604337 
L 235.964314 70.742163 
L 237.317459 75.89092 
L 238.421634 81.054926 
L 239.093574 86.237122 
L 239.068703 91.428521 
" clip-path="url(#pd2d58c4a01)" style="fill: none; stroke: #000000"/>
    <path d="M 186.934047 59.177113 
L 189.275738 64.226122 
L 190.987997 69.344607 
L 192.234073 74.499555 
L 193.082944 79.676181 
L 193.558298 84.865553 
L 193.652313 90.060394 
L 193.323239 95.252392 
L 192.472643 100.427783 
L 190.858272 105.551446 
L 190.858272 105.551446 
L 188.674666 109.27592 
L 188.674666 109.27592 
L 186.957372 110.810112 
L 186.957372 110.810112 
L 185.175969 111.460324 
L 185.175969 111.460324 
L 183.528541 111.305683 
L 182.263523 110.720243 
L 180.979227 109.688399 
L 179.53052 107.936372 
L 177.969938 105.184045 
L 176.426763 101.126924 
L 175.232018 95.971063 
L 174.680339 90.78527 
L 174.760664 85.59217 
L 175.656383 80.422284 
L 175.656383 80.422284 
L 177.26451 76.782031 
L 177.26451 76.782031 
L 178.519954 75.50528 
L 178.519954 75.50528 
L 180.022867 75.049615 
L 181.424316 75.494436 
L 182.278621 76.208069 
L 183.354995 77.633674 
L 184.479573 79.982146 
L 185.494023 83.604463 
L 185.995517 88.591933 
L 185.402736 93.768966 
L 185.402736 93.768966 
L 184.383239 96.071176 
L 184.383239 96.071176 
L 183.250079 97.01525 
L 183.250079 97.01525 
L 183.250079 97.01525 
L 182.256395 96.972182 
" clip-path="url(#pd2d58c4a01)" style="fill: none; stroke: #000000"/>
    <path d="M 166.158184 81.370176 
L 166.863055 76.188049 
L 168.061419 71.031068 
L 169.702594 66.522956 
L 171.390521 63.405196 
L 173.028561 61.329054 
L 174.40698 60.138193 
L 176.507116 59.177113 
L 176.507116 59.177113 
L 176.507116 59.177113 
L 176.507116 59.177113 
L 176.507116 59.177113 
L 178.430702 59.056427 
L 180.123182 59.540835 
L 181.55993 60.396602 
" clip-path="url(#pd2d58c4a01)" style="fill: none; stroke: #000000"/>
    <path d="M 128.980263 111.87747 
L 127.476849 106.739644 
L 126.123703 101.590887 
L 125.019528 96.426882 
L 124.347588 91.244686 
L 124.37246 86.053286 
" clip-path="url(#pd2d58c4a01)" style="fill: none; stroke: #000000"/>
   </g>
   <g id="patch_3">
    <path d="M 35.169818 154.775544 
Q 35.021377 154.427405 35.31145 155.107714 
" clip-path="url(#pd2d58c4a01)" style="fill: none; stroke: #000000; stroke-linecap: round"/>
    <path d="M 35.040577 159.571639 
L 35.31145 155.107714 
L 38.720066 158.002767 
z
" clip-path="url(#pd2d58c4a01)" style="stroke: #000000; stroke-linecap: round"/>
   </g>
   <g id="patch_4">
    <path d="M 40.081474 139.763476 
Q 39.941786 139.419576 40.222847 140.11152 
" clip-path="url(#pd2d58c4a01)" style="fill: none; stroke: #000000; stroke-linecap: round"/>
    <path d="M 39.875194 144.570123 
L 40.222847 140.11152 
L 43.581137 143.064803 
z
" clip-path="url(#pd2d58c4a01)" style="stroke: #000000; stroke-linecap: round"/>
   </g>
   <g id="patch_5">
    <path d="M 109.724886 136.261227 
Q 109.013766 136.581623 109.321994 136.44275 
" clip-path="url(#pd2d58c4a01)" style="fill: none; stroke: #000000; stroke-linecap: round"/>
    <path d="M 113.790493 136.623085 
L 109.321994 136.44275 
L 112.147361 132.976152 
z
" clip-path="url(#pd2d58c4a01)" style="stroke: #000000; stroke-linecap: round"/>
   </g>
   <g id="patch_6">
    <path d="M 110.199754 159.947014 
Q 109.426578 159.966445 109.771083 159.957787 
" clip-path="url(#pd2d58c4a01)" style="fill: none; stroke: #000000; stroke-linecap: round"/>
    <path d="M 113.820067 161.856662 
L 109.771083 159.957787 
L 113.719574 157.857925 
z
" clip-path="url(#pd2d58c4a01)" style="stroke: #000000; stroke-linecap: round"/>
   </g>
   <g id="patch_7">
    <path d="M 124.333254 119.313162 
Q 124.124417 118.939002 124.460479 119.541103 
" clip-path="url(#pd2d58c4a01)" style="fill: none; stroke: #000000; stroke-linecap: round"/>
    <path d="M 124.663576 124.008625 
L 124.460479 119.541103 
L 128.156355 122.059138 
z
" clip-path="url(#pd2d58c4a01)" style="stroke: #000000; stroke-linecap: round"/>
   </g>
   <g id="patch_8">
    <path d="M 175.805045 21.42451 
Q 176.418237 21.649304 175.98171 21.489274 
" clip-path="url(#pd2d58c4a01)" style="fill: none; stroke: #000000; stroke-linecap: round"/>
    <path d="M 172.914514 18.234692 
L 175.98171 21.489274 
L 171.537726 21.990282 
z
" clip-path="url(#pd2d58c4a01)" style="stroke: #000000; stroke-linecap: round"/>
   </g>
   <g id="patch_9">
    <path d="M 149.119507 118.788296 
Q 149.054777 118.476751 149.217483 119.259862 
" clip-path="url(#pd2d58c4a01)" style="fill: none; stroke: #000000; stroke-linecap: round"/>
    <path d="M 148.072997 123.583073 
L 149.217483 119.259862 
L 151.98936 122.769377 
z
" clip-path="url(#pd2d58c4a01)" style="stroke: #000000; stroke-linecap: round"/>
   </g>
   <g id="patch_10">
    <path d="M 170.087599 148.622496 
Q 169.894682 148.253928 170.22024 148.875907 
" clip-path="url(#pd2d58c4a01)" style="fill: none; stroke: #000000; stroke-linecap: round"/>
    <path d="M 170.303245 153.347272 
L 170.22024 148.875907 
L 173.847135 151.492322 
z
" clip-path="url(#pd2d58c4a01)" style="stroke: #000000; stroke-linecap: round"/>
   </g>
   <g id="patch_11">
    <path d="M 235.164607 135.721161 
Q 234.459673 136.087379 234.746878 135.938174 
" clip-path="url(#pd2d58c4a01)" style="fill: none; stroke: #000000; stroke-linecap: round"/>
    <path d="M 239.218477 135.868933 
L 234.746878 135.938174 
L 237.374445 132.31935 
z
" clip-path="url(#pd2d58c4a01)" style="stroke: #000000; stroke-linecap: round"/>
   </g>
   <g id="patch_12">
    <path d="M 235.650397 159.123473 
Q 234.865549 159.182271 235.19561 159.157544 
" clip-path="url(#pd2d58c4a01)" style="fill: none; stroke: #000000; stroke-linecap: round"/>
    <path d="M 239.333848 160.853123 
L 235.19561 159.157544 
L 239.035016 156.864301 
z
" clip-path="url(#pd2d58c4a01)" style="stroke: #000000; stroke-linecap: round"/>
   </g>
   <g id="patch_13">
    <path d="M 301.263968 20.665395 
Q 301.891098 20.871551 301.45611 20.728558 
" clip-path="url(#pd2d58c4a01)" style="fill: none; stroke: #000000; stroke-linecap: round"/>
    <path d="M 298.280739 17.579428 
L 301.45611 20.728558 
L 297.031584 21.379377 
z
" clip-path="url(#pd2d58c4a01)" style="stroke: #000000; stroke-linecap: round"/>
   </g>
   <g id="patch_14">
    <path d="M 274.407044 118.769099 
Q 274.342201 118.45756 274.505182 119.240596 
" clip-path="url(#pd2d58c4a01)" style="fill: none; stroke: #000000; stroke-linecap: round"/>
    <path d="M 273.362237 123.564214 
L 274.505182 119.240596 
L 277.27831 122.749122 
z
" clip-path="url(#pd2d58c4a01)" style="stroke: #000000; stroke-linecap: round"/>
   </g>
   <g id="patch_15">
    <path d="M 281.802498 95.707125 
Q 281.786563 95.406604 281.829827 96.222548 
" clip-path="url(#pd2d58c4a01)" style="fill: none; stroke: #000000; stroke-linecap: round"/>
    <path d="M 280.044424 100.322833 
L 281.829827 96.222548 
L 284.038813 100.111042 
z
" clip-path="url(#pd2d58c4a01)" style="stroke: #000000; stroke-linecap: round"/>
   </g>
   <g id="patch_16">
    <path d="M 323.487059 161.990275 
Q 322.637222 162.211133 322.869474 162.150774 
" clip-path="url(#pd2d58c4a01)" style="fill: none; stroke: #000000; stroke-linecap: round"/>
    <path d="M 327.243931 163.080362 
L 322.869474 162.150774 
L 326.237818 159.208962 
z
" clip-path="url(#pd2d58c4a01)" style="stroke: #000000; stroke-linecap: round"/>
   </g>
   <g id="patch_17">
    <path d="M 312.557829 154.444788 
Q 311.960118 154.176984 312.38271 154.366326 
" clip-path="url(#pd2d58c4a01)" style="fill: none; stroke: #000000; stroke-linecap: round"/>
    <path d="M 315.215288 157.827035 
L 312.38271 154.366326 
L 316.850824 154.176689 
z
" clip-path="url(#pd2d58c4a01)" style="stroke: #000000; stroke-linecap: round"/>
   </g>
   <g id="patch_18">
    <path d="M 325.052531 140.256073 
Q 324.872698 140.423848 325.510364 139.828935 
" clip-path="url(#pd2d58c4a01)" style="fill: none; stroke: #000000; stroke-linecap: round"/>
    <path d="M 329.799478 138.56264 
L 325.510364 139.828935 
L 327.070797 135.637867 
z
" clip-path="url(#pd2d58c4a01)" style="stroke: #000000; stroke-linecap: round"/>
   </g>
   <g id="patch_19">
    <path d="M 331.172531 114.627316 
Q 331.073941 114.954416 331.297996 114.211049 
" clip-path="url(#pd2d58c4a01)" style="fill: none; stroke: #000000; stroke-linecap: round"/>
    <path d="M 334.367235 110.958393 
L 331.297996 114.211049 
L 330.537415 109.804064 
z
" clip-path="url(#pd2d58c4a01)" style="stroke: #000000; stroke-linecap: round"/>
   </g>
   <g id="patch_20">
    <path d="M 330.833099 50.80496 
Q 330.919599 51.125343 330.714677 50.366342 
" clip-path="url(#pd2d58c4a01)" style="fill: none; stroke: #000000; stroke-linecap: round"/>
    <path d="M 331.602919 45.983303 
L 330.714677 50.366342 
L 327.741192 47.025925 
z
" clip-path="url(#pd2d58c4a01)" style="stroke: #000000; stroke-linecap: round"/>
   </g>
   <g id="patch_21">
    <path d="M 327.786429 24.232082 
Q 327.933979 24.580321 327.645352 23.89912 
" clip-path="url(#pd2d58c4a01)" style="fill: none; stroke: #000000; stroke-linecap: round"/>
    <path d="M 327.926359 19.435821 
L 327.645352 23.89912 
L 324.243317 20.996335 
z
" clip-path="url(#pd2d58c4a01)" style="stroke: #000000; stroke-linecap: round"/>
   </g>
   <g id="patch_22">
    <path d="M 312.291413 18.643092 
Q 312.445862 18.826623 311.880425 18.154721 
" clip-path="url(#pd2d58c4a01)" style="fill: none; stroke: #000000; stroke-linecap: round"/>
    <path d="M 310.835123 13.806464 
L 311.880425 18.154721 
L 307.774638 16.382008 
z
" clip-path="url(#pd2d58c4a01)" style="stroke: #000000; stroke-linecap: round"/>
   </g>
   <g id="patch_23">
    <path d="M 253.716276 41.220581 
Q 254.427397 40.900185 254.119168 41.039057 
" clip-path="url(#pd2d58c4a01)" style="fill: none; stroke: #000000; stroke-linecap: round"/>
    <path d="M 249.65067 40.858723 
L 254.119168 41.039057 
L 251.293802 44.505656 
z
" clip-path="url(#pd2d58c4a01)" style="stroke: #000000; stroke-linecap: round"/>
   </g>
   <g id="patch_24">
    <path d="M 253.241408 17.534794 
Q 254.014584 17.515363 253.670079 17.524021 
" clip-path="url(#pd2d58c4a01)" style="fill: none; stroke: #000000; stroke-linecap: round"/>
    <path d="M 249.621095 15.625145 
L 253.670079 17.524021 
L 249.721588 19.623883 
z
" clip-path="url(#pd2d58c4a01)" style="stroke: #000000; stroke-linecap: round"/>
   </g>
   <g id="patch_25">
    <path d="M 236.564398 53.178967 
Q 236.738822 53.539596 236.426442 52.893736 
" clip-path="url(#pd2d58c4a01)" style="fill: none; stroke: #000000; stroke-linecap: round"/>
    <path d="M 236.48526 48.421987 
L 236.426442 52.893736 
L 232.884333 50.163632 
z
" clip-path="url(#pd2d58c4a01)" style="stroke: #000000; stroke-linecap: round"/>
   </g>
   <g id="patch_26">
    <path d="M 227.383127 100.257077 
Q 227.337401 100.561847 227.457562 99.760958 
" clip-path="url(#pd2d58c4a01)" style="fill: none; stroke: #000000; stroke-linecap: round"/>
    <path d="M 230.028924 96.101983 
L 227.457562 99.760958 
L 226.0732 95.508483 
z
" clip-path="url(#pd2d58c4a01)" style="stroke: #000000; stroke-linecap: round"/>
   </g>
   <g id="patch_27">
    <path d="M 214.321656 58.693511 
Q 214.386385 59.005057 214.223679 58.221946 
" clip-path="url(#pd2d58c4a01)" style="fill: none; stroke: #000000; stroke-linecap: round"/>
    <path d="M 215.368165 53.898735 
L 214.223679 58.221946 
L 211.451802 54.712431 
z
" clip-path="url(#pd2d58c4a01)" style="stroke: #000000; stroke-linecap: round"/>
   </g>
   <g id="patch_28">
    <path d="M 190.390601 23.843485 
Q 190.633582 24.230741 190.282343 23.670947 
" clip-path="url(#pd2d58c4a01)" style="fill: none; stroke: #000000; stroke-linecap: round"/>
    <path d="M 189.850536 19.219707 
L 190.282343 23.670947 
L 186.462266 21.345649 
z
" clip-path="url(#pd2d58c4a01)" style="stroke: #000000; stroke-linecap: round"/>
   </g>
   <g id="patch_29">
    <path d="M 128.276556 41.760647 
Q 128.98149 41.394429 128.694285 41.543634 
" clip-path="url(#pd2d58c4a01)" style="fill: none; stroke: #000000; stroke-linecap: round"/>
    <path d="M 124.222685 41.612875 
L 128.694285 41.543634 
L 126.066718 45.162458 
z
" clip-path="url(#pd2d58c4a01)" style="stroke: #000000; stroke-linecap: round"/>
   </g>
   <g id="patch_30">
    <path d="M 127.790765 18.358335 
Q 128.575613 18.299536 128.245552 18.324264 
" clip-path="url(#pd2d58c4a01)" style="fill: none; stroke: #000000; stroke-linecap: round"/>
    <path d="M 124.107314 16.628685 
L 128.245552 18.324264 
L 124.406146 20.617506 
z
" clip-path="url(#pd2d58c4a01)" style="stroke: #000000; stroke-linecap: round"/>
   </g>
   <g id="patch_31">
    <path d="M 101.350428 69.105871 
Q 101.406404 69.415315 101.263365 68.624581 
" clip-path="url(#pd2d58c4a01)" style="fill: none; stroke: #000000; stroke-linecap: round"/>
    <path d="M 102.5194 64.332452 
L 101.263365 68.624581 
L 98.583283 65.044475 
z
" clip-path="url(#pd2d58c4a01)" style="stroke: #000000; stroke-linecap: round"/>
   </g>
   <g id="patch_32">
    <path d="M 89.034118 58.712709 
Q 89.098962 59.024248 88.935981 58.241212 
" clip-path="url(#pd2d58c4a01)" style="fill: none; stroke: #000000; stroke-linecap: round"/>
    <path d="M 90.078925 53.917593 
L 88.935981 58.241212 
L 86.162852 54.732685 
z
" clip-path="url(#pd2d58c4a01)" style="stroke: #000000; stroke-linecap: round"/>
   </g>
   <g id="patch_33">
    <path d="M 78.887517 112.827451 
Q 78.797634 113.150097 79.007788 112.39572 
" clip-path="url(#pd2d58c4a01)" style="fill: none; stroke: #000000; stroke-linecap: round"/>
    <path d="M 82.007868 109.079168 
L 79.007788 112.39572 
L 78.154594 108.005725 
z
" clip-path="url(#pd2d58c4a01)" style="stroke: #000000; stroke-linecap: round"/>
   </g>
   <g id="patch_34">
    <path d="M 39.954104 15.491533 
Q 40.80394 15.270675 40.571688 15.331033 
" clip-path="url(#pd2d58c4a01)" style="fill: none; stroke: #000000; stroke-linecap: round"/>
    <path d="M 36.197232 14.401445 
L 40.571688 15.331033 
L 37.203344 18.272845 
z
" clip-path="url(#pd2d58c4a01)" style="stroke: #000000; stroke-linecap: round"/>
   </g>
   <g id="patch_35">
    <path d="M 50.883333 23.037019 
Q 51.481044 23.304823 51.058452 23.115481 
" clip-path="url(#pd2d58c4a01)" style="fill: none; stroke: #000000; stroke-linecap: round"/>
    <path d="M 48.225875 19.654773 
L 51.058452 23.115481 
L 46.590339 23.305118 
z
" clip-path="url(#pd2d58c4a01)" style="stroke: #000000; stroke-linecap: round"/>
   </g>
   <g id="patch_36">
    <path d="M 38.388632 37.225735 
Q 38.568465 37.057959 37.930798 37.652873 
" clip-path="url(#pd2d58c4a01)" style="fill: none; stroke: #000000; stroke-linecap: round"/>
    <path d="M 33.641685 38.919168 
L 37.930798 37.652873 
L 36.370366 41.843941 
z
" clip-path="url(#pd2d58c4a01)" style="stroke: #000000; stroke-linecap: round"/>
   </g>
   <g id="patch_37">
    <path d="M 34.928894 52.539836 
Q 35.115263 52.175765 34.792177 52.806911 
" clip-path="url(#pd2d58c4a01)" style="fill: none; stroke: #000000; stroke-linecap: round"/>
    <path d="M 31.189198 55.456164 
L 34.792177 52.806911 
L 34.749792 57.278846 
z
" clip-path="url(#pd2d58c4a01)" style="stroke: #000000; stroke-linecap: round"/>
   </g>
   <g id="patch_38">
    <path d="M 74.219301 159.466891 
Q 73.507521 159.800713 73.80798 159.659799 
" clip-path="url(#pd2d58c4a01)" style="fill: none; stroke: #000000; stroke-linecap: round"/>
    <path d="M 78.278707 159.77208 
L 73.80798 159.659799 
L 76.580241 156.150587 
z
" clip-path="url(#pd2d58c4a01)" style="stroke: #000000; stroke-linecap: round"/>
   </g>
   <g id="patch_39">
    <path d="M 106.954794 153.090623 
Q 106.101368 153.399022 106.299428 153.32745 
" clip-path="url(#pd2d58c4a01)" style="fill: none; stroke: #000000; stroke-linecap: round"/>
    <path d="M 110.741051 153.848977 
L 106.299428 153.32745 
L 109.381623 150.087068 
z
" clip-path="url(#pd2d58c4a01)" style="stroke: #000000; stroke-linecap: round"/>
   </g>
   <g id="patch_40">
    <path d="M 196.762589 161.332884 
Q 196.043408 161.505719 196.41131 161.417305 
" clip-path="url(#pd2d58c4a01)" style="fill: none; stroke: #000000; stroke-linecap: round"/>
    <path d="M 200.767912 162.427261 
L 196.41131 161.417305 
L 199.833237 158.537996 
z
" clip-path="url(#pd2d58c4a01)" style="stroke: #000000; stroke-linecap: round"/>
   </g>
   <g id="patch_41">
    <path d="M 235.570093 151.749792 
Q 234.802057 151.885526 235.134994 151.826686 
" clip-path="url(#pd2d58c4a01)" style="fill: none; stroke: #000000; stroke-linecap: round"/>
    <path d="M 239.422017 153.100043 
L 235.134994 151.826686 
L 238.725893 149.161082 
z
" clip-path="url(#pd2d58c4a01)" style="stroke: #000000; stroke-linecap: round"/>
   </g>
   <g id="patch_42">
    <path d="M 323.499534 83.414891 
Q 323.51544 83.715398 323.472251 82.899434 
" clip-path="url(#pd2d58c4a01)" style="fill: none; stroke: #000000; stroke-linecap: round"/>
    <path d="M 325.25803 78.799313 
L 323.472251 82.899434 
L 321.263621 79.010738 
z
" clip-path="url(#pd2d58c4a01)" style="stroke: #000000; stroke-linecap: round"/>
   </g>
   <g id="patch_43">
    <path d="M 256.486369 24.391185 
Q 257.339794 24.082786 257.141734 24.154358 
" clip-path="url(#pd2d58c4a01)" style="fill: none; stroke: #000000; stroke-linecap: round"/>
    <path d="M 252.700112 23.632831 
L 257.141734 24.154358 
L 254.059539 27.394739 
z
" clip-path="url(#pd2d58c4a01)" style="stroke: #000000; stroke-linecap: round"/>
   </g>
   <g id="patch_44">
    <path d="M 166.678574 16.148923 
Q 167.397754 15.976088 167.029853 16.064503 
" clip-path="url(#pd2d58c4a01)" style="fill: none; stroke: #000000; stroke-linecap: round"/>
    <path d="M 162.67325 15.054546 
L 167.029853 16.064503 
L 163.607926 18.943811 
z
" clip-path="url(#pd2d58c4a01)" style="stroke: #000000; stroke-linecap: round"/>
   </g>
   <g id="patch_45">
    <path d="M 127.871069 25.732015 
Q 128.639105 25.596282 128.306168 25.655121 
" clip-path="url(#pd2d58c4a01)" style="fill: none; stroke: #000000; stroke-linecap: round"/>
    <path d="M 124.019145 24.381765 
L 128.306168 25.655121 
L 124.715269 28.320726 
z
" clip-path="url(#pd2d58c4a01)" style="stroke: #000000; stroke-linecap: round"/>
   </g>
   <g id="patch_46">
    <path d="M 314.130438 77.69321 
Q 314.199996 78.006909 314.027524 77.229085 
" clip-path="url(#pd2d58c4a01)" style="fill: none; stroke: #000000; stroke-linecap: round"/>
    <path d="M 315.114186 72.890978 
L 314.027524 77.229085 
L 311.209036 73.756892 
z
" clip-path="url(#pd2d58c4a01)" style="stroke: #000000; stroke-linecap: round"/>
   </g>
   <g id="patch_47">
    <path d="M 68.715805 102.668004 
Q 68.638328 102.98375 68.827289 102.213673 
" clip-path="url(#pd2d58c4a01)" style="fill: none; stroke: #000000; stroke-linecap: round"/>
    <path d="M 71.722909 98.805538 
L 68.827289 102.213673 
L 67.838153 97.852296 
z
" clip-path="url(#pd2d58c4a01)" style="stroke: #000000; stroke-linecap: round"/>
   </g>
   <g id="patch_48">
    <path d="M 74.721037 141.62641 
Q 74.051611 142.234378 74.209832 142.090683 
" clip-path="url(#pd2d58c4a01)" style="fill: none; stroke: #000000; stroke-linecap: round"/>
    <path d="M 78.515533 140.881989 
L 74.209832 142.090683 
L 75.826298 137.920906 
z
" clip-path="url(#pd2d58c4a01)" style="stroke: #000000; stroke-linecap: round"/>
   </g>
   <g id="patch_49">
    <path d="M 301.223462 84.449971 
Q 301.268634 84.145441 301.14976 84.946845 
" clip-path="url(#pd2d58c4a01)" style="fill: none; stroke: #000000; stroke-linecap: round"/>
    <path d="M 298.5845 88.6101 
L 301.14976 84.946845 
L 302.541208 89.197006 
z
" clip-path="url(#pd2d58c4a01)" style="stroke: #000000; stroke-linecap: round"/>
   </g>
   <g id="patch_50">
    <path d="M 294.114483 61.055705 
Q 294.589124 60.292755 294.47318 60.479125 
" clip-path="url(#pd2d58c4a01)" style="fill: none; stroke: #000000; stroke-linecap: round"/>
    <path d="M 290.662044 62.819049 
L 294.47318 60.479125 
L 294.058437 64.931988 
z
" clip-path="url(#pd2d58c4a01)" style="stroke: #000000; stroke-linecap: round"/>
   </g>
   <g id="patch_51">
    <path d="M 298.929274 32.248916 
Q 299.604528 32.261922 299.161955 32.253398 
" clip-path="url(#pd2d58c4a01)" style="fill: none; stroke: #000000; stroke-linecap: round"/>
    <path d="M 295.201211 30.176741 
L 299.161955 32.253398 
L 295.124183 34.175999 
z
" clip-path="url(#pd2d58c4a01)" style="stroke: #000000; stroke-linecap: round"/>
   </g>
   <g id="patch_52">
    <path d="M 64.981712 87.412129 
Q 64.985429 87.710147 64.975202 86.890217 
" clip-path="url(#pd2d58c4a01)" style="fill: none; stroke: #000000; stroke-linecap: round"/>
    <path d="M 66.92516 82.865585 
L 64.975202 86.890217 
L 62.925471 82.915472 
z
" clip-path="url(#pd2d58c4a01)" style="stroke: #000000; stroke-linecap: round"/>
   </g>
   <g id="patch_53">
    <path d="M 204.695233 133.660877 
Q 204.481049 133.994967 204.870277 133.387838 
" clip-path="url(#pd2d58c4a01)" style="fill: none; stroke: #000000; stroke-linecap: round"/>
    <path d="M 208.712814 131.099845 
L 204.870277 133.387838 
L 205.345405 128.941013 
z
" clip-path="url(#pd2d58c4a01)" style="stroke: #000000; stroke-linecap: round"/>
   </g>
   <g id="patch_54">
    <path d="M 248.671675 123.452837 
Q 248.370446 123.044323 248.732745 123.535658 
" clip-path="url(#pd2d58c4a01)" style="fill: none; stroke: #000000; stroke-linecap: round"/>
    <path d="M 249.496955 127.942015 
L 248.732745 123.535658 
L 252.716357 125.568104 
z
" clip-path="url(#pd2d58c4a01)" style="stroke: #000000; stroke-linecap: round"/>
   </g>
   <g id="patch_55">
    <path d="M 158.745929 43.820931 
Q 158.960113 43.48684 158.570885 44.093969 
" clip-path="url(#pd2d58c4a01)" style="fill: none; stroke: #000000; stroke-linecap: round"/>
    <path d="M 154.728349 46.381963 
L 158.570885 44.093969 
L 158.095758 48.540795 
z
" clip-path="url(#pd2d58c4a01)" style="stroke: #000000; stroke-linecap: round"/>
   </g>
   <g id="patch_56">
    <path d="M 114.769488 54.02897 
Q 115.070717 54.437485 114.708417 53.946149 
" clip-path="url(#pd2d58c4a01)" style="fill: none; stroke: #000000; stroke-linecap: round"/>
    <path d="M 113.944207 49.539792 
L 114.708417 53.946149 
L 110.724805 51.913703 
z
" clip-path="url(#pd2d58c4a01)" style="stroke: #000000; stroke-linecap: round"/>
   </g>
   <g id="patch_57">
    <path d="M 68.887785 119.628987 
Q 68.605685 120.029503 68.967396 119.515959 
" clip-path="url(#pd2d58c4a01)" style="fill: none; stroke: #000000; stroke-linecap: round"/>
    <path d="M 72.905889 117.397403 
L 68.967396 119.515959 
L 69.635647 115.094032 
z
" clip-path="url(#pd2d58c4a01)" style="stroke: #000000; stroke-linecap: round"/>
   </g>
   <g id="patch_58">
    <path d="M 183.334459 41.554899 
Q 183.936413 42.24164 183.801405 42.087616 
" clip-path="url(#pd2d58c4a01)" style="fill: none; stroke: #000000; stroke-linecap: round"/>
    <path d="M 182.668774 37.761284 
L 183.801405 42.087616 
L 179.660761 40.397921 
z
" clip-path="url(#pd2d58c4a01)" style="stroke: #000000; stroke-linecap: round"/>
   </g>
   <g id="patch_59">
    <path d="M 115.911366 129.055153 
Q 115.34487 128.945422 115.876007 129.048304 
" clip-path="url(#pd2d58c4a01)" style="fill: none; stroke: #000000; stroke-linecap: round"/>
    <path d="M 119.422679 131.772477 
L 115.876007 129.048304 
L 120.183348 127.84547 
z
" clip-path="url(#pd2d58c4a01)" style="stroke: #000000; stroke-linecap: round"/>
   </g>
   <g id="patch_60">
    <path d="M 172.714302 127.649532 
Q 172.55149 127.295404 172.855706 127.957094 
" clip-path="url(#pd2d58c4a01)" style="fill: none; stroke: #000000; stroke-linecap: round"/>
    <path d="M 172.709451 132.426837 
L 172.855706 127.957094 
L 176.343748 130.755944 
z
" clip-path="url(#pd2d58c4a01)" style="stroke: #000000; stroke-linecap: round"/>
   </g>
   <g id="patch_61">
    <path d="M 194.280112 137.059053 
Q 193.586392 137.407475 193.891771 137.254098 
" clip-path="url(#pd2d58c4a01)" style="fill: none; stroke: #000000; stroke-linecap: round"/>
    <path d="M 198.3639 137.246049 
L 193.891771 137.254098 
L 196.568609 133.671565 
z
" clip-path="url(#pd2d58c4a01)" style="stroke: #000000; stroke-linecap: round"/>
   </g>
   <g id="patch_62">
    <path d="M 247.529796 48.426654 
Q 248.096292 48.536386 247.565156 48.433503 
" clip-path="url(#pd2d58c4a01)" style="fill: none; stroke: #000000; stroke-linecap: round"/>
    <path d="M 244.018484 45.709331 
L 247.565156 48.433503 
L 243.257814 49.636337 
z
" clip-path="url(#pd2d58c4a01)" style="stroke: #000000; stroke-linecap: round"/>
   </g>
   <g id="patch_63">
    <path d="M 156.683947 76.73715 
Q 156.721238 76.434604 156.621757 77.241696 
" clip-path="url(#pd2d58c4a01)" style="fill: none; stroke: #000000; stroke-linecap: round"/>
    <path d="M 154.14745 80.966988 
L 156.621757 77.241696 
L 158.117407 81.456317 
z
" clip-path="url(#pd2d58c4a01)" style="stroke: #000000; stroke-linecap: round"/>
   </g>
   <g id="patch_64">
    <path d="M 245.464049 100.158026 
Q 245.156627 99.895869 245.69992 100.359166 
" clip-path="url(#pd2d58c4a01)" style="fill: none; stroke: #000000; stroke-linecap: round"/>
    <path d="M 247.445802 104.476434 
L 245.69992 100.359166 
L 250.041264 101.432822 
z
" clip-path="url(#pd2d58c4a01)" style="stroke: #000000; stroke-linecap: round"/>
   </g>
   <g id="patch_65">
    <path d="M 249.0694 84.498936 
Q 249.143502 84.186071 248.959928 84.961141 
" clip-path="url(#pd2d58c4a01)" style="fill: none; stroke: #000000; stroke-linecap: round"/>
    <path d="M 246.091881 88.392512 
L 248.959928 84.961141 
L 249.984196 89.314401 
z
" clip-path="url(#pd2d58c4a01)" style="stroke: #000000; stroke-linecap: round"/>
   </g>
   <g id="patch_66">
    <path d="M 117.977113 77.323782 
Q 118.284536 77.585938 117.741242 77.122641 
" clip-path="url(#pd2d58c4a01)" style="fill: none; stroke: #000000; stroke-linecap: round"/>
    <path d="M 115.99536 73.005373 
L 117.741242 77.122641 
L 113.399899 76.048986 
z
" clip-path="url(#pd2d58c4a01)" style="stroke: #000000; stroke-linecap: round"/>
   </g>
   <g id="patch_67">
    <path d="M 114.371762 92.982872 
Q 114.29766 93.295737 114.481235 92.520667 
" clip-path="url(#pd2d58c4a01)" style="fill: none; stroke: #000000; stroke-linecap: round"/>
    <path d="M 117.349282 89.089296 
L 114.481235 92.520667 
L 113.456966 88.167407 
z
" clip-path="url(#pd2d58c4a01)" style="stroke: #000000; stroke-linecap: round"/>
   </g>
   <g id="patch_68">
    <path d="M 237.735299 77.845073 
Q 237.802423 78.158998 237.635771 77.379603 
" clip-path="url(#pd2d58c4a01)" style="fill: none; stroke: #000000; stroke-linecap: round"/>
    <path d="M 238.755182 73.049832 
L 237.635771 77.379603 
L 234.843601 73.886212 
z
" clip-path="url(#pd2d58c4a01)" style="stroke: #000000; stroke-linecap: round"/>
   </g>
   <g id="patch_69">
    <path d="M 180.979227 109.688399 
Q 180.61705 109.250392 180.967332 109.674014 
" clip-path="url(#pd2d58c4a01)" style="fill: none; stroke: #000000; stroke-linecap: round"/>
    <path d="M 181.974973 114.031152 
L 180.967332 109.674014 
L 185.057628 111.482184 
z
" clip-path="url(#pd2d58c4a01)" style="stroke: #000000; stroke-linecap: round"/>
   </g>
   <g id="patch_70">
    <path d="M 168.745776 69.151221 
Q 168.813891 68.964116 168.499543 69.827594 
" clip-path="url(#pd2d58c4a01)" style="fill: none; stroke: #000000; stroke-linecap: round"/>
    <path d="M 165.251862 72.902097 
L 168.499543 69.827594 
L 169.010537 74.27044 
z
" clip-path="url(#pd2d58c4a01)" style="stroke: #000000; stroke-linecap: round"/>
   </g>
   <g id="patch_71">
    <path d="M 125.705864 99.636735 
Q 125.63874 99.32281 125.805391 100.102205 
" clip-path="url(#pd2d58c4a01)" style="fill: none; stroke: #000000; stroke-linecap: round"/>
    <path d="M 124.68598 104.431976 
L 125.805391 100.102205 
L 128.597562 103.595596 
z
" clip-path="url(#pd2d58c4a01)" style="stroke: #000000; stroke-linecap: round"/>
   </g>
   <g id="line2d_21">
    <defs>
     <path id="m6a2c5e042e" d="M 0 1.5 
C 0.397805 1.5 0.77937 1.341951 1.06066 1.06066 
C 1.341951 0.77937 1.5 0.397805 1.5 0 
C 1.5 -0.397805 1.341951 -0.77937 1.06066 -1.06066 
C 0.77937 -1.341951 0.397805 -1.5 0 -1.5 
C -0.397805 -1.5 -0.77937 -1.341951 -1.06066 -1.06066 
C -1.341951 -0.77937 -1.5 -0.397805 -1.5 0 
C -1.5 0.397805 -1.341951 0.77937 -1.06066 1.06066 
C -0.77937 1.341951 -0.397805 1.5 0 1.5 
z
" style="stroke: #000000"/>
    </defs>
    <g clip-path="url(#pd2d58c4a01)">
     <use xlink:href="#m6a2c5e042e" x="55.728496" y="88.740904" style="stroke: #000000"/>
     <use xlink:href="#m6a2c5e042e" x="118.724539" y="88.740904" style="stroke: #000000"/>
     <use xlink:href="#m6a2c5e042e" x="181.720581" y="88.740904" style="stroke: #000000"/>
     <use xlink:href="#m6a2c5e042e" x="244.716624" y="88.740904" style="stroke: #000000"/>
     <use xlink:href="#m6a2c5e042e" x="307.712666" y="88.740904" style="stroke: #000000"/>
    </g>
   </g>
   <g id="patch_72">
    <path d="M 30.530079 166.681808 
L 30.530079 10.8 
" style="fill: none; stroke: #000000; stroke-width: 0.8; stroke-linejoin: miter; stroke-linecap: square"/>
   </g>
   <g id="patch_73">
    <path d="M 332.911083 166.681808 
L 332.911083 10.8 
" style="fill: none; stroke: #000000; stroke-width: 0.8; stroke-linejoin: miter; stroke-linecap: square"/>
   </g>
   <g id="patch_74">
    <path d="M 30.530079 166.681808 
L 332.911083 166.681808 
" style="fill: none; stroke: #000000; stroke-width: 0.8; stroke-linejoin: miter; stroke-linecap: square"/>
   </g>
   <g id="patch_75">
    <path d="M 30.530079 10.8 
L 332.911083 10.8 
" style="fill: none; stroke: #000000; stroke-width: 0.8; stroke-linejoin: miter; stroke-linecap: square"/>
   </g>
  </g>
 </g>
 <defs>
  <clipPath id="pd2d58c4a01">
   <rect x="30.530079" y="10.8" width="302.381004" height="155.881808"/>
  </clipPath>
 </defs>
</svg>
