<?xml version="1.0" encoding="utf-8" standalone="no"?>
<!DOCTYPE svg PUBLIC "-//W3C//DTD SVG 1.1//EN"
  "http://www.w3.org/Graphics/SVG/1.1/DTD/svg11.dtd">
<svg xmlns:xlink="http://www.w3.org/1999/xlink" width="343.711083pt" height="193.337484pt" viewBox="0 0 343.711083 193.337484" xmlns="http://www.w3.org/2000/svg" version="1.1">
 <metadata>
  <rdf:RDF xmlns:dc="http://purl.org/dc/elements/1.1/" xmlns:cc="http://creativecommons.org/ns#" xmlns:rdf="http://www.w3.org/1999/02/22-rdf-syntax-ns#">
   <cc:Work>
    <dc:type rdf:resource="http://purl.org/dc/dcmitype/StillImage"/>
    <dc:date>2026-02-12T22:39:45.664991</dc:date>
    <dc:format>image/svg+xml</dc:format>
    <dc:creator>
     <cc:Agent>
      <dc:title>Matplotlib v3.10.0, https://matplotlib.org/</dc:title>
     </cc:Agent>
    </dc:creator>
   </cc:Work>
  </rdf:RDF>
 </metadata>
 <defs>
  <style type="text/css">*{stroke-linejoin: round; stroke-linecap: butt}</style>
 </defs>
 <g id="figure_1">
  <g id="patch_1">
   <path d="M 0 193.337484 
L 343.711083 193.337484 
L 343.711083 0 
L 0 0 
z
" style="fill: #ffffff"/>
  </g>
  <g id="axes_1">
   <g id="patch_2">
    <path d="M 30.530079 153.826131 
L 332.911083 153.826131 
L 332.911083 10.8 
L 30.530079 10.8 
z
" style="fill: #ffffff"/>
   </g>
   <g id="matplotlib.axis_1">
    <g id="xtick_1">
     <g id="line2d_1">
      <path d="M 44.27467 153.826131 
L 44.27467 10.8 
" clip-path="url(#p66667dfd07)" style="fill: none; stroke: #b0b0b0; stroke-width: 0.8; stroke-linecap: square"/>
     </g>
     <g id="line2d_2">
      <defs>
       <path id="m5a80939ecf" d="M 0 0 
L 0 3.5 
" style="stroke: #000000; stroke-width: 0.8"/>
      </defs>
      <g>
       <use xlink:href="#m5a80939ecf" x="44.27467" y="153.826131" style="stroke: #000000; stroke-width: 0.8"/>
      </g>
     </g>
     <g id="text_1">
      <!-- $\mathdefault{0}$ -->
      <g transform="translate(41.784002 167.744629) scale(0.1 -0.1)">
       <defs>
        <path id="CMR17-30" d="M 2688 2038 
C 2688 2430 2682 3099 2413 3613 
C 2176 4063 1798 4224 1466 4224 
C 1158 4224 768 4082 525 3620 
C 269 3137 243 2539 243 2038 
C 243 1671 250 1112 448 623 
C 723 -39 1216 -128 1466 -128 
C 1760 -128 2208 -7 2470 604 
C 2662 1048 2688 1568 2688 2038 
z
M 1466 -26 
C 1056 -26 813 328 723 816 
C 653 1196 653 1749 653 2109 
C 653 2604 653 3015 736 3407 
C 858 3954 1216 4121 1466 4121 
C 1728 4121 2067 3947 2189 3420 
C 2272 3054 2278 2623 2278 2109 
C 2278 1691 2278 1176 2202 797 
C 2067 96 1690 -26 1466 -26 
z
" transform="scale(0.015625)"/>
       </defs>
       <use xlink:href="#CMR17-30" transform="scale(0.996264)"/>
      </g>
     </g>
    </g>
    <g id="xtick_2">
     <g id="line2d_3">
      <path d="M 99.253035 153.826131 
L 99.253035 10.8 
" clip-path="url(#p66667dfd07)" style="fill: none; stroke: #b0b0b0; stroke-width: 0.8; stroke-linecap: square"/>
     </g>
     <g id="line2d_4">
      <g>
       <use xlink:href="#m5a80939ecf" x="99.253035" y="153.826131" style="stroke: #000000; stroke-width: 0.8"/>
      </g>
     </g>
     <g id="text_2">
      <!-- $\mathdefault{2}$ -->
      <g transform="translate(96.762367 167.744629) scale(0.1 -0.1)">
       <defs>
        <path id="CMR17-32" d="M 2669 990 
L 2554 990 
C 2490 537 2438 460 2413 422 
C 2381 371 1920 371 1830 371 
L 602 371 
C 832 620 1280 1073 1824 1596 
C 2214 1966 2669 2400 2669 3033 
C 2669 3788 2067 4224 1395 4224 
C 691 4224 262 3603 262 3027 
C 262 2777 448 2745 525 2745 
C 589 2745 781 2783 781 3007 
C 781 3206 614 3264 525 3264 
C 486 3264 448 3257 422 3244 
C 544 3788 915 4057 1306 4057 
C 1862 4057 2227 3616 2227 3033 
C 2227 2477 1901 1998 1536 1583 
L 262 147 
L 262 0 
L 2515 0 
L 2669 990 
z
" transform="scale(0.015625)"/>
       </defs>
       <use xlink:href="#CMR17-32" transform="scale(0.996264)"/>
      </g>
     </g>
    </g>
    <g id="xtick_3">
     <g id="line2d_5">
      <path d="M 154.231399 153.826131 
L 154.231399 10.8 
" clip-path="url(#p66667dfd07)" style="fill: none; stroke: #b0b0b0; stroke-width: 0.8; stroke-linecap: square"/>
     </g>
     <g id="line2d_6">
      <g>
       <use xlink:href="#m5a80939ecf" x="154.231399" y="153.826131" style="stroke: #000000; stroke-width: 0.8"/>
      </g>
     </g>
     <g id="text_3">
      <!-- $\mathdefault{4}$ -->
      <g transform="translate(151.740731 167.744629) scale(0.1 -0.1)">
       <defs>
        <path id="CMR17-34" d="M 2150 4147 
C 2150 4281 2144 4288 2029 4288 
L 128 1254 
L 128 1088 
L 1779 1088 
L 1779 460 
C 1779 230 1766 166 1318 166 
L 1197 166 
L 1197 0 
C 1402 12 1747 12 1965 12 
C 2182 12 2528 12 2733 0 
L 2733 166 
L 2611 166 
C 2163 166 2150 230 2150 460 
L 2150 1088 
L 2803 1088 
L 2803 1254 
L 2150 1254 
L 2150 4147 
z
M 1798 3723 
L 1798 1254 
L 256 1254 
L 1798 3723 
z
" transform="scale(0.015625)"/>
       </defs>
       <use xlink:href="#CMR17-34" transform="scale(0.996264)"/>
      </g>
     </g>
    </g>
    <g id="xtick_4">
     <g id="line2d_7">
      <path d="M 209.209763 153.826131 
L 209.209763 10.8 
" clip-path="url(#p66667dfd07)" style="fill: none; stroke: #b0b0b0; stroke-width: 0.8; stroke-linecap: square"/>
     </g>
     <g id="line2d_8">
      <g>
       <use xlink:href="#m5a80939ecf" x="209.209763" y="153.826131" style="stroke: #000000; stroke-width: 0.8"/>
      </g>
     </g>
     <g id="text_4">
      <!-- $\mathdefault{6}$ -->
      <g transform="translate(206.719096 167.744629) scale(0.1 -0.1)">
       <defs>
        <path id="CMR17-36" d="M 678 2198 
C 678 3712 1395 4076 1811 4076 
C 1946 4076 2272 4049 2400 3782 
C 2298 3782 2106 3782 2106 3558 
C 2106 3385 2246 3328 2336 3328 
C 2394 3328 2566 3353 2566 3571 
C 2566 3987 2246 4224 1805 4224 
C 1043 4224 243 3411 243 2011 
C 243 257 966 -128 1478 -128 
C 2099 -128 2688 431 2688 1295 
C 2688 2101 2170 2688 1517 2688 
C 1126 2688 838 2430 678 1979 
L 678 2198 
z
M 1478 25 
C 691 25 691 1212 691 1450 
C 691 1914 909 2585 1504 2585 
C 1613 2585 1926 2585 2138 2140 
C 2253 1889 2253 1624 2253 1302 
C 2253 954 2253 696 2118 438 
C 1978 173 1773 25 1478 25 
z
" transform="scale(0.015625)"/>
       </defs>
       <use xlink:href="#CMR17-36" transform="scale(0.996264)"/>
      </g>
     </g>
    </g>
    <g id="xtick_5">
     <g id="line2d_9">
      <path d="M 264.188128 153.826131 
L 264.188128 10.8 
" clip-path="url(#p66667dfd07)" style="fill: none; stroke: #b0b0b0; stroke-width: 0.8; stroke-linecap: square"/>
     </g>
     <g id="line2d_10">
      <g>
       <use xlink:href="#m5a80939ecf" x="264.188128" y="153.826131" style="stroke: #000000; stroke-width: 0.8"/>
      </g>
     </g>
     <g id="text_5">
      <!-- $\mathdefault{8}$ -->
      <g transform="translate(261.69746 167.744629) scale(0.1 -0.1)">
       <defs>
        <path id="CMR17-38" d="M 1741 2289 
C 2144 2494 2554 2803 2554 3298 
C 2554 3884 1990 4224 1472 4224 
C 890 4224 378 3800 378 3215 
C 378 3054 416 2777 666 2533 
C 730 2469 998 2276 1171 2154 
C 883 2006 211 1652 211 945 
C 211 282 838 -128 1459 -128 
C 2144 -128 2720 366 2720 1022 
C 2720 1607 2330 1877 2074 2051 
L 1741 2289 
z
M 902 2855 
C 851 2887 595 3086 595 3388 
C 595 3781 998 4076 1459 4076 
C 1965 4076 2336 3716 2336 3298 
C 2336 2700 1670 2359 1638 2359 
C 1632 2359 1626 2359 1574 2398 
L 902 2855 
z
M 2080 1536 
C 2176 1466 2483 1253 2483 861 
C 2483 385 2010 25 1472 25 
C 890 25 448 443 448 951 
C 448 1459 838 1884 1280 2083 
L 2080 1536 
z
" transform="scale(0.015625)"/>
       </defs>
       <use xlink:href="#CMR17-38" transform="scale(0.996264)"/>
      </g>
     </g>
    </g>
    <g id="xtick_6">
     <g id="line2d_11">
      <path d="M 319.166492 153.826131 
L 319.166492 10.8 
" clip-path="url(#p66667dfd07)" style="fill: none; stroke: #b0b0b0; stroke-width: 0.8; stroke-linecap: square"/>
     </g>
     <g id="line2d_12">
      <g>
       <use xlink:href="#m5a80939ecf" x="319.166492" y="153.826131" style="stroke: #000000; stroke-width: 0.8"/>
      </g>
     </g>
     <g id="text_6">
      <!-- $\mathdefault{10}$ -->
      <g transform="translate(314.185157 167.744629) scale(0.1 -0.1)">
       <defs>
        <path id="CMR17-31" d="M 1702 4083 
C 1702 4217 1696 4224 1606 4224 
C 1357 3927 979 3833 621 3820 
C 602 3820 570 3820 563 3808 
C 557 3795 557 3782 557 3648 
C 755 3648 1088 3686 1344 3839 
L 1344 467 
C 1344 243 1331 166 781 166 
L 589 166 
L 589 0 
C 896 6 1216 12 1523 12 
C 1830 12 2150 6 2458 0 
L 2458 166 
L 2266 166 
C 1715 166 1702 236 1702 467 
L 1702 4083 
z
" transform="scale(0.015625)"/>
       </defs>
       <use xlink:href="#CMR17-31" transform="scale(0.996264)"/>
       <use xlink:href="#CMR17-30" transform="translate(45.690477 0) scale(0.996264)"/>
      </g>
     </g>
    </g>
    <g id="text_7">
     <!-- $t$ -->
     <g transform="translate(179.921769 180.600306) scale(0.1 -0.1)">
      <defs>
       <path id="CMMI12-74" d="M 1286 2566 
L 1875 2566 
C 1997 2566 2061 2566 2061 2681 
C 2061 2752 2022 2752 1894 2752 
L 1331 2752 
L 1568 3664 
C 1594 3752 1594 3764 1594 3808 
C 1594 3910 1510 3968 1427 3968 
C 1376 3968 1229 3948 1178 3746 
L 928 2752 
L 326 2752 
C 198 2752 141 2752 141 2630 
C 141 2566 186 2566 307 2566 
L 877 2566 
L 454 881 
C 403 657 384 593 384 510 
C 384 210 595 -64 954 -64 
C 1600 -64 1946 868 1946 913 
C 1946 951 1920 970 1882 970 
C 1869 970 1843 970 1830 944 
C 1824 938 1818 932 1773 830 
C 1638 510 1344 64 973 64 
C 781 64 768 223 768 364 
C 768 370 768 491 787 568 
L 1286 2566 
z
" transform="scale(0.015625)"/>
      </defs>
      <use xlink:href="#CMMI12-74" transform="scale(0.996264)"/>
     </g>
    </g>
   </g>
   <g id="matplotlib.axis_2">
    <g id="ytick_1">
     <g id="line2d_13">
      <path d="M 30.530079 128.451929 
L 332.911083 128.451929 
" clip-path="url(#p66667dfd07)" style="fill: none; stroke: #b0b0b0; stroke-width: 0.8; stroke-linecap: square"/>
     </g>
     <g id="line2d_14">
      <defs>
       <path id="m16052c4cc5" d="M 0 0 
L -3.5 0 
" style="stroke: #000000; stroke-width: 0.8"/>
      </defs>
      <g>
       <use xlink:href="#m16052c4cc5" x="30.530079" y="128.451929" style="stroke: #000000; stroke-width: 0.8"/>
      </g>
     </g>
     <g id="text_8">
      <!-- $\mathdefault{−6}$ -->
      <g transform="translate(10.8 131.911178) scale(0.1 -0.1)">
       <defs>
        <path id="CMSY10-0" d="M 4218 1472 
C 4326 1472 4442 1472 4442 1600 
C 4442 1728 4326 1728 4218 1728 
L 755 1728 
C 646 1728 531 1728 531 1600 
C 531 1472 646 1472 755 1472 
L 4218 1472 
z
" transform="scale(0.015625)"/>
       </defs>
       <use xlink:href="#CMSY10-0" transform="scale(0.996264)"/>
       <use xlink:href="#CMR17-36" transform="translate(77.487468 0) scale(0.996264)"/>
      </g>
     </g>
    </g>
    <g id="ytick_2">
     <g id="line2d_15">
      <path d="M 30.530079 97.066043 
L 332.911083 97.066043 
" clip-path="url(#p66667dfd07)" style="fill: none; stroke: #b0b0b0; stroke-width: 0.8; stroke-linecap: square"/>
     </g>
     <g id="line2d_16">
      <g>
       <use xlink:href="#m16052c4cc5" x="30.530079" y="97.066043" style="stroke: #000000; stroke-width: 0.8"/>
      </g>
     </g>
     <g id="text_9">
      <!-- $\mathdefault{−4}$ -->
      <g transform="translate(10.8 100.525293) scale(0.1 -0.1)">
       <use xlink:href="#CMSY10-0" transform="scale(0.996264)"/>
       <use xlink:href="#CMR17-34" transform="translate(77.487468 0) scale(0.996264)"/>
      </g>
     </g>
    </g>
    <g id="ytick_3">
     <g id="line2d_17">
      <path d="M 30.530079 65.680158 
L 332.911083 65.680158 
" clip-path="url(#p66667dfd07)" style="fill: none; stroke: #b0b0b0; stroke-width: 0.8; stroke-linecap: square"/>
     </g>
     <g id="line2d_18">
      <g>
       <use xlink:href="#m16052c4cc5" x="30.530079" y="65.680158" style="stroke: #000000; stroke-width: 0.8"/>
      </g>
     </g>
     <g id="text_10">
      <!-- $\mathdefault{−2}$ -->
      <g transform="translate(10.8 69.139407) scale(0.1 -0.1)">
       <use xlink:href="#CMSY10-0" transform="scale(0.996264)"/>
       <use xlink:href="#CMR17-32" transform="translate(77.487468 0) scale(0.996264)"/>
      </g>
     </g>
    </g>
    <g id="ytick_4">
     <g id="line2d_19">
      <path d="M 30.530079 34.294272 
L 332.911083 34.294272 
" clip-path="url(#p66667dfd07)" style="fill: none; stroke: #b0b0b0; stroke-width: 0.8; stroke-linecap: square"/>
     </g>
     <g id="line2d_20">
      <g>
       <use xlink:href="#m16052c4cc5" x="30.530079" y="34.294272" style="stroke: #000000; stroke-width: 0.8"/>
      </g>
     </g>
     <g id="text_11">
      <!-- $\mathdefault{0}$ -->
      <g transform="translate(18.548744 37.753521) scale(0.1 -0.1)">
       <use xlink:href="#CMR17-30" transform="scale(0.996264)"/>
      </g>
     </g>
    </g>
   </g>
   <g id="line2d_21">
    <path d="M 44.27467 18.601329 
L 45.799899 17.893499 
L 48.548818 17.301188 
L 51.297736 17.346653 
L 54.046654 17.816732 
L 56.795572 18.558095 
L 59.54449 19.461336 
L 62.293409 20.449215 
L 65.042327 21.467968 
L 67.791245 22.480901 
L 70.540163 23.463666 
L 73.289082 24.400792 
L 76.038 25.283134 
L 78.786918 26.106007 
L 81.535836 26.867827 
L 84.284754 27.56912 
L 87.033673 28.21181 
L 89.782591 28.798698 
L 92.531509 29.333106 
L 95.280427 29.81861 
L 98.029346 30.258868 
L 100.778264 30.657496 
L 103.527182 31.017988 
L 106.2761 31.343667 
L 109.025018 31.637654 
L 111.773937 31.902854 
L 114.522855 32.141955 
L 117.271773 32.357428 
L 120.020691 32.551535 
L 122.76961 32.726342 
L 125.518528 32.883729 
L 128.267446 33.025402 
L 131.016364 33.152907 
L 133.765282 33.267646 
L 136.514201 33.370886 
L 139.263119 33.463769 
L 142.012037 33.547327 
L 144.760955 33.622493 
L 147.509874 33.690105 
L 150.258792 33.75092 
L 153.00771 33.80562 
L 155.756628 33.854817 
L 158.505546 33.899064 
L 161.254465 33.938858 
L 164.003383 33.974647 
L 166.752301 34.006834 
L 169.501219 34.03578 
L 172.250138 34.061812 
L 174.999056 34.085223 
L 177.747974 34.106276 
L 180.496892 34.12521 
L 183.24581 34.142237 
L 185.994729 34.157549 
L 188.743647 34.171319 
L 191.492565 34.183703 
L 194.241483 34.194839 
L 196.990402 34.204854 
L 199.73932 34.21386 
L 202.488238 34.221959 
L 205.237156 34.229242 
L 207.986074 34.235792 
L 210.734993 34.241682 
L 213.483911 34.246979 
L 216.232829 34.251742 
L 218.981747 34.256026 
L 221.730666 34.259878 
L 224.479584 34.263342 
L 227.228502 34.266457 
L 229.97742 34.269259 
L 232.726338 34.271778 
L 235.475257 34.274044 
L 238.224175 34.276081 
L 240.973093 34.277913 
L 243.722011 34.279561 
L 246.47093 34.281042 
L 249.219848 34.282375 
L 251.968766 34.283573 
L 254.717684 34.284651 
L 257.466602 34.28562 
L 260.215521 34.286491 
L 262.964439 34.287275 
L 265.713357 34.28798 
L 268.462275 34.288613 
L 271.211194 34.289183 
L 273.960112 34.289696 
L 276.70903 34.290157 
L 279.457948 34.290571 
L 282.206866 34.290944 
L 284.955785 34.291279 
L 287.704703 34.291581 
L 290.453621 34.291852 
L 293.202539 34.292095 
L 295.951458 34.292315 
L 298.700376 34.292512 
L 301.449294 34.292689 
L 304.198212 34.292848 
L 306.94713 34.292992 
L 309.696049 34.293121 
L 312.444967 34.293237 
L 315.193885 34.293341 
L 317.942803 34.293435 
L 319.166492 34.293473 
" clip-path="url(#p66667dfd07)" style="fill: none; stroke: #1f77b4; stroke-linecap: square"/>
   </g>
   <g id="line2d_22">
    <path d="M 44.27467 18.601329 
L 45.799899 24.281375 
L 48.548818 31.9748 
L 51.297736 37.171265 
L 54.046654 40.565881 
L 56.795572 42.669471 
L 59.54449 43.856565 
L 62.293409 44.400989 
L 65.042327 44.502226 
L 67.791245 44.304958 
L 70.540163 43.913519 
L 73.289082 43.402604 
L 76.038 42.825182 
L 78.786918 42.218339 
L 81.535836 41.607599 
L 84.284754 41.010105 
L 87.033673 40.436956 
L 89.782591 39.894932 
L 92.531509 39.38775 
L 95.280427 38.916989 
L 98.029346 38.482758 
L 100.778264 38.084182 
L 103.527182 37.719751 
L 106.2761 37.387572 
L 109.025018 37.085544 
L 111.773937 36.811481 
L 114.522855 36.563199 
L 117.271773 36.338571 
L 120.020691 36.135564 
L 122.76961 35.952257 
L 125.518528 35.78686 
L 128.267446 35.637711 
L 131.016364 35.503279 
L 133.765282 35.38216 
L 136.514201 35.273072 
L 139.263119 35.174847 
L 142.012037 35.086422 
L 144.760955 35.006835 
L 147.509874 34.935213 
L 150.258792 34.870766 
L 153.00771 34.812783 
L 155.756628 34.760619 
L 158.505546 34.713693 
L 161.254465 34.671482 
L 164.003383 34.633514 
L 166.752301 34.599364 
L 169.501219 34.568648 
L 172.250138 34.541023 
L 174.999056 34.516178 
L 177.747974 34.493833 
L 180.496892 34.473737 
L 183.24581 34.455665 
L 185.994729 34.439411 
L 188.743647 34.424795 
L 191.492565 34.41165 
L 194.241483 34.399828 
L 196.990402 34.389197 
L 199.73932 34.379637 
L 202.488238 34.371039 
L 205.237156 34.363307 
L 207.986074 34.356354 
L 210.734993 34.350102 
L 213.483911 34.344479 
L 216.232829 34.339422 
L 218.981747 34.334874 
L 221.730666 34.330785 
L 224.479584 34.327107 
L 227.228502 34.3238 
L 229.97742 34.320826 
L 232.726338 34.318152 
L 235.475257 34.315746 
L 238.224175 34.313583 
L 240.973093 34.311638 
L 243.722011 34.309889 
L 246.47093 34.308316 
L 249.219848 34.306902 
L 251.968766 34.30563 
L 254.717684 34.304486 
L 257.466602 34.303457 
L 260.215521 34.302532 
L 262.964439 34.3017 
L 265.713357 34.300952 
L 268.462275 34.300279 
L 271.211194 34.299674 
L 273.960112 34.29913 
L 276.70903 34.29864 
L 279.457948 34.2982 
L 282.206866 34.297805 
L 284.955785 34.297449 
L 287.704703 34.297129 
L 290.453621 34.296841 
L 293.202539 34.296582 
L 295.951458 34.29635 
L 298.700376 34.29614 
L 301.449294 34.295952 
L 304.198212 34.295783 
L 306.94713 34.295631 
L 309.696049 34.295494 
L 312.444967 34.295371 
L 315.193885 34.29526 
L 317.942803 34.295161 
L 319.166492 34.29512 
" clip-path="url(#p66667dfd07)" style="fill: none; stroke: #ff7f0e; stroke-linecap: square"/>
   </g>
   <g id="line2d_23">
    <path d="M 44.27467 147.324943 
L 45.799899 126.613832 
L 48.548818 97.402637 
L 51.297736 76.263243 
L 54.046654 61.061231 
L 56.795572 50.217566 
L 59.54449 42.564971 
L 62.293409 37.241354 
L 65.042327 33.610736 
L 67.791245 31.204598 
L 70.540163 29.678377 
L 73.289082 28.779207 
L 76.038 28.321997 
L 78.786918 28.171712 
L 81.535836 28.230236 
L 84.284754 28.426646 
L 87.033673 28.710015 
L 89.782591 29.044088 
L 92.531509 29.403343 
L 95.280427 29.77009 
L 98.029346 30.132322 
L 100.778264 30.482143 
L 103.527182 30.814599 
L 106.2761 31.126838 
L 109.025018 31.417478 
L 111.773937 31.686156 
L 114.522855 31.933202 
L 117.271773 32.159395 
L 120.020691 32.365798 
L 122.76961 32.553633 
L 125.518528 32.724198 
L 128.267446 32.878808 
L 131.016364 33.018755 
L 133.765282 33.145281 
L 136.514201 33.259564 
L 139.263119 33.362708 
L 142.012037 33.45574 
L 144.760955 33.539606 
L 147.509874 33.615178 
L 150.258792 33.683251 
L 153.00771 33.744551 
L 155.756628 33.79974 
L 158.505546 33.849416 
L 161.254465 33.894123 
L 164.003383 33.934353 
L 166.752301 33.970549 
L 169.501219 34.003114 
L 172.250138 34.03241 
L 174.999056 34.058762 
L 177.747974 34.082466 
L 180.496892 34.103787 
L 183.24581 34.122963 
L 185.994729 34.140211 
L 188.743647 34.155723 
L 191.492565 34.169674 
L 194.241483 34.182221 
L 196.990402 34.193504 
L 199.73932 34.203652 
L 202.488238 34.212778 
L 205.237156 34.220985 
L 207.986074 34.228366 
L 210.734993 34.235004 
L 213.483911 34.240973 
L 216.232829 34.246341 
L 218.981747 34.251168 
L 221.730666 34.25551 
L 224.479584 34.259414 
L 227.228502 34.262925 
L 229.97742 34.266082 
L 232.726338 34.268921 
L 235.475257 34.271474 
L 238.224175 34.27377 
L 240.973093 34.275835 
L 243.722011 34.277692 
L 246.47093 34.279362 
L 249.219848 34.280864 
L 251.968766 34.282214 
L 254.717684 34.283429 
L 257.466602 34.284521 
L 260.215521 34.285503 
L 262.964439 34.286386 
L 265.713357 34.28718 
L 268.462275 34.287895 
L 271.211194 34.288537 
L 273.960112 34.289115 
L 276.70903 34.289634 
L 279.457948 34.290101 
L 282.206866 34.290521 
L 284.955785 34.290899 
L 287.704703 34.291239 
L 290.453621 34.291544 
L 293.202539 34.291819 
L 295.951458 34.292066 
L 298.700376 34.292288 
L 301.449294 34.292488 
L 304.198212 34.292668 
L 306.94713 34.292829 
L 309.696049 34.292975 
L 312.444967 34.293105 
L 315.193885 34.293223 
L 317.942803 34.293328 
L 319.166492 34.293372 
" clip-path="url(#p66667dfd07)" style="fill: none; stroke: #2ca02c; stroke-linecap: square"/>
   </g>
   <g id="patch_3">
    <path d="M 30.530079 153.826131 
L 30.530079 10.8 
" style="fill: none; stroke: #000000; stroke-width: 0.8; stroke-linejoin: miter; stroke-linecap: square"/>
   </g>
   <g id="patch_4">
    <path d="M 332.911083 153.826131 
L 332.911083 10.8 
" style="fill: none; stroke: #000000; stroke-width: 0.8; stroke-linejoin: miter; stroke-linecap: square"/>
   </g>
   <g id="patch_5">
    <path d="M 30.530079 153.826131 
L 332.911083 153.826131 
" style="fill: none; stroke: #000000; stroke-width: 0.8; stroke-linejoin: miter; stroke-linecap: square"/>
   </g>
   <g id="patch_6">
    <path d="M 30.530079 10.8 
L 332.911083 10.8 
" style="fill: none; stroke: #000000; stroke-width: 0.8; stroke-linejoin: miter; stroke-linecap: square"/>
   </g>
   <g id="legend_1">
    <g id="patch_7">
     <path d="M 284.245927 148.826131 
L 325.911083 148.826131 
Q 327.911083 148.826131 327.911083 146.826131 
L 327.911083 106.014596 
Q 327.911083 104.014596 325.911083 104.014596 
L 284.245927 104.014596 
Q 282.245927 104.014596 282.245927 106.014596 
L 282.245927 146.826131 
Q 282.245927 148.826131 284.245927 148.826131 
z
" style="fill: #ffffff; opacity: 0.8; stroke: #cccccc; stroke-linejoin: miter"/>
    </g>
    <g id="line2d_24">
     <path d="M 286.245927 111.514596 
L 296.245927 111.514596 
L 306.245927 111.514596 
" style="fill: none; stroke: #1f77b4; stroke-linecap: square"/>
    </g>
    <g id="text_12">
     <!-- $x_1$ -->
     <g transform="translate(314.245927 115.014596) scale(0.1 -0.1)">
      <defs>
       <path id="CMMI12-78" d="M 3034 2624 
C 2829 2585 2752 2431 2752 2310 
C 2752 2156 2874 2105 2963 2105 
C 3155 2105 3290 2271 3290 2444 
C 3290 2694 2982 2816 2714 2816 
C 2323 2816 2106 2451 2048 2329 
C 1901 2790 1504 2816 1389 2816 
C 736 2816 390 1993 390 1849 
C 390 1823 416 1790 461 1790 
C 512 1790 525 1829 538 1855 
C 755 2572 1184 2687 1370 2687 
C 1658 2687 1715 2438 1715 2284 
C 1715 2143 1677 1993 1600 1678 
L 1382 778 
C 1286 390 1101 64 762 64 
C 730 64 570 64 435 126 
C 666 166 717 358 717 435 
C 717 563 621 640 499 640 
C 346 640 179 505 179 300 
C 179 57 480 -64 755 -64 
C 1062 -64 1280 153 1414 415 
C 1517 64 1837 -64 2074 -64 
C 2726 -64 3072 751 3072 896 
C 3072 929 3046 955 3008 955 
C 2950 955 2944 922 2925 870 
C 2752 300 2381 64 2093 64 
C 1869 64 1747 204 1747 467 
C 1747 607 1773 712 1875 1146 
L 2099 2039 
C 2195 2425 2413 2687 2707 2687 
C 2720 2687 2899 2687 3034 2624 
z
" transform="scale(0.015625)"/>
      </defs>
      <use xlink:href="#CMMI12-78" transform="scale(0.996264)"/>
      <use xlink:href="#CMR17-31" transform="translate(55.43406 -14.943915) scale(0.697382)"/>
     </g>
    </g>
    <g id="line2d_25">
     <path d="M 286.245927 125.451774 
L 296.245927 125.451774 
L 306.245927 125.451774 
" style="fill: none; stroke: #ff7f0e; stroke-linecap: square"/>
    </g>
    <g id="text_13">
     <!-- $x_2$ -->
     <g transform="translate(314.245927 128.951774) scale(0.1 -0.1)">
      <use xlink:href="#CMMI12-78" transform="scale(0.996264)"/>
      <use xlink:href="#CMR17-32" transform="translate(55.43406 -14.943915) scale(0.697382)"/>
     </g>
    </g>
    <g id="line2d_26">
     <path d="M 286.245927 139.388953 
L 296.245927 139.388953 
L 306.245927 139.388953 
" style="fill: none; stroke: #2ca02c; stroke-linecap: square"/>
    </g>
    <g id="text_14">
     <!-- $u$ -->
     <g transform="translate(314.245927 142.888953) scale(0.1 -0.1)">
      <defs>
       <path id="CMMI12-75" d="M 2182 370 
C 2266 12 2573 -64 2726 -64 
C 2931 -64 3085 70 3187 287 
C 3296 517 3379 893 3379 913 
C 3379 944 3354 970 3315 970 
C 3258 970 3251 938 3226 842 
C 3110 402 2995 64 2739 64 
C 2547 64 2547 274 2547 357 
C 2547 504 2566 568 2630 836 
C 2675 1008 2720 1181 2758 1359 
L 3021 2400 
C 3066 2560 3066 2572 3066 2591 
C 3066 2687 2989 2752 2893 2752 
C 2707 2752 2662 2591 2624 2432 
C 2560 2183 2214 810 2170 587 
C 2163 587 1914 64 1446 64 
C 1114 64 1050 351 1050 587 
C 1050 951 1229 1462 1395 1890 
C 1472 2094 1504 2177 1504 2305 
C 1504 2579 1306 2816 998 2816 
C 410 2816 173 1890 173 1838 
C 173 1813 198 1781 243 1781 
C 301 1781 307 1807 333 1896 
C 486 2445 736 2687 979 2687 
C 1043 2687 1146 2681 1146 2477 
C 1146 2311 1075 2126 979 1883 
C 698 1123 666 881 666 689 
C 666 38 1158 -64 1421 -64 
C 1830 -64 2054 217 2182 370 
z
" transform="scale(0.015625)"/>
      </defs>
      <use xlink:href="#CMMI12-75" transform="scale(0.996264)"/>
     </g>
    </g>
   </g>
  </g>
 </g>
 <defs>
  <clipPath id="p66667dfd07">
   <rect x="30.530079" y="10.8" width="302.381004" height="143.026131"/>
  </clipPath>
 </defs>
</svg>
