<?xml version="1.0" encoding="utf-8" standalone="no"?>
<!DOCTYPE svg PUBLIC "-//W3C//DTD SVG 1.1//EN"
  "http://www.w3.org/Graphics/SVG/1.1/DTD/svg11.dtd">
<!-- Created with matplotlib (https://matplotlib.org/) -->
<svg height="345.6pt" version="1.1" viewBox="0 0 460.8 345.6" width="460.8pt" xmlns="http://www.w3.org/2000/svg" xmlns:xlink="http://www.w3.org/1999/xlink">
 <defs>
  <style type="text/css">
*{stroke-linecap:butt;stroke-linejoin:round;}
  </style>
 </defs>
 <g id="figure_1">
  <g id="patch_1">
   <path d="M 0 345.6 
L 460.8 345.6 
L 460.8 0 
L 0 0 
z
" style="fill:#ffffff;"/>
  </g>
  <g id="axes_1">
   <g id="patch_2">
    <path d="M 60.91227 261.805794 
L 450 261.805794 
L 450 10.8 
L 60.91227 10.8 
z
" style="fill:#ffffff;"/>
   </g>
   <g id="matplotlib.axis_1">
    <g id="xtick_1">
     <g id="line2d_1">
      <defs>
       <path d="M 0 0 
L 0 3.5 
" id="m7e612dbc08" style="stroke:#000000;stroke-width:0.8;"/>
      </defs>
      <g>
       <use style="stroke:#000000;stroke-width:0.8;" x="78.598076" xlink:href="#m7e612dbc08" y="261.805794"/>
      </g>
     </g>
     <g id="text_1">
      <!-- $0$ -->
      <defs>
       <path d="M 42 31.84375 
C 42 37.96875 41.90625 48.421875 37.703125 56.453125 
C 34 63.484375 28.09375 66 22.90625 66 
C 18.09375 66 12 63.78125 8.203125 56.5625 
C 4.203125 49.015625 3.796875 39.671875 3.796875 31.84375 
C 3.796875 26.109375 3.90625 17.375 7 9.734375 
C 11.296875 -0.609375 19 -2 22.90625 -2 
C 27.5 -2 34.5 -0.109375 38.59375 9.4375 
C 41.59375 16.375 42 24.5 42 31.84375 
z
M 22.90625 -0.40625 
C 16.5 -0.40625 12.703125 5.125 11.296875 12.75 
C 10.203125 18.6875 10.203125 27.328125 10.203125 32.953125 
C 10.203125 40.6875 10.203125 47.109375 11.5 53.234375 
C 13.40625 61.78125 19 64.390625 22.90625 64.390625 
C 27 64.390625 32.296875 61.671875 34.203125 53.4375 
C 35.5 47.71875 35.59375 40.984375 35.59375 32.953125 
C 35.59375 26.421875 35.59375 18.375 34.40625 12.453125 
C 32.296875 1.5 26.40625 -0.40625 22.90625 -0.40625 
z
" id="CMR17-48"/>
      </defs>
      <g transform="translate(70.602242 293.020546)scale(0.35 -0.35)">
       <use transform="scale(0.996264)" xlink:href="#CMR17-48"/>
      </g>
     </g>
    </g>
    <g id="xtick_2">
     <g id="line2d_2">
      <g>
       <use style="stroke:#000000;stroke-width:0.8;" x="255.456135" xlink:href="#m7e612dbc08" y="261.805794"/>
      </g>
     </g>
     <g id="text_2">
      <!-- $5$ -->
      <defs>
       <path d="M 11.40625 58.59375 
C 12.40625 58.1875 16.5 56.890625 20.703125 56.890625 
C 30 56.890625 35.09375 61.890625 38 64.6875 
C 38 65.484375 38 66 37.40625 66 
C 37.296875 66 37.09375 66 36.296875 65.59375 
C 32.796875 64.09375 28.703125 63 23.703125 63 
C 20.703125 63 16.203125 63.359375 11.296875 65.484375 
C 10.203125 66 10 66 9.90625 66 
C 9.40625 66 9.296875 65.890625 9.296875 63.90625 
L 9.296875 34.859375 
C 9.296875 33.015625 9.296875 32.5 10.296875 32.5 
C 10.796875 32.5 11 32.703125 11.5 33.421875 
C 14.703125 38.046875 19.09375 40 24.09375 40 
C 27.59375 40 35.09375 37.734375 35.09375 20.203125 
C 35.09375 16.984375 35.09375 11.1875 32.09375 6.59375 
C 29.59375 2.484375 25.703125 0.390625 21.40625 0.390625 
C 14.796875 0.390625 8.09375 4.984375 6.296875 12.6875 
C 6.703125 12.59375 7.5 12.390625 7.90625 12.390625 
C 9.203125 12.390625 11.703125 13.09375 11.703125 16.1875 
C 11.703125 18.890625 9.796875 20 7.90625 20 
C 5.59375 20 4.09375 18.59375 4.09375 15.796875 
C 4.09375 7.09375 11 -2 21.59375 -2 
C 31.90625 -2 41.703125 6.890625 41.703125 19.796875 
C 41.703125 32.09375 33.90625 41.59375 24.203125 41.59375 
C 19.09375 41.59375 14.796875 39.6875 11.40625 36 
z
" id="CMR17-53"/>
      </defs>
      <g transform="translate(247.460302 293.020546)scale(0.35 -0.35)">
       <use transform="scale(0.996264)" xlink:href="#CMR17-53"/>
      </g>
     </g>
    </g>
    <g id="xtick_3">
     <g id="line2d_3">
      <g>
       <use style="stroke:#000000;stroke-width:0.8;" x="432.314194" xlink:href="#m7e612dbc08" y="261.805794"/>
      </g>
     </g>
     <g id="text_3">
      <!-- $10$ -->
      <defs>
       <path d="M 26.59375 63.796875 
C 26.59375 65.890625 26.5 66 25.09375 66 
C 21.203125 61.359375 15.296875 59.890625 9.703125 59.6875 
C 9.40625 59.6875 8.90625 59.6875 8.796875 59.5 
C 8.703125 59.296875 8.703125 59.09375 8.703125 57 
C 11.796875 57 17 57.59375 21 59.984375 
L 21 7.296875 
C 21 3.796875 20.796875 2.59375 12.203125 2.59375 
L 9.203125 2.59375 
L 9.203125 0 
C 14 0.09375 19 0.1875 23.796875 0.1875 
C 28.59375 0.1875 33.59375 0.09375 38.40625 0 
L 38.40625 2.59375 
L 35.40625 2.59375 
C 26.796875 2.59375 26.59375 3.6875 26.59375 7.296875 
z
" id="CMR17-49"/>
      </defs>
      <g transform="translate(416.322527 293.020546)scale(0.35 -0.35)">
       <use transform="scale(0.996264)" xlink:href="#CMR17-49"/>
       <use transform="translate(45.690477 0)scale(0.996264)" xlink:href="#CMR17-48"/>
      </g>
     </g>
    </g>
    <g id="text_4">
     <!-- $t$ -->
     <defs>
      <path d="M 20.09375 40.09375 
L 29.296875 40.09375 
C 31.203125 40.09375 32.203125 40.09375 32.203125 41.890625 
C 32.203125 43 31.59375 43 29.59375 43 
L 20.796875 43 
L 24.5 57.25 
C 24.90625 58.625 24.90625 58.8125 24.90625 59.5 
C 24.90625 61.09375 23.59375 62 22.296875 62 
C 21.5 62 19.203125 61.6875 18.40625 58.53125 
L 14.5 43 
L 5.09375 43 
C 3.09375 43 2.203125 43 2.203125 41.09375 
C 2.203125 40.09375 2.90625 40.09375 4.796875 40.09375 
L 13.703125 40.09375 
L 7.09375 13.765625 
C 6.296875 10.265625 6 9.265625 6 7.96875 
C 6 3.28125 9.296875 -1 14.90625 -1 
C 25 -1 30.40625 13.5625 30.40625 14.265625 
C 30.40625 14.859375 30 15.15625 29.40625 15.15625 
C 29.203125 15.15625 28.796875 15.15625 28.59375 14.75 
C 28.5 14.65625 28.40625 14.5625 27.703125 12.96875 
C 25.59375 7.96875 21 1 15.203125 1 
C 12.203125 1 12 3.484375 12 5.6875 
C 12 5.78125 12 7.671875 12.296875 8.875 
z
" id="CMMI12-116"/>
     </defs>
     <g transform="translate(249.291531 328.017649)scale(0.35 -0.35)">
      <use transform="scale(0.996264)" xlink:href="#CMMI12-116"/>
     </g>
    </g>
   </g>
   <g id="matplotlib.axis_2">
    <g id="ytick_1">
     <g id="line2d_4">
      <defs>
       <path d="M 0 0 
L -3.5 0 
" id="mce02f366a3" style="stroke:#000000;stroke-width:0.8;"/>
      </defs>
      <g>
       <use style="stroke:#000000;stroke-width:0.8;" x="60.91227" xlink:href="#mce02f366a3" y="235.892047"/>
      </g>
     </g>
     <g id="text_5">
      <!-- $-1$ -->
      <defs>
       <path d="M 65.90625 23 
C 67.59375 23 69.40625 23 69.40625 25 
C 69.40625 27 67.59375 27 65.90625 27 
L 11.796875 27 
C 10.09375 27 8.296875 27 8.296875 25 
C 8.296875 23 10.09375 23 11.796875 23 
z
" id="CMSY10-0"/>
      </defs>
      <g transform="translate(10.8 247.999423)scale(0.35 -0.35)">
       <use transform="scale(0.996264)" xlink:href="#CMSY10-0"/>
       <use transform="translate(77.487468 0)scale(0.996264)" xlink:href="#CMR17-49"/>
      </g>
     </g>
    </g>
    <g id="ytick_2">
     <g id="line2d_5">
      <g>
       <use style="stroke:#000000;stroke-width:0.8;" x="60.91227" xlink:href="#mce02f366a3" y="151.595514"/>
      </g>
     </g>
     <g id="text_6">
      <!-- $0$ -->
      <g transform="translate(37.920603 163.70289)scale(0.35 -0.35)">
       <use transform="scale(0.996264)" xlink:href="#CMR17-48"/>
      </g>
     </g>
    </g>
    <g id="ytick_3">
     <g id="line2d_6">
      <g>
       <use style="stroke:#000000;stroke-width:0.8;" x="60.91227" xlink:href="#mce02f366a3" y="67.298981"/>
      </g>
     </g>
     <g id="text_7">
      <!-- $1$ -->
      <g transform="translate(37.920603 79.406357)scale(0.35 -0.35)">
       <use transform="scale(0.996264)" xlink:href="#CMR17-49"/>
      </g>
     </g>
    </g>
   </g>
   <g id="line2d_7">
    <path clip-path="url(#p5d8a54c361)" d="M 78.598076 67.298981 
L 82.075851 59.47931 
L 85.613012 52.450097 
L 89.150173 46.29785 
L 92.687334 40.969278 
L 96.224496 36.412965 
L 99.761657 32.579374 
L 103.298818 29.420839 
L 106.835979 26.891561 
L 110.37314 24.947588 
L 113.910301 23.546803 
L 117.447463 22.648895 
L 120.984624 22.215336 
L 124.521785 22.209354 
L 128.058946 22.595895 
L 131.596107 23.341591 
L 135.133269 24.414724 
L 138.67043 25.785185 
L 142.207591 27.424433 
L 145.744752 29.305455 
L 149.281913 31.40272 
L 152.819074 33.692137 
L 156.356236 36.151007 
L 159.893397 38.757982 
L 163.430558 41.493014 
L 166.967719 44.337313 
L 170.50488 47.273297 
L 174.042042 50.284552 
L 177.579203 53.355779 
L 181.116364 56.472753 
L 184.653525 59.622277 
L 188.190686 62.79214 
L 191.727847 65.971067 
L 195.265009 69.148685 
L 198.80217 72.315471 
L 202.339331 75.46272 
L 205.876492 78.582498 
L 209.413653 81.667605 
L 212.950815 84.711538 
L 216.487976 87.708451 
L 220.025137 90.65312 
L 223.562298 93.540909 
L 227.099459 96.367732 
L 230.63662 99.130026 
L 234.173782 101.824714 
L 237.710943 104.449176 
L 241.248104 107.001221 
L 244.785265 109.479056 
L 248.322426 111.881261 
L 251.859588 114.206759 
L 255.396749 116.454798 
L 258.93391 118.624918 
L 262.471071 120.716936 
L 266.008232 122.730919 
L 269.545393 124.667167 
L 273.082555 126.526187 
L 276.619716 128.308682 
L 280.156877 130.015529 
L 283.694038 131.647759 
L 287.231199 133.206549 
L 290.768361 134.693198 
L 294.305522 136.109121 
L 297.842683 137.455826 
L 301.379844 138.734913 
L 304.917005 139.948051 
L 308.454166 141.096974 
L 311.991328 142.183469 
L 315.528489 143.209363 
L 319.06565 144.176519 
L 322.602811 145.086824 
L 326.139972 145.942184 
L 329.677133 146.744514 
L 333.214295 147.495731 
L 336.751456 148.197754 
L 340.288617 148.852488 
L 343.825778 149.461831 
L 347.362939 150.027657 
L 350.900101 150.551823 
L 354.437262 151.036158 
L 357.974423 151.48246 
L 361.511584 151.892498 
L 365.048745 152.268003 
L 368.585906 152.61067 
L 372.123068 152.922154 
L 375.660229 153.20407 
L 379.19739 153.457988 
L 382.734551 153.685436 
L 386.271712 153.887895 
L 389.808874 154.066802 
L 393.346035 154.223547 
L 396.883196 154.359472 
L 400.420357 154.475873 
L 403.957518 154.574 
L 407.494679 154.655053 
L 411.031841 154.720187 
L 414.569002 154.770512 
L 418.106163 154.807088 
L 421.643324 154.830934 
L 425.180485 154.84302 
L 428.717647 154.844276 
L 432.254808 154.835585 
L 432.314194 154.835359 
" style="fill:none;stroke:#000000;stroke-linecap:square;stroke-width:1.5;"/>
   </g>
   <g id="line2d_8">
    <path clip-path="url(#p5d8a54c361)" d="M 78.598076 67.298981 
L 82.075851 76.736241 
L 85.613012 85.77859 
L 89.150173 94.278675 
L 92.687334 102.255218 
L 96.224496 109.726994 
L 99.761657 116.712768 
L 103.298818 123.231235 
L 106.835979 129.300976 
L 110.37314 134.940406 
L 113.910301 140.167734 
L 117.447463 145.000923 
L 120.984624 149.457657 
L 124.521785 153.555312 
L 128.058946 157.310924 
L 131.596107 160.74117 
L 135.133269 163.862343 
L 138.67043 166.690339 
L 142.207591 169.240637 
L 145.744752 171.528286 
L 149.281913 173.567898 
L 152.819074 175.37364 
L 156.356236 176.959221 
L 159.893397 178.337897 
L 163.430558 179.522461 
L 166.967719 180.525246 
L 170.50488 181.358124 
L 174.042042 182.032507 
L 177.579203 182.559353 
L 181.116364 182.949166 
L 184.653525 183.212006 
L 188.190686 183.35749 
L 191.727847 183.394805 
L 195.265009 183.332709 
L 198.80217 183.179544 
L 202.339331 182.943245 
L 205.876492 182.631347 
L 209.413653 182.250994 
L 212.950815 181.808956 
L 216.487976 181.31163 
L 220.025137 180.765059 
L 223.562298 180.174937 
L 227.099459 179.546625 
L 230.63662 178.88516 
L 234.173782 178.195265 
L 237.710943 177.481361 
L 241.248104 176.747582 
L 244.785265 175.997781 
L 248.322426 175.235544 
L 251.859588 174.464201 
L 255.396749 173.686835 
L 258.93391 172.906296 
L 262.471071 172.12521 
L 266.008232 171.345987 
L 269.545393 170.570836 
L 273.082555 169.801772 
L 276.619716 169.040626 
L 280.156877 168.289053 
L 283.694038 167.548547 
L 287.231199 166.820444 
L 290.768361 166.105931 
L 294.305522 165.40606 
L 297.842683 164.721749 
L 301.379844 164.053797 
L 304.917005 163.402884 
L 308.454166 162.769586 
L 311.991328 162.154377 
L 315.528489 161.557637 
L 319.06565 160.979659 
L 322.602811 160.420655 
L 326.139972 159.880763 
L 329.677133 159.360052 
L 333.214295 158.858524 
L 336.751456 158.376128 
L 340.288617 157.912754 
L 343.825778 157.468248 
L 347.362939 157.042407 
L 350.900101 156.634991 
L 354.437262 156.245724 
L 357.974423 155.874297 
L 361.511584 155.52037 
L 365.048745 155.183582 
L 368.585906 154.863547 
L 372.123068 154.55986 
L 375.660229 154.272101 
L 379.19739 153.999835 
L 382.734551 153.742616 
L 386.271712 153.49999 
L 389.808874 153.271495 
L 393.346035 153.056663 
L 396.883196 152.855025 
L 400.420357 152.666111 
L 403.957518 152.489448 
L 407.494679 152.324566 
L 411.031841 152.171 
L 414.569002 152.028287 
L 418.106163 151.895968 
L 421.643324 151.773592 
L 425.180485 151.660714 
L 428.717647 151.556897 
L 432.254808 151.461712 
L 432.314194 151.460186 
" style="fill:none;stroke:#000000;stroke-dasharray:5.55,2.4;stroke-dashoffset:0;stroke-width:1.5;"/>
   </g>
   <g id="line2d_9">
    <path clip-path="url(#p5d8a54c361)" d="M 78.598076 250.396439 
L 82.075851 244.792488 
L 85.613012 239.276551 
L 89.150173 233.947382 
L 92.687334 228.805811 
L 96.224496 223.852027 
L 99.761657 219.085638 
L 103.298818 214.505714 
L 106.835979 210.110838 
L 110.37314 205.899148 
L 113.910301 201.868379 
L 117.447463 198.015904 
L 120.984624 194.338773 
L 124.521785 190.833744 
L 128.058946 187.497321 
L 131.596107 184.325782 
L 135.133269 181.315214 
L 138.67043 178.461535 
L 142.207591 175.760523 
L 145.744752 173.207839 
L 149.281913 170.799051 
L 152.819074 168.529655 
L 156.356236 166.395094 
L 159.893397 164.390776 
L 163.430558 162.51209 
L 166.967719 160.754424 
L 170.50488 159.113177 
L 174.042042 157.583773 
L 177.579203 156.161673 
L 181.116364 154.842383 
L 184.653525 153.621468 
L 188.190686 152.494559 
L 191.727847 151.457358 
L 195.265009 150.505651 
L 198.80217 149.635309 
L 202.339331 148.842295 
L 205.876492 148.122669 
L 209.413653 147.472591 
L 212.950815 146.888328 
L 216.487976 146.36625 
L 220.025137 145.90284 
L 223.562298 145.494688 
L 227.099459 145.1385 
L 230.63662 144.831092 
L 234.173782 144.569394 
L 237.710943 144.350451 
L 241.248104 144.171418 
L 244.785265 144.029564 
L 248.322426 143.922271 
L 251.859588 143.847027 
L 255.396749 143.801433 
L 258.93391 143.783194 
L 262.471071 143.790121 
L 266.008232 143.820131 
L 269.545393 143.871238 
L 273.082555 143.941557 
L 276.619716 144.029299 
L 280.156877 144.13277 
L 283.694038 144.250365 
L 287.231199 144.38057 
L 290.768361 144.521955 
L 294.305522 144.673177 
L 297.842683 144.832969 
L 301.379844 145.000144 
L 304.917005 145.17359 
L 308.454166 145.352268 
L 311.991328 145.535207 
L 315.528489 145.721503 
L 319.06565 145.910315 
L 322.602811 146.100867 
L 326.139972 146.292438 
L 329.677133 146.484363 
L 333.214295 146.676032 
L 336.751456 146.866885 
L 340.288617 147.056412 
L 343.825778 147.244146 
L 347.362939 147.429665 
L 350.900101 147.61259 
L 354.437262 147.792579 
L 357.974423 147.969328 
L 361.511584 148.142565 
L 365.048745 148.312056 
L 368.585906 148.477593 
L 372.123068 148.638999 
L 375.660229 148.796124 
L 379.19739 148.948843 
L 382.734551 149.097054 
L 386.271712 149.240679 
L 389.808874 149.379659 
L 393.346035 149.513953 
L 396.883196 149.643538 
L 400.420357 149.768409 
L 403.957518 149.888573 
L 407.494679 150.004053 
L 411.031841 150.114883 
L 414.569002 150.221109 
L 418.106163 150.322785 
L 421.643324 150.419979 
L 425.180485 150.512762 
L 428.717647 150.601215 
L 432.254808 150.685425 
L 432.314194 150.686804 
" style="fill:none;stroke:#000000;stroke-dasharray:1.5,2.475;stroke-dashoffset:0;stroke-width:1.5;"/>
   </g>
   <g id="patch_3">
    <path d="M 60.91227 261.805794 
L 60.91227 10.8 
" style="fill:none;stroke:#000000;stroke-linecap:square;stroke-linejoin:miter;stroke-width:0.8;"/>
   </g>
   <g id="patch_4">
    <path d="M 450 261.805794 
L 450 10.8 
" style="fill:none;stroke:#000000;stroke-linecap:square;stroke-linejoin:miter;stroke-width:0.8;"/>
   </g>
   <g id="patch_5">
    <path d="M 60.91227 261.805794 
L 450 261.805794 
" style="fill:none;stroke:#000000;stroke-linecap:square;stroke-linejoin:miter;stroke-width:0.8;"/>
   </g>
   <g id="patch_6">
    <path d="M 60.91227 10.8 
L 450 10.8 
" style="fill:none;stroke:#000000;stroke-linecap:square;stroke-linejoin:miter;stroke-width:0.8;"/>
   </g>
   <g id="legend_1">
    <g id="patch_7">
     <path d="M 85.41227 244.305794 
L 228.008289 244.305794 
Q 235.008289 244.305794 235.008289 237.305794 
L 235.008289 94.45874 
Q 235.008289 87.45874 228.008289 87.45874 
L 85.41227 87.45874 
Q 78.41227 87.45874 78.41227 94.45874 
L 78.41227 237.305794 
Q 78.41227 244.305794 85.41227 244.305794 
z
" style="fill:#ffffff;opacity:0.8;stroke:#cccccc;stroke-linejoin:miter;"/>
    </g>
    <g id="line2d_10">
     <path d="M 92.41227 113.70874 
L 162.41227 113.70874 
" style="fill:none;stroke:#000000;stroke-linecap:square;stroke-width:1.5;"/>
    </g>
    <g id="line2d_11"/>
    <g id="text_8">
     <!-- $x_1$ -->
     <defs>
      <path d="M 47.40625 41 
C 44.203125 40.390625 43 37.984375 43 36.09375 
C 43 33.6875 44.90625 32.890625 46.296875 32.890625 
C 49.296875 32.890625 51.40625 35.484375 51.40625 38.1875 
C 51.40625 42.09375 46.59375 44 42.40625 44 
C 36.296875 44 32.90625 38.296875 32 36.390625 
C 29.703125 43.59375 23.5 44 21.703125 44 
C 11.5 44 6.09375 31.140625 6.09375 28.890625 
C 6.09375 28.484375 6.5 27.96875 7.203125 27.96875 
C 8 27.96875 8.203125 28.578125 8.40625 28.984375 
C 11.796875 40.1875 18.5 41.984375 21.40625 41.984375 
C 25.90625 41.984375 26.796875 38.09375 26.796875 35.6875 
C 26.796875 33.484375 26.203125 31.140625 25 26.21875 
L 21.59375 12.15625 
C 20.09375 6.09375 17.203125 1 11.90625 1 
C 11.40625 1 8.90625 1 6.796875 1.96875 
C 10.40625 2.59375 11.203125 5.59375 11.203125 6.796875 
C 11.203125 8.796875 9.703125 10 7.796875 10 
C 5.40625 10 2.796875 7.890625 2.796875 4.6875 
C 2.796875 0.890625 7.5 -1 11.796875 -1 
C 16.59375 -1 20 2.390625 22.09375 6.484375 
C 23.703125 1 28.703125 -1 32.40625 -1 
C 42.59375 -1 48 11.734375 48 14 
C 48 14.515625 47.59375 14.921875 47 14.921875 
C 46.09375 14.921875 46 14.40625 45.703125 13.59375 
C 43 4.6875 37.203125 1 32.703125 1 
C 29.203125 1 27.296875 3.1875 27.296875 7.296875 
C 27.296875 9.484375 27.703125 11.125 29.296875 17.90625 
L 32.796875 31.859375 
C 34.296875 37.890625 37.703125 41.984375 42.296875 41.984375 
C 42.5 41.984375 45.296875 41.984375 47.40625 41 
z
" id="CMMI12-120"/>
     </defs>
     <g transform="translate(190.41227 125.95874)scale(0.35 -0.35)">
      <use transform="translate(0 14.943915)scale(0.996264)" xlink:href="#CMMI12-120"/>
      <use transform="translate(55.43406 0)scale(0.697382)" xlink:href="#CMR17-49"/>
     </g>
    </g>
    <g id="line2d_12">
     <path d="M 92.41227 162.491091 
L 162.41227 162.491091 
" style="fill:none;stroke:#000000;stroke-dasharray:5.55,2.4;stroke-dashoffset:0;stroke-width:1.5;"/>
    </g>
    <g id="line2d_13"/>
    <g id="text_9">
     <!-- $x_2$ -->
     <defs>
      <path d="M 41.703125 15.46875 
L 39.90625 15.46875 
C 38.90625 8.390625 38.09375 7.1875 37.703125 6.59375 
C 37.203125 5.796875 30 5.796875 28.59375 5.796875 
L 9.40625 5.796875 
C 13 9.6875 20 16.765625 28.5 24.9375 
C 34.59375 30.71875 41.703125 37.5 41.703125 47.390625 
C 41.703125 59.1875 32.296875 66 21.796875 66 
C 10.796875 66 4.09375 56.296875 4.09375 47.296875 
C 4.09375 43.390625 7 42.890625 8.203125 42.890625 
C 9.203125 42.890625 12.203125 43.484375 12.203125 46.984375 
C 12.203125 50.09375 9.59375 51 8.203125 51 
C 7.59375 51 7 50.890625 6.59375 50.6875 
C 8.5 59.1875 14.296875 63.390625 20.40625 63.390625 
C 29.09375 63.390625 34.796875 56.5 34.796875 47.390625 
C 34.796875 38.703125 29.703125 31.21875 24 24.734375 
L 4.09375 2.296875 
L 4.09375 0 
L 39.296875 0 
z
" id="CMR17-50"/>
     </defs>
     <g transform="translate(190.41227 174.741091)scale(0.35 -0.35)">
      <use transform="translate(0 14.943915)scale(0.996264)" xlink:href="#CMMI12-120"/>
      <use transform="translate(55.43406 0)scale(0.697382)" xlink:href="#CMR17-50"/>
     </g>
    </g>
    <g id="line2d_14">
     <path d="M 92.41227 211.273442 
L 162.41227 211.273442 
" style="fill:none;stroke:#000000;stroke-dasharray:1.5,2.475;stroke-dashoffset:0;stroke-width:1.5;"/>
    </g>
    <g id="line2d_15"/>
    <g id="text_10">
     <!-- $u$ -->
     <defs>
      <path d="M 34.09375 5.78125 
C 35.40625 0.1875 40.203125 -1 42.59375 -1 
C 45.796875 -1 48.203125 1.09375 49.796875 4.484375 
C 51.5 8.078125 52.796875 13.953125 52.796875 14.265625 
C 52.796875 14.75 52.40625 15.15625 51.796875 15.15625 
C 50.90625 15.15625 50.796875 14.65625 50.40625 13.15625 
C 48.59375 6.28125 46.796875 1 42.796875 1 
C 39.796875 1 39.796875 4.28125 39.796875 5.578125 
C 39.796875 7.875 40.09375 8.875 41.09375 13.0625 
C 41.796875 15.75 42.5 18.453125 43.09375 21.234375 
L 47.203125 37.5 
C 47.90625 40 47.90625 40.1875 47.90625 40.484375 
C 47.90625 41.984375 46.703125 43 45.203125 43 
C 42.296875 43 41.59375 40.484375 41 38 
C 40 34.109375 34.59375 12.65625 33.90625 9.171875 
C 33.796875 9.171875 29.90625 1 22.59375 1 
C 17.40625 1 16.40625 5.484375 16.40625 9.171875 
C 16.40625 14.859375 19.203125 22.84375 21.796875 29.53125 
C 23 32.71875 23.5 34.015625 23.5 36.015625 
C 23.5 40.296875 20.40625 44 15.59375 44 
C 6.40625 44 2.703125 29.53125 2.703125 28.71875 
C 2.703125 28.328125 3.09375 27.828125 3.796875 27.828125 
C 4.703125 27.828125 4.796875 28.234375 5.203125 29.625 
C 7.59375 38.203125 11.5 41.984375 15.296875 41.984375 
C 16.296875 41.984375 17.90625 41.890625 17.90625 38.703125 
C 17.90625 36.109375 16.796875 33.21875 15.296875 29.421875 
C 10.90625 17.546875 10.40625 13.765625 10.40625 10.765625 
C 10.40625 0.59375 18.09375 -1 22.203125 -1 
C 28.59375 -1 32.09375 3.390625 34.09375 5.78125 
z
" id="CMMI12-117"/>
     </defs>
     <g transform="translate(190.41227 223.523442)scale(0.35 -0.35)">
      <use transform="scale(0.996264)" xlink:href="#CMMI12-117"/>
     </g>
    </g>
   </g>
  </g>
 </g>
 <defs>
  <clipPath id="p5d8a54c361">
   <rect height="251.005794" width="389.08773" x="60.91227" y="10.8"/>
  </clipPath>
 </defs>
</svg>
