<?xml version="1.0" encoding="utf-8" standalone="no"?>
<!DOCTYPE svg PUBLIC "-//W3C//DTD SVG 1.1//EN"
  "http://www.w3.org/Graphics/SVG/1.1/DTD/svg11.dtd">
<!-- Created with matplotlib (https://matplotlib.org/) -->
<svg height="345.6pt" version="1.1" viewBox="0 0 460.8 345.6" width="460.8pt" xmlns="http://www.w3.org/2000/svg" xmlns:xlink="http://www.w3.org/1999/xlink">
 <defs>
  <style type="text/css">
*{stroke-linecap:butt;stroke-linejoin:round;}
  </style>
 </defs>
 <g id="figure_1">
  <g id="patch_1">
   <path d="M 0 345.6 
L 460.8 345.6 
L 460.8 0 
L 0 0 
z
" style="fill:#ffffff;"/>
  </g>
  <g id="axes_1">
   <g id="patch_2">
    <path d="M 60.91227 261.805794 
L 450 261.805794 
L 450 10.8 
L 60.91227 10.8 
z
" style="fill:#ffffff;"/>
   </g>
   <g id="matplotlib.axis_1">
    <g id="xtick_1">
     <g id="line2d_1">
      <defs>
       <path d="M 0 0 
L 0 3.5 
" id="m234bbb67a3" style="stroke:#000000;stroke-width:0.8;"/>
      </defs>
      <g>
       <use style="stroke:#000000;stroke-width:0.8;" x="78.598076" xlink:href="#m234bbb67a3" y="261.805794"/>
      </g>
     </g>
     <g id="text_1">
      <!-- $0$ -->
      <defs>
       <path d="M 42 31.84375 
C 42 37.96875 41.90625 48.421875 37.703125 56.453125 
C 34 63.484375 28.09375 66 22.90625 66 
C 18.09375 66 12 63.78125 8.203125 56.5625 
C 4.203125 49.015625 3.796875 39.671875 3.796875 31.84375 
C 3.796875 26.109375 3.90625 17.375 7 9.734375 
C 11.296875 -0.609375 19 -2 22.90625 -2 
C 27.5 -2 34.5 -0.109375 38.59375 9.4375 
C 41.59375 16.375 42 24.5 42 31.84375 
z
M 22.90625 -0.40625 
C 16.5 -0.40625 12.703125 5.125 11.296875 12.75 
C 10.203125 18.6875 10.203125 27.328125 10.203125 32.953125 
C 10.203125 40.6875 10.203125 47.109375 11.5 53.234375 
C 13.40625 61.78125 19 64.390625 22.90625 64.390625 
C 27 64.390625 32.296875 61.671875 34.203125 53.4375 
C 35.5 47.71875 35.59375 40.984375 35.59375 32.953125 
C 35.59375 26.421875 35.59375 18.375 34.40625 12.453125 
C 32.296875 1.5 26.40625 -0.40625 22.90625 -0.40625 
z
" id="CMR17-48"/>
      </defs>
      <g transform="translate(70.602242 293.020546)scale(0.35 -0.35)">
       <use transform="scale(0.996264)" xlink:href="#CMR17-48"/>
      </g>
     </g>
    </g>
    <g id="xtick_2">
     <g id="line2d_2">
      <g>
       <use style="stroke:#000000;stroke-width:0.8;" x="255.456135" xlink:href="#m234bbb67a3" y="261.805794"/>
      </g>
     </g>
     <g id="text_2">
      <!-- $5$ -->
      <defs>
       <path d="M 11.40625 58.59375 
C 12.40625 58.1875 16.5 56.890625 20.703125 56.890625 
C 30 56.890625 35.09375 61.890625 38 64.6875 
C 38 65.484375 38 66 37.40625 66 
C 37.296875 66 37.09375 66 36.296875 65.59375 
C 32.796875 64.09375 28.703125 63 23.703125 63 
C 20.703125 63 16.203125 63.359375 11.296875 65.484375 
C 10.203125 66 10 66 9.90625 66 
C 9.40625 66 9.296875 65.890625 9.296875 63.90625 
L 9.296875 34.859375 
C 9.296875 33.015625 9.296875 32.5 10.296875 32.5 
C 10.796875 32.5 11 32.703125 11.5 33.421875 
C 14.703125 38.046875 19.09375 40 24.09375 40 
C 27.59375 40 35.09375 37.734375 35.09375 20.203125 
C 35.09375 16.984375 35.09375 11.1875 32.09375 6.59375 
C 29.59375 2.484375 25.703125 0.390625 21.40625 0.390625 
C 14.796875 0.390625 8.09375 4.984375 6.296875 12.6875 
C 6.703125 12.59375 7.5 12.390625 7.90625 12.390625 
C 9.203125 12.390625 11.703125 13.09375 11.703125 16.1875 
C 11.703125 18.890625 9.796875 20 7.90625 20 
C 5.59375 20 4.09375 18.59375 4.09375 15.796875 
C 4.09375 7.09375 11 -2 21.59375 -2 
C 31.90625 -2 41.703125 6.890625 41.703125 19.796875 
C 41.703125 32.09375 33.90625 41.59375 24.203125 41.59375 
C 19.09375 41.59375 14.796875 39.6875 11.40625 36 
z
" id="CMR17-53"/>
      </defs>
      <g transform="translate(247.460302 293.020546)scale(0.35 -0.35)">
       <use transform="scale(0.996264)" xlink:href="#CMR17-53"/>
      </g>
     </g>
    </g>
    <g id="xtick_3">
     <g id="line2d_3">
      <g>
       <use style="stroke:#000000;stroke-width:0.8;" x="432.314194" xlink:href="#m234bbb67a3" y="261.805794"/>
      </g>
     </g>
     <g id="text_3">
      <!-- $10$ -->
      <defs>
       <path d="M 26.59375 63.796875 
C 26.59375 65.890625 26.5 66 25.09375 66 
C 21.203125 61.359375 15.296875 59.890625 9.703125 59.6875 
C 9.40625 59.6875 8.90625 59.6875 8.796875 59.5 
C 8.703125 59.296875 8.703125 59.09375 8.703125 57 
C 11.796875 57 17 57.59375 21 59.984375 
L 21 7.296875 
C 21 3.796875 20.796875 2.59375 12.203125 2.59375 
L 9.203125 2.59375 
L 9.203125 0 
C 14 0.09375 19 0.1875 23.796875 0.1875 
C 28.59375 0.1875 33.59375 0.09375 38.40625 0 
L 38.40625 2.59375 
L 35.40625 2.59375 
C 26.796875 2.59375 26.59375 3.6875 26.59375 7.296875 
z
" id="CMR17-49"/>
      </defs>
      <g transform="translate(416.322527 293.020546)scale(0.35 -0.35)">
       <use transform="scale(0.996264)" xlink:href="#CMR17-49"/>
       <use transform="translate(45.690477 0)scale(0.996264)" xlink:href="#CMR17-48"/>
      </g>
     </g>
    </g>
    <g id="text_4">
     <!-- $t$ -->
     <defs>
      <path d="M 20.09375 40.09375 
L 29.296875 40.09375 
C 31.203125 40.09375 32.203125 40.09375 32.203125 41.890625 
C 32.203125 43 31.59375 43 29.59375 43 
L 20.796875 43 
L 24.5 57.25 
C 24.90625 58.625 24.90625 58.8125 24.90625 59.5 
C 24.90625 61.09375 23.59375 62 22.296875 62 
C 21.5 62 19.203125 61.6875 18.40625 58.53125 
L 14.5 43 
L 5.09375 43 
C 3.09375 43 2.203125 43 2.203125 41.09375 
C 2.203125 40.09375 2.90625 40.09375 4.796875 40.09375 
L 13.703125 40.09375 
L 7.09375 13.765625 
C 6.296875 10.265625 6 9.265625 6 7.96875 
C 6 3.28125 9.296875 -1 14.90625 -1 
C 25 -1 30.40625 13.5625 30.40625 14.265625 
C 30.40625 14.859375 30 15.15625 29.40625 15.15625 
C 29.203125 15.15625 28.796875 15.15625 28.59375 14.75 
C 28.5 14.65625 28.40625 14.5625 27.703125 12.96875 
C 25.59375 7.96875 21 1 15.203125 1 
C 12.203125 1 12 3.484375 12 5.6875 
C 12 5.78125 12 7.671875 12.296875 8.875 
z
" id="CMMI12-116"/>
     </defs>
     <g transform="translate(249.291531 328.017649)scale(0.35 -0.35)">
      <use transform="scale(0.996264)" xlink:href="#CMMI12-116"/>
     </g>
    </g>
   </g>
   <g id="matplotlib.axis_2">
    <g id="ytick_1">
     <g id="line2d_4">
      <defs>
       <path d="M 0 0 
L -3.5 0 
" id="m665c0108b1" style="stroke:#000000;stroke-width:0.8;"/>
      </defs>
      <g>
       <use style="stroke:#000000;stroke-width:0.8;" x="60.91227" xlink:href="#m665c0108b1" y="208.195935"/>
      </g>
     </g>
     <g id="text_5">
      <!-- $-2$ -->
      <defs>
       <path d="M 65.90625 23 
C 67.59375 23 69.40625 23 69.40625 25 
C 69.40625 27 67.59375 27 65.90625 27 
L 11.796875 27 
C 10.09375 27 8.296875 27 8.296875 25 
C 8.296875 23 10.09375 23 11.796875 23 
z
" id="CMSY10-0"/>
       <path d="M 41.703125 15.46875 
L 39.90625 15.46875 
C 38.90625 8.390625 38.09375 7.1875 37.703125 6.59375 
C 37.203125 5.796875 30 5.796875 28.59375 5.796875 
L 9.40625 5.796875 
C 13 9.6875 20 16.765625 28.5 24.9375 
C 34.59375 30.71875 41.703125 37.5 41.703125 47.390625 
C 41.703125 59.1875 32.296875 66 21.796875 66 
C 10.796875 66 4.09375 56.296875 4.09375 47.296875 
C 4.09375 43.390625 7 42.890625 8.203125 42.890625 
C 9.203125 42.890625 12.203125 43.484375 12.203125 46.984375 
C 12.203125 50.09375 9.59375 51 8.203125 51 
C 7.59375 51 7 50.890625 6.59375 50.6875 
C 8.5 59.1875 14.296875 63.390625 20.40625 63.390625 
C 29.09375 63.390625 34.796875 56.5 34.796875 47.390625 
C 34.796875 38.703125 29.703125 31.21875 24 24.734375 
L 4.09375 2.296875 
L 4.09375 0 
L 39.296875 0 
z
" id="CMR17-50"/>
      </defs>
      <g transform="translate(10.8 220.303311)scale(0.35 -0.35)">
       <use transform="scale(0.996264)" xlink:href="#CMSY10-0"/>
       <use transform="translate(77.487468 0)scale(0.996264)" xlink:href="#CMR17-50"/>
      </g>
     </g>
    </g>
    <g id="ytick_2">
     <g id="line2d_5">
      <g>
       <use style="stroke:#000000;stroke-width:0.8;" x="60.91227" xlink:href="#m665c0108b1" y="92.902013"/>
      </g>
     </g>
     <g id="text_6">
      <!-- $0$ -->
      <g transform="translate(37.920603 105.009389)scale(0.35 -0.35)">
       <use transform="scale(0.996264)" xlink:href="#CMR17-48"/>
      </g>
     </g>
    </g>
   </g>
   <g id="line2d_6">
    <path clip-path="url(#p33899fe8ab)" d="M 78.598076 35.255053 
L 81.389456 31.178931 
L 84.926617 27.265453 
L 88.463778 24.576519 
L 92.000939 22.942053 
L 95.5381 22.209354 
L 99.075261 22.241731 
L 102.612423 22.917213 
L 106.149584 24.127327 
L 109.686745 25.775946 
L 113.223906 27.778208 
L 116.761067 30.059501 
L 120.298229 32.554521 
L 123.83539 35.206389 
L 127.372551 37.96583 
L 130.909712 40.790421 
L 134.446873 43.643888 
L 137.984034 46.49546 
L 141.521196 49.319278 
L 145.058357 52.093848 
L 148.595518 54.801549 
L 152.132679 57.428173 
L 155.66984 59.962518 
L 159.207002 62.396009 
L 162.744163 64.722359 
L 166.281324 66.937265 
L 169.818485 69.038131 
L 173.355646 71.023818 
L 176.892807 72.894428 
L 180.429969 74.6511 
L 183.96713 76.295838 
L 187.504291 77.831354 
L 191.041452 79.260932 
L 194.578613 80.588303 
L 198.115775 81.817545 
L 201.652936 82.952986 
L 205.190097 83.999128 
L 208.727258 84.960573 
L 212.264419 85.841972 
L 215.80158 86.647968 
L 219.338742 87.383158 
L 222.875903 88.05206 
L 226.413064 88.659077 
L 229.950225 89.208483 
L 233.487386 89.704399 
L 237.024548 90.150783 
L 240.561709 90.551417 
L 244.09887 90.909901 
L 247.636031 91.22965 
L 251.173192 91.51389 
L 254.710353 91.765661 
L 258.247515 91.987817 
L 261.784676 92.18303 
L 265.321837 92.353793 
L 268.858998 92.502428 
L 272.396159 92.631091 
L 275.933321 92.741777 
L 279.470482 92.836331 
L 283.007643 92.91645 
L 286.544804 92.983694 
L 290.081965 93.039495 
L 293.619126 93.085161 
L 297.156288 93.121884 
L 300.693449 93.150749 
L 304.23061 93.172742 
L 307.767771 93.188754 
L 311.304932 93.199588 
L 314.842094 93.20597 
L 318.379255 93.208548 
L 321.916416 93.207903 
L 325.453577 93.204555 
L 328.990738 93.198964 
L 332.527899 93.191538 
L 336.065061 93.182636 
L 339.602222 93.172576 
L 343.139383 93.161634 
L 346.676544 93.150049 
L 350.213705 93.138032 
L 353.750867 93.125761 
L 357.288028 93.113388 
L 360.825189 93.101044 
L 364.36235 93.088837 
L 367.899511 93.076857 
L 371.436672 93.065179 
L 374.973834 93.053861 
L 378.510995 93.04295 
L 382.048156 93.032481 
L 385.585317 93.02248 
L 389.122478 93.012964 
L 392.65964 93.003944 
L 396.196801 92.995423 
L 399.733962 92.9874 
L 403.271123 92.97987 
L 406.808284 92.972823 
L 410.345445 92.966248 
L 413.882607 92.960128 
L 417.419768 92.954449 
L 420.956929 92.949192 
L 424.49409 92.944338 
L 428.031251 92.939868 
L 431.568413 92.935761 
L 432.314194 92.93494 
" style="fill:none;stroke:#000000;stroke-linecap:square;stroke-width:1.5;"/>
   </g>
   <g id="line2d_7">
    <path clip-path="url(#p33899fe8ab)" d="M 78.598076 35.255053 
L 81.389456 47.031305 
L 84.926617 60.188593 
L 88.463778 71.553534 
L 92.000939 81.306909 
L 95.5381 89.615534 
L 99.075261 96.632949 
L 102.612423 102.500121 
L 106.149584 107.346153 
L 109.686745 111.288984 
L 113.223906 114.43608 
L 116.761067 116.885119 
L 120.298229 118.72465 
L 123.83539 120.034727 
L 127.372551 120.887535 
L 130.909712 121.347971 
L 134.446873 121.474211 
L 137.984034 121.318247 
L 141.521196 120.926389 
L 145.058357 120.339748 
L 148.595518 119.594683 
L 152.132679 118.723225 
L 155.66984 117.753469 
L 159.207002 116.709944 
L 162.744163 115.613957 
L 166.281324 114.483906 
L 169.818485 113.335574 
L 173.355646 112.182405 
L 176.892807 111.035747 
L 180.429969 109.905085 
L 183.96713 108.798247 
L 187.504291 107.721599 
L 191.041452 106.680217 
L 194.578613 105.678047 
L 198.115775 104.718046 
L 201.652936 103.802316 
L 205.190097 102.932217 
L 208.727258 102.108475 
L 212.264419 101.331274 
L 215.80158 100.600343 
L 219.338742 99.915029 
L 222.875903 99.274365 
L 226.413064 98.677128 
L 229.950225 98.121889 
L 233.487386 97.607065 
L 237.024548 97.13095 
L 240.561709 96.691757 
L 244.09887 96.287643 
L 247.636031 95.916737 
L 251.173192 95.57716 
L 254.710353 95.267045 
L 258.247515 94.984552 
L 261.784676 94.727879 
L 265.321837 94.495275 
L 268.858998 94.285047 
L 272.396159 94.095564 
L 275.933321 93.925265 
L 279.470482 93.772662 
L 283.007643 93.636341 
L 286.544804 93.514963 
L 290.081965 93.407265 
L 293.619126 93.312059 
L 297.156288 93.228232 
L 300.693449 93.154744 
L 304.23061 93.090625 
L 307.767771 93.034972 
L 311.304932 92.986951 
L 314.842094 92.945787 
L 318.379255 92.910768 
L 321.916416 92.881238 
L 325.453577 92.856595 
L 328.990738 92.836288 
L 332.527899 92.819813 
L 336.065061 92.806712 
L 339.602222 92.796569 
L 343.139383 92.789007 
L 346.676544 92.783684 
L 350.213705 92.780293 
L 353.750867 92.778558 
L 357.288028 92.778232 
L 360.825189 92.779093 
L 364.36235 92.780945 
L 367.899511 92.783613 
L 371.436672 92.786943 
L 374.973834 92.790799 
L 378.510995 92.795062 
L 382.048156 92.799629 
L 385.585317 92.804408 
L 389.122478 92.809323 
L 392.65964 92.814307 
L 396.196801 92.819302 
L 399.733962 92.824262 
L 403.271123 92.829147 
L 406.808284 92.833923 
L 410.345445 92.838564 
L 413.882607 92.843049 
L 417.419768 92.847362 
L 420.956929 92.851491 
L 424.49409 92.855426 
L 428.031251 92.859163 
L 431.568413 92.862698 
L 432.314194 92.863418 
" style="fill:none;stroke:#000000;stroke-dasharray:5.55,2.4;stroke-dashoffset:0;stroke-width:1.5;"/>
   </g>
   <g id="line2d_8">
    <path clip-path="url(#p33899fe8ab)" d="M 78.598076 250.396439 
L 81.389456 234.075494 
L 84.926617 215.199881 
L 88.463778 198.20416 
L 92.000939 182.945283 
L 95.5381 169.287022 
L 99.075261 157.100127 
L 102.612423 146.262404 
L 106.149584 136.658716 
L 109.686745 128.180915 
L 113.223906 120.727722 
L 116.761067 114.204568 
L 120.298229 108.523388 
L 123.83539 103.6024 
L 127.372551 99.365852 
L 130.909712 95.743762 
L 134.446873 92.67164 
L 137.984034 90.090206 
L 141.521196 87.945107 
L 145.058357 86.186629 
L 148.595518 84.769418 
L 152.132679 83.652204 
L 155.66984 82.797526 
L 159.207002 82.171472 
L 162.744163 81.743428 
L 166.281324 81.485828 
L 169.818485 81.373931 
L 173.355646 81.385591 
L 176.892807 81.501051 
L 180.429969 81.702744 
L 183.96713 81.975105 
L 187.504291 82.304398 
L 191.041452 82.678546 
L 194.578613 83.086985 
L 198.115775 83.520513 
L 201.652936 83.971162 
L 205.190097 84.432077 
L 208.727258 84.897395 
L 212.264419 85.362148 
L 215.80158 85.822162 
L 219.338742 86.273969 
L 222.875903 86.714731 
L 226.413064 87.142159 
L 229.950225 87.554454 
L 233.487386 87.95024 
L 237.024548 88.32851 
L 240.561709 88.688581 
L 244.09887 89.030043 
L 247.636031 89.352723 
L 251.173192 89.656647 
L 254.710353 89.942011 
L 258.247515 90.209148 
L 261.784676 90.458506 
L 265.321837 90.690624 
L 268.858998 90.906115 
L 272.396159 91.105647 
L 275.933321 91.289926 
L 279.470482 91.459688 
L 283.007643 91.615685 
L 286.544804 91.758673 
L 290.081965 91.889411 
L 293.619126 92.008647 
L 297.156288 92.117116 
L 300.693449 92.215535 
L 304.23061 92.3046 
L 307.767771 92.384982 
L 311.304932 92.457323 
L 314.842094 92.52224 
L 318.379255 92.580316 
L 321.916416 92.632108 
L 325.453577 92.678139 
L 328.990738 92.718904 
L 332.527899 92.754865 
L 336.065061 92.786457 
L 339.602222 92.814085 
L 343.139383 92.838126 
L 346.676544 92.85893 
L 350.213705 92.876821 
L 353.750867 92.892097 
L 357.288028 92.905035 
L 360.825189 92.915887 
L 364.36235 92.924887 
L 367.899511 92.932245 
L 371.436672 92.938156 
L 374.973834 92.942795 
L 378.510995 92.946322 
L 382.048156 92.948882 
L 385.585317 92.950605 
L 389.122478 92.951608 
L 392.65964 92.951996 
L 396.196801 92.951864 
L 399.733962 92.951296 
L 403.271123 92.950366 
L 406.808284 92.94914 
L 410.345445 92.947677 
L 413.882607 92.946028 
L 417.419768 92.944237 
L 420.956929 92.942343 
L 424.49409 92.940381 
L 428.031251 92.938379 
L 431.568413 92.936362 
L 432.314194 92.935936 
" style="fill:none;stroke:#000000;stroke-dasharray:1.5,2.475;stroke-dashoffset:0;stroke-width:1.5;"/>
   </g>
   <g id="patch_3">
    <path d="M 60.91227 261.805794 
L 60.91227 10.8 
" style="fill:none;stroke:#000000;stroke-linecap:square;stroke-linejoin:miter;stroke-width:0.8;"/>
   </g>
   <g id="patch_4">
    <path d="M 450 261.805794 
L 450 10.8 
" style="fill:none;stroke:#000000;stroke-linecap:square;stroke-linejoin:miter;stroke-width:0.8;"/>
   </g>
   <g id="patch_5">
    <path d="M 60.91227 261.805794 
L 450 261.805794 
" style="fill:none;stroke:#000000;stroke-linecap:square;stroke-linejoin:miter;stroke-width:0.8;"/>
   </g>
   <g id="patch_6">
    <path d="M 60.91227 10.8 
L 450 10.8 
" style="fill:none;stroke:#000000;stroke-linecap:square;stroke-linejoin:miter;stroke-width:0.8;"/>
   </g>
   <g id="legend_1">
    <g id="patch_7">
     <path d="M 85.41227 244.305794 
L 228.008289 244.305794 
Q 235.008289 244.305794 235.008289 237.305794 
L 235.008289 94.45874 
Q 235.008289 87.45874 228.008289 87.45874 
L 85.41227 87.45874 
Q 78.41227 87.45874 78.41227 94.45874 
L 78.41227 237.305794 
Q 78.41227 244.305794 85.41227 244.305794 
z
" style="fill:#ffffff;opacity:0.8;stroke:#cccccc;stroke-linejoin:miter;"/>
    </g>
    <g id="line2d_9">
     <path d="M 92.41227 113.70874 
L 162.41227 113.70874 
" style="fill:none;stroke:#000000;stroke-linecap:square;stroke-width:1.5;"/>
    </g>
    <g id="line2d_10"/>
    <g id="text_7">
     <!-- $x_1$ -->
     <defs>
      <path d="M 47.40625 41 
C 44.203125 40.390625 43 37.984375 43 36.09375 
C 43 33.6875 44.90625 32.890625 46.296875 32.890625 
C 49.296875 32.890625 51.40625 35.484375 51.40625 38.1875 
C 51.40625 42.09375 46.59375 44 42.40625 44 
C 36.296875 44 32.90625 38.296875 32 36.390625 
C 29.703125 43.59375 23.5 44 21.703125 44 
C 11.5 44 6.09375 31.140625 6.09375 28.890625 
C 6.09375 28.484375 6.5 27.96875 7.203125 27.96875 
C 8 27.96875 8.203125 28.578125 8.40625 28.984375 
C 11.796875 40.1875 18.5 41.984375 21.40625 41.984375 
C 25.90625 41.984375 26.796875 38.09375 26.796875 35.6875 
C 26.796875 33.484375 26.203125 31.140625 25 26.21875 
L 21.59375 12.15625 
C 20.09375 6.09375 17.203125 1 11.90625 1 
C 11.40625 1 8.90625 1 6.796875 1.96875 
C 10.40625 2.59375 11.203125 5.59375 11.203125 6.796875 
C 11.203125 8.796875 9.703125 10 7.796875 10 
C 5.40625 10 2.796875 7.890625 2.796875 4.6875 
C 2.796875 0.890625 7.5 -1 11.796875 -1 
C 16.59375 -1 20 2.390625 22.09375 6.484375 
C 23.703125 1 28.703125 -1 32.40625 -1 
C 42.59375 -1 48 11.734375 48 14 
C 48 14.515625 47.59375 14.921875 47 14.921875 
C 46.09375 14.921875 46 14.40625 45.703125 13.59375 
C 43 4.6875 37.203125 1 32.703125 1 
C 29.203125 1 27.296875 3.1875 27.296875 7.296875 
C 27.296875 9.484375 27.703125 11.125 29.296875 17.90625 
L 32.796875 31.859375 
C 34.296875 37.890625 37.703125 41.984375 42.296875 41.984375 
C 42.5 41.984375 45.296875 41.984375 47.40625 41 
z
" id="CMMI12-120"/>
     </defs>
     <g transform="translate(190.41227 125.95874)scale(0.35 -0.35)">
      <use transform="translate(0 14.943915)scale(0.996264)" xlink:href="#CMMI12-120"/>
      <use transform="translate(55.43406 0)scale(0.697382)" xlink:href="#CMR17-49"/>
     </g>
    </g>
    <g id="line2d_11">
     <path d="M 92.41227 162.491091 
L 162.41227 162.491091 
" style="fill:none;stroke:#000000;stroke-dasharray:5.55,2.4;stroke-dashoffset:0;stroke-width:1.5;"/>
    </g>
    <g id="line2d_12"/>
    <g id="text_8">
     <!-- $x_2$ -->
     <g transform="translate(190.41227 174.741091)scale(0.35 -0.35)">
      <use transform="translate(0 14.943915)scale(0.996264)" xlink:href="#CMMI12-120"/>
      <use transform="translate(55.43406 0)scale(0.697382)" xlink:href="#CMR17-50"/>
     </g>
    </g>
    <g id="line2d_13">
     <path d="M 92.41227 211.273442 
L 162.41227 211.273442 
" style="fill:none;stroke:#000000;stroke-dasharray:1.5,2.475;stroke-dashoffset:0;stroke-width:1.5;"/>
    </g>
    <g id="line2d_14"/>
    <g id="text_9">
     <!-- $u$ -->
     <defs>
      <path d="M 34.09375 5.78125 
C 35.40625 0.1875 40.203125 -1 42.59375 -1 
C 45.796875 -1 48.203125 1.09375 49.796875 4.484375 
C 51.5 8.078125 52.796875 13.953125 52.796875 14.265625 
C 52.796875 14.75 52.40625 15.15625 51.796875 15.15625 
C 50.90625 15.15625 50.796875 14.65625 50.40625 13.15625 
C 48.59375 6.28125 46.796875 1 42.796875 1 
C 39.796875 1 39.796875 4.28125 39.796875 5.578125 
C 39.796875 7.875 40.09375 8.875 41.09375 13.0625 
C 41.796875 15.75 42.5 18.453125 43.09375 21.234375 
L 47.203125 37.5 
C 47.90625 40 47.90625 40.1875 47.90625 40.484375 
C 47.90625 41.984375 46.703125 43 45.203125 43 
C 42.296875 43 41.59375 40.484375 41 38 
C 40 34.109375 34.59375 12.65625 33.90625 9.171875 
C 33.796875 9.171875 29.90625 1 22.59375 1 
C 17.40625 1 16.40625 5.484375 16.40625 9.171875 
C 16.40625 14.859375 19.203125 22.84375 21.796875 29.53125 
C 23 32.71875 23.5 34.015625 23.5 36.015625 
C 23.5 40.296875 20.40625 44 15.59375 44 
C 6.40625 44 2.703125 29.53125 2.703125 28.71875 
C 2.703125 28.328125 3.09375 27.828125 3.796875 27.828125 
C 4.703125 27.828125 4.796875 28.234375 5.203125 29.625 
C 7.59375 38.203125 11.5 41.984375 15.296875 41.984375 
C 16.296875 41.984375 17.90625 41.890625 17.90625 38.703125 
C 17.90625 36.109375 16.796875 33.21875 15.296875 29.421875 
C 10.90625 17.546875 10.40625 13.765625 10.40625 10.765625 
C 10.40625 0.59375 18.09375 -1 22.203125 -1 
C 28.59375 -1 32.09375 3.390625 34.09375 5.78125 
z
" id="CMMI12-117"/>
     </defs>
     <g transform="translate(190.41227 223.523442)scale(0.35 -0.35)">
      <use transform="scale(0.996264)" xlink:href="#CMMI12-117"/>
     </g>
    </g>
   </g>
  </g>
 </g>
 <defs>
  <clipPath id="p33899fe8ab">
   <rect height="251.005794" width="389.08773" x="60.91227" y="10.8"/>
  </clipPath>
 </defs>
</svg>
