<?xml version="1.0" encoding="utf-8" standalone="no"?>
<!DOCTYPE svg PUBLIC "-//W3C//DTD SVG 1.1//EN"
  "http://www.w3.org/Graphics/SVG/1.1/DTD/svg11.dtd">
<!-- Created with matplotlib (https://matplotlib.org/) -->
<svg height="345.6pt" version="1.1" viewBox="0 0 460.8 345.6" width="460.8pt" xmlns="http://www.w3.org/2000/svg" xmlns:xlink="http://www.w3.org/1999/xlink">
 <defs>
  <style type="text/css">
*{stroke-linecap:butt;stroke-linejoin:round;}
  </style>
 </defs>
 <g id="figure_1">
  <g id="patch_1">
   <path d="M 0 345.6 
L 460.8 345.6 
L 460.8 0 
L 0 0 
z
" style="fill:#ffffff;"/>
  </g>
  <g id="axes_1">
   <g id="patch_2">
    <path d="M 60.91227 261.805794 
L 450 261.805794 
L 450 10.8 
L 60.91227 10.8 
z
" style="fill:#ffffff;"/>
   </g>
   <g id="matplotlib.axis_1">
    <g id="xtick_1">
     <g id="line2d_1">
      <defs>
       <path d="M 0 0 
L 0 3.5 
" id="ma507b8715a" style="stroke:#000000;stroke-width:0.8;"/>
      </defs>
      <g>
       <use style="stroke:#000000;stroke-width:0.8;" x="78.598076" xlink:href="#ma507b8715a" y="261.805794"/>
      </g>
     </g>
     <g id="text_1">
      <!-- $0$ -->
      <defs>
       <path d="M 42 31.84375 
C 42 37.96875 41.90625 48.421875 37.703125 56.453125 
C 34 63.484375 28.09375 66 22.90625 66 
C 18.09375 66 12 63.78125 8.203125 56.5625 
C 4.203125 49.015625 3.796875 39.671875 3.796875 31.84375 
C 3.796875 26.109375 3.90625 17.375 7 9.734375 
C 11.296875 -0.609375 19 -2 22.90625 -2 
C 27.5 -2 34.5 -0.109375 38.59375 9.4375 
C 41.59375 16.375 42 24.5 42 31.84375 
z
M 22.90625 -0.40625 
C 16.5 -0.40625 12.703125 5.125 11.296875 12.75 
C 10.203125 18.6875 10.203125 27.328125 10.203125 32.953125 
C 10.203125 40.6875 10.203125 47.109375 11.5 53.234375 
C 13.40625 61.78125 19 64.390625 22.90625 64.390625 
C 27 64.390625 32.296875 61.671875 34.203125 53.4375 
C 35.5 47.71875 35.59375 40.984375 35.59375 32.953125 
C 35.59375 26.421875 35.59375 18.375 34.40625 12.453125 
C 32.296875 1.5 26.40625 -0.40625 22.90625 -0.40625 
z
" id="CMR17-48"/>
      </defs>
      <g transform="translate(70.602242 293.020546)scale(0.35 -0.35)">
       <use transform="scale(0.996264)" xlink:href="#CMR17-48"/>
      </g>
     </g>
    </g>
    <g id="xtick_2">
     <g id="line2d_2">
      <g>
       <use style="stroke:#000000;stroke-width:0.8;" x="255.456135" xlink:href="#ma507b8715a" y="261.805794"/>
      </g>
     </g>
     <g id="text_2">
      <!-- $5$ -->
      <defs>
       <path d="M 11.40625 58.59375 
C 12.40625 58.1875 16.5 56.890625 20.703125 56.890625 
C 30 56.890625 35.09375 61.890625 38 64.6875 
C 38 65.484375 38 66 37.40625 66 
C 37.296875 66 37.09375 66 36.296875 65.59375 
C 32.796875 64.09375 28.703125 63 23.703125 63 
C 20.703125 63 16.203125 63.359375 11.296875 65.484375 
C 10.203125 66 10 66 9.90625 66 
C 9.40625 66 9.296875 65.890625 9.296875 63.90625 
L 9.296875 34.859375 
C 9.296875 33.015625 9.296875 32.5 10.296875 32.5 
C 10.796875 32.5 11 32.703125 11.5 33.421875 
C 14.703125 38.046875 19.09375 40 24.09375 40 
C 27.59375 40 35.09375 37.734375 35.09375 20.203125 
C 35.09375 16.984375 35.09375 11.1875 32.09375 6.59375 
C 29.59375 2.484375 25.703125 0.390625 21.40625 0.390625 
C 14.796875 0.390625 8.09375 4.984375 6.296875 12.6875 
C 6.703125 12.59375 7.5 12.390625 7.90625 12.390625 
C 9.203125 12.390625 11.703125 13.09375 11.703125 16.1875 
C 11.703125 18.890625 9.796875 20 7.90625 20 
C 5.59375 20 4.09375 18.59375 4.09375 15.796875 
C 4.09375 7.09375 11 -2 21.59375 -2 
C 31.90625 -2 41.703125 6.890625 41.703125 19.796875 
C 41.703125 32.09375 33.90625 41.59375 24.203125 41.59375 
C 19.09375 41.59375 14.796875 39.6875 11.40625 36 
z
" id="CMR17-53"/>
      </defs>
      <g transform="translate(247.460302 293.020546)scale(0.35 -0.35)">
       <use transform="scale(0.996264)" xlink:href="#CMR17-53"/>
      </g>
     </g>
    </g>
    <g id="xtick_3">
     <g id="line2d_3">
      <g>
       <use style="stroke:#000000;stroke-width:0.8;" x="432.314194" xlink:href="#ma507b8715a" y="261.805794"/>
      </g>
     </g>
     <g id="text_3">
      <!-- $10$ -->
      <defs>
       <path d="M 26.59375 63.796875 
C 26.59375 65.890625 26.5 66 25.09375 66 
C 21.203125 61.359375 15.296875 59.890625 9.703125 59.6875 
C 9.40625 59.6875 8.90625 59.6875 8.796875 59.5 
C 8.703125 59.296875 8.703125 59.09375 8.703125 57 
C 11.796875 57 17 57.59375 21 59.984375 
L 21 7.296875 
C 21 3.796875 20.796875 2.59375 12.203125 2.59375 
L 9.203125 2.59375 
L 9.203125 0 
C 14 0.09375 19 0.1875 23.796875 0.1875 
C 28.59375 0.1875 33.59375 0.09375 38.40625 0 
L 38.40625 2.59375 
L 35.40625 2.59375 
C 26.796875 2.59375 26.59375 3.6875 26.59375 7.296875 
z
" id="CMR17-49"/>
      </defs>
      <g transform="translate(416.322527 293.020546)scale(0.35 -0.35)">
       <use transform="scale(0.996264)" xlink:href="#CMR17-49"/>
       <use transform="translate(45.690477 0)scale(0.996264)" xlink:href="#CMR17-48"/>
      </g>
     </g>
    </g>
    <g id="text_4">
     <!-- $t$ -->
     <defs>
      <path d="M 20.09375 40.09375 
L 29.296875 40.09375 
C 31.203125 40.09375 32.203125 40.09375 32.203125 41.890625 
C 32.203125 43 31.59375 43 29.59375 43 
L 20.796875 43 
L 24.5 57.25 
C 24.90625 58.625 24.90625 58.8125 24.90625 59.5 
C 24.90625 61.09375 23.59375 62 22.296875 62 
C 21.5 62 19.203125 61.6875 18.40625 58.53125 
L 14.5 43 
L 5.09375 43 
C 3.09375 43 2.203125 43 2.203125 41.09375 
C 2.203125 40.09375 2.90625 40.09375 4.796875 40.09375 
L 13.703125 40.09375 
L 7.09375 13.765625 
C 6.296875 10.265625 6 9.265625 6 7.96875 
C 6 3.28125 9.296875 -1 14.90625 -1 
C 25 -1 30.40625 13.5625 30.40625 14.265625 
C 30.40625 14.859375 30 15.15625 29.40625 15.15625 
C 29.203125 15.15625 28.796875 15.15625 28.59375 14.75 
C 28.5 14.65625 28.40625 14.5625 27.703125 12.96875 
C 25.59375 7.96875 21 1 15.203125 1 
C 12.203125 1 12 3.484375 12 5.6875 
C 12 5.78125 12 7.671875 12.296875 8.875 
z
" id="CMMI12-116"/>
     </defs>
     <g transform="translate(249.291531 328.017649)scale(0.35 -0.35)">
      <use transform="scale(0.996264)" xlink:href="#CMMI12-116"/>
     </g>
    </g>
   </g>
   <g id="matplotlib.axis_2">
    <g id="ytick_1">
     <g id="line2d_4">
      <defs>
       <path d="M 0 0 
L -3.5 0 
" id="m0bfb791bca" style="stroke:#000000;stroke-width:0.8;"/>
      </defs>
      <g>
       <use style="stroke:#000000;stroke-width:0.8;" x="60.91227" xlink:href="#m0bfb791bca" y="189.734409"/>
      </g>
     </g>
     <g id="text_5">
      <!-- $-5$ -->
      <defs>
       <path d="M 65.90625 23 
C 67.59375 23 69.40625 23 69.40625 25 
C 69.40625 27 67.59375 27 65.90625 27 
L 11.796875 27 
C 10.09375 27 8.296875 27 8.296875 25 
C 8.296875 23 10.09375 23 11.796875 23 
z
" id="CMSY10-0"/>
      </defs>
      <g transform="translate(10.8 201.841785)scale(0.35 -0.35)">
       <use transform="scale(0.996264)" xlink:href="#CMSY10-0"/>
       <use transform="translate(77.487468 0)scale(0.996264)" xlink:href="#CMR17-53"/>
      </g>
     </g>
    </g>
    <g id="ytick_2">
     <g id="line2d_5">
      <g>
       <use style="stroke:#000000;stroke-width:0.8;" x="60.91227" xlink:href="#m0bfb791bca" y="52.031615"/>
      </g>
     </g>
     <g id="text_6">
      <!-- $0$ -->
      <g transform="translate(37.920603 64.138991)scale(0.35 -0.35)">
       <use transform="scale(0.996264)" xlink:href="#CMR17-48"/>
      </g>
     </g>
    </g>
   </g>
   <g id="line2d_6">
    <path clip-path="url(#pd7bb08540c)" d="M 78.598076 24.491056 
L 80.560659 23.24884 
L 84.097821 22.209354 
L 87.634982 22.289145 
L 91.172143 23.114117 
L 94.709304 24.415181 
L 98.246465 26.000338 
L 101.783627 27.73403 
L 105.320788 29.521906 
L 108.857949 31.299567 
L 112.39511 33.024286 
L 115.932271 34.668909 
L 119.469432 36.217387 
L 123.006594 37.661499 
L 126.543755 38.998467 
L 130.080916 40.229212 
L 133.618077 41.357109 
L 137.155238 42.387078 
L 140.6924 43.324944 
L 144.229561 44.176986 
L 147.766722 44.949624 
L 151.303883 45.649202 
L 154.841044 46.281854 
L 158.378205 46.853408 
L 161.915367 47.369344 
L 165.452528 47.834761 
L 168.989689 48.254375 
L 172.52685 48.632522 
L 176.064011 48.973174 
L 179.601173 49.279954 
L 183.138334 49.556162 
L 186.675495 49.804792 
L 190.212656 50.02856 
L 193.749817 50.229924 
L 197.286978 50.411105 
L 200.82414 50.574111 
L 204.361301 50.720754 
L 207.898462 50.852667 
L 211.435623 50.971324 
L 214.972784 51.078052 
L 218.509946 51.174048 
L 222.047107 51.260386 
L 225.584268 51.338038 
L 229.121429 51.407876 
L 232.65859 51.470685 
L 236.195751 51.527171 
L 239.732913 51.57797 
L 243.270074 51.623656 
L 246.807235 51.664741 
L 250.344396 51.701689 
L 253.881557 51.734917 
L 257.418719 51.764799 
L 260.95588 51.791671 
L 264.493041 51.815837 
L 268.030202 51.83757 
L 271.567363 51.857113 
L 275.104524 51.874689 
L 278.641686 51.890494 
L 282.178847 51.904708 
L 285.716008 51.91749 
L 289.253169 51.928984 
L 292.79033 51.939321 
L 296.327491 51.948617 
L 299.864653 51.956976 
L 303.401814 51.964494 
L 306.938975 51.971254 
L 310.476136 51.977334 
L 314.013297 51.982801 
L 317.550459 51.987718 
L 321.08762 51.992139 
L 324.624781 51.996115 
L 328.161942 51.99969 
L 331.699103 52.002906 
L 335.236264 52.005797 
L 338.773426 52.008398 
L 342.310587 52.010736 
L 345.847748 52.012839 
L 349.384909 52.01473 
L 352.92207 52.016431 
L 356.459232 52.01796 
L 359.996393 52.019335 
L 363.533554 52.020572 
L 367.070715 52.021684 
L 370.607876 52.022685 
L 374.145037 52.023584 
L 377.682199 52.024393 
L 381.21936 52.02512 
L 384.756521 52.025775 
L 388.293682 52.026363 
L 391.830843 52.026892 
L 395.368005 52.027367 
L 398.905166 52.027795 
L 402.442327 52.02818 
L 405.979488 52.028526 
L 409.516649 52.028837 
L 413.05381 52.029117 
L 416.590972 52.029368 
L 420.128133 52.029595 
L 423.665294 52.029798 
L 427.202455 52.029981 
L 430.739616 52.030146 
L 432.314194 52.030214 
" style="fill:none;stroke:#000000;stroke-linecap:square;stroke-width:1.5;"/>
   </g>
   <g id="line2d_7">
    <path clip-path="url(#pd7bb08540c)" d="M 78.598076 24.491056 
L 80.560659 34.459336 
L 84.097821 47.961024 
L 87.634982 57.080636 
L 91.172143 63.038067 
L 94.709304 66.729793 
L 98.246465 68.813101 
L 101.783627 69.768545 
L 105.320788 69.946214 
L 108.857949 69.600014 
L 112.39511 68.913053 
L 115.932271 68.016416 
L 119.469432 67.003059 
L 123.006594 65.938071 
L 126.543755 64.866245 
L 130.080916 63.817664 
L 133.618077 62.811808 
L 137.155238 61.860574 
L 140.6924 60.970488 
L 144.229561 60.14432 
L 147.766722 59.38226 
L 151.303883 58.682773 
L 154.841044 58.04321 
L 158.378205 57.460247 
L 161.915367 56.930198 
L 165.452528 56.449227 
L 168.989689 56.013501 
L 172.52685 55.619288 
L 176.064011 55.263017 
L 179.601173 54.94132 
L 183.138334 54.651054 
L 186.675495 54.389302 
L 190.212656 54.153379 
L 193.749817 53.94082 
L 197.286978 53.749375 
L 200.82414 53.576993 
L 204.361301 53.421811 
L 207.898462 53.282138 
L 211.435623 53.156444 
L 214.972784 53.043343 
L 218.509946 52.941584 
L 222.047107 52.850037 
L 225.584268 52.767684 
L 229.121429 52.693605 
L 232.65859 52.626973 
L 236.195751 52.56704 
L 239.732913 52.513136 
L 243.270074 52.464655 
L 246.807235 52.421052 
L 250.344396 52.381838 
L 253.881557 52.34657 
L 257.418719 52.314853 
L 260.95588 52.286329 
L 264.493041 52.260678 
L 268.030202 52.237609 
L 271.567363 52.216862 
L 275.104524 52.198205 
L 278.641686 52.181427 
L 282.178847 52.166339 
L 285.716008 52.15277 
L 289.253169 52.140568 
L 292.79033 52.129594 
L 296.327491 52.119726 
L 299.864653 52.110851 
L 303.401814 52.102871 
L 306.938975 52.095694 
L 310.476136 52.08924 
L 314.013297 52.083436 
L 317.550459 52.078217 
L 321.08762 52.073523 
L 324.624781 52.069302 
L 328.161942 52.065506 
L 331.699103 52.062093 
L 335.236264 52.059023 
L 338.773426 52.056262 
L 342.310587 52.05378 
L 345.847748 52.051547 
L 349.384909 52.04954 
L 352.92207 52.047734 
L 356.459232 52.046111 
L 359.996393 52.044651 
L 363.533554 52.043338 
L 367.070715 52.042157 
L 370.607876 52.041095 
L 374.145037 52.04014 
L 377.682199 52.039282 
L 381.21936 52.03851 
L 384.756521 52.037815 
L 388.293682 52.037191 
L 391.830843 52.036629 
L 395.368005 52.036124 
L 398.905166 52.03567 
L 402.442327 52.035261 
L 405.979488 52.034894 
L 409.516649 52.034564 
L 413.05381 52.034267 
L 416.590972 52.034 
L 420.128133 52.03376 
L 423.665294 52.033544 
L 427.202455 52.033349 
L 430.739616 52.033175 
L 432.314194 52.033103 
" style="fill:none;stroke:#000000;stroke-dasharray:5.55,2.4;stroke-dashoffset:0;stroke-width:1.5;"/>
   </g>
   <g id="line2d_8">
    <path clip-path="url(#pd7bb08540c)" d="M 78.598076 250.396439 
L 80.560659 214.049174 
L 84.097821 162.78456 
L 87.634982 125.685673 
L 91.172143 99.006679 
L 94.709304 79.976431 
L 98.246465 66.546399 
L 101.783627 57.20364 
L 105.320788 50.832033 
L 108.857949 46.609346 
L 112.39511 43.930884 
L 115.932271 42.352871 
L 119.469432 41.550484 
L 123.006594 41.28674 
L 126.543755 41.389446 
L 130.080916 41.734139 
L 133.618077 42.231442 
L 137.155238 42.817727 
L 140.6924 43.448208 
L 144.229561 44.091836 
L 147.766722 44.727541 
L 151.303883 45.341463 
L 154.841044 45.924913 
L 158.378205 46.472881 
L 161.915367 46.982943 
L 165.452528 47.454464 
L 168.989689 47.88802 
L 172.52685 48.284981 
L 176.064011 48.647211 
L 179.601173 48.976855 
L 183.138334 49.276191 
L 186.675495 49.547526 
L 190.212656 49.793127 
L 193.749817 50.015176 
L 197.286978 50.215739 
L 200.82414 50.396753 
L 204.361301 50.560021 
L 207.898462 50.707203 
L 211.435623 50.839829 
L 214.972784 50.959294 
L 218.509946 51.066874 
L 222.047107 51.163728 
L 225.584268 51.250908 
L 229.121429 51.329368 
L 232.65859 51.399969 
L 236.195751 51.463493 
L 239.732913 51.520643 
L 243.270074 51.572056 
L 246.807235 51.618304 
L 250.344396 51.659903 
L 253.881557 51.697321 
L 257.418719 51.730975 
L 260.95588 51.761243 
L 264.493041 51.788466 
L 268.030202 51.81295 
L 271.567363 51.834969 
L 275.104524 51.854772 
L 278.641686 51.872581 
L 282.178847 51.888597 
L 285.716008 51.903 
L 289.253169 51.915953 
L 292.79033 51.927602 
L 296.327491 51.938077 
L 299.864653 51.947498 
L 303.401814 51.95597 
L 306.938975 51.963589 
L 310.476136 51.97044 
L 314.013297 51.976601 
L 317.550459 51.982142 
L 321.08762 51.987125 
L 324.624781 51.991606 
L 328.161942 51.995636 
L 331.699103 51.99926 
L 335.236264 52.002518 
L 338.773426 52.005449 
L 342.310587 52.008084 
L 345.847748 52.010454 
L 349.384909 52.012586 
L 352.92207 52.014502 
L 356.459232 52.016226 
L 359.996393 52.017776 
L 363.533554 52.01917 
L 367.070715 52.020423 
L 370.607876 52.02155 
L 374.145037 52.022564 
L 377.682199 52.023476 
L 381.21936 52.024295 
L 384.756521 52.025033 
L 388.293682 52.025696 
L 391.830843 52.026292 
L 395.368005 52.026828 
L 398.905166 52.02731 
L 402.442327 52.027744 
L 405.979488 52.028134 
L 409.516649 52.028484 
L 413.05381 52.0288 
L 416.590972 52.029083 
L 420.128133 52.029338 
L 423.665294 52.029567 
L 427.202455 52.029774 
L 430.739616 52.029959 
L 432.314194 52.030036 
" style="fill:none;stroke:#000000;stroke-dasharray:1.5,2.475;stroke-dashoffset:0;stroke-width:1.5;"/>
   </g>
   <g id="patch_3">
    <path d="M 60.91227 261.805794 
L 60.91227 10.8 
" style="fill:none;stroke:#000000;stroke-linecap:square;stroke-linejoin:miter;stroke-width:0.8;"/>
   </g>
   <g id="patch_4">
    <path d="M 450 261.805794 
L 450 10.8 
" style="fill:none;stroke:#000000;stroke-linecap:square;stroke-linejoin:miter;stroke-width:0.8;"/>
   </g>
   <g id="patch_5">
    <path d="M 60.91227 261.805794 
L 450 261.805794 
" style="fill:none;stroke:#000000;stroke-linecap:square;stroke-linejoin:miter;stroke-width:0.8;"/>
   </g>
   <g id="patch_6">
    <path d="M 60.91227 10.8 
L 450 10.8 
" style="fill:none;stroke:#000000;stroke-linecap:square;stroke-linejoin:miter;stroke-width:0.8;"/>
   </g>
   <g id="legend_1">
    <g id="patch_7">
     <path d="M 282.903981 244.305794 
L 425.5 244.305794 
Q 432.5 244.305794 432.5 237.305794 
L 432.5 94.45874 
Q 432.5 87.45874 425.5 87.45874 
L 282.903981 87.45874 
Q 275.903981 87.45874 275.903981 94.45874 
L 275.903981 237.305794 
Q 275.903981 244.305794 282.903981 244.305794 
z
" style="fill:#ffffff;opacity:0.8;stroke:#cccccc;stroke-linejoin:miter;"/>
    </g>
    <g id="line2d_9">
     <path d="M 289.903981 113.70874 
L 359.903981 113.70874 
" style="fill:none;stroke:#000000;stroke-linecap:square;stroke-width:1.5;"/>
    </g>
    <g id="line2d_10"/>
    <g id="text_7">
     <!-- $x_1$ -->
     <defs>
      <path d="M 47.40625 41 
C 44.203125 40.390625 43 37.984375 43 36.09375 
C 43 33.6875 44.90625 32.890625 46.296875 32.890625 
C 49.296875 32.890625 51.40625 35.484375 51.40625 38.1875 
C 51.40625 42.09375 46.59375 44 42.40625 44 
C 36.296875 44 32.90625 38.296875 32 36.390625 
C 29.703125 43.59375 23.5 44 21.703125 44 
C 11.5 44 6.09375 31.140625 6.09375 28.890625 
C 6.09375 28.484375 6.5 27.96875 7.203125 27.96875 
C 8 27.96875 8.203125 28.578125 8.40625 28.984375 
C 11.796875 40.1875 18.5 41.984375 21.40625 41.984375 
C 25.90625 41.984375 26.796875 38.09375 26.796875 35.6875 
C 26.796875 33.484375 26.203125 31.140625 25 26.21875 
L 21.59375 12.15625 
C 20.09375 6.09375 17.203125 1 11.90625 1 
C 11.40625 1 8.90625 1 6.796875 1.96875 
C 10.40625 2.59375 11.203125 5.59375 11.203125 6.796875 
C 11.203125 8.796875 9.703125 10 7.796875 10 
C 5.40625 10 2.796875 7.890625 2.796875 4.6875 
C 2.796875 0.890625 7.5 -1 11.796875 -1 
C 16.59375 -1 20 2.390625 22.09375 6.484375 
C 23.703125 1 28.703125 -1 32.40625 -1 
C 42.59375 -1 48 11.734375 48 14 
C 48 14.515625 47.59375 14.921875 47 14.921875 
C 46.09375 14.921875 46 14.40625 45.703125 13.59375 
C 43 4.6875 37.203125 1 32.703125 1 
C 29.203125 1 27.296875 3.1875 27.296875 7.296875 
C 27.296875 9.484375 27.703125 11.125 29.296875 17.90625 
L 32.796875 31.859375 
C 34.296875 37.890625 37.703125 41.984375 42.296875 41.984375 
C 42.5 41.984375 45.296875 41.984375 47.40625 41 
z
" id="CMMI12-120"/>
     </defs>
     <g transform="translate(387.903981 125.95874)scale(0.35 -0.35)">
      <use transform="translate(0 14.943915)scale(0.996264)" xlink:href="#CMMI12-120"/>
      <use transform="translate(55.43406 0)scale(0.697382)" xlink:href="#CMR17-49"/>
     </g>
    </g>
    <g id="line2d_11">
     <path d="M 289.903981 162.491091 
L 359.903981 162.491091 
" style="fill:none;stroke:#000000;stroke-dasharray:5.55,2.4;stroke-dashoffset:0;stroke-width:1.5;"/>
    </g>
    <g id="line2d_12"/>
    <g id="text_8">
     <!-- $x_2$ -->
     <defs>
      <path d="M 41.703125 15.46875 
L 39.90625 15.46875 
C 38.90625 8.390625 38.09375 7.1875 37.703125 6.59375 
C 37.203125 5.796875 30 5.796875 28.59375 5.796875 
L 9.40625 5.796875 
C 13 9.6875 20 16.765625 28.5 24.9375 
C 34.59375 30.71875 41.703125 37.5 41.703125 47.390625 
C 41.703125 59.1875 32.296875 66 21.796875 66 
C 10.796875 66 4.09375 56.296875 4.09375 47.296875 
C 4.09375 43.390625 7 42.890625 8.203125 42.890625 
C 9.203125 42.890625 12.203125 43.484375 12.203125 46.984375 
C 12.203125 50.09375 9.59375 51 8.203125 51 
C 7.59375 51 7 50.890625 6.59375 50.6875 
C 8.5 59.1875 14.296875 63.390625 20.40625 63.390625 
C 29.09375 63.390625 34.796875 56.5 34.796875 47.390625 
C 34.796875 38.703125 29.703125 31.21875 24 24.734375 
L 4.09375 2.296875 
L 4.09375 0 
L 39.296875 0 
z
" id="CMR17-50"/>
     </defs>
     <g transform="translate(387.903981 174.741091)scale(0.35 -0.35)">
      <use transform="translate(0 14.943915)scale(0.996264)" xlink:href="#CMMI12-120"/>
      <use transform="translate(55.43406 0)scale(0.697382)" xlink:href="#CMR17-50"/>
     </g>
    </g>
    <g id="line2d_13">
     <path d="M 289.903981 211.273442 
L 359.903981 211.273442 
" style="fill:none;stroke:#000000;stroke-dasharray:1.5,2.475;stroke-dashoffset:0;stroke-width:1.5;"/>
    </g>
    <g id="line2d_14"/>
    <g id="text_9">
     <!-- $u$ -->
     <defs>
      <path d="M 34.09375 5.78125 
C 35.40625 0.1875 40.203125 -1 42.59375 -1 
C 45.796875 -1 48.203125 1.09375 49.796875 4.484375 
C 51.5 8.078125 52.796875 13.953125 52.796875 14.265625 
C 52.796875 14.75 52.40625 15.15625 51.796875 15.15625 
C 50.90625 15.15625 50.796875 14.65625 50.40625 13.15625 
C 48.59375 6.28125 46.796875 1 42.796875 1 
C 39.796875 1 39.796875 4.28125 39.796875 5.578125 
C 39.796875 7.875 40.09375 8.875 41.09375 13.0625 
C 41.796875 15.75 42.5 18.453125 43.09375 21.234375 
L 47.203125 37.5 
C 47.90625 40 47.90625 40.1875 47.90625 40.484375 
C 47.90625 41.984375 46.703125 43 45.203125 43 
C 42.296875 43 41.59375 40.484375 41 38 
C 40 34.109375 34.59375 12.65625 33.90625 9.171875 
C 33.796875 9.171875 29.90625 1 22.59375 1 
C 17.40625 1 16.40625 5.484375 16.40625 9.171875 
C 16.40625 14.859375 19.203125 22.84375 21.796875 29.53125 
C 23 32.71875 23.5 34.015625 23.5 36.015625 
C 23.5 40.296875 20.40625 44 15.59375 44 
C 6.40625 44 2.703125 29.53125 2.703125 28.71875 
C 2.703125 28.328125 3.09375 27.828125 3.796875 27.828125 
C 4.703125 27.828125 4.796875 28.234375 5.203125 29.625 
C 7.59375 38.203125 11.5 41.984375 15.296875 41.984375 
C 16.296875 41.984375 17.90625 41.890625 17.90625 38.703125 
C 17.90625 36.109375 16.796875 33.21875 15.296875 29.421875 
C 10.90625 17.546875 10.40625 13.765625 10.40625 10.765625 
C 10.40625 0.59375 18.09375 -1 22.203125 -1 
C 28.59375 -1 32.09375 3.390625 34.09375 5.78125 
z
" id="CMMI12-117"/>
     </defs>
     <g transform="translate(387.903981 223.523442)scale(0.35 -0.35)">
      <use transform="scale(0.996264)" xlink:href="#CMMI12-117"/>
     </g>
    </g>
   </g>
  </g>
 </g>
 <defs>
  <clipPath id="pd7bb08540c">
   <rect height="251.005794" width="389.08773" x="60.91227" y="10.8"/>
  </clipPath>
 </defs>
</svg>
