<?xml version="1.0" encoding="utf-8" standalone="no"?>
<!DOCTYPE svg PUBLIC "-//W3C//DTD SVG 1.1//EN"
  "http://www.w3.org/Graphics/SVG/1.1/DTD/svg11.dtd">
<!-- Created with matplotlib (https://matplotlib.org/) -->
<svg height="345.6pt" version="1.1" viewBox="0 0 460.8 345.6" width="460.8pt" xmlns="http://www.w3.org/2000/svg" xmlns:xlink="http://www.w3.org/1999/xlink">
 <defs>
  <style type="text/css">
*{stroke-linecap:butt;stroke-linejoin:round;}
  </style>
 </defs>
 <g id="figure_1">
  <g id="patch_1">
   <path d="M 0 345.6 
L 460.8 345.6 
L 460.8 0 
L 0 0 
z
" style="fill:#ffffff;"/>
  </g>
  <g id="axes_1">
   <g id="patch_2">
    <path d="M 60.91227 256.12 
L 447.48 256.12 
L 447.48 13.32 
L 60.91227 13.32 
z
" style="fill:#ffffff;"/>
   </g>
   <g id="matplotlib.axis_1">
    <g id="xtick_1">
     <g id="line2d_1">
      <defs>
       <path d="M 0 0 
L 0 3.5 
" id="m2e55241ccd" style="stroke:#000000;stroke-width:0.8;"/>
      </defs>
      <g>
       <use style="stroke:#000000;stroke-width:0.8;" x="78.48353" xlink:href="#m2e55241ccd" y="256.12"/>
      </g>
     </g>
     <g id="text_1">
      <!-- $0$ -->
      <defs>
       <path d="M 42 31.84375 
C 42 37.96875 41.90625 48.421875 37.703125 56.453125 
C 34 63.484375 28.09375 66 22.90625 66 
C 18.09375 66 12 63.78125 8.203125 56.5625 
C 4.203125 49.015625 3.796875 39.671875 3.796875 31.84375 
C 3.796875 26.109375 3.90625 17.375 7 9.734375 
C 11.296875 -0.609375 19 -2 22.90625 -2 
C 27.5 -2 34.5 -0.109375 38.59375 9.4375 
C 41.59375 16.375 42 24.5 42 31.84375 
z
M 22.90625 -0.40625 
C 16.5 -0.40625 12.703125 5.125 11.296875 12.75 
C 10.203125 18.6875 10.203125 27.328125 10.203125 32.953125 
C 10.203125 40.6875 10.203125 47.109375 11.5 53.234375 
C 13.40625 61.78125 19 64.390625 22.90625 64.390625 
C 27 64.390625 32.296875 61.671875 34.203125 53.4375 
C 35.5 47.71875 35.59375 40.984375 35.59375 32.953125 
C 35.59375 26.421875 35.59375 18.375 34.40625 12.453125 
C 32.296875 1.5 26.40625 -0.40625 22.90625 -0.40625 
z
" id="CMR17-48"/>
      </defs>
      <g transform="translate(70.487697 287.334752)scale(0.35 -0.35)">
       <use transform="scale(0.996264)" xlink:href="#CMR17-48"/>
      </g>
     </g>
    </g>
    <g id="xtick_2">
     <g id="line2d_2">
      <g>
       <use style="stroke:#000000;stroke-width:0.8;" x="254.196135" xlink:href="#m2e55241ccd" y="256.12"/>
      </g>
     </g>
     <g id="text_2">
      <!-- $5$ -->
      <defs>
       <path d="M 11.40625 58.59375 
C 12.40625 58.1875 16.5 56.890625 20.703125 56.890625 
C 30 56.890625 35.09375 61.890625 38 64.6875 
C 38 65.484375 38 66 37.40625 66 
C 37.296875 66 37.09375 66 36.296875 65.59375 
C 32.796875 64.09375 28.703125 63 23.703125 63 
C 20.703125 63 16.203125 63.359375 11.296875 65.484375 
C 10.203125 66 10 66 9.90625 66 
C 9.40625 66 9.296875 65.890625 9.296875 63.90625 
L 9.296875 34.859375 
C 9.296875 33.015625 9.296875 32.5 10.296875 32.5 
C 10.796875 32.5 11 32.703125 11.5 33.421875 
C 14.703125 38.046875 19.09375 40 24.09375 40 
C 27.59375 40 35.09375 37.734375 35.09375 20.203125 
C 35.09375 16.984375 35.09375 11.1875 32.09375 6.59375 
C 29.59375 2.484375 25.703125 0.390625 21.40625 0.390625 
C 14.796875 0.390625 8.09375 4.984375 6.296875 12.6875 
C 6.703125 12.59375 7.5 12.390625 7.90625 12.390625 
C 9.203125 12.390625 11.703125 13.09375 11.703125 16.1875 
C 11.703125 18.890625 9.796875 20 7.90625 20 
C 5.59375 20 4.09375 18.59375 4.09375 15.796875 
C 4.09375 7.09375 11 -2 21.59375 -2 
C 31.90625 -2 41.703125 6.890625 41.703125 19.796875 
C 41.703125 32.09375 33.90625 41.59375 24.203125 41.59375 
C 19.09375 41.59375 14.796875 39.6875 11.40625 36 
z
" id="CMR17-53"/>
      </defs>
      <g transform="translate(246.200302 287.334752)scale(0.35 -0.35)">
       <use transform="scale(0.996264)" xlink:href="#CMR17-53"/>
      </g>
     </g>
    </g>
    <g id="xtick_3">
     <g id="line2d_3">
      <g>
       <use style="stroke:#000000;stroke-width:0.8;" x="429.90874" xlink:href="#m2e55241ccd" y="256.12"/>
      </g>
     </g>
     <g id="text_3">
      <!-- $10$ -->
      <defs>
       <path d="M 26.59375 63.796875 
C 26.59375 65.890625 26.5 66 25.09375 66 
C 21.203125 61.359375 15.296875 59.890625 9.703125 59.6875 
C 9.40625 59.6875 8.90625 59.6875 8.796875 59.5 
C 8.703125 59.296875 8.703125 59.09375 8.703125 57 
C 11.796875 57 17 57.59375 21 59.984375 
L 21 7.296875 
C 21 3.796875 20.796875 2.59375 12.203125 2.59375 
L 9.203125 2.59375 
L 9.203125 0 
C 14 0.09375 19 0.1875 23.796875 0.1875 
C 28.59375 0.1875 33.59375 0.09375 38.40625 0 
L 38.40625 2.59375 
L 35.40625 2.59375 
C 26.796875 2.59375 26.59375 3.6875 26.59375 7.296875 
z
" id="CMR17-49"/>
      </defs>
      <g transform="translate(413.917073 287.334752)scale(0.35 -0.35)">
       <use transform="scale(0.996264)" xlink:href="#CMR17-49"/>
       <use transform="translate(45.690477 0)scale(0.996264)" xlink:href="#CMR17-48"/>
      </g>
     </g>
    </g>
    <g id="text_4">
     <!-- $t$ -->
     <defs>
      <path d="M 20.09375 40.09375 
L 29.296875 40.09375 
C 31.203125 40.09375 32.203125 40.09375 32.203125 41.890625 
C 32.203125 43 31.59375 43 29.59375 43 
L 20.796875 43 
L 24.5 57.25 
C 24.90625 58.625 24.90625 58.8125 24.90625 59.5 
C 24.90625 61.09375 23.59375 62 22.296875 62 
C 21.5 62 19.203125 61.6875 18.40625 58.53125 
L 14.5 43 
L 5.09375 43 
C 3.09375 43 2.203125 43 2.203125 41.09375 
C 2.203125 40.09375 2.90625 40.09375 4.796875 40.09375 
L 13.703125 40.09375 
L 7.09375 13.765625 
C 6.296875 10.265625 6 9.265625 6 7.96875 
C 6 3.28125 9.296875 -1 14.90625 -1 
C 25 -1 30.40625 13.5625 30.40625 14.265625 
C 30.40625 14.859375 30 15.15625 29.40625 15.15625 
C 29.203125 15.15625 28.796875 15.15625 28.59375 14.75 
C 28.5 14.65625 28.40625 14.5625 27.703125 12.96875 
C 25.59375 7.96875 21 1 15.203125 1 
C 12.203125 1 12 3.484375 12 5.6875 
C 12 5.78125 12 7.671875 12.296875 8.875 
z
" id="CMMI12-116"/>
     </defs>
     <g transform="translate(248.031531 322.331855)scale(0.35 -0.35)">
      <use transform="scale(0.996264)" xlink:href="#CMMI12-116"/>
     </g>
    </g>
   </g>
   <g id="matplotlib.axis_2">
    <g id="ytick_1">
     <g id="line2d_4">
      <defs>
       <path d="M 0 0 
L -3.5 0 
" id="m9de4070f85" style="stroke:#000000;stroke-width:0.8;"/>
      </defs>
      <g>
       <use style="stroke:#000000;stroke-width:0.8;" x="60.91227" xlink:href="#m9de4070f85" y="186.404748"/>
      </g>
     </g>
     <g id="text_5">
      <!-- $-5$ -->
      <defs>
       <path d="M 65.90625 23 
C 67.59375 23 69.40625 23 69.40625 25 
C 69.40625 27 67.59375 27 65.90625 27 
L 11.796875 27 
C 10.09375 27 8.296875 27 8.296875 25 
C 8.296875 23 10.09375 23 11.796875 23 
z
" id="CMSY10-0"/>
      </defs>
      <g transform="translate(10.8 198.512124)scale(0.35 -0.35)">
       <use transform="scale(0.996264)" xlink:href="#CMSY10-0"/>
       <use transform="translate(77.487468 0)scale(0.996264)" xlink:href="#CMR17-53"/>
      </g>
     </g>
    </g>
    <g id="ytick_2">
     <g id="line2d_5">
      <g>
       <use style="stroke:#000000;stroke-width:0.8;" x="60.91227" xlink:href="#m9de4070f85" y="53.203685"/>
      </g>
     </g>
     <g id="text_6">
      <!-- $0$ -->
      <g transform="translate(37.920603 65.311061)scale(0.35 -0.35)">
       <use transform="scale(0.996264)" xlink:href="#CMR17-48"/>
      </g>
     </g>
    </g>
   </g>
   <g id="line2d_6">
    <path clip-path="url(#p1d43940d06)" d="M 78.48353 26.563473 
L 80.433403 25.361867 
L 83.947655 24.356364 
L 87.461907 24.433546 
L 90.976159 25.231548 
L 94.490411 26.490079 
L 98.004663 28.023413 
L 101.518915 29.700429 
L 105.033168 31.429856 
L 108.54742 33.149403 
L 112.061672 34.817737 
L 115.575924 36.408595 
L 119.090176 37.90645 
L 122.604428 39.303353 
L 126.11868 40.596612 
L 129.632932 41.787123 
L 133.147184 42.878147 
L 136.661436 43.874444 
L 140.175688 44.78165 
L 143.689941 45.605837 
L 147.204193 46.353216 
L 150.718445 47.029924 
L 154.232697 47.641893 
L 157.746949 48.194763 
L 161.261201 48.693832 
L 164.775453 49.144033 
L 168.289705 49.549929 
L 171.803957 49.915714 
L 175.318209 50.24523 
L 178.832461 50.541981 
L 182.346714 50.809159 
L 185.860966 51.049661 
L 189.375218 51.266114 
L 192.88947 51.460894 
L 196.403722 51.636152 
L 199.917974 51.79383 
L 203.432226 51.935678 
L 206.946478 52.063279 
L 210.46073 52.178057 
L 213.974982 52.281296 
L 217.489234 52.374153 
L 221.003487 52.45767 
L 224.517739 52.532783 
L 228.031991 52.600337 
L 231.546243 52.661093 
L 235.060495 52.715732 
L 238.574747 52.764871 
L 242.088999 52.809063 
L 245.603251 52.848805 
L 249.117503 52.884546 
L 252.631755 52.916687 
L 256.146007 52.945592 
L 259.66026 52.971586 
L 263.174512 52.994962 
L 266.688764 53.015984 
L 270.203016 53.034889 
L 273.717268 53.051889 
L 277.23152 53.067178 
L 280.745772 53.080927 
L 284.260024 53.093291 
L 287.774276 53.10441 
L 291.288528 53.114409 
L 294.80278 53.123401 
L 298.317033 53.131487 
L 301.831285 53.138759 
L 305.345537 53.145298 
L 308.859789 53.151179 
L 312.374041 53.156467 
L 315.888293 53.161223 
L 319.402545 53.1655 
L 322.916797 53.169346 
L 326.431049 53.172805 
L 329.945301 53.175915 
L 333.459553 53.178712 
L 336.973806 53.181227 
L 340.488058 53.183489 
L 344.00231 53.185523 
L 347.516562 53.187353 
L 351.030814 53.188998 
L 354.545066 53.190477 
L 358.059318 53.191807 
L 361.57357 53.193004 
L 365.087822 53.19408 
L 368.602074 53.195047 
L 372.116326 53.195917 
L 375.630579 53.1967 
L 379.144831 53.197403 
L 382.659083 53.198036 
L 386.173335 53.198605 
L 389.687587 53.199117 
L 393.201839 53.199577 
L 396.716091 53.199991 
L 400.230343 53.200363 
L 403.744595 53.200697 
L 407.258847 53.200998 
L 410.773099 53.201269 
L 414.287352 53.201512 
L 417.801604 53.201731 
L 421.315856 53.201928 
L 424.830108 53.202105 
L 428.34436 53.202264 
L 429.90874 53.20233 
" style="fill:none;stroke:#000000;stroke-linecap:square;stroke-width:1.5;"/>
   </g>
   <g id="line2d_7">
    <path clip-path="url(#p1d43940d06)" d="M 78.48353 26.563473 
L 80.433403 36.205873 
L 83.947655 49.266169 
L 87.461907 58.087645 
L 90.976159 63.850319 
L 94.490411 67.421355 
L 98.004663 69.436557 
L 101.518915 70.360766 
L 105.033168 70.532626 
L 108.54742 70.197745 
L 112.061672 69.533241 
L 115.575924 68.665917 
L 119.090176 67.685688 
L 122.604428 66.655517 
L 126.11868 65.618731 
L 129.632932 64.604429 
L 133.147184 63.631456 
L 136.661436 62.71132 
L 140.175688 61.850332 
L 143.689941 61.051173 
L 147.204193 60.314026 
L 150.718445 59.637406 
L 154.232697 59.018752 
L 157.746949 58.454847 
L 161.261201 57.942126 
L 164.775453 57.476878 
L 168.289705 57.055397 
L 171.803957 56.674071 
L 175.318209 56.329447 
L 178.832461 56.018268 
L 182.346714 55.737491 
L 185.860966 55.484296 
L 189.375218 55.256085 
L 192.88947 55.050475 
L 196.403722 54.865289 
L 199.917974 54.698543 
L 203.432226 54.548434 
L 206.946478 54.413327 
L 210.46073 54.291742 
L 213.974982 54.182338 
L 217.489234 54.083906 
L 221.003487 53.995352 
L 224.517739 53.915691 
L 228.031991 53.844034 
L 231.546243 53.77958 
L 235.060495 53.721607 
L 238.574747 53.669465 
L 242.088999 53.622568 
L 245.603251 53.580391 
L 249.117503 53.542459 
L 252.631755 53.508344 
L 256.146007 53.477664 
L 259.66026 53.450073 
L 263.174512 53.42526 
L 266.688764 53.402945 
L 270.203016 53.382877 
L 273.717268 53.36483 
L 277.23152 53.3486 
L 280.745772 53.334005 
L 284.260024 53.32088 
L 287.774276 53.309076 
L 291.288528 53.298461 
L 294.80278 53.288916 
L 298.317033 53.280331 
L 301.831285 53.272612 
L 305.345537 53.26567 
L 308.859789 53.259427 
L 312.374041 53.253812 
L 315.888293 53.248764 
L 319.402545 53.244223 
L 322.916797 53.24014 
L 326.431049 53.236469 
L 329.945301 53.233167 
L 333.459553 53.230197 
L 336.973806 53.227527 
L 340.488058 53.225126 
L 344.00231 53.222966 
L 347.516562 53.221024 
L 351.030814 53.219278 
L 354.545066 53.217707 
L 358.059318 53.216295 
L 361.57357 53.215025 
L 365.087822 53.213883 
L 368.602074 53.212856 
L 372.116326 53.211932 
L 375.630579 53.211102 
L 379.144831 53.210355 
L 382.659083 53.209683 
L 386.173335 53.209079 
L 389.687587 53.208536 
L 393.201839 53.208047 
L 396.716091 53.207608 
L 400.230343 53.207213 
L 403.744595 53.206857 
L 407.258847 53.206538 
L 410.773099 53.206251 
L 414.287352 53.205992 
L 417.801604 53.20576 
L 421.315856 53.205551 
L 424.830108 53.205363 
L 428.34436 53.205194 
L 429.90874 53.205124 
" style="fill:none;stroke:#000000;stroke-dasharray:5.55,2.4;stroke-dashoffset:0;stroke-width:1.5;"/>
   </g>
   <g id="line2d_8">
    <path clip-path="url(#p1d43940d06)" d="M 78.48353 245.083636 
L 80.433403 209.924623 
L 83.947655 160.335934 
L 87.461907 124.44987 
L 90.976159 98.643058 
L 94.490411 80.23494 
L 98.004663 67.243957 
L 101.518915 58.206628 
L 105.033168 52.04332 
L 108.54742 47.95868 
L 112.061672 45.36778 
L 115.575924 43.841356 
L 119.090176 43.0652 
L 122.604428 42.810078 
L 126.11868 42.909427 
L 129.632932 43.242851 
L 133.147184 43.723896 
L 136.661436 44.291015 
L 140.175688 44.900884 
L 143.689941 45.523471 
L 147.204193 46.138394 
L 150.718445 46.732246 
L 154.232697 47.296622 
L 157.746949 47.826676 
L 161.261201 48.320063 
L 164.775453 48.776169 
L 168.289705 49.195552 
L 171.803957 49.579535 
L 175.318209 49.929923 
L 178.832461 50.24879 
L 182.346714 50.538341 
L 185.860966 50.800806 
L 189.375218 51.038378 
L 192.88947 51.253167 
L 196.403722 51.447173 
L 199.917974 51.62227 
L 203.432226 51.7802 
L 206.946478 51.922571 
L 210.46073 52.050861 
L 213.974982 52.166421 
L 217.489234 52.270484 
L 221.003487 52.364171 
L 224.517739 52.448501 
L 228.031991 52.524396 
L 231.546243 52.592689 
L 235.060495 52.654136 
L 238.574747 52.709418 
L 242.088999 52.75915 
L 245.603251 52.803886 
L 249.117503 52.844126 
L 252.631755 52.88032 
L 256.146007 52.912874 
L 259.66026 52.942153 
L 263.174512 52.968486 
L 266.688764 52.992169 
L 270.203016 53.013468 
L 273.717268 53.032623 
L 277.23152 53.04985 
L 280.745772 53.065343 
L 284.260024 53.079275 
L 287.774276 53.091805 
L 291.288528 53.103072 
L 294.80278 53.113206 
L 298.317033 53.122318 
L 301.831285 53.130513 
L 305.345537 53.137883 
L 308.859789 53.14451 
L 312.374041 53.15047 
L 315.888293 53.15583 
L 319.402545 53.16065 
L 322.916797 53.164984 
L 326.431049 53.168882 
L 329.945301 53.172388 
L 333.459553 53.17554 
L 336.973806 53.178375 
L 340.488058 53.180924 
L 344.00231 53.183217 
L 347.516562 53.185278 
L 351.030814 53.187132 
L 354.545066 53.188799 
L 358.059318 53.190299 
L 361.57357 53.191647 
L 365.087822 53.192859 
L 368.602074 53.19395 
L 372.116326 53.19493 
L 375.630579 53.195812 
L 379.144831 53.196605 
L 382.659083 53.197318 
L 386.173335 53.19796 
L 389.687587 53.198536 
L 393.201839 53.199055 
L 396.716091 53.199521 
L 400.230343 53.199941 
L 403.744595 53.200318 
L 407.258847 53.200657 
L 410.773099 53.200962 
L 414.287352 53.201236 
L 417.801604 53.201483 
L 421.315856 53.201705 
L 424.830108 53.201904 
L 428.34436 53.202084 
L 429.90874 53.202158 
" style="fill:none;stroke:#000000;stroke-dasharray:1.5,2.475;stroke-dashoffset:0;stroke-width:1.5;"/>
   </g>
   <g id="patch_3">
    <path d="M 60.91227 256.12 
L 60.91227 13.32 
" style="fill:none;stroke:#000000;stroke-linecap:square;stroke-linejoin:miter;stroke-width:0.8;"/>
   </g>
   <g id="patch_4">
    <path d="M 447.48 256.12 
L 447.48 13.32 
" style="fill:none;stroke:#000000;stroke-linecap:square;stroke-linejoin:miter;stroke-width:0.8;"/>
   </g>
   <g id="patch_5">
    <path d="M 60.91227 256.12 
L 447.48 256.12 
" style="fill:none;stroke:#000000;stroke-linecap:square;stroke-linejoin:miter;stroke-width:0.8;"/>
   </g>
   <g id="patch_6">
    <path d="M 60.91227 13.32 
L 447.48 13.32 
" style="fill:none;stroke:#000000;stroke-linecap:square;stroke-linejoin:miter;stroke-width:0.8;"/>
   </g>
   <g id="legend_1">
    <g id="patch_7">
     <path d="M 280.383981 238.62 
L 422.98 238.62 
Q 429.98 238.62 429.98 231.62 
L 429.98 88.772946 
Q 429.98 81.772946 422.98 81.772946 
L 280.383981 81.772946 
Q 273.383981 81.772946 273.383981 88.772946 
L 273.383981 231.62 
Q 273.383981 238.62 280.383981 238.62 
z
" style="fill:#ffffff;opacity:0.8;stroke:#cccccc;stroke-linejoin:miter;"/>
    </g>
    <g id="line2d_9">
     <path d="M 287.383981 108.022946 
L 357.383981 108.022946 
" style="fill:none;stroke:#000000;stroke-linecap:square;stroke-width:1.5;"/>
    </g>
    <g id="line2d_10"/>
    <g id="text_7">
     <!-- $x_1$ -->
     <defs>
      <path d="M 47.40625 41 
C 44.203125 40.390625 43 37.984375 43 36.09375 
C 43 33.6875 44.90625 32.890625 46.296875 32.890625 
C 49.296875 32.890625 51.40625 35.484375 51.40625 38.1875 
C 51.40625 42.09375 46.59375 44 42.40625 44 
C 36.296875 44 32.90625 38.296875 32 36.390625 
C 29.703125 43.59375 23.5 44 21.703125 44 
C 11.5 44 6.09375 31.140625 6.09375 28.890625 
C 6.09375 28.484375 6.5 27.96875 7.203125 27.96875 
C 8 27.96875 8.203125 28.578125 8.40625 28.984375 
C 11.796875 40.1875 18.5 41.984375 21.40625 41.984375 
C 25.90625 41.984375 26.796875 38.09375 26.796875 35.6875 
C 26.796875 33.484375 26.203125 31.140625 25 26.21875 
L 21.59375 12.15625 
C 20.09375 6.09375 17.203125 1 11.90625 1 
C 11.40625 1 8.90625 1 6.796875 1.96875 
C 10.40625 2.59375 11.203125 5.59375 11.203125 6.796875 
C 11.203125 8.796875 9.703125 10 7.796875 10 
C 5.40625 10 2.796875 7.890625 2.796875 4.6875 
C 2.796875 0.890625 7.5 -1 11.796875 -1 
C 16.59375 -1 20 2.390625 22.09375 6.484375 
C 23.703125 1 28.703125 -1 32.40625 -1 
C 42.59375 -1 48 11.734375 48 14 
C 48 14.515625 47.59375 14.921875 47 14.921875 
C 46.09375 14.921875 46 14.40625 45.703125 13.59375 
C 43 4.6875 37.203125 1 32.703125 1 
C 29.203125 1 27.296875 3.1875 27.296875 7.296875 
C 27.296875 9.484375 27.703125 11.125 29.296875 17.90625 
L 32.796875 31.859375 
C 34.296875 37.890625 37.703125 41.984375 42.296875 41.984375 
C 42.5 41.984375 45.296875 41.984375 47.40625 41 
z
" id="CMMI12-120"/>
     </defs>
     <g transform="translate(385.383981 120.272946)scale(0.35 -0.35)">
      <use transform="translate(0 14.943915)scale(0.996264)" xlink:href="#CMMI12-120"/>
      <use transform="translate(55.43406 0)scale(0.697382)" xlink:href="#CMR17-49"/>
     </g>
    </g>
    <g id="line2d_11">
     <path d="M 287.383981 156.805298 
L 357.383981 156.805298 
" style="fill:none;stroke:#000000;stroke-dasharray:5.55,2.4;stroke-dashoffset:0;stroke-width:1.5;"/>
    </g>
    <g id="line2d_12"/>
    <g id="text_8">
     <!-- $x_2$ -->
     <defs>
      <path d="M 41.703125 15.46875 
L 39.90625 15.46875 
C 38.90625 8.390625 38.09375 7.1875 37.703125 6.59375 
C 37.203125 5.796875 30 5.796875 28.59375 5.796875 
L 9.40625 5.796875 
C 13 9.6875 20 16.765625 28.5 24.9375 
C 34.59375 30.71875 41.703125 37.5 41.703125 47.390625 
C 41.703125 59.1875 32.296875 66 21.796875 66 
C 10.796875 66 4.09375 56.296875 4.09375 47.296875 
C 4.09375 43.390625 7 42.890625 8.203125 42.890625 
C 9.203125 42.890625 12.203125 43.484375 12.203125 46.984375 
C 12.203125 50.09375 9.59375 51 8.203125 51 
C 7.59375 51 7 50.890625 6.59375 50.6875 
C 8.5 59.1875 14.296875 63.390625 20.40625 63.390625 
C 29.09375 63.390625 34.796875 56.5 34.796875 47.390625 
C 34.796875 38.703125 29.703125 31.21875 24 24.734375 
L 4.09375 2.296875 
L 4.09375 0 
L 39.296875 0 
z
" id="CMR17-50"/>
     </defs>
     <g transform="translate(385.383981 169.055298)scale(0.35 -0.35)">
      <use transform="translate(0 14.943915)scale(0.996264)" xlink:href="#CMMI12-120"/>
      <use transform="translate(55.43406 0)scale(0.697382)" xlink:href="#CMR17-50"/>
     </g>
    </g>
    <g id="line2d_13">
     <path d="M 287.383981 205.587649 
L 357.383981 205.587649 
" style="fill:none;stroke:#000000;stroke-dasharray:1.5,2.475;stroke-dashoffset:0;stroke-width:1.5;"/>
    </g>
    <g id="line2d_14"/>
    <g id="text_9">
     <!-- $u$ -->
     <defs>
      <path d="M 34.09375 5.78125 
C 35.40625 0.1875 40.203125 -1 42.59375 -1 
C 45.796875 -1 48.203125 1.09375 49.796875 4.484375 
C 51.5 8.078125 52.796875 13.953125 52.796875 14.265625 
C 52.796875 14.75 52.40625 15.15625 51.796875 15.15625 
C 50.90625 15.15625 50.796875 14.65625 50.40625 13.15625 
C 48.59375 6.28125 46.796875 1 42.796875 1 
C 39.796875 1 39.796875 4.28125 39.796875 5.578125 
C 39.796875 7.875 40.09375 8.875 41.09375 13.0625 
C 41.796875 15.75 42.5 18.453125 43.09375 21.234375 
L 47.203125 37.5 
C 47.90625 40 47.90625 40.1875 47.90625 40.484375 
C 47.90625 41.984375 46.703125 43 45.203125 43 
C 42.296875 43 41.59375 40.484375 41 38 
C 40 34.109375 34.59375 12.65625 33.90625 9.171875 
C 33.796875 9.171875 29.90625 1 22.59375 1 
C 17.40625 1 16.40625 5.484375 16.40625 9.171875 
C 16.40625 14.859375 19.203125 22.84375 21.796875 29.53125 
C 23 32.71875 23.5 34.015625 23.5 36.015625 
C 23.5 40.296875 20.40625 44 15.59375 44 
C 6.40625 44 2.703125 29.53125 2.703125 28.71875 
C 2.703125 28.328125 3.09375 27.828125 3.796875 27.828125 
C 4.703125 27.828125 4.796875 28.234375 5.203125 29.625 
C 7.59375 38.203125 11.5 41.984375 15.296875 41.984375 
C 16.296875 41.984375 17.90625 41.890625 17.90625 38.703125 
C 17.90625 36.109375 16.796875 33.21875 15.296875 29.421875 
C 10.90625 17.546875 10.40625 13.765625 10.40625 10.765625 
C 10.40625 0.59375 18.09375 -1 22.203125 -1 
C 28.59375 -1 32.09375 3.390625 34.09375 5.78125 
z
" id="CMMI12-117"/>
     </defs>
     <g transform="translate(385.383981 217.837649)scale(0.35 -0.35)">
      <use transform="scale(0.996264)" xlink:href="#CMMI12-117"/>
     </g>
    </g>
   </g>
  </g>
 </g>
 <defs>
  <clipPath id="p1d43940d06">
   <rect height="242.8" width="386.56773" x="60.91227" y="13.32"/>
  </clipPath>
 </defs>
</svg>
