<?xml version="1.0" encoding="utf-8" standalone="no"?>
<!DOCTYPE svg PUBLIC "-//W3C//DTD SVG 1.1//EN"
  "http://www.w3.org/Graphics/SVG/1.1/DTD/svg11.dtd">
<!-- Created with matplotlib (https://matplotlib.org/) -->
<svg height="345.6pt" version="1.1" viewBox="0 0 460.8 345.6" width="460.8pt" xmlns="http://www.w3.org/2000/svg" xmlns:xlink="http://www.w3.org/1999/xlink">
 <defs>
  <style type="text/css">
*{stroke-linecap:butt;stroke-linejoin:round;}
  </style>
 </defs>
 <g id="figure_1">
  <g id="patch_1">
   <path d="M 0 345.6 
L 460.8 345.6 
L 460.8 0 
L 0 0 
z
" style="fill:#ffffff;"/>
  </g>
  <g id="axes_1">
   <g id="patch_2">
    <path d="M 60.91227 256.12 
L 447.48 256.12 
L 447.48 13.32 
L 60.91227 13.32 
z
" style="fill:#ffffff;"/>
   </g>
   <g id="matplotlib.axis_1">
    <g id="xtick_1">
     <g id="line2d_1">
      <defs>
       <path d="M 0 0 
L 0 3.5 
" id="m5a9d004a77" style="stroke:#000000;stroke-width:0.8;"/>
      </defs>
      <g>
       <use style="stroke:#000000;stroke-width:0.8;" x="78.48353" xlink:href="#m5a9d004a77" y="256.12"/>
      </g>
     </g>
     <g id="text_1">
      <!-- $0$ -->
      <defs>
       <path d="M 42 31.84375 
C 42 37.96875 41.90625 48.421875 37.703125 56.453125 
C 34 63.484375 28.09375 66 22.90625 66 
C 18.09375 66 12 63.78125 8.203125 56.5625 
C 4.203125 49.015625 3.796875 39.671875 3.796875 31.84375 
C 3.796875 26.109375 3.90625 17.375 7 9.734375 
C 11.296875 -0.609375 19 -2 22.90625 -2 
C 27.5 -2 34.5 -0.109375 38.59375 9.4375 
C 41.59375 16.375 42 24.5 42 31.84375 
z
M 22.90625 -0.40625 
C 16.5 -0.40625 12.703125 5.125 11.296875 12.75 
C 10.203125 18.6875 10.203125 27.328125 10.203125 32.953125 
C 10.203125 40.6875 10.203125 47.109375 11.5 53.234375 
C 13.40625 61.78125 19 64.390625 22.90625 64.390625 
C 27 64.390625 32.296875 61.671875 34.203125 53.4375 
C 35.5 47.71875 35.59375 40.984375 35.59375 32.953125 
C 35.59375 26.421875 35.59375 18.375 34.40625 12.453125 
C 32.296875 1.5 26.40625 -0.40625 22.90625 -0.40625 
z
" id="CMR17-48"/>
      </defs>
      <g transform="translate(70.487697 287.334752)scale(0.35 -0.35)">
       <use transform="scale(0.996264)" xlink:href="#CMR17-48"/>
      </g>
     </g>
    </g>
    <g id="xtick_2">
     <g id="line2d_2">
      <g>
       <use style="stroke:#000000;stroke-width:0.8;" x="254.196135" xlink:href="#m5a9d004a77" y="256.12"/>
      </g>
     </g>
     <g id="text_2">
      <!-- $5$ -->
      <defs>
       <path d="M 11.40625 58.59375 
C 12.40625 58.1875 16.5 56.890625 20.703125 56.890625 
C 30 56.890625 35.09375 61.890625 38 64.6875 
C 38 65.484375 38 66 37.40625 66 
C 37.296875 66 37.09375 66 36.296875 65.59375 
C 32.796875 64.09375 28.703125 63 23.703125 63 
C 20.703125 63 16.203125 63.359375 11.296875 65.484375 
C 10.203125 66 10 66 9.90625 66 
C 9.40625 66 9.296875 65.890625 9.296875 63.90625 
L 9.296875 34.859375 
C 9.296875 33.015625 9.296875 32.5 10.296875 32.5 
C 10.796875 32.5 11 32.703125 11.5 33.421875 
C 14.703125 38.046875 19.09375 40 24.09375 40 
C 27.59375 40 35.09375 37.734375 35.09375 20.203125 
C 35.09375 16.984375 35.09375 11.1875 32.09375 6.59375 
C 29.59375 2.484375 25.703125 0.390625 21.40625 0.390625 
C 14.796875 0.390625 8.09375 4.984375 6.296875 12.6875 
C 6.703125 12.59375 7.5 12.390625 7.90625 12.390625 
C 9.203125 12.390625 11.703125 13.09375 11.703125 16.1875 
C 11.703125 18.890625 9.796875 20 7.90625 20 
C 5.59375 20 4.09375 18.59375 4.09375 15.796875 
C 4.09375 7.09375 11 -2 21.59375 -2 
C 31.90625 -2 41.703125 6.890625 41.703125 19.796875 
C 41.703125 32.09375 33.90625 41.59375 24.203125 41.59375 
C 19.09375 41.59375 14.796875 39.6875 11.40625 36 
z
" id="CMR17-53"/>
      </defs>
      <g transform="translate(246.200302 287.334752)scale(0.35 -0.35)">
       <use transform="scale(0.996264)" xlink:href="#CMR17-53"/>
      </g>
     </g>
    </g>
    <g id="xtick_3">
     <g id="line2d_3">
      <g>
       <use style="stroke:#000000;stroke-width:0.8;" x="429.90874" xlink:href="#m5a9d004a77" y="256.12"/>
      </g>
     </g>
     <g id="text_3">
      <!-- $10$ -->
      <defs>
       <path d="M 26.59375 63.796875 
C 26.59375 65.890625 26.5 66 25.09375 66 
C 21.203125 61.359375 15.296875 59.890625 9.703125 59.6875 
C 9.40625 59.6875 8.90625 59.6875 8.796875 59.5 
C 8.703125 59.296875 8.703125 59.09375 8.703125 57 
C 11.796875 57 17 57.59375 21 59.984375 
L 21 7.296875 
C 21 3.796875 20.796875 2.59375 12.203125 2.59375 
L 9.203125 2.59375 
L 9.203125 0 
C 14 0.09375 19 0.1875 23.796875 0.1875 
C 28.59375 0.1875 33.59375 0.09375 38.40625 0 
L 38.40625 2.59375 
L 35.40625 2.59375 
C 26.796875 2.59375 26.59375 3.6875 26.59375 7.296875 
z
" id="CMR17-49"/>
      </defs>
      <g transform="translate(413.917073 287.334752)scale(0.35 -0.35)">
       <use transform="scale(0.996264)" xlink:href="#CMR17-49"/>
       <use transform="translate(45.690477 0)scale(0.996264)" xlink:href="#CMR17-48"/>
      </g>
     </g>
    </g>
    <g id="text_4">
     <!-- $t$ -->
     <defs>
      <path d="M 20.09375 40.09375 
L 29.296875 40.09375 
C 31.203125 40.09375 32.203125 40.09375 32.203125 41.890625 
C 32.203125 43 31.59375 43 29.59375 43 
L 20.796875 43 
L 24.5 57.25 
C 24.90625 58.625 24.90625 58.8125 24.90625 59.5 
C 24.90625 61.09375 23.59375 62 22.296875 62 
C 21.5 62 19.203125 61.6875 18.40625 58.53125 
L 14.5 43 
L 5.09375 43 
C 3.09375 43 2.203125 43 2.203125 41.09375 
C 2.203125 40.09375 2.90625 40.09375 4.796875 40.09375 
L 13.703125 40.09375 
L 7.09375 13.765625 
C 6.296875 10.265625 6 9.265625 6 7.96875 
C 6 3.28125 9.296875 -1 14.90625 -1 
C 25 -1 30.40625 13.5625 30.40625 14.265625 
C 30.40625 14.859375 30 15.15625 29.40625 15.15625 
C 29.203125 15.15625 28.796875 15.15625 28.59375 14.75 
C 28.5 14.65625 28.40625 14.5625 27.703125 12.96875 
C 25.59375 7.96875 21 1 15.203125 1 
C 12.203125 1 12 3.484375 12 5.6875 
C 12 5.78125 12 7.671875 12.296875 8.875 
z
" id="CMMI12-116"/>
     </defs>
     <g transform="translate(248.031531 322.331855)scale(0.35 -0.35)">
      <use transform="scale(0.996264)" xlink:href="#CMMI12-116"/>
     </g>
    </g>
   </g>
   <g id="matplotlib.axis_2">
    <g id="ytick_1">
     <g id="line2d_4">
      <defs>
       <path d="M 0 0 
L -3.5 0 
" id="m05d504c8ad" style="stroke:#000000;stroke-width:0.8;"/>
      </defs>
      <g>
       <use style="stroke:#000000;stroke-width:0.8;" x="60.91227" xlink:href="#m05d504c8ad" y="231.053416"/>
      </g>
     </g>
     <g id="text_5">
      <!-- $-1$ -->
      <defs>
       <path d="M 65.90625 23 
C 67.59375 23 69.40625 23 69.40625 25 
C 69.40625 27 67.59375 27 65.90625 27 
L 11.796875 27 
C 10.09375 27 8.296875 27 8.296875 25 
C 8.296875 23 10.09375 23 11.796875 23 
z
" id="CMSY10-0"/>
      </defs>
      <g transform="translate(10.8 243.160792)scale(0.35 -0.35)">
       <use transform="scale(0.996264)" xlink:href="#CMSY10-0"/>
       <use transform="translate(77.487468 0)scale(0.996264)" xlink:href="#CMR17-49"/>
      </g>
     </g>
    </g>
    <g id="ytick_2">
     <g id="line2d_5">
      <g>
       <use style="stroke:#000000;stroke-width:0.8;" x="60.91227" xlink:href="#m05d504c8ad" y="149.512676"/>
      </g>
     </g>
     <g id="text_6">
      <!-- $0$ -->
      <g transform="translate(37.920603 161.620052)scale(0.35 -0.35)">
       <use transform="scale(0.996264)" xlink:href="#CMR17-48"/>
      </g>
     </g>
    </g>
    <g id="ytick_3">
     <g id="line2d_6">
      <g>
       <use style="stroke:#000000;stroke-width:0.8;" x="60.91227" xlink:href="#m05d504c8ad" y="67.971936"/>
      </g>
     </g>
     <g id="text_7">
      <!-- $1$ -->
      <g transform="translate(37.920603 80.079312)scale(0.35 -0.35)">
       <use transform="scale(0.996264)" xlink:href="#CMR17-49"/>
      </g>
     </g>
    </g>
   </g>
   <g id="line2d_7">
    <path clip-path="url(#p3fdd14e547)" d="M 78.48353 67.971936 
L 81.938781 60.407903 
L 85.453033 53.608487 
L 88.967285 47.657367 
L 92.481537 42.502994 
L 95.995789 38.095635 
L 99.510041 34.38737 
L 103.024293 31.332093 
L 106.538546 28.885501 
L 110.052798 27.00508 
L 113.56705 25.650089 
L 117.081302 24.781535 
L 120.595554 24.36215 
L 124.109806 24.356364 
L 127.624058 24.730268 
L 131.13831 25.451586 
L 134.652562 26.489636 
L 138.166814 27.815294 
L 141.681066 29.400953 
L 145.195319 31.220481 
L 148.709571 33.249183 
L 152.223823 35.463755 
L 155.738075 37.842241 
L 159.252327 40.363989 
L 162.766579 43.009609 
L 166.280831 45.760923 
L 169.795083 48.600925 
L 173.309335 51.513737 
L 176.823587 54.48456 
L 180.337839 57.499635 
L 183.852092 60.546196 
L 187.366344 63.612431 
L 190.880596 66.687434 
L 194.394848 69.76117 
L 197.9091 72.824429 
L 201.423352 75.868789 
L 204.937604 78.886576 
L 208.451856 81.870826 
L 211.966108 84.815248 
L 215.48036 87.714187 
L 218.994612 90.56259 
L 222.508864 93.355972 
L 226.023117 96.090382 
L 229.537369 98.762372 
L 233.051621 101.368966 
L 236.565873 103.90763 
L 240.080125 106.376245 
L 243.594377 108.773075 
L 247.108629 111.096747 
L 250.622881 113.346222 
L 254.137133 115.520768 
L 257.651385 117.619943 
L 261.165637 119.64357 
L 264.67989 121.591713 
L 268.194142 123.464661 
L 271.708394 125.262907 
L 275.222646 126.98713 
L 278.736898 128.638176 
L 282.25115 130.217047 
L 285.765402 131.724877 
L 289.279654 133.162925 
L 292.793906 134.532559 
L 296.308158 135.835238 
L 299.82241 137.07251 
L 303.336663 138.245988 
L 306.850915 139.357351 
L 310.365167 140.408326 
L 313.879419 141.400682 
L 317.393671 142.33622 
L 320.907923 143.216766 
L 324.422175 144.044163 
L 327.936427 144.820263 
L 331.450679 145.546922 
L 334.964931 146.225994 
L 338.479183 146.859325 
L 341.993436 147.448746 
L 345.507688 147.996075 
L 349.02194 148.503106 
L 352.536192 148.971606 
L 356.050444 149.403318 
L 359.564696 149.799951 
L 363.078948 150.16318 
L 366.5932 150.494645 
L 370.107452 150.795946 
L 373.621704 151.068646 
L 377.135956 151.314263 
L 380.650209 151.534275 
L 384.164461 151.730116 
L 387.678713 151.903174 
L 391.192965 152.054794 
L 394.707217 152.186276 
L 398.221469 152.298872 
L 401.735721 152.39379 
L 405.249973 152.472193 
L 408.764225 152.535199 
L 412.278477 152.583878 
L 415.792729 152.619259 
L 419.306982 152.642325 
L 422.821234 152.654016 
L 426.335486 152.655231 
L 429.849738 152.646824 
L 429.90874 152.646605 
" style="fill:none;stroke:#000000;stroke-linecap:square;stroke-width:1.5;"/>
   </g>
   <g id="line2d_8">
    <path clip-path="url(#p3fdd14e547)" d="M 78.48353 67.971936 
L 81.938781 77.100676 
L 85.453033 85.847416 
L 88.967285 94.069619 
L 92.481537 101.785396 
L 95.995789 109.012907 
L 99.510041 115.770304 
L 103.024293 122.075672 
L 106.538546 127.946984 
L 110.052798 133.402052 
L 113.56705 138.458489 
L 117.081302 143.133673 
L 120.595554 147.44471 
L 124.109806 151.408405 
L 127.624058 155.04124 
L 131.13831 158.359345 
L 134.652562 161.378483 
L 138.166814 164.114027 
L 141.681066 166.580951 
L 145.195319 168.793813 
L 148.709571 170.766747 
L 152.223823 172.513456 
L 155.738075 174.047202 
L 159.252327 175.380807 
L 162.766579 176.526646 
L 166.280831 177.496648 
L 169.795083 178.302297 
L 173.309335 178.954634 
L 176.823587 179.464256 
L 180.337839 179.841326 
L 183.852092 180.095573 
L 187.366344 180.236301 
L 190.880596 180.272396 
L 194.394848 180.21233 
L 197.9091 180.064172 
L 201.423352 179.835598 
L 204.937604 179.533896 
L 208.451856 179.165978 
L 211.966108 178.738391 
L 215.48036 178.257323 
L 218.994612 177.72862 
L 222.508864 177.157791 
L 226.023117 176.55002 
L 229.537369 175.910179 
L 233.051621 175.242837 
L 236.565873 174.552272 
L 240.080125 173.842482 
L 243.594377 173.117193 
L 247.108629 172.379875 
L 250.622881 171.633748 
L 254.137133 170.881795 
L 257.651385 170.126774 
L 261.165637 169.371222 
L 264.67989 168.617474 
L 268.194142 167.867664 
L 271.708394 167.123742 
L 275.222646 166.387478 
L 278.736898 165.660476 
L 282.25115 164.944179 
L 285.765402 164.239878 
L 289.279654 163.548724 
L 292.793906 162.871733 
L 296.308158 162.209793 
L 299.82241 161.563677 
L 303.336663 160.934044 
L 306.850915 160.32145 
L 310.365167 159.726353 
L 313.879419 159.149121 
L 317.393671 158.590038 
L 320.907923 158.049309 
L 324.422175 157.527067 
L 327.936427 157.023378 
L 331.450679 156.538247 
L 334.964931 156.071621 
L 338.479183 155.623396 
L 341.993436 155.193421 
L 345.507688 154.781501 
L 349.02194 154.387405 
L 352.536192 154.010864 
L 356.050444 153.651578 
L 359.564696 153.309222 
L 363.078948 152.983444 
L 366.5932 152.673871 
L 370.107452 152.380113 
L 373.621704 152.101761 
L 377.135956 151.838396 
L 380.650209 151.589586 
L 384.164461 151.354892 
L 387.678713 151.133866 
L 391.192965 150.926058 
L 394.707217 150.731012 
L 398.221469 150.548273 
L 401.735721 150.377386 
L 405.249973 150.217895 
L 408.764225 150.069349 
L 412.278477 149.931301 
L 415.792729 149.803308 
L 419.306982 149.684932 
L 422.821234 149.575744 
L 426.335486 149.475322 
L 429.849738 149.383249 
L 429.90874 149.381772 
" style="fill:none;stroke:#000000;stroke-dasharray:5.55,2.4;stroke-dashoffset:0;stroke-width:1.5;"/>
   </g>
   <g id="line2d_9">
    <path clip-path="url(#p3fdd14e547)" d="M 78.48353 245.083636 
L 81.938781 239.662887 
L 85.453033 234.327275 
L 88.967285 229.172326 
L 92.481537 224.198841 
L 95.995789 219.407004 
L 99.510041 214.796436 
L 103.024293 210.366238 
L 106.538546 206.115037 
L 110.052798 202.041034 
L 113.56705 198.142038 
L 117.081302 194.415508 
L 120.595554 190.858588 
L 124.109806 187.468144 
L 127.624058 184.240793 
L 131.13831 181.172938 
L 134.652562 178.260791 
L 138.166814 175.500403 
L 141.681066 172.887691 
L 145.195319 170.418459 
L 148.709571 168.088418 
L 152.223823 165.893213 
L 155.738075 163.828434 
L 159.252327 161.88964 
L 162.766579 160.072371 
L 166.280831 158.372166 
L 169.795083 156.784575 
L 173.309335 155.30517 
L 176.823587 153.92956 
L 180.337839 152.6534 
L 183.852092 151.472399 
L 187.366344 150.38233 
L 190.880596 149.379037 
L 194.394848 148.458443 
L 197.9091 147.616554 
L 201.423352 146.849465 
L 204.937604 146.153364 
L 208.451856 145.524539 
L 211.966108 144.959376 
L 215.48036 144.454366 
L 218.994612 144.006105 
L 222.508864 143.611296 
L 226.023117 143.266752 
L 229.537369 142.969394 
L 233.051621 142.716252 
L 236.565873 142.504466 
L 240.080125 142.331286 
L 243.594377 142.19407 
L 247.108629 142.090284 
L 250.622881 142.0175 
L 254.137133 141.973396 
L 257.651385 141.955753 
L 261.165637 141.962455 
L 264.67989 141.991483 
L 268.194142 142.040919 
L 271.708394 142.10894 
L 275.222646 142.193813 
L 278.736898 142.293901 
L 282.25115 142.407652 
L 285.765402 142.5336 
L 289.279654 142.670364 
L 292.793906 142.816642 
L 296.308158 142.97121 
L 299.82241 143.13292 
L 303.336663 143.300696 
L 306.850915 143.473532 
L 310.365167 143.65049 
L 313.879419 143.830696 
L 317.393671 144.013336 
L 320.907923 144.197658 
L 324.422175 144.382966 
L 327.936427 144.568617 
L 331.450679 144.75402 
L 334.964931 144.938634 
L 338.479183 145.121965 
L 341.993436 145.303561 
L 345.507688 145.483016 
L 349.02194 145.659961 
L 352.536192 145.834066 
L 356.050444 146.005036 
L 359.564696 146.17261 
L 363.078948 146.33656 
L 366.5932 146.496685 
L 370.107452 146.652814 
L 373.621704 146.804803 
L 377.135956 146.952529 
L 380.650209 147.095895 
L 384.164461 147.234825 
L 387.678713 147.369261 
L 391.192965 147.499164 
L 394.707217 147.624514 
L 398.221469 147.745302 
L 401.735721 147.861538 
L 405.249973 147.973243 
L 408.764225 148.08045 
L 412.278477 148.183202 
L 415.792729 148.281555 
L 419.306982 148.375571 
L 422.821234 148.465321 
L 426.335486 148.550882 
L 429.849738 148.63234 
L 429.90874 148.633673 
" style="fill:none;stroke:#000000;stroke-dasharray:1.5,2.475;stroke-dashoffset:0;stroke-width:1.5;"/>
   </g>
   <g id="patch_3">
    <path d="M 60.91227 256.12 
L 60.91227 13.32 
" style="fill:none;stroke:#000000;stroke-linecap:square;stroke-linejoin:miter;stroke-width:0.8;"/>
   </g>
   <g id="patch_4">
    <path d="M 447.48 256.12 
L 447.48 13.32 
" style="fill:none;stroke:#000000;stroke-linecap:square;stroke-linejoin:miter;stroke-width:0.8;"/>
   </g>
   <g id="patch_5">
    <path d="M 60.91227 256.12 
L 447.48 256.12 
" style="fill:none;stroke:#000000;stroke-linecap:square;stroke-linejoin:miter;stroke-width:0.8;"/>
   </g>
   <g id="patch_6">
    <path d="M 60.91227 13.32 
L 447.48 13.32 
" style="fill:none;stroke:#000000;stroke-linecap:square;stroke-linejoin:miter;stroke-width:0.8;"/>
   </g>
   <g id="legend_1">
    <g id="patch_7">
     <path d="M 85.41227 238.62 
L 228.008289 238.62 
Q 235.008289 238.62 235.008289 231.62 
L 235.008289 88.772946 
Q 235.008289 81.772946 228.008289 81.772946 
L 85.41227 81.772946 
Q 78.41227 81.772946 78.41227 88.772946 
L 78.41227 231.62 
Q 78.41227 238.62 85.41227 238.62 
z
" style="fill:#ffffff;opacity:0.8;stroke:#cccccc;stroke-linejoin:miter;"/>
    </g>
    <g id="line2d_10">
     <path d="M 92.41227 108.022946 
L 162.41227 108.022946 
" style="fill:none;stroke:#000000;stroke-linecap:square;stroke-width:1.5;"/>
    </g>
    <g id="line2d_11"/>
    <g id="text_8">
     <!-- $x_1$ -->
     <defs>
      <path d="M 47.40625 41 
C 44.203125 40.390625 43 37.984375 43 36.09375 
C 43 33.6875 44.90625 32.890625 46.296875 32.890625 
C 49.296875 32.890625 51.40625 35.484375 51.40625 38.1875 
C 51.40625 42.09375 46.59375 44 42.40625 44 
C 36.296875 44 32.90625 38.296875 32 36.390625 
C 29.703125 43.59375 23.5 44 21.703125 44 
C 11.5 44 6.09375 31.140625 6.09375 28.890625 
C 6.09375 28.484375 6.5 27.96875 7.203125 27.96875 
C 8 27.96875 8.203125 28.578125 8.40625 28.984375 
C 11.796875 40.1875 18.5 41.984375 21.40625 41.984375 
C 25.90625 41.984375 26.796875 38.09375 26.796875 35.6875 
C 26.796875 33.484375 26.203125 31.140625 25 26.21875 
L 21.59375 12.15625 
C 20.09375 6.09375 17.203125 1 11.90625 1 
C 11.40625 1 8.90625 1 6.796875 1.96875 
C 10.40625 2.59375 11.203125 5.59375 11.203125 6.796875 
C 11.203125 8.796875 9.703125 10 7.796875 10 
C 5.40625 10 2.796875 7.890625 2.796875 4.6875 
C 2.796875 0.890625 7.5 -1 11.796875 -1 
C 16.59375 -1 20 2.390625 22.09375 6.484375 
C 23.703125 1 28.703125 -1 32.40625 -1 
C 42.59375 -1 48 11.734375 48 14 
C 48 14.515625 47.59375 14.921875 47 14.921875 
C 46.09375 14.921875 46 14.40625 45.703125 13.59375 
C 43 4.6875 37.203125 1 32.703125 1 
C 29.203125 1 27.296875 3.1875 27.296875 7.296875 
C 27.296875 9.484375 27.703125 11.125 29.296875 17.90625 
L 32.796875 31.859375 
C 34.296875 37.890625 37.703125 41.984375 42.296875 41.984375 
C 42.5 41.984375 45.296875 41.984375 47.40625 41 
z
" id="CMMI12-120"/>
     </defs>
     <g transform="translate(190.41227 120.272946)scale(0.35 -0.35)">
      <use transform="translate(0 14.943915)scale(0.996264)" xlink:href="#CMMI12-120"/>
      <use transform="translate(55.43406 0)scale(0.697382)" xlink:href="#CMR17-49"/>
     </g>
    </g>
    <g id="line2d_12">
     <path d="M 92.41227 156.805298 
L 162.41227 156.805298 
" style="fill:none;stroke:#000000;stroke-dasharray:5.55,2.4;stroke-dashoffset:0;stroke-width:1.5;"/>
    </g>
    <g id="line2d_13"/>
    <g id="text_9">
     <!-- $x_2$ -->
     <defs>
      <path d="M 41.703125 15.46875 
L 39.90625 15.46875 
C 38.90625 8.390625 38.09375 7.1875 37.703125 6.59375 
C 37.203125 5.796875 30 5.796875 28.59375 5.796875 
L 9.40625 5.796875 
C 13 9.6875 20 16.765625 28.5 24.9375 
C 34.59375 30.71875 41.703125 37.5 41.703125 47.390625 
C 41.703125 59.1875 32.296875 66 21.796875 66 
C 10.796875 66 4.09375 56.296875 4.09375 47.296875 
C 4.09375 43.390625 7 42.890625 8.203125 42.890625 
C 9.203125 42.890625 12.203125 43.484375 12.203125 46.984375 
C 12.203125 50.09375 9.59375 51 8.203125 51 
C 7.59375 51 7 50.890625 6.59375 50.6875 
C 8.5 59.1875 14.296875 63.390625 20.40625 63.390625 
C 29.09375 63.390625 34.796875 56.5 34.796875 47.390625 
C 34.796875 38.703125 29.703125 31.21875 24 24.734375 
L 4.09375 2.296875 
L 4.09375 0 
L 39.296875 0 
z
" id="CMR17-50"/>
     </defs>
     <g transform="translate(190.41227 169.055298)scale(0.35 -0.35)">
      <use transform="translate(0 14.943915)scale(0.996264)" xlink:href="#CMMI12-120"/>
      <use transform="translate(55.43406 0)scale(0.697382)" xlink:href="#CMR17-50"/>
     </g>
    </g>
    <g id="line2d_14">
     <path d="M 92.41227 205.587649 
L 162.41227 205.587649 
" style="fill:none;stroke:#000000;stroke-dasharray:1.5,2.475;stroke-dashoffset:0;stroke-width:1.5;"/>
    </g>
    <g id="line2d_15"/>
    <g id="text_10">
     <!-- $u$ -->
     <defs>
      <path d="M 34.09375 5.78125 
C 35.40625 0.1875 40.203125 -1 42.59375 -1 
C 45.796875 -1 48.203125 1.09375 49.796875 4.484375 
C 51.5 8.078125 52.796875 13.953125 52.796875 14.265625 
C 52.796875 14.75 52.40625 15.15625 51.796875 15.15625 
C 50.90625 15.15625 50.796875 14.65625 50.40625 13.15625 
C 48.59375 6.28125 46.796875 1 42.796875 1 
C 39.796875 1 39.796875 4.28125 39.796875 5.578125 
C 39.796875 7.875 40.09375 8.875 41.09375 13.0625 
C 41.796875 15.75 42.5 18.453125 43.09375 21.234375 
L 47.203125 37.5 
C 47.90625 40 47.90625 40.1875 47.90625 40.484375 
C 47.90625 41.984375 46.703125 43 45.203125 43 
C 42.296875 43 41.59375 40.484375 41 38 
C 40 34.109375 34.59375 12.65625 33.90625 9.171875 
C 33.796875 9.171875 29.90625 1 22.59375 1 
C 17.40625 1 16.40625 5.484375 16.40625 9.171875 
C 16.40625 14.859375 19.203125 22.84375 21.796875 29.53125 
C 23 32.71875 23.5 34.015625 23.5 36.015625 
C 23.5 40.296875 20.40625 44 15.59375 44 
C 6.40625 44 2.703125 29.53125 2.703125 28.71875 
C 2.703125 28.328125 3.09375 27.828125 3.796875 27.828125 
C 4.703125 27.828125 4.796875 28.234375 5.203125 29.625 
C 7.59375 38.203125 11.5 41.984375 15.296875 41.984375 
C 16.296875 41.984375 17.90625 41.890625 17.90625 38.703125 
C 17.90625 36.109375 16.796875 33.21875 15.296875 29.421875 
C 10.90625 17.546875 10.40625 13.765625 10.40625 10.765625 
C 10.40625 0.59375 18.09375 -1 22.203125 -1 
C 28.59375 -1 32.09375 3.390625 34.09375 5.78125 
z
" id="CMMI12-117"/>
     </defs>
     <g transform="translate(190.41227 217.837649)scale(0.35 -0.35)">
      <use transform="scale(0.996264)" xlink:href="#CMMI12-117"/>
     </g>
    </g>
   </g>
  </g>
 </g>
 <defs>
  <clipPath id="p3fdd14e547">
   <rect height="242.8" width="386.56773" x="60.91227" y="13.32"/>
  </clipPath>
 </defs>
</svg>
