<?xml version="1.0" encoding="utf-8" standalone="no"?>
<!DOCTYPE svg PUBLIC "-//W3C//DTD SVG 1.1//EN"
  "http://www.w3.org/Graphics/SVG/1.1/DTD/svg11.dtd">
<svg xmlns:xlink="http://www.w3.org/1999/xlink" width="343.711083pt" height="193.337484pt" viewBox="0 0 343.711083 193.337484" xmlns="http://www.w3.org/2000/svg" version="1.1">
 <metadata>
  <rdf:RDF xmlns:dc="http://purl.org/dc/elements/1.1/" xmlns:cc="http://creativecommons.org/ns#" xmlns:rdf="http://www.w3.org/1999/02/22-rdf-syntax-ns#">
   <cc:Work>
    <dc:type rdf:resource="http://purl.org/dc/dcmitype/StillImage"/>
    <dc:date>2026-02-12T22:39:48.910388</dc:date>
    <dc:format>image/svg+xml</dc:format>
    <dc:creator>
     <cc:Agent>
      <dc:title>Matplotlib v3.10.0, https://matplotlib.org/</dc:title>
     </cc:Agent>
    </dc:creator>
   </cc:Work>
  </rdf:RDF>
 </metadata>
 <defs>
  <style type="text/css">*{stroke-linejoin: round; stroke-linecap: butt}</style>
 </defs>
 <g id="figure_1">
  <g id="patch_1">
   <path d="M 0 193.337484 
L 343.711083 193.337484 
L 343.711083 0 
L 0 0 
z
" style="fill: #ffffff"/>
  </g>
  <g id="axes_1">
   <g id="patch_2">
    <path d="M 38.278823 153.826131 
L 332.911083 153.826131 
L 332.911083 10.8 
L 38.278823 10.8 
z
" style="fill: #ffffff"/>
   </g>
   <g id="matplotlib.axis_1">
    <g id="xtick_1">
     <g id="line2d_1">
      <path d="M 51.671198 153.826131 
L 51.671198 10.8 
" clip-path="url(#p49d68ea146)" style="fill: none; stroke: #b0b0b0; stroke-width: 0.8; stroke-linecap: square"/>
     </g>
     <g id="line2d_2">
      <defs>
       <path id="m918dd8a18c" d="M 0 0 
L 0 3.5 
" style="stroke: #000000; stroke-width: 0.8"/>
      </defs>
      <g>
       <use xlink:href="#m918dd8a18c" x="51.671198" y="153.826131" style="stroke: #000000; stroke-width: 0.8"/>
      </g>
     </g>
     <g id="text_1">
      <!-- $\mathdefault{0}$ -->
      <g transform="translate(49.180531 167.744629) scale(0.1 -0.1)">
       <defs>
        <path id="CMR17-30" d="M 2688 2038 
C 2688 2430 2682 3099 2413 3613 
C 2176 4063 1798 4224 1466 4224 
C 1158 4224 768 4082 525 3620 
C 269 3137 243 2539 243 2038 
C 243 1671 250 1112 448 623 
C 723 -39 1216 -128 1466 -128 
C 1760 -128 2208 -7 2470 604 
C 2662 1048 2688 1568 2688 2038 
z
M 1466 -26 
C 1056 -26 813 328 723 816 
C 653 1196 653 1749 653 2109 
C 653 2604 653 3015 736 3407 
C 858 3954 1216 4121 1466 4121 
C 1728 4121 2067 3947 2189 3420 
C 2272 3054 2278 2623 2278 2109 
C 2278 1691 2278 1176 2202 797 
C 2067 96 1690 -26 1466 -26 
z
" transform="scale(0.015625)"/>
       </defs>
       <use xlink:href="#CMR17-30" transform="scale(0.996264)"/>
      </g>
     </g>
    </g>
    <g id="xtick_2">
     <g id="line2d_3">
      <path d="M 105.2407 153.826131 
L 105.2407 10.8 
" clip-path="url(#p49d68ea146)" style="fill: none; stroke: #b0b0b0; stroke-width: 0.8; stroke-linecap: square"/>
     </g>
     <g id="line2d_4">
      <g>
       <use xlink:href="#m918dd8a18c" x="105.2407" y="153.826131" style="stroke: #000000; stroke-width: 0.8"/>
      </g>
     </g>
     <g id="text_2">
      <!-- $\mathdefault{2}$ -->
      <g transform="translate(102.750033 167.744629) scale(0.1 -0.1)">
       <defs>
        <path id="CMR17-32" d="M 2669 990 
L 2554 990 
C 2490 537 2438 460 2413 422 
C 2381 371 1920 371 1830 371 
L 602 371 
C 832 620 1280 1073 1824 1596 
C 2214 1966 2669 2400 2669 3033 
C 2669 3788 2067 4224 1395 4224 
C 691 4224 262 3603 262 3027 
C 262 2777 448 2745 525 2745 
C 589 2745 781 2783 781 3007 
C 781 3206 614 3264 525 3264 
C 486 3264 448 3257 422 3244 
C 544 3788 915 4057 1306 4057 
C 1862 4057 2227 3616 2227 3033 
C 2227 2477 1901 1998 1536 1583 
L 262 147 
L 262 0 
L 2515 0 
L 2669 990 
z
" transform="scale(0.015625)"/>
       </defs>
       <use xlink:href="#CMR17-32" transform="scale(0.996264)"/>
      </g>
     </g>
    </g>
    <g id="xtick_3">
     <g id="line2d_5">
      <path d="M 158.810202 153.826131 
L 158.810202 10.8 
" clip-path="url(#p49d68ea146)" style="fill: none; stroke: #b0b0b0; stroke-width: 0.8; stroke-linecap: square"/>
     </g>
     <g id="line2d_6">
      <g>
       <use xlink:href="#m918dd8a18c" x="158.810202" y="153.826131" style="stroke: #000000; stroke-width: 0.8"/>
      </g>
     </g>
     <g id="text_3">
      <!-- $\mathdefault{4}$ -->
      <g transform="translate(156.319534 167.744629) scale(0.1 -0.1)">
       <defs>
        <path id="CMR17-34" d="M 2150 4147 
C 2150 4281 2144 4288 2029 4288 
L 128 1254 
L 128 1088 
L 1779 1088 
L 1779 460 
C 1779 230 1766 166 1318 166 
L 1197 166 
L 1197 0 
C 1402 12 1747 12 1965 12 
C 2182 12 2528 12 2733 0 
L 2733 166 
L 2611 166 
C 2163 166 2150 230 2150 460 
L 2150 1088 
L 2803 1088 
L 2803 1254 
L 2150 1254 
L 2150 4147 
z
M 1798 3723 
L 1798 1254 
L 256 1254 
L 1798 3723 
z
" transform="scale(0.015625)"/>
       </defs>
       <use xlink:href="#CMR17-34" transform="scale(0.996264)"/>
      </g>
     </g>
    </g>
    <g id="xtick_4">
     <g id="line2d_7">
      <path d="M 212.379704 153.826131 
L 212.379704 10.8 
" clip-path="url(#p49d68ea146)" style="fill: none; stroke: #b0b0b0; stroke-width: 0.8; stroke-linecap: square"/>
     </g>
     <g id="line2d_8">
      <g>
       <use xlink:href="#m918dd8a18c" x="212.379704" y="153.826131" style="stroke: #000000; stroke-width: 0.8"/>
      </g>
     </g>
     <g id="text_4">
      <!-- $\mathdefault{6}$ -->
      <g transform="translate(209.889036 167.744629) scale(0.1 -0.1)">
       <defs>
        <path id="CMR17-36" d="M 678 2198 
C 678 3712 1395 4076 1811 4076 
C 1946 4076 2272 4049 2400 3782 
C 2298 3782 2106 3782 2106 3558 
C 2106 3385 2246 3328 2336 3328 
C 2394 3328 2566 3353 2566 3571 
C 2566 3987 2246 4224 1805 4224 
C 1043 4224 243 3411 243 2011 
C 243 257 966 -128 1478 -128 
C 2099 -128 2688 431 2688 1295 
C 2688 2101 2170 2688 1517 2688 
C 1126 2688 838 2430 678 1979 
L 678 2198 
z
M 1478 25 
C 691 25 691 1212 691 1450 
C 691 1914 909 2585 1504 2585 
C 1613 2585 1926 2585 2138 2140 
C 2253 1889 2253 1624 2253 1302 
C 2253 954 2253 696 2118 438 
C 1978 173 1773 25 1478 25 
z
" transform="scale(0.015625)"/>
       </defs>
       <use xlink:href="#CMR17-36" transform="scale(0.996264)"/>
      </g>
     </g>
    </g>
    <g id="xtick_5">
     <g id="line2d_9">
      <path d="M 265.949206 153.826131 
L 265.949206 10.8 
" clip-path="url(#p49d68ea146)" style="fill: none; stroke: #b0b0b0; stroke-width: 0.8; stroke-linecap: square"/>
     </g>
     <g id="line2d_10">
      <g>
       <use xlink:href="#m918dd8a18c" x="265.949206" y="153.826131" style="stroke: #000000; stroke-width: 0.8"/>
      </g>
     </g>
     <g id="text_5">
      <!-- $\mathdefault{8}$ -->
      <g transform="translate(263.458538 167.744629) scale(0.1 -0.1)">
       <defs>
        <path id="CMR17-38" d="M 1741 2289 
C 2144 2494 2554 2803 2554 3298 
C 2554 3884 1990 4224 1472 4224 
C 890 4224 378 3800 378 3215 
C 378 3054 416 2777 666 2533 
C 730 2469 998 2276 1171 2154 
C 883 2006 211 1652 211 945 
C 211 282 838 -128 1459 -128 
C 2144 -128 2720 366 2720 1022 
C 2720 1607 2330 1877 2074 2051 
L 1741 2289 
z
M 902 2855 
C 851 2887 595 3086 595 3388 
C 595 3781 998 4076 1459 4076 
C 1965 4076 2336 3716 2336 3298 
C 2336 2700 1670 2359 1638 2359 
C 1632 2359 1626 2359 1574 2398 
L 902 2855 
z
M 2080 1536 
C 2176 1466 2483 1253 2483 861 
C 2483 385 2010 25 1472 25 
C 890 25 448 443 448 951 
C 448 1459 838 1884 1280 2083 
L 2080 1536 
z
" transform="scale(0.015625)"/>
       </defs>
       <use xlink:href="#CMR17-38" transform="scale(0.996264)"/>
      </g>
     </g>
    </g>
    <g id="xtick_6">
     <g id="line2d_11">
      <path d="M 319.518708 153.826131 
L 319.518708 10.8 
" clip-path="url(#p49d68ea146)" style="fill: none; stroke: #b0b0b0; stroke-width: 0.8; stroke-linecap: square"/>
     </g>
     <g id="line2d_12">
      <g>
       <use xlink:href="#m918dd8a18c" x="319.518708" y="153.826131" style="stroke: #000000; stroke-width: 0.8"/>
      </g>
     </g>
     <g id="text_6">
      <!-- $\mathdefault{10}$ -->
      <g transform="translate(314.537373 167.744629) scale(0.1 -0.1)">
       <defs>
        <path id="CMR17-31" d="M 1702 4083 
C 1702 4217 1696 4224 1606 4224 
C 1357 3927 979 3833 621 3820 
C 602 3820 570 3820 563 3808 
C 557 3795 557 3782 557 3648 
C 755 3648 1088 3686 1344 3839 
L 1344 467 
C 1344 243 1331 166 781 166 
L 589 166 
L 589 0 
C 896 6 1216 12 1523 12 
C 1830 12 2150 6 2458 0 
L 2458 166 
L 2266 166 
C 1715 166 1702 236 1702 467 
L 1702 4083 
z
" transform="scale(0.015625)"/>
       </defs>
       <use xlink:href="#CMR17-31" transform="scale(0.996264)"/>
       <use xlink:href="#CMR17-30" transform="translate(45.690477 0) scale(0.996264)"/>
      </g>
     </g>
    </g>
    <g id="text_7">
     <!-- $t$ -->
     <g transform="translate(183.796141 180.600306) scale(0.1 -0.1)">
      <defs>
       <path id="CMMI12-74" d="M 1286 2566 
L 1875 2566 
C 1997 2566 2061 2566 2061 2681 
C 2061 2752 2022 2752 1894 2752 
L 1331 2752 
L 1568 3664 
C 1594 3752 1594 3764 1594 3808 
C 1594 3910 1510 3968 1427 3968 
C 1376 3968 1229 3948 1178 3746 
L 928 2752 
L 326 2752 
C 198 2752 141 2752 141 2630 
C 141 2566 186 2566 307 2566 
L 877 2566 
L 454 881 
C 403 657 384 593 384 510 
C 384 210 595 -64 954 -64 
C 1600 -64 1946 868 1946 913 
C 1946 951 1920 970 1882 970 
C 1869 970 1843 970 1830 944 
C 1824 938 1818 932 1773 830 
C 1638 510 1344 64 973 64 
C 781 64 768 223 768 364 
C 768 370 768 491 787 568 
L 1286 2566 
z
" transform="scale(0.015625)"/>
      </defs>
      <use xlink:href="#CMMI12-74" transform="scale(0.996264)"/>
     </g>
    </g>
   </g>
   <g id="matplotlib.axis_2">
    <g id="ytick_1">
     <g id="line2d_13">
      <path d="M 38.278823 139.060165 
L 332.911083 139.060165 
" clip-path="url(#p49d68ea146)" style="fill: none; stroke: #b0b0b0; stroke-width: 0.8; stroke-linecap: square"/>
     </g>
     <g id="line2d_14">
      <defs>
       <path id="me4ec10df9b" d="M 0 0 
L -3.5 0 
" style="stroke: #000000; stroke-width: 0.8"/>
      </defs>
      <g>
       <use xlink:href="#me4ec10df9b" x="38.278823" y="139.060165" style="stroke: #000000; stroke-width: 0.8"/>
      </g>
     </g>
     <g id="text_8">
      <!-- $\mathdefault{−1.0}$ -->
      <g transform="translate(10.8 142.519415) scale(0.1 -0.1)">
       <defs>
        <path id="CMSY10-0" d="M 4218 1472 
C 4326 1472 4442 1472 4442 1600 
C 4442 1728 4326 1728 4218 1728 
L 755 1728 
C 646 1728 531 1728 531 1600 
C 531 1472 646 1472 755 1472 
L 4218 1472 
z
" transform="scale(0.015625)"/>
        <path id="CMMI12-3a" d="M 1178 307 
C 1178 492 1024 620 870 620 
C 685 620 557 467 557 313 
C 557 128 710 0 864 0 
C 1050 0 1178 153 1178 307 
z
" transform="scale(0.015625)"/>
       </defs>
       <use xlink:href="#CMSY10-0" transform="scale(0.996264)"/>
       <use xlink:href="#CMR17-31" transform="translate(77.487468 0) scale(0.996264)"/>
       <use xlink:href="#CMMI12-3a" transform="translate(123.177945 0) scale(0.996264)"/>
       <use xlink:href="#CMR17-30" transform="translate(150.275122 0) scale(0.996264)"/>
      </g>
     </g>
    </g>
    <g id="ytick_2">
     <g id="line2d_15">
      <path d="M 38.278823 115.043574 
L 332.911083 115.043574 
" clip-path="url(#p49d68ea146)" style="fill: none; stroke: #b0b0b0; stroke-width: 0.8; stroke-linecap: square"/>
     </g>
     <g id="line2d_16">
      <g>
       <use xlink:href="#me4ec10df9b" x="38.278823" y="115.043574" style="stroke: #000000; stroke-width: 0.8"/>
      </g>
     </g>
     <g id="text_9">
      <!-- $\mathdefault{−0.5}$ -->
      <g transform="translate(10.8 118.502823) scale(0.1 -0.1)">
       <defs>
        <path id="CMR17-35" d="M 730 3750 
C 794 3724 1056 3641 1325 3641 
C 1920 3641 2246 3961 2432 4140 
C 2432 4191 2432 4224 2394 4224 
C 2387 4224 2374 4224 2323 4198 
C 2099 4102 1837 4032 1517 4032 
C 1325 4032 1037 4055 723 4191 
C 653 4224 640 4224 634 4224 
C 602 4224 595 4217 595 4090 
L 595 2231 
C 595 2113 595 2080 659 2080 
C 691 2080 704 2093 736 2139 
C 941 2435 1222 2560 1542 2560 
C 1766 2560 2246 2415 2246 1293 
C 2246 1087 2246 716 2054 422 
C 1894 159 1645 25 1370 25 
C 947 25 518 319 403 812 
C 429 806 480 793 506 793 
C 589 793 749 838 749 1036 
C 749 1209 627 1280 506 1280 
C 358 1280 262 1190 262 1011 
C 262 454 704 -128 1382 -128 
C 2042 -128 2669 441 2669 1267 
C 2669 2054 2170 2662 1549 2662 
C 1222 2662 947 2540 730 2304 
L 730 3750 
z
" transform="scale(0.015625)"/>
       </defs>
       <use xlink:href="#CMSY10-0" transform="scale(0.996264)"/>
       <use xlink:href="#CMR17-30" transform="translate(77.487468 0) scale(0.996264)"/>
       <use xlink:href="#CMMI12-3a" transform="translate(123.177945 0) scale(0.996264)"/>
       <use xlink:href="#CMR17-35" transform="translate(150.275122 0) scale(0.996264)"/>
      </g>
     </g>
    </g>
    <g id="ytick_3">
     <g id="line2d_17">
      <path d="M 38.278823 91.026983 
L 332.911083 91.026983 
" clip-path="url(#p49d68ea146)" style="fill: none; stroke: #b0b0b0; stroke-width: 0.8; stroke-linecap: square"/>
     </g>
     <g id="line2d_18">
      <g>
       <use xlink:href="#me4ec10df9b" x="38.278823" y="91.026983" style="stroke: #000000; stroke-width: 0.8"/>
      </g>
     </g>
     <g id="text_10">
      <!-- $\mathdefault{0.0}$ -->
      <g transform="translate(18.548744 94.486232) scale(0.1 -0.1)">
       <use xlink:href="#CMR17-30" transform="scale(0.996264)"/>
       <use xlink:href="#CMMI12-3a" transform="translate(45.690477 0) scale(0.996264)"/>
       <use xlink:href="#CMR17-30" transform="translate(72.787654 0) scale(0.996264)"/>
      </g>
     </g>
    </g>
    <g id="ytick_4">
     <g id="line2d_19">
      <path d="M 38.278823 67.010392 
L 332.911083 67.010392 
" clip-path="url(#p49d68ea146)" style="fill: none; stroke: #b0b0b0; stroke-width: 0.8; stroke-linecap: square"/>
     </g>
     <g id="line2d_20">
      <g>
       <use xlink:href="#me4ec10df9b" x="38.278823" y="67.010392" style="stroke: #000000; stroke-width: 0.8"/>
      </g>
     </g>
     <g id="text_11">
      <!-- $\mathdefault{0.5}$ -->
      <g transform="translate(18.548744 70.469641) scale(0.1 -0.1)">
       <use xlink:href="#CMR17-30" transform="scale(0.996264)"/>
       <use xlink:href="#CMMI12-3a" transform="translate(45.690477 0) scale(0.996264)"/>
       <use xlink:href="#CMR17-35" transform="translate(72.787654 0) scale(0.996264)"/>
      </g>
     </g>
    </g>
    <g id="ytick_5">
     <g id="line2d_21">
      <path d="M 38.278823 42.993801 
L 332.911083 42.993801 
" clip-path="url(#p49d68ea146)" style="fill: none; stroke: #b0b0b0; stroke-width: 0.8; stroke-linecap: square"/>
     </g>
     <g id="line2d_22">
      <g>
       <use xlink:href="#me4ec10df9b" x="38.278823" y="42.993801" style="stroke: #000000; stroke-width: 0.8"/>
      </g>
     </g>
     <g id="text_12">
      <!-- $\mathdefault{1.0}$ -->
      <g transform="translate(18.548744 46.45305) scale(0.1 -0.1)">
       <use xlink:href="#CMR17-31" transform="scale(0.996264)"/>
       <use xlink:href="#CMMI12-3a" transform="translate(45.690477 0) scale(0.996264)"/>
       <use xlink:href="#CMR17-30" transform="translate(72.787654 0) scale(0.996264)"/>
      </g>
     </g>
    </g>
    <g id="ytick_6">
     <g id="line2d_23">
      <path d="M 38.278823 18.97721 
L 332.911083 18.97721 
" clip-path="url(#p49d68ea146)" style="fill: none; stroke: #b0b0b0; stroke-width: 0.8; stroke-linecap: square"/>
     </g>
     <g id="line2d_24">
      <g>
       <use xlink:href="#me4ec10df9b" x="38.278823" y="18.97721" style="stroke: #000000; stroke-width: 0.8"/>
      </g>
     </g>
     <g id="text_13">
      <!-- $\mathdefault{1.5}$ -->
      <g transform="translate(18.548744 22.436459) scale(0.1 -0.1)">
       <use xlink:href="#CMR17-31" transform="scale(0.996264)"/>
       <use xlink:href="#CMMI12-3a" transform="translate(45.690477 0) scale(0.996264)"/>
       <use xlink:href="#CMR17-35" transform="translate(72.787654 0) scale(0.996264)"/>
      </g>
     </g>
    </g>
   </g>
   <g id="line2d_25">
    <path d="M 51.671198 42.993801 
L 54.304704 38.538059 
L 56.983179 34.532728 
L 59.661654 31.027103 
L 62.340129 27.990819 
L 65.018604 25.394577 
L 67.697079 23.21015 
L 70.375554 21.410379 
L 73.054029 19.969165 
L 75.732504 18.861466 
L 78.41098 18.063282 
L 81.089455 17.551643 
L 83.76793 17.304596 
L 86.446405 17.301188 
L 89.12488 17.521443 
L 91.803355 17.94635 
L 94.48183 18.557834 
L 97.160305 19.338739 
L 99.83878 20.272803 
L 102.517255 21.344632 
L 105.195731 22.539679 
L 107.874206 23.844216 
L 110.552681 25.24531 
L 113.231156 26.730796 
L 115.909631 28.28925 
L 118.588106 29.909966 
L 121.266581 31.582925 
L 123.945056 33.298774 
L 126.623531 35.048796 
L 129.302006 36.824886 
L 131.980481 38.619523 
L 134.658957 40.425749 
L 137.337432 42.23714 
L 140.015907 44.047785 
L 142.694382 45.852258 
L 145.372857 47.645598 
L 148.051332 49.423285 
L 150.729807 51.181217 
L 153.408282 52.915687 
L 156.086757 54.623364 
L 158.765232 56.301272 
L 161.443708 57.946768 
L 164.122183 59.557527 
L 166.800658 61.131515 
L 169.479133 62.666981 
L 172.157608 64.162431 
L 174.836083 65.616617 
L 177.514558 67.028517 
L 180.193033 68.397322 
L 182.871508 69.72242 
L 185.549983 71.003379 
L 188.228459 72.23994 
L 190.906934 73.431997 
L 193.585409 74.579589 
L 196.263884 75.682886 
L 198.942359 76.742178 
L 201.620834 77.757866 
L 204.299309 78.730447 
L 206.977784 79.660512 
L 209.656259 80.548729 
L 212.334734 81.39584 
L 215.01321 82.202649 
L 217.691685 82.970019 
L 220.37016 83.698858 
L 223.048635 84.390118 
L 225.72711 85.044789 
L 228.405585 85.663886 
L 231.08406 86.248453 
L 233.762535 86.79955 
L 236.44101 87.318253 
L 239.119485 87.805648 
L 241.79796 88.262825 
L 244.476436 88.690878 
L 247.154911 89.090898 
L 249.833386 89.463974 
L 252.511861 89.811185 
L 255.190336 90.1336 
L 257.868811 90.432276 
L 260.547286 90.708255 
L 263.225761 90.962564 
L 265.904236 91.196208 
L 268.582711 91.410176 
L 271.261187 91.605431 
L 273.939662 91.782919 
L 276.618137 91.943558 
L 279.296612 92.088244 
L 281.975087 92.217846 
L 284.653562 92.33321 
L 287.332037 92.435153 
L 290.010512 92.524468 
L 292.688987 92.60192 
L 295.367462 92.668247 
L 298.045938 92.72416 
L 300.724413 92.770345 
L 303.402888 92.80746 
L 306.081363 92.836135 
L 308.759838 92.856977 
L 311.438313 92.870565 
L 314.116788 92.877452 
L 316.795263 92.878167 
L 319.473738 92.873215 
L 319.518708 92.873086 
" clip-path="url(#p49d68ea146)" style="fill: none; stroke: #1f77b4; stroke-linecap: square"/>
   </g>
   <g id="line2d_26">
    <path d="M 51.671198 42.993801 
L 54.304704 48.371266 
L 56.983179 53.523706 
L 59.661654 58.367156 
L 62.340129 62.912287 
L 65.018604 67.169795 
L 67.697079 71.150373 
L 70.375554 74.864675 
L 73.054029 78.323287 
L 75.732504 81.536702 
L 78.41098 84.515296 
L 81.089455 87.269306 
L 83.76793 89.808807 
L 86.446405 92.1437 
L 89.12488 94.283693 
L 91.803355 96.238288 
L 94.48183 98.016771 
L 97.160305 99.628197 
L 99.83878 101.081387 
L 102.517255 102.384917 
L 105.195731 103.547113 
L 107.874206 104.576046 
L 110.552681 105.47953 
L 113.231156 106.265116 
L 115.909631 106.940095 
L 118.588106 107.511494 
L 121.266581 107.986078 
L 123.945056 108.370349 
L 126.623531 108.670552 
L 129.302006 108.892673 
L 131.980481 109.042442 
L 134.658957 109.125341 
L 137.337432 109.146603 
L 140.015907 109.11122 
L 142.694382 109.023945 
L 145.372857 108.889299 
L 148.051332 108.711575 
L 150.729807 108.494846 
L 153.408282 108.242967 
L 156.086757 107.959585 
L 158.765232 107.648142 
L 161.443708 107.311884 
L 164.122183 106.953864 
L 166.800658 106.576953 
L 169.479133 106.183842 
L 172.157608 105.777052 
L 174.836083 105.358935 
L 177.514558 104.93169 
L 180.193033 104.497358 
L 182.871508 104.057837 
L 185.549983 103.614885 
L 188.228459 103.170124 
L 190.906934 102.725052 
L 193.585409 102.281041 
L 196.263884 101.839351 
L 198.942359 101.401129 
L 201.620834 100.967418 
L 204.299309 100.539164 
L 206.977784 100.117214 
L 209.656259 99.702332 
L 212.334734 99.295194 
L 215.01321 98.896399 
L 217.691685 98.506471 
L 220.37016 98.125863 
L 223.048635 97.754965 
L 225.72711 97.394105 
L 228.405585 97.043551 
L 231.08406 96.703521 
L 233.762535 96.374182 
L 236.44101 96.055655 
L 239.119485 95.748018 
L 241.79796 95.451311 
L 244.476436 95.165534 
L 247.154911 94.890659 
L 249.833386 94.626623 
L 252.511861 94.373338 
L 255.190336 94.130689 
L 257.868811 93.898538 
L 260.547286 93.676729 
L 263.225761 93.465085 
L 265.904236 93.263414 
L 268.582711 93.071508 
L 271.261187 92.889148 
L 273.939662 92.716103 
L 276.618137 92.552135 
L 279.296612 92.396994 
L 281.975087 92.250428 
L 284.653562 92.112177 
L 287.332037 91.981977 
L 290.010512 91.859564 
L 292.688987 91.744668 
L 295.367462 91.637022 
L 298.045938 91.536357 
L 300.724413 91.442406 
L 303.402888 91.354902 
L 306.081363 91.273582 
L 308.759838 91.198185 
L 311.438313 91.128454 
L 314.116788 91.064135 
L 316.795263 91.004979 
L 319.473738 90.950742 
L 319.518708 90.949872 
" clip-path="url(#p49d68ea146)" style="fill: none; stroke: #ff7f0e; stroke-linecap: square"/>
   </g>
   <g id="line2d_27">
    <path d="M 51.671198 147.324943 
L 54.304704 144.131744 
L 56.983179 140.988696 
L 59.661654 137.952072 
L 62.340129 135.022342 
L 65.018604 132.199617 
L 67.697079 129.48367 
L 70.375554 126.873974 
L 73.054029 124.369721 
L 75.732504 121.969849 
L 78.41098 119.673068 
L 81.089455 117.477882 
L 83.76793 115.382608 
L 86.446405 113.3854 
L 89.12488 111.484266 
L 91.803355 109.677085 
L 94.48183 107.961627 
L 97.160305 106.335567 
L 99.83878 104.796497 
L 102.517255 103.341947 
L 105.195731 101.969391 
L 107.874206 100.676262 
L 110.552681 99.459963 
L 113.231156 98.317878 
L 115.909631 97.24738 
L 118.588106 96.245841 
L 121.266581 95.310639 
L 123.945056 94.439166 
L 126.623531 93.628836 
L 129.302006 92.877088 
L 131.980481 92.181396 
L 134.658957 91.53927 
L 137.337432 90.948261 
L 140.015907 90.405966 
L 142.694382 89.910035 
L 145.372857 89.458166 
L 148.051332 89.048114 
L 150.729807 88.677692 
L 153.408282 88.344772 
L 156.086757 88.047286 
L 158.765232 87.783229 
L 161.443708 87.550659 
L 164.122183 87.347699 
L 166.800658 87.172534 
L 169.479133 87.023415 
L 172.157608 86.898659 
L 174.836083 86.796644 
L 177.514558 86.715814 
L 180.193033 86.654677 
L 182.871508 86.611802 
L 185.549983 86.585822 
L 188.228459 86.575429 
L 190.906934 86.579376 
L 193.585409 86.596476 
L 196.263884 86.625598 
L 198.942359 86.665666 
L 201.620834 86.715663 
L 204.299309 86.774621 
L 206.977784 86.841629 
L 209.656259 86.915821 
L 212.334734 86.996384 
L 215.01321 87.082552 
L 217.691685 87.173603 
L 220.37016 87.268862 
L 223.048635 87.367694 
L 225.72711 87.469506 
L 228.405585 87.573747 
L 231.08406 87.679901 
L 233.762535 87.787489 
L 236.44101 87.896067 
L 239.119485 88.005226 
L 241.79796 88.114588 
L 244.476436 88.223803 
L 247.154911 88.332554 
L 249.833386 88.440548 
L 252.511861 88.547521 
L 255.190336 88.653233 
L 257.868811 88.757465 
L 260.547286 88.860025 
L 263.225761 88.960739 
L 265.904236 89.059452 
L 268.582711 89.156029 
L 271.261187 89.250354 
L 273.939662 89.342325 
L 276.618137 89.431857 
L 279.296612 89.518878 
L 281.975087 89.603331 
L 284.653562 89.68517 
L 287.332037 89.764362 
L 290.010512 89.840884 
L 292.688987 89.914724 
L 295.367462 89.985877 
L 298.045938 90.054348 
L 300.724413 90.12015 
L 303.402888 90.183302 
L 306.081363 90.243831 
L 308.759838 90.301767 
L 311.438313 90.357149 
L 314.116788 90.410018 
L 316.795263 90.46042 
L 319.473738 90.508404 
L 319.518708 90.509189 
" clip-path="url(#p49d68ea146)" style="fill: none; stroke: #2ca02c; stroke-linecap: square"/>
   </g>
   <g id="patch_3">
    <path d="M 38.278823 153.826131 
L 38.278823 10.8 
" style="fill: none; stroke: #000000; stroke-width: 0.8; stroke-linejoin: miter; stroke-linecap: square"/>
   </g>
   <g id="patch_4">
    <path d="M 332.911083 153.826131 
L 332.911083 10.8 
" style="fill: none; stroke: #000000; stroke-width: 0.8; stroke-linejoin: miter; stroke-linecap: square"/>
   </g>
   <g id="patch_5">
    <path d="M 38.278823 153.826131 
L 332.911083 153.826131 
" style="fill: none; stroke: #000000; stroke-width: 0.8; stroke-linejoin: miter; stroke-linecap: square"/>
   </g>
   <g id="patch_6">
    <path d="M 38.278823 10.8 
L 332.911083 10.8 
" style="fill: none; stroke: #000000; stroke-width: 0.8; stroke-linejoin: miter; stroke-linecap: square"/>
   </g>
   <g id="legend_1">
    <g id="patch_7">
     <path d="M 284.245927 148.826131 
L 325.911083 148.826131 
Q 327.911083 148.826131 327.911083 146.826131 
L 327.911083 106.014596 
Q 327.911083 104.014596 325.911083 104.014596 
L 284.245927 104.014596 
Q 282.245927 104.014596 282.245927 106.014596 
L 282.245927 146.826131 
Q 282.245927 148.826131 284.245927 148.826131 
z
" style="fill: #ffffff; opacity: 0.8; stroke: #cccccc; stroke-linejoin: miter"/>
    </g>
    <g id="line2d_28">
     <path d="M 286.245927 111.514596 
L 296.245927 111.514596 
L 306.245927 111.514596 
" style="fill: none; stroke: #1f77b4; stroke-linecap: square"/>
    </g>
    <g id="text_14">
     <!-- $x_1$ -->
     <g transform="translate(314.245927 115.014596) scale(0.1 -0.1)">
      <defs>
       <path id="CMMI12-78" d="M 3034 2624 
C 2829 2585 2752 2431 2752 2310 
C 2752 2156 2874 2105 2963 2105 
C 3155 2105 3290 2271 3290 2444 
C 3290 2694 2982 2816 2714 2816 
C 2323 2816 2106 2451 2048 2329 
C 1901 2790 1504 2816 1389 2816 
C 736 2816 390 1993 390 1849 
C 390 1823 416 1790 461 1790 
C 512 1790 525 1829 538 1855 
C 755 2572 1184 2687 1370 2687 
C 1658 2687 1715 2438 1715 2284 
C 1715 2143 1677 1993 1600 1678 
L 1382 778 
C 1286 390 1101 64 762 64 
C 730 64 570 64 435 126 
C 666 166 717 358 717 435 
C 717 563 621 640 499 640 
C 346 640 179 505 179 300 
C 179 57 480 -64 755 -64 
C 1062 -64 1280 153 1414 415 
C 1517 64 1837 -64 2074 -64 
C 2726 -64 3072 751 3072 896 
C 3072 929 3046 955 3008 955 
C 2950 955 2944 922 2925 870 
C 2752 300 2381 64 2093 64 
C 1869 64 1747 204 1747 467 
C 1747 607 1773 712 1875 1146 
L 2099 2039 
C 2195 2425 2413 2687 2707 2687 
C 2720 2687 2899 2687 3034 2624 
z
" transform="scale(0.015625)"/>
      </defs>
      <use xlink:href="#CMMI12-78" transform="scale(0.996264)"/>
      <use xlink:href="#CMR17-31" transform="translate(55.43406 -14.943915) scale(0.697382)"/>
     </g>
    </g>
    <g id="line2d_29">
     <path d="M 286.245927 125.451774 
L 296.245927 125.451774 
L 306.245927 125.451774 
" style="fill: none; stroke: #ff7f0e; stroke-linecap: square"/>
    </g>
    <g id="text_15">
     <!-- $x_2$ -->
     <g transform="translate(314.245927 128.951774) scale(0.1 -0.1)">
      <use xlink:href="#CMMI12-78" transform="scale(0.996264)"/>
      <use xlink:href="#CMR17-32" transform="translate(55.43406 -14.943915) scale(0.697382)"/>
     </g>
    </g>
    <g id="line2d_30">
     <path d="M 286.245927 139.388953 
L 296.245927 139.388953 
L 306.245927 139.388953 
" style="fill: none; stroke: #2ca02c; stroke-linecap: square"/>
    </g>
    <g id="text_16">
     <!-- $u$ -->
     <g transform="translate(314.245927 142.888953) scale(0.1 -0.1)">
      <defs>
       <path id="CMMI12-75" d="M 2182 370 
C 2266 12 2573 -64 2726 -64 
C 2931 -64 3085 70 3187 287 
C 3296 517 3379 893 3379 913 
C 3379 944 3354 970 3315 970 
C 3258 970 3251 938 3226 842 
C 3110 402 2995 64 2739 64 
C 2547 64 2547 274 2547 357 
C 2547 504 2566 568 2630 836 
C 2675 1008 2720 1181 2758 1359 
L 3021 2400 
C 3066 2560 3066 2572 3066 2591 
C 3066 2687 2989 2752 2893 2752 
C 2707 2752 2662 2591 2624 2432 
C 2560 2183 2214 810 2170 587 
C 2163 587 1914 64 1446 64 
C 1114 64 1050 351 1050 587 
C 1050 951 1229 1462 1395 1890 
C 1472 2094 1504 2177 1504 2305 
C 1504 2579 1306 2816 998 2816 
C 410 2816 173 1890 173 1838 
C 173 1813 198 1781 243 1781 
C 301 1781 307 1807 333 1896 
C 486 2445 736 2687 979 2687 
C 1043 2687 1146 2681 1146 2477 
C 1146 2311 1075 2126 979 1883 
C 698 1123 666 881 666 689 
C 666 38 1158 -64 1421 -64 
C 1830 -64 2054 217 2182 370 
z
" transform="scale(0.015625)"/>
      </defs>
      <use xlink:href="#CMMI12-75" transform="scale(0.996264)"/>
     </g>
    </g>
   </g>
  </g>
 </g>
 <defs>
  <clipPath id="p49d68ea146">
   <rect x="38.278823" y="10.8" width="294.632261" height="143.026131"/>
  </clipPath>
 </defs>
</svg>
