<?xml version="1.0" encoding="utf-8" standalone="no"?>
<!DOCTYPE svg PUBLIC "-//W3C//DTD SVG 1.1//EN"
  "http://www.w3.org/Graphics/SVG/1.1/DTD/svg11.dtd">
<svg xmlns:xlink="http://www.w3.org/1999/xlink" width="343.711083pt" height="193.337484pt" viewBox="0 0 343.711083 193.337484" xmlns="http://www.w3.org/2000/svg" version="1.1">
 <metadata>
  <rdf:RDF xmlns:dc="http://purl.org/dc/elements/1.1/" xmlns:cc="http://creativecommons.org/ns#" xmlns:rdf="http://www.w3.org/1999/02/22-rdf-syntax-ns#">
   <cc:Work>
    <dc:type rdf:resource="http://purl.org/dc/dcmitype/StillImage"/>
    <dc:date>2026-02-12T22:39:40.031760</dc:date>
    <dc:format>image/svg+xml</dc:format>
    <dc:creator>
     <cc:Agent>
      <dc:title>Matplotlib v3.10.0, https://matplotlib.org/</dc:title>
     </cc:Agent>
    </dc:creator>
   </cc:Work>
  </rdf:RDF>
 </metadata>
 <defs>
  <style type="text/css">*{stroke-linejoin: round; stroke-linecap: butt}</style>
 </defs>
 <g id="figure_1">
  <g id="patch_1">
   <path d="M 0 193.337484 
L 343.711083 193.337484 
L 343.711083 0 
L 0 0 
z
" style="fill: #ffffff"/>
  </g>
  <g id="axes_1">
   <g id="patch_2">
    <path d="M 30.530079 153.826131 
L 332.911083 153.826131 
L 332.911083 10.8 
L 30.530079 10.8 
z
" style="fill: #ffffff"/>
   </g>
   <g id="matplotlib.axis_1">
    <g id="xtick_1">
     <g id="line2d_1">
      <path d="M 44.27467 153.826131 
L 44.27467 10.8 
" clip-path="url(#p72ccef5739)" style="fill: none; stroke: #b0b0b0; stroke-width: 0.8; stroke-linecap: square"/>
     </g>
     <g id="line2d_2">
      <defs>
       <path id="mb5ea3489b4" d="M 0 0 
L 0 3.5 
" style="stroke: #000000; stroke-width: 0.8"/>
      </defs>
      <g>
       <use xlink:href="#mb5ea3489b4" x="44.27467" y="153.826131" style="stroke: #000000; stroke-width: 0.8"/>
      </g>
     </g>
     <g id="text_1">
      <!-- $\mathdefault{0}$ -->
      <g transform="translate(41.784002 167.744629) scale(0.1 -0.1)">
       <defs>
        <path id="CMR17-30" d="M 2688 2038 
C 2688 2430 2682 3099 2413 3613 
C 2176 4063 1798 4224 1466 4224 
C 1158 4224 768 4082 525 3620 
C 269 3137 243 2539 243 2038 
C 243 1671 250 1112 448 623 
C 723 -39 1216 -128 1466 -128 
C 1760 -128 2208 -7 2470 604 
C 2662 1048 2688 1568 2688 2038 
z
M 1466 -26 
C 1056 -26 813 328 723 816 
C 653 1196 653 1749 653 2109 
C 653 2604 653 3015 736 3407 
C 858 3954 1216 4121 1466 4121 
C 1728 4121 2067 3947 2189 3420 
C 2272 3054 2278 2623 2278 2109 
C 2278 1691 2278 1176 2202 797 
C 2067 96 1690 -26 1466 -26 
z
" transform="scale(0.015625)"/>
       </defs>
       <use xlink:href="#CMR17-30" transform="scale(0.996264)"/>
      </g>
     </g>
    </g>
    <g id="xtick_2">
     <g id="line2d_3">
      <path d="M 99.253035 153.826131 
L 99.253035 10.8 
" clip-path="url(#p72ccef5739)" style="fill: none; stroke: #b0b0b0; stroke-width: 0.8; stroke-linecap: square"/>
     </g>
     <g id="line2d_4">
      <g>
       <use xlink:href="#mb5ea3489b4" x="99.253035" y="153.826131" style="stroke: #000000; stroke-width: 0.8"/>
      </g>
     </g>
     <g id="text_2">
      <!-- $\mathdefault{2}$ -->
      <g transform="translate(96.762367 167.744629) scale(0.1 -0.1)">
       <defs>
        <path id="CMR17-32" d="M 2669 990 
L 2554 990 
C 2490 537 2438 460 2413 422 
C 2381 371 1920 371 1830 371 
L 602 371 
C 832 620 1280 1073 1824 1596 
C 2214 1966 2669 2400 2669 3033 
C 2669 3788 2067 4224 1395 4224 
C 691 4224 262 3603 262 3027 
C 262 2777 448 2745 525 2745 
C 589 2745 781 2783 781 3007 
C 781 3206 614 3264 525 3264 
C 486 3264 448 3257 422 3244 
C 544 3788 915 4057 1306 4057 
C 1862 4057 2227 3616 2227 3033 
C 2227 2477 1901 1998 1536 1583 
L 262 147 
L 262 0 
L 2515 0 
L 2669 990 
z
" transform="scale(0.015625)"/>
       </defs>
       <use xlink:href="#CMR17-32" transform="scale(0.996264)"/>
      </g>
     </g>
    </g>
    <g id="xtick_3">
     <g id="line2d_5">
      <path d="M 154.231399 153.826131 
L 154.231399 10.8 
" clip-path="url(#p72ccef5739)" style="fill: none; stroke: #b0b0b0; stroke-width: 0.8; stroke-linecap: square"/>
     </g>
     <g id="line2d_6">
      <g>
       <use xlink:href="#mb5ea3489b4" x="154.231399" y="153.826131" style="stroke: #000000; stroke-width: 0.8"/>
      </g>
     </g>
     <g id="text_3">
      <!-- $\mathdefault{4}$ -->
      <g transform="translate(151.740731 167.744629) scale(0.1 -0.1)">
       <defs>
        <path id="CMR17-34" d="M 2150 4147 
C 2150 4281 2144 4288 2029 4288 
L 128 1254 
L 128 1088 
L 1779 1088 
L 1779 460 
C 1779 230 1766 166 1318 166 
L 1197 166 
L 1197 0 
C 1402 12 1747 12 1965 12 
C 2182 12 2528 12 2733 0 
L 2733 166 
L 2611 166 
C 2163 166 2150 230 2150 460 
L 2150 1088 
L 2803 1088 
L 2803 1254 
L 2150 1254 
L 2150 4147 
z
M 1798 3723 
L 1798 1254 
L 256 1254 
L 1798 3723 
z
" transform="scale(0.015625)"/>
       </defs>
       <use xlink:href="#CMR17-34" transform="scale(0.996264)"/>
      </g>
     </g>
    </g>
    <g id="xtick_4">
     <g id="line2d_7">
      <path d="M 209.209763 153.826131 
L 209.209763 10.8 
" clip-path="url(#p72ccef5739)" style="fill: none; stroke: #b0b0b0; stroke-width: 0.8; stroke-linecap: square"/>
     </g>
     <g id="line2d_8">
      <g>
       <use xlink:href="#mb5ea3489b4" x="209.209763" y="153.826131" style="stroke: #000000; stroke-width: 0.8"/>
      </g>
     </g>
     <g id="text_4">
      <!-- $\mathdefault{6}$ -->
      <g transform="translate(206.719096 167.744629) scale(0.1 -0.1)">
       <defs>
        <path id="CMR17-36" d="M 678 2198 
C 678 3712 1395 4076 1811 4076 
C 1946 4076 2272 4049 2400 3782 
C 2298 3782 2106 3782 2106 3558 
C 2106 3385 2246 3328 2336 3328 
C 2394 3328 2566 3353 2566 3571 
C 2566 3987 2246 4224 1805 4224 
C 1043 4224 243 3411 243 2011 
C 243 257 966 -128 1478 -128 
C 2099 -128 2688 431 2688 1295 
C 2688 2101 2170 2688 1517 2688 
C 1126 2688 838 2430 678 1979 
L 678 2198 
z
M 1478 25 
C 691 25 691 1212 691 1450 
C 691 1914 909 2585 1504 2585 
C 1613 2585 1926 2585 2138 2140 
C 2253 1889 2253 1624 2253 1302 
C 2253 954 2253 696 2118 438 
C 1978 173 1773 25 1478 25 
z
" transform="scale(0.015625)"/>
       </defs>
       <use xlink:href="#CMR17-36" transform="scale(0.996264)"/>
      </g>
     </g>
    </g>
    <g id="xtick_5">
     <g id="line2d_9">
      <path d="M 264.188128 153.826131 
L 264.188128 10.8 
" clip-path="url(#p72ccef5739)" style="fill: none; stroke: #b0b0b0; stroke-width: 0.8; stroke-linecap: square"/>
     </g>
     <g id="line2d_10">
      <g>
       <use xlink:href="#mb5ea3489b4" x="264.188128" y="153.826131" style="stroke: #000000; stroke-width: 0.8"/>
      </g>
     </g>
     <g id="text_5">
      <!-- $\mathdefault{8}$ -->
      <g transform="translate(261.69746 167.744629) scale(0.1 -0.1)">
       <defs>
        <path id="CMR17-38" d="M 1741 2289 
C 2144 2494 2554 2803 2554 3298 
C 2554 3884 1990 4224 1472 4224 
C 890 4224 378 3800 378 3215 
C 378 3054 416 2777 666 2533 
C 730 2469 998 2276 1171 2154 
C 883 2006 211 1652 211 945 
C 211 282 838 -128 1459 -128 
C 2144 -128 2720 366 2720 1022 
C 2720 1607 2330 1877 2074 2051 
L 1741 2289 
z
M 902 2855 
C 851 2887 595 3086 595 3388 
C 595 3781 998 4076 1459 4076 
C 1965 4076 2336 3716 2336 3298 
C 2336 2700 1670 2359 1638 2359 
C 1632 2359 1626 2359 1574 2398 
L 902 2855 
z
M 2080 1536 
C 2176 1466 2483 1253 2483 861 
C 2483 385 2010 25 1472 25 
C 890 25 448 443 448 951 
C 448 1459 838 1884 1280 2083 
L 2080 1536 
z
" transform="scale(0.015625)"/>
       </defs>
       <use xlink:href="#CMR17-38" transform="scale(0.996264)"/>
      </g>
     </g>
    </g>
    <g id="xtick_6">
     <g id="line2d_11">
      <path d="M 319.166492 153.826131 
L 319.166492 10.8 
" clip-path="url(#p72ccef5739)" style="fill: none; stroke: #b0b0b0; stroke-width: 0.8; stroke-linecap: square"/>
     </g>
     <g id="line2d_12">
      <g>
       <use xlink:href="#mb5ea3489b4" x="319.166492" y="153.826131" style="stroke: #000000; stroke-width: 0.8"/>
      </g>
     </g>
     <g id="text_6">
      <!-- $\mathdefault{10}$ -->
      <g transform="translate(314.185157 167.744629) scale(0.1 -0.1)">
       <defs>
        <path id="CMR17-31" d="M 1702 4083 
C 1702 4217 1696 4224 1606 4224 
C 1357 3927 979 3833 621 3820 
C 602 3820 570 3820 563 3808 
C 557 3795 557 3782 557 3648 
C 755 3648 1088 3686 1344 3839 
L 1344 467 
C 1344 243 1331 166 781 166 
L 589 166 
L 589 0 
C 896 6 1216 12 1523 12 
C 1830 12 2150 6 2458 0 
L 2458 166 
L 2266 166 
C 1715 166 1702 236 1702 467 
L 1702 4083 
z
" transform="scale(0.015625)"/>
       </defs>
       <use xlink:href="#CMR17-31" transform="scale(0.996264)"/>
       <use xlink:href="#CMR17-30" transform="translate(45.690477 0) scale(0.996264)"/>
      </g>
     </g>
    </g>
    <g id="text_7">
     <!-- $t$ -->
     <g transform="translate(179.921769 180.600306) scale(0.1 -0.1)">
      <defs>
       <path id="CMMI12-74" d="M 1286 2566 
L 1875 2566 
C 1997 2566 2061 2566 2061 2681 
C 2061 2752 2022 2752 1894 2752 
L 1331 2752 
L 1568 3664 
C 1594 3752 1594 3764 1594 3808 
C 1594 3910 1510 3968 1427 3968 
C 1376 3968 1229 3948 1178 3746 
L 928 2752 
L 326 2752 
C 198 2752 141 2752 141 2630 
C 141 2566 186 2566 307 2566 
L 877 2566 
L 454 881 
C 403 657 384 593 384 510 
C 384 210 595 -64 954 -64 
C 1600 -64 1946 868 1946 913 
C 1946 951 1920 970 1882 970 
C 1869 970 1843 970 1830 944 
C 1824 938 1818 932 1773 830 
C 1638 510 1344 64 973 64 
C 781 64 768 223 768 364 
C 768 370 768 491 787 568 
L 1286 2566 
z
" transform="scale(0.015625)"/>
      </defs>
      <use xlink:href="#CMMI12-74" transform="scale(0.996264)"/>
     </g>
    </g>
   </g>
   <g id="matplotlib.axis_2">
    <g id="ytick_1">
     <g id="line2d_13">
      <path d="M 30.530079 123.278587 
L 332.911083 123.278587 
" clip-path="url(#p72ccef5739)" style="fill: none; stroke: #b0b0b0; stroke-width: 0.8; stroke-linecap: square"/>
     </g>
     <g id="line2d_14">
      <defs>
       <path id="m88b78b0d3c" d="M 0 0 
L -3.5 0 
" style="stroke: #000000; stroke-width: 0.8"/>
      </defs>
      <g>
       <use xlink:href="#m88b78b0d3c" x="30.530079" y="123.278587" style="stroke: #000000; stroke-width: 0.8"/>
      </g>
     </g>
     <g id="text_8">
      <!-- $\mathdefault{−2}$ -->
      <g transform="translate(10.8 126.737836) scale(0.1 -0.1)">
       <defs>
        <path id="CMSY10-0" d="M 4218 1472 
C 4326 1472 4442 1472 4442 1600 
C 4442 1728 4326 1728 4218 1728 
L 755 1728 
C 646 1728 531 1728 531 1600 
C 531 1472 646 1472 755 1472 
L 4218 1472 
z
" transform="scale(0.015625)"/>
       </defs>
       <use xlink:href="#CMSY10-0" transform="scale(0.996264)"/>
       <use xlink:href="#CMR17-32" transform="translate(77.487468 0) scale(0.996264)"/>
      </g>
     </g>
    </g>
    <g id="ytick_2">
     <g id="line2d_15">
      <path d="M 30.530079 90.430652 
L 332.911083 90.430652 
" clip-path="url(#p72ccef5739)" style="fill: none; stroke: #b0b0b0; stroke-width: 0.8; stroke-linecap: square"/>
     </g>
     <g id="line2d_16">
      <g>
       <use xlink:href="#m88b78b0d3c" x="30.530079" y="90.430652" style="stroke: #000000; stroke-width: 0.8"/>
      </g>
     </g>
     <g id="text_9">
      <!-- $\mathdefault{−1}$ -->
      <g transform="translate(10.8 93.889902) scale(0.1 -0.1)">
       <use xlink:href="#CMSY10-0" transform="scale(0.996264)"/>
       <use xlink:href="#CMR17-31" transform="translate(77.487468 0) scale(0.996264)"/>
      </g>
     </g>
    </g>
    <g id="ytick_3">
     <g id="line2d_17">
      <path d="M 30.530079 57.582718 
L 332.911083 57.582718 
" clip-path="url(#p72ccef5739)" style="fill: none; stroke: #b0b0b0; stroke-width: 0.8; stroke-linecap: square"/>
     </g>
     <g id="line2d_18">
      <g>
       <use xlink:href="#m88b78b0d3c" x="30.530079" y="57.582718" style="stroke: #000000; stroke-width: 0.8"/>
      </g>
     </g>
     <g id="text_10">
      <!-- $\mathdefault{0}$ -->
      <g transform="translate(18.548744 61.041967) scale(0.1 -0.1)">
       <use xlink:href="#CMR17-30" transform="scale(0.996264)"/>
      </g>
     </g>
    </g>
    <g id="ytick_4">
     <g id="line2d_19">
      <path d="M 30.530079 24.734784 
L 332.911083 24.734784 
" clip-path="url(#p72ccef5739)" style="fill: none; stroke: #b0b0b0; stroke-width: 0.8; stroke-linecap: square"/>
     </g>
     <g id="line2d_20">
      <g>
       <use xlink:href="#m88b78b0d3c" x="30.530079" y="24.734784" style="stroke: #000000; stroke-width: 0.8"/>
      </g>
     </g>
     <g id="text_11">
      <!-- $\mathdefault{1}$ -->
      <g transform="translate(18.548744 28.194033) scale(0.1 -0.1)">
       <use xlink:href="#CMR17-31" transform="scale(0.996264)"/>
      </g>
     </g>
    </g>
   </g>
   <g id="line2d_21">
    <path d="M 44.27467 24.734784 
L 46.444001 22.412161 
L 49.19292 20.182214 
L 51.941838 18.650027 
L 54.690756 17.718689 
L 57.439674 17.301188 
L 60.188592 17.319636 
L 62.937511 17.704534 
L 65.686429 18.394072 
L 68.435347 19.333475 
L 71.184265 20.474388 
L 73.933184 21.774296 
L 76.682102 23.195989 
L 79.43102 24.707055 
L 82.179938 26.279418 
L 84.928856 27.888904 
L 87.677775 29.514844 
L 90.426693 31.139704 
L 93.175611 32.748749 
L 95.924529 34.329733 
L 98.673448 35.872614 
L 101.422366 37.369296 
L 104.171284 38.813396 
L 106.920202 40.200029 
L 109.66912 41.525611 
L 112.418039 42.787691 
L 115.166957 43.98479 
L 117.915875 45.116259 
L 120.664793 46.182155 
L 123.413712 47.183128 
L 126.16263 48.120319 
L 128.911548 48.995275 
L 131.660466 49.809865 
L 134.409384 50.566218 
L 137.158303 51.266655 
L 139.907221 51.913643 
L 142.656139 52.509746 
L 145.405057 53.05759 
L 148.153976 53.559821 
L 150.902894 54.019088 
L 153.651812 54.438008 
L 156.40073 54.819156 
L 159.149648 55.165042 
L 161.898567 55.4781 
L 164.647485 55.760679 
L 167.396403 56.015034 
L 170.145321 56.24332 
L 172.89424 56.447589 
L 175.643158 56.629785 
L 178.392076 56.791749 
L 181.140994 56.935211 
L 183.889912 57.061798 
L 186.638831 57.173033 
L 189.387749 57.270335 
L 192.136667 57.35503 
L 194.885585 57.428343 
L 197.634504 57.491414 
L 200.383422 57.545292 
L 203.13234 57.590944 
L 205.881258 57.629261 
L 208.630176 57.661057 
L 211.379095 57.687078 
L 214.128013 57.708003 
L 216.876931 57.724451 
L 219.625849 57.736983 
L 222.374768 57.746106 
L 225.123686 57.75228 
L 227.872604 57.755916 
L 230.621522 57.757385 
L 233.37044 57.757018 
L 236.119359 57.75511 
L 238.868277 57.751924 
L 241.617195 57.747693 
L 244.366113 57.742621 
L 247.115032 57.736888 
L 249.86395 57.730653 
L 252.612868 57.724052 
L 255.361786 57.717205 
L 258.110704 57.710212 
L 260.859623 57.703162 
L 263.608541 57.696128 
L 266.357459 57.689173 
L 269.106377 57.682346 
L 271.855296 57.675692 
L 274.604214 57.669243 
L 277.353132 57.663025 
L 280.10205 57.65706 
L 282.850968 57.651361 
L 285.599887 57.645939 
L 288.348805 57.640799 
L 291.097723 57.635944 
L 293.846641 57.631373 
L 296.59556 57.627082 
L 299.344478 57.623067 
L 302.093396 57.61932 
L 304.842314 57.615833 
L 307.591232 57.612597 
L 310.340151 57.609601 
L 313.089069 57.606835 
L 315.837987 57.604288 
L 318.586905 57.601948 
L 319.166492 57.60148 
" clip-path="url(#p72ccef5739)" style="fill: none; stroke: #1f77b4; stroke-linecap: square"/>
   </g>
   <g id="line2d_22">
    <path d="M 44.27467 24.734784 
L 46.444001 31.445035 
L 49.19292 38.942216 
L 51.941838 45.418097 
L 54.690756 50.975688 
L 57.439674 55.710043 
L 60.188592 59.70865 
L 62.937511 63.051836 
L 65.686429 65.813164 
L 68.435347 68.059836 
L 71.184265 69.853089 
L 73.933184 71.248582 
L 76.682102 72.296768 
L 79.43102 73.043266 
L 82.179938 73.529206 
L 84.928856 73.791568 
L 87.677775 73.863501 
L 90.426693 73.774631 
L 93.175611 73.551346 
L 95.924529 73.217071 
L 98.673448 72.792524 
L 101.422366 72.295956 
L 104.171284 71.743377 
L 106.920202 71.148765 
L 109.66912 70.524258 
L 112.418039 69.880341 
L 115.166957 69.226008 
L 117.915875 68.568918 
L 120.664793 67.915539 
L 123.413712 67.271273 
L 126.16263 66.640584 
L 128.911548 66.027097 
L 131.660466 65.433705 
L 134.409384 64.862656 
L 137.158303 64.315636 
L 139.907221 63.793842 
L 142.656139 63.298049 
L 145.405057 62.828671 
L 148.153976 62.385813 
L 150.902894 61.969319 
L 153.651812 61.578819 
L 156.40073 61.213761 
L 159.149648 60.873448 
L 161.898567 60.557067 
L 164.647485 60.263713 
L 167.396403 59.992418 
L 170.145321 59.74216 
L 172.89424 59.511891 
L 175.643158 59.300544 
L 178.392076 59.107049 
L 181.140994 58.930342 
L 183.889912 58.769374 
L 186.638831 58.623118 
L 189.387749 58.490578 
L 192.136667 58.370787 
L 194.885585 58.262818 
L 197.634504 58.165779 
L 200.383422 58.078824 
L 203.13234 58.001147 
L 205.881258 57.931984 
L 208.630176 57.870617 
L 211.379095 57.816367 
L 214.128013 57.768602 
L 216.876931 57.726727 
L 219.625849 57.690191 
L 222.374768 57.65848 
L 225.123686 57.631117 
L 227.872604 57.607661 
L 230.621522 57.587707 
L 233.37044 57.57088 
L 236.119359 57.556838 
L 238.868277 57.545267 
L 241.617195 57.535879 
L 244.366113 57.528414 
L 247.115032 57.522635 
L 249.86395 57.518326 
L 252.612868 57.515293 
L 255.361786 57.513361 
L 258.110704 57.512372 
L 260.859623 57.512186 
L 263.608541 57.512677 
L 266.357459 57.513732 
L 269.106377 57.515252 
L 271.855296 57.51715 
L 274.604214 57.519347 
L 277.353132 57.521776 
L 280.10205 57.524378 
L 282.850968 57.527102 
L 285.599887 57.529902 
L 288.348805 57.532742 
L 291.097723 57.535588 
L 293.846641 57.538415 
L 296.59556 57.541198 
L 299.344478 57.543919 
L 302.093396 57.546564 
L 304.842314 57.54912 
L 307.591232 57.551577 
L 310.340151 57.55393 
L 313.089069 57.556172 
L 315.837987 57.558301 
L 318.586905 57.560316 
L 319.166492 57.560726 
" clip-path="url(#p72ccef5739)" style="fill: none; stroke: #ff7f0e; stroke-linecap: square"/>
   </g>
   <g id="line2d_23">
    <path d="M 44.27467 147.324943 
L 46.444001 138.025071 
L 49.19292 127.26952 
L 51.941838 117.585152 
L 54.690756 108.89046 
L 57.439674 101.107818 
L 60.188592 94.163578 
L 62.937511 87.988113 
L 65.686429 82.515815 
L 68.435347 77.685062 
L 71.184265 73.438143 
L 73.933184 69.721171 
L 76.682102 66.483966 
L 79.43102 63.679927 
L 82.179938 61.265891 
L 84.928856 59.201981 
L 87.677775 57.451449 
L 90.426693 55.980517 
L 93.175611 54.758213 
L 95.924529 53.756211 
L 98.673448 52.948667 
L 101.422366 52.312065 
L 104.171284 51.825059 
L 106.920202 51.468326 
L 109.66912 51.224421 
L 112.418039 51.077638 
L 115.166957 51.013878 
L 117.915875 51.020522 
L 120.664793 51.086312 
L 123.413712 51.201239 
L 126.16263 51.356434 
L 128.911548 51.544069 
L 131.660466 51.757263 
L 134.409384 51.989996 
L 137.158303 52.237026 
L 139.907221 52.493812 
L 142.656139 52.756446 
L 145.405057 53.02159 
L 148.153976 53.286412 
L 150.902894 53.548533 
L 153.651812 53.805979 
L 156.40073 54.05713 
L 159.149648 54.300684 
L 161.898567 54.535614 
L 164.647485 54.761138 
L 167.396403 54.976681 
L 170.145321 55.181853 
L 172.89424 55.376423 
L 175.643158 55.56029 
L 178.392076 55.733469 
L 181.140994 55.896073 
L 183.889912 56.048291 
L 186.638831 56.190378 
L 189.387749 56.322642 
L 192.136667 56.445431 
L 194.885585 56.559127 
L 197.634504 56.664131 
L 200.383422 56.760864 
L 203.13234 56.849753 
L 205.881258 56.931229 
L 208.630176 57.005725 
L 211.379095 57.073667 
L 214.128013 57.135474 
L 216.876931 57.191555 
L 219.625849 57.242305 
L 222.374768 57.288107 
L 225.123686 57.329328 
L 227.872604 57.366319 
L 230.621522 57.399411 
L 233.37044 57.428923 
L 236.119359 57.455152 
L 238.868277 57.47838 
L 241.617195 57.498871 
L 244.366113 57.516873 
L 247.115032 57.532616 
L 249.86395 57.546315 
L 252.612868 57.558169 
L 255.361786 57.568363 
L 258.110704 57.577068 
L 260.859623 57.58444 
L 263.608541 57.590624 
L 266.357459 57.595752 
L 269.106377 57.599945 
L 271.855296 57.603313 
L 274.604214 57.605956 
L 277.353132 57.607966 
L 280.10205 57.609425 
L 282.850968 57.610406 
L 285.599887 57.610978 
L 288.348805 57.611199 
L 291.097723 57.611124 
L 293.846641 57.6108 
L 296.59556 57.61027 
L 299.344478 57.609572 
L 302.093396 57.608738 
L 304.842314 57.607798 
L 307.591232 57.606778 
L 310.340151 57.605699 
L 313.089069 57.604581 
L 315.837987 57.60344 
L 318.586905 57.60229 
L 319.166492 57.602048 
" clip-path="url(#p72ccef5739)" style="fill: none; stroke: #2ca02c; stroke-linecap: square"/>
   </g>
   <g id="patch_3">
    <path d="M 30.530079 153.826131 
L 30.530079 10.8 
" style="fill: none; stroke: #000000; stroke-width: 0.8; stroke-linejoin: miter; stroke-linecap: square"/>
   </g>
   <g id="patch_4">
    <path d="M 332.911083 153.826131 
L 332.911083 10.8 
" style="fill: none; stroke: #000000; stroke-width: 0.8; stroke-linejoin: miter; stroke-linecap: square"/>
   </g>
   <g id="patch_5">
    <path d="M 30.530079 153.826131 
L 332.911083 153.826131 
" style="fill: none; stroke: #000000; stroke-width: 0.8; stroke-linejoin: miter; stroke-linecap: square"/>
   </g>
   <g id="patch_6">
    <path d="M 30.530079 10.8 
L 332.911083 10.8 
" style="fill: none; stroke: #000000; stroke-width: 0.8; stroke-linejoin: miter; stroke-linecap: square"/>
   </g>
   <g id="legend_1">
    <g id="patch_7">
     <path d="M 284.245927 148.826131 
L 325.911083 148.826131 
Q 327.911083 148.826131 327.911083 146.826131 
L 327.911083 106.014596 
Q 327.911083 104.014596 325.911083 104.014596 
L 284.245927 104.014596 
Q 282.245927 104.014596 282.245927 106.014596 
L 282.245927 146.826131 
Q 282.245927 148.826131 284.245927 148.826131 
z
" style="fill: #ffffff; opacity: 0.8; stroke: #cccccc; stroke-linejoin: miter"/>
    </g>
    <g id="line2d_24">
     <path d="M 286.245927 111.514596 
L 296.245927 111.514596 
L 306.245927 111.514596 
" style="fill: none; stroke: #1f77b4; stroke-linecap: square"/>
    </g>
    <g id="text_12">
     <!-- $x_1$ -->
     <g transform="translate(314.245927 115.014596) scale(0.1 -0.1)">
      <defs>
       <path id="CMMI12-78" d="M 3034 2624 
C 2829 2585 2752 2431 2752 2310 
C 2752 2156 2874 2105 2963 2105 
C 3155 2105 3290 2271 3290 2444 
C 3290 2694 2982 2816 2714 2816 
C 2323 2816 2106 2451 2048 2329 
C 1901 2790 1504 2816 1389 2816 
C 736 2816 390 1993 390 1849 
C 390 1823 416 1790 461 1790 
C 512 1790 525 1829 538 1855 
C 755 2572 1184 2687 1370 2687 
C 1658 2687 1715 2438 1715 2284 
C 1715 2143 1677 1993 1600 1678 
L 1382 778 
C 1286 390 1101 64 762 64 
C 730 64 570 64 435 126 
C 666 166 717 358 717 435 
C 717 563 621 640 499 640 
C 346 640 179 505 179 300 
C 179 57 480 -64 755 -64 
C 1062 -64 1280 153 1414 415 
C 1517 64 1837 -64 2074 -64 
C 2726 -64 3072 751 3072 896 
C 3072 929 3046 955 3008 955 
C 2950 955 2944 922 2925 870 
C 2752 300 2381 64 2093 64 
C 1869 64 1747 204 1747 467 
C 1747 607 1773 712 1875 1146 
L 2099 2039 
C 2195 2425 2413 2687 2707 2687 
C 2720 2687 2899 2687 3034 2624 
z
" transform="scale(0.015625)"/>
      </defs>
      <use xlink:href="#CMMI12-78" transform="scale(0.996264)"/>
      <use xlink:href="#CMR17-31" transform="translate(55.43406 -14.943915) scale(0.697382)"/>
     </g>
    </g>
    <g id="line2d_25">
     <path d="M 286.245927 125.451774 
L 296.245927 125.451774 
L 306.245927 125.451774 
" style="fill: none; stroke: #ff7f0e; stroke-linecap: square"/>
    </g>
    <g id="text_13">
     <!-- $x_2$ -->
     <g transform="translate(314.245927 128.951774) scale(0.1 -0.1)">
      <use xlink:href="#CMMI12-78" transform="scale(0.996264)"/>
      <use xlink:href="#CMR17-32" transform="translate(55.43406 -14.943915) scale(0.697382)"/>
     </g>
    </g>
    <g id="line2d_26">
     <path d="M 286.245927 139.388953 
L 296.245927 139.388953 
L 306.245927 139.388953 
" style="fill: none; stroke: #2ca02c; stroke-linecap: square"/>
    </g>
    <g id="text_14">
     <!-- $u$ -->
     <g transform="translate(314.245927 142.888953) scale(0.1 -0.1)">
      <defs>
       <path id="CMMI12-75" d="M 2182 370 
C 2266 12 2573 -64 2726 -64 
C 2931 -64 3085 70 3187 287 
C 3296 517 3379 893 3379 913 
C 3379 944 3354 970 3315 970 
C 3258 970 3251 938 3226 842 
C 3110 402 2995 64 2739 64 
C 2547 64 2547 274 2547 357 
C 2547 504 2566 568 2630 836 
C 2675 1008 2720 1181 2758 1359 
L 3021 2400 
C 3066 2560 3066 2572 3066 2591 
C 3066 2687 2989 2752 2893 2752 
C 2707 2752 2662 2591 2624 2432 
C 2560 2183 2214 810 2170 587 
C 2163 587 1914 64 1446 64 
C 1114 64 1050 351 1050 587 
C 1050 951 1229 1462 1395 1890 
C 1472 2094 1504 2177 1504 2305 
C 1504 2579 1306 2816 998 2816 
C 410 2816 173 1890 173 1838 
C 173 1813 198 1781 243 1781 
C 301 1781 307 1807 333 1896 
C 486 2445 736 2687 979 2687 
C 1043 2687 1146 2681 1146 2477 
C 1146 2311 1075 2126 979 1883 
C 698 1123 666 881 666 689 
C 666 38 1158 -64 1421 -64 
C 1830 -64 2054 217 2182 370 
z
" transform="scale(0.015625)"/>
      </defs>
      <use xlink:href="#CMMI12-75" transform="scale(0.996264)"/>
     </g>
    </g>
   </g>
  </g>
 </g>
 <defs>
  <clipPath id="p72ccef5739">
   <rect x="30.530079" y="10.8" width="302.381004" height="143.026131"/>
  </clipPath>
 </defs>
</svg>
