<?xml version="1.0" encoding="utf-8" standalone="no"?>
<!DOCTYPE svg PUBLIC "-//W3C//DTD SVG 1.1//EN"
  "http://www.w3.org/Graphics/SVG/1.1/DTD/svg11.dtd">
<!-- Created with matplotlib (https://matplotlib.org/) -->
<svg height="345.6pt" version="1.1" viewBox="0 0 460.8 345.6" width="460.8pt" xmlns="http://www.w3.org/2000/svg" xmlns:xlink="http://www.w3.org/1999/xlink">
 <defs>
  <style type="text/css">
*{stroke-linecap:butt;stroke-linejoin:round;}
  </style>
 </defs>
 <g id="figure_1">
  <g id="patch_1">
   <path d="M 0 345.6 
L 460.8 345.6 
L 460.8 0 
L 0 0 
z
" style="fill:#ffffff;"/>
  </g>
  <g id="axes_1">
   <g id="patch_2">
    <path d="M 60.91227 256.12 
L 447.48 256.12 
L 447.48 13.32 
L 60.91227 13.32 
z
" style="fill:#ffffff;"/>
   </g>
   <g id="matplotlib.axis_1">
    <g id="xtick_1">
     <g id="line2d_1">
      <defs>
       <path d="M 0 0 
L 0 3.5 
" id="m1dd28f29b1" style="stroke:#000000;stroke-width:0.8;"/>
      </defs>
      <g>
       <use style="stroke:#000000;stroke-width:0.8;" x="78.48353" xlink:href="#m1dd28f29b1" y="256.12"/>
      </g>
     </g>
     <g id="text_1">
      <!-- $0$ -->
      <defs>
       <path d="M 42 31.84375 
C 42 37.96875 41.90625 48.421875 37.703125 56.453125 
C 34 63.484375 28.09375 66 22.90625 66 
C 18.09375 66 12 63.78125 8.203125 56.5625 
C 4.203125 49.015625 3.796875 39.671875 3.796875 31.84375 
C 3.796875 26.109375 3.90625 17.375 7 9.734375 
C 11.296875 -0.609375 19 -2 22.90625 -2 
C 27.5 -2 34.5 -0.109375 38.59375 9.4375 
C 41.59375 16.375 42 24.5 42 31.84375 
z
M 22.90625 -0.40625 
C 16.5 -0.40625 12.703125 5.125 11.296875 12.75 
C 10.203125 18.6875 10.203125 27.328125 10.203125 32.953125 
C 10.203125 40.6875 10.203125 47.109375 11.5 53.234375 
C 13.40625 61.78125 19 64.390625 22.90625 64.390625 
C 27 64.390625 32.296875 61.671875 34.203125 53.4375 
C 35.5 47.71875 35.59375 40.984375 35.59375 32.953125 
C 35.59375 26.421875 35.59375 18.375 34.40625 12.453125 
C 32.296875 1.5 26.40625 -0.40625 22.90625 -0.40625 
z
" id="CMR17-48"/>
      </defs>
      <g transform="translate(70.487697 287.334752)scale(0.35 -0.35)">
       <use transform="scale(0.996264)" xlink:href="#CMR17-48"/>
      </g>
     </g>
    </g>
    <g id="xtick_2">
     <g id="line2d_2">
      <g>
       <use style="stroke:#000000;stroke-width:0.8;" x="254.196135" xlink:href="#m1dd28f29b1" y="256.12"/>
      </g>
     </g>
     <g id="text_2">
      <!-- $5$ -->
      <defs>
       <path d="M 11.40625 58.59375 
C 12.40625 58.1875 16.5 56.890625 20.703125 56.890625 
C 30 56.890625 35.09375 61.890625 38 64.6875 
C 38 65.484375 38 66 37.40625 66 
C 37.296875 66 37.09375 66 36.296875 65.59375 
C 32.796875 64.09375 28.703125 63 23.703125 63 
C 20.703125 63 16.203125 63.359375 11.296875 65.484375 
C 10.203125 66 10 66 9.90625 66 
C 9.40625 66 9.296875 65.890625 9.296875 63.90625 
L 9.296875 34.859375 
C 9.296875 33.015625 9.296875 32.5 10.296875 32.5 
C 10.796875 32.5 11 32.703125 11.5 33.421875 
C 14.703125 38.046875 19.09375 40 24.09375 40 
C 27.59375 40 35.09375 37.734375 35.09375 20.203125 
C 35.09375 16.984375 35.09375 11.1875 32.09375 6.59375 
C 29.59375 2.484375 25.703125 0.390625 21.40625 0.390625 
C 14.796875 0.390625 8.09375 4.984375 6.296875 12.6875 
C 6.703125 12.59375 7.5 12.390625 7.90625 12.390625 
C 9.203125 12.390625 11.703125 13.09375 11.703125 16.1875 
C 11.703125 18.890625 9.796875 20 7.90625 20 
C 5.59375 20 4.09375 18.59375 4.09375 15.796875 
C 4.09375 7.09375 11 -2 21.59375 -2 
C 31.90625 -2 41.703125 6.890625 41.703125 19.796875 
C 41.703125 32.09375 33.90625 41.59375 24.203125 41.59375 
C 19.09375 41.59375 14.796875 39.6875 11.40625 36 
z
" id="CMR17-53"/>
      </defs>
      <g transform="translate(246.200302 287.334752)scale(0.35 -0.35)">
       <use transform="scale(0.996264)" xlink:href="#CMR17-53"/>
      </g>
     </g>
    </g>
    <g id="xtick_3">
     <g id="line2d_3">
      <g>
       <use style="stroke:#000000;stroke-width:0.8;" x="429.90874" xlink:href="#m1dd28f29b1" y="256.12"/>
      </g>
     </g>
     <g id="text_3">
      <!-- $10$ -->
      <defs>
       <path d="M 26.59375 63.796875 
C 26.59375 65.890625 26.5 66 25.09375 66 
C 21.203125 61.359375 15.296875 59.890625 9.703125 59.6875 
C 9.40625 59.6875 8.90625 59.6875 8.796875 59.5 
C 8.703125 59.296875 8.703125 59.09375 8.703125 57 
C 11.796875 57 17 57.59375 21 59.984375 
L 21 7.296875 
C 21 3.796875 20.796875 2.59375 12.203125 2.59375 
L 9.203125 2.59375 
L 9.203125 0 
C 14 0.09375 19 0.1875 23.796875 0.1875 
C 28.59375 0.1875 33.59375 0.09375 38.40625 0 
L 38.40625 2.59375 
L 35.40625 2.59375 
C 26.796875 2.59375 26.59375 3.6875 26.59375 7.296875 
z
" id="CMR17-49"/>
      </defs>
      <g transform="translate(413.917073 287.334752)scale(0.35 -0.35)">
       <use transform="scale(0.996264)" xlink:href="#CMR17-49"/>
       <use transform="translate(45.690477 0)scale(0.996264)" xlink:href="#CMR17-48"/>
      </g>
     </g>
    </g>
    <g id="text_4">
     <!-- $t$ -->
     <defs>
      <path d="M 20.09375 40.09375 
L 29.296875 40.09375 
C 31.203125 40.09375 32.203125 40.09375 32.203125 41.890625 
C 32.203125 43 31.59375 43 29.59375 43 
L 20.796875 43 
L 24.5 57.25 
C 24.90625 58.625 24.90625 58.8125 24.90625 59.5 
C 24.90625 61.09375 23.59375 62 22.296875 62 
C 21.5 62 19.203125 61.6875 18.40625 58.53125 
L 14.5 43 
L 5.09375 43 
C 3.09375 43 2.203125 43 2.203125 41.09375 
C 2.203125 40.09375 2.90625 40.09375 4.796875 40.09375 
L 13.703125 40.09375 
L 7.09375 13.765625 
C 6.296875 10.265625 6 9.265625 6 7.96875 
C 6 3.28125 9.296875 -1 14.90625 -1 
C 25 -1 30.40625 13.5625 30.40625 14.265625 
C 30.40625 14.859375 30 15.15625 29.40625 15.15625 
C 29.203125 15.15625 28.796875 15.15625 28.59375 14.75 
C 28.5 14.65625 28.40625 14.5625 27.703125 12.96875 
C 25.59375 7.96875 21 1 15.203125 1 
C 12.203125 1 12 3.484375 12 5.6875 
C 12 5.78125 12 7.671875 12.296875 8.875 
z
" id="CMMI12-116"/>
     </defs>
     <g transform="translate(248.031531 322.331855)scale(0.35 -0.35)">
      <use transform="scale(0.996264)" xlink:href="#CMMI12-116"/>
     </g>
    </g>
   </g>
   <g id="matplotlib.axis_2">
    <g id="ytick_1">
     <g id="line2d_4">
      <defs>
       <path d="M 0 0 
L -3.5 0 
" id="mcd4653b73b" style="stroke:#000000;stroke-width:0.8;"/>
      </defs>
      <g>
       <use style="stroke:#000000;stroke-width:0.8;" x="60.91227" xlink:href="#mcd4653b73b" y="204.262736"/>
      </g>
     </g>
     <g id="text_5">
      <!-- $-2$ -->
      <defs>
       <path d="M 65.90625 23 
C 67.59375 23 69.40625 23 69.40625 25 
C 69.40625 27 67.59375 27 65.90625 27 
L 11.796875 27 
C 10.09375 27 8.296875 27 8.296875 25 
C 8.296875 23 10.09375 23 11.796875 23 
z
" id="CMSY10-0"/>
       <path d="M 41.703125 15.46875 
L 39.90625 15.46875 
C 38.90625 8.390625 38.09375 7.1875 37.703125 6.59375 
C 37.203125 5.796875 30 5.796875 28.59375 5.796875 
L 9.40625 5.796875 
C 13 9.6875 20 16.765625 28.5 24.9375 
C 34.59375 30.71875 41.703125 37.5 41.703125 47.390625 
C 41.703125 59.1875 32.296875 66 21.796875 66 
C 10.796875 66 4.09375 56.296875 4.09375 47.296875 
C 4.09375 43.390625 7 42.890625 8.203125 42.890625 
C 9.203125 42.890625 12.203125 43.484375 12.203125 46.984375 
C 12.203125 50.09375 9.59375 51 8.203125 51 
C 7.59375 51 7 50.890625 6.59375 50.6875 
C 8.5 59.1875 14.296875 63.390625 20.40625 63.390625 
C 29.09375 63.390625 34.796875 56.5 34.796875 47.390625 
C 34.796875 38.703125 29.703125 31.21875 24 24.734375 
L 4.09375 2.296875 
L 4.09375 0 
L 39.296875 0 
z
" id="CMR17-50"/>
      </defs>
      <g transform="translate(10.8 216.370112)scale(0.35 -0.35)">
       <use transform="scale(0.996264)" xlink:href="#CMSY10-0"/>
       <use transform="translate(77.487468 0)scale(0.996264)" xlink:href="#CMR17-50"/>
      </g>
     </g>
    </g>
    <g id="ytick_2">
     <g id="line2d_5">
      <g>
       <use style="stroke:#000000;stroke-width:0.8;" x="60.91227" xlink:href="#mcd4653b73b" y="92.737963"/>
      </g>
     </g>
     <g id="text_6">
      <!-- $0$ -->
      <g transform="translate(37.920603 104.845339)scale(0.35 -0.35)">
       <use transform="scale(0.996264)" xlink:href="#CMR17-48"/>
      </g>
     </g>
    </g>
   </g>
   <g id="line2d_6">
    <path clip-path="url(#p7bfc0adccc)" d="M 78.48353 36.975577 
L 81.256831 33.032711 
L 84.771083 29.24717 
L 88.285335 26.646142 
L 91.799588 25.06511 
L 95.31384 24.356364 
L 98.828092 24.387682 
L 102.342344 25.041081 
L 105.856596 26.211635 
L 109.370848 27.806358 
L 112.8851 29.743162 
L 116.399352 31.949876 
L 119.913604 34.36333 
L 123.427856 36.928503 
L 126.942108 39.597734 
L 130.45636 42.329985 
L 133.970613 45.090167 
L 137.484865 47.848517 
L 140.999117 50.580019 
L 144.513369 53.263884 
L 148.027621 55.883065 
L 151.541873 58.423821 
L 155.056125 60.875314 
L 158.570377 63.22925 
L 162.084629 65.479548 
L 165.598881 67.622045 
L 169.113133 69.65423 
L 172.627386 71.575002 
L 176.141638 73.384459 
L 179.65589 75.083702 
L 183.170142 76.674671 
L 186.684394 78.159989 
L 190.198646 79.542831 
L 193.712898 80.826808 
L 197.22715 82.015864 
L 200.741402 83.114186 
L 204.255654 84.126127 
L 207.769906 85.056141 
L 211.284159 85.908726 
L 214.798411 86.688373 
L 218.312663 87.399529 
L 221.826915 88.046562 
L 225.341167 88.633735 
L 228.855419 89.16518 
L 232.369671 89.644884 
L 235.883923 90.076675 
L 239.398175 90.464212 
L 242.912427 90.810976 
L 246.426679 91.120272 
L 249.940932 91.39522 
L 253.455184 91.63876 
L 256.969436 91.853654 
L 260.483688 92.042484 
L 263.99794 92.207665 
L 267.512192 92.351441 
L 271.026444 92.475897 
L 274.540696 92.582965 
L 278.054948 92.674428 
L 281.5692 92.751927 
L 285.083452 92.816974 
L 288.597705 92.870951 
L 292.111957 92.915123 
L 295.626209 92.950645 
L 299.140461 92.978567 
L 302.654713 92.999841 
L 306.168965 93.015329 
L 309.683217 93.02581 
L 313.197469 93.031982 
L 316.711721 93.034476 
L 320.225973 93.033853 
L 323.740225 93.030614 
L 327.254478 93.025206 
L 330.76873 93.018022 
L 334.282982 93.009412 
L 337.797234 92.999681 
L 341.311486 92.989096 
L 344.825738 92.97789 
L 348.33999 92.966266 
L 351.854242 92.954396 
L 355.368494 92.942427 
L 358.882746 92.930487 
L 362.396998 92.918679 
L 365.911251 92.907091 
L 369.425503 92.895794 
L 372.939755 92.884846 
L 376.454007 92.874292 
L 379.968259 92.864165 
L 383.482511 92.854491 
L 386.996763 92.845287 
L 390.511015 92.836561 
L 394.025267 92.828319 
L 397.539519 92.820559 
L 401.053771 92.813275 
L 404.568024 92.806458 
L 408.082276 92.800097 
L 411.596528 92.794178 
L 415.11078 92.788685 
L 418.625032 92.783599 
L 422.139284 92.778904 
L 425.653536 92.77458 
L 429.167788 92.770608 
L 429.90874 92.769813 
" style="fill:none;stroke:#000000;stroke-linecap:square;stroke-width:1.5;"/>
   </g>
   <g id="line2d_7">
    <path clip-path="url(#p7bfc0adccc)" d="M 78.48353 36.975577 
L 81.256831 48.366843 
L 84.771083 61.093998 
L 88.285335 72.087401 
L 91.799588 81.521922 
L 95.31384 89.558924 
L 98.828092 96.346928 
L 102.342344 102.022293 
L 105.856596 106.7099 
L 109.370848 110.523833 
L 112.8851 113.568045 
L 116.399352 115.937022 
L 119.913604 117.716415 
L 123.427856 118.983664 
L 126.942108 119.808592 
L 130.45636 120.253975 
L 133.970613 120.376089 
L 137.484865 120.225223 
L 140.999117 119.846176 
L 144.513369 119.278713 
L 148.027621 118.558005 
L 151.541873 117.715036 
L 155.056125 116.776983 
L 158.570377 115.767573 
L 162.084629 114.707416 
L 165.598881 113.614308 
L 169.113133 112.503517 
L 172.627386 111.388047 
L 176.141638 110.278875 
L 179.65589 109.185176 
L 183.170142 108.114522 
L 186.684394 107.073072 
L 190.198646 106.065735 
L 193.712898 105.096327 
L 197.22715 104.16771 
L 200.741402 103.281917 
L 204.255654 102.440263 
L 207.769906 101.64345 
L 211.284159 100.891657 
L 214.798411 100.184621 
L 218.312663 99.521712 
L 221.826915 98.901992 
L 225.341167 98.324279 
L 228.855419 97.787193 
L 232.369671 97.289199 
L 235.883923 96.828649 
L 239.398175 96.403814 
L 242.912427 96.012911 
L 246.426679 95.65413 
L 249.940932 95.325655 
L 253.455184 95.025678 
L 256.969436 94.75242 
L 260.483688 94.504138 
L 263.99794 94.279139 
L 267.512192 94.075783 
L 271.026444 93.892494 
L 274.540696 93.727763 
L 278.054948 93.580149 
L 281.5692 93.448284 
L 285.083452 93.330874 
L 288.597705 93.226697 
L 292.111957 93.134604 
L 295.626209 93.053517 
L 299.140461 92.982432 
L 302.654713 92.920409 
L 306.168965 92.866575 
L 309.683217 92.820124 
L 313.197469 92.780305 
L 316.711721 92.746431 
L 320.225973 92.717867 
L 323.740225 92.694029 
L 327.254478 92.674386 
L 330.76873 92.65845 
L 334.282982 92.645777 
L 337.797234 92.635966 
L 341.311486 92.628651 
L 344.825738 92.623502 
L 348.33999 92.620222 
L 351.854242 92.618544 
L 355.368494 92.618228 
L 358.882746 92.619061 
L 362.396998 92.620853 
L 365.911251 92.623434 
L 369.425503 92.626655 
L 372.939755 92.630385 
L 376.454007 92.634508 
L 379.968259 92.638926 
L 383.482511 92.643549 
L 386.996763 92.648303 
L 390.511015 92.653123 
L 394.025267 92.657956 
L 397.539519 92.662754 
L 401.053771 92.667478 
L 404.568024 92.672098 
L 408.082276 92.676588 
L 411.596528 92.680927 
L 415.11078 92.685098 
L 418.625032 92.689092 
L 422.139284 92.692899 
L 425.653536 92.696513 
L 429.167788 92.699933 
L 429.90874 92.70063 
" style="fill:none;stroke:#000000;stroke-dasharray:5.55,2.4;stroke-dashoffset:0;stroke-width:1.5;"/>
   </g>
   <g id="line2d_8">
    <path clip-path="url(#p7bfc0adccc)" d="M 78.48353 245.083636 
L 81.256831 229.296249 
L 84.771083 211.037712 
L 88.285335 194.597608 
L 91.799588 179.83757 
L 95.31384 166.62582 
L 98.828092 154.837334 
L 102.342344 144.353914 
L 105.856596 135.064187 
L 109.370848 126.863539 
L 112.8851 119.654004 
L 116.399352 113.344102 
L 119.913604 107.848649 
L 123.427856 103.088536 
L 126.942108 98.990488 
L 130.45636 95.486811 
L 133.970613 92.515121 
L 137.484865 90.018079 
L 140.999117 87.943106 
L 144.513369 86.242115 
L 148.027621 84.871236 
L 151.541873 83.790545 
L 155.056125 82.963808 
L 158.570377 82.358221 
L 162.084629 81.94417 
L 165.598881 81.694992 
L 169.113133 81.586753 
L 172.627386 81.598032 
L 176.141638 81.709717 
L 179.65589 81.904816 
L 183.170142 82.168274 
L 186.684394 82.486801 
L 190.198646 82.848718 
L 193.712898 83.243804 
L 197.22715 83.663159 
L 200.741402 84.099076 
L 204.255654 84.544923 
L 207.769906 84.995029 
L 211.284159 85.444588 
L 214.798411 85.889563 
L 218.312663 86.3266 
L 221.826915 86.752953 
L 225.341167 87.166408 
L 228.855419 87.565224 
L 232.369671 87.948071 
L 235.883923 88.313975 
L 239.398175 88.662275 
L 242.912427 88.992574 
L 246.426679 89.304705 
L 249.940932 89.598693 
L 253.455184 89.874728 
L 256.969436 90.133132 
L 260.483688 90.374337 
L 263.99794 90.598868 
L 267.512192 90.807314 
L 271.026444 91.000323 
L 274.540696 91.178578 
L 278.054948 91.34279 
L 281.5692 91.493687 
L 285.083452 91.632001 
L 288.597705 91.758464 
L 292.111957 91.873802 
L 295.626209 91.978725 
L 299.140461 92.073927 
L 302.654713 92.16008 
L 306.168965 92.237834 
L 309.683217 92.307811 
L 313.197469 92.370605 
L 316.711721 92.426783 
L 320.225973 92.476881 
L 323.740225 92.521408 
L 327.254478 92.560839 
L 330.76873 92.595625 
L 334.282982 92.626185 
L 337.797234 92.65291 
L 341.311486 92.676165 
L 344.825738 92.696288 
L 348.33999 92.713594 
L 351.854242 92.728371 
L 355.368494 92.740886 
L 358.882746 92.751383 
L 362.396998 92.760089 
L 365.911251 92.767206 
L 369.425503 92.772924 
L 372.939755 92.777411 
L 376.454007 92.780823 
L 379.968259 92.783299 
L 383.482511 92.784966 
L 386.996763 92.785936 
L 390.511015 92.786312 
L 394.025267 92.786184 
L 397.539519 92.785634 
L 401.053771 92.784735 
L 404.568024 92.783549 
L 408.082276 92.782134 
L 411.596528 92.780538 
L 415.11078 92.778806 
L 418.625032 92.776975 
L 422.139284 92.775077 
L 425.653536 92.77314 
L 429.167788 92.771188 
L 429.90874 92.770777 
" style="fill:none;stroke:#000000;stroke-dasharray:1.5,2.475;stroke-dashoffset:0;stroke-width:1.5;"/>
   </g>
   <g id="patch_3">
    <path d="M 60.91227 256.12 
L 60.91227 13.32 
" style="fill:none;stroke:#000000;stroke-linecap:square;stroke-linejoin:miter;stroke-width:0.8;"/>
   </g>
   <g id="patch_4">
    <path d="M 447.48 256.12 
L 447.48 13.32 
" style="fill:none;stroke:#000000;stroke-linecap:square;stroke-linejoin:miter;stroke-width:0.8;"/>
   </g>
   <g id="patch_5">
    <path d="M 60.91227 256.12 
L 447.48 256.12 
" style="fill:none;stroke:#000000;stroke-linecap:square;stroke-linejoin:miter;stroke-width:0.8;"/>
   </g>
   <g id="patch_6">
    <path d="M 60.91227 13.32 
L 447.48 13.32 
" style="fill:none;stroke:#000000;stroke-linecap:square;stroke-linejoin:miter;stroke-width:0.8;"/>
   </g>
   <g id="legend_1">
    <g id="patch_7">
     <path d="M 85.41227 238.62 
L 228.008289 238.62 
Q 235.008289 238.62 235.008289 231.62 
L 235.008289 88.772946 
Q 235.008289 81.772946 228.008289 81.772946 
L 85.41227 81.772946 
Q 78.41227 81.772946 78.41227 88.772946 
L 78.41227 231.62 
Q 78.41227 238.62 85.41227 238.62 
z
" style="fill:#ffffff;opacity:0.8;stroke:#cccccc;stroke-linejoin:miter;"/>
    </g>
    <g id="line2d_9">
     <path d="M 92.41227 108.022946 
L 162.41227 108.022946 
" style="fill:none;stroke:#000000;stroke-linecap:square;stroke-width:1.5;"/>
    </g>
    <g id="line2d_10"/>
    <g id="text_7">
     <!-- $x_1$ -->
     <defs>
      <path d="M 47.40625 41 
C 44.203125 40.390625 43 37.984375 43 36.09375 
C 43 33.6875 44.90625 32.890625 46.296875 32.890625 
C 49.296875 32.890625 51.40625 35.484375 51.40625 38.1875 
C 51.40625 42.09375 46.59375 44 42.40625 44 
C 36.296875 44 32.90625 38.296875 32 36.390625 
C 29.703125 43.59375 23.5 44 21.703125 44 
C 11.5 44 6.09375 31.140625 6.09375 28.890625 
C 6.09375 28.484375 6.5 27.96875 7.203125 27.96875 
C 8 27.96875 8.203125 28.578125 8.40625 28.984375 
C 11.796875 40.1875 18.5 41.984375 21.40625 41.984375 
C 25.90625 41.984375 26.796875 38.09375 26.796875 35.6875 
C 26.796875 33.484375 26.203125 31.140625 25 26.21875 
L 21.59375 12.15625 
C 20.09375 6.09375 17.203125 1 11.90625 1 
C 11.40625 1 8.90625 1 6.796875 1.96875 
C 10.40625 2.59375 11.203125 5.59375 11.203125 6.796875 
C 11.203125 8.796875 9.703125 10 7.796875 10 
C 5.40625 10 2.796875 7.890625 2.796875 4.6875 
C 2.796875 0.890625 7.5 -1 11.796875 -1 
C 16.59375 -1 20 2.390625 22.09375 6.484375 
C 23.703125 1 28.703125 -1 32.40625 -1 
C 42.59375 -1 48 11.734375 48 14 
C 48 14.515625 47.59375 14.921875 47 14.921875 
C 46.09375 14.921875 46 14.40625 45.703125 13.59375 
C 43 4.6875 37.203125 1 32.703125 1 
C 29.203125 1 27.296875 3.1875 27.296875 7.296875 
C 27.296875 9.484375 27.703125 11.125 29.296875 17.90625 
L 32.796875 31.859375 
C 34.296875 37.890625 37.703125 41.984375 42.296875 41.984375 
C 42.5 41.984375 45.296875 41.984375 47.40625 41 
z
" id="CMMI12-120"/>
     </defs>
     <g transform="translate(190.41227 120.272946)scale(0.35 -0.35)">
      <use transform="translate(0 14.943915)scale(0.996264)" xlink:href="#CMMI12-120"/>
      <use transform="translate(55.43406 0)scale(0.697382)" xlink:href="#CMR17-49"/>
     </g>
    </g>
    <g id="line2d_11">
     <path d="M 92.41227 156.805298 
L 162.41227 156.805298 
" style="fill:none;stroke:#000000;stroke-dasharray:5.55,2.4;stroke-dashoffset:0;stroke-width:1.5;"/>
    </g>
    <g id="line2d_12"/>
    <g id="text_8">
     <!-- $x_2$ -->
     <g transform="translate(190.41227 169.055298)scale(0.35 -0.35)">
      <use transform="translate(0 14.943915)scale(0.996264)" xlink:href="#CMMI12-120"/>
      <use transform="translate(55.43406 0)scale(0.697382)" xlink:href="#CMR17-50"/>
     </g>
    </g>
    <g id="line2d_13">
     <path d="M 92.41227 205.587649 
L 162.41227 205.587649 
" style="fill:none;stroke:#000000;stroke-dasharray:1.5,2.475;stroke-dashoffset:0;stroke-width:1.5;"/>
    </g>
    <g id="line2d_14"/>
    <g id="text_9">
     <!-- $u$ -->
     <defs>
      <path d="M 34.09375 5.78125 
C 35.40625 0.1875 40.203125 -1 42.59375 -1 
C 45.796875 -1 48.203125 1.09375 49.796875 4.484375 
C 51.5 8.078125 52.796875 13.953125 52.796875 14.265625 
C 52.796875 14.75 52.40625 15.15625 51.796875 15.15625 
C 50.90625 15.15625 50.796875 14.65625 50.40625 13.15625 
C 48.59375 6.28125 46.796875 1 42.796875 1 
C 39.796875 1 39.796875 4.28125 39.796875 5.578125 
C 39.796875 7.875 40.09375 8.875 41.09375 13.0625 
C 41.796875 15.75 42.5 18.453125 43.09375 21.234375 
L 47.203125 37.5 
C 47.90625 40 47.90625 40.1875 47.90625 40.484375 
C 47.90625 41.984375 46.703125 43 45.203125 43 
C 42.296875 43 41.59375 40.484375 41 38 
C 40 34.109375 34.59375 12.65625 33.90625 9.171875 
C 33.796875 9.171875 29.90625 1 22.59375 1 
C 17.40625 1 16.40625 5.484375 16.40625 9.171875 
C 16.40625 14.859375 19.203125 22.84375 21.796875 29.53125 
C 23 32.71875 23.5 34.015625 23.5 36.015625 
C 23.5 40.296875 20.40625 44 15.59375 44 
C 6.40625 44 2.703125 29.53125 2.703125 28.71875 
C 2.703125 28.328125 3.09375 27.828125 3.796875 27.828125 
C 4.703125 27.828125 4.796875 28.234375 5.203125 29.625 
C 7.59375 38.203125 11.5 41.984375 15.296875 41.984375 
C 16.296875 41.984375 17.90625 41.890625 17.90625 38.703125 
C 17.90625 36.109375 16.796875 33.21875 15.296875 29.421875 
C 10.90625 17.546875 10.40625 13.765625 10.40625 10.765625 
C 10.40625 0.59375 18.09375 -1 22.203125 -1 
C 28.59375 -1 32.09375 3.390625 34.09375 5.78125 
z
" id="CMMI12-117"/>
     </defs>
     <g transform="translate(190.41227 217.837649)scale(0.35 -0.35)">
      <use transform="scale(0.996264)" xlink:href="#CMMI12-117"/>
     </g>
    </g>
   </g>
  </g>
 </g>
 <defs>
  <clipPath id="p7bfc0adccc">
   <rect height="242.8" width="386.56773" x="60.91227" y="13.32"/>
  </clipPath>
 </defs>
</svg>
