<?xml version="1.0" encoding="utf-8" standalone="no"?>
<!DOCTYPE svg PUBLIC "-//W3C//DTD SVG 1.1//EN"
  "http://www.w3.org/Graphics/SVG/1.1/DTD/svg11.dtd">
<!-- Created with matplotlib (https://matplotlib.org/) -->
<svg height="345.6pt" version="1.1" viewBox="0 0 460.8 345.6" width="460.8pt" xmlns="http://www.w3.org/2000/svg" xmlns:xlink="http://www.w3.org/1999/xlink">
 <defs>
  <style type="text/css">
*{stroke-linecap:butt;stroke-linejoin:round;}
  </style>
 </defs>
 <g id="figure_1">
  <g id="patch_1">
   <path d="M 0 345.6 
L 460.8 345.6 
L 460.8 0 
L 0 0 
z
" style="fill:#ffffff;"/>
  </g>
  <g id="axes_1">
   <g id="patch_2">
    <path d="M 60.91227 296.802897 
L 450 296.802897 
L 450 10.8 
L 60.91227 10.8 
z
" style="fill:#ffffff;"/>
   </g>
   <g id="matplotlib.axis_1">
    <g id="xtick_1">
     <g id="line2d_1">
      <path clip-path="url(#pe650051060)" d="M 78.598076 296.802897 
L 78.598076 10.8 
" style="fill:none;stroke:#b0b0b0;stroke-linecap:square;stroke-width:0.8;"/>
     </g>
     <g id="line2d_2">
      <defs>
       <path d="M 0 0 
L 0 3.5 
" id="me626a5c46c" style="stroke:#000000;stroke-width:0.8;"/>
      </defs>
      <g>
       <use style="stroke:#000000;stroke-width:0.8;" x="78.598076" xlink:href="#me626a5c46c" y="296.802897"/>
      </g>
     </g>
     <g id="text_1">
      <!-- $0$ -->
      <defs>
       <path d="M 42 31.84375 
C 42 37.96875 41.90625 48.421875 37.703125 56.453125 
C 34 63.484375 28.09375 66 22.90625 66 
C 18.09375 66 12 63.78125 8.203125 56.5625 
C 4.203125 49.015625 3.796875 39.671875 3.796875 31.84375 
C 3.796875 26.109375 3.90625 17.375 7 9.734375 
C 11.296875 -0.609375 19 -2 22.90625 -2 
C 27.5 -2 34.5 -0.109375 38.59375 9.4375 
C 41.59375 16.375 42 24.5 42 31.84375 
z
M 22.90625 -0.40625 
C 16.5 -0.40625 12.703125 5.125 11.296875 12.75 
C 10.203125 18.6875 10.203125 27.328125 10.203125 32.953125 
C 10.203125 40.6875 10.203125 47.109375 11.5 53.234375 
C 13.40625 61.78125 19 64.390625 22.90625 64.390625 
C 27 64.390625 32.296875 61.671875 34.203125 53.4375 
C 35.5 47.71875 35.59375 40.984375 35.59375 32.953125 
C 35.59375 26.421875 35.59375 18.375 34.40625 12.453125 
C 32.296875 1.5 26.40625 -0.40625 22.90625 -0.40625 
z
" id="CMR17-48"/>
      </defs>
      <g transform="translate(70.602242 328.017649)scale(0.35 -0.35)">
       <use transform="scale(0.996264)" xlink:href="#CMR17-48"/>
      </g>
     </g>
    </g>
    <g id="xtick_2">
     <g id="line2d_3">
      <path clip-path="url(#pe650051060)" d="M 220.084523 296.802897 
L 220.084523 10.8 
" style="fill:none;stroke:#b0b0b0;stroke-linecap:square;stroke-width:0.8;"/>
     </g>
     <g id="line2d_4">
      <g>
       <use style="stroke:#000000;stroke-width:0.8;" x="220.084523" xlink:href="#me626a5c46c" y="296.802897"/>
      </g>
     </g>
     <g id="text_2">
      <!-- $2$ -->
      <defs>
       <path d="M 41.703125 15.46875 
L 39.90625 15.46875 
C 38.90625 8.390625 38.09375 7.1875 37.703125 6.59375 
C 37.203125 5.796875 30 5.796875 28.59375 5.796875 
L 9.40625 5.796875 
C 13 9.6875 20 16.765625 28.5 24.9375 
C 34.59375 30.71875 41.703125 37.5 41.703125 47.390625 
C 41.703125 59.1875 32.296875 66 21.796875 66 
C 10.796875 66 4.09375 56.296875 4.09375 47.296875 
C 4.09375 43.390625 7 42.890625 8.203125 42.890625 
C 9.203125 42.890625 12.203125 43.484375 12.203125 46.984375 
C 12.203125 50.09375 9.59375 51 8.203125 51 
C 7.59375 51 7 50.890625 6.59375 50.6875 
C 8.5 59.1875 14.296875 63.390625 20.40625 63.390625 
C 29.09375 63.390625 34.796875 56.5 34.796875 47.390625 
C 34.796875 38.703125 29.703125 31.21875 24 24.734375 
L 4.09375 2.296875 
L 4.09375 0 
L 39.296875 0 
z
" id="CMR17-50"/>
      </defs>
      <g transform="translate(212.08869 328.017649)scale(0.35 -0.35)">
       <use transform="scale(0.996264)" xlink:href="#CMR17-50"/>
      </g>
     </g>
    </g>
    <g id="xtick_3">
     <g id="line2d_5">
      <path clip-path="url(#pe650051060)" d="M 361.57097 296.802897 
L 361.57097 10.8 
" style="fill:none;stroke:#b0b0b0;stroke-linecap:square;stroke-width:0.8;"/>
     </g>
     <g id="line2d_6">
      <g>
       <use style="stroke:#000000;stroke-width:0.8;" x="361.57097" xlink:href="#me626a5c46c" y="296.802897"/>
      </g>
     </g>
     <g id="text_3">
      <!-- $4$ -->
      <defs>
       <path d="M 33.59375 64.796875 
C 33.59375 66.890625 33.5 67 31.703125 67 
L 2 19.59375 
L 2 17 
L 27.796875 17 
L 27.796875 7.1875 
C 27.796875 3.59375 27.59375 2.59375 20.59375 2.59375 
L 18.703125 2.59375 
L 18.703125 0 
C 21.90625 0.1875 27.296875 0.1875 30.703125 0.1875 
C 34.09375 0.1875 39.5 0.1875 42.703125 0 
L 42.703125 2.59375 
L 40.796875 2.59375 
C 33.796875 2.59375 33.59375 3.59375 33.59375 7.1875 
L 33.59375 17 
L 43.796875 17 
L 43.796875 19.59375 
L 33.59375 19.59375 
z
M 28.09375 58.171875 
L 28.09375 19.59375 
L 4 19.59375 
z
" id="CMR17-52"/>
      </defs>
      <g transform="translate(353.575137 328.017649)scale(0.35 -0.35)">
       <use transform="scale(0.996264)" xlink:href="#CMR17-52"/>
      </g>
     </g>
    </g>
   </g>
   <g id="matplotlib.axis_2">
    <g id="ytick_1">
     <g id="line2d_7">
      <path clip-path="url(#pe650051060)" d="M 60.91227 283.700772 
L 450 283.700772 
" style="fill:none;stroke:#b0b0b0;stroke-linecap:square;stroke-width:0.8;"/>
     </g>
     <g id="line2d_8">
      <defs>
       <path d="M 0 0 
L -3.5 0 
" id="m092959aca5" style="stroke:#000000;stroke-width:0.8;"/>
      </defs>
      <g>
       <use style="stroke:#000000;stroke-width:0.8;" x="60.91227" xlink:href="#m092959aca5" y="283.700772"/>
      </g>
     </g>
     <g id="text_4">
      <!-- $-1$ -->
      <defs>
       <path d="M 65.90625 23 
C 67.59375 23 69.40625 23 69.40625 25 
C 69.40625 27 67.59375 27 65.90625 27 
L 11.796875 27 
C 10.09375 27 8.296875 27 8.296875 25 
C 8.296875 23 10.09375 23 11.796875 23 
z
" id="CMSY10-0"/>
       <path d="M 26.59375 63.796875 
C 26.59375 65.890625 26.5 66 25.09375 66 
C 21.203125 61.359375 15.296875 59.890625 9.703125 59.6875 
C 9.40625 59.6875 8.90625 59.6875 8.796875 59.5 
C 8.703125 59.296875 8.703125 59.09375 8.703125 57 
C 11.796875 57 17 57.59375 21 59.984375 
L 21 7.296875 
C 21 3.796875 20.796875 2.59375 12.203125 2.59375 
L 9.203125 2.59375 
L 9.203125 0 
C 14 0.09375 19 0.1875 23.796875 0.1875 
C 28.59375 0.1875 33.59375 0.09375 38.40625 0 
L 38.40625 2.59375 
L 35.40625 2.59375 
C 26.796875 2.59375 26.59375 3.6875 26.59375 7.296875 
z
" id="CMR17-49"/>
      </defs>
      <g transform="translate(10.8 295.808148)scale(0.35 -0.35)">
       <use transform="scale(0.996264)" xlink:href="#CMSY10-0"/>
       <use transform="translate(77.487468 0)scale(0.996264)" xlink:href="#CMR17-49"/>
      </g>
     </g>
    </g>
    <g id="ytick_2">
     <g id="line2d_9">
      <path clip-path="url(#pe650051060)" d="M 60.91227 153.903554 
L 450 153.903554 
" style="fill:none;stroke:#b0b0b0;stroke-linecap:square;stroke-width:0.8;"/>
     </g>
     <g id="line2d_10">
      <g>
       <use style="stroke:#000000;stroke-width:0.8;" x="60.91227" xlink:href="#m092959aca5" y="153.903554"/>
      </g>
     </g>
     <g id="text_5">
      <!-- $0$ -->
      <g transform="translate(37.920603 166.01093)scale(0.35 -0.35)">
       <use transform="scale(0.996264)" xlink:href="#CMR17-48"/>
      </g>
     </g>
    </g>
    <g id="ytick_3">
     <g id="line2d_11">
      <path clip-path="url(#pe650051060)" d="M 60.91227 24.106335 
L 450 24.106335 
" style="fill:none;stroke:#b0b0b0;stroke-linecap:square;stroke-width:0.8;"/>
     </g>
     <g id="line2d_12">
      <g>
       <use style="stroke:#000000;stroke-width:0.8;" x="60.91227" xlink:href="#m092959aca5" y="24.106335"/>
      </g>
     </g>
     <g id="text_6">
      <!-- $1$ -->
      <g transform="translate(37.920603 36.213711)scale(0.35 -0.35)">
       <use transform="scale(0.996264)" xlink:href="#CMR17-49"/>
      </g>
     </g>
    </g>
   </g>
   <g id="line2d_13">
    <path clip-path="url(#pe650051060)" d="M 78.598076 283.700772 
L 81.498548 283.594352 
L 84.39902 283.269943 
L 87.370236 282.712156 
L 90.341451 281.927156 
L 93.38341 280.889511 
L 96.425368 279.617056 
L 99.53807 278.074391 
L 102.721515 276.248003 
L 105.975703 274.124946 
L 109.371378 271.638375 
L 112.837796 268.820173 
L 116.445701 265.593914 
L 120.124348 262.005236 
L 123.944482 257.96915 
L 127.976846 253.379709 
L 132.150696 248.288829 
L 136.536776 242.585159 
L 141.205829 236.13918 
L 146.157855 228.911405 
L 151.392853 220.871334 
L 157.052311 211.767732 
L 163.348458 201.206815 
L 170.493523 188.771901 
L 179.19494 173.159461 
L 194.263247 145.569079 
L 206.431081 123.501885 
L 214.495809 109.328824 
L 221.287158 97.833902 
L 227.300332 88.082918 
L 232.818303 79.550771 
L 237.911816 72.074533 
L 242.722355 65.401866 
L 247.249921 59.494466 
L 251.565258 54.223111 
L 255.668365 49.554322 
L 259.629985 45.379106 
L 263.450119 41.674887 
L 267.128767 38.41679 
L 270.665928 35.578177 
L 274.061603 33.131143 
L 277.386534 31.004519 
L 280.640723 29.185855 
L 283.824168 27.661943 
L 286.93687 26.418954 
L 289.978828 25.442574 
L 292.950044 24.718121 
L 295.921259 24.221492 
L 298.892474 23.953572 
L 301.792946 23.913101 
L 304.693419 24.091116 
L 307.593891 24.487327 
L 310.565106 25.118756 
L 313.536322 25.977359 
L 316.57828 27.090183 
L 319.690982 28.471606 
L 322.803684 30.095891 
L 325.987129 32.00503 
L 329.31206 34.262549 
L 332.707735 36.840908 
L 336.244896 39.813492 
L 339.852801 43.13941 
L 343.602192 46.901016 
L 347.493069 51.122363 
L 351.525433 55.82529 
L 355.770026 61.119895 
L 360.226849 67.038608 
L 364.966645 73.711136 
L 369.989414 81.174563 
L 375.365899 89.569263 
L 381.237587 99.16045 
L 387.745963 110.230148 
L 395.244745 123.437586 
L 404.865823 140.864988 
L 431.606762 189.564294 
L 432.314194 190.81407 
L 432.314194 190.81407 
" style="fill:none;stroke:#1f77b4;stroke-linecap:square;stroke-width:1.5;"/>
   </g>
   <g id="line2d_14">
    <path clip-path="url(#pe650051060)" d="M 78.598076 153.903554 
L 94.232328 182.358941 
L 102.509286 196.951691 
L 109.371378 208.613333 
L 115.455295 218.526634 
L 121.04401 227.214545 
L 126.208265 234.837865 
L 131.018805 241.552501 
L 135.617114 247.593008 
L 139.932451 252.90267 
L 144.106301 257.688389 
L 148.067922 261.897175 
L 151.888056 265.635344 
L 155.566703 268.927506 
L 159.103864 271.800056 
L 162.570282 274.329432 
L 165.895214 276.484123 
L 169.149402 278.33094 
L 172.332847 279.882989 
L 175.445549 281.154004 
L 178.487508 282.158213 
L 181.458723 282.910218 
L 184.429938 283.434715 
L 187.401154 283.73077 
L 190.301626 283.798917 
L 193.202098 283.648739 
L 196.10257 283.280479 
L 199.073786 282.677752 
L 202.045001 281.847871 
L 205.08696 280.76442 
L 208.128918 279.446388 
L 211.24162 277.857411 
L 214.425065 275.984092 
L 217.679254 273.813611 
L 221.074928 271.278257 
L 224.541346 268.411109 
L 228.149251 265.134948 
L 231.898642 261.423765 
L 235.789519 257.253207 
L 239.821883 252.601103 
L 244.066476 247.357822 
L 248.523299 241.490403 
L 253.192352 234.970854 
L 258.144378 227.670611 
L 263.450119 219.448378 
L 269.251064 210.038003 
L 275.617954 199.276842 
L 282.975249 186.388861 
L 292.101125 169.929021 
L 322.520711 114.684722 
L 329.73652 102.263387 
L 336.032667 91.858334 
L 341.762868 82.812605 
L 346.997866 74.954025 
L 351.949892 67.916751 
L 356.618945 61.666344 
L 361.005025 56.159772 
L 365.178875 51.267824 
L 369.211239 46.880483 
L 373.031373 43.044276 
L 376.71002 39.655295 
L 380.317925 36.631275 
L 383.784343 34.012871 
L 387.180017 31.726798 
L 390.434206 29.799914 
L 393.617651 28.16887 
L 396.730353 26.820132 
L 399.772311 25.73965 
L 402.81427 24.896064 
L 405.785485 24.302301 
L 408.756701 23.9371 
L 411.657173 23.801687 
L 414.557645 23.884943 
L 417.458117 24.186738 
L 420.429333 24.721969 
L 423.400548 25.48507 
L 426.442507 26.501015 
L 429.484465 27.75254 
L 432.314194 29.126235 
L 432.314194 29.126235 
" style="fill:none;stroke:#ff7f0e;stroke-linecap:square;stroke-width:1.5;"/>
   </g>
   <g id="patch_3">
    <path d="M 60.91227 296.802897 
L 60.91227 10.8 
" style="fill:none;stroke:#000000;stroke-linecap:square;stroke-linejoin:miter;stroke-width:0.8;"/>
   </g>
   <g id="patch_4">
    <path d="M 450 296.802897 
L 450 10.8 
" style="fill:none;stroke:#000000;stroke-linecap:square;stroke-linejoin:miter;stroke-width:0.8;"/>
   </g>
   <g id="patch_5">
    <path d="M 60.91227 296.802897 
L 450 296.802897 
" style="fill:none;stroke:#000000;stroke-linecap:square;stroke-linejoin:miter;stroke-width:0.8;"/>
   </g>
   <g id="patch_6">
    <path d="M 60.91227 10.8 
L 450 10.8 
" style="fill:none;stroke:#000000;stroke-linecap:square;stroke-linejoin:miter;stroke-width:0.8;"/>
   </g>
  </g>
 </g>
 <defs>
  <clipPath id="pe650051060">
   <rect height="286.002897" width="389.08773" x="60.91227" y="10.8"/>
  </clipPath>
 </defs>
</svg>
