<?xml version="1.0" encoding="utf-8" standalone="no"?>
<!DOCTYPE svg PUBLIC "-//W3C//DTD SVG 1.1//EN"
  "http://www.w3.org/Graphics/SVG/1.1/DTD/svg11.dtd">
<svg xmlns:xlink="http://www.w3.org/1999/xlink" width="343.711083pt" height="193.337484pt" viewBox="0 0 343.711083 193.337484" xmlns="http://www.w3.org/2000/svg" version="1.1">
 <metadata>
  <rdf:RDF xmlns:dc="http://purl.org/dc/elements/1.1/" xmlns:cc="http://creativecommons.org/ns#" xmlns:rdf="http://www.w3.org/1999/02/22-rdf-syntax-ns#">
   <cc:Work>
    <dc:type rdf:resource="http://purl.org/dc/dcmitype/StillImage"/>
    <dc:date>2026-02-12T22:39:43.888364</dc:date>
    <dc:format>image/svg+xml</dc:format>
    <dc:creator>
     <cc:Agent>
      <dc:title>Matplotlib v3.10.0, https://matplotlib.org/</dc:title>
     </cc:Agent>
    </dc:creator>
   </cc:Work>
  </rdf:RDF>
 </metadata>
 <defs>
  <style type="text/css">*{stroke-linejoin: round; stroke-linecap: butt}</style>
 </defs>
 <g id="figure_1">
  <g id="patch_1">
   <path d="M 0 193.337484 
L 343.711083 193.337484 
L 343.711083 0 
L 0 0 
z
" style="fill: #ffffff"/>
  </g>
  <g id="axes_1">
   <g id="patch_2">
    <path d="M 38.278823 166.681808 
L 330.420416 166.681808 
L 330.420416 10.8 
L 38.278823 10.8 
z
" style="fill: #ffffff"/>
   </g>
   <g id="matplotlib.axis_1">
    <g id="xtick_1">
     <g id="line2d_1">
      <path d="M 44.888262 166.681808 
L 44.888262 10.8 
" clip-path="url(#pf8c6bb9b71)" style="fill: none; stroke: #b0b0b0; stroke-width: 0.8; stroke-linecap: square"/>
     </g>
     <g id="line2d_2">
      <defs>
       <path id="m653eefda7f" d="M 0 0 
L 0 3.5 
" style="stroke: #000000; stroke-width: 0.8"/>
      </defs>
      <g>
       <use xlink:href="#m653eefda7f" x="44.888262" y="166.681808" style="stroke: #000000; stroke-width: 0.8"/>
      </g>
     </g>
     <g id="text_1">
      <!-- $\mathdefault{−3}$ -->
      <g transform="translate(38.523222 180.600306) scale(0.1 -0.1)">
       <defs>
        <path id="CMSY10-0" d="M 4218 1472 
C 4326 1472 4442 1472 4442 1600 
C 4442 1728 4326 1728 4218 1728 
L 755 1728 
C 646 1728 531 1728 531 1600 
C 531 1472 646 1472 755 1472 
L 4218 1472 
z
" transform="scale(0.015625)"/>
        <path id="CMR17-33" d="M 1414 2176 
C 1984 2176 2234 1673 2234 1094 
C 2234 322 1824 25 1453 25 
C 1114 25 563 193 390 691 
C 422 678 454 678 486 678 
C 640 678 755 780 755 947 
C 755 1132 614 1216 486 1216 
C 378 1216 211 1164 211 927 
C 211 335 787 -128 1466 -128 
C 2176 -128 2720 432 2720 1087 
C 2720 1718 2208 2176 1600 2246 
C 2086 2347 2554 2776 2554 3353 
C 2554 3856 2048 4224 1472 4224 
C 890 4224 378 3862 378 3347 
C 378 3123 544 3084 627 3084 
C 762 3084 877 3167 877 3334 
C 877 3500 762 3584 627 3584 
C 602 3584 570 3584 544 3571 
C 730 3999 1235 4076 1459 4076 
C 1683 4076 2106 3966 2106 3347 
C 2106 3167 2080 2851 1862 2574 
C 1670 2329 1453 2316 1242 2297 
C 1210 2297 1062 2284 1037 2284 
C 992 2278 966 2272 966 2227 
C 966 2182 973 2176 1101 2176 
L 1414 2176 
z
" transform="scale(0.015625)"/>
       </defs>
       <use xlink:href="#CMSY10-0" transform="scale(0.996264)"/>
       <use xlink:href="#CMR17-33" transform="translate(77.487468 0) scale(0.996264)"/>
      </g>
     </g>
    </g>
    <g id="xtick_2">
     <g id="line2d_3">
      <path d="M 91.375381 166.681808 
L 91.375381 10.8 
" clip-path="url(#pf8c6bb9b71)" style="fill: none; stroke: #b0b0b0; stroke-width: 0.8; stroke-linecap: square"/>
     </g>
     <g id="line2d_4">
      <g>
       <use xlink:href="#m653eefda7f" x="91.375381" y="166.681808" style="stroke: #000000; stroke-width: 0.8"/>
      </g>
     </g>
     <g id="text_2">
      <!-- $\mathdefault{−2}$ -->
      <g transform="translate(85.010341 180.600306) scale(0.1 -0.1)">
       <defs>
        <path id="CMR17-32" d="M 2669 990 
L 2554 990 
C 2490 537 2438 460 2413 422 
C 2381 371 1920 371 1830 371 
L 602 371 
C 832 620 1280 1073 1824 1596 
C 2214 1966 2669 2400 2669 3033 
C 2669 3788 2067 4224 1395 4224 
C 691 4224 262 3603 262 3027 
C 262 2777 448 2745 525 2745 
C 589 2745 781 2783 781 3007 
C 781 3206 614 3264 525 3264 
C 486 3264 448 3257 422 3244 
C 544 3788 915 4057 1306 4057 
C 1862 4057 2227 3616 2227 3033 
C 2227 2477 1901 1998 1536 1583 
L 262 147 
L 262 0 
L 2515 0 
L 2669 990 
z
" transform="scale(0.015625)"/>
       </defs>
       <use xlink:href="#CMSY10-0" transform="scale(0.996264)"/>
       <use xlink:href="#CMR17-32" transform="translate(77.487468 0) scale(0.996264)"/>
      </g>
     </g>
    </g>
    <g id="xtick_3">
     <g id="line2d_5">
      <path d="M 137.8625 166.681808 
L 137.8625 10.8 
" clip-path="url(#pf8c6bb9b71)" style="fill: none; stroke: #b0b0b0; stroke-width: 0.8; stroke-linecap: square"/>
     </g>
     <g id="line2d_6">
      <g>
       <use xlink:href="#m653eefda7f" x="137.8625" y="166.681808" style="stroke: #000000; stroke-width: 0.8"/>
      </g>
     </g>
     <g id="text_3">
      <!-- $\mathdefault{−1}$ -->
      <g transform="translate(131.497461 180.600306) scale(0.1 -0.1)">
       <defs>
        <path id="CMR17-31" d="M 1702 4083 
C 1702 4217 1696 4224 1606 4224 
C 1357 3927 979 3833 621 3820 
C 602 3820 570 3820 563 3808 
C 557 3795 557 3782 557 3648 
C 755 3648 1088 3686 1344 3839 
L 1344 467 
C 1344 243 1331 166 781 166 
L 589 166 
L 589 0 
C 896 6 1216 12 1523 12 
C 1830 12 2150 6 2458 0 
L 2458 166 
L 2266 166 
C 1715 166 1702 236 1702 467 
L 1702 4083 
z
" transform="scale(0.015625)"/>
       </defs>
       <use xlink:href="#CMSY10-0" transform="scale(0.996264)"/>
       <use xlink:href="#CMR17-31" transform="translate(77.487468 0) scale(0.996264)"/>
      </g>
     </g>
    </g>
    <g id="xtick_4">
     <g id="line2d_7">
      <path d="M 184.349619 166.681808 
L 184.349619 10.8 
" clip-path="url(#pf8c6bb9b71)" style="fill: none; stroke: #b0b0b0; stroke-width: 0.8; stroke-linecap: square"/>
     </g>
     <g id="line2d_8">
      <g>
       <use xlink:href="#m653eefda7f" x="184.349619" y="166.681808" style="stroke: #000000; stroke-width: 0.8"/>
      </g>
     </g>
     <g id="text_4">
      <!-- $\mathdefault{0}$ -->
      <g transform="translate(181.858952 180.600306) scale(0.1 -0.1)">
       <defs>
        <path id="CMR17-30" d="M 2688 2038 
C 2688 2430 2682 3099 2413 3613 
C 2176 4063 1798 4224 1466 4224 
C 1158 4224 768 4082 525 3620 
C 269 3137 243 2539 243 2038 
C 243 1671 250 1112 448 623 
C 723 -39 1216 -128 1466 -128 
C 1760 -128 2208 -7 2470 604 
C 2662 1048 2688 1568 2688 2038 
z
M 1466 -26 
C 1056 -26 813 328 723 816 
C 653 1196 653 1749 653 2109 
C 653 2604 653 3015 736 3407 
C 858 3954 1216 4121 1466 4121 
C 1728 4121 2067 3947 2189 3420 
C 2272 3054 2278 2623 2278 2109 
C 2278 1691 2278 1176 2202 797 
C 2067 96 1690 -26 1466 -26 
z
" transform="scale(0.015625)"/>
       </defs>
       <use xlink:href="#CMR17-30" transform="scale(0.996264)"/>
      </g>
     </g>
    </g>
    <g id="xtick_5">
     <g id="line2d_9">
      <path d="M 230.836738 166.681808 
L 230.836738 10.8 
" clip-path="url(#pf8c6bb9b71)" style="fill: none; stroke: #b0b0b0; stroke-width: 0.8; stroke-linecap: square"/>
     </g>
     <g id="line2d_10">
      <g>
       <use xlink:href="#m653eefda7f" x="230.836738" y="166.681808" style="stroke: #000000; stroke-width: 0.8"/>
      </g>
     </g>
     <g id="text_5">
      <!-- $\mathdefault{1}$ -->
      <g transform="translate(228.346071 180.600306) scale(0.1 -0.1)">
       <use xlink:href="#CMR17-31" transform="scale(0.996264)"/>
      </g>
     </g>
    </g>
    <g id="xtick_6">
     <g id="line2d_11">
      <path d="M 277.323858 166.681808 
L 277.323858 10.8 
" clip-path="url(#pf8c6bb9b71)" style="fill: none; stroke: #b0b0b0; stroke-width: 0.8; stroke-linecap: square"/>
     </g>
     <g id="line2d_12">
      <g>
       <use xlink:href="#m653eefda7f" x="277.323858" y="166.681808" style="stroke: #000000; stroke-width: 0.8"/>
      </g>
     </g>
     <g id="text_6">
      <!-- $\mathdefault{2}$ -->
      <g transform="translate(274.83319 180.600306) scale(0.1 -0.1)">
       <use xlink:href="#CMR17-32" transform="scale(0.996264)"/>
      </g>
     </g>
    </g>
    <g id="xtick_7">
     <g id="line2d_13">
      <path d="M 323.810977 166.681808 
L 323.810977 10.8 
" clip-path="url(#pf8c6bb9b71)" style="fill: none; stroke: #b0b0b0; stroke-width: 0.8; stroke-linecap: square"/>
     </g>
     <g id="line2d_14">
      <g>
       <use xlink:href="#m653eefda7f" x="323.810977" y="166.681808" style="stroke: #000000; stroke-width: 0.8"/>
      </g>
     </g>
     <g id="text_7">
      <!-- $\mathdefault{3}$ -->
      <g transform="translate(321.320309 180.600306) scale(0.1 -0.1)">
       <use xlink:href="#CMR17-33" transform="scale(0.996264)"/>
      </g>
     </g>
    </g>
   </g>
   <g id="matplotlib.axis_2">
    <g id="ytick_1">
     <g id="line2d_15">
      <path d="M 38.278823 158.471583 
L 330.420416 158.471583 
" clip-path="url(#pf8c6bb9b71)" style="fill: none; stroke: #b0b0b0; stroke-width: 0.8; stroke-linecap: square"/>
     </g>
     <g id="line2d_16">
      <defs>
       <path id="m8deec3c26b" d="M 0 0 
L -3.5 0 
" style="stroke: #000000; stroke-width: 0.8"/>
      </defs>
      <g>
       <use xlink:href="#m8deec3c26b" x="38.278823" y="158.471583" style="stroke: #000000; stroke-width: 0.8"/>
      </g>
     </g>
     <g id="text_8">
      <!-- $\mathdefault{−1.5}$ -->
      <g transform="translate(10.8 161.930832) scale(0.1 -0.1)">
       <defs>
        <path id="CMMI12-3a" d="M 1178 307 
C 1178 492 1024 620 870 620 
C 685 620 557 467 557 313 
C 557 128 710 0 864 0 
C 1050 0 1178 153 1178 307 
z
" transform="scale(0.015625)"/>
        <path id="CMR17-35" d="M 730 3750 
C 794 3724 1056 3641 1325 3641 
C 1920 3641 2246 3961 2432 4140 
C 2432 4191 2432 4224 2394 4224 
C 2387 4224 2374 4224 2323 4198 
C 2099 4102 1837 4032 1517 4032 
C 1325 4032 1037 4055 723 4191 
C 653 4224 640 4224 634 4224 
C 602 4224 595 4217 595 4090 
L 595 2231 
C 595 2113 595 2080 659 2080 
C 691 2080 704 2093 736 2139 
C 941 2435 1222 2560 1542 2560 
C 1766 2560 2246 2415 2246 1293 
C 2246 1087 2246 716 2054 422 
C 1894 159 1645 25 1370 25 
C 947 25 518 319 403 812 
C 429 806 480 793 506 793 
C 589 793 749 838 749 1036 
C 749 1209 627 1280 506 1280 
C 358 1280 262 1190 262 1011 
C 262 454 704 -128 1382 -128 
C 2042 -128 2669 441 2669 1267 
C 2669 2054 2170 2662 1549 2662 
C 1222 2662 947 2540 730 2304 
L 730 3750 
z
" transform="scale(0.015625)"/>
       </defs>
       <use xlink:href="#CMSY10-0" transform="scale(0.996264)"/>
       <use xlink:href="#CMR17-31" transform="translate(77.487468 0) scale(0.996264)"/>
       <use xlink:href="#CMMI12-3a" transform="translate(123.177945 0) scale(0.996264)"/>
       <use xlink:href="#CMR17-35" transform="translate(150.275122 0) scale(0.996264)"/>
      </g>
     </g>
    </g>
    <g id="ytick_2">
     <g id="line2d_17">
      <path d="M 38.278823 135.228023 
L 330.420416 135.228023 
" clip-path="url(#pf8c6bb9b71)" style="fill: none; stroke: #b0b0b0; stroke-width: 0.8; stroke-linecap: square"/>
     </g>
     <g id="line2d_18">
      <g>
       <use xlink:href="#m8deec3c26b" x="38.278823" y="135.228023" style="stroke: #000000; stroke-width: 0.8"/>
      </g>
     </g>
     <g id="text_9">
      <!-- $\mathdefault{−1.0}$ -->
      <g transform="translate(10.8 138.687272) scale(0.1 -0.1)">
       <use xlink:href="#CMSY10-0" transform="scale(0.996264)"/>
       <use xlink:href="#CMR17-31" transform="translate(77.487468 0) scale(0.996264)"/>
       <use xlink:href="#CMMI12-3a" transform="translate(123.177945 0) scale(0.996264)"/>
       <use xlink:href="#CMR17-30" transform="translate(150.275122 0) scale(0.996264)"/>
      </g>
     </g>
    </g>
    <g id="ytick_3">
     <g id="line2d_19">
      <path d="M 38.278823 111.984463 
L 330.420416 111.984463 
" clip-path="url(#pf8c6bb9b71)" style="fill: none; stroke: #b0b0b0; stroke-width: 0.8; stroke-linecap: square"/>
     </g>
     <g id="line2d_20">
      <g>
       <use xlink:href="#m8deec3c26b" x="38.278823" y="111.984463" style="stroke: #000000; stroke-width: 0.8"/>
      </g>
     </g>
     <g id="text_10">
      <!-- $\mathdefault{−0.5}$ -->
      <g transform="translate(10.8 115.443713) scale(0.1 -0.1)">
       <use xlink:href="#CMSY10-0" transform="scale(0.996264)"/>
       <use xlink:href="#CMR17-30" transform="translate(77.487468 0) scale(0.996264)"/>
       <use xlink:href="#CMMI12-3a" transform="translate(123.177945 0) scale(0.996264)"/>
       <use xlink:href="#CMR17-35" transform="translate(150.275122 0) scale(0.996264)"/>
      </g>
     </g>
    </g>
    <g id="ytick_4">
     <g id="line2d_21">
      <path d="M 38.278823 88.740904 
L 330.420416 88.740904 
" clip-path="url(#pf8c6bb9b71)" style="fill: none; stroke: #b0b0b0; stroke-width: 0.8; stroke-linecap: square"/>
     </g>
     <g id="line2d_22">
      <g>
       <use xlink:href="#m8deec3c26b" x="38.278823" y="88.740904" style="stroke: #000000; stroke-width: 0.8"/>
      </g>
     </g>
     <g id="text_11">
      <!-- $\mathdefault{0.0}$ -->
      <g transform="translate(18.548744 92.200153) scale(0.1 -0.1)">
       <use xlink:href="#CMR17-30" transform="scale(0.996264)"/>
       <use xlink:href="#CMMI12-3a" transform="translate(45.690477 0) scale(0.996264)"/>
       <use xlink:href="#CMR17-30" transform="translate(72.787654 0) scale(0.996264)"/>
      </g>
     </g>
    </g>
    <g id="ytick_5">
     <g id="line2d_23">
      <path d="M 38.278823 65.497344 
L 330.420416 65.497344 
" clip-path="url(#pf8c6bb9b71)" style="fill: none; stroke: #b0b0b0; stroke-width: 0.8; stroke-linecap: square"/>
     </g>
     <g id="line2d_24">
      <g>
       <use xlink:href="#m8deec3c26b" x="38.278823" y="65.497344" style="stroke: #000000; stroke-width: 0.8"/>
      </g>
     </g>
     <g id="text_12">
      <!-- $\mathdefault{0.5}$ -->
      <g transform="translate(18.548744 68.956593) scale(0.1 -0.1)">
       <use xlink:href="#CMR17-30" transform="scale(0.996264)"/>
       <use xlink:href="#CMMI12-3a" transform="translate(45.690477 0) scale(0.996264)"/>
       <use xlink:href="#CMR17-35" transform="translate(72.787654 0) scale(0.996264)"/>
      </g>
     </g>
    </g>
    <g id="ytick_6">
     <g id="line2d_25">
      <path d="M 38.278823 42.253785 
L 330.420416 42.253785 
" clip-path="url(#pf8c6bb9b71)" style="fill: none; stroke: #b0b0b0; stroke-width: 0.8; stroke-linecap: square"/>
     </g>
     <g id="line2d_26">
      <g>
       <use xlink:href="#m8deec3c26b" x="38.278823" y="42.253785" style="stroke: #000000; stroke-width: 0.8"/>
      </g>
     </g>
     <g id="text_13">
      <!-- $\mathdefault{1.0}$ -->
      <g transform="translate(18.548744 45.713034) scale(0.1 -0.1)">
       <use xlink:href="#CMR17-31" transform="scale(0.996264)"/>
       <use xlink:href="#CMMI12-3a" transform="translate(45.690477 0) scale(0.996264)"/>
       <use xlink:href="#CMR17-30" transform="translate(72.787654 0) scale(0.996264)"/>
      </g>
     </g>
    </g>
    <g id="ytick_7">
     <g id="line2d_27">
      <path d="M 38.278823 19.010225 
L 330.420416 19.010225 
" clip-path="url(#pf8c6bb9b71)" style="fill: none; stroke: #b0b0b0; stroke-width: 0.8; stroke-linecap: square"/>
     </g>
     <g id="line2d_28">
      <g>
       <use xlink:href="#m8deec3c26b" x="38.278823" y="19.010225" style="stroke: #000000; stroke-width: 0.8"/>
      </g>
     </g>
     <g id="text_14">
      <!-- $\mathdefault{1.5}$ -->
      <g transform="translate(18.548744 22.469474) scale(0.1 -0.1)">
       <use xlink:href="#CMR17-31" transform="scale(0.996264)"/>
       <use xlink:href="#CMMI12-3a" transform="translate(45.690477 0) scale(0.996264)"/>
       <use xlink:href="#CMR17-35" transform="translate(72.787654 0) scale(0.996264)"/>
      </g>
     </g>
    </g>
   </g>
   <g id="LineCollection_1">
    <path d="M 44.888262 136.577747 
L 46.294975 140.341344 
L 48.086841 144.90262 
L 50.049466 149.446293 
L 52.187526 153.970102 
L 54.506286 158.471583 
L 54.506286 158.471583 
" clip-path="url(#pf8c6bb9b71)" style="fill: none; stroke: #d3d3d3"/>
    <path d="M 64.10845 19.010225 
L 63.179854 20.663005 
L 60.765123 25.151795 
L 58.544974 29.665659 
L 56.513173 34.201674 
L 54.66419 38.757246 
L 52.993173 43.329971 
L 51.495829 47.917725 
L 50.16841 52.51857 
L 49.00768 57.130665 
L 48.010852 61.752358 
L 47.175581 66.38206 
L 46.499933 71.018253 
L 45.982353 75.659551 
L 45.621669 80.304557 
L 45.417068 84.951933 
L 45.368091 89.600381 
L 45.474627 94.248576 
L 45.736917 98.895236 
L 46.155549 103.539032 
L 46.731468 108.178592 
L 47.465989 112.812562 
L 48.360801 117.439472 
L 49.417989 122.057788 
L 50.640064 126.66593 
L 52.029969 131.262141 
L 53.591131 135.844572 
L 55.32749 140.411205 
L 57.243536 144.959806 
L 59.344378 149.487937 
L 61.635796 153.99288 
L 64.124311 158.471583 
L 64.124311 158.471583 
" clip-path="url(#pf8c6bb9b71)" style="fill: none; stroke: #d3d3d3"/>
    <path d="M 83.324495 19.010225 
L 81.874424 21.210666 
L 79.086287 25.644827 
L 76.533135 30.114318 
L 74.205228 34.614463 
L 72.093984 39.14131 
L 70.191963 43.691307 
L 68.492679 48.261328 
L 66.990502 52.848635 
L 65.680631 57.450658 
L 64.558963 62.065102 
L 63.622063 66.689863 
L 62.867121 71.32293 
L 62.291899 75.962481 
L 61.894721 80.6067 
L 61.674439 85.25383 
L 61.630415 89.902237 
L 61.762524 94.550219 
L 62.071145 99.196097 
L 62.557172 103.83819 
L 63.222013 108.474714 
L 64.067628 113.103875 
L 65.096533 117.723739 
L 66.311841 122.332231 
L 67.717327 126.927202 
L 69.317431 131.506201 
L 71.117351 136.066563 
L 73.123148 140.605396 
L 75.34176 145.119338 
L 77.781184 149.60466 
L 80.450562 154.057056 
L 83.36036 158.471583 
L 83.36036 158.471583 
" clip-path="url(#pf8c6bb9b71)" style="fill: none; stroke: #d3d3d3"/>
    <path d="M 79.675678 136.222677 
L 81.846055 140.742429 
L 84.250496 145.232408 
L 86.899217 149.687827 
L 89.803996 154.10309 
L 92.978385 158.471583 
L 92.978385 158.471583 
" clip-path="url(#pf8c6bb9b71)" style="fill: none; stroke: #d3d3d3"/>
    <path d="M 90.416379 140.919348 
L 93.036117 145.378963 
L 95.928693 149.796162 
L 99.109479 154.163377 
L 102.59641 158.471583 
L 102.59641 158.471583 
" clip-path="url(#pf8c6bb9b71)" style="fill: none; stroke: #d3d3d3"/>
    <path d="M 112.05122 19.010225 
L 108.887571 22.620862 
L 105.331472 26.914669 
L 102.107005 31.273718 
L 99.19318 35.687316 
L 96.572174 40.146644 
L 94.228709 44.644587 
L 92.149922 49.174972 
L 90.324864 53.732662 
L 88.744324 58.313205 
L 87.40065 62.912602 
L 86.2875 67.527426 
L 85.399787 72.154488 
L 84.733547 76.790819 
L 84.285838 81.433756 
L 84.054724 86.080646 
L 84.039206 90.728945 
L 84.239217 95.376197 
L 84.655619 100.019834 
L 85.290221 104.657296 
L 86.145811 109.285864 
L 87.226196 113.902601 
L 88.536321 118.504448 
L 90.082321 123.087935 
L 91.871654 127.649159 
L 93.913293 132.183742 
L 96.217925 136.686656 
L 98.798163 141.151955 
L 101.66888 145.572601 
L 104.847535 149.940074 
L 108.354645 154.243978 
L 112.214434 158.471583 
L 112.214434 158.471583 
" clip-path="url(#pf8c6bb9b71)" style="fill: none; stroke: #d3d3d3"/>
    <path d="M 131.404277 19.010225 
L 129.84063 20.254751 
L 125.151131 24.265656 
L 120.936272 28.406719 
L 117.153267 32.651032 
L 113.765973 36.978601 
L 110.744565 41.3737 
L 108.064235 45.823902 
L 105.704226 50.319464 
L 103.64747 54.85217 
L 101.879778 59.415341 
L 100.389531 64.003313 
L 99.167366 68.611043 
L 98.205815 73.234258 
L 97.499191 77.868999 
L 97.043404 82.511567 
L 96.835844 87.158627 
L 96.87534 91.806796 
L 97.162113 96.452754 
L 97.697796 101.09322 
L 98.485455 105.724642 
L 99.529694 110.343339 
L 100.836753 114.945256 
L 102.414664 119.525813 
L 104.273515 124.079891 
L 106.425677 128.601441 
L 108.886228 133.083363 
L 111.673381 137.517043 
L 114.809047 141.891836 
L 118.319768 146.19463 
L 122.237074 150.408192 
L 126.598796 154.510232 
L 131.450484 158.471583 
L 131.450484 158.471583 
" clip-path="url(#pf8c6bb9b71)" style="fill: none; stroke: #d3d3d3"/>
    <path d="M 150.634029 19.010225 
L 149.408844 19.629645 
L 143.255828 23.102699 
L 137.794512 26.857289 
L 132.949334 30.819551 
L 128.653176 34.938394 
L 124.849664 39.177772 
L 121.492931 43.511048 
L 118.545498 47.918332 
L 115.976652 52.384762 
L 113.761663 56.898434 
L 111.880413 61.450053 
L 110.316902 66.031672 
L 109.05838 70.636776 
L 108.094996 75.259749 
L 107.419475 79.895457 
L 107.026811 84.539388 
L 106.914157 89.187138 
L 107.080695 93.834409 
L 107.527637 98.477099 
L 108.258242 103.110743 
L 109.277931 107.730635 
L 110.594479 112.331674 
L 112.218244 116.907991 
L 114.16261 121.452919 
L 116.444324 125.958265 
L 119.084321 130.414228 
L 122.108421 134.808422 
L 125.548392 139.124909 
L 129.443676 143.343167 
L 133.841896 147.43469 
L 138.801083 151.360543 
L 144.390315 155.065911 
L 150.686533 158.471583 
L 150.686533 158.471583 
" clip-path="url(#pf8c6bb9b71)" style="fill: none; stroke: #d3d3d3"/>
    <path d="M 128.195569 136.575102 
L 132.083393 140.794346 
L 136.500321 144.880691 
L 141.511593 148.791036 
L 147.193854 152.462229 
L 153.103959 155.557931 
L 160.304558 158.471583 
L 160.304558 158.471583 
" clip-path="url(#pf8c6bb9b71)" style="fill: none; stroke: #d3d3d3"/>
    <path d="M 189.158632 158.471583 
L 189.158632 158.471583 
L 189.158632 158.471583 
L 195.687368 157.712337 
L 201.820759 156.42006 
L 207.824762 154.579703 
L 213.725486 152.168231 
L 219.522682 149.147676 
L 225.185659 145.474606 
L 230.148128 141.551113 
L 234.492442 137.446281 
L 238.28885 133.20605 
L 241.59334 128.863282 
L 244.450856 124.441581 
L 246.89733 119.958236 
L 248.961017 115.426869 
L 250.664329 110.857963 
L 252.024601 106.26034 
L 253.055102 101.641177 
L 253.765461 97.006891 
L 254.162142 92.363276 
L 254.248707 87.715552 
L 254.025922 83.068999 
L 253.491811 78.428808 
L 252.641565 73.800442 
L 251.467385 69.189956 
L 249.958059 64.603885 
L 248.098655 60.050223 
L 245.869814 55.53855 
L 243.246613 51.080366 
L 240.197787 46.690898 
L 236.683763 42.389877 
L 232.654434 38.203792 
L 228.047775 34.170565 
L 222.787966 30.345088 
L 216.784907 26.807858 
L 209.942901 23.679632 
L 202.368231 21.186539 
L 194.965876 19.634035 
L 190.905164 19.010225 
" clip-path="url(#pf8c6bb9b71)" style="fill: none; stroke: #d3d3d3"/>
    <path d="M 218.012706 158.471583 
L 218.012706 158.471583 
L 224.308924 155.065911 
L 229.898155 151.360543 
L 234.857343 147.43469 
L 239.255562 143.343167 
L 243.150846 139.124909 
L 246.590818 134.808422 
L 249.614918 130.414228 
L 252.254914 125.958265 
L 254.536629 121.452919 
L 256.480994 116.907991 
L 258.104759 112.331674 
" clip-path="url(#pf8c6bb9b71)" style="fill: none; stroke: #d3d3d3"/>
    <path d="M 237.248755 158.471583 
L 237.248755 158.471583 
L 242.100443 154.510232 
L 246.462164 150.408192 
L 250.37947 146.19463 
L 253.890192 141.891836 
L 257.025857 137.517043 
L 259.813011 133.083363 
L 262.273562 128.601441 
L 264.425724 124.079891 
L 266.284575 119.525813 
L 267.862486 114.945256 
L 269.169545 110.343339 
L 270.213783 105.724642 
L 271.001443 101.09322 
L 271.537126 96.452754 
L 271.823899 91.806796 
L 271.863395 87.158627 
L 271.655834 82.511567 
L 271.200048 77.868999 
L 270.493424 73.234258 
L 269.531873 68.611043 
L 268.309708 64.003313 
L 266.81946 59.415341 
L 265.051768 54.85217 
L 262.995012 50.319464 
L 260.635004 45.823902 
L 257.954674 41.3737 
L 254.933266 36.978601 
L 251.545971 32.651032 
L 247.762966 28.406719 
L 243.548108 24.265656 
L 238.858609 20.254751 
L 237.294962 19.010225 
" clip-path="url(#pf8c6bb9b71)" style="fill: none; stroke: #d3d3d3"/>
    <path d="M 256.484804 158.471583 
L 256.484804 158.471583 
L 260.344594 154.243978 
L 263.851703 149.940074 
L 267.030359 145.572601 
L 269.901075 141.151955 
L 272.481313 136.686656 
L 274.785946 132.183742 
L 276.827584 127.649159 
L 278.616917 123.087935 
L 280.162917 118.504448 
L 281.473042 113.902601 
L 282.553427 109.285864 
L 283.409017 104.657296 
L 284.043619 100.019834 
L 284.460022 95.376197 
L 284.660033 90.728945 
L 284.644515 86.080646 
L 284.4134 81.433756 
L 283.965692 76.790819 
L 283.299451 72.154488 
L 282.411738 67.527426 
L 281.298588 62.912602 
L 279.954914 58.313205 
L 278.374375 53.732662 
L 276.549316 49.174972 
L 274.47053 44.644587 
L 272.127065 40.146644 
L 269.506058 35.687316 
L 266.592233 31.273718 
L 263.367766 26.914669 
L 259.811668 22.620862 
L 256.648018 19.010225 
" clip-path="url(#pf8c6bb9b71)" style="fill: none; stroke: #d3d3d3"/>
    <path d="M 266.102829 158.471583 
L 266.102829 158.471583 
L 269.58976 154.163377 
L 272.770546 149.796162 
L 275.663121 145.378963 
L 278.28286 140.919348 
L 280.643061 136.423538 
L 282.755055 131.896967 
L 284.628633 127.344128 
L 286.272068 122.769086 
L 287.692377 118.175398 
" clip-path="url(#pf8c6bb9b71)" style="fill: none; stroke: #d3d3d3"/>
    <path d="M 275.720854 158.471583 
L 275.720854 158.471583 
L 278.895243 154.10309 
L 281.800022 149.687827 
L 284.448743 145.232408 
L 286.853184 140.742429 
" clip-path="url(#pf8c6bb9b71)" style="fill: none; stroke: #d3d3d3"/>
    <path d="M 285.338878 158.471583 
L 285.338878 158.471583 
L 288.248676 154.057056 
L 290.918055 149.60466 
L 293.357479 145.119338 
L 295.57609 140.605396 
L 297.581887 136.066563 
L 299.381808 131.506201 
L 300.981911 126.927202 
L 302.387397 122.332231 
L 303.602705 117.723739 
L 304.631611 113.103875 
L 305.477225 108.474714 
L 306.142067 103.83819 
L 306.628093 99.196097 
L 306.936715 94.550219 
L 307.068824 89.902237 
L 307.0248 85.25383 
L 306.804517 80.6067 
L 306.40734 75.962481 
L 305.832117 71.32293 
L 305.077176 66.689863 
L 304.140275 62.065102 
L 303.018608 57.450658 
L 301.708736 52.848635 
L 300.20656 48.261328 
L 298.507276 43.691307 
L 296.605254 39.14131 
L 294.494011 34.614463 
L 292.166103 30.114318 
L 289.612951 25.644827 
L 286.824814 21.210666 
L 285.374743 19.010225 
" clip-path="url(#pf8c6bb9b71)" style="fill: none; stroke: #d3d3d3"/>
    <path d="M 294.956903 158.471583 
L 294.956903 158.471583 
L 297.640533 154.021225 
L 300.107469 149.539616 
L 302.365928 145.030555 
L 304.423105 140.497468 
L 306.285366 135.943307 
L 307.958259 131.370782 
L 309.446622 126.782335 
L 310.754666 122.180147 
L 311.885988 117.566261 
L 312.84365 112.942517 
L 313.630183 108.310704 
L 314.247639 103.672509 
L 314.697617 99.029476 
L 314.981266 94.383163 
L 315.099306 89.735062 
L 315.052038 85.086635 
L 314.839341 80.439381 
L 314.460675 75.794754 
L 313.915075 71.154283 
L 313.201144 66.519554 
L 312.317019 61.892148 
L 311.260378 57.273811 
L 310.028396 52.666379 
" clip-path="url(#pf8c6bb9b71)" style="fill: none; stroke: #d3d3d3"/>
    <path d="M 314.192952 158.471583 
L 314.192952 158.471583 
L 316.511713 153.970102 
L 318.649773 149.446293 
L 320.612398 144.90262 
L 322.404264 140.341344 
L 323.810977 136.577747 
" clip-path="url(#pf8c6bb9b71)" style="fill: none; stroke: #d3d3d3"/>
    <path d="M 316.590894 142.952055 
L 318.370536 138.389568 
L 319.978743 133.811178 
L 321.419368 129.218875 
L 322.695803 124.614415 
L 323.810977 119.999484 
L 323.810977 119.999484 
" clip-path="url(#pf8c6bb9b71)" style="fill: none; stroke: #d3d3d3"/>
    <path d="M 321.598922 114.512181 
L 322.388173 109.880465 
L 323.019042 105.242671 
L 323.492954 100.60022 
L 323.810977 95.954422 
L 323.810977 95.954422 
" clip-path="url(#pf8c6bb9b71)" style="fill: none; stroke: #d3d3d3"/>
    <path d="M 323.810977 86.336398 
L 323.810977 86.336398 
L 323.653324 81.688546 
L 323.340321 77.042663 
L 322.87127 72.400088 
L 322.245115 67.762138 
L 321.460437 63.130235 
L 320.515435 58.505829 
L 319.407909 53.89045 
L 318.135243 49.285746 
L 316.694362 44.693442 
L 315.081728 40.115465 
L 313.293272 35.553877 
L 311.324347 31.01091 
L 309.169719 26.489115 
L 306.82342 21.991221 
L 305.198742 19.010225 
" clip-path="url(#pf8c6bb9b71)" style="fill: none; stroke: #d3d3d3"/>
    <path d="M 323.810977 38.246274 
L 323.810977 38.246274 
L 322.072037 33.679843 
L 320.164808 29.13028 
L 318.084812 24.59967 
L 315.82706 20.09041 
L 315.263046 19.010225 
" clip-path="url(#pf8c6bb9b71)" style="fill: none; stroke: #d3d3d3"/>
    <path d="M 293.61694 124.405764 
L 295.011403 119.809997 
L 296.203209 115.199994 
L 297.196556 110.57822 
L 297.994857 105.94701 
L 298.600819 101.308494 
L 299.016463 96.664724 
L 299.24316 92.01771 
L 299.281656 87.369319 
L 299.132075 82.721493 
L 298.793929 78.076175 
L 298.266101 73.435264 
L 297.54684 68.800809 
L 296.633725 64.17491 
L 295.523632 59.55979 
L 294.212701 54.9579 
L 292.696244 50.371829 
L 290.968708 45.804494 
L 289.023561 41.259131 
L 286.853184 36.739379 
L 284.448743 32.2494 
L 281.800022 27.793981 
L 278.895243 23.378718 
L 275.720854 19.010225 
L 275.720854 19.010225 
" clip-path="url(#pf8c6bb9b71)" style="fill: none; stroke: #d3d3d3"/>
    <path d="M 258.104759 65.150133 
L 256.480994 60.573816 
L 254.536629 56.028888 
L 252.254914 51.523542 
L 249.614918 47.06758 
L 246.590818 42.673386 
L 243.150846 38.356899 
L 239.255562 34.138641 
L 234.857343 30.047117 
L 229.898155 26.121265 
L 224.308924 22.415896 
L 218.012706 19.010225 
L 218.012706 19.010225 
" clip-path="url(#pf8c6bb9b71)" style="fill: none; stroke: #d3d3d3"/>
    <path d="M 179.540607 19.010225 
L 179.540607 19.010225 
L 179.540607 19.010225 
L 173.011871 19.769471 
L 166.878479 21.061748 
L 160.874476 22.902105 
L 154.973752 25.313577 
L 149.176556 28.334131 
L 143.51358 32.007202 
L 138.551111 35.930695 
L 134.206796 40.035526 
L 130.410388 44.275758 
L 127.105899 48.618526 
L 124.248382 53.040227 
L 121.801908 57.523572 
L 119.738222 62.054938 
L 118.034909 66.623845 
" clip-path="url(#pf8c6bb9b71)" style="fill: none; stroke: #d3d3d3"/>
    <path d="M 92.978385 19.010225 
L 92.978385 19.010225 
L 89.803996 23.378718 
L 86.899217 27.793981 
L 84.250496 32.2494 
L 81.846055 36.739379 
L 79.675678 41.259131 
L 77.730531 45.804494 
L 76.002994 50.371829 
L 74.486538 54.9579 
L 73.175607 59.55979 
L 72.065513 64.17491 
L 71.152399 68.800809 
L 70.433138 73.435264 
L 69.905309 78.076175 
L 69.567163 82.721493 
L 69.417582 87.369319 
L 69.456079 92.01771 
L 69.682775 96.664724 
L 70.098419 101.308494 
L 70.704382 105.94701 
L 71.502683 110.57822 
L 72.496029 115.199994 
L 73.687835 119.809997 
L 75.082299 124.405764 
" clip-path="url(#pf8c6bb9b71)" style="fill: none; stroke: #d3d3d3"/>
    <path d="M 73.742336 19.010225 
L 73.742336 19.010225 
L 71.058705 23.460583 
L 68.59177 27.942192 
L 66.333311 32.451253 
L 64.276134 36.984339 
L 62.413872 41.5385 
" clip-path="url(#pf8c6bb9b71)" style="fill: none; stroke: #d3d3d3"/>
    <path d="M 51.509513 19.010225 
L 51.079681 19.841637 
L 48.842305 24.353441 
L 46.780116 28.886063 
L 44.888262 33.437262 
L 44.888262 33.437262 
" clip-path="url(#pf8c6bb9b71)" style="fill: none; stroke: #d3d3d3"/>
    <path d="M 147.645639 147.445686 
L 153.310135 150.626525 
L 160.304558 153.66257 
L 160.304558 153.66257 
L 166.939195 155.748586 
L 174.219847 157.229812 
L 181.238059 157.905899 
" clip-path="url(#pf8c6bb9b71)" style="fill: none; stroke: #d3d3d3"/>
    <path d="M 179.540607 153.66257 
L 179.540607 153.66257 
L 179.540607 153.66257 
L 185.84973 153.823869 
L 192.091751 153.379882 
L 198.093365 152.375391 
L 203.925253 150.830729 
L 209.6383 148.732271 
L 215.248957 146.045872 
L 220.739306 142.72779 
" clip-path="url(#pf8c6bb9b71)" style="fill: none; stroke: #d3d3d3"/>
    <path d="M 198.776656 23.819237 
L 198.776656 23.819237 
L 198.776656 23.819237 
L 192.349796 22.717597 
L 185.608018 22.245672 
L 179.179752 22.434268 
L 173.022873 23.203898 
L 167.058453 24.518502 
L 161.226668 26.379435 
L 155.4986 28.812768 
L 149.877746 31.858485 
" clip-path="url(#pf8c6bb9b71)" style="fill: none; stroke: #d3d3d3"/>
    <path d="M 54.506286 57.482324 
L 53.480271 62.102382 
L 52.622743 66.731037 
L 51.931546 71.366638 
L 51.404959 76.007669 
L 51.04169 80.652618 
L 50.840851 85.300011 
L 50.801952 89.94847 
L 50.924901 94.596557 
L 51.209994 99.242853 
L 51.657927 103.885946 
L 52.269796 108.524341 
L 53.047115 113.15654 
L 53.991828 117.78095 
L 55.106327 122.395871 
" clip-path="url(#pf8c6bb9b71)" style="fill: none; stroke: #d3d3d3"/>
    <path d="M 122.120398 70.83733 
L 120.975155 75.449541 
L 120.178408 80.080105 
L 119.721638 84.72225 
L 119.600083 89.369658 
L 119.812487 94.016161 
L 120.361066 98.655846 
L 121.251583 103.282176 
L 122.493602 107.888005 
L 124.10106 112.465439 
L 126.092767 117.004683 
L 128.493585 121.493897 
L 131.335664 125.917773 
L 134.660422 130.256124 
L 138.520526 134.480772 
L 142.983855 138.552522 
L 148.135996 142.41339 
L 153.543591 145.688195 
L 160.304558 148.853558 
L 160.304558 148.853558 
L 166.72756 151.041243 
" clip-path="url(#pf8c6bb9b71)" style="fill: none; stroke: #d3d3d3"/>
    <path d="M 179.540607 148.853558 
L 179.540607 148.853558 
L 179.540607 148.853558 
L 185.618212 149.033043 
L 191.629299 148.606199 
L 197.390491 147.621151 
L 202.979138 146.099447 
L 208.44873 144.02584 
L 213.813989 141.363994 
L 219.052481 138.068538 
L 224.038264 134.155533 
L 228.312164 130.033707 
L 231.965444 125.762886 
L 235.068535 121.38379 
L 237.67632 116.924023 
L 239.830651 112.40374 
L 241.563392 107.838071 
L 242.898419 103.238969 
L 243.853178 98.616004 
L 244.439563 93.977618 
L 244.664692 89.331417 
L 244.531279 84.684224 
L 244.037729 80.043153 
L 243.178102 75.415556 
L 241.941748 70.809416 
L 240.312807 66.234171 
L 238.269058 61.700736 
L 235.781023 57.223611 
L 232.809656 52.821311 
L 229.30395 48.519277 
L 225.19781 44.353982 
L 220.4046 40.378207 
L 214.815971 36.674526 
L 208.310186 33.375998 
L 201.145332 30.796106 
L 194.127252 29.206718 
L 187.466709 28.488502 
L 181.204116 28.489104 
L 175.280275 29.091787 
L 169.584313 30.239962 
L 164.035841 31.926788 
L 158.596853 34.175125 
L 153.265179 37.024947 
L 148.075462 40.521207 
L 143.30981 44.504674 
L 139.227712 48.675496 
L 135.743278 52.981531 
L 132.790842 57.386961 
L 130.320081 61.866349 
L 128.292237 66.40148 
L 126.678131 70.977999 
" clip-path="url(#pf8c6bb9b71)" style="fill: none; stroke: #d3d3d3"/>
    <path d="M 268.096669 46.272586 
L 265.666148 41.786393 
L 262.93358 37.344019 
L 259.880485 32.954364 
L 256.484804 28.62825 
" clip-path="url(#pf8c6bb9b71)" style="fill: none; stroke: #d3d3d3"/>
    <path d="M 112.214434 28.62825 
L 108.818753 32.954364 
L 105.765659 37.344019 
L 103.033091 41.786393 
L 100.60257 46.272586 
" clip-path="url(#pf8c6bb9b71)" style="fill: none; stroke: #d3d3d3"/>
    <path d="M 128.905094 74.813223 
L 127.945272 79.435688 
L 127.37397 84.07439 
L 127.183503 88.720895 
L 127.371337 93.36743 
L 127.939986 98.0062 
L 128.897117 102.62878 
L 130.256131 107.226157 
L 132.036769 111.787103 
L 134.2665 116.297865 
L 136.98261 120.740948 
L 140.234678 125.092273 
L 144.087911 129.317144 
L 148.629044 133.365109 
L 153.616805 136.93426 
L 158.76316 139.851392 
L 163.988668 142.147324 
L 169.922582 144.044546 
L 169.922582 144.044546 
L 169.922582 144.044546 
L 175.89573 145.267811 
L 182.270954 145.859826 
L 188.298315 145.761966 
" clip-path="url(#pf8c6bb9b71)" style="fill: none; stroke: #d3d3d3"/>
    <path d="M 275.720854 33.437262 
L 272.890217 29.01003 
L 269.773221 24.631273 
L 266.352294 20.309751 
L 265.267841 19.010225 
" clip-path="url(#pf8c6bb9b71)" style="fill: none; stroke: #d3d3d3"/>
    <path d="M 198.776656 33.437262 
L 198.776656 33.437262 
L 198.776656 33.437262 
L 192.803508 32.213997 
L 186.428285 31.621982 
L 180.400923 31.719841 
L 174.682516 32.405856 
L 169.17679 33.632084 
" clip-path="url(#pf8c6bb9b71)" style="fill: none; stroke: #d3d3d3"/>
    <path d="M 103.431397 19.010225 
L 102.346944 20.309751 
L 98.926017 24.631273 
L 95.809022 29.01003 
L 92.978385 33.437262 
" clip-path="url(#pf8c6bb9b71)" style="fill: none; stroke: #d3d3d3"/>
    <path d="M 169.922582 139.235533 
L 169.922582 139.235533 
L 169.922582 139.235533 
L 175.653339 140.532353 
L 181.84614 141.199035 
L 187.678362 141.15414 
L 193.172147 140.514331 
L 198.439199 139.3365 
L 203.552713 137.626418 
L 208.552289 135.355503 
L 213.43829 132.475273 
L 218.161827 128.937355 
L 222.510013 124.837646 
L 226.14224 120.563684 
L 229.150362 116.168956 
L 231.603313 111.687934 
" clip-path="url(#pf8c6bb9b71)" style="fill: none; stroke: #d3d3d3"/>
    <path d="M 231.971765 66.580546 
L 229.609521 62.087182 
L 226.701879 57.675209 
L 223.183608 53.377123 
L 218.967401 49.24249 
L 214.282399 45.585757 
L 209.420999 42.593267 
L 204.47067 40.231275 
L 198.776656 38.246274 
L 198.776656 38.246274 
L 198.776656 38.246274 
L 193.0459 36.949454 
L 186.853098 36.282773 
L 181.020877 36.327667 
L 175.527092 36.967477 
L 170.26004 38.145308 
L 165.146526 39.85539 
L 160.14695 42.126304 
L 155.260949 45.006534 
L 150.537411 48.544453 
L 146.189226 52.644162 
L 142.556999 56.918124 
L 139.548877 61.312851 
L 137.095926 65.793874 
" clip-path="url(#pf8c6bb9b71)" style="fill: none; stroke: #d3d3d3"/>
    <path d="M 139.053906 73.084061 
L 137.718177 77.682492 
L 136.858972 82.309357 
L 136.459376 86.952085 
L 136.511811 91.598987 
L 137.017278 96.239018 
L 137.985506 100.860521 
L 139.435685 105.449938 
L 141.398476 109.991293 
L 143.918288 114.462429 
L 147.058575 118.833252 
L 150.907171 123.05725 
L 155.262709 126.816862 
L 159.82221 129.899987 
L 164.481365 132.338784 
L 169.922582 134.426521 
L 169.922582 134.426521 
L 169.922582 134.426521 
L 175.400879 135.808664 
L 181.404714 136.562846 
L 187.046383 136.578629 
L 192.306098 135.990378 
L 197.312957 134.869804 
L 202.169893 133.221022 
L 206.918521 131.01175 
L 211.547087 128.195085 
" clip-path="url(#pf8c6bb9b71)" style="fill: none; stroke: #d3d3d3"/>
    <path d="M 198.776656 43.055287 
L 198.776656 43.055287 
L 198.776656 43.055287 
L 193.29836 41.673144 
L 187.294524 40.918962 
L 181.652855 40.903179 
L 176.393141 41.49143 
L 171.386282 42.612004 
L 166.529346 44.260786 
L 161.780718 46.470058 
L 157.152151 49.286723 
" clip-path="url(#pf8c6bb9b71)" style="fill: none; stroke: #d3d3d3"/>
    <path d="M 147.45804 107.022503 
L 150.030518 111.484678 
L 153.340962 115.821697 
L 157.184368 119.672566 
L 161.280917 122.834696 
L 165.534824 125.352482 
L 169.924425 127.291972 
L 174.434112 128.688907 
L 179.540607 129.617509 
L 179.540607 129.617509 
L 179.540607 129.617509 
L 184.593738 129.899872 
L 189.598609 129.565735 
L 194.309445 128.679862 
L 198.832318 127.272482 
L 203.220042 125.326026 
L 207.472911 122.800048 
L 211.566699 119.629568 
L 215.406201 115.769696 
L 218.706768 111.430687 
L 221.270669 106.967289 
L 223.186422 102.421775 
L 224.512398 97.823701 
L 225.28607 93.193588 
L 225.527911 88.548749 
L 225.244212 83.904631 
L 224.427686 79.276353 
L 223.056736 74.681473 
L 221.092548 70.14094 
L 218.475016 65.685007 
L 215.113479 61.357374 
L 210.875471 57.230959 
L 205.571488 53.435349 
L 205.571488 53.435349 
L 200.46175 50.826925 
L 194.383438 48.781942 
L 188.489177 47.747337 
L 183.090288 47.556598 
L 178.14387 48.006149 
L 173.485497 48.992896 
L 168.992748 50.501982 
L 164.62038 52.561639 
L 160.385051 55.214265 
L 156.334843 58.513779 
L 152.557647 62.511733 
L 149.408006 66.878984 
L 146.974372 71.36076 
" clip-path="url(#pf8c6bb9b71)" style="fill: none; stroke: #d3d3d3"/>
    <path d="M 266.102829 100.763435 
L 266.651774 96.123413 
L 266.936995 91.477469 
L 266.960312 86.829366 
L 266.721873 82.182747 
L 266.220167 77.541421 
" clip-path="url(#pf8c6bb9b71)" style="fill: none; stroke: #d3d3d3"/>
    <path d="M 158.243592 111.197786 
L 161.715666 114.690084 
L 165.37228 117.470091 
L 169.922582 119.999484 
L 169.922582 119.999484 
L 169.922582 119.999484 
L 174.564993 121.751028 
L 179.991917 122.897122 
L 185.045592 123.168942 
L 189.601633 122.774574 
L 193.846493 121.843525 
L 197.910545 120.398318 
L 201.827045 118.418569 
L 205.607548 115.842097 
L 209.186854 112.608423 
L 212.436922 108.686958 
" clip-path="url(#pf8c6bb9b71)" style="fill: none; stroke: #d3d3d3"/>
    <path d="M 210.455646 66.284021 
L 206.983572 62.791723 
L 203.326959 60.011717 
L 198.776656 57.482324 
L 198.776656 57.482324 
L 198.776656 57.482324 
L 194.134245 55.73078 
L 188.707321 54.584686 
L 183.653647 54.312866 
L 179.097606 54.707234 
L 174.852746 55.638282 
L 170.788693 57.083489 
L 166.872193 59.063239 
L 163.09169 61.639711 
L 159.512385 64.873384 
L 156.262317 68.794849 
" clip-path="url(#pf8c6bb9b71)" style="fill: none; stroke: #d3d3d3"/>
    <path d="M 191.396054 62.728255 
L 187.592381 61.988589 
L 183.328332 61.814249 
L 178.624632 62.41355 
L 174.462458 63.681033 
L 174.462458 63.681033 
L 170.317742 65.748515 
L 170.317742 65.748515 
L 166.342688 68.715354 
L 166.342688 68.715354 
L 162.551639 72.938731 
L 159.94192 77.389073 
L 158.303556 81.957919 
L 157.524403 86.584737 
L 157.556008 91.227724 
L 158.400731 95.85164 
L 160.11223 100.413068 
L 162.515174 104.448827 
L 165.372438 107.797861 
L 168.527401 110.484887 
L 171.849264 112.547434 
L 175.291613 114.055778 
L 179.540607 115.190472 
L 179.540607 115.190472 
L 179.540607 115.190472 
L 183.674182 115.617576 
L 187.837774 115.400798 
L 191.620062 114.628431 
L 195.13749 113.373272 
L 198.544952 111.582716 
L 201.799447 109.208208 
L 204.812792 106.200332 
L 207.466932 102.501658 
L 209.565687 98.129307 
L 210.830636 93.530379 
L 211.262894 88.892448 
L 210.889491 84.252894 
L 209.68775 79.649034 
L 207.580211 75.1305 
L 204.41023 70.774337 
L 199.898143 66.740419 
L 199.898143 66.740419 
" clip-path="url(#pf8c6bb9b71)" style="fill: none; stroke: #d3d3d3"/>
    <path d="M 237.248755 100.763435 
L 238.091832 96.135306 
L 238.528661 91.493095 
L 238.565772 86.845794 
L 238.203721 82.201922 
L 237.437152 77.57051 
" clip-path="url(#pf8c6bb9b71)" style="fill: none; stroke: #d3d3d3"/>
    <path d="M 175.624308 109.125354 
L 179.540607 110.381459 
L 179.540607 110.381459 
L 179.540607 110.381459 
L 183.319593 110.887951 
L 187.201304 110.73033 
L 190.625911 110.010452 
L 193.746037 108.830432 
L 196.784485 107.108973 
L 199.634608 104.819555 
L 202.230182 101.87902 
" clip-path="url(#pf8c6bb9b71)" style="fill: none; stroke: #d3d3d3"/>
    <path d="M 201.654504 74.862091 
L 198.983332 72.074511 
L 196.093004 69.929413 
L 193.07493 68.356453 
L 189.158632 67.100348 
L 189.158632 67.100348 
L 189.158632 67.100348 
L 185.379645 66.593857 
L 181.497934 66.751478 
L 178.073327 67.471355 
L 174.953201 68.651375 
L 171.914753 70.372835 
L 169.064631 72.662252 
L 166.469057 75.602788 
" clip-path="url(#pf8c6bb9b71)" style="fill: none; stroke: #d3d3d3"/>
    <path d="M 168.846146 80.494002 
L 167.196366 85.039378 
L 166.829705 89.55102 
L 167.53236 93.692925 
L 169.038634 97.267635 
L 171.093045 100.196029 
L 173.475585 102.472959 
L 176.009578 104.14017 
L 179.540607 105.572447 
L 179.540607 105.572447 
L 179.540607 105.572447 
L 182.92421 106.191419 
L 186.477673 106.123419 
L 189.517677 105.476551 
L 192.270215 104.366177 
" clip-path="url(#pf8c6bb9b71)" style="fill: none; stroke: #d3d3d3"/>
    <path d="M 218.012706 100.763435 
L 219.317346 96.164629 
L 219.988963 91.53139 
L 220.051155 86.885936 
L 219.506115 82.248321 
L 218.335101 77.64044 
" clip-path="url(#pf8c6bb9b71)" style="fill: none; stroke: #d3d3d3"/>
    <path d="M 150.686533 76.718373 
L 149.381892 81.317179 
L 148.710275 85.950417 
L 148.648084 90.595872 
L 149.193124 95.233487 
L 150.364138 99.841368 
" clip-path="url(#pf8c6bb9b71)" style="fill: none; stroke: #d3d3d3"/>
    <path d="M 176.51398 99.066463 
L 179.540607 100.763435 
L 179.540607 100.763435 
L 179.540607 100.763435 
L 182.495386 101.562138 
L 185.724506 101.628552 
L 188.367124 101.067147 
L 190.702788 100.046796 
L 192.851887 98.538934 
L 194.795697 96.44272 
L 196.330652 93.747217 
L 197.232909 90.42933 
L 197.184973 86.648209 
L 195.895822 82.722307 
L 193.188108 79.147632 
L 193.188108 79.147632 
L 190.404253 77.177217 
L 190.404253 77.177217 
L 187.465289 76.057857 
L 187.465289 76.057857 
L 184.648489 75.680586 
L 181.80288 75.924096 
L 179.280985 76.691392 
L 177.067866 77.880416 
L 174.964889 79.629118 
" clip-path="url(#pf8c6bb9b71)" style="fill: none; stroke: #d3d3d3"/>
    <path d="M 176.132831 85.779481 
L 175.636193 88.937045 
L 176.171395 91.717413 
L 177.300806 93.832785 
L 179.540607 95.954422 
L 179.540607 95.954422 
L 179.540607 95.954422 
L 182.003964 97.100996 
L 182.003964 97.100996 
L 184.290221 97.429064 
L 186.563069 97.147827 
L 188.570021 96.348385 
L 190.264156 95.128971 
L 191.733642 93.365521 
L 192.776717 90.991727 
L 193.061027 88.082843 
L 192.208549 84.877057 
L 192.208549 84.877057 
" clip-path="url(#pf8c6bb9b71)" style="fill: none; stroke: #d3d3d3"/>
   </g>
   <g id="patch_3">
    <path d="M 48.878407 146.735175 
Q 48.97328 146.954816 48.624813 146.148079 
" clip-path="url(#pf8c6bb9b71)" style="fill: none; stroke: #d3d3d3; stroke-linecap: round"/>
    <path d="M 48.87471 141.682931 
L 48.624813 146.148079 
L 45.202632 143.269073 
z
" clip-path="url(#pf8c6bb9b71)" style="fill: #d3d3d3; stroke: #d3d3d3; stroke-linecap: round"/>
   </g>
   <g id="patch_4">
    <path d="M 45.395976 86.953853 
Q 45.394278 87.115005 45.404359 86.158185 
" clip-path="url(#pf8c6bb9b71)" style="fill: none; stroke: #d3d3d3; stroke-linecap: round"/>
    <path d="M 47.446391 82.179479 
L 45.404359 86.158185 
L 43.446613 82.137336 
z
" clip-path="url(#pf8c6bb9b71)" style="fill: #d3d3d3; stroke: #d3d3d3; stroke-linecap: round"/>
   </g>
   <g id="patch_5">
    <path d="M 61.655479 87.255732 
Q 61.653953 87.416883 61.663015 86.46005 
" clip-path="url(#pf8c6bb9b71)" style="fill: none; stroke: #d3d3d3; stroke-linecap: round"/>
    <path d="M 63.700807 82.47917 
L 61.663015 86.46005 
L 59.700986 82.441289 
z
" clip-path="url(#pf8c6bb9b71)" style="fill: #d3d3d3; stroke: #d3d3d3; stroke-linecap: round"/>
   </g>
   <g id="patch_6">
    <path d="M 85.273513 146.953226 
Q 85.424184 147.206672 85.003528 146.499085 
" clip-path="url(#pf8c6bb9b71)" style="fill: none; stroke: #d3d3d3; stroke-linecap: round"/>
    <path d="M 84.678629 142.038766 
L 85.003528 146.499085 
L 81.240334 144.082813 
z
" clip-path="url(#pf8c6bb9b71)" style="fill: #d3d3d3; stroke: #d3d3d3; stroke-linecap: round"/>
   </g>
   <g id="patch_7">
    <path d="M 97.107509 151.414676 
Q 97.313297 151.697222 96.860863 151.076031 
" clip-path="url(#pf8c6bb9b71)" style="fill: none; stroke: #d3d3d3; stroke-linecap: round"/>
    <path d="M 96.122592 146.665254 
L 96.860863 151.076031 
L 92.889279 149.020182 
z
" clip-path="url(#pf8c6bb9b71)" style="fill: #d3d3d3; stroke: #d3d3d3; stroke-linecap: round"/>
   </g>
   <g id="patch_8">
    <path d="M 84.048041 88.082501 
Q 84.047503 88.243648 84.050697 87.286768 
" clip-path="url(#pf8c6bb9b71)" style="fill: none; stroke: #d3d3d3; stroke-linecap: round"/>
    <path d="M 86.06404 83.293467 
L 84.050697 87.286768 
L 82.064062 83.280113 
z
" clip-path="url(#pf8c6bb9b71)" style="fill: #d3d3d3; stroke: #d3d3d3; stroke-linecap: round"/>
   </g>
   <g id="patch_9">
    <path d="M 96.852853 89.160426 
Q 96.854222 89.321569 96.846092 88.364718 
" clip-path="url(#pf8c6bb9b71)" style="fill: none; stroke: #d3d3d3; stroke-linecap: round"/>
    <path d="M 98.812032 84.347869 
L 96.846092 88.364718 
L 94.812177 84.381856 
z
" clip-path="url(#pf8c6bb9b71)" style="fill: #d3d3d3; stroke: #d3d3d3; stroke-linecap: round"/>
   </g>
   <g id="patch_10">
    <path d="M 106.978295 86.541007 
Q 106.97439 86.702135 106.997576 85.745557 
" clip-path="url(#pf8c6bb9b71)" style="fill: none; stroke: #d3d3d3; stroke-linecap: round"/>
    <path d="M 109.093914 81.795194 
L 106.997576 85.745557 
L 105.095088 81.698269 
z
" clip-path="url(#pf8c6bb9b71)" style="fill: #d3d3d3; stroke: #d3d3d3; stroke-linecap: round"/>
   </g>
   <g id="patch_11">
    <path d="M 143.19019 149.875544 
Q 143.771457 150.251088 143.413636 150.019908 
" clip-path="url(#pf8c6bb9b71)" style="fill: none; stroke: #d3d3d3; stroke-linecap: round"/>
    <path d="M 141.139199 146.169332 
L 143.413636 150.019908 
L 138.968513 149.529112 
z
" clip-path="url(#pf8c6bb9b71)" style="fill: #d3d3d3; stroke: #d3d3d3; stroke-linecap: round"/>
   </g>
   <g id="patch_12">
    <path d="M 254.199422 90.361668 
Q 254.202423 90.200541 254.184604 91.157254 
" clip-path="url(#pf8c6bb9b71)" style="fill: none; stroke: #d3d3d3; stroke-linecap: round"/>
    <path d="M 252.110463 95.119316 
L 254.184604 91.157254 
L 256.109769 95.193804 
z
" clip-path="url(#pf8c6bb9b71)" style="fill: #d3d3d3; stroke: #d3d3d3; stroke-linecap: round"/>
   </g>
   <g id="patch_13">
    <path d="M 240.611684 141.874603 
Q 240.907444 141.55432 240.444706 142.055427 
" clip-path="url(#pf8c6bb9b71)" style="fill: none; stroke: #d3d3d3; stroke-linecap: round"/>
    <path d="M 236.261673 143.637273 
L 240.444706 142.055427 
L 239.200364 146.350961 
z
" clip-path="url(#pf8c6bb9b71)" style="fill: #d3d3d3; stroke: #d3d3d3; stroke-linecap: round"/>
   </g>
   <g id="patch_14">
    <path d="M 271.840909 89.804997 
Q 271.842278 89.643854 271.834147 90.600705 
" clip-path="url(#pf8c6bb9b71)" style="fill: none; stroke: #d3d3d3; stroke-linecap: round"/>
    <path d="M 269.800232 94.583567 
L 271.834147 90.600705 
L 273.800088 94.617554 
z
" clip-path="url(#pf8c6bb9b71)" style="fill: #d3d3d3; stroke: #d3d3d3; stroke-linecap: round"/>
   </g>
   <g id="patch_15">
    <path d="M 284.65335 88.72709 
Q 284.652812 88.565943 284.656006 89.522823 
" clip-path="url(#pf8c6bb9b71)" style="fill: none; stroke: #d3d3d3; stroke-linecap: round"/>
    <path d="M 282.669371 93.529478 
L 284.656006 89.522823 
L 286.669349 93.516124 
z
" clip-path="url(#pf8c6bb9b71)" style="fill: #d3d3d3; stroke: #d3d3d3; stroke-linecap: round"/>
   </g>
   <g id="patch_16">
    <path d="M 279.211728 139.150001 
Q 279.337344 138.910722 278.943277 139.661357 
" clip-path="url(#pf8c6bb9b71)" style="fill: none; stroke: #d3d3d3; stroke-linecap: round"/>
    <path d="M 275.313191 142.273344 
L 278.943277 139.661357 
L 278.854816 144.132618 
z
" clip-path="url(#pf8c6bb9b71)" style="fill: #d3d3d3; stroke: #d3d3d3; stroke-linecap: round"/>
   </g>
   <g id="patch_17">
    <path d="M 279.994463 152.432275 
Q 280.171048 152.163867 279.733142 152.829483 
" clip-path="url(#pf8c6bb9b71)" style="fill: none; stroke: #d3d3d3; stroke-linecap: round"/>
    <path d="M 275.863842 155.071918 
L 279.733142 152.829483 
L 279.20551 157.270384 
z
" clip-path="url(#pf8c6bb9b71)" style="fill: #d3d3d3; stroke: #d3d3d3; stroke-linecap: round"/>
   </g>
   <g id="patch_18">
    <path d="M 307.049864 87.900335 
Q 307.048338 87.739185 307.0574 88.696018 
" clip-path="url(#pf8c6bb9b71)" style="fill: none; stroke: #d3d3d3; stroke-linecap: round"/>
    <path d="M 305.095371 92.714779 
L 307.0574 88.696018 
L 309.095192 92.676898 
z
" clip-path="url(#pf8c6bb9b71)" style="fill: #d3d3d3; stroke: #d3d3d3; stroke-linecap: round"/>
   </g>
   <g id="patch_19">
    <path d="M 313.893687 106.331318 
Q 313.916299 106.161462 313.791375 107.099863 
" clip-path="url(#pf8c6bb9b71)" style="fill: none; stroke: #d3d3d3; stroke-linecap: round"/>
    <path d="M 311.281025 110.800964 
L 313.791375 107.099863 
L 315.246045 111.328804 
z
" clip-path="url(#pf8c6bb9b71)" style="fill: #d3d3d3; stroke: #d3d3d3; stroke-linecap: round"/>
   </g>
   <g id="patch_20">
    <path d="M 319.441339 147.613737 
Q 319.536212 147.394097 319.187745 148.200833 
" clip-path="url(#pf8c6bb9b71)" style="fill: none; stroke: #d3d3d3; stroke-linecap: round"/>
    <path d="M 315.765564 151.079839 
L 319.187745 148.200833 
L 319.437642 152.665982 
z
" clip-path="url(#pf8c6bb9b71)" style="fill: #d3d3d3; stroke: #d3d3d3; stroke-linecap: round"/>
   </g>
   <g id="patch_21">
    <path d="M 320.576659 131.905193 
Q 320.637857 131.71011 320.364404 132.581801 
" clip-path="url(#pf8c6bb9b71)" style="fill: none; stroke: #d3d3d3; stroke-linecap: round"/>
    <path d="M 317.258813 135.799768 
L 320.364404 132.581801 
L 321.075423 136.997054 
z
" clip-path="url(#pf8c6bb9b71)" style="fill: #d3d3d3; stroke: #d3d3d3; stroke-linecap: round"/>
   </g>
   <g id="patch_22">
    <path d="M 322.657402 107.90125 
Q 322.680505 107.731409 322.552912 108.6694 
" clip-path="url(#pf8c6bb9b71)" style="fill: none; stroke: #d3d3d3; stroke-linecap: round"/>
    <path d="M 320.032016 112.363325 
L 322.552912 108.6694 
L 323.995515 112.902472 
z
" clip-path="url(#pf8c6bb9b71)" style="fill: #d3d3d3; stroke: #d3d3d3; stroke-linecap: round"/>
   </g>
   <g id="patch_23">
    <path d="M 318.874732 51.961331 
Q 318.823154 51.774715 319.069416 52.66573 
" clip-path="url(#pf8c6bb9b71)" style="fill: none; stroke: #d3d3d3; stroke-linecap: round"/>
    <path d="M 318.207274 57.053977 
L 319.069416 52.66573 
L 322.062729 55.988392 
z
" clip-path="url(#pf8c6bb9b71)" style="fill: #d3d3d3; stroke: #d3d3d3; stroke-linecap: round"/>
   </g>
   <g id="patch_24">
    <path d="M 319.329966 27.311842 
Q 319.227388 27.088408 319.591287 27.881046 
" clip-path="url(#pf8c6bb9b71)" style="fill: none; stroke: #d3d3d3; stroke-linecap: round"/>
    <path d="M 319.442601 32.350709 
L 319.591287 27.881046 
L 323.077806 30.681792 
z
" clip-path="url(#pf8c6bb9b71)" style="fill: #d3d3d3; stroke: #d3d3d3; stroke-linecap: round"/>
   </g>
   <g id="patch_25">
    <path d="M 297.959151 71.457474 
Q 297.93281 71.287755 298.077935 72.222844 
" clip-path="url(#pf8c6bb9b71)" style="fill: none; stroke: #d3d3d3; stroke-linecap: round"/>
    <path d="M 296.715046 76.482249 
L 298.077935 72.222844 
L 300.667726 75.868799 
z
" clip-path="url(#pf8c6bb9b71)" style="fill: #d3d3d3; stroke: #d3d3d3; stroke-linecap: round"/>
   </g>
   <g id="patch_26">
    <path d="M 241.794724 36.888336 
Q 241.498964 36.568053 241.961703 37.069159 
" clip-path="url(#pf8c6bb9b71)" style="fill: none; stroke: #d3d3d3; stroke-linecap: round"/>
    <path d="M 243.206045 41.364693 
L 241.961703 37.069159 
L 246.144735 38.651006 
z
" clip-path="url(#pf8c6bb9b71)" style="fill: #d3d3d3; stroke: #d3d3d3; stroke-linecap: round"/>
   </g>
   <g id="patch_27">
    <path d="M 141.945847 33.246704 
Q 141.489096 33.607826 141.909376 33.275539 
" clip-path="url(#pf8c6bb9b71)" style="fill: none; stroke: #d3d3d3; stroke-linecap: round"/>
    <path d="M 146.287546 32.363601 
L 141.909376 33.275539 
L 143.806727 29.22584 
z
" clip-path="url(#pf8c6bb9b71)" style="fill: #d3d3d3; stroke: #d3d3d3; stroke-linecap: round"/>
   </g>
   <g id="patch_28">
    <path d="M 70.845448 70.778599 
Q 70.819108 70.948318 70.964233 70.013229 
" clip-path="url(#pf8c6bb9b71)" style="fill: none; stroke: #d3d3d3; stroke-linecap: round"/>
    <path d="M 73.554023 66.367274 
L 70.964233 70.013229 
L 69.601344 65.753824 
z
" clip-path="url(#pf8c6bb9b71)" style="fill: #d3d3d3; stroke: #d3d3d3; stroke-linecap: round"/>
   </g>
   <g id="patch_29">
    <path d="M 67.69412 29.734367 
Q 67.57833 29.965545 67.963237 29.197071 
" clip-path="url(#pf8c6bb9b71)" style="fill: none; stroke: #d3d3d3; stroke-linecap: round"/>
    <path d="M 71.542814 26.516283 
L 67.963237 29.197071 
L 67.966353 24.724936 
z
" clip-path="url(#pf8c6bb9b71)" style="fill: #d3d3d3; stroke: #d3d3d3; stroke-linecap: round"/>
   </g>
   <g id="patch_30">
    <path d="M 48.01461 26.172686 
Q 47.912911 26.396219 48.274211 25.602092 
" clip-path="url(#pf8c6bb9b71)" style="fill: none; stroke: #d3d3d3; stroke-linecap: round"/>
    <path d="M 51.751136 22.789444 
L 48.274211 25.602092 
L 48.110247 21.132963 
z
" clip-path="url(#pf8c6bb9b71)" style="fill: #d3d3d3; stroke: #d3d3d3; stroke-linecap: round"/>
   </g>
   <g id="patch_31">
    <path d="M 162.212664 154.262503 
Q 162.91727 154.484041 162.555318 154.370238 
" clip-path="url(#pf8c6bb9b71)" style="fill: none; stroke: #d3d3d3; stroke-linecap: round"/>
    <path d="M 159.339356 151.262572 
L 162.555318 154.370238 
L 158.139608 155.078408 
z
" clip-path="url(#pf8c6bb9b71)" style="fill: #d3d3d3; stroke: #d3d3d3; stroke-linecap: round"/>
   </g>
   <g id="patch_32">
    <path d="M 200.026887 151.863269 
Q 200.518098 151.733164 199.928542 151.889317 
" clip-path="url(#pf8c6bb9b71)" style="fill: none; stroke: #d3d3d3; stroke-linecap: round"/>
    <path d="M 195.549801 150.980127 
L 199.928542 151.889317 
L 196.573946 154.846796 
z
" clip-path="url(#pf8c6bb9b71)" style="fill: #d3d3d3; stroke: #d3d3d3; stroke-linecap: round"/>
   </g>
   <g id="patch_33">
    <path d="M 177.192595 22.682669 
Q 176.646954 22.750876 177.210712 22.680404 
" clip-path="url(#pf8c6bb9b71)" style="fill: none; stroke: #d3d3d3; stroke-linecap: round"/>
    <path d="M 181.427898 24.168807 
L 177.210712 22.680404 
L 180.931746 20.199697 
z
" clip-path="url(#pf8c6bb9b71)" style="fill: #d3d3d3; stroke: #d3d3d3; stroke-linecap: round"/>
   </g>
   <g id="patch_34">
    <path d="M 50.854902 91.950234 
Q 50.859164 92.111374 50.833863 91.154871 
" clip-path="url(#pf8c6bb9b71)" style="fill: none; stroke: #d3d3d3; stroke-linecap: round"/>
    <path d="M 52.727395 87.103385 
L 50.833863 91.154871 
L 48.728794 87.209154 
z
" clip-path="url(#pf8c6bb9b71)" style="fill: #d3d3d3; stroke: #d3d3d3; stroke-linecap: round"/>
   </g>
   <g id="patch_35">
    <path d="M 127.03762 118.771435 
Q 127.165398 119.010362 126.76592 118.26339 
" clip-path="url(#pf8c6bb9b71)" style="fill: none; stroke: #d3d3d3; stroke-linecap: round"/>
    <path d="M 126.643181 113.792938 
L 126.76592 118.26339 
L 123.115915 115.679309 
z
" clip-path="url(#pf8c6bb9b71)" style="fill: #d3d3d3; stroke: #d3d3d3; stroke-linecap: round"/>
   </g>
   <g id="patch_36">
    <path d="M 234.662407 55.5663 
Q 234.478873 55.29438 234.920822 55.94916 
" clip-path="url(#pf8c6bb9b71)" style="fill: none; stroke: #d3d3d3; stroke-linecap: round"/>
    <path d="M 235.500887 60.383517 
L 234.920822 55.94916 
L 238.816347 58.145722 
z
" clip-path="url(#pf8c6bb9b71)" style="fill: #d3d3d3; stroke: #d3d3d3; stroke-linecap: round"/>
   </g>
   <g id="patch_37">
    <path d="M 261.79016 35.700042 
Q 261.598596 35.424617 262.045421 36.067048 
" clip-path="url(#pf8c6bb9b71)" style="fill: none; stroke: #d3d3d3; stroke-linecap: round"/>
    <path d="M 262.687475 40.492855 
L 262.045421 36.067048 
L 265.971299 38.208889 
z
" clip-path="url(#pf8c6bb9b71)" style="fill: #d3d3d3; stroke: #d3d3d3; stroke-linecap: round"/>
   </g>
   <g id="patch_38">
    <path d="M 107.675333 34.598342 
Q 107.48377 34.873767 107.930594 34.231335 
" clip-path="url(#pf8c6bb9b71)" style="fill: none; stroke: #d3d3d3; stroke-linecap: round"/>
    <path d="M 111.856472 32.089495 
L 107.930594 34.231335 
L 108.572649 29.805528 
z
" clip-path="url(#pf8c6bb9b71)" style="fill: #d3d3d3; stroke: #d3d3d3; stroke-linecap: round"/>
   </g>
   <g id="patch_39">
    <path d="M 141.583686 126.571391 
Q 141.87249 126.88805 141.407893 126.378642 
" clip-path="url(#pf8c6bb9b71)" style="fill: none; stroke: #d3d3d3; stroke-linecap: round"/>
    <path d="M 140.190152 122.075491 
L 141.407893 126.378642 
L 137.234728 124.770944 
z
" clip-path="url(#pf8c6bb9b71)" style="fill: #d3d3d3; stroke: #d3d3d3; stroke-linecap: round"/>
   </g>
   <g id="patch_40">
    <path d="M 271.728953 27.378686 
Q 271.530336 27.099669 271.98009 27.731483 
" clip-path="url(#pf8c6bb9b71)" style="fill: none; stroke: #d3d3d3; stroke-linecap: round"/>
    <path d="M 272.670427 32.150016 
L 271.98009 27.731483 
L 275.929119 29.830334 
z
" clip-path="url(#pf8c6bb9b71)" style="fill: #d3d3d3; stroke: #d3d3d3; stroke-linecap: round"/>
   </g>
   <g id="patch_41">
    <path d="M 184.429956 31.654426 
Q 183.92228 31.662669 184.532491 31.652762 
" clip-path="url(#pf8c6bb9b71)" style="fill: none; stroke: #d3d3d3; stroke-linecap: round"/>
    <path d="M 188.564431 33.587563 
L 184.532491 31.652762 
L 188.499496 29.58809 
z
" clip-path="url(#pf8c6bb9b71)" style="fill: #d3d3d3; stroke: #d3d3d3; stroke-linecap: round"/>
   </g>
   <g id="patch_42">
    <path d="M 97.764754 26.262616 
Q 97.566137 26.541634 98.015891 25.909819 
" clip-path="url(#pf8c6bb9b71)" style="fill: none; stroke: #d3d3d3; stroke-linecap: round"/>
    <path d="M 101.964919 23.810969 
L 98.015891 25.909819 
L 98.706228 21.491286 
z
" clip-path="url(#pf8c6bb9b71)" style="fill: #d3d3d3; stroke: #d3d3d3; stroke-linecap: round"/>
   </g>
   <g id="patch_43">
    <path d="M 205.371406 136.800328 
Q 205.711953 136.645645 205.034556 136.953333 
" clip-path="url(#pf8c6bb9b71)" style="fill: none; stroke: #d3d3d3; stroke-linecap: round"/>
    <path d="M 200.565529 136.786612 
L 205.034556 136.953333 
L 202.219763 140.428522 
z
" clip-path="url(#pf8c6bb9b71)" style="fill: #d3d3d3; stroke: #d3d3d3; stroke-linecap: round"/>
   </g>
   <g id="patch_44">
    <path d="M 184.85112 36.298183 
Q 184.394054 36.301702 185.054988 36.296614 
" clip-path="url(#pf8c6bb9b71)" style="fill: none; stroke: #d3d3d3; stroke-linecap: round"/>
    <path d="M 189.070265 38.265765 
L 185.054988 36.296614 
L 189.039475 34.265883 
z
" clip-path="url(#pf8c6bb9b71)" style="fill: #d3d3d3; stroke: #d3d3d3; stroke-linecap: round"/>
   </g>
   <g id="patch_45">
    <path d="M 156.921316 127.938409 
Q 157.231888 128.148417 156.616293 127.732153 
" clip-path="url(#pf8c6bb9b71)" style="fill: none; stroke: #d3d3d3; stroke-linecap: round"/>
    <path d="M 154.423049 123.834759 
L 156.616293 127.732153 
L 152.182431 127.148312 
z
" clip-path="url(#pf8c6bb9b71)" style="fill: #d3d3d3; stroke: #d3d3d3; stroke-linecap: round"/>
   </g>
   <g id="patch_46">
    <path d="M 179.667621 41.125209 
Q 179.34531 41.161257 180.134104 41.073037 
" clip-path="url(#pf8c6bb9b71)" style="fill: none; stroke: #d3d3d3; stroke-linecap: round"/>
    <path d="M 184.331616 42.616053 
L 180.134104 41.073037 
L 183.887024 38.640838 
z
" clip-path="url(#pf8c6bb9b71)" style="fill: #d3d3d3; stroke: #d3d3d3; stroke-linecap: round"/>
   </g>
   <g id="patch_47">
    <path d="M 225.405732 86.548694 
Q 225.395897 86.387692 225.454233 87.342643 
" clip-path="url(#pf8c6bb9b71)" style="fill: none; stroke: #d3d3d3; stroke-linecap: round"/>
    <path d="M 223.70185 91.457149 
L 225.454233 87.342643 
L 227.694408 91.213253 
z
" clip-path="url(#pf8c6bb9b71)" style="fill: #d3d3d3; stroke: #d3d3d3; stroke-linecap: round"/>
   </g>
   <g id="patch_48">
    <path d="M 266.947037 89.475698 
Q 266.947845 89.314558 266.943045 90.271437 
" clip-path="url(#pf8c6bb9b71)" style="fill: none; stroke: #d3d3d3; stroke-linecap: round"/>
    <path d="M 264.923005 94.261354 
L 266.943045 90.271437 
L 268.922955 94.28142 
z
" clip-path="url(#pf8c6bb9b71)" style="fill: #d3d3d3; stroke: #d3d3d3; stroke-linecap: round"/>
   </g>
   <g id="patch_49">
    <path d="M 187.03441 122.996791 
Q 187.179011 122.984274 186.209743 123.068174 
" clip-path="url(#pf8c6bb9b71)" style="fill: none; stroke: #d3d3d3; stroke-linecap: round"/>
    <path d="M 182.052171 121.420572 
L 186.209743 123.068174 
L 182.397118 125.40567 
z
" clip-path="url(#pf8c6bb9b71)" style="fill: #d3d3d3; stroke: #d3d3d3; stroke-linecap: round"/>
   </g>
   <g id="patch_50">
    <path d="M 181.664828 54.485017 
Q 181.520227 54.497533 182.489495 54.413634 
" clip-path="url(#pf8c6bb9b71)" style="fill: none; stroke: #d3d3d3; stroke-linecap: round"/>
    <path d="M 186.647067 56.061236 
L 182.489495 54.413634 
L 186.30212 52.076137 
z
" clip-path="url(#pf8c6bb9b71)" style="fill: #d3d3d3; stroke: #d3d3d3; stroke-linecap: round"/>
   </g>
   <g id="patch_51">
    <path d="M 171.849264 112.547434 
Q 172.709851 112.92452 172.546397 112.852899 
" clip-path="url(#pf8c6bb9b71)" style="fill: none; stroke: #d3d3d3; stroke-linecap: round"/>
    <path d="M 169.685345 109.415693 
L 172.546397 112.852899 
L 168.080001 113.079417 
z
" clip-path="url(#pf8c6bb9b71)" style="fill: #d3d3d3; stroke: #d3d3d3; stroke-linecap: round"/>
   </g>
   <g id="patch_52">
    <path d="M 238.544643 89.491669 
Q 238.54593 89.330557 238.538289 90.287443 
" clip-path="url(#pf8c6bb9b71)" style="fill: none; stroke: #d3d3d3; stroke-linecap: round"/>
    <path d="M 236.506411 94.271345 
L 238.538289 90.287443 
L 240.506284 94.303286 
z
" clip-path="url(#pf8c6bb9b71)" style="fill: #d3d3d3; stroke: #d3d3d3; stroke-linecap: round"/>
   </g>
   <g id="patch_53">
    <path d="M 187.201304 110.73033 
Q 188.057456 110.550361 187.819485 110.600384 
" clip-path="url(#pf8c6bb9b71)" style="fill: none; stroke: #d3d3d3; stroke-linecap: round"/>
    <path d="M 183.493612 109.466005 
L 187.819485 110.600384 
L 184.316458 113.380456 
z
" clip-path="url(#pf8c6bb9b71)" style="fill: #d3d3d3; stroke: #d3d3d3; stroke-linecap: round"/>
   </g>
   <g id="patch_54">
    <path d="M 185.379645 66.593857 
Q 184.409217 66.633262 184.555903 66.627306 
" clip-path="url(#pf8c6bb9b71)" style="fill: none; stroke: #d3d3d3; stroke-linecap: round"/>
    <path d="M 188.633755 68.463369 
L 184.555903 66.627306 
L 188.471464 64.466662 
z
" clip-path="url(#pf8c6bb9b71)" style="fill: #d3d3d3; stroke: #d3d3d3; stroke-linecap: round"/>
   </g>
   <g id="patch_55">
    <path d="M 171.093045 100.196029 
Q 171.68868 100.765261 171.476034 100.562042 
" clip-path="url(#pf8c6bb9b71)" style="fill: none; stroke: #d3d3d3; stroke-linecap: round"/>
    <path d="M 169.966046 96.352536 
L 171.476034 100.562042 
L 167.202437 99.244329 
z
" clip-path="url(#pf8c6bb9b71)" style="fill: #d3d3d3; stroke: #d3d3d3; stroke-linecap: round"/>
   </g>
   <g id="patch_56">
    <path d="M 220.015747 89.53076 
Q 220.017903 89.369712 220.005093 90.326597 
" clip-path="url(#pf8c6bb9b71)" style="fill: none; stroke: #d3d3d3; stroke-linecap: round"/>
    <path d="M 217.951726 94.299466 
L 220.005093 90.326597 
L 221.951368 94.353011 
z
" clip-path="url(#pf8c6bb9b71)" style="fill: #d3d3d3; stroke: #d3d3d3; stroke-linecap: round"/>
   </g>
   <g id="patch_57">
    <path d="M 148.683492 87.951048 
Q 148.681336 88.112096 148.694146 87.155211 
" clip-path="url(#pf8c6bb9b71)" style="fill: none; stroke: #d3d3d3; stroke-linecap: round"/>
    <path d="M 150.747512 83.182342 
L 148.694146 87.155211 
L 146.74787 83.128796 
z
" clip-path="url(#pf8c6bb9b71)" style="fill: #d3d3d3; stroke: #d3d3d3; stroke-linecap: round"/>
   </g>
   <g id="patch_58">
    <path d="M 197.232909 90.42933 
Q 197.220925 89.48405 197.223114 89.656713 
" clip-path="url(#pf8c6bb9b71)" style="fill: none; stroke: #d3d3d3; stroke-linecap: round"/>
    <path d="M 195.273981 93.681745 
L 197.223114 89.656713 
L 199.27366 93.631039 
z
" clip-path="url(#pf8c6bb9b71)" style="fill: #d3d3d3; stroke: #d3d3d3; stroke-linecap: round"/>
   </g>
   <g id="patch_59">
    <path d="M 184.290221 97.429064 
Q 184.858433 97.358755 184.317073 97.425741 
" clip-path="url(#pf8c6bb9b71)" style="fill: none; stroke: #d3d3d3; stroke-linecap: round"/>
    <path d="M 180.101746 95.932082 
L 184.317073 97.425741 
L 180.592949 99.901807 
z
" clip-path="url(#pf8c6bb9b71)" style="fill: #d3d3d3; stroke: #d3d3d3; stroke-linecap: round"/>
   </g>
   <g id="line2d_29">
    <path d="M 230.836738 88.740904 
L 230.72772 85.535728 
L 230.397968 82.345585 
L 229.849036 79.185659 
L 229.083522 76.070991 
L 228.105055 73.016407 
L 226.918276 70.03645 
L 225.528819 67.145307 
L 223.943283 64.356744 
L 222.169201 61.68404 
L 220.215003 59.139922 
L 218.089977 56.736507 
L 215.804224 54.485245 
L 213.368613 52.396859 
L 210.794724 50.4813 
L 208.094798 48.747697 
L 205.281676 47.204313 
L 202.368738 45.858507 
L 199.369842 44.716696 
L 196.299253 43.78433 
L 193.171581 43.065861 
L 190.001707 42.564722 
L 186.804715 42.283313 
L 183.595817 42.22299 
L 180.390285 42.384053 
L 177.203376 42.765753 
L 174.050258 43.366287 
L 170.94594 44.182814 
L 167.905199 45.21146 
L 164.942512 46.447346 
L 162.071984 47.884604 
L 159.307284 49.516408 
L 156.661576 51.335004 
L 154.14746 53.33175 
L 151.776912 55.497156 
L 149.561222 57.820928 
L 147.510947 60.292017 
L 145.635855 62.898672 
L 143.944884 65.628497 
L 142.446093 68.468509 
L 141.14663 71.405199 
L 140.052691 74.424597 
L 139.169498 77.512338 
L 138.501269 80.653732 
L 138.051198 83.833832 
L 137.821443 87.037506 
L 137.813113 90.249507 
L 138.026262 93.454551 
L 138.459891 96.637382 
L 139.111952 99.782851 
L 139.979356 102.875985 
L 141.057991 105.902061 
L 142.342737 108.84667 
L 143.827493 111.695794 
L 145.505208 114.435865 
L 147.36791 117.053837 
L 149.406746 119.53724 
L 151.612026 121.874246 
L 153.973265 124.053723 
L 156.479236 126.065287 
L 159.118023 127.899353 
L 161.877077 129.547179 
L 164.743273 131.000911 
L 167.70298 132.253617 
L 170.742116 133.29932 
L 173.846224 134.133029 
L 177.000535 134.750762 
L 180.19004 135.149565 
L 183.399561 135.327523 
L 186.613825 135.283776 
L 189.817536 135.018515 
L 192.995444 134.532988 
L 196.132423 133.82949 
L 197.56919 133.430136 
L 197.56919 133.430136 
" clip-path="url(#pf8c6bb9b71)" style="fill: none; stroke: #000000; stroke-linecap: square"/>
   </g>
   <g id="line2d_30">
    <defs>
     <path id="mc48a56308d" d="M 0 3 
C 0.795609 3 1.55874 2.683901 2.12132 2.12132 
C 2.683901 1.55874 3 0.795609 3 0 
C 3 -0.795609 2.683901 -1.55874 2.12132 -2.12132 
C 1.55874 -2.683901 0.795609 -3 0 -3 
C -0.795609 -3 -1.55874 -2.683901 -2.12132 -2.12132 
C -2.683901 -1.55874 -3 -0.795609 -3 0 
C -3 0.795609 -2.683901 1.55874 -2.12132 2.12132 
C -1.55874 2.683901 -0.795609 3 0 3 
z
" style="stroke: #000000"/>
    </defs>
    <g clip-path="url(#pf8c6bb9b71)">
     <use xlink:href="#mc48a56308d" x="230.836738" y="88.740904" style="stroke: #000000"/>
    </g>
   </g>
   <g id="patch_60">
    <path d="M 38.278823 166.681808 
L 38.278823 10.8 
" style="fill: none; stroke: #000000; stroke-width: 0.8; stroke-linejoin: miter; stroke-linecap: square"/>
   </g>
   <g id="patch_61">
    <path d="M 330.420416 166.681808 
L 330.420416 10.8 
" style="fill: none; stroke: #000000; stroke-width: 0.8; stroke-linejoin: miter; stroke-linecap: square"/>
   </g>
   <g id="patch_62">
    <path d="M 38.278823 166.681808 
L 330.420416 166.681808 
" style="fill: none; stroke: #000000; stroke-width: 0.8; stroke-linejoin: miter; stroke-linecap: square"/>
   </g>
   <g id="patch_63">
    <path d="M 38.278823 10.8 
L 330.420416 10.8 
" style="fill: none; stroke: #000000; stroke-width: 0.8; stroke-linejoin: miter; stroke-linecap: square"/>
   </g>
   <g id="patch_64">
    <path d="M 201.627066 132.234183 
L 198.008152 134.754686 
L 197.745313 133.86287 
L 197.70061 133.876045 
L 197.437771 132.984228 
L 197.482473 132.971053 
L 197.219633 132.079237 
z
" clip-path="url(#pf8c6bb9b71)" style="stroke: #000000; stroke-linejoin: miter"/>
   </g>
  </g>
 </g>
 <defs>
  <clipPath id="pf8c6bb9b71">
   <rect x="38.278823" y="10.8" width="292.141593" height="155.881808"/>
  </clipPath>
 </defs>
</svg>
