<?xml version="1.0" encoding="utf-8" standalone="no"?>
<!DOCTYPE svg PUBLIC "-//W3C//DTD SVG 1.1//EN"
  "http://www.w3.org/Graphics/SVG/1.1/DTD/svg11.dtd">
<!-- Created with matplotlib (https://matplotlib.org/) -->
<svg height="345.6pt" version="1.1" viewBox="0 0 460.8 345.6" width="460.8pt" xmlns="http://www.w3.org/2000/svg" xmlns:xlink="http://www.w3.org/1999/xlink">
 <defs>
  <style type="text/css">
*{stroke-linecap:butt;stroke-linejoin:round;}
  </style>
 </defs>
 <g id="figure_1">
  <g id="patch_1">
   <path d="M 0 345.6 
L 460.8 345.6 
L 460.8 0 
L 0 0 
z
" style="fill:#ffffff;"/>
  </g>
  <g id="axes_1">
   <g id="patch_2">
    <path d="M 60.91227 293.96 
L 447.48 293.96 
L 447.48 13.32 
L 60.91227 13.32 
z
" style="fill:#ffffff;"/>
   </g>
   <g id="matplotlib.axis_1">
    <g id="xtick_1">
     <g id="line2d_1">
      <path clip-path="url(#p9c30df6dfd)" d="M 78.48353 293.96 
L 78.48353 13.32 
" style="fill:none;stroke:#b0b0b0;stroke-linecap:square;stroke-width:0.8;"/>
     </g>
     <g id="line2d_2">
      <defs>
       <path d="M 0 0 
L 0 3.5 
" id="mdea05d9860" style="stroke:#000000;stroke-width:0.8;"/>
      </defs>
      <g>
       <use style="stroke:#000000;stroke-width:0.8;" x="78.48353" xlink:href="#mdea05d9860" y="293.96"/>
      </g>
     </g>
     <g id="text_1">
      <!-- $0$ -->
      <defs>
       <path d="M 42 31.84375 
C 42 37.96875 41.90625 48.421875 37.703125 56.453125 
C 34 63.484375 28.09375 66 22.90625 66 
C 18.09375 66 12 63.78125 8.203125 56.5625 
C 4.203125 49.015625 3.796875 39.671875 3.796875 31.84375 
C 3.796875 26.109375 3.90625 17.375 7 9.734375 
C 11.296875 -0.609375 19 -2 22.90625 -2 
C 27.5 -2 34.5 -0.109375 38.59375 9.4375 
C 41.59375 16.375 42 24.5 42 31.84375 
z
M 22.90625 -0.40625 
C 16.5 -0.40625 12.703125 5.125 11.296875 12.75 
C 10.203125 18.6875 10.203125 27.328125 10.203125 32.953125 
C 10.203125 40.6875 10.203125 47.109375 11.5 53.234375 
C 13.40625 61.78125 19 64.390625 22.90625 64.390625 
C 27 64.390625 32.296875 61.671875 34.203125 53.4375 
C 35.5 47.71875 35.59375 40.984375 35.59375 32.953125 
C 35.59375 26.421875 35.59375 18.375 34.40625 12.453125 
C 32.296875 1.5 26.40625 -0.40625 22.90625 -0.40625 
z
" id="CMR17-48"/>
      </defs>
      <g transform="translate(70.487697 325.174752)scale(0.35 -0.35)">
       <use transform="scale(0.996264)" xlink:href="#CMR17-48"/>
      </g>
     </g>
    </g>
    <g id="xtick_2">
     <g id="line2d_3">
      <path clip-path="url(#p9c30df6dfd)" d="M 219.053614 293.96 
L 219.053614 13.32 
" style="fill:none;stroke:#b0b0b0;stroke-linecap:square;stroke-width:0.8;"/>
     </g>
     <g id="line2d_4">
      <g>
       <use style="stroke:#000000;stroke-width:0.8;" x="219.053614" xlink:href="#mdea05d9860" y="293.96"/>
      </g>
     </g>
     <g id="text_2">
      <!-- $2$ -->
      <defs>
       <path d="M 41.703125 15.46875 
L 39.90625 15.46875 
C 38.90625 8.390625 38.09375 7.1875 37.703125 6.59375 
C 37.203125 5.796875 30 5.796875 28.59375 5.796875 
L 9.40625 5.796875 
C 13 9.6875 20 16.765625 28.5 24.9375 
C 34.59375 30.71875 41.703125 37.5 41.703125 47.390625 
C 41.703125 59.1875 32.296875 66 21.796875 66 
C 10.796875 66 4.09375 56.296875 4.09375 47.296875 
C 4.09375 43.390625 7 42.890625 8.203125 42.890625 
C 9.203125 42.890625 12.203125 43.484375 12.203125 46.984375 
C 12.203125 50.09375 9.59375 51 8.203125 51 
C 7.59375 51 7 50.890625 6.59375 50.6875 
C 8.5 59.1875 14.296875 63.390625 20.40625 63.390625 
C 29.09375 63.390625 34.796875 56.5 34.796875 47.390625 
C 34.796875 38.703125 29.703125 31.21875 24 24.734375 
L 4.09375 2.296875 
L 4.09375 0 
L 39.296875 0 
z
" id="CMR17-50"/>
      </defs>
      <g transform="translate(211.057781 325.174752)scale(0.35 -0.35)">
       <use transform="scale(0.996264)" xlink:href="#CMR17-50"/>
      </g>
     </g>
    </g>
    <g id="xtick_3">
     <g id="line2d_5">
      <path clip-path="url(#p9c30df6dfd)" d="M 359.623698 293.96 
L 359.623698 13.32 
" style="fill:none;stroke:#b0b0b0;stroke-linecap:square;stroke-width:0.8;"/>
     </g>
     <g id="line2d_6">
      <g>
       <use style="stroke:#000000;stroke-width:0.8;" x="359.623698" xlink:href="#mdea05d9860" y="293.96"/>
      </g>
     </g>
     <g id="text_3">
      <!-- $4$ -->
      <defs>
       <path d="M 33.59375 64.796875 
C 33.59375 66.890625 33.5 67 31.703125 67 
L 2 19.59375 
L 2 17 
L 27.796875 17 
L 27.796875 7.1875 
C 27.796875 3.59375 27.59375 2.59375 20.59375 2.59375 
L 18.703125 2.59375 
L 18.703125 0 
C 21.90625 0.1875 27.296875 0.1875 30.703125 0.1875 
C 34.09375 0.1875 39.5 0.1875 42.703125 0 
L 42.703125 2.59375 
L 40.796875 2.59375 
C 33.796875 2.59375 33.59375 3.59375 33.59375 7.1875 
L 33.59375 17 
L 43.796875 17 
L 43.796875 19.59375 
L 33.59375 19.59375 
z
M 28.09375 58.171875 
L 28.09375 19.59375 
L 4 19.59375 
z
" id="CMR17-52"/>
      </defs>
      <g transform="translate(351.627864 325.174752)scale(0.35 -0.35)">
       <use transform="scale(0.996264)" xlink:href="#CMR17-52"/>
      </g>
     </g>
    </g>
   </g>
   <g id="matplotlib.axis_2">
    <g id="ytick_1">
     <g id="line2d_7">
      <path clip-path="url(#p9c30df6dfd)" d="M 60.91227 281.103556 
L 447.48 281.103556 
" style="fill:none;stroke:#b0b0b0;stroke-linecap:square;stroke-width:0.8;"/>
     </g>
     <g id="line2d_8">
      <defs>
       <path d="M 0 0 
L -3.5 0 
" id="m22930239b8" style="stroke:#000000;stroke-width:0.8;"/>
      </defs>
      <g>
       <use style="stroke:#000000;stroke-width:0.8;" x="60.91227" xlink:href="#m22930239b8" y="281.103556"/>
      </g>
     </g>
     <g id="text_4">
      <!-- $-1$ -->
      <defs>
       <path d="M 65.90625 23 
C 67.59375 23 69.40625 23 69.40625 25 
C 69.40625 27 67.59375 27 65.90625 27 
L 11.796875 27 
C 10.09375 27 8.296875 27 8.296875 25 
C 8.296875 23 10.09375 23 11.796875 23 
z
" id="CMSY10-0"/>
       <path d="M 26.59375 63.796875 
C 26.59375 65.890625 26.5 66 25.09375 66 
C 21.203125 61.359375 15.296875 59.890625 9.703125 59.6875 
C 9.40625 59.6875 8.90625 59.6875 8.796875 59.5 
C 8.703125 59.296875 8.703125 59.09375 8.703125 57 
C 11.796875 57 17 57.59375 21 59.984375 
L 21 7.296875 
C 21 3.796875 20.796875 2.59375 12.203125 2.59375 
L 9.203125 2.59375 
L 9.203125 0 
C 14 0.09375 19 0.1875 23.796875 0.1875 
C 28.59375 0.1875 33.59375 0.09375 38.40625 0 
L 38.40625 2.59375 
L 35.40625 2.59375 
C 26.796875 2.59375 26.59375 3.6875 26.59375 7.296875 
z
" id="CMR17-49"/>
      </defs>
      <g transform="translate(10.8 293.210932)scale(0.35 -0.35)">
       <use transform="scale(0.996264)" xlink:href="#CMSY10-0"/>
       <use transform="translate(77.487468 0)scale(0.996264)" xlink:href="#CMR17-49"/>
      </g>
     </g>
    </g>
    <g id="ytick_2">
     <g id="line2d_9">
      <path clip-path="url(#p9c30df6dfd)" d="M 60.91227 153.740191 
L 447.48 153.740191 
" style="fill:none;stroke:#b0b0b0;stroke-linecap:square;stroke-width:0.8;"/>
     </g>
     <g id="line2d_10">
      <g>
       <use style="stroke:#000000;stroke-width:0.8;" x="60.91227" xlink:href="#m22930239b8" y="153.740191"/>
      </g>
     </g>
     <g id="text_5">
      <!-- $0$ -->
      <g transform="translate(37.920603 165.847567)scale(0.35 -0.35)">
       <use transform="scale(0.996264)" xlink:href="#CMR17-48"/>
      </g>
     </g>
    </g>
    <g id="ytick_3">
     <g id="line2d_11">
      <path clip-path="url(#p9c30df6dfd)" d="M 60.91227 26.376825 
L 447.48 26.376825 
" style="fill:none;stroke:#b0b0b0;stroke-linecap:square;stroke-width:0.8;"/>
     </g>
     <g id="line2d_12">
      <g>
       <use style="stroke:#000000;stroke-width:0.8;" x="60.91227" xlink:href="#m22930239b8" y="26.376825"/>
      </g>
     </g>
     <g id="text_6">
      <!-- $1$ -->
      <g transform="translate(37.920603 38.484201)scale(0.35 -0.35)">
       <use transform="scale(0.996264)" xlink:href="#CMR17-49"/>
      </g>
     </g>
    </g>
   </g>
   <g id="line2d_13">
    <path clip-path="url(#p9c30df6dfd)" d="M 78.48353 281.103556 
L 81.435502 280.99391 
L 84.387474 280.659813 
L 87.339446 280.101843 
L 90.361703 279.299679 
L 93.383959 278.265351 
L 96.476501 276.968631 
L 99.639328 275.395673 
L 102.87244 273.533127 
L 106.175837 271.368268 
L 109.549519 268.889132 
L 113.063771 266.024595 
L 116.648308 262.813538 
L 120.373415 259.175959 
L 124.239093 255.087973 
L 128.24534 250.527834 
L 132.462443 245.388059 
L 136.8904 239.636319 
L 141.599498 233.145579 
L 146.589736 225.878642 
L 151.931399 217.697556 
L 157.694773 208.457209 
L 164.090711 197.774052 
L 171.470641 184.999099 
L 180.748266 168.466234 
L 209.775989 116.407355 
L 217.085633 103.952404 
L 223.411287 93.602579 
L 229.17466 84.59366 
L 234.446038 76.758582 
L 239.365991 69.834977 
L 244.004804 63.682421 
L 248.432762 58.174616 
L 252.649864 53.280989 
L 256.656111 48.966404 
L 260.521789 45.125454 
L 264.246896 41.734635 
L 267.831433 38.768473 
L 271.2754 36.200027 
L 274.649082 33.957425 
L 277.952479 32.028777 
L 281.115306 30.433966 
L 284.207848 29.115903 
L 287.30039 28.039021 
L 290.322647 27.221647 
L 293.274618 26.649043 
L 296.22659 26.300577 
L 299.178562 26.17687 
L 302.130534 26.278152 
L 305.082505 26.604252 
L 308.034477 27.154606 
L 310.986449 27.928251 
L 314.008706 28.950229 
L 317.101247 30.234818 
L 320.264074 31.795923 
L 323.497186 33.646957 
L 326.800583 35.80071 
L 330.174265 38.269213 
L 333.688517 41.123462 
L 337.273054 44.324881 
L 340.998162 47.953387 
L 344.863839 52.032999 
L 348.870086 56.585606 
L 353.087189 61.71874 
L 357.515146 67.464955 
L 362.153959 73.851946 
L 367.073912 81.00599 
L 372.34529 89.065977 
L 378.108664 98.293379 
L 384.504603 108.967913 
L 391.814247 121.616972 
L 400.881017 137.775276 
L 429.90874 189.95859 
L 429.90874 189.95859 
" style="fill:none;stroke:#1f77b4;stroke-linecap:square;stroke-width:1.5;"/>
   </g>
   <g id="line2d_14">
    <path clip-path="url(#p9c30df6dfd)" d="M 78.48353 153.740191 
L 94.08681 181.786285 
L 102.31016 196.101301 
L 109.198094 207.655096 
L 115.242607 217.372435 
L 120.795126 225.886739 
L 125.925934 233.356059 
L 130.775602 240.027365 
L 135.344129 245.937242 
L 139.701802 251.212191 
L 143.848619 255.884666 
L 147.784582 259.991235 
L 151.579974 263.636004 
L 155.234796 266.843276 
L 158.749048 269.639091 
L 162.193015 272.098106 
L 165.496412 274.189967 
L 168.729524 275.979843 
L 171.892351 277.480666 
L 174.984893 278.705973 
L 178.00715 279.669783 
L 181.029406 280.400822 
L 183.981378 280.888839 
L 186.93335 281.152615 
L 189.885322 281.191675 
L 192.837294 281.00594 
L 195.789265 280.595729 
L 198.741237 279.961756 
L 201.763494 279.082032 
L 204.785751 277.970543 
L 207.878292 276.595431 
L 211.041119 274.943043 
L 214.274231 273.000247 
L 217.577628 270.754554 
L 221.021595 268.138096 
L 224.535847 265.185071 
L 228.19067 261.818383 
L 231.986062 258.012895 
L 235.922024 253.745308 
L 239.998557 248.994694 
L 244.285944 243.652733 
L 248.784187 237.688521 
L 253.56357 230.975065 
L 258.624093 223.477766 
L 264.106326 214.948542 
L 270.080554 205.231123 
L 276.757633 193.932855 
L 284.559273 180.2786 
L 295.031744 161.464775 
L 316.257827 123.2401 
L 324.200037 109.463507 
L 330.947401 98.195273 
L 336.921629 88.641053 
L 342.403862 80.284931 
L 347.464385 72.966369 
L 352.243768 66.437621 
L 356.742011 60.660632 
L 361.029399 55.508523 
L 365.105931 50.948131 
L 369.041893 46.872614 
L 372.837286 43.259622 
L 376.492108 40.084563 
L 380.00636 37.321134 
L 383.450327 34.895121 
L 386.753724 32.836016 
L 389.986836 31.079173 
L 393.149663 29.61153 
L 396.242205 28.419426 
L 399.264461 27.488731 
L 402.286718 26.791404 
L 405.23869 26.336831 
L 408.190662 26.106949 
L 411.142633 26.102175 
L 414.094605 26.322526 
L 417.046577 26.767622 
L 419.998549 27.436688 
L 423.020805 28.352492 
L 426.043062 29.500146 
L 429.135604 30.912285 
L 429.90874 31.302596 
L 429.90874 31.302596 
" style="fill:none;stroke:#ff7f0e;stroke-linecap:square;stroke-width:1.5;"/>
   </g>
   <g id="patch_3">
    <path d="M 60.91227 293.96 
L 60.91227 13.32 
" style="fill:none;stroke:#000000;stroke-linecap:square;stroke-linejoin:miter;stroke-width:0.8;"/>
   </g>
   <g id="patch_4">
    <path d="M 447.48 293.96 
L 447.48 13.32 
" style="fill:none;stroke:#000000;stroke-linecap:square;stroke-linejoin:miter;stroke-width:0.8;"/>
   </g>
   <g id="patch_5">
    <path d="M 60.91227 293.96 
L 447.48 293.96 
" style="fill:none;stroke:#000000;stroke-linecap:square;stroke-linejoin:miter;stroke-width:0.8;"/>
   </g>
   <g id="patch_6">
    <path d="M 60.91227 13.32 
L 447.48 13.32 
" style="fill:none;stroke:#000000;stroke-linecap:square;stroke-linejoin:miter;stroke-width:0.8;"/>
   </g>
  </g>
 </g>
 <defs>
  <clipPath id="p9c30df6dfd">
   <rect height="280.64" width="386.56773" x="60.91227" y="13.32"/>
  </clipPath>
 </defs>
</svg>
