<?xml version="1.0" encoding="utf-8" standalone="no"?>
<!DOCTYPE svg PUBLIC "-//W3C//DTD SVG 1.1//EN"
  "http://www.w3.org/Graphics/SVG/1.1/DTD/svg11.dtd">
<svg xmlns:xlink="http://www.w3.org/1999/xlink" width="343.711083pt" height="193.337484pt" viewBox="0 0 343.711083 193.337484" xmlns="http://www.w3.org/2000/svg" version="1.1">
 <metadata>
  <rdf:RDF xmlns:dc="http://purl.org/dc/elements/1.1/" xmlns:cc="http://creativecommons.org/ns#" xmlns:rdf="http://www.w3.org/1999/02/22-rdf-syntax-ns#">
   <cc:Work>
    <dc:type rdf:resource="http://purl.org/dc/dcmitype/StillImage"/>
    <dc:date>2026-02-12T22:40:19.660644</dc:date>
    <dc:format>image/svg+xml</dc:format>
    <dc:creator>
     <cc:Agent>
      <dc:title>Matplotlib v3.10.0, https://matplotlib.org/</dc:title>
     </cc:Agent>
    </dc:creator>
   </cc:Work>
  </rdf:RDF>
 </metadata>
 <defs>
  <style type="text/css">*{stroke-linejoin: round; stroke-linecap: butt}</style>
 </defs>
 <g id="figure_1">
  <g id="patch_1">
   <path d="M 0 193.337484 
L 343.711083 193.337484 
L 343.711083 0 
L 0 0 
z
" style="fill: #ffffff"/>
  </g>
  <g id="patch_2">
   <path d="M 101.716999 172.070361 
L 250.586862 172.070361 
L 250.586862 23.200498 
L 101.716999 23.200498 
z
" style="fill: #ffffff"/>
  </g>
  <g id="pane3d_1">
   <g id="patch_3">
    <path d="M 112.9577 135.363824 
L 162.119391 94.15552 
L 161.435996 34.725779 
L 109.921665 72.318591 
" style="fill: #f2f2f2; opacity: 0.5; stroke: #f2f2f2; stroke-linejoin: miter"/>
   </g>
  </g>
  <g id="pane3d_2">
   <g id="patch_4">
    <path d="M 162.119391 94.15552 
L 241.006363 117.084848 
L 243.821561 55.608118 
L 161.435996 34.725779 
" style="fill: #e6e6e6; opacity: 0.5; stroke: #e6e6e6; stroke-linejoin: miter"/>
   </g>
  </g>
  <g id="pane3d_3">
   <g id="patch_5">
    <path d="M 112.9577 135.363824 
L 196.581744 162.675436 
L 241.006363 117.084848 
L 162.119391 94.15552 
" style="fill: #ececec; opacity: 0.5; stroke: #ececec; stroke-linejoin: miter"/>
   </g>
  </g>
  <g id="grid3d_1">
   <g id="Line3DCollection_1">
    <path d="M 118.022411 137.017958 
L 166.917055 95.550011 
L 166.436509 35.993263 
" style="fill: none; stroke: #b0b0b0; stroke-width: 0.8"/>
    <path d="M 190.991299 160.849597 
L 235.754287 115.558277 
L 238.32574 54.215088 
" style="fill: none; stroke: #b0b0b0; stroke-width: 0.8"/>
   </g>
  </g>
  <g id="grid3d_2"/>
  <g id="grid3d_3"/>
  <g id="axis3d_1">
   <g id="line2d_1">
    <path d="M 112.9577 135.363824 
L 196.581744 162.675436 
" style="fill: none; stroke: #000000; stroke-width: 0.8; stroke-linecap: square"/>
   </g>
   <g id="xtick_1">
    <g id="line2d_2">
     <path d="M 118.448183 136.656858 
L 117.16904 137.741709 
" style="fill: none; stroke: #000000; stroke-width: 0.8; stroke-linecap: square"/>
    </g>
    <g id="text_1">
     <!-- $\mathdefault{0}$ -->
     <g transform="translate(107.980588 159.693297) scale(0.1 -0.1)">
      <defs>
       <path id="CMR17-30" d="M 2688 2038 
C 2688 2430 2682 3099 2413 3613 
C 2176 4063 1798 4224 1466 4224 
C 1158 4224 768 4082 525 3620 
C 269 3137 243 2539 243 2038 
C 243 1671 250 1112 448 623 
C 723 -39 1216 -128 1466 -128 
C 1760 -128 2208 -7 2470 604 
C 2662 1048 2688 1568 2688 2038 
z
M 1466 -26 
C 1056 -26 813 328 723 816 
C 653 1196 653 1749 653 2109 
C 653 2604 653 3015 736 3407 
C 858 3954 1216 4121 1466 4121 
C 1728 4121 2067 3947 2189 3420 
C 2272 3054 2278 2623 2278 2109 
C 2278 1691 2278 1176 2202 797 
C 2067 96 1690 -26 1466 -26 
z
" transform="scale(0.015625)"/>
      </defs>
      <use xlink:href="#CMR17-30" transform="scale(0.996264)"/>
     </g>
    </g>
   </g>
   <g id="xtick_2">
    <g id="line2d_3">
     <path d="M 191.382584 160.453694 
L 190.20697 161.643183 
" style="fill: none; stroke: #000000; stroke-width: 0.8; stroke-linecap: square"/>
    </g>
    <g id="text_2">
     <!-- $\mathdefault{20}$ -->
     <g transform="translate(178.610022 184.438602) scale(0.1 -0.1)">
      <defs>
       <path id="CMR17-32" d="M 2669 990 
L 2554 990 
C 2490 537 2438 460 2413 422 
C 2381 371 1920 371 1830 371 
L 602 371 
C 832 620 1280 1073 1824 1596 
C 2214 1966 2669 2400 2669 3033 
C 2669 3788 2067 4224 1395 4224 
C 691 4224 262 3603 262 3027 
C 262 2777 448 2745 525 2745 
C 589 2745 781 2783 781 3007 
C 781 3206 614 3264 525 3264 
C 486 3264 448 3257 422 3244 
C 544 3788 915 4057 1306 4057 
C 1862 4057 2227 3616 2227 3033 
C 2227 2477 1901 1998 1536 1583 
L 262 147 
L 262 0 
L 2515 0 
L 2669 990 
z
" transform="scale(0.015625)"/>
      </defs>
      <use xlink:href="#CMR17-32" transform="scale(0.996264)"/>
      <use xlink:href="#CMR17-30" transform="translate(45.690477 0) scale(0.996264)"/>
     </g>
    </g>
   </g>
   <g id="text_3">
    <!-- $t$ -->
    <g transform="translate(135.469912 186.654523) scale(0.1 -0.1)">
     <defs>
      <path id="CMMI12-74" d="M 1286 2566 
L 1875 2566 
C 1997 2566 2061 2566 2061 2681 
C 2061 2752 2022 2752 1894 2752 
L 1331 2752 
L 1568 3664 
C 1594 3752 1594 3764 1594 3808 
C 1594 3910 1510 3968 1427 3968 
C 1376 3968 1229 3948 1178 3746 
L 928 2752 
L 326 2752 
C 198 2752 141 2752 141 2630 
C 141 2566 186 2566 307 2566 
L 877 2566 
L 454 881 
C 403 657 384 593 384 510 
C 384 210 595 -64 954 -64 
C 1600 -64 1946 868 1946 913 
C 1946 951 1920 970 1882 970 
C 1869 970 1843 970 1830 944 
C 1824 938 1818 932 1773 830 
C 1638 510 1344 64 973 64 
C 781 64 768 223 768 364 
C 768 370 768 491 787 568 
L 1286 2566 
z
" transform="scale(0.015625)"/>
     </defs>
     <use xlink:href="#CMMI12-74" transform="scale(0.996264)"/>
    </g>
   </g>
  </g>
  <g id="axis3d_2">
   <g id="line2d_4">
    <path d="M 241.006363 117.084848 
L 196.581744 162.675436 
" style="fill: none; stroke: #000000; stroke-width: 0.8; stroke-linecap: square"/>
   </g>
   <g id="text_4">
    <!-- $\Re(x(t))$ -->
    <g transform="translate(237.408042 180.090749) rotate(-45.742112) scale(0.1 -0.1)">
     <defs>
      <path id="CMSY10-3c" d="M 3667 4518 
C 3616 4608 3610 4614 3520 4614 
C 3078 4614 2298 4435 1965 3889 
C 1869 4075 1555 4544 1069 4544 
C 634 4544 352 4139 352 3773 
C 352 3529 499 3369 678 3183 
C 1037 2823 1037 2720 1037 2483 
C 1037 2107 998 1728 723 1728 
C 550 1728 518 1961 512 2075 
C 512 2126 506 2176 429 2176 
C 352 2176 352 2107 352 2081 
C 352 1968 410 1587 723 1587 
C 1242 1587 1242 2399 1242 2547 
C 1242 2740 1229 2984 794 3388 
C 614 3549 544 3645 544 3786 
C 544 4062 730 4403 1062 4403 
C 1395 4403 1651 3902 1651 3151 
L 1651 1263 
C 1651 1204 1651 12 1235 12 
C 998 12 762 213 627 621 
C 646 621 774 667 774 725 
C 774 764 723 796 704 796 
C 678 796 595 764 570 751 
C 563 790 531 861 486 861 
C 448 861 403 809 403 777 
C 403 751 416 712 429 693 
C 390 686 294 647 294 595 
C 294 563 333 524 365 524 
C 384 524 461 550 480 563 
C 685 0 1011 -128 1235 -128 
C 1690 -128 2195 459 2195 1772 
L 2195 2233 
L 2931 2233 
L 3014 829 
C 3014 783 2989 738 2989 615 
C 2989 226 3302 -128 3731 -128 
C 3814 -128 3827 -128 3949 -39 
L 4410 323 
C 4486 388 4493 395 4493 420 
C 4493 472 4390 511 4371 511 
C 4339 511 4109 323 3821 84 
C 3603 226 3526 440 3526 615 
C 3526 738 3552 757 3552 829 
C 3552 1016 3520 1353 3514 1554 
C 3501 1683 3475 2189 3469 2278 
C 3827 2393 4525 2804 4538 2810 
C 4557 2830 4570 2842 4570 2875 
C 4570 2887 4531 2964 4525 2971 
L 3667 4518 
z
M 4032 2759 
C 3443 2432 3309 2432 3123 2432 
L 2195 2432 
L 2195 2746 
C 2195 3189 2138 3440 2067 3639 
C 2291 4255 3117 4371 3123 4371 
C 3136 4371 3174 4306 3181 4300 
L 4032 2759 
z
" transform="scale(0.015625)"/>
      <path id="CMR17-28" d="M 1958 -1562 
C 1958 -1556 1958 -1543 1939 -1524 
C 1645 -1223 858 -403 858 1596 
C 858 3595 1632 4408 1946 4729 
C 1946 4735 1958 4748 1958 4767 
C 1958 4787 1939 4800 1914 4800 
C 1843 4800 1299 4325 986 3620 
C 666 2909 576 2218 576 1603 
C 576 1141 621 360 1005 -467 
C 1312 -1133 1837 -1600 1914 -1600 
C 1946 -1600 1958 -1588 1958 -1562 
z
" transform="scale(0.015625)"/>
      <path id="CMMI12-78" d="M 3034 2624 
C 2829 2585 2752 2431 2752 2310 
C 2752 2156 2874 2105 2963 2105 
C 3155 2105 3290 2271 3290 2444 
C 3290 2694 2982 2816 2714 2816 
C 2323 2816 2106 2451 2048 2329 
C 1901 2790 1504 2816 1389 2816 
C 736 2816 390 1993 390 1849 
C 390 1823 416 1790 461 1790 
C 512 1790 525 1829 538 1855 
C 755 2572 1184 2687 1370 2687 
C 1658 2687 1715 2438 1715 2284 
C 1715 2143 1677 1993 1600 1678 
L 1382 778 
C 1286 390 1101 64 762 64 
C 730 64 570 64 435 126 
C 666 166 717 358 717 435 
C 717 563 621 640 499 640 
C 346 640 179 505 179 300 
C 179 57 480 -64 755 -64 
C 1062 -64 1280 153 1414 415 
C 1517 64 1837 -64 2074 -64 
C 2726 -64 3072 751 3072 896 
C 3072 929 3046 955 3008 955 
C 2950 955 2944 922 2925 870 
C 2752 300 2381 64 2093 64 
C 1869 64 1747 204 1747 467 
C 1747 607 1773 712 1875 1146 
L 2099 2039 
C 2195 2425 2413 2687 2707 2687 
C 2720 2687 2899 2687 3034 2624 
z
" transform="scale(0.015625)"/>
      <path id="CMR17-29" d="M 1683 1596 
C 1683 2057 1638 2839 1254 3665 
C 947 4332 422 4800 346 4800 
C 326 4800 301 4793 301 4761 
C 301 4748 307 4742 314 4729 
C 621 4408 1402 3595 1402 1603 
C 1402 -396 627 -1210 314 -1530 
C 307 -1543 301 -1549 301 -1562 
C 301 -1594 326 -1600 346 -1600 
C 416 -1600 960 -1127 1274 -422 
C 1594 289 1683 981 1683 1596 
z
" transform="scale(0.015625)"/>
     </defs>
     <use xlink:href="#CMSY10-3c" transform="scale(0.996264)"/>
     <use xlink:href="#CMR17-28" transform="translate(71.95259 0) scale(0.996264)"/>
     <use xlink:href="#CMMI12-78" transform="translate(107.233358 0) scale(0.996264)"/>
     <use xlink:href="#CMR17-28" transform="translate(162.667417 0) scale(0.996264)"/>
     <use xlink:href="#CMMI12-74" transform="translate(197.948185 0) scale(0.996264)"/>
     <use xlink:href="#CMR17-29" transform="translate(233.174515 0) scale(0.996264)"/>
     <use xlink:href="#CMR17-29" transform="translate(268.455283 0) scale(0.996264)"/>
    </g>
   </g>
  </g>
  <g id="axis3d_3">
   <g id="line2d_5">
    <path d="M 241.006363 117.084848 
L 243.821561 55.608118 
" style="fill: none; stroke: #000000; stroke-width: 0.8; stroke-linecap: square"/>
   </g>
   <g id="text_5">
    <!-- $\mathrm{Im}(x(t))$ -->
    <g transform="translate(284.197889 100.077865) rotate(-87.378092) scale(0.1 -0.1)">
     <defs>
      <path id="CMR17-49" d="M 1261 3898 
C 1261 4185 1338 4185 1798 4185 
L 1798 4352 
C 1594 4339 1267 4339 1050 4339 
C 832 4339 506 4339 301 4352 
L 301 4185 
C 762 4185 838 4185 838 3898 
L 838 453 
C 838 166 762 166 301 166 
L 301 0 
C 506 12 832 12 1050 12 
C 1267 12 1594 12 1798 0 
L 1798 166 
C 1338 166 1261 166 1261 453 
L 1261 3898 
z
" transform="scale(0.015625)"/>
      <path id="CMR17-6d" d="M 4326 1954 
C 4326 2276 4269 2816 3507 2816 
C 3072 2816 2771 2520 2656 2173 
L 2650 2173 
C 2573 2700 2195 2816 1837 2816 
C 1331 2816 1069 2424 973 2166 
L 966 2166 
L 966 2816 
L 211 2745 
L 211 2578 
C 589 2578 646 2540 646 2231 
L 646 443 
C 646 198 621 166 211 166 
L 211 0 
C 365 12 646 12 813 12 
C 979 12 1267 12 1421 0 
L 1421 166 
C 1011 166 986 192 986 443 
L 986 1678 
C 986 2269 1344 2713 1792 2713 
C 2266 2713 2317 2289 2317 1980 
L 2317 443 
C 2317 198 2291 166 1882 166 
L 1882 0 
C 2035 12 2317 12 2483 12 
C 2650 12 2938 12 3091 0 
L 3091 166 
C 2682 166 2656 192 2656 443 
L 2656 1678 
C 2656 2269 3014 2713 3462 2713 
C 3936 2713 3987 2289 3987 1980 
L 3987 443 
C 3987 198 3962 166 3552 166 
L 3552 0 
C 3706 12 3987 12 4154 12 
C 4320 12 4608 12 4762 0 
L 4762 166 
C 4352 166 4326 192 4326 443 
L 4326 1954 
z
" transform="scale(0.015625)"/>
     </defs>
     <use xlink:href="#CMR17-49" transform="scale(0.996264)"/>
     <use xlink:href="#CMR17-6d" transform="translate(32.638409 0) scale(0.996264)"/>
     <use xlink:href="#CMR17-28" transform="translate(109.557999 0) scale(0.996264)"/>
     <use xlink:href="#CMMI12-78" transform="translate(144.838767 0) scale(0.996264)"/>
     <use xlink:href="#CMR17-28" transform="translate(200.272826 0) scale(0.996264)"/>
     <use xlink:href="#CMMI12-74" transform="translate(235.553594 0) scale(0.996264)"/>
     <use xlink:href="#CMR17-29" transform="translate(270.779924 0) scale(0.996264)"/>
     <use xlink:href="#CMR17-29" transform="translate(306.060692 0) scale(0.996264)"/>
    </g>
   </g>
  </g>
  <g id="axes_1">
   <g id="line2d_6">
    <path d="M 163.74871 68.724916 
L 163.974814 65.505788 
L 163.942282 63.019151 
L 163.710934 60.737398 
L 163.284425 58.684285 
L 162.668111 56.8821 
L 161.869078 55.351432 
L 161.104178 54.334992 
L 160.233309 53.512842 
L 159.26254 52.892542 
L 158.198661 52.480574 
L 157.049169 52.282267 
L 155.822251 52.3017 
L 154.526761 52.54163 
L 153.17218 53.003413 
L 151.768582 53.686935 
L 149.96136 54.850504 
L 148.115911 56.351165 
L 146.254933 58.178275 
L 144.40182 60.317191 
L 142.580381 62.749294 
L 140.81453 65.452084 
L 139.127954 68.399354 
L 137.543767 71.561448 
L 136.084151 74.905589 
L 134.770011 78.396295 
L 133.620631 81.995856 
L 132.653358 85.664868 
L 131.883316 89.362822 
L 131.323158 93.048717 
L 130.98287 96.681688 
L 130.869625 100.221633 
L 130.987697 103.629823 
L 131.338428 106.869473 
L 131.92026 109.90626 
L 132.728816 112.708787 
L 133.534244 114.763146 
L 134.475529 116.636807 
L 135.546934 118.318607 
L 136.741846 119.798998 
L 138.052857 121.070088 
L 139.47185 122.125647 
L 140.990097 122.961111 
L 142.598345 123.573556 
L 144.286912 123.961661 
L 146.045774 124.12566 
L 147.864657 124.067277 
L 149.733117 123.789657 
L 151.64062 123.297285 
L 153.576616 122.595905 
L 156.020694 121.435896 
L 158.472651 119.976036 
L 160.91269 118.234533 
L 163.3216 116.231684 
L 165.680886 113.989615 
L 167.972874 111.532031 
L 170.180798 108.883981 
L 172.697192 105.491825 
L 175.044581 101.910082 
L 177.199975 98.187145 
L 179.142775 94.372434 
L 180.854872 90.516 
L 182.320729 86.668159 
L 183.527473 82.879136 
L 184.464983 79.198704 
L 185.125991 75.675828 
L 185.50619 72.358268 
L 185.604348 69.292171 
L 185.472015 66.961052 
L 185.148009 64.859379 
L 184.636859 63.009867 
L 183.944773 61.43354 
L 183.266095 60.382075 
L 182.481506 59.526489 
L 181.596572 58.874577 
L 180.617566 58.433064 
L 179.551465 58.207511 
L 178.40593 58.202239 
L 177.189291 58.420234 
L 175.910512 58.863078 
L 174.579159 59.530872 
L 172.856496 60.679602 
L 171.088368 62.171115 
L 169.296627 63.995074 
L 167.503903 66.137082 
L 165.73334 68.578694 
L 164.008295 71.2975 
L 162.352022 74.267298 
L 160.787336 77.458334 
L 159.061543 81.532983 
L 157.535128 85.81636 
L 156.439087 89.497173 
L 155.521068 93.236126 
L 154.795703 96.991814 
L 154.275192 100.722515 
L 153.969121 104.386838 
L 153.884321 107.944354 
L 154.024788 111.356212 
L 154.39166 114.58571 
L 154.983255 117.598808 
L 155.795152 120.364577 
L 156.598656 122.380548 
L 157.533993 124.208268 
L 158.595522 125.837031 
L 159.776759 127.257798 
L 161.070455 128.463222 
L 162.468687 129.44766 
L 163.962943 130.207153 
L 165.544216 130.739404 
L 167.203091 131.043732 
L 168.929834 131.121012 
L 170.714472 130.973611 
L 172.546881 130.60531 
L 174.416854 130.021216 
L 176.314174 129.227679 
L 178.708815 127.952759 
L 181.110739 126.379329 
L 183.500806 124.526635 
L 185.860447 122.415951 
L 188.171788 120.070309 
L 190.417748 117.514255 
L 193.003844 114.205679 
L 195.446307 110.677941 
L 197.721038 106.979335 
L 199.806152 103.159405 
L 201.682074 99.26853 
L 203.331629 95.357548 
L 204.740127 91.477385 
L 205.895452 87.678709 
L 206.788152 84.011567 
L 207.411546 80.525019 
L 207.761829 77.266735 
L 207.838199 74.282571 
L 207.694173 72.036673 
L 207.364532 70.035182 
L 206.853938 68.300262 
L 206.168697 66.852258 
L 205.500069 65.912787 
L 204.729617 65.176964 
L 203.862908 64.65203 
L 202.906205 64.344087 
L 201.866452 64.25801 
L 200.751267 64.397363 
L 199.568912 64.764315 
L 198.328266 65.359561 
L 196.709945 66.423224 
L 195.03498 67.83699 
L 193.324105 69.591653 
L 191.598961 71.673889 
L 189.881847 74.066249 
L 188.195444 76.747216 
L 186.244343 80.309251 
L 184.409058 84.199101 
L 182.72707 88.358944 
L 181.233678 92.72511 
L 179.961171 97.229328 
L 178.938064 101.800147 
L 178.293495 105.607335 
L 177.850206 109.367673 
L 177.616897 113.039462 
L 177.599559 116.582303 
L 177.801416 119.957703 
L 178.222914 123.129635 
L 178.861778 126.065032 
L 179.713104 128.734202 
L 180.542255 130.660271 
L 181.497856 132.38778 
L 182.57419 133.906938 
L 183.764749 135.209676 
L 185.062312 136.289659 
L 186.459036 137.14228 
L 187.946538 137.764639 
L 189.515982 138.155499 
L 191.158169 138.315233 
L 192.863619 138.245757 
L 194.622646 137.950454 
L 196.425444 137.43409 
L 198.262147 136.702721 
L 200.590701 135.497325 
L 202.937771 133.983984 
L 205.284619 132.181684 
L 207.612989 130.111535 
L 209.905226 127.796495 
L 212.144381 125.261111 
L 214.738609 121.964339 
L 217.206917 118.434448 
L 219.524981 114.720076 
L 221.670539 110.871197 
L 223.623487 106.9387 
L 225.365968 102.973998 
L 226.882458 99.02866 
L 228.159853 95.154061 
L 229.187555 91.401023 
L 229.957574 87.819453 
L 230.464637 84.457956 
L 230.706302 81.36341 
L 230.683088 78.580507 
L 230.463906 76.529874 
L 230.067001 74.747485 
L 229.497738 73.254134 
L 228.922874 72.280223 
L 228.246484 71.511854 
L 227.473589 70.956507 
L 226.60989 70.620527 
L 225.661767 70.509028 
L 224.636261 70.625812 
L 224.096867 70.770617 
L 224.096867 70.770617 
" clip-path="url(#p42506e5740)" style="fill: none; stroke: #1f77b4; stroke-linecap: square"/>
   </g>
  </g>
 </g>
 <defs>
  <clipPath id="p42506e5740">
   <rect x="101.716999" y="23.200498" width="148.869863" height="148.869863"/>
  </clipPath>
 </defs>
</svg>
