<?xml version="1.0" encoding="utf-8" standalone="no"?>
<!DOCTYPE svg PUBLIC "-//W3C//DTD SVG 1.1//EN"
  "http://www.w3.org/Graphics/SVG/1.1/DTD/svg11.dtd">
<!-- Created with matplotlib (https://matplotlib.org/) -->
<svg height="345.6pt" version="1.1" viewBox="0 0 460.8 345.6" width="460.8pt" xmlns="http://www.w3.org/2000/svg" xmlns:xlink="http://www.w3.org/1999/xlink">
 <defs>
  <style type="text/css">
*{stroke-linecap:butt;stroke-linejoin:round;}
  </style>
 </defs>
 <g id="figure_1">
  <g id="patch_1">
   <path d="M 0 345.6 
L 460.8 345.6 
L 460.8 0 
L 0 0 
z
" style="fill:#ffffff;"/>
  </g>
  <g id="axes_1">
   <g id="patch_2">
    <path d="M 60.91227 256.12 
L 447.48 256.12 
L 447.48 13.32 
L 60.91227 13.32 
z
" style="fill:#ffffff;"/>
   </g>
   <g id="matplotlib.axis_1">
    <g id="xtick_1">
     <g id="line2d_1">
      <path clip-path="url(#pe05a9d28e0)" d="M 78.48353 256.12 
L 78.48353 13.32 
" style="fill:none;stroke:#b0b0b0;stroke-linecap:square;stroke-width:0.8;"/>
     </g>
     <g id="line2d_2">
      <defs>
       <path d="M 0 0 
L 0 3.5 
" id="mac0cbfdb11" style="stroke:#000000;stroke-width:0.8;"/>
      </defs>
      <g>
       <use style="stroke:#000000;stroke-width:0.8;" x="78.48353" xlink:href="#mac0cbfdb11" y="256.12"/>
      </g>
     </g>
     <g id="text_1">
      <!-- $0$ -->
      <defs>
       <path d="M 42 31.84375 
C 42 37.96875 41.90625 48.421875 37.703125 56.453125 
C 34 63.484375 28.09375 66 22.90625 66 
C 18.09375 66 12 63.78125 8.203125 56.5625 
C 4.203125 49.015625 3.796875 39.671875 3.796875 31.84375 
C 3.796875 26.109375 3.90625 17.375 7 9.734375 
C 11.296875 -0.609375 19 -2 22.90625 -2 
C 27.5 -2 34.5 -0.109375 38.59375 9.4375 
C 41.59375 16.375 42 24.5 42 31.84375 
z
M 22.90625 -0.40625 
C 16.5 -0.40625 12.703125 5.125 11.296875 12.75 
C 10.203125 18.6875 10.203125 27.328125 10.203125 32.953125 
C 10.203125 40.6875 10.203125 47.109375 11.5 53.234375 
C 13.40625 61.78125 19 64.390625 22.90625 64.390625 
C 27 64.390625 32.296875 61.671875 34.203125 53.4375 
C 35.5 47.71875 35.59375 40.984375 35.59375 32.953125 
C 35.59375 26.421875 35.59375 18.375 34.40625 12.453125 
C 32.296875 1.5 26.40625 -0.40625 22.90625 -0.40625 
z
" id="CMR17-48"/>
      </defs>
      <g transform="translate(70.487697 287.334752)scale(0.35 -0.35)">
       <use transform="scale(0.996264)" xlink:href="#CMR17-48"/>
      </g>
     </g>
    </g>
    <g id="xtick_2">
     <g id="line2d_3">
      <path clip-path="url(#pe05a9d28e0)" d="M 254.196135 256.12 
L 254.196135 13.32 
" style="fill:none;stroke:#b0b0b0;stroke-linecap:square;stroke-width:0.8;"/>
     </g>
     <g id="line2d_4">
      <g>
       <use style="stroke:#000000;stroke-width:0.8;" x="254.196135" xlink:href="#mac0cbfdb11" y="256.12"/>
      </g>
     </g>
     <g id="text_2">
      <!-- $10$ -->
      <defs>
       <path d="M 26.59375 63.796875 
C 26.59375 65.890625 26.5 66 25.09375 66 
C 21.203125 61.359375 15.296875 59.890625 9.703125 59.6875 
C 9.40625 59.6875 8.90625 59.6875 8.796875 59.5 
C 8.703125 59.296875 8.703125 59.09375 8.703125 57 
C 11.796875 57 17 57.59375 21 59.984375 
L 21 7.296875 
C 21 3.796875 20.796875 2.59375 12.203125 2.59375 
L 9.203125 2.59375 
L 9.203125 0 
C 14 0.09375 19 0.1875 23.796875 0.1875 
C 28.59375 0.1875 33.59375 0.09375 38.40625 0 
L 38.40625 2.59375 
L 35.40625 2.59375 
C 26.796875 2.59375 26.59375 3.6875 26.59375 7.296875 
z
" id="CMR17-49"/>
      </defs>
      <g transform="translate(238.204468 287.334752)scale(0.35 -0.35)">
       <use transform="scale(0.996264)" xlink:href="#CMR17-49"/>
       <use transform="translate(45.690477 0)scale(0.996264)" xlink:href="#CMR17-48"/>
      </g>
     </g>
    </g>
    <g id="xtick_3">
     <g id="line2d_5">
      <path clip-path="url(#pe05a9d28e0)" d="M 429.90874 256.12 
L 429.90874 13.32 
" style="fill:none;stroke:#b0b0b0;stroke-linecap:square;stroke-width:0.8;"/>
     </g>
     <g id="line2d_6">
      <g>
       <use style="stroke:#000000;stroke-width:0.8;" x="429.90874" xlink:href="#mac0cbfdb11" y="256.12"/>
      </g>
     </g>
     <g id="text_3">
      <!-- $20$ -->
      <defs>
       <path d="M 41.703125 15.46875 
L 39.90625 15.46875 
C 38.90625 8.390625 38.09375 7.1875 37.703125 6.59375 
C 37.203125 5.796875 30 5.796875 28.59375 5.796875 
L 9.40625 5.796875 
C 13 9.6875 20 16.765625 28.5 24.9375 
C 34.59375 30.71875 41.703125 37.5 41.703125 47.390625 
C 41.703125 59.1875 32.296875 66 21.796875 66 
C 10.796875 66 4.09375 56.296875 4.09375 47.296875 
C 4.09375 43.390625 7 42.890625 8.203125 42.890625 
C 9.203125 42.890625 12.203125 43.484375 12.203125 46.984375 
C 12.203125 50.09375 9.59375 51 8.203125 51 
C 7.59375 51 7 50.890625 6.59375 50.6875 
C 8.5 59.1875 14.296875 63.390625 20.40625 63.390625 
C 29.09375 63.390625 34.796875 56.5 34.796875 47.390625 
C 34.796875 38.703125 29.703125 31.21875 24 24.734375 
L 4.09375 2.296875 
L 4.09375 0 
L 39.296875 0 
z
" id="CMR17-50"/>
      </defs>
      <g transform="translate(413.917073 287.334752)scale(0.35 -0.35)">
       <use transform="scale(0.996264)" xlink:href="#CMR17-50"/>
       <use transform="translate(45.690477 0)scale(0.996264)" xlink:href="#CMR17-48"/>
      </g>
     </g>
    </g>
    <g id="text_4">
     <!-- $t$ -->
     <defs>
      <path d="M 20.09375 40.09375 
L 29.296875 40.09375 
C 31.203125 40.09375 32.203125 40.09375 32.203125 41.890625 
C 32.203125 43 31.59375 43 29.59375 43 
L 20.796875 43 
L 24.5 57.25 
C 24.90625 58.625 24.90625 58.8125 24.90625 59.5 
C 24.90625 61.09375 23.59375 62 22.296875 62 
C 21.5 62 19.203125 61.6875 18.40625 58.53125 
L 14.5 43 
L 5.09375 43 
C 3.09375 43 2.203125 43 2.203125 41.09375 
C 2.203125 40.09375 2.90625 40.09375 4.796875 40.09375 
L 13.703125 40.09375 
L 7.09375 13.765625 
C 6.296875 10.265625 6 9.265625 6 7.96875 
C 6 3.28125 9.296875 -1 14.90625 -1 
C 25 -1 30.40625 13.5625 30.40625 14.265625 
C 30.40625 14.859375 30 15.15625 29.40625 15.15625 
C 29.203125 15.15625 28.796875 15.15625 28.59375 14.75 
C 28.5 14.65625 28.40625 14.5625 27.703125 12.96875 
C 25.59375 7.96875 21 1 15.203125 1 
C 12.203125 1 12 3.484375 12 5.6875 
C 12 5.78125 12 7.671875 12.296875 8.875 
z
" id="CMMI12-116"/>
     </defs>
     <g transform="translate(248.031531 322.331855)scale(0.35 -0.35)">
      <use transform="scale(0.996264)" xlink:href="#CMMI12-116"/>
     </g>
    </g>
   </g>
   <g id="matplotlib.axis_2">
    <g id="ytick_1">
     <g id="line2d_7">
      <path clip-path="url(#pe05a9d28e0)" d="M 60.91227 245.083758 
L 447.48 245.083758 
" style="fill:none;stroke:#b0b0b0;stroke-linecap:square;stroke-width:0.8;"/>
     </g>
     <g id="line2d_8">
      <defs>
       <path d="M 0 0 
L -3.5 0 
" id="md9abc3ad64" style="stroke:#000000;stroke-width:0.8;"/>
      </defs>
      <g>
       <use style="stroke:#000000;stroke-width:0.8;" x="60.91227" xlink:href="#md9abc3ad64" y="245.083758"/>
      </g>
     </g>
     <g id="text_5">
      <!-- $-1$ -->
      <defs>
       <path d="M 65.90625 23 
C 67.59375 23 69.40625 23 69.40625 25 
C 69.40625 27 67.59375 27 65.90625 27 
L 11.796875 27 
C 10.09375 27 8.296875 27 8.296875 25 
C 8.296875 23 10.09375 23 11.796875 23 
z
" id="CMSY10-0"/>
      </defs>
      <g transform="translate(10.8 257.191134)scale(0.35 -0.35)">
       <use transform="scale(0.996264)" xlink:href="#CMSY10-0"/>
       <use transform="translate(77.487468 0)scale(0.996264)" xlink:href="#CMR17-49"/>
      </g>
     </g>
    </g>
    <g id="ytick_2">
     <g id="line2d_9">
      <path clip-path="url(#pe05a9d28e0)" d="M 60.91227 134.720061 
L 447.48 134.720061 
" style="fill:none;stroke:#b0b0b0;stroke-linecap:square;stroke-width:0.8;"/>
     </g>
     <g id="line2d_10">
      <g>
       <use style="stroke:#000000;stroke-width:0.8;" x="60.91227" xlink:href="#md9abc3ad64" y="134.720061"/>
      </g>
     </g>
     <g id="text_6">
      <!-- $0$ -->
      <g transform="translate(37.920603 146.827437)scale(0.35 -0.35)">
       <use transform="scale(0.996264)" xlink:href="#CMR17-48"/>
      </g>
     </g>
    </g>
    <g id="ytick_3">
     <g id="line2d_11">
      <path clip-path="url(#pe05a9d28e0)" d="M 60.91227 24.356364 
L 447.48 24.356364 
" style="fill:none;stroke:#b0b0b0;stroke-linecap:square;stroke-width:0.8;"/>
     </g>
     <g id="line2d_12">
      <g>
       <use style="stroke:#000000;stroke-width:0.8;" x="60.91227" xlink:href="#md9abc3ad64" y="24.356364"/>
      </g>
     </g>
     <g id="text_7">
      <!-- $1$ -->
      <g transform="translate(37.920603 36.46374)scale(0.35 -0.35)">
       <use transform="scale(0.996264)" xlink:href="#CMR17-49"/>
      </g>
     </g>
    </g>
   </g>
   <g id="line2d_13">
    <path clip-path="url(#pe05a9d28e0)" d="M 78.48353 24.356364 
L 79.187084 24.44482 
L 79.890638 24.710046 
L 80.594192 25.151617 
L 81.649523 26.142995 
L 82.704854 27.525916 
L 83.760185 29.295393 
L 84.815516 31.445044 
L 86.222624 34.889036 
L 87.629732 38.972885 
L 89.03684 43.670414 
L 90.795725 50.359089 
L 92.55461 57.892357 
L 94.665272 67.940399 
L 97.127711 80.868516 
L 99.941927 96.920644 
L 103.811473 120.483757 
L 112.605898 174.747129 
L 115.420114 190.636881 
L 117.882553 203.379378 
L 119.993215 213.238826 
L 122.103877 221.9667 
L 123.862762 228.284254 
L 125.26987 232.666575 
L 126.676978 236.421118 
L 128.084086 239.523819 
L 129.139416 241.410949 
L 130.194747 242.913339 
L 131.250078 244.02557 
L 132.305409 244.743632 
L 133.008963 245.002019 
L 133.712517 245.083625 
L 134.416071 244.988319 
L 135.119625 244.716255 
L 135.823179 244.267867 
L 136.87851 243.26633 
L 137.933841 241.873361 
L 138.989172 240.093984 
L 140.044503 237.934615 
L 141.451611 234.478011 
L 142.858719 230.382019 
L 144.265827 225.672892 
L 146.024712 218.970603 
L 147.783597 211.424825 
L 149.894259 201.363405 
L 152.356698 188.422177 
L 155.170913 172.358663 
L 159.04046 148.786659 
L 167.834885 94.533574 
L 170.649101 78.655779 
L 173.11154 65.926854 
L 175.222202 56.08114 
L 177.332864 47.368731 
L 179.091748 41.065228 
L 180.498856 36.694808 
L 181.905964 32.95267 
L 183.313072 29.8628 
L 184.368403 27.985522 
L 185.423734 26.493143 
L 186.479065 25.391043 
L 187.534396 24.683198 
L 188.23795 24.43165 
L 188.941504 24.356894 
L 189.645058 24.459049 
L 190.348612 24.737952 
L 191.052166 25.193154 
L 192.107497 26.204848 
L 193.162828 27.607862 
L 194.218159 29.397135 
L 195.27349 31.566217 
L 196.680598 35.035424 
L 198.087706 39.143549 
L 199.494814 43.864262 
L 201.253699 50.580151 
L 203.012584 58.138421 
L 205.123245 68.213193 
L 207.585684 81.167503 
L 210.3999 97.242362 
L 214.269447 120.823201 
L 223.063872 175.065869 
L 225.878088 190.931669 
L 228.340527 203.646991 
L 230.451188 213.478948 
L 232.56185 222.17587 
L 234.320735 228.465308 
L 235.727843 232.823816 
L 237.134951 236.553539 
L 238.542059 239.630571 
L 239.59739 241.497992 
L 240.652721 242.980358 
L 241.708052 244.072323 
L 242.763383 244.769951 
L 243.466937 245.014658 
L 244.170491 245.082564 
L 244.874045 244.97356 
L 245.577599 244.68782 
L 246.281153 244.225803 
L 247.336484 243.203955 
L 248.391815 241.790901 
L 249.447146 239.991735 
L 250.502477 237.812946 
L 251.909585 234.331144 
L 253.316693 230.210895 
L 254.7238 225.478607 
L 256.482685 218.749135 
L 258.24157 211.178391 
L 260.352232 201.090291 
L 262.814671 188.122932 
L 265.628887 172.036765 
L 269.498434 148.447148 
L 278.292859 94.215027 
L 281.107074 78.361261 
L 283.569513 65.659572 
L 285.680175 55.841396 
L 287.790837 47.159981 
L 289.549722 40.884625 
L 290.95683 36.538038 
L 292.363938 32.820739 
L 293.771046 29.756553 
L 294.826377 27.898994 
L 295.881708 26.426645 
L 296.937039 25.344816 
L 297.99237 24.657408 
L 298.695924 24.419542 
L 299.399478 24.358486 
L 300.103032 24.474339 
L 300.806586 24.766915 
L 301.51014 25.235745 
L 302.565471 26.267745 
L 303.620802 27.690837 
L 304.676133 29.49989 
L 305.731463 31.688381 
L 307.138571 35.18277 
L 308.545679 39.315133 
L 310.304564 45.337012 
L 312.063449 52.253763 
L 314.174111 61.637006 
L 316.284773 72.073485 
L 318.747212 85.379151 
L 321.913205 103.869193 
L 326.486306 132.176091 
L 332.818291 171.244656 
L 335.984284 189.316801 
L 338.446723 202.178894 
L 340.557385 212.159689 
L 342.668047 221.024462 
L 344.426932 227.466562 
L 346.185817 232.980114 
L 347.592925 236.684981 
L 349.000033 239.736314 
L 350.055364 241.584007 
L 351.110695 243.046335 
L 352.166026 244.118025 
L 353.221357 244.795211 
L 353.924911 245.026236 
L 354.628465 245.080441 
L 355.332019 244.95774 
L 356.035572 244.658328 
L 356.739126 244.182686 
L 357.794457 243.140537 
L 358.849788 241.707411 
L 359.905119 239.888474 
L 360.96045 237.690286 
L 362.367558 234.183319 
L 363.774666 230.038852 
L 365.533551 224.002629 
L 367.292436 217.072539 
L 369.403098 207.674805 
L 371.51376 197.225683 
L 373.976199 183.907847 
L 377.142192 165.406595 
L 381.715292 137.092955 
L 387.695501 100.125088 
L 390.861494 81.904003 
L 393.323933 68.885894 
L 395.434595 58.745884 
L 397.545257 49.700776 
L 399.304142 43.094132 
L 401.063027 37.404816 
L 402.470135 33.55244 
L 403.877243 30.348486 
L 404.932574 28.383563 
L 405.987904 26.802102 
L 407.043235 25.609807 
L 408.098566 24.810977 
L 408.80212 24.498497 
L 409.505674 24.362702 
L 410.209228 24.403808 
L 410.912782 24.62175 
L 411.616336 25.016178 
L 412.671667 25.937273 
L 413.726998 27.250652 
L 414.782329 28.95158 
L 415.83766 31.033922 
L 417.244768 34.390516 
L 418.651876 38.390162 
L 420.058984 43.007224 
L 421.817869 49.601348 
L 423.576754 57.047653 
L 425.687416 67.002573 
L 428.149855 79.839213 
L 429.90874 89.682616 
L 429.90874 89.682616 
" style="fill:none;stroke:#1f77b4;stroke-linecap:square;stroke-width:1.5;"/>
   </g>
   <g id="line2d_14">
    <path clip-path="url(#pe05a9d28e0)" d="M 78.48353 134.720061 
L 84.111962 99.969777 
L 87.277955 81.760417 
L 89.740394 68.754666 
L 91.851056 58.627308 
L 93.961718 49.596559 
L 95.720603 43.003039 
L 97.479488 37.327758 
L 98.886596 33.487173 
L 100.293704 30.295429 
L 101.349035 28.33989 
L 102.404366 26.767971 
L 103.459696 25.585341 
L 104.515027 24.796265 
L 105.218581 24.490318 
L 105.922135 24.36107 
L 106.625689 24.408725 
L 107.329243 24.633209 
L 108.032797 25.034161 
L 109.088128 25.964983 
L 110.143459 27.28799 
L 111.19879 28.998411 
L 112.254121 31.090077 
L 113.661229 34.458783 
L 115.068337 38.470103 
L 116.475445 43.098326 
L 118.23433 49.705573 
L 119.993215 57.163958 
L 122.103877 67.131826 
L 124.566316 79.981207 
L 127.380532 95.964729 
L 130.898301 117.288613 
L 140.748057 177.895938 
L 143.562273 193.540999 
L 146.024712 206.008151 
L 148.135374 215.590332 
L 149.894259 222.690568 
L 151.653144 228.910073 
L 153.060252 233.209394 
L 154.467359 236.877458 
L 155.874467 239.890755 
L 156.929798 241.709257 
L 157.985129 243.141943 
L 159.04046 244.183646 
L 160.095791 244.830609 
L 160.799345 245.041407 
L 161.502899 245.075361 
L 162.206453 244.932416 
L 162.910007 244.612802 
L 163.965338 243.803324 
L 165.020669 242.600478 
L 166.076 241.008602 
L 167.131331 239.033435 
L 168.538439 235.816158 
L 169.945547 231.950916 
L 171.352655 227.462484 
L 173.11154 221.019773 
L 174.870425 213.713058 
L 176.981087 203.90808 
L 179.443525 191.219453 
L 182.257741 175.377227 
L 185.775511 154.1612 
L 196.328821 89.363531 
L 199.143037 73.89866 
L 201.605476 61.631368 
L 203.716138 52.248763 
L 205.475022 45.332598 
L 207.233907 39.311351 
L 208.641015 35.179521 
L 210.048123 31.685685 
L 211.455231 28.852237 
L 212.510562 27.171617 
L 213.565893 25.878831 
L 214.621224 24.978541 
L 215.324778 24.598062 
L 216.028332 24.394107 
L 216.731886 24.367004 
L 217.43544 24.516796 
L 218.138994 24.843243 
L 219.194325 25.662919 
L 220.249656 26.875868 
L 221.304987 28.477718 
L 222.360318 30.462691 
L 223.767426 33.692723 
L 225.174534 37.570279 
L 226.581642 42.070507 
L 228.340527 48.527115 
L 230.099411 55.846659 
L 232.210073 65.66544 
L 234.672512 78.36773 
L 237.486728 94.222026 
L 241.004498 115.447386 
L 251.557808 180.232534 
L 254.372024 195.684176 
L 256.834462 207.93688 
L 258.945124 217.30497 
L 260.704009 224.207779 
L 262.462894 230.214667 
L 263.870002 234.334383 
L 265.27711 237.815632 
L 266.684218 240.636101 
L 267.739549 242.306778 
L 268.79488 243.589484 
L 269.850211 244.479593 
L 270.553765 244.853246 
L 271.257319 245.050356 
L 271.960873 245.070608 
L 272.664427 244.91397 
L 273.367981 244.580691 
L 274.423312 243.750819 
L 275.478643 242.527769 
L 276.533974 240.91595 
L 277.589305 238.921175 
L 278.996413 235.678396 
L 280.40352 231.788534 
L 281.810628 227.276523 
L 283.569513 220.806032 
L 285.328398 213.473677 
L 287.43906 203.641115 
L 289.901499 190.925194 
L 292.715715 175.058866 
L 296.233485 153.824223 
L 306.786794 89.051752 
L 309.60101 73.613378 
L 312.063449 61.37529 
L 314.174111 52.021737 
L 315.932996 45.132301 
L 317.691881 39.139788 
L 319.098989 35.032195 
L 320.506097 31.563542 
L 321.913205 28.756059 
L 322.968536 27.095328 
L 324.023867 25.822705 
L 325.079198 24.94278 
L 325.782752 24.575954 
L 326.486306 24.385688 
L 327.18986 24.372287 
L 327.893414 24.535772 
L 328.596968 24.875882 
L 329.652299 25.715948 
L 330.707629 26.949096 
L 331.76296 28.57088 
L 332.818291 30.575452 
L 334.225399 33.830971 
L 335.632507 37.733128 
L 337.039615 42.256912 
L 338.7985 48.74127 
L 340.557385 56.086419 
L 342.668047 65.932737 
L 345.130486 78.66226 
L 347.944702 94.540581 
L 351.462472 115.784455 
L 362.015781 180.544095 
L 364.829997 195.969164 
L 367.292436 208.192606 
L 369.403098 217.531599 
L 371.161983 224.407646 
L 372.920868 230.385771 
L 374.327976 234.481229 
L 375.735084 237.937279 
L 377.142192 240.731768 
L 378.197523 242.38255 
L 379.252854 243.645087 
L 380.308185 244.514826 
L 381.011738 244.874824 
L 381.715292 245.058245 
L 382.418846 245.064795 
L 383.1224 244.894463 
L 383.825954 244.547523 
L 384.881285 243.697266 
L 385.936616 242.454022 
L 386.991947 240.822277 
L 388.047278 238.807913 
L 389.454386 235.539662 
L 390.861494 231.625219 
L 392.268602 227.089672 
L 394.027487 220.591463 
L 395.786372 213.233538 
L 397.897034 203.373487 
L 400.359473 190.630394 
L 403.173689 174.740117 
L 406.691458 153.487063 
L 417.244768 88.740411 
L 420.058984 73.328684 
L 422.521423 61.119917 
L 424.632085 51.795506 
L 426.39097 44.932865 
L 428.149855 38.969143 
L 429.556963 34.885829 
L 429.90874 33.964048 
L 429.90874 33.964048 
" style="fill:none;stroke:#ff7f0e;stroke-linecap:square;stroke-width:1.5;"/>
   </g>
   <g id="patch_3">
    <path d="M 60.91227 256.12 
L 60.91227 13.32 
" style="fill:none;stroke:#000000;stroke-linecap:square;stroke-linejoin:miter;stroke-width:0.8;"/>
   </g>
   <g id="patch_4">
    <path d="M 447.48 256.12 
L 447.48 13.32 
" style="fill:none;stroke:#000000;stroke-linecap:square;stroke-linejoin:miter;stroke-width:0.8;"/>
   </g>
   <g id="patch_5">
    <path d="M 60.91227 256.12 
L 447.48 256.12 
" style="fill:none;stroke:#000000;stroke-linecap:square;stroke-linejoin:miter;stroke-width:0.8;"/>
   </g>
   <g id="patch_6">
    <path d="M 60.91227 13.32 
L 447.48 13.32 
" style="fill:none;stroke:#000000;stroke-linecap:square;stroke-linejoin:miter;stroke-width:0.8;"/>
   </g>
   <g id="legend_1">
    <g id="patch_7">
     <path d="M 191.51056 192.278676 
L 422.98 192.278676 
Q 429.98 192.278676 429.98 185.278676 
L 429.98 84.161324 
Q 429.98 77.161324 422.98 77.161324 
L 191.51056 77.161324 
Q 184.51056 77.161324 184.51056 84.161324 
L 184.51056 185.278676 
Q 184.51056 192.278676 191.51056 192.278676 
z
" style="fill:#ffffff;opacity:0.8;stroke:#cccccc;stroke-linejoin:miter;"/>
    </g>
    <g id="line2d_15">
     <path d="M 198.51056 105.031862 
L 268.51056 105.031862 
" style="fill:none;stroke:#1f77b4;stroke-linecap:square;stroke-width:1.5;"/>
    </g>
    <g id="line2d_16"/>
    <g id="text_8">
     <!-- $\mathrm{Re}(x(t))$ -->
     <defs>
      <path d="M 39.203125 33.6875 
C 48.703125 35.59375 56.703125 42.015625 56.703125 50.046875 
C 56.703125 59.46875 46.09375 68 32.09375 68 
L 5.203125 68 
L 5.203125 65.390625 
C 12.09375 65.390625 13.203125 65.390625 13.203125 60.875 
L 13.203125 6.6875 
C 13.203125 2.1875 12.09375 2.1875 5.203125 2.1875 
L 5.203125 -0.40625 
C 8.09375 -0.203125 13.296875 -0.203125 16.40625 -0.203125 
C 19.5 -0.203125 24.703125 -0.203125 27.59375 -0.40625 
L 27.59375 2.1875 
C 20.703125 2.1875 19.59375 2.1875 19.59375 6.6875 
L 19.59375 33 
L 31.296875 33 
C 37 33 40.203125 30.6875 41.59375 29.390625 
C 45.59375 25.5 45.59375 22.796875 45.59375 16 
C 45.59375 9.296875 45.59375 5.890625 48.59375 2.5 
C 52.40625 -1.609375 57.5 -2 59.703125 -2 
C 67.09375 -2 68.203125 6.296875 68.203125 8 
C 68.203125 8.59375 68.203125 9.296875 67.296875 9.296875 
C 66.5 9.296875 66.40625 8.6875 66.40625 8.296875 
C 65.90625 1.796875 63 -0.40625 59.90625 -0.40625 
C 54.40625 -0.40625 53.796875 5.890625 53.203125 12 
C 52.90625 14.09375 52.703125 15.59375 52.5 17.796875 
C 51.90625 22.796875 51.09375 30.09375 39.203125 33.6875 
z
M 31 34.59375 
L 19.59375 34.59375 
L 19.59375 61.484375 
C 19.59375 64.890625 19.796875 65.390625 23.796875 65.390625 
L 31.09375 65.390625 
C 39.40625 65.390625 49.09375 62.484375 49.09375 50.046875 
C 49.09375 37.09375 38.5 34.59375 31 34.59375 
z
" id="CMR17-82"/>
      <path d="M 38.09375 23.484375 
C 38.5 23.890625 38.5 24.09375 38.5 25.09375 
C 38.5 35.171875 33.09375 44 21.703125 44 
C 11.09375 44 2.703125 33.984375 2.703125 21.78125 
C 2.703125 8.65625 12.203125 -1 22.796875 -1 
C 34 -1 38.40625 9.671875 38.40625 11.796875 
C 38.40625 12.5 37.796875 12.5 37.59375 12.5 
C 36.90625 12.5 36.796875 12.296875 36.40625 11.078125 
C 34.203125 4.21875 28.703125 0.796875 23.5 0.796875 
C 19.203125 0.796875 14.90625 3.21875 12.203125 7.65625 
C 9.09375 12.796875 9.09375 18.75 9.09375 23.484375 
z
M 9.203125 25 
C 9.90625 39.234375 17.59375 42.390625 21.59375 42.390625 
C 28.40625 42.390625 33 36.0625 33.09375 25 
z
" id="CMR17-101"/>
      <path d="M 30.59375 -24.40625 
C 30.59375 -24.3125 30.59375 -24.109375 30.296875 -23.8125 
C 25.703125 -19.109375 13.40625 -6.296875 13.40625 24.9375 
C 13.40625 56.171875 25.5 68.875 30.40625 73.890625 
C 30.40625 73.984375 30.59375 74.1875 30.59375 74.484375 
C 30.59375 74.796875 30.296875 75 29.90625 75 
C 28.796875 75 20.296875 67.578125 15.40625 56.5625 
C 10.40625 45.453125 9 34.65625 9 25.046875 
C 9 17.828125 9.703125 5.625 15.703125 -7.296875 
C 20.5 -17.703125 28.703125 -25 29.90625 -25 
C 30.40625 -25 30.59375 -24.8125 30.59375 -24.40625 
z
" id="CMR17-40"/>
      <path d="M 47.40625 41 
C 44.203125 40.390625 43 37.984375 43 36.09375 
C 43 33.6875 44.90625 32.890625 46.296875 32.890625 
C 49.296875 32.890625 51.40625 35.484375 51.40625 38.1875 
C 51.40625 42.09375 46.59375 44 42.40625 44 
C 36.296875 44 32.90625 38.296875 32 36.390625 
C 29.703125 43.59375 23.5 44 21.703125 44 
C 11.5 44 6.09375 31.140625 6.09375 28.890625 
C 6.09375 28.484375 6.5 27.96875 7.203125 27.96875 
C 8 27.96875 8.203125 28.578125 8.40625 28.984375 
C 11.796875 40.1875 18.5 41.984375 21.40625 41.984375 
C 25.90625 41.984375 26.796875 38.09375 26.796875 35.6875 
C 26.796875 33.484375 26.203125 31.140625 25 26.21875 
L 21.59375 12.15625 
C 20.09375 6.09375 17.203125 1 11.90625 1 
C 11.40625 1 8.90625 1 6.796875 1.96875 
C 10.40625 2.59375 11.203125 5.59375 11.203125 6.796875 
C 11.203125 8.796875 9.703125 10 7.796875 10 
C 5.40625 10 2.796875 7.890625 2.796875 4.6875 
C 2.796875 0.890625 7.5 -1 11.796875 -1 
C 16.59375 -1 20 2.390625 22.09375 6.484375 
C 23.703125 1 28.703125 -1 32.40625 -1 
C 42.59375 -1 48 11.734375 48 14 
C 48 14.515625 47.59375 14.921875 47 14.921875 
C 46.09375 14.921875 46 14.40625 45.703125 13.59375 
C 43 4.6875 37.203125 1 32.703125 1 
C 29.203125 1 27.296875 3.1875 27.296875 7.296875 
C 27.296875 9.484375 27.703125 11.125 29.296875 17.90625 
L 32.796875 31.859375 
C 34.296875 37.890625 37.703125 41.984375 42.296875 41.984375 
C 42.5 41.984375 45.296875 41.984375 47.40625 41 
z
" id="CMMI12-120"/>
      <path d="M 26.296875 24.9375 
C 26.296875 32.140625 25.59375 44.359375 19.59375 57.265625 
C 14.796875 67.6875 6.59375 75 5.40625 75 
C 5.09375 75 4.703125 74.890625 4.703125 74.390625 
C 4.703125 74.1875 4.796875 74.09375 4.90625 73.890625 
C 9.703125 68.875 21.90625 56.171875 21.90625 25.046875 
C 21.90625 -6.1875 9.796875 -18.90625 4.90625 -23.90625 
C 4.796875 -24.109375 4.703125 -24.203125 4.703125 -24.40625 
C 4.703125 -24.90625 5.09375 -25 5.40625 -25 
C 6.5 -25 15 -17.609375 19.90625 -6.59375 
C 24.90625 4.515625 26.296875 15.328125 26.296875 24.9375 
z
" id="CMR17-41"/>
     </defs>
     <g transform="translate(296.51056 117.281862)scale(0.35 -0.35)">
      <use transform="scale(0.996264)" xlink:href="#CMR17-82"/>
      <use transform="translate(67.791102 0)scale(0.996264)" xlink:href="#CMR17-101"/>
      <use transform="translate(108.276762 0)scale(0.996264)" xlink:href="#CMR17-40"/>
      <use transform="translate(143.55753 0)scale(0.996264)" xlink:href="#CMMI12-120"/>
      <use transform="translate(198.99159 0)scale(0.996264)" xlink:href="#CMR17-40"/>
      <use transform="translate(234.272358 0)scale(0.996264)" xlink:href="#CMMI12-116"/>
      <use transform="translate(269.498688 0)scale(0.996264)" xlink:href="#CMR17-41"/>
      <use transform="translate(304.779456 0)scale(0.996264)" xlink:href="#CMR17-41"/>
     </g>
    </g>
    <g id="line2d_17">
     <path d="M 198.51056 157.340539 
L 268.51056 157.340539 
" style="fill:none;stroke:#ff7f0e;stroke-linecap:square;stroke-width:1.5;"/>
    </g>
    <g id="line2d_18"/>
    <g id="text_9">
     <!-- $\mathrm{Im}(x(t))$ -->
     <defs>
      <path d="M 19.703125 60.90625 
C 19.703125 65.390625 20.90625 65.390625 28.09375 65.390625 
L 28.09375 68 
C 24.90625 67.796875 19.796875 67.796875 16.40625 67.796875 
C 13 67.796875 7.90625 67.796875 4.703125 68 
L 4.703125 65.390625 
C 11.90625 65.390625 13.09375 65.390625 13.09375 60.90625 
L 13.09375 7.078125 
C 13.09375 2.59375 11.90625 2.59375 4.703125 2.59375 
L 4.703125 0 
C 7.90625 0.1875 13 0.1875 16.40625 0.1875 
C 19.796875 0.1875 24.90625 0.1875 28.09375 0 
L 28.09375 2.59375 
C 20.90625 2.59375 19.703125 2.59375 19.703125 7.078125 
z
" id="CMR17-73"/>
      <path d="M 67.59375 30.53125 
C 67.59375 35.5625 66.703125 44 54.796875 44 
C 48 44 43.296875 39.375 41.5 33.953125 
L 41.40625 33.953125 
C 40.203125 42.1875 34.296875 44 28.703125 44 
C 20.796875 44 16.703125 37.875 15.203125 33.84375 
L 15.09375 33.84375 
L 15.09375 44 
L 3.296875 42.890625 
L 3.296875 40.28125 
C 9.203125 40.28125 10.09375 39.6875 10.09375 34.859375 
L 10.09375 6.921875 
C 10.09375 3.09375 9.703125 2.59375 3.296875 2.59375 
L 3.296875 0 
C 5.703125 0.1875 10.09375 0.1875 12.703125 0.1875 
C 15.296875 0.1875 19.796875 0.1875 22.203125 0 
L 22.203125 2.59375 
C 15.796875 2.59375 15.40625 3 15.40625 6.921875 
L 15.40625 26.21875 
C 15.40625 35.453125 21 42.390625 28 42.390625 
C 35.40625 42.390625 36.203125 35.765625 36.203125 30.9375 
L 36.203125 6.921875 
C 36.203125 3.09375 35.796875 2.59375 29.40625 2.59375 
L 29.40625 0 
C 31.796875 0.1875 36.203125 0.1875 38.796875 0.1875 
C 41.40625 0.1875 45.90625 0.1875 48.296875 0 
L 48.296875 2.59375 
C 41.90625 2.59375 41.5 3 41.5 6.921875 
L 41.5 26.21875 
C 41.5 35.453125 47.09375 42.390625 54.09375 42.390625 
C 61.5 42.390625 62.296875 35.765625 62.296875 30.9375 
L 62.296875 6.921875 
C 62.296875 3.09375 61.90625 2.59375 55.5 2.59375 
L 55.5 0 
C 57.90625 0.1875 62.296875 0.1875 64.90625 0.1875 
C 67.5 0.1875 72 0.1875 74.40625 0 
L 74.40625 2.59375 
C 68 2.59375 67.59375 3 67.59375 6.921875 
z
" id="CMR17-109"/>
     </defs>
     <g transform="translate(296.51056 169.590539)scale(0.35 -0.35)">
      <use transform="scale(0.996264)" xlink:href="#CMR17-73"/>
      <use transform="translate(32.638409 0)scale(0.996264)" xlink:href="#CMR17-109"/>
      <use transform="translate(109.557999 0)scale(0.996264)" xlink:href="#CMR17-40"/>
      <use transform="translate(144.838767 0)scale(0.996264)" xlink:href="#CMMI12-120"/>
      <use transform="translate(200.272826 0)scale(0.996264)" xlink:href="#CMR17-40"/>
      <use transform="translate(235.553594 0)scale(0.996264)" xlink:href="#CMMI12-116"/>
      <use transform="translate(270.779924 0)scale(0.996264)" xlink:href="#CMR17-41"/>
      <use transform="translate(306.060692 0)scale(0.996264)" xlink:href="#CMR17-41"/>
     </g>
    </g>
   </g>
  </g>
 </g>
 <defs>
  <clipPath id="pe05a9d28e0">
   <rect height="242.8" width="386.56773" x="60.91227" y="13.32"/>
  </clipPath>
 </defs>
</svg>
