<?xml version="1.0" encoding="utf-8" standalone="no"?>
<!DOCTYPE svg PUBLIC "-//W3C//DTD SVG 1.1//EN"
  "http://www.w3.org/Graphics/SVG/1.1/DTD/svg11.dtd">
<!-- Created with matplotlib (https://matplotlib.org/) -->
<svg height="345.6pt" version="1.1" viewBox="0 0 460.8 345.6" width="460.8pt" xmlns="http://www.w3.org/2000/svg" xmlns:xlink="http://www.w3.org/1999/xlink">
 <defs>
  <style type="text/css">
*{stroke-linecap:butt;stroke-linejoin:round;}
  </style>
 </defs>
 <g id="figure_1">
  <g id="patch_1">
   <path d="M 0 345.6 
L 460.8 345.6 
L 460.8 0 
L 0 0 
z
" style="fill:#ffffff;"/>
  </g>
  <g id="axes_1">
   <g id="patch_2">
    <path d="M 60.91227 261.805794 
L 450 261.805794 
L 450 10.811376 
L 60.91227 10.811376 
z
" style="fill:#ffffff;"/>
   </g>
   <g id="matplotlib.axis_1">
    <g id="xtick_1">
     <g id="line2d_1">
      <path clip-path="url(#p4375c8f7f1)" d="M 78.598076 261.805794 
L 78.598076 10.811376 
" style="fill:none;stroke:#b0b0b0;stroke-linecap:square;stroke-width:0.8;"/>
     </g>
     <g id="line2d_2">
      <defs>
       <path d="M 0 0 
L 0 3.5 
" id="ma46f5b4a72" style="stroke:#000000;stroke-width:0.8;"/>
      </defs>
      <g>
       <use style="stroke:#000000;stroke-width:0.8;" x="78.598076" xlink:href="#ma46f5b4a72" y="261.805794"/>
      </g>
     </g>
     <g id="text_1">
      <!-- $0$ -->
      <defs>
       <path d="M 42 31.84375 
C 42 37.96875 41.90625 48.421875 37.703125 56.453125 
C 34 63.484375 28.09375 66 22.90625 66 
C 18.09375 66 12 63.78125 8.203125 56.5625 
C 4.203125 49.015625 3.796875 39.671875 3.796875 31.84375 
C 3.796875 26.109375 3.90625 17.375 7 9.734375 
C 11.296875 -0.609375 19 -2 22.90625 -2 
C 27.5 -2 34.5 -0.109375 38.59375 9.4375 
C 41.59375 16.375 42 24.5 42 31.84375 
z
M 22.90625 -0.40625 
C 16.5 -0.40625 12.703125 5.125 11.296875 12.75 
C 10.203125 18.6875 10.203125 27.328125 10.203125 32.953125 
C 10.203125 40.6875 10.203125 47.109375 11.5 53.234375 
C 13.40625 61.78125 19 64.390625 22.90625 64.390625 
C 27 64.390625 32.296875 61.671875 34.203125 53.4375 
C 35.5 47.71875 35.59375 40.984375 35.59375 32.953125 
C 35.59375 26.421875 35.59375 18.375 34.40625 12.453125 
C 32.296875 1.5 26.40625 -0.40625 22.90625 -0.40625 
z
" id="CMR17-48"/>
      </defs>
      <g transform="translate(70.602242 293.020546)scale(0.35 -0.35)">
       <use transform="scale(0.996264)" xlink:href="#CMR17-48"/>
      </g>
     </g>
    </g>
    <g id="xtick_2">
     <g id="line2d_3">
      <path clip-path="url(#p4375c8f7f1)" d="M 255.456135 261.805794 
L 255.456135 10.811376 
" style="fill:none;stroke:#b0b0b0;stroke-linecap:square;stroke-width:0.8;"/>
     </g>
     <g id="line2d_4">
      <g>
       <use style="stroke:#000000;stroke-width:0.8;" x="255.456135" xlink:href="#ma46f5b4a72" y="261.805794"/>
      </g>
     </g>
     <g id="text_2">
      <!-- $10$ -->
      <defs>
       <path d="M 26.59375 63.796875 
C 26.59375 65.890625 26.5 66 25.09375 66 
C 21.203125 61.359375 15.296875 59.890625 9.703125 59.6875 
C 9.40625 59.6875 8.90625 59.6875 8.796875 59.5 
C 8.703125 59.296875 8.703125 59.09375 8.703125 57 
C 11.796875 57 17 57.59375 21 59.984375 
L 21 7.296875 
C 21 3.796875 20.796875 2.59375 12.203125 2.59375 
L 9.203125 2.59375 
L 9.203125 0 
C 14 0.09375 19 0.1875 23.796875 0.1875 
C 28.59375 0.1875 33.59375 0.09375 38.40625 0 
L 38.40625 2.59375 
L 35.40625 2.59375 
C 26.796875 2.59375 26.59375 3.6875 26.59375 7.296875 
z
" id="CMR17-49"/>
      </defs>
      <g transform="translate(239.464468 293.020546)scale(0.35 -0.35)">
       <use transform="scale(0.996264)" xlink:href="#CMR17-49"/>
       <use transform="translate(45.690477 0)scale(0.996264)" xlink:href="#CMR17-48"/>
      </g>
     </g>
    </g>
    <g id="xtick_3">
     <g id="line2d_5">
      <path clip-path="url(#p4375c8f7f1)" d="M 432.314194 261.805794 
L 432.314194 10.811376 
" style="fill:none;stroke:#b0b0b0;stroke-linecap:square;stroke-width:0.8;"/>
     </g>
     <g id="line2d_6">
      <g>
       <use style="stroke:#000000;stroke-width:0.8;" x="432.314194" xlink:href="#ma46f5b4a72" y="261.805794"/>
      </g>
     </g>
     <g id="text_3">
      <!-- $20$ -->
      <defs>
       <path d="M 41.703125 15.46875 
L 39.90625 15.46875 
C 38.90625 8.390625 38.09375 7.1875 37.703125 6.59375 
C 37.203125 5.796875 30 5.796875 28.59375 5.796875 
L 9.40625 5.796875 
C 13 9.6875 20 16.765625 28.5 24.9375 
C 34.59375 30.71875 41.703125 37.5 41.703125 47.390625 
C 41.703125 59.1875 32.296875 66 21.796875 66 
C 10.796875 66 4.09375 56.296875 4.09375 47.296875 
C 4.09375 43.390625 7 42.890625 8.203125 42.890625 
C 9.203125 42.890625 12.203125 43.484375 12.203125 46.984375 
C 12.203125 50.09375 9.59375 51 8.203125 51 
C 7.59375 51 7 50.890625 6.59375 50.6875 
C 8.5 59.1875 14.296875 63.390625 20.40625 63.390625 
C 29.09375 63.390625 34.796875 56.5 34.796875 47.390625 
C 34.796875 38.703125 29.703125 31.21875 24 24.734375 
L 4.09375 2.296875 
L 4.09375 0 
L 39.296875 0 
z
" id="CMR17-50"/>
      </defs>
      <g transform="translate(416.322527 293.020546)scale(0.35 -0.35)">
       <use transform="scale(0.996264)" xlink:href="#CMR17-50"/>
       <use transform="translate(45.690477 0)scale(0.996264)" xlink:href="#CMR17-48"/>
      </g>
     </g>
    </g>
    <g id="text_4">
     <!-- $t$ -->
     <defs>
      <path d="M 20.09375 40.09375 
L 29.296875 40.09375 
C 31.203125 40.09375 32.203125 40.09375 32.203125 41.890625 
C 32.203125 43 31.59375 43 29.59375 43 
L 20.796875 43 
L 24.5 57.25 
C 24.90625 58.625 24.90625 58.8125 24.90625 59.5 
C 24.90625 61.09375 23.59375 62 22.296875 62 
C 21.5 62 19.203125 61.6875 18.40625 58.53125 
L 14.5 43 
L 5.09375 43 
C 3.09375 43 2.203125 43 2.203125 41.09375 
C 2.203125 40.09375 2.90625 40.09375 4.796875 40.09375 
L 13.703125 40.09375 
L 7.09375 13.765625 
C 6.296875 10.265625 6 9.265625 6 7.96875 
C 6 3.28125 9.296875 -1 14.90625 -1 
C 25 -1 30.40625 13.5625 30.40625 14.265625 
C 30.40625 14.859375 30 15.15625 29.40625 15.15625 
C 29.203125 15.15625 28.796875 15.15625 28.59375 14.75 
C 28.5 14.65625 28.40625 14.5625 27.703125 12.96875 
C 25.59375 7.96875 21 1 15.203125 1 
C 12.203125 1 12 3.484375 12 5.6875 
C 12 5.78125 12 7.671875 12.296875 8.875 
z
" id="CMMI12-116"/>
     </defs>
     <g transform="translate(249.291531 328.017649)scale(0.35 -0.35)">
      <use transform="scale(0.996264)" xlink:href="#CMMI12-116"/>
     </g>
    </g>
   </g>
   <g id="matplotlib.axis_2">
    <g id="ytick_1">
     <g id="line2d_7">
      <path clip-path="url(#p4375c8f7f1)" d="M 60.91227 250.397082 
L 450 250.397082 
" style="fill:none;stroke:#b0b0b0;stroke-linecap:square;stroke-width:0.8;"/>
     </g>
     <g id="line2d_8">
      <defs>
       <path d="M 0 0 
L -3.5 0 
" id="mf868ead9f6" style="stroke:#000000;stroke-width:0.8;"/>
      </defs>
      <g>
       <use style="stroke:#000000;stroke-width:0.8;" x="60.91227" xlink:href="#mf868ead9f6" y="250.397082"/>
      </g>
     </g>
     <g id="text_5">
      <!-- $-1$ -->
      <defs>
       <path d="M 65.90625 23 
C 67.59375 23 69.40625 23 69.40625 25 
C 69.40625 27 67.59375 27 65.90625 27 
L 11.796875 27 
C 10.09375 27 8.296875 27 8.296875 25 
C 8.296875 23 10.09375 23 11.796875 23 
z
" id="CMSY10-0"/>
      </defs>
      <g transform="translate(10.8 262.504458)scale(0.35 -0.35)">
       <use transform="scale(0.996264)" xlink:href="#CMSY10-0"/>
       <use transform="translate(77.487468 0)scale(0.996264)" xlink:href="#CMR17-49"/>
      </g>
     </g>
    </g>
    <g id="ytick_2">
     <g id="line2d_9">
      <path clip-path="url(#p4375c8f7f1)" d="M 60.91227 136.308648 
L 450 136.308648 
" style="fill:none;stroke:#b0b0b0;stroke-linecap:square;stroke-width:0.8;"/>
     </g>
     <g id="line2d_10">
      <g>
       <use style="stroke:#000000;stroke-width:0.8;" x="60.91227" xlink:href="#mf868ead9f6" y="136.308648"/>
      </g>
     </g>
     <g id="text_6">
      <!-- $0$ -->
      <g transform="translate(37.920603 148.416023)scale(0.35 -0.35)">
       <use transform="scale(0.996264)" xlink:href="#CMR17-48"/>
      </g>
     </g>
    </g>
    <g id="ytick_3">
     <g id="line2d_11">
      <path clip-path="url(#p4375c8f7f1)" d="M 60.91227 22.220213 
L 450 22.220213 
" style="fill:none;stroke:#b0b0b0;stroke-linecap:square;stroke-width:0.8;"/>
     </g>
     <g id="line2d_12">
      <g>
       <use style="stroke:#000000;stroke-width:0.8;" x="60.91227" xlink:href="#mf868ead9f6" y="22.220213"/>
      </g>
     </g>
     <g id="text_7">
      <!-- $1$ -->
      <g transform="translate(37.920603 34.327589)scale(0.35 -0.35)">
       <use transform="scale(0.996264)" xlink:href="#CMR17-49"/>
      </g>
     </g>
    </g>
   </g>
   <g id="line2d_13">
    <path clip-path="url(#p4375c8f7f1)" d="M 78.598076 22.220213 
L 79.306216 22.311654 
L 80.014357 22.585832 
L 80.722497 23.042306 
L 81.784708 24.067143 
L 82.846918 25.496737 
L 83.909129 27.325933 
L 84.971339 29.548134 
L 86.38762 33.10836 
L 87.803901 37.330037 
L 89.220182 42.186107 
L 90.990533 49.100521 
L 92.760883 56.888034 
L 94.885305 67.275195 
L 97.363796 80.639631 
L 100.196357 97.233514 
L 104.091129 121.591873 
L 112.942884 177.686615 
L 115.775446 194.112641 
L 118.253937 207.285193 
L 120.378358 217.477394 
L 122.502779 226.499832 
L 124.27313 233.030601 
L 125.689411 237.560824 
L 127.105692 241.442081 
L 128.521972 244.649497 
L 129.584183 246.600318 
L 130.646394 248.153412 
L 131.708604 249.303181 
L 132.770815 250.045477 
L 133.478955 250.312584 
L 134.187096 250.396945 
L 134.895236 250.298423 
L 135.603376 250.017176 
L 136.311517 249.553656 
L 137.373727 248.518317 
L 138.435938 247.078336 
L 139.498148 245.238905 
L 140.560359 243.006658 
L 141.97664 239.433395 
L 143.39292 235.199165 
L 144.809201 230.331106 
L 146.579552 223.402617 
L 148.349903 215.602171 
L 150.474324 205.201183 
L 152.952815 191.823192 
L 155.785377 175.21754 
L 159.680149 150.849989 
L 168.531904 94.765881 
L 171.364465 78.352216 
L 173.842957 65.193693 
L 175.967378 55.01569 
L 177.737729 47.423226 
L 179.50808 40.720653 
L 181.278431 34.975076 
L 182.694711 31.106642 
L 184.110992 27.91249 
L 185.173203 25.971855 
L 186.235413 24.429108 
L 187.297624 23.289813 
L 188.359834 22.558078 
L 189.067975 22.298041 
L 189.776115 22.220762 
L 190.484255 22.326364 
L 191.192396 22.61468 
L 191.900536 23.085245 
L 192.962747 24.131083 
L 194.024957 25.581448 
L 195.087168 27.431109 
L 196.149378 29.673396 
L 197.565659 33.259688 
L 198.98194 37.506461 
L 200.398221 42.386497 
L 202.168572 49.329045 
L 203.938923 57.142404 
L 206.063344 67.557196 
L 208.541835 80.948709 
L 211.374397 97.566089 
L 215.269169 121.942774 
L 224.120923 178.016113 
L 226.953485 194.417378 
L 229.431976 207.561839 
L 231.556397 217.72562 
L 233.326748 225.304858 
L 235.097099 231.993095 
L 236.86745 237.723372 
L 238.283731 241.578971 
L 239.700012 244.759852 
L 240.762222 246.690297 
L 241.824433 248.222693 
L 242.886643 249.351512 
L 243.948854 250.072684 
L 244.656994 250.32565 
L 245.365135 250.395848 
L 246.073275 250.283165 
L 246.781415 249.987782 
L 247.489556 249.510172 
L 248.551766 248.453837 
L 249.613977 246.993092 
L 250.676187 245.133205 
L 251.738398 242.880883 
L 253.154679 239.281571 
L 254.57096 235.022265 
L 255.98724 230.130265 
L 257.757591 223.173675 
L 259.527942 215.347421 
L 261.652363 204.91885 
L 264.130855 191.513848 
L 266.963416 174.884778 
L 270.858188 150.499019 
L 279.709943 94.436583 
L 282.542504 78.047758 
L 285.020996 64.91739 
L 287.145417 54.767855 
L 288.915768 47.201862 
L 290.686119 40.527977 
L 292.45647 34.813015 
L 293.87275 30.970258 
L 295.289031 27.802657 
L 296.351242 25.882406 
L 297.413452 24.360366 
L 298.475663 23.242025 
L 299.537873 22.531418 
L 300.246014 22.285523 
L 300.954154 22.222407 
L 301.662295 22.34217 
L 302.370435 22.644621 
L 303.078575 23.129273 
L 304.140786 24.196102 
L 305.202996 25.667224 
L 306.265207 27.537332 
L 307.327418 29.799684 
L 308.743698 33.412007 
L 310.159979 37.683836 
L 311.57626 42.58779 
L 313.346611 49.558405 
L 315.116962 57.397534 
L 317.241383 67.839858 
L 319.719874 81.258319 
L 322.552436 97.899037 
L 326.447208 122.293812 
L 335.298962 178.34521 
L 338.131524 194.721556 
L 340.610015 207.837799 
L 342.734436 217.973063 
L 344.504787 225.525794 
L 346.275138 232.185312 
L 348.045489 237.884944 
L 349.46177 241.714849 
L 350.878051 244.869164 
L 351.940261 246.779216 
L 353.002472 248.290897 
L 354.064682 249.398756 
L 355.126893 250.098797 
L 355.835033 250.337619 
L 356.543174 250.393654 
L 357.251314 250.266811 
L 357.959455 249.957294 
L 358.667595 249.4656 
L 359.729805 248.388279 
L 360.792016 246.906784 
L 361.854227 245.026459 
L 362.916437 242.754083 
L 364.332718 239.128757 
L 365.748999 234.844416 
L 367.165279 229.92852 
L 368.93563 222.943897 
L 370.705981 215.091911 
L 372.830402 204.635858 
L 375.308894 191.203973 
L 378.141455 174.551645 
L 382.036227 150.147913 
L 390.887982 94.107688 
L 393.720544 77.74386 
L 396.199035 64.641774 
L 398.323456 54.520804 
L 400.093807 46.981355 
L 401.864158 40.336221 
L 403.634509 34.65193 
L 405.05079 30.834887 
L 406.46707 27.693866 
L 407.529281 25.794018 
L 408.591491 24.2927 
L 409.653702 23.195325 
L 410.715913 22.505851 
L 411.424053 22.274103 
L 412.132193 22.22515 
L 412.840334 22.359072 
L 413.548474 22.675655 
L 414.256614 23.174389 
L 415.318825 24.2622 
L 416.381036 25.754064 
L 417.443246 27.644601 
L 418.505457 29.926995 
L 419.921738 33.565316 
L 421.338018 37.862159 
L 422.754299 42.789984 
L 424.52465 49.788599 
L 426.295001 57.653423 
L 428.419422 68.123179 
L 430.897913 81.568458 
L 432.314194 89.751204 
L 432.314194 89.751204 
" style="fill:none;stroke:#1f77b4;stroke-linecap:square;stroke-width:1.5;"/>
   </g>
   <g id="line2d_14">
    <path clip-path="url(#p4375c8f7f1)" d="M 78.598076 136.308648 
L 84.263199 100.385553 
L 87.449831 81.561634 
L 89.928322 68.116944 
L 92.052743 57.64779 
L 94.177164 48.312257 
L 95.947515 41.496207 
L 97.717866 35.629388 
L 99.134147 31.659184 
L 100.550428 28.35972 
L 101.612638 26.338182 
L 102.674849 24.713211 
L 103.737059 23.490668 
L 104.79927 22.674961 
L 105.50741 22.358689 
L 106.215551 22.225078 
L 106.923691 22.274342 
L 107.631831 22.506402 
L 108.339972 22.920885 
L 109.402182 23.883123 
L 110.464393 25.250781 
L 111.526603 27.018928 
L 112.588814 29.181187 
L 114.005095 32.663586 
L 115.421376 36.810286 
L 116.837656 41.59471 
L 118.608007 48.42495 
L 120.378358 56.135052 
L 122.502779 66.439333 
L 124.981271 79.722376 
L 127.813832 96.245336 
L 131.354534 118.288895 
L 141.268499 180.941696 
L 144.101061 197.114772 
L 146.579552 210.002686 
L 148.703973 219.908263 
L 150.474324 227.24813 
L 152.244675 233.677541 
L 153.660956 238.121962 
L 155.077237 241.913822 
L 156.493517 245.028817 
L 157.555728 246.908693 
L 158.617939 248.389731 
L 159.680149 249.466591 
L 160.74236 250.135389 
L 161.4505 250.353302 
L 162.15864 250.388402 
L 162.866781 250.240633 
L 163.574921 249.910232 
L 164.283062 249.397729 
L 165.345272 248.289409 
L 166.407483 246.777272 
L 167.469693 244.866772 
L 168.531904 242.564797 
L 169.948185 238.901085 
L 171.364465 234.579818 
L 173.134816 228.296127 
L 174.905167 221.091489 
L 177.029588 211.332439 
L 179.154009 200.492183 
L 181.632501 186.687878 
L 184.819132 167.528229 
L 189.422045 138.238822 
L 195.441238 100.049936 
L 198.62787 81.251507 
L 201.106361 67.833637 
L 203.230782 57.391917 
L 205.355203 48.087506 
L 207.125554 41.299885 
L 208.895905 35.46346 
L 210.312186 31.518784 
L 211.728467 28.245746 
L 212.790677 26.244517 
L 213.852888 24.640193 
L 214.915098 23.43856 
L 215.977309 22.643951 
L 216.685449 22.341811 
L 217.39359 22.222359 
L 218.10173 22.285787 
L 218.809871 22.531992 
L 219.518011 22.96058 
L 220.580221 23.943847 
L 221.642432 25.332316 
L 222.704643 27.12098 
L 223.766853 29.303389 
L 225.183134 32.811954 
L 226.599415 36.983871 
L 228.015695 41.792399 
L 229.786046 48.65097 
L 231.556397 56.38714 
L 233.680818 66.719349 
L 236.15931 80.02985 
L 238.991871 96.576783 
L 242.532573 118.638326 
L 252.446538 181.26707 
L 255.2791 197.413829 
L 257.757591 210.272408 
L 259.882012 220.148607 
L 261.652363 227.461327 
L 263.422714 233.861456 
L 264.838995 238.281112 
L 266.255276 242.047186 
L 267.671557 245.13554 
L 268.733767 246.994978 
L 269.795978 248.455266 
L 270.858188 249.51114 
L 271.920399 250.158791 
L 272.628539 250.362553 
L 273.33668 250.383489 
L 274.04482 250.221564 
L 274.75296 249.877037 
L 275.461101 249.350461 
L 276.523311 248.221181 
L 277.585522 246.688331 
L 278.647732 244.757437 
L 279.709943 242.435463 
L 281.126224 238.745824 
L 282.542504 234.399624 
L 284.312855 228.08641 
L 286.083206 220.854348 
L 288.207627 211.065546 
L 290.332049 200.199385 
L 292.81054 186.370211 
L 295.997172 167.187798 
L 300.600084 137.885078 
L 306.619277 99.714668 
L 309.805909 80.941908 
L 312.2844 67.550989 
L 314.408821 57.136803 
L 316.533243 47.863603 
L 318.303593 41.104476 
L 320.073944 35.298502 
L 321.490225 31.379391 
L 322.906506 28.132812 
L 323.968716 26.151911 
L 325.030927 24.568249 
L 326.093138 23.387538 
L 327.155348 22.614034 
L 327.863489 22.326029 
L 328.571629 22.220738 
L 329.279769 22.298328 
L 329.98791 22.558676 
L 330.69605 23.001364 
L 331.758261 24.005652 
L 332.820471 25.414919 
L 333.882682 27.224083 
L 334.944892 29.426619 
L 336.361173 32.961318 
L 337.777454 37.158411 
L 339.193735 41.990997 
L 340.964085 48.877833 
L 342.734436 56.639996 
L 344.858858 67.000035 
L 347.337349 80.337866 
L 350.16991 96.908613 
L 354.064682 121.248824 
L 363.270507 179.486646 
L 366.103069 195.775099 
L 368.58156 208.79222 
L 370.705981 218.827544 
L 372.476332 226.287517 
L 374.246683 232.846652 
L 375.662964 237.400907 
L 377.079245 241.307222 
L 378.495525 244.54056 
L 379.557736 246.51129 
L 380.619947 248.084615 
L 381.682157 249.254862 
L 382.744368 250.01781 
L 383.452508 250.298746 
L 384.160648 250.396957 
L 384.868789 250.312285 
L 385.576929 250.044866 
L 386.28507 249.59513 
L 387.34728 248.580335 
L 388.409491 247.160675 
L 389.471701 245.341268 
L 390.533912 243.128676 
L 391.950193 239.580922 
L 393.366473 235.371256 
L 394.782754 230.526659 
L 396.553105 223.625716 
L 398.323456 215.850583 
L 400.447877 205.476667 
L 402.926368 192.125219 
L 405.75893 175.542625 
L 409.653702 151.193108 
L 418.505457 95.088326 
L 421.338018 78.650519 
L 423.81651 65.464584 
L 425.940931 55.258832 
L 428.065352 46.221131 
L 429.835703 39.67649 
L 431.251984 35.134516 
L 432.314194 32.152153 
L 432.314194 32.152153 
" style="fill:none;stroke:#ff7f0e;stroke-linecap:square;stroke-width:1.5;"/>
   </g>
   <g id="patch_3">
    <path d="M 60.91227 261.805794 
L 60.91227 10.811376 
" style="fill:none;stroke:#000000;stroke-linecap:square;stroke-linejoin:miter;stroke-width:0.8;"/>
   </g>
   <g id="patch_4">
    <path d="M 450 261.805794 
L 450 10.811376 
" style="fill:none;stroke:#000000;stroke-linecap:square;stroke-linejoin:miter;stroke-width:0.8;"/>
   </g>
   <g id="patch_5">
    <path d="M 60.91227 261.805794 
L 450 261.805794 
" style="fill:none;stroke:#000000;stroke-linecap:square;stroke-linejoin:miter;stroke-width:0.8;"/>
   </g>
   <g id="patch_6">
    <path d="M 60.91227 10.811376 
L 450 10.811376 
" style="fill:none;stroke:#000000;stroke-linecap:square;stroke-linejoin:miter;stroke-width:0.8;"/>
   </g>
   <g id="legend_1">
    <g id="patch_7">
     <path d="M 194.03056 193.867261 
L 425.5 193.867261 
Q 432.5 193.867261 432.5 186.867261 
L 432.5 85.749908 
Q 432.5 78.749908 425.5 78.749908 
L 194.03056 78.749908 
Q 187.03056 78.749908 187.03056 85.749908 
L 187.03056 186.867261 
Q 187.03056 193.867261 194.03056 193.867261 
z
" style="fill:#ffffff;opacity:0.8;stroke:#cccccc;stroke-linejoin:miter;"/>
    </g>
    <g id="line2d_15">
     <path d="M 201.03056 106.620447 
L 271.03056 106.620447 
" style="fill:none;stroke:#1f77b4;stroke-linecap:square;stroke-width:1.5;"/>
    </g>
    <g id="line2d_16"/>
    <g id="text_8">
     <!-- $\mathrm{Re}(x(t))$ -->
     <defs>
      <path d="M 39.203125 33.6875 
C 48.703125 35.59375 56.703125 42.015625 56.703125 50.046875 
C 56.703125 59.46875 46.09375 68 32.09375 68 
L 5.203125 68 
L 5.203125 65.390625 
C 12.09375 65.390625 13.203125 65.390625 13.203125 60.875 
L 13.203125 6.6875 
C 13.203125 2.1875 12.09375 2.1875 5.203125 2.1875 
L 5.203125 -0.40625 
C 8.09375 -0.203125 13.296875 -0.203125 16.40625 -0.203125 
C 19.5 -0.203125 24.703125 -0.203125 27.59375 -0.40625 
L 27.59375 2.1875 
C 20.703125 2.1875 19.59375 2.1875 19.59375 6.6875 
L 19.59375 33 
L 31.296875 33 
C 37 33 40.203125 30.6875 41.59375 29.390625 
C 45.59375 25.5 45.59375 22.796875 45.59375 16 
C 45.59375 9.296875 45.59375 5.890625 48.59375 2.5 
C 52.40625 -1.609375 57.5 -2 59.703125 -2 
C 67.09375 -2 68.203125 6.296875 68.203125 8 
C 68.203125 8.59375 68.203125 9.296875 67.296875 9.296875 
C 66.5 9.296875 66.40625 8.6875 66.40625 8.296875 
C 65.90625 1.796875 63 -0.40625 59.90625 -0.40625 
C 54.40625 -0.40625 53.796875 5.890625 53.203125 12 
C 52.90625 14.09375 52.703125 15.59375 52.5 17.796875 
C 51.90625 22.796875 51.09375 30.09375 39.203125 33.6875 
z
M 31 34.59375 
L 19.59375 34.59375 
L 19.59375 61.484375 
C 19.59375 64.890625 19.796875 65.390625 23.796875 65.390625 
L 31.09375 65.390625 
C 39.40625 65.390625 49.09375 62.484375 49.09375 50.046875 
C 49.09375 37.09375 38.5 34.59375 31 34.59375 
z
" id="CMR17-82"/>
      <path d="M 38.09375 23.484375 
C 38.5 23.890625 38.5 24.09375 38.5 25.09375 
C 38.5 35.171875 33.09375 44 21.703125 44 
C 11.09375 44 2.703125 33.984375 2.703125 21.78125 
C 2.703125 8.65625 12.203125 -1 22.796875 -1 
C 34 -1 38.40625 9.671875 38.40625 11.796875 
C 38.40625 12.5 37.796875 12.5 37.59375 12.5 
C 36.90625 12.5 36.796875 12.296875 36.40625 11.078125 
C 34.203125 4.21875 28.703125 0.796875 23.5 0.796875 
C 19.203125 0.796875 14.90625 3.21875 12.203125 7.65625 
C 9.09375 12.796875 9.09375 18.75 9.09375 23.484375 
z
M 9.203125 25 
C 9.90625 39.234375 17.59375 42.390625 21.59375 42.390625 
C 28.40625 42.390625 33 36.0625 33.09375 25 
z
" id="CMR17-101"/>
      <path d="M 30.59375 -24.40625 
C 30.59375 -24.3125 30.59375 -24.109375 30.296875 -23.8125 
C 25.703125 -19.109375 13.40625 -6.296875 13.40625 24.9375 
C 13.40625 56.171875 25.5 68.875 30.40625 73.890625 
C 30.40625 73.984375 30.59375 74.1875 30.59375 74.484375 
C 30.59375 74.796875 30.296875 75 29.90625 75 
C 28.796875 75 20.296875 67.578125 15.40625 56.5625 
C 10.40625 45.453125 9 34.65625 9 25.046875 
C 9 17.828125 9.703125 5.625 15.703125 -7.296875 
C 20.5 -17.703125 28.703125 -25 29.90625 -25 
C 30.40625 -25 30.59375 -24.8125 30.59375 -24.40625 
z
" id="CMR17-40"/>
      <path d="M 47.40625 41 
C 44.203125 40.390625 43 37.984375 43 36.09375 
C 43 33.6875 44.90625 32.890625 46.296875 32.890625 
C 49.296875 32.890625 51.40625 35.484375 51.40625 38.1875 
C 51.40625 42.09375 46.59375 44 42.40625 44 
C 36.296875 44 32.90625 38.296875 32 36.390625 
C 29.703125 43.59375 23.5 44 21.703125 44 
C 11.5 44 6.09375 31.140625 6.09375 28.890625 
C 6.09375 28.484375 6.5 27.96875 7.203125 27.96875 
C 8 27.96875 8.203125 28.578125 8.40625 28.984375 
C 11.796875 40.1875 18.5 41.984375 21.40625 41.984375 
C 25.90625 41.984375 26.796875 38.09375 26.796875 35.6875 
C 26.796875 33.484375 26.203125 31.140625 25 26.21875 
L 21.59375 12.15625 
C 20.09375 6.09375 17.203125 1 11.90625 1 
C 11.40625 1 8.90625 1 6.796875 1.96875 
C 10.40625 2.59375 11.203125 5.59375 11.203125 6.796875 
C 11.203125 8.796875 9.703125 10 7.796875 10 
C 5.40625 10 2.796875 7.890625 2.796875 4.6875 
C 2.796875 0.890625 7.5 -1 11.796875 -1 
C 16.59375 -1 20 2.390625 22.09375 6.484375 
C 23.703125 1 28.703125 -1 32.40625 -1 
C 42.59375 -1 48 11.734375 48 14 
C 48 14.515625 47.59375 14.921875 47 14.921875 
C 46.09375 14.921875 46 14.40625 45.703125 13.59375 
C 43 4.6875 37.203125 1 32.703125 1 
C 29.203125 1 27.296875 3.1875 27.296875 7.296875 
C 27.296875 9.484375 27.703125 11.125 29.296875 17.90625 
L 32.796875 31.859375 
C 34.296875 37.890625 37.703125 41.984375 42.296875 41.984375 
C 42.5 41.984375 45.296875 41.984375 47.40625 41 
z
" id="CMMI12-120"/>
      <path d="M 26.296875 24.9375 
C 26.296875 32.140625 25.59375 44.359375 19.59375 57.265625 
C 14.796875 67.6875 6.59375 75 5.40625 75 
C 5.09375 75 4.703125 74.890625 4.703125 74.390625 
C 4.703125 74.1875 4.796875 74.09375 4.90625 73.890625 
C 9.703125 68.875 21.90625 56.171875 21.90625 25.046875 
C 21.90625 -6.1875 9.796875 -18.90625 4.90625 -23.90625 
C 4.796875 -24.109375 4.703125 -24.203125 4.703125 -24.40625 
C 4.703125 -24.90625 5.09375 -25 5.40625 -25 
C 6.5 -25 15 -17.609375 19.90625 -6.59375 
C 24.90625 4.515625 26.296875 15.328125 26.296875 24.9375 
z
" id="CMR17-41"/>
     </defs>
     <g transform="translate(299.03056 118.870447)scale(0.35 -0.35)">
      <use transform="scale(0.996264)" xlink:href="#CMR17-82"/>
      <use transform="translate(67.791102 0)scale(0.996264)" xlink:href="#CMR17-101"/>
      <use transform="translate(108.276762 0)scale(0.996264)" xlink:href="#CMR17-40"/>
      <use transform="translate(143.55753 0)scale(0.996264)" xlink:href="#CMMI12-120"/>
      <use transform="translate(198.99159 0)scale(0.996264)" xlink:href="#CMR17-40"/>
      <use transform="translate(234.272358 0)scale(0.996264)" xlink:href="#CMMI12-116"/>
      <use transform="translate(269.498688 0)scale(0.996264)" xlink:href="#CMR17-41"/>
      <use transform="translate(304.779456 0)scale(0.996264)" xlink:href="#CMR17-41"/>
     </g>
    </g>
    <g id="line2d_17">
     <path d="M 201.03056 158.929123 
L 271.03056 158.929123 
" style="fill:none;stroke:#ff7f0e;stroke-linecap:square;stroke-width:1.5;"/>
    </g>
    <g id="line2d_18"/>
    <g id="text_9">
     <!-- $\mathrm{Im}(x(t))$ -->
     <defs>
      <path d="M 19.703125 60.90625 
C 19.703125 65.390625 20.90625 65.390625 28.09375 65.390625 
L 28.09375 68 
C 24.90625 67.796875 19.796875 67.796875 16.40625 67.796875 
C 13 67.796875 7.90625 67.796875 4.703125 68 
L 4.703125 65.390625 
C 11.90625 65.390625 13.09375 65.390625 13.09375 60.90625 
L 13.09375 7.078125 
C 13.09375 2.59375 11.90625 2.59375 4.703125 2.59375 
L 4.703125 0 
C 7.90625 0.1875 13 0.1875 16.40625 0.1875 
C 19.796875 0.1875 24.90625 0.1875 28.09375 0 
L 28.09375 2.59375 
C 20.90625 2.59375 19.703125 2.59375 19.703125 7.078125 
z
" id="CMR17-73"/>
      <path d="M 67.59375 30.53125 
C 67.59375 35.5625 66.703125 44 54.796875 44 
C 48 44 43.296875 39.375 41.5 33.953125 
L 41.40625 33.953125 
C 40.203125 42.1875 34.296875 44 28.703125 44 
C 20.796875 44 16.703125 37.875 15.203125 33.84375 
L 15.09375 33.84375 
L 15.09375 44 
L 3.296875 42.890625 
L 3.296875 40.28125 
C 9.203125 40.28125 10.09375 39.6875 10.09375 34.859375 
L 10.09375 6.921875 
C 10.09375 3.09375 9.703125 2.59375 3.296875 2.59375 
L 3.296875 0 
C 5.703125 0.1875 10.09375 0.1875 12.703125 0.1875 
C 15.296875 0.1875 19.796875 0.1875 22.203125 0 
L 22.203125 2.59375 
C 15.796875 2.59375 15.40625 3 15.40625 6.921875 
L 15.40625 26.21875 
C 15.40625 35.453125 21 42.390625 28 42.390625 
C 35.40625 42.390625 36.203125 35.765625 36.203125 30.9375 
L 36.203125 6.921875 
C 36.203125 3.09375 35.796875 2.59375 29.40625 2.59375 
L 29.40625 0 
C 31.796875 0.1875 36.203125 0.1875 38.796875 0.1875 
C 41.40625 0.1875 45.90625 0.1875 48.296875 0 
L 48.296875 2.59375 
C 41.90625 2.59375 41.5 3 41.5 6.921875 
L 41.5 26.21875 
C 41.5 35.453125 47.09375 42.390625 54.09375 42.390625 
C 61.5 42.390625 62.296875 35.765625 62.296875 30.9375 
L 62.296875 6.921875 
C 62.296875 3.09375 61.90625 2.59375 55.5 2.59375 
L 55.5 0 
C 57.90625 0.1875 62.296875 0.1875 64.90625 0.1875 
C 67.5 0.1875 72 0.1875 74.40625 0 
L 74.40625 2.59375 
C 68 2.59375 67.59375 3 67.59375 6.921875 
z
" id="CMR17-109"/>
     </defs>
     <g transform="translate(299.03056 171.179123)scale(0.35 -0.35)">
      <use transform="scale(0.996264)" xlink:href="#CMR17-73"/>
      <use transform="translate(32.638409 0)scale(0.996264)" xlink:href="#CMR17-109"/>
      <use transform="translate(109.557999 0)scale(0.996264)" xlink:href="#CMR17-40"/>
      <use transform="translate(144.838767 0)scale(0.996264)" xlink:href="#CMMI12-120"/>
      <use transform="translate(200.272826 0)scale(0.996264)" xlink:href="#CMR17-40"/>
      <use transform="translate(235.553594 0)scale(0.996264)" xlink:href="#CMMI12-116"/>
      <use transform="translate(270.779924 0)scale(0.996264)" xlink:href="#CMR17-41"/>
      <use transform="translate(306.060692 0)scale(0.996264)" xlink:href="#CMR17-41"/>
     </g>
    </g>
   </g>
  </g>
 </g>
 <defs>
  <clipPath id="p4375c8f7f1">
   <rect height="250.994418" width="389.08773" x="60.91227" y="10.811376"/>
  </clipPath>
 </defs>
</svg>
