<?xml version="1.0" encoding="utf-8" standalone="no"?>
<!DOCTYPE svg PUBLIC "-//W3C//DTD SVG 1.1//EN"
  "http://www.w3.org/Graphics/SVG/1.1/DTD/svg11.dtd">
<!-- Created with matplotlib (https://matplotlib.org/) -->
<svg height="345.6pt" version="1.1" viewBox="0 0 460.8 345.6" width="460.8pt" xmlns="http://www.w3.org/2000/svg" xmlns:xlink="http://www.w3.org/1999/xlink">
 <defs>
  <style type="text/css">
*{stroke-linecap:butt;stroke-linejoin:round;}
  </style>
 </defs>
 <g id="figure_1">
  <g id="patch_1">
   <path d="M 0 345.6 
L 460.8 345.6 
L 460.8 0 
L 0 0 
z
" style="fill:#ffffff;"/>
  </g>
  <g id="patch_2">
   <path d="M 10.8 334.8 
L 450 334.8 
L 450 10.8 
L 10.8 10.8 
z
" style="fill:#ffffff;"/>
  </g>
  <g id="pane3d_1">
   <g id="patch_3">
    <path d="M 69.022747 263.207418 
L 194.724085 183.76996 
L 192.631291 31.978014 
L 59.92128 103.350937 
" style="fill:#f2f2f2;opacity:0.5;stroke:#f2f2f2;stroke-linejoin:miter;"/>
   </g>
  </g>
  <g id="pane3d_2">
   <g id="patch_4">
    <path d="M 194.724085 183.76996 
L 398.348434 228.180625 
L 406.867833 71.811455 
L 192.631291 31.978014 
" style="fill:#e6e6e6;opacity:0.5;stroke:#e6e6e6;stroke-linejoin:miter;"/>
   </g>
  </g>
  <g id="pane3d_3">
   <g id="patch_5">
    <path d="M 69.022747 263.207418 
L 283.263076 314.930875 
L 398.348434 228.180625 
L 194.724085 183.76996 
" style="fill:#ececec;opacity:0.5;stroke:#ececec;stroke-linejoin:miter;"/>
   </g>
  </g>
  <g id="axis3d_1">
   <g id="line2d_1">
    <path d="M 69.022747 263.207418 
L 283.263076 314.930875 
" style="fill:none;stroke:#000000;stroke-linecap:square;stroke-width:0.8;"/>
   </g>
   <g id="text_1">
    <!-- $t$ -->
    <defs>
     <path d="M 20.09375 40.09375 
L 29.296875 40.09375 
C 31.203125 40.09375 32.203125 40.09375 32.203125 41.890625 
C 32.203125 43 31.59375 43 29.59375 43 
L 20.796875 43 
L 24.5 57.25 
C 24.90625 58.625 24.90625 58.8125 24.90625 59.5 
C 24.90625 61.09375 23.59375 62 22.296875 62 
C 21.5 62 19.203125 61.6875 18.40625 58.53125 
L 14.5 43 
L 5.09375 43 
C 3.09375 43 2.203125 43 2.203125 41.09375 
C 2.203125 40.09375 2.90625 40.09375 4.796875 40.09375 
L 13.703125 40.09375 
L 7.09375 13.765625 
C 6.296875 10.265625 6 9.265625 6 7.96875 
C 6 3.28125 9.296875 -1 14.90625 -1 
C 25 -1 30.40625 13.5625 30.40625 14.265625 
C 30.40625 14.859375 30 15.15625 29.40625 15.15625 
C 29.203125 15.15625 28.796875 15.15625 28.59375 14.75 
C 28.5 14.65625 28.40625 14.5625 27.703125 12.96875 
C 25.59375 7.96875 21 1 15.203125 1 
C 12.203125 1 12 3.484375 12 5.6875 
C 12 5.78125 12 7.671875 12.296875 8.875 
z
" id="CMMI12-116"/>
    </defs>
    <g transform="translate(151.511042 327.897668)scale(0.35 -0.35)">
     <use transform="scale(0.996264)" xlink:href="#CMMI12-116"/>
    </g>
   </g>
   <g id="Line3DCollection_1">
    <path d="M 82.084221 266.360814 
L 207.177494 186.48606 
L 205.706958 34.4092 
" style="fill:none;stroke:#b0b0b0;stroke-width:0.8;"/>
    <path d="M 269.034322 311.495665 
L 384.86702 225.240316 
L 392.654935 69.168822 
" style="fill:none;stroke:#b0b0b0;stroke-width:0.8;"/>
   </g>
   <g id="xtick_1">
    <g id="line2d_2">
     <path d="M 83.161964 265.672652 
L 79.924715 267.739705 
" style="fill:none;stroke:#000000;stroke-linecap:square;stroke-width:0.8;"/>
    </g>
    <g id="text_2">
     <!-- $0$ -->
     <defs>
      <path d="M 42 31.84375 
C 42 37.96875 41.90625 48.421875 37.703125 56.453125 
C 34 63.484375 28.09375 66 22.90625 66 
C 18.09375 66 12 63.78125 8.203125 56.5625 
C 4.203125 49.015625 3.796875 39.671875 3.796875 31.84375 
C 3.796875 26.109375 3.90625 17.375 7 9.734375 
C 11.296875 -0.609375 19 -2 22.90625 -2 
C 27.5 -2 34.5 -0.109375 38.59375 9.4375 
C 41.59375 16.375 42 24.5 42 31.84375 
z
M 22.90625 -0.40625 
C 16.5 -0.40625 12.703125 5.125 11.296875 12.75 
C 10.203125 18.6875 10.203125 27.328125 10.203125 32.953125 
C 10.203125 40.6875 10.203125 47.109375 11.5 53.234375 
C 13.40625 61.78125 19 64.390625 22.90625 64.390625 
C 27 64.390625 32.296875 61.671875 34.203125 53.4375 
C 35.5 47.71875 35.59375 40.984375 35.59375 32.953125 
C 35.59375 26.421875 35.59375 18.375 34.40625 12.453125 
C 32.296875 1.5 26.40625 -0.40625 22.90625 -0.40625 
z
" id="CMR17-48"/>
     </defs>
     <g transform="translate(66.73933 304.364501)scale(0.35 -0.35)">
      <use transform="scale(0.996264)" xlink:href="#CMR17-48"/>
     </g>
    </g>
   </g>
   <g id="xtick_2">
    <g id="line2d_3">
     <path d="M 270.03518 310.750372 
L 267.028721 312.989145 
" style="fill:none;stroke:#000000;stroke-linecap:square;stroke-width:0.8;"/>
    </g>
    <g id="text_3">
     <!-- $20$ -->
     <defs>
      <path d="M 41.703125 15.46875 
L 39.90625 15.46875 
C 38.90625 8.390625 38.09375 7.1875 37.703125 6.59375 
C 37.203125 5.796875 30 5.796875 28.59375 5.796875 
L 9.40625 5.796875 
C 13 9.6875 20 16.765625 28.5 24.9375 
C 34.59375 30.71875 41.703125 37.5 41.703125 47.390625 
C 41.703125 59.1875 32.296875 66 21.796875 66 
C 10.796875 66 4.09375 56.296875 4.09375 47.296875 
C 4.09375 43.390625 7 42.890625 8.203125 42.890625 
C 9.203125 42.890625 12.203125 43.484375 12.203125 46.984375 
C 12.203125 50.09375 9.59375 51 8.203125 51 
C 7.59375 51 7 50.890625 6.59375 50.6875 
C 8.5 59.1875 14.296875 63.390625 20.40625 63.390625 
C 29.09375 63.390625 34.796875 56.5 34.796875 47.390625 
C 34.796875 38.703125 29.703125 31.21875 24 24.734375 
L 4.09375 2.296875 
L 4.09375 0 
L 39.296875 0 
z
" id="CMR17-50"/>
     </defs>
     <g transform="translate(245.685733 350.131796)scale(0.35 -0.35)">
      <use transform="scale(0.996264)" xlink:href="#CMR17-50"/>
      <use transform="translate(45.690477 0)scale(0.996264)" xlink:href="#CMR17-48"/>
     </g>
    </g>
   </g>
  </g>
  <g id="axis3d_2">
   <g id="line2d_4">
    <path d="M 398.348434 228.180625 
L 283.263076 314.930875 
" style="fill:none;stroke:#000000;stroke-linecap:square;stroke-width:0.8;"/>
   </g>
   <g id="text_4">
    <!-- $\mathrm{Re}(x(t))$ -->
    <defs>
     <path d="M 39.203125 33.6875 
C 48.703125 35.59375 56.703125 42.015625 56.703125 50.046875 
C 56.703125 59.46875 46.09375 68 32.09375 68 
L 5.203125 68 
L 5.203125 65.390625 
C 12.09375 65.390625 13.203125 65.390625 13.203125 60.875 
L 13.203125 6.6875 
C 13.203125 2.1875 12.09375 2.1875 5.203125 2.1875 
L 5.203125 -0.40625 
C 8.09375 -0.203125 13.296875 -0.203125 16.40625 -0.203125 
C 19.5 -0.203125 24.703125 -0.203125 27.59375 -0.40625 
L 27.59375 2.1875 
C 20.703125 2.1875 19.59375 2.1875 19.59375 6.6875 
L 19.59375 33 
L 31.296875 33 
C 37 33 40.203125 30.6875 41.59375 29.390625 
C 45.59375 25.5 45.59375 22.796875 45.59375 16 
C 45.59375 9.296875 45.59375 5.890625 48.59375 2.5 
C 52.40625 -1.609375 57.5 -2 59.703125 -2 
C 67.09375 -2 68.203125 6.296875 68.203125 8 
C 68.203125 8.59375 68.203125 9.296875 67.296875 9.296875 
C 66.5 9.296875 66.40625 8.6875 66.40625 8.296875 
C 65.90625 1.796875 63 -0.40625 59.90625 -0.40625 
C 54.40625 -0.40625 53.796875 5.890625 53.203125 12 
C 52.90625 14.09375 52.703125 15.59375 52.5 17.796875 
C 51.90625 22.796875 51.09375 30.09375 39.203125 33.6875 
z
M 31 34.59375 
L 19.59375 34.59375 
L 19.59375 61.484375 
C 19.59375 64.890625 19.796875 65.390625 23.796875 65.390625 
L 31.09375 65.390625 
C 39.40625 65.390625 49.09375 62.484375 49.09375 50.046875 
C 49.09375 37.09375 38.5 34.59375 31 34.59375 
z
" id="CMR17-82"/>
     <path d="M 38.09375 23.484375 
C 38.5 23.890625 38.5 24.09375 38.5 25.09375 
C 38.5 35.171875 33.09375 44 21.703125 44 
C 11.09375 44 2.703125 33.984375 2.703125 21.78125 
C 2.703125 8.65625 12.203125 -1 22.796875 -1 
C 34 -1 38.40625 9.671875 38.40625 11.796875 
C 38.40625 12.5 37.796875 12.5 37.59375 12.5 
C 36.90625 12.5 36.796875 12.296875 36.40625 11.078125 
C 34.203125 4.21875 28.703125 0.796875 23.5 0.796875 
C 19.203125 0.796875 14.90625 3.21875 12.203125 7.65625 
C 9.09375 12.796875 9.09375 18.75 9.09375 23.484375 
z
M 9.203125 25 
C 9.90625 39.234375 17.59375 42.390625 21.59375 42.390625 
C 28.40625 42.390625 33 36.0625 33.09375 25 
z
" id="CMR17-101"/>
     <path d="M 30.59375 -24.40625 
C 30.59375 -24.3125 30.59375 -24.109375 30.296875 -23.8125 
C 25.703125 -19.109375 13.40625 -6.296875 13.40625 24.9375 
C 13.40625 56.171875 25.5 68.875 30.40625 73.890625 
C 30.40625 73.984375 30.59375 74.1875 30.59375 74.484375 
C 30.59375 74.796875 30.296875 75 29.90625 75 
C 28.796875 75 20.296875 67.578125 15.40625 56.5625 
C 10.40625 45.453125 9 34.65625 9 25.046875 
C 9 17.828125 9.703125 5.625 15.703125 -7.296875 
C 20.5 -17.703125 28.703125 -25 29.90625 -25 
C 30.40625 -25 30.59375 -24.8125 30.59375 -24.40625 
z
" id="CMR17-40"/>
     <path d="M 47.40625 41 
C 44.203125 40.390625 43 37.984375 43 36.09375 
C 43 33.6875 44.90625 32.890625 46.296875 32.890625 
C 49.296875 32.890625 51.40625 35.484375 51.40625 38.1875 
C 51.40625 42.09375 46.59375 44 42.40625 44 
C 36.296875 44 32.90625 38.296875 32 36.390625 
C 29.703125 43.59375 23.5 44 21.703125 44 
C 11.5 44 6.09375 31.140625 6.09375 28.890625 
C 6.09375 28.484375 6.5 27.96875 7.203125 27.96875 
C 8 27.96875 8.203125 28.578125 8.40625 28.984375 
C 11.796875 40.1875 18.5 41.984375 21.40625 41.984375 
C 25.90625 41.984375 26.796875 38.09375 26.796875 35.6875 
C 26.796875 33.484375 26.203125 31.140625 25 26.21875 
L 21.59375 12.15625 
C 20.09375 6.09375 17.203125 1 11.90625 1 
C 11.40625 1 8.90625 1 6.796875 1.96875 
C 10.40625 2.59375 11.203125 5.59375 11.203125 6.796875 
C 11.203125 8.796875 9.703125 10 7.796875 10 
C 5.40625 10 2.796875 7.890625 2.796875 4.6875 
C 2.796875 0.890625 7.5 -1 11.796875 -1 
C 16.59375 -1 20 2.390625 22.09375 6.484375 
C 23.703125 1 28.703125 -1 32.40625 -1 
C 42.59375 -1 48 11.734375 48 14 
C 48 14.515625 47.59375 14.921875 47 14.921875 
C 46.09375 14.921875 46 14.40625 45.703125 13.59375 
C 43 4.6875 37.203125 1 32.703125 1 
C 29.203125 1 27.296875 3.1875 27.296875 7.296875 
C 27.296875 9.484375 27.703125 11.125 29.296875 17.90625 
L 32.796875 31.859375 
C 34.296875 37.890625 37.703125 41.984375 42.296875 41.984375 
C 42.5 41.984375 45.296875 41.984375 47.40625 41 
z
" id="CMMI12-120"/>
     <path d="M 26.296875 24.9375 
C 26.296875 32.140625 25.59375 44.359375 19.59375 57.265625 
C 14.796875 67.6875 6.59375 75 5.40625 75 
C 5.09375 75 4.703125 74.890625 4.703125 74.390625 
C 4.703125 74.1875 4.796875 74.09375 4.90625 73.890625 
C 9.703125 68.875 21.90625 56.171875 21.90625 25.046875 
C 21.90625 -6.1875 9.796875 -18.90625 4.90625 -23.90625 
C 4.796875 -24.109375 4.703125 -24.203125 4.703125 -24.40625 
C 4.703125 -24.90625 5.09375 -25 5.40625 -25 
C 6.5 -25 15 -17.609375 19.90625 -6.59375 
C 24.90625 4.515625 26.296875 15.328125 26.296875 24.9375 
z
" id="CMR17-41"/>
    </defs>
    <g transform="translate(327.499204 338.059026)rotate(-37.00864)scale(0.35 -0.35)">
     <use transform="scale(0.996264)" xlink:href="#CMR17-82"/>
     <use transform="translate(67.791102 0)scale(0.996264)" xlink:href="#CMR17-101"/>
     <use transform="translate(108.276762 0)scale(0.996264)" xlink:href="#CMR17-40"/>
     <use transform="translate(143.55753 0)scale(0.996264)" xlink:href="#CMMI12-120"/>
     <use transform="translate(198.99159 0)scale(0.996264)" xlink:href="#CMR17-40"/>
     <use transform="translate(234.272358 0)scale(0.996264)" xlink:href="#CMMI12-116"/>
     <use transform="translate(269.498688 0)scale(0.996264)" xlink:href="#CMR17-41"/>
     <use transform="translate(304.779456 0)scale(0.996264)" xlink:href="#CMR17-41"/>
    </g>
   </g>
  </g>
  <g id="axis3d_3">
   <g id="line2d_5">
    <path d="M 398.348434 228.180625 
L 406.867833 71.811455 
" style="fill:none;stroke:#000000;stroke-linecap:square;stroke-width:0.8;"/>
   </g>
   <g id="text_5">
    <!-- $\mathrm{Im}(x(t))$ -->
    <defs>
     <path d="M 19.703125 60.90625 
C 19.703125 65.390625 20.90625 65.390625 28.09375 65.390625 
L 28.09375 68 
C 24.90625 67.796875 19.796875 67.796875 16.40625 67.796875 
C 13 67.796875 7.90625 67.796875 4.703125 68 
L 4.703125 65.390625 
C 11.90625 65.390625 13.09375 65.390625 13.09375 60.90625 
L 13.09375 7.078125 
C 13.09375 2.59375 11.90625 2.59375 4.703125 2.59375 
L 4.703125 0 
C 7.90625 0.1875 13 0.1875 16.40625 0.1875 
C 19.796875 0.1875 24.90625 0.1875 28.09375 0 
L 28.09375 2.59375 
C 20.90625 2.59375 19.703125 2.59375 19.703125 7.078125 
z
" id="CMR17-73"/>
     <path d="M 67.59375 30.53125 
C 67.59375 35.5625 66.703125 44 54.796875 44 
C 48 44 43.296875 39.375 41.5 33.953125 
L 41.40625 33.953125 
C 40.203125 42.1875 34.296875 44 28.703125 44 
C 20.796875 44 16.703125 37.875 15.203125 33.84375 
L 15.09375 33.84375 
L 15.09375 44 
L 3.296875 42.890625 
L 3.296875 40.28125 
C 9.203125 40.28125 10.09375 39.6875 10.09375 34.859375 
L 10.09375 6.921875 
C 10.09375 3.09375 9.703125 2.59375 3.296875 2.59375 
L 3.296875 0 
C 5.703125 0.1875 10.09375 0.1875 12.703125 0.1875 
C 15.296875 0.1875 19.796875 0.1875 22.203125 0 
L 22.203125 2.59375 
C 15.796875 2.59375 15.40625 3 15.40625 6.921875 
L 15.40625 26.21875 
C 15.40625 35.453125 21 42.390625 28 42.390625 
C 35.40625 42.390625 36.203125 35.765625 36.203125 30.9375 
L 36.203125 6.921875 
C 36.203125 3.09375 35.796875 2.59375 29.40625 2.59375 
L 29.40625 0 
C 31.796875 0.1875 36.203125 0.1875 38.796875 0.1875 
C 41.40625 0.1875 45.90625 0.1875 48.296875 0 
L 48.296875 2.59375 
C 41.90625 2.59375 41.5 3 41.5 6.921875 
L 41.5 26.21875 
C 41.5 35.453125 47.09375 42.390625 54.09375 42.390625 
C 61.5 42.390625 62.296875 35.765625 62.296875 30.9375 
L 62.296875 6.921875 
C 62.296875 3.09375 61.90625 2.59375 55.5 2.59375 
L 55.5 0 
C 57.90625 0.1875 62.296875 0.1875 64.90625 0.1875 
C 67.5 0.1875 72 0.1875 74.40625 0 
L 74.40625 2.59375 
C 68 2.59375 67.59375 3 67.59375 6.921875 
z
" id="CMR17-109"/>
    </defs>
    <g transform="translate(448.908567 208.071637)rotate(-86.88146)scale(0.35 -0.35)">
     <use transform="scale(0.996264)" xlink:href="#CMR17-73"/>
     <use transform="translate(32.638409 0)scale(0.996264)" xlink:href="#CMR17-109"/>
     <use transform="translate(109.557999 0)scale(0.996264)" xlink:href="#CMR17-40"/>
     <use transform="translate(144.838767 0)scale(0.996264)" xlink:href="#CMMI12-120"/>
     <use transform="translate(200.272826 0)scale(0.996264)" xlink:href="#CMR17-40"/>
     <use transform="translate(235.553594 0)scale(0.996264)" xlink:href="#CMMI12-116"/>
     <use transform="translate(270.779924 0)scale(0.996264)" xlink:href="#CMR17-41"/>
     <use transform="translate(306.060692 0)scale(0.996264)" xlink:href="#CMR17-41"/>
    </g>
   </g>
  </g>
  <g id="axes_1">
   <g id="line2d_6">
    <path clip-path="url(#p4abc6ced98)" d="M 198.852339 116.823574 
L 199.233502 112.587266 
L 199.426863 108.464462 
L 199.432738 104.469694 
L 199.252 100.617257 
L 198.886097 96.921171 
L 198.337054 93.395137 
L 197.60749 90.05249 
L 196.700621 86.906153 
L 195.620267 83.968587 
L 194.370862 81.251736 
L 192.957452 78.766983 
L 191.385703 76.525086 
L 189.661894 74.536132 
L 187.792918 72.809474 
L 185.786277 71.353682 
L 183.650067 70.176481 
L 181.392974 69.284701 
L 179.024249 68.684219 
L 176.553697 68.379909 
L 173.991647 68.375593 
L 171.348926 68.673992 
L 168.636829 69.276683 
L 165.867078 70.184061 
L 163.051786 71.395303 
L 160.203411 72.908342 
L 157.334704 74.719842 
L 154.45866 76.825185 
L 151.588458 79.218461 
L 148.737406 81.892469 
L 145.918872 84.838724 
L 143.14622 88.047474 
L 140.432745 91.50773 
L 137.791601 95.207292 
L 135.235732 99.132804 
L 132.7778 103.269798 
L 130.430115 107.60276 
L 128.204567 112.115202 
L 126.112557 116.789736 
L 124.164932 121.608166 
L 122.371924 126.551573 
L 120.743089 131.600423 
L 119.287255 136.734663 
L 118.012473 141.933834 
L 116.925972 147.177181 
L 116.034119 152.443765 
L 115.342394 157.712577 
L 114.855355 162.962658 
L 114.576627 168.173203 
L 114.508887 173.323678 
L 114.653857 178.393925 
L 115.012309 183.364267 
L 115.584069 188.215601 
L 116.368033 192.929497 
L 117.362188 197.488278 
L 118.563634 201.875101 
L 119.968618 206.074026 
L 121.572566 210.070081 
L 123.370125 213.849315 
L 125.355207 217.398842 
L 127.521028 220.706884 
L 129.860166 223.762796 
L 132.364602 226.557091 
L 135.025777 229.081452 
L 137.834646 231.32874 
L 140.781722 233.292992 
L 143.85714 234.969415 
L 147.0507 236.354377 
L 150.351921 237.445382 
L 153.750094 238.241053 
L 157.234324 238.7411 
L 160.793581 238.946295 
L 164.416744 238.858433 
L 168.092642 238.480299 
L 171.810092 237.815624 
L 175.557941 236.869054 
L 179.325098 235.6461 
L 183.100567 234.1531 
L 186.87348 232.397177 
L 190.633121 230.386196 
L 194.368954 228.128722 
L 198.070647 225.63398 
L 201.728094 222.911813 
L 205.331433 219.972642 
L 208.871066 216.827432 
L 212.337674 213.487647 
L 215.722236 209.965223 
L 219.016036 206.272526 
L 222.210683 202.422321 
L 225.298119 198.427743 
L 228.270631 194.302259 
L 232.042546 188.62183 
L 235.580694 182.7666 
L 238.86985 176.770722 
L 241.89603 170.668985 
L 244.646529 164.496702 
L 247.109963 158.28959 
L 249.27631 152.083657 
L 251.136955 145.915084 
L 252.684735 139.820101 
L 253.913985 133.834859 
L 254.820589 127.995293 
L 255.287226 123.732641 
L 255.570465 119.586784 
L 255.670379 115.572352 
L 255.587586 111.703734 
L 255.32326 107.995037 
L 254.879141 104.460041 
L 254.257544 101.112153 
L 253.461368 97.96436 
L 252.494107 95.029177 
L 251.359851 92.318598 
L 250.063295 89.844038 
L 248.609742 87.616284 
L 247.005098 85.645436 
L 245.255879 83.940849 
L 243.369197 82.511083 
L 241.352761 81.363839 
L 239.214857 80.505907 
L 236.964343 79.943112 
L 234.610624 79.680259 
L 232.163632 79.721085 
L 229.633802 80.068207 
L 227.032038 80.723084 
L 224.369681 81.685973 
L 221.658469 82.955898 
L 218.910495 84.530618 
L 216.13816 86.406607 
L 213.354119 88.57904 
L 210.57123 91.041782 
L 207.802493 93.787388 
L 205.06099 96.807119 
L 202.35982 100.09095 
L 199.712035 103.627604 
L 197.130566 107.404587 
L 194.628162 111.40823 
L 192.217314 115.623749 
L 189.910189 120.035306 
L 187.71856 124.626079 
L 185.653739 129.37835 
L 183.726514 134.273584 
L 181.947084 139.292531 
L 180.325005 144.415326 
L 178.86913 149.621592 
L 177.587566 154.890554 
L 176.487624 160.201149 
L 175.575785 165.532147 
L 174.857663 170.86226 
L 174.337984 176.170265 
L 174.020561 181.435114 
L 173.908283 186.636049 
L 174.003111 191.752709 
L 174.306072 196.765236 
L 174.817272 201.654371 
L 175.535902 206.40155 
L 176.460262 210.98899 
L 177.587782 215.399762 
L 178.915051 219.617869 
L 180.437849 223.628305 
L 182.151191 227.417109 
L 184.049359 230.971411 
L 186.125954 234.279469 
L 188.373936 237.330698 
L 190.78568 240.115691 
L 193.353019 242.626232 
L 196.067299 244.855299 
L 198.919429 246.797067 
L 201.899931 248.446893 
L 204.998993 249.801311 
L 208.206516 250.858002 
L 211.512166 251.61578 
L 214.905417 252.074554 
L 218.375599 252.235304 
L 221.911942 252.10004 
L 225.503613 251.671765 
L 229.13976 250.954438 
L 232.809546 249.952931 
L 236.502185 248.672984 
L 240.206971 247.121167 
L 243.913312 245.304834 
L 247.610753 243.232081 
L 251.289005 240.9117 
L 254.937968 238.353144 
L 258.547749 235.56648 
L 262.108684 232.562349 
L 265.611357 229.351932 
L 269.046614 225.946909 
L 272.405578 222.359421 
L 275.679664 218.602039 
L 278.860591 214.687729 
L 281.940394 210.629817 
L 285.876342 205.019539 
L 289.601807 199.211477 
L 293.100732 193.23965 
L 296.358206 187.138785 
L 299.360511 180.944203 
L 302.095157 174.691698 
L 304.550926 168.41743 
L 306.717913 162.157804 
L 308.587571 155.949352 
L 310.152757 149.828608 
L 311.407781 143.831978 
L 312.348452 137.995603 
L 312.972131 132.355213 
L 313.23118 128.274711 
L 313.311474 124.338813 
L 313.213719 120.561813 
L 312.939167 116.957688 
L 312.489625 113.540049 
L 311.867469 110.322097 
L 311.07565 107.316566 
L 310.117702 104.53568 
L 308.997751 101.991092 
L 307.720514 99.693832 
L 306.291308 97.654251 
L 304.716045 95.881966 
L 303.001233 94.385799 
L 301.153968 93.173721 
L 299.18193 92.252795 
L 297.093365 91.629124 
L 294.897077 91.307789 
L 292.602403 91.292806 
L 290.219192 91.587067 
L 287.757782 92.192306 
L 285.228962 93.109046 
L 282.643941 94.33657 
L 280.014308 95.87289 
L 277.351986 97.714718 
L 274.669186 99.857453 
L 271.978355 102.29517 
L 269.292121 105.020615 
L 266.623234 108.025219 
L 263.984502 111.299105 
L 261.388732 114.83112 
L 258.84866 118.608866 
L 256.376885 122.618746 
L 253.985801 126.846015 
L 251.687527 131.274844 
L 249.493843 135.888393 
L 247.416118 140.668889 
L 245.465247 145.597715 
L 243.651591 150.655506 
L 241.984914 155.822246 
L 240.474328 161.077384 
L 239.128246 166.399936 
L 237.954328 171.768607 
L 236.959446 177.161903 
L 236.149648 182.558253 
L 235.530125 187.936125 
L 235.105191 193.274147 
L 234.878267 198.551217 
L 234.851869 203.746615 
L 235.027605 208.840116 
L 235.406178 213.812083 
L 235.987395 218.64357 
L 236.77018 223.316408 
L 237.752597 227.813286 
L 238.931875 232.117825 
L 240.304435 236.214642 
L 241.86593 240.089409 
L 243.611277 243.728898 
L 245.534703 247.121025 
L 247.629789 250.254873 
L 249.889513 253.120721 
L 252.306301 255.710054 
L 254.872073 258.015574 
L 257.578295 260.031193 
L 260.416029 261.752032 
L 263.37598 263.174401 
L 266.448545 264.295785 
L 269.623864 265.114817 
L 272.891861 265.631249 
L 276.242294 265.845922 
L 279.664793 265.760726 
L 283.148905 265.378564 
L 286.684131 264.703314 
L 290.259963 263.73978 
L 293.865918 262.493657 
L 297.49157 260.971481 
L 301.126581 259.180587 
L 304.760726 257.129065 
L 308.383923 254.825717 
L 311.986253 252.280013 
L 315.55798 249.502051 
L 319.089576 246.502513 
L 322.571735 243.292629 
L 325.99539 239.884133 
L 329.351729 236.289234 
L 332.63221 232.520573 
L 336.873942 227.247991 
L 340.947389 221.721646 
L 344.834757 215.974485 
L 348.519264 210.040357 
L 351.985189 203.953893 
L 355.217905 197.750385 
L 358.203926 191.465674 
L 360.93094 185.136032 
L 363.387856 178.798049 
L 365.564844 172.488518 
L 367.453382 166.244311 
L 369.0463 160.102254 
L 370.33783 154.098996 
L 371.323658 148.270869 
L 372.00097 142.653735 
L 372.368513 137.282827 
L 372.441034 133.436983 
L 372.340233 129.763204 
L 372.067406 126.275307 
L 371.624395 122.986703 
L 371.013602 119.91035 
L 370.237993 117.0587 
L 369.301109 114.443642 
L 368.207073 112.076452 
L 366.960592 109.967734 
L 365.56696 108.127362 
L 364.032057 106.564423 
L 362.36235 105.287159 
L 360.564881 104.302909 
L 358.647265 103.61805 
L 356.617674 103.237944 
L 355.206685 103.156014 
L 355.206685 103.156014 
" style="fill:none;stroke:#1f77b4;stroke-linecap:square;stroke-width:1.5;"/>
   </g>
  </g>
 </g>
 <defs>
  <clipPath id="p4abc6ced98">
   <rect height="324" width="439.2" x="10.8" y="10.8"/>
  </clipPath>
 </defs>
</svg>
