<?xml version="1.0" encoding="utf-8" standalone="no"?>
<!DOCTYPE svg PUBLIC "-//W3C//DTD SVG 1.1//EN"
  "http://www.w3.org/Graphics/SVG/1.1/DTD/svg11.dtd">
<svg xmlns:xlink="http://www.w3.org/1999/xlink" width="343.711083pt" height="193.337484pt" viewBox="0 0 343.711083 193.337484" xmlns="http://www.w3.org/2000/svg" version="1.1">
 <metadata>
  <rdf:RDF xmlns:dc="http://purl.org/dc/elements/1.1/" xmlns:cc="http://creativecommons.org/ns#" xmlns:rdf="http://www.w3.org/1999/02/22-rdf-syntax-ns#">
   <cc:Work>
    <dc:type rdf:resource="http://purl.org/dc/dcmitype/StillImage"/>
    <dc:date>2026-02-12T22:40:15.534526</dc:date>
    <dc:format>image/svg+xml</dc:format>
    <dc:creator>
     <cc:Agent>
      <dc:title>Matplotlib v3.10.0, https://matplotlib.org/</dc:title>
     </cc:Agent>
    </dc:creator>
   </cc:Work>
  </rdf:RDF>
 </metadata>
 <defs>
  <style type="text/css">*{stroke-linejoin: round; stroke-linecap: butt}</style>
 </defs>
 <g id="figure_1">
  <g id="patch_1">
   <path d="M 0 193.337484 
L 343.711083 193.337484 
L 343.711083 0 
L 0 0 
z
" style="fill: #ffffff"/>
  </g>
  <g id="axes_1">
   <g id="patch_2">
    <path d="M 38.278823 153.826131 
L 332.911083 153.826131 
L 332.911083 10.8 
L 38.278823 10.8 
z
" style="fill: #ffffff"/>
   </g>
   <g id="matplotlib.axis_1">
    <g id="xtick_1">
     <g id="line2d_1">
      <path d="M 51.671198 153.826131 
L 51.671198 10.8 
" clip-path="url(#pf5e341f593)" style="fill: none; stroke: #b0b0b0; stroke-width: 0.8; stroke-linecap: square"/>
     </g>
     <g id="line2d_2">
      <defs>
       <path id="m30febfdb90" d="M 0 0 
L 0 3.5 
" style="stroke: #000000; stroke-width: 0.8"/>
      </defs>
      <g>
       <use xlink:href="#m30febfdb90" x="51.671198" y="153.826131" style="stroke: #000000; stroke-width: 0.8"/>
      </g>
     </g>
     <g id="text_1">
      <!-- $\mathdefault{0.0}$ -->
      <g transform="translate(45.306159 167.744629) scale(0.1 -0.1)">
       <defs>
        <path id="CMR17-30" d="M 2688 2038 
C 2688 2430 2682 3099 2413 3613 
C 2176 4063 1798 4224 1466 4224 
C 1158 4224 768 4082 525 3620 
C 269 3137 243 2539 243 2038 
C 243 1671 250 1112 448 623 
C 723 -39 1216 -128 1466 -128 
C 1760 -128 2208 -7 2470 604 
C 2662 1048 2688 1568 2688 2038 
z
M 1466 -26 
C 1056 -26 813 328 723 816 
C 653 1196 653 1749 653 2109 
C 653 2604 653 3015 736 3407 
C 858 3954 1216 4121 1466 4121 
C 1728 4121 2067 3947 2189 3420 
C 2272 3054 2278 2623 2278 2109 
C 2278 1691 2278 1176 2202 797 
C 2067 96 1690 -26 1466 -26 
z
" transform="scale(0.015625)"/>
        <path id="CMMI12-3a" d="M 1178 307 
C 1178 492 1024 620 870 620 
C 685 620 557 467 557 313 
C 557 128 710 0 864 0 
C 1050 0 1178 153 1178 307 
z
" transform="scale(0.015625)"/>
       </defs>
       <use xlink:href="#CMR17-30" transform="scale(0.996264)"/>
       <use xlink:href="#CMMI12-3a" transform="translate(45.690477 0) scale(0.996264)"/>
       <use xlink:href="#CMR17-30" transform="translate(72.787654 0) scale(0.996264)"/>
      </g>
     </g>
    </g>
    <g id="xtick_2">
     <g id="line2d_3">
      <path d="M 85.152137 153.826131 
L 85.152137 10.8 
" clip-path="url(#pf5e341f593)" style="fill: none; stroke: #b0b0b0; stroke-width: 0.8; stroke-linecap: square"/>
     </g>
     <g id="line2d_4">
      <g>
       <use xlink:href="#m30febfdb90" x="85.152137" y="153.826131" style="stroke: #000000; stroke-width: 0.8"/>
      </g>
     </g>
     <g id="text_2">
      <!-- $\mathdefault{2.5}$ -->
      <g transform="translate(78.787097 167.744629) scale(0.1 -0.1)">
       <defs>
        <path id="CMR17-32" d="M 2669 990 
L 2554 990 
C 2490 537 2438 460 2413 422 
C 2381 371 1920 371 1830 371 
L 602 371 
C 832 620 1280 1073 1824 1596 
C 2214 1966 2669 2400 2669 3033 
C 2669 3788 2067 4224 1395 4224 
C 691 4224 262 3603 262 3027 
C 262 2777 448 2745 525 2745 
C 589 2745 781 2783 781 3007 
C 781 3206 614 3264 525 3264 
C 486 3264 448 3257 422 3244 
C 544 3788 915 4057 1306 4057 
C 1862 4057 2227 3616 2227 3033 
C 2227 2477 1901 1998 1536 1583 
L 262 147 
L 262 0 
L 2515 0 
L 2669 990 
z
" transform="scale(0.015625)"/>
        <path id="CMR17-35" d="M 730 3750 
C 794 3724 1056 3641 1325 3641 
C 1920 3641 2246 3961 2432 4140 
C 2432 4191 2432 4224 2394 4224 
C 2387 4224 2374 4224 2323 4198 
C 2099 4102 1837 4032 1517 4032 
C 1325 4032 1037 4055 723 4191 
C 653 4224 640 4224 634 4224 
C 602 4224 595 4217 595 4090 
L 595 2231 
C 595 2113 595 2080 659 2080 
C 691 2080 704 2093 736 2139 
C 941 2435 1222 2560 1542 2560 
C 1766 2560 2246 2415 2246 1293 
C 2246 1087 2246 716 2054 422 
C 1894 159 1645 25 1370 25 
C 947 25 518 319 403 812 
C 429 806 480 793 506 793 
C 589 793 749 838 749 1036 
C 749 1209 627 1280 506 1280 
C 358 1280 262 1190 262 1011 
C 262 454 704 -128 1382 -128 
C 2042 -128 2669 441 2669 1267 
C 2669 2054 2170 2662 1549 2662 
C 1222 2662 947 2540 730 2304 
L 730 3750 
z
" transform="scale(0.015625)"/>
       </defs>
       <use xlink:href="#CMR17-32" transform="scale(0.996264)"/>
       <use xlink:href="#CMMI12-3a" transform="translate(45.690477 0) scale(0.996264)"/>
       <use xlink:href="#CMR17-35" transform="translate(72.787654 0) scale(0.996264)"/>
      </g>
     </g>
    </g>
    <g id="xtick_3">
     <g id="line2d_5">
      <path d="M 118.633076 153.826131 
L 118.633076 10.8 
" clip-path="url(#pf5e341f593)" style="fill: none; stroke: #b0b0b0; stroke-width: 0.8; stroke-linecap: square"/>
     </g>
     <g id="line2d_6">
      <g>
       <use xlink:href="#m30febfdb90" x="118.633076" y="153.826131" style="stroke: #000000; stroke-width: 0.8"/>
      </g>
     </g>
     <g id="text_3">
      <!-- $\mathdefault{5.0}$ -->
      <g transform="translate(112.268036 167.744629) scale(0.1 -0.1)">
       <use xlink:href="#CMR17-35" transform="scale(0.996264)"/>
       <use xlink:href="#CMMI12-3a" transform="translate(45.690477 0) scale(0.996264)"/>
       <use xlink:href="#CMR17-30" transform="translate(72.787654 0) scale(0.996264)"/>
      </g>
     </g>
    </g>
    <g id="xtick_4">
     <g id="line2d_7">
      <path d="M 152.114014 153.826131 
L 152.114014 10.8 
" clip-path="url(#pf5e341f593)" style="fill: none; stroke: #b0b0b0; stroke-width: 0.8; stroke-linecap: square"/>
     </g>
     <g id="line2d_8">
      <g>
       <use xlink:href="#m30febfdb90" x="152.114014" y="153.826131" style="stroke: #000000; stroke-width: 0.8"/>
      </g>
     </g>
     <g id="text_4">
      <!-- $\mathdefault{7.5}$ -->
      <g transform="translate(145.748975 167.744629) scale(0.1 -0.1)">
       <defs>
        <path id="CMR17-37" d="M 2886 3955 
L 2886 4096 
L 1382 4096 
C 634 4096 621 4166 595 4288 
L 480 4288 
L 294 3104 
L 410 3104 
C 429 3226 474 3552 550 3673 
C 589 3724 1062 3724 1171 3724 
L 2579 3724 
L 1869 2670 
C 1395 1961 1069 1003 1069 166 
C 1069 89 1069 -128 1299 -128 
C 1530 -128 1530 89 1530 172 
L 1530 466 
C 1530 1514 1709 2204 2003 2644 
L 2886 3955 
z
" transform="scale(0.015625)"/>
       </defs>
       <use xlink:href="#CMR17-37" transform="scale(0.996264)"/>
       <use xlink:href="#CMMI12-3a" transform="translate(45.690477 0) scale(0.996264)"/>
       <use xlink:href="#CMR17-35" transform="translate(72.787654 0) scale(0.996264)"/>
      </g>
     </g>
    </g>
    <g id="xtick_5">
     <g id="line2d_9">
      <path d="M 185.594953 153.826131 
L 185.594953 10.8 
" clip-path="url(#pf5e341f593)" style="fill: none; stroke: #b0b0b0; stroke-width: 0.8; stroke-linecap: square"/>
     </g>
     <g id="line2d_10">
      <g>
       <use xlink:href="#m30febfdb90" x="185.594953" y="153.826131" style="stroke: #000000; stroke-width: 0.8"/>
      </g>
     </g>
     <g id="text_5">
      <!-- $\mathdefault{10.0}$ -->
      <g transform="translate(176.739246 167.744629) scale(0.1 -0.1)">
       <defs>
        <path id="CMR17-31" d="M 1702 4083 
C 1702 4217 1696 4224 1606 4224 
C 1357 3927 979 3833 621 3820 
C 602 3820 570 3820 563 3808 
C 557 3795 557 3782 557 3648 
C 755 3648 1088 3686 1344 3839 
L 1344 467 
C 1344 243 1331 166 781 166 
L 589 166 
L 589 0 
C 896 6 1216 12 1523 12 
C 1830 12 2150 6 2458 0 
L 2458 166 
L 2266 166 
C 1715 166 1702 236 1702 467 
L 1702 4083 
z
" transform="scale(0.015625)"/>
       </defs>
       <use xlink:href="#CMR17-31" transform="scale(0.996264)"/>
       <use xlink:href="#CMR17-30" transform="translate(45.690477 0) scale(0.996264)"/>
       <use xlink:href="#CMMI12-3a" transform="translate(91.380954 0) scale(0.996264)"/>
       <use xlink:href="#CMR17-30" transform="translate(118.478131 0) scale(0.996264)"/>
      </g>
     </g>
    </g>
    <g id="xtick_6">
     <g id="line2d_11">
      <path d="M 219.075892 153.826131 
L 219.075892 10.8 
" clip-path="url(#pf5e341f593)" style="fill: none; stroke: #b0b0b0; stroke-width: 0.8; stroke-linecap: square"/>
     </g>
     <g id="line2d_12">
      <g>
       <use xlink:href="#m30febfdb90" x="219.075892" y="153.826131" style="stroke: #000000; stroke-width: 0.8"/>
      </g>
     </g>
     <g id="text_6">
      <!-- $\mathdefault{12.5}$ -->
      <g transform="translate(210.220185 167.744629) scale(0.1 -0.1)">
       <use xlink:href="#CMR17-31" transform="scale(0.996264)"/>
       <use xlink:href="#CMR17-32" transform="translate(45.690477 0) scale(0.996264)"/>
       <use xlink:href="#CMMI12-3a" transform="translate(91.380954 0) scale(0.996264)"/>
       <use xlink:href="#CMR17-35" transform="translate(118.478131 0) scale(0.996264)"/>
      </g>
     </g>
    </g>
    <g id="xtick_7">
     <g id="line2d_13">
      <path d="M 252.556831 153.826131 
L 252.556831 10.8 
" clip-path="url(#pf5e341f593)" style="fill: none; stroke: #b0b0b0; stroke-width: 0.8; stroke-linecap: square"/>
     </g>
     <g id="line2d_14">
      <g>
       <use xlink:href="#m30febfdb90" x="252.556831" y="153.826131" style="stroke: #000000; stroke-width: 0.8"/>
      </g>
     </g>
     <g id="text_7">
      <!-- $\mathdefault{15.0}$ -->
      <g transform="translate(243.701123 167.744629) scale(0.1 -0.1)">
       <use xlink:href="#CMR17-31" transform="scale(0.996264)"/>
       <use xlink:href="#CMR17-35" transform="translate(45.690477 0) scale(0.996264)"/>
       <use xlink:href="#CMMI12-3a" transform="translate(91.380954 0) scale(0.996264)"/>
       <use xlink:href="#CMR17-30" transform="translate(118.478131 0) scale(0.996264)"/>
      </g>
     </g>
    </g>
    <g id="xtick_8">
     <g id="line2d_15">
      <path d="M 286.037769 153.826131 
L 286.037769 10.8 
" clip-path="url(#pf5e341f593)" style="fill: none; stroke: #b0b0b0; stroke-width: 0.8; stroke-linecap: square"/>
     </g>
     <g id="line2d_16">
      <g>
       <use xlink:href="#m30febfdb90" x="286.037769" y="153.826131" style="stroke: #000000; stroke-width: 0.8"/>
      </g>
     </g>
     <g id="text_8">
      <!-- $\mathdefault{17.5}$ -->
      <g transform="translate(277.182062 167.744629) scale(0.1 -0.1)">
       <use xlink:href="#CMR17-31" transform="scale(0.996264)"/>
       <use xlink:href="#CMR17-37" transform="translate(45.690477 0) scale(0.996264)"/>
       <use xlink:href="#CMMI12-3a" transform="translate(91.380954 0) scale(0.996264)"/>
       <use xlink:href="#CMR17-35" transform="translate(118.478131 0) scale(0.996264)"/>
      </g>
     </g>
    </g>
    <g id="xtick_9">
     <g id="line2d_17">
      <path d="M 319.518708 153.826131 
L 319.518708 10.8 
" clip-path="url(#pf5e341f593)" style="fill: none; stroke: #b0b0b0; stroke-width: 0.8; stroke-linecap: square"/>
     </g>
     <g id="line2d_18">
      <g>
       <use xlink:href="#m30febfdb90" x="319.518708" y="153.826131" style="stroke: #000000; stroke-width: 0.8"/>
      </g>
     </g>
     <g id="text_9">
      <!-- $\mathdefault{20.0}$ -->
      <g transform="translate(310.663001 167.744629) scale(0.1 -0.1)">
       <use xlink:href="#CMR17-32" transform="scale(0.996264)"/>
       <use xlink:href="#CMR17-30" transform="translate(45.690477 0) scale(0.996264)"/>
       <use xlink:href="#CMMI12-3a" transform="translate(91.380954 0) scale(0.996264)"/>
       <use xlink:href="#CMR17-30" transform="translate(118.478131 0) scale(0.996264)"/>
      </g>
     </g>
    </g>
    <g id="text_10">
     <!-- $t$ -->
     <g transform="translate(183.796141 180.600306) scale(0.1 -0.1)">
      <defs>
       <path id="CMMI12-74" d="M 1286 2566 
L 1875 2566 
C 1997 2566 2061 2566 2061 2681 
C 2061 2752 2022 2752 1894 2752 
L 1331 2752 
L 1568 3664 
C 1594 3752 1594 3764 1594 3808 
C 1594 3910 1510 3968 1427 3968 
C 1376 3968 1229 3948 1178 3746 
L 928 2752 
L 326 2752 
C 198 2752 141 2752 141 2630 
C 141 2566 186 2566 307 2566 
L 877 2566 
L 454 881 
C 403 657 384 593 384 510 
C 384 210 595 -64 954 -64 
C 1600 -64 1946 868 1946 913 
C 1946 951 1920 970 1882 970 
C 1869 970 1843 970 1830 944 
C 1824 938 1818 932 1773 830 
C 1638 510 1344 64 973 64 
C 781 64 768 223 768 364 
C 768 370 768 491 787 568 
L 1286 2566 
z
" transform="scale(0.015625)"/>
      </defs>
      <use xlink:href="#CMMI12-74" transform="scale(0.996264)"/>
     </g>
    </g>
   </g>
   <g id="matplotlib.axis_2">
    <g id="ytick_1">
     <g id="line2d_19">
      <path d="M 38.278823 147.325015 
L 332.911083 147.325015 
" clip-path="url(#pf5e341f593)" style="fill: none; stroke: #b0b0b0; stroke-width: 0.8; stroke-linecap: square"/>
     </g>
     <g id="line2d_20">
      <defs>
       <path id="md41392a7ba" d="M 0 0 
L -3.5 0 
" style="stroke: #000000; stroke-width: 0.8"/>
      </defs>
      <g>
       <use xlink:href="#md41392a7ba" x="38.278823" y="147.325015" style="stroke: #000000; stroke-width: 0.8"/>
      </g>
     </g>
     <g id="text_11">
      <!-- $\mathdefault{−1.0}$ -->
      <g transform="translate(10.8 150.784264) scale(0.1 -0.1)">
       <defs>
        <path id="CMSY10-0" d="M 4218 1472 
C 4326 1472 4442 1472 4442 1600 
C 4442 1728 4326 1728 4218 1728 
L 755 1728 
C 646 1728 531 1728 531 1600 
C 531 1472 646 1472 755 1472 
L 4218 1472 
z
" transform="scale(0.015625)"/>
       </defs>
       <use xlink:href="#CMSY10-0" transform="scale(0.996264)"/>
       <use xlink:href="#CMR17-31" transform="translate(77.487468 0) scale(0.996264)"/>
       <use xlink:href="#CMMI12-3a" transform="translate(123.177945 0) scale(0.996264)"/>
       <use xlink:href="#CMR17-30" transform="translate(150.275122 0) scale(0.996264)"/>
      </g>
     </g>
    </g>
    <g id="ytick_2">
     <g id="line2d_21">
      <path d="M 38.278823 114.819058 
L 332.911083 114.819058 
" clip-path="url(#pf5e341f593)" style="fill: none; stroke: #b0b0b0; stroke-width: 0.8; stroke-linecap: square"/>
     </g>
     <g id="line2d_22">
      <g>
       <use xlink:href="#md41392a7ba" x="38.278823" y="114.819058" style="stroke: #000000; stroke-width: 0.8"/>
      </g>
     </g>
     <g id="text_12">
      <!-- $\mathdefault{−0.5}$ -->
      <g transform="translate(10.8 118.278307) scale(0.1 -0.1)">
       <use xlink:href="#CMSY10-0" transform="scale(0.996264)"/>
       <use xlink:href="#CMR17-30" transform="translate(77.487468 0) scale(0.996264)"/>
       <use xlink:href="#CMMI12-3a" transform="translate(123.177945 0) scale(0.996264)"/>
       <use xlink:href="#CMR17-35" transform="translate(150.275122 0) scale(0.996264)"/>
      </g>
     </g>
    </g>
    <g id="ytick_3">
     <g id="line2d_23">
      <path d="M 38.278823 82.313101 
L 332.911083 82.313101 
" clip-path="url(#pf5e341f593)" style="fill: none; stroke: #b0b0b0; stroke-width: 0.8; stroke-linecap: square"/>
     </g>
     <g id="line2d_24">
      <g>
       <use xlink:href="#md41392a7ba" x="38.278823" y="82.313101" style="stroke: #000000; stroke-width: 0.8"/>
      </g>
     </g>
     <g id="text_13">
      <!-- $\mathdefault{0.0}$ -->
      <g transform="translate(18.548744 85.77235) scale(0.1 -0.1)">
       <use xlink:href="#CMR17-30" transform="scale(0.996264)"/>
       <use xlink:href="#CMMI12-3a" transform="translate(45.690477 0) scale(0.996264)"/>
       <use xlink:href="#CMR17-30" transform="translate(72.787654 0) scale(0.996264)"/>
      </g>
     </g>
    </g>
    <g id="ytick_4">
     <g id="line2d_25">
      <path d="M 38.278823 49.807144 
L 332.911083 49.807144 
" clip-path="url(#pf5e341f593)" style="fill: none; stroke: #b0b0b0; stroke-width: 0.8; stroke-linecap: square"/>
     </g>
     <g id="line2d_26">
      <g>
       <use xlink:href="#md41392a7ba" x="38.278823" y="49.807144" style="stroke: #000000; stroke-width: 0.8"/>
      </g>
     </g>
     <g id="text_14">
      <!-- $\mathdefault{0.5}$ -->
      <g transform="translate(18.548744 53.266394) scale(0.1 -0.1)">
       <use xlink:href="#CMR17-30" transform="scale(0.996264)"/>
       <use xlink:href="#CMMI12-3a" transform="translate(45.690477 0) scale(0.996264)"/>
       <use xlink:href="#CMR17-35" transform="translate(72.787654 0) scale(0.996264)"/>
      </g>
     </g>
    </g>
    <g id="ytick_5">
     <g id="line2d_27">
      <path d="M 38.278823 17.301188 
L 332.911083 17.301188 
" clip-path="url(#pf5e341f593)" style="fill: none; stroke: #b0b0b0; stroke-width: 0.8; stroke-linecap: square"/>
     </g>
     <g id="line2d_28">
      <g>
       <use xlink:href="#md41392a7ba" x="38.278823" y="17.301188" style="stroke: #000000; stroke-width: 0.8"/>
      </g>
     </g>
     <g id="text_15">
      <!-- $\mathdefault{1.0}$ -->
      <g transform="translate(18.548744 20.760437) scale(0.1 -0.1)">
       <use xlink:href="#CMR17-31" transform="scale(0.996264)"/>
       <use xlink:href="#CMMI12-3a" transform="translate(45.690477 0) scale(0.996264)"/>
       <use xlink:href="#CMR17-30" transform="translate(72.787654 0) scale(0.996264)"/>
      </g>
     </g>
    </g>
   </g>
   <g id="line2d_29">
    <path d="M 51.671198 17.301188 
L 52.475545 17.418408 
L 53.279892 17.769647 
L 54.084239 18.353638 
L 54.888586 19.168275 
L 55.961048 20.608044 
L 57.033511 22.443305 
L 58.374089 25.275387 
L 59.714667 28.67851 
L 61.323361 33.467681 
L 62.932054 38.960787 
L 64.808864 46.152982 
L 66.953789 55.231911 
L 69.903061 68.796653 
L 79.287108 112.981971 
L 81.432033 121.731185 
L 83.308842 128.566129 
L 84.917536 133.707456 
L 86.526229 138.108113 
L 87.866808 141.16344 
L 89.207386 143.629578 
L 90.279848 145.161475 
L 91.352311 146.290551 
L 92.156658 146.868556 
L 92.961004 147.213766 
L 93.765351 147.324937 
L 94.569698 147.201666 
L 95.374045 146.844398 
L 96.178392 146.254423 
L 96.982739 145.433867 
L 98.055201 143.986345 
L 99.127664 142.143535 
L 100.468242 139.302377 
L 101.80882 135.890661 
L 103.417514 131.091942 
L 105.026208 125.590247 
L 106.903017 118.389407 
L 109.047942 109.302621 
L 111.997214 95.730935 
L 121.381261 51.555389 
L 123.526186 42.814907 
L 125.402995 35.989293 
L 127.011689 30.857077 
L 128.620383 26.466419 
L 129.960961 23.419999 
L 131.301539 20.963198 
L 132.374001 19.439015 
L 133.446464 18.317818 
L 134.250811 17.7458 
L 135.055158 17.40662 
L 135.859505 17.3015 
L 136.663851 17.430821 
L 137.468198 17.794116 
L 138.272545 18.390074 
L 139.076892 19.216547 
L 140.149355 20.671819 
L 141.221817 22.522174 
L 142.562395 25.372402 
L 143.902973 28.7927 
L 145.511667 33.600957 
L 147.120361 39.111229 
L 148.99717 46.320695 
L 151.142095 55.415318 
L 154.091367 68.993913 
L 163.475414 113.159582 
L 165.620339 121.891312 
L 167.497148 128.707578 
L 169.105842 133.830672 
L 170.714536 138.21132 
L 172.055114 141.248824 
L 173.395692 143.696284 
L 174.468155 145.212748 
L 175.540617 146.326064 
L 176.344964 146.892094 
L 177.149311 147.225243 
L 177.953658 147.324311 
L 178.758005 147.188941 
L 179.562351 146.81962 
L 180.366698 146.21768 
L 181.171045 145.385292 
L 182.243508 143.922274 
L 183.31597 142.064378 
L 184.656548 139.205088 
L 185.997127 135.776214 
L 187.60582 130.958432 
L 189.214514 125.439597 
L 191.091323 118.221522 
L 193.504364 107.928041 
L 196.453636 94.256703 
L 205.033336 53.691602 
L 207.446377 43.694177 
L 209.323186 36.767635 
L 210.93188 31.536678 
L 212.540573 27.037486 
L 213.881152 23.894264 
L 215.22173 21.335912 
L 216.294192 19.727753 
L 217.366655 18.520728 
L 218.171002 17.883455 
L 218.975348 17.478524 
L 219.779695 17.307394 
L 220.584042 17.370684 
L 221.388389 17.668163 
L 222.192736 18.198761 
L 222.997083 18.960563 
L 224.069545 20.331084 
L 225.142008 22.098871 
L 226.21447 24.252595 
L 227.555048 27.466216 
L 228.895627 31.228945 
L 230.50432 36.415638 
L 232.38113 43.29699 
L 234.526055 52.089545 
L 237.207211 64.139789 
L 241.497061 84.718463 
L 245.786911 105.052438 
L 248.468067 116.710251 
L 250.612992 125.06784 
L 252.489802 131.489654 
L 254.098495 136.230908 
L 255.439073 139.590952 
L 256.779652 142.377549 
L 257.852114 144.174998 
L 258.924577 145.575949 
L 259.997039 146.571423 
L 260.801386 147.047998 
L 261.605733 147.291131 
L 262.41008 147.299944 
L 263.214427 147.074407 
L 264.018773 146.615332 
L 264.82312 145.924376 
L 265.895583 144.646821 
L 266.968045 142.969745 
L 268.040508 140.903896 
L 269.381086 137.795277 
L 270.721664 134.131188 
L 272.330358 129.053084 
L 274.207167 122.28297 
L 276.352092 113.594538 
L 279.033249 101.63612 
L 282.786867 83.710902 
L 287.881064 59.479359 
L 290.56222 47.830457 
L 292.707145 39.482478 
L 294.583955 33.070675 
L 296.192649 28.33904 
L 297.533227 24.987636 
L 298.873805 22.210155 
L 299.946267 20.420283 
L 301.01873 19.027106 
L 302.091192 18.039553 
L 302.895539 17.568987 
L 303.699886 17.331896 
L 304.504233 17.329136 
L 305.30858 17.560716 
L 306.112927 18.025801 
L 306.917274 18.722714 
L 307.989736 20.008091 
L 309.062199 21.692804 
L 310.134661 23.766057 
L 311.475239 26.883533 
L 312.815817 30.55595 
L 314.424511 35.643238 
L 316.30132 42.422779 
L 318.446245 51.120067 
L 319.518708 55.782906 
L 319.518708 55.782906 
" clip-path="url(#pf5e341f593)" style="fill: none; stroke: #1f77b4; stroke-linecap: square"/>
   </g>
   <g id="line2d_30">
    <path d="M 51.671198 82.313101 
L 56.497279 59.389155 
L 59.178436 47.748799 
L 61.323361 39.410027 
L 63.20017 33.00781 
L 64.808864 28.28538 
L 66.149442 24.942244 
L 67.49002 22.173486 
L 68.562483 20.39086 
L 69.634945 19.005117 
L 70.707408 18.025141 
L 71.511754 17.56032 
L 72.316101 17.329006 
L 73.120448 17.332032 
L 73.924795 17.569389 
L 74.729142 18.040219 
L 75.533489 18.742826 
L 76.605951 20.035677 
L 77.678414 21.727689 
L 78.750876 23.808016 
L 80.091454 26.933951 
L 81.432033 30.614324 
L 83.040726 35.710379 
L 84.917536 42.498918 
L 87.062461 51.204652 
L 89.743617 63.178429 
L 93.765351 82.413901 
L 98.591433 105.331346 
L 101.272589 116.962735 
L 103.417514 125.291858 
L 105.294323 131.684033 
L 106.903017 136.396824 
L 108.243595 139.731304 
L 109.584173 142.490932 
L 110.656636 144.265974 
L 111.729098 145.643936 
L 112.801561 146.615985 
L 113.605908 147.074796 
L 114.410255 147.300067 
L 115.214601 147.290987 
L 116.018948 147.047589 
L 116.823295 146.57075 
L 117.627642 145.86219 
L 118.700105 144.561523 
L 119.772567 142.861882 
L 120.84503 140.77416 
L 122.185608 137.639384 
L 123.526186 133.950699 
L 125.13488 128.845485 
L 127.011689 122.04755 
L 129.156614 113.333002 
L 131.83777 101.351415 
L 135.859505 82.111501 
L 140.685586 59.200614 
L 143.366742 47.578218 
L 145.511667 39.258765 
L 147.388476 32.876647 
L 148.99717 28.173508 
L 150.337748 24.847692 
L 151.678326 22.0972 
L 152.750789 20.329747 
L 153.823251 18.959568 
L 154.895714 17.995448 
L 155.700061 17.542649 
L 156.504408 17.323421 
L 157.308755 17.338554 
L 158.113101 17.587993 
L 158.917448 18.07084 
L 159.721795 18.785352 
L 160.794258 20.093831 
L 161.86672 21.801097 
L 162.939183 23.896209 
L 164.279761 27.039819 
L 165.620339 30.736807 
L 167.229033 35.851168 
L 169.105842 42.658482 
L 171.250767 51.381824 
L 173.931923 63.371192 
L 177.953658 82.615501 
L 182.779739 105.519776 
L 185.460895 117.133149 
L 187.60582 125.442913 
L 189.48263 131.814959 
L 191.091323 136.508435 
L 192.431902 139.825579 
L 193.77248 142.566928 
L 194.844942 144.326789 
L 195.917405 145.68918 
L 196.989867 146.645369 
L 197.794214 147.092155 
L 198.598561 147.305339 
L 199.402908 147.284153 
L 200.207255 147.028673 
L 201.011602 146.539821 
L 201.815948 145.819359 
L 202.888411 144.503071 
L 203.960873 142.788183 
L 205.033336 140.685686 
L 206.373914 137.53325 
L 207.714492 133.827968 
L 209.323186 128.704473 
L 211.199995 121.887795 
L 213.34492 113.155681 
L 216.026077 101.158561 
L 220.047811 81.909903 
L 224.873892 59.012295 
L 227.555048 47.407972 
L 229.699973 39.107917 
L 231.576783 32.745959 
L 233.185477 28.062157 
L 234.526055 24.753693 
L 235.866633 22.021494 
L 236.939095 20.26923 
L 238.011558 18.914629 
L 239.08402 17.966373 
L 239.888367 17.525602 
L 240.692714 17.318462 
L 241.497061 17.345701 
L 242.301408 17.60722 
L 243.105755 18.102078 
L 243.910102 18.828488 
L 244.982564 20.152582 
L 246.055027 21.875087 
L 247.127489 23.984964 
L 248.468067 27.146219 
L 249.808645 30.859786 
L 251.417339 35.992403 
L 253.294148 42.818427 
L 255.439073 51.559293 
L 258.12023 63.564136 
L 262.141964 82.817098 
L 266.968045 105.707983 
L 269.649202 117.303228 
L 271.794127 125.593554 
L 273.670936 131.945408 
L 275.27963 136.619526 
L 276.620208 139.919302 
L 277.960786 142.642344 
L 279.033249 144.387007 
L 280.105711 145.733815 
L 281.178174 146.674134 
L 281.98252 147.108891 
L 282.786867 147.309986 
L 283.591214 147.276694 
L 284.395561 147.009135 
L 285.199908 146.508274 
L 286.004255 145.775917 
L 287.076717 144.44402 
L 288.14918 142.713902 
L 289.221642 140.596651 
L 290.56222 137.426585 
L 291.902799 133.704742 
L 293.511492 128.563015 
L 295.388302 121.72766 
L 297.533227 112.978064 
L 300.214383 100.965526 
L 304.236117 81.708308 
L 309.062199 58.8242 
L 311.743355 47.238061 
L 313.88828 38.957484 
L 315.765089 32.615749 
L 317.373783 27.951327 
L 318.714361 24.660247 
L 319.518708 22.960784 
L 319.518708 22.960784 
" clip-path="url(#pf5e341f593)" style="fill: none; stroke: #ff7f0e; stroke-linecap: square"/>
   </g>
   <g id="patch_3">
    <path d="M 38.278823 153.826131 
L 38.278823 10.8 
" style="fill: none; stroke: #000000; stroke-width: 0.8; stroke-linejoin: miter; stroke-linecap: square"/>
   </g>
   <g id="patch_4">
    <path d="M 332.911083 153.826131 
L 332.911083 10.8 
" style="fill: none; stroke: #000000; stroke-width: 0.8; stroke-linejoin: miter; stroke-linecap: square"/>
   </g>
   <g id="patch_5">
    <path d="M 38.278823 153.826131 
L 332.911083 153.826131 
" style="fill: none; stroke: #000000; stroke-width: 0.8; stroke-linejoin: miter; stroke-linecap: square"/>
   </g>
   <g id="patch_6">
    <path d="M 38.278823 10.8 
L 332.911083 10.8 
" style="fill: none; stroke: #000000; stroke-width: 0.8; stroke-linejoin: miter; stroke-linecap: square"/>
   </g>
   <g id="legend_1">
    <g id="patch_7">
     <path d="M 257.222205 98.775706 
L 325.911083 98.775706 
Q 327.911083 98.775706 327.911083 96.775706 
L 327.911083 67.850425 
Q 327.911083 65.850425 325.911083 65.850425 
L 257.222205 65.850425 
Q 255.222205 65.850425 255.222205 67.850425 
L 255.222205 96.775706 
Q 255.222205 98.775706 257.222205 98.775706 
z
" style="fill: #ffffff; opacity: 0.8; stroke: #cccccc; stroke-linejoin: miter"/>
    </g>
    <g id="line2d_31">
     <path d="M 259.222205 73.822405 
L 269.222205 73.822405 
L 279.222205 73.822405 
" style="fill: none; stroke: #1f77b4; stroke-linecap: square"/>
    </g>
    <g id="text_16">
     <!-- $\Re(x(t))$ -->
     <g transform="translate(287.222205 77.322405) scale(0.1 -0.1)">
      <defs>
       <path id="CMSY10-3c" d="M 3667 4518 
C 3616 4608 3610 4614 3520 4614 
C 3078 4614 2298 4435 1965 3889 
C 1869 4075 1555 4544 1069 4544 
C 634 4544 352 4139 352 3773 
C 352 3529 499 3369 678 3183 
C 1037 2823 1037 2720 1037 2483 
C 1037 2107 998 1728 723 1728 
C 550 1728 518 1961 512 2075 
C 512 2126 506 2176 429 2176 
C 352 2176 352 2107 352 2081 
C 352 1968 410 1587 723 1587 
C 1242 1587 1242 2399 1242 2547 
C 1242 2740 1229 2984 794 3388 
C 614 3549 544 3645 544 3786 
C 544 4062 730 4403 1062 4403 
C 1395 4403 1651 3902 1651 3151 
L 1651 1263 
C 1651 1204 1651 12 1235 12 
C 998 12 762 213 627 621 
C 646 621 774 667 774 725 
C 774 764 723 796 704 796 
C 678 796 595 764 570 751 
C 563 790 531 861 486 861 
C 448 861 403 809 403 777 
C 403 751 416 712 429 693 
C 390 686 294 647 294 595 
C 294 563 333 524 365 524 
C 384 524 461 550 480 563 
C 685 0 1011 -128 1235 -128 
C 1690 -128 2195 459 2195 1772 
L 2195 2233 
L 2931 2233 
L 3014 829 
C 3014 783 2989 738 2989 615 
C 2989 226 3302 -128 3731 -128 
C 3814 -128 3827 -128 3949 -39 
L 4410 323 
C 4486 388 4493 395 4493 420 
C 4493 472 4390 511 4371 511 
C 4339 511 4109 323 3821 84 
C 3603 226 3526 440 3526 615 
C 3526 738 3552 757 3552 829 
C 3552 1016 3520 1353 3514 1554 
C 3501 1683 3475 2189 3469 2278 
C 3827 2393 4525 2804 4538 2810 
C 4557 2830 4570 2842 4570 2875 
C 4570 2887 4531 2964 4525 2971 
L 3667 4518 
z
M 4032 2759 
C 3443 2432 3309 2432 3123 2432 
L 2195 2432 
L 2195 2746 
C 2195 3189 2138 3440 2067 3639 
C 2291 4255 3117 4371 3123 4371 
C 3136 4371 3174 4306 3181 4300 
L 4032 2759 
z
" transform="scale(0.015625)"/>
       <path id="CMR17-28" d="M 1958 -1562 
C 1958 -1556 1958 -1543 1939 -1524 
C 1645 -1223 858 -403 858 1596 
C 858 3595 1632 4408 1946 4729 
C 1946 4735 1958 4748 1958 4767 
C 1958 4787 1939 4800 1914 4800 
C 1843 4800 1299 4325 986 3620 
C 666 2909 576 2218 576 1603 
C 576 1141 621 360 1005 -467 
C 1312 -1133 1837 -1600 1914 -1600 
C 1946 -1600 1958 -1588 1958 -1562 
z
" transform="scale(0.015625)"/>
       <path id="CMMI12-78" d="M 3034 2624 
C 2829 2585 2752 2431 2752 2310 
C 2752 2156 2874 2105 2963 2105 
C 3155 2105 3290 2271 3290 2444 
C 3290 2694 2982 2816 2714 2816 
C 2323 2816 2106 2451 2048 2329 
C 1901 2790 1504 2816 1389 2816 
C 736 2816 390 1993 390 1849 
C 390 1823 416 1790 461 1790 
C 512 1790 525 1829 538 1855 
C 755 2572 1184 2687 1370 2687 
C 1658 2687 1715 2438 1715 2284 
C 1715 2143 1677 1993 1600 1678 
L 1382 778 
C 1286 390 1101 64 762 64 
C 730 64 570 64 435 126 
C 666 166 717 358 717 435 
C 717 563 621 640 499 640 
C 346 640 179 505 179 300 
C 179 57 480 -64 755 -64 
C 1062 -64 1280 153 1414 415 
C 1517 64 1837 -64 2074 -64 
C 2726 -64 3072 751 3072 896 
C 3072 929 3046 955 3008 955 
C 2950 955 2944 922 2925 870 
C 2752 300 2381 64 2093 64 
C 1869 64 1747 204 1747 467 
C 1747 607 1773 712 1875 1146 
L 2099 2039 
C 2195 2425 2413 2687 2707 2687 
C 2720 2687 2899 2687 3034 2624 
z
" transform="scale(0.015625)"/>
       <path id="CMR17-29" d="M 1683 1596 
C 1683 2057 1638 2839 1254 3665 
C 947 4332 422 4800 346 4800 
C 326 4800 301 4793 301 4761 
C 301 4748 307 4742 314 4729 
C 621 4408 1402 3595 1402 1603 
C 1402 -396 627 -1210 314 -1530 
C 307 -1543 301 -1549 301 -1562 
C 301 -1594 326 -1600 346 -1600 
C 416 -1600 960 -1127 1274 -422 
C 1594 289 1683 981 1683 1596 
z
" transform="scale(0.015625)"/>
      </defs>
      <use xlink:href="#CMSY10-3c" transform="scale(0.996264)"/>
      <use xlink:href="#CMR17-28" transform="translate(71.95259 0) scale(0.996264)"/>
      <use xlink:href="#CMMI12-78" transform="translate(107.233358 0) scale(0.996264)"/>
      <use xlink:href="#CMR17-28" transform="translate(162.667417 0) scale(0.996264)"/>
      <use xlink:href="#CMMI12-74" transform="translate(197.948185 0) scale(0.996264)"/>
      <use xlink:href="#CMR17-29" transform="translate(233.174515 0) scale(0.996264)"/>
      <use xlink:href="#CMR17-29" transform="translate(268.455283 0) scale(0.996264)"/>
     </g>
    </g>
    <g id="line2d_32">
     <path d="M 259.222205 88.785046 
L 269.222205 88.785046 
L 279.222205 88.785046 
" style="fill: none; stroke: #ff7f0e; stroke-linecap: square"/>
    </g>
    <g id="text_17">
     <!-- $\mathrm{Im}(x(t))$ -->
     <g transform="translate(287.222205 92.285046) scale(0.1 -0.1)">
      <defs>
       <path id="CMR17-49" d="M 1261 3898 
C 1261 4185 1338 4185 1798 4185 
L 1798 4352 
C 1594 4339 1267 4339 1050 4339 
C 832 4339 506 4339 301 4352 
L 301 4185 
C 762 4185 838 4185 838 3898 
L 838 453 
C 838 166 762 166 301 166 
L 301 0 
C 506 12 832 12 1050 12 
C 1267 12 1594 12 1798 0 
L 1798 166 
C 1338 166 1261 166 1261 453 
L 1261 3898 
z
" transform="scale(0.015625)"/>
       <path id="CMR17-6d" d="M 4326 1954 
C 4326 2276 4269 2816 3507 2816 
C 3072 2816 2771 2520 2656 2173 
L 2650 2173 
C 2573 2700 2195 2816 1837 2816 
C 1331 2816 1069 2424 973 2166 
L 966 2166 
L 966 2816 
L 211 2745 
L 211 2578 
C 589 2578 646 2540 646 2231 
L 646 443 
C 646 198 621 166 211 166 
L 211 0 
C 365 12 646 12 813 12 
C 979 12 1267 12 1421 0 
L 1421 166 
C 1011 166 986 192 986 443 
L 986 1678 
C 986 2269 1344 2713 1792 2713 
C 2266 2713 2317 2289 2317 1980 
L 2317 443 
C 2317 198 2291 166 1882 166 
L 1882 0 
C 2035 12 2317 12 2483 12 
C 2650 12 2938 12 3091 0 
L 3091 166 
C 2682 166 2656 192 2656 443 
L 2656 1678 
C 2656 2269 3014 2713 3462 2713 
C 3936 2713 3987 2289 3987 1980 
L 3987 443 
C 3987 198 3962 166 3552 166 
L 3552 0 
C 3706 12 3987 12 4154 12 
C 4320 12 4608 12 4762 0 
L 4762 166 
C 4352 166 4326 192 4326 443 
L 4326 1954 
z
" transform="scale(0.015625)"/>
      </defs>
      <use xlink:href="#CMR17-49" transform="scale(0.996264)"/>
      <use xlink:href="#CMR17-6d" transform="translate(32.638409 0) scale(0.996264)"/>
      <use xlink:href="#CMR17-28" transform="translate(109.557999 0) scale(0.996264)"/>
      <use xlink:href="#CMMI12-78" transform="translate(144.838767 0) scale(0.996264)"/>
      <use xlink:href="#CMR17-28" transform="translate(200.272826 0) scale(0.996264)"/>
      <use xlink:href="#CMMI12-74" transform="translate(235.553594 0) scale(0.996264)"/>
      <use xlink:href="#CMR17-29" transform="translate(270.779924 0) scale(0.996264)"/>
      <use xlink:href="#CMR17-29" transform="translate(306.060692 0) scale(0.996264)"/>
     </g>
    </g>
   </g>
  </g>
 </g>
 <defs>
  <clipPath id="pf5e341f593">
   <rect x="38.278823" y="10.8" width="294.632261" height="143.026131"/>
  </clipPath>
 </defs>
</svg>
