<?xml version="1.0" encoding="utf-8" standalone="no"?>
<!DOCTYPE svg PUBLIC "-//W3C//DTD SVG 1.1//EN"
  "http://www.w3.org/Graphics/SVG/1.1/DTD/svg11.dtd">
<!-- Created with matplotlib (https://matplotlib.org/) -->
<svg height="345.6pt" version="1.1" viewBox="0 0 460.8 345.6" width="460.8pt" xmlns="http://www.w3.org/2000/svg" xmlns:xlink="http://www.w3.org/1999/xlink">
 <defs>
  <style type="text/css">
*{stroke-linecap:butt;stroke-linejoin:round;}
  </style>
 </defs>
 <g id="figure_1">
  <g id="patch_1">
   <path d="M 0 345.6 
L 460.8 345.6 
L 460.8 0 
L 0 0 
z
" style="fill:#ffffff;"/>
  </g>
  <g id="axes_1">
   <g id="patch_2">
    <path d="M 60.91227 261.805794 
L 450 261.805794 
L 450 10.811376 
L 60.91227 10.811376 
z
" style="fill:#ffffff;"/>
   </g>
   <g id="matplotlib.axis_1">
    <g id="xtick_1">
     <g id="line2d_1">
      <path clip-path="url(#p8740f3d891)" d="M 78.598076 261.805794 
L 78.598076 10.811376 
" style="fill:none;stroke:#b0b0b0;stroke-linecap:square;stroke-width:0.8;"/>
     </g>
     <g id="line2d_2">
      <defs>
       <path d="M 0 0 
L 0 3.5 
" id="m2af7214be9" style="stroke:#000000;stroke-width:0.8;"/>
      </defs>
      <g>
       <use style="stroke:#000000;stroke-width:0.8;" x="78.598076" xlink:href="#m2af7214be9" y="261.805794"/>
      </g>
     </g>
     <g id="text_1">
      <!-- $0.0$ -->
      <defs>
       <path d="M 42 31.84375 
C 42 37.96875 41.90625 48.421875 37.703125 56.453125 
C 34 63.484375 28.09375 66 22.90625 66 
C 18.09375 66 12 63.78125 8.203125 56.5625 
C 4.203125 49.015625 3.796875 39.671875 3.796875 31.84375 
C 3.796875 26.109375 3.90625 17.375 7 9.734375 
C 11.296875 -0.609375 19 -2 22.90625 -2 
C 27.5 -2 34.5 -0.109375 38.59375 9.4375 
C 41.59375 16.375 42 24.5 42 31.84375 
z
M 22.90625 -0.40625 
C 16.5 -0.40625 12.703125 5.125 11.296875 12.75 
C 10.203125 18.6875 10.203125 27.328125 10.203125 32.953125 
C 10.203125 40.6875 10.203125 47.109375 11.5 53.234375 
C 13.40625 61.78125 19 64.390625 22.90625 64.390625 
C 27 64.390625 32.296875 61.671875 34.203125 53.4375 
C 35.5 47.71875 35.59375 40.984375 35.59375 32.953125 
C 35.59375 26.421875 35.59375 18.375 34.40625 12.453125 
C 32.296875 1.5 26.40625 -0.40625 22.90625 -0.40625 
z
" id="CMR17-48"/>
       <path d="M 18.40625 4.796875 
C 18.40625 7.6875 16 9.6875 13.59375 9.6875 
C 10.703125 9.6875 8.703125 7.296875 8.703125 4.890625 
C 8.703125 2 11.09375 0 13.5 0 
C 16.40625 0 18.40625 2.390625 18.40625 4.796875 
z
" id="CMMI12-58"/>
      </defs>
      <g transform="translate(57.864403 293.020546)scale(0.35 -0.35)">
       <use transform="scale(0.996264)" xlink:href="#CMR17-48"/>
       <use transform="translate(45.690477 0)scale(0.996264)" xlink:href="#CMMI12-58"/>
       <use transform="translate(72.787654 0)scale(0.996264)" xlink:href="#CMR17-48"/>
      </g>
     </g>
    </g>
    <g id="xtick_2">
     <g id="line2d_3">
      <path clip-path="url(#p8740f3d891)" d="M 219.337248 261.805794 
L 219.337248 10.811376 
" style="fill:none;stroke:#b0b0b0;stroke-linecap:square;stroke-width:0.8;"/>
     </g>
     <g id="line2d_4">
      <g>
       <use style="stroke:#000000;stroke-width:0.8;" x="219.337248" xlink:href="#m2af7214be9" y="261.805794"/>
      </g>
     </g>
     <g id="text_2">
      <!-- $2.5$ -->
      <defs>
       <path d="M 41.703125 15.46875 
L 39.90625 15.46875 
C 38.90625 8.390625 38.09375 7.1875 37.703125 6.59375 
C 37.203125 5.796875 30 5.796875 28.59375 5.796875 
L 9.40625 5.796875 
C 13 9.6875 20 16.765625 28.5 24.9375 
C 34.59375 30.71875 41.703125 37.5 41.703125 47.390625 
C 41.703125 59.1875 32.296875 66 21.796875 66 
C 10.796875 66 4.09375 56.296875 4.09375 47.296875 
C 4.09375 43.390625 7 42.890625 8.203125 42.890625 
C 9.203125 42.890625 12.203125 43.484375 12.203125 46.984375 
C 12.203125 50.09375 9.59375 51 8.203125 51 
C 7.59375 51 7 50.890625 6.59375 50.6875 
C 8.5 59.1875 14.296875 63.390625 20.40625 63.390625 
C 29.09375 63.390625 34.796875 56.5 34.796875 47.390625 
C 34.796875 38.703125 29.703125 31.21875 24 24.734375 
L 4.09375 2.296875 
L 4.09375 0 
L 39.296875 0 
z
" id="CMR17-50"/>
       <path d="M 11.40625 58.59375 
C 12.40625 58.1875 16.5 56.890625 20.703125 56.890625 
C 30 56.890625 35.09375 61.890625 38 64.6875 
C 38 65.484375 38 66 37.40625 66 
C 37.296875 66 37.09375 66 36.296875 65.59375 
C 32.796875 64.09375 28.703125 63 23.703125 63 
C 20.703125 63 16.203125 63.359375 11.296875 65.484375 
C 10.203125 66 10 66 9.90625 66 
C 9.40625 66 9.296875 65.890625 9.296875 63.90625 
L 9.296875 34.859375 
C 9.296875 33.015625 9.296875 32.5 10.296875 32.5 
C 10.796875 32.5 11 32.703125 11.5 33.421875 
C 14.703125 38.046875 19.09375 40 24.09375 40 
C 27.59375 40 35.09375 37.734375 35.09375 20.203125 
C 35.09375 16.984375 35.09375 11.1875 32.09375 6.59375 
C 29.59375 2.484375 25.703125 0.390625 21.40625 0.390625 
C 14.796875 0.390625 8.09375 4.984375 6.296875 12.6875 
C 6.703125 12.59375 7.5 12.390625 7.90625 12.390625 
C 9.203125 12.390625 11.703125 13.09375 11.703125 16.1875 
C 11.703125 18.890625 9.796875 20 7.90625 20 
C 5.59375 20 4.09375 18.59375 4.09375 15.796875 
C 4.09375 7.09375 11 -2 21.59375 -2 
C 31.90625 -2 41.703125 6.890625 41.703125 19.796875 
C 41.703125 32.09375 33.90625 41.59375 24.203125 41.59375 
C 19.09375 41.59375 14.796875 39.6875 11.40625 36 
z
" id="CMR17-53"/>
      </defs>
      <g transform="translate(198.603575 293.020546)scale(0.35 -0.35)">
       <use transform="scale(0.996264)" xlink:href="#CMR17-50"/>
       <use transform="translate(45.690477 0)scale(0.996264)" xlink:href="#CMMI12-58"/>
       <use transform="translate(72.787654 0)scale(0.996264)" xlink:href="#CMR17-53"/>
      </g>
     </g>
    </g>
    <g id="xtick_3">
     <g id="line2d_5">
      <path clip-path="url(#p8740f3d891)" d="M 360.076419 261.805794 
L 360.076419 10.811376 
" style="fill:none;stroke:#b0b0b0;stroke-linecap:square;stroke-width:0.8;"/>
     </g>
     <g id="line2d_6">
      <g>
       <use style="stroke:#000000;stroke-width:0.8;" x="360.076419" xlink:href="#m2af7214be9" y="261.805794"/>
      </g>
     </g>
     <g id="text_3">
      <!-- $5.0$ -->
      <g transform="translate(339.342746 293.020546)scale(0.35 -0.35)">
       <use transform="scale(0.996264)" xlink:href="#CMR17-53"/>
       <use transform="translate(45.690477 0)scale(0.996264)" xlink:href="#CMMI12-58"/>
       <use transform="translate(72.787654 0)scale(0.996264)" xlink:href="#CMR17-48"/>
      </g>
     </g>
    </g>
    <g id="text_4">
     <!-- $t$ -->
     <defs>
      <path d="M 20.09375 40.09375 
L 29.296875 40.09375 
C 31.203125 40.09375 32.203125 40.09375 32.203125 41.890625 
C 32.203125 43 31.59375 43 29.59375 43 
L 20.796875 43 
L 24.5 57.25 
C 24.90625 58.625 24.90625 58.8125 24.90625 59.5 
C 24.90625 61.09375 23.59375 62 22.296875 62 
C 21.5 62 19.203125 61.6875 18.40625 58.53125 
L 14.5 43 
L 5.09375 43 
C 3.09375 43 2.203125 43 2.203125 41.09375 
C 2.203125 40.09375 2.90625 40.09375 4.796875 40.09375 
L 13.703125 40.09375 
L 7.09375 13.765625 
C 6.296875 10.265625 6 9.265625 6 7.96875 
C 6 3.28125 9.296875 -1 14.90625 -1 
C 25 -1 30.40625 13.5625 30.40625 14.265625 
C 30.40625 14.859375 30 15.15625 29.40625 15.15625 
C 29.203125 15.15625 28.796875 15.15625 28.59375 14.75 
C 28.5 14.65625 28.40625 14.5625 27.703125 12.96875 
C 25.59375 7.96875 21 1 15.203125 1 
C 12.203125 1 12 3.484375 12 5.6875 
C 12 5.78125 12 7.671875 12.296875 8.875 
z
" id="CMMI12-116"/>
     </defs>
     <g transform="translate(249.291531 328.017649)scale(0.35 -0.35)">
      <use transform="scale(0.996264)" xlink:href="#CMMI12-116"/>
     </g>
    </g>
   </g>
   <g id="matplotlib.axis_2">
    <g id="ytick_1">
     <g id="line2d_7">
      <path clip-path="url(#p8740f3d891)" d="M 60.91227 250.787293 
L 450 250.787293 
" style="fill:none;stroke:#b0b0b0;stroke-linecap:square;stroke-width:0.8;"/>
     </g>
     <g id="line2d_8">
      <defs>
       <path d="M 0 0 
L -3.5 0 
" id="md45805135b" style="stroke:#000000;stroke-width:0.8;"/>
      </defs>
      <g>
       <use style="stroke:#000000;stroke-width:0.8;" x="60.91227" xlink:href="#md45805135b" y="250.787293"/>
      </g>
     </g>
     <g id="text_5">
      <!-- $-1$ -->
      <defs>
       <path d="M 65.90625 23 
C 67.59375 23 69.40625 23 69.40625 25 
C 69.40625 27 67.59375 27 65.90625 27 
L 11.796875 27 
C 10.09375 27 8.296875 27 8.296875 25 
C 8.296875 23 10.09375 23 11.796875 23 
z
" id="CMSY10-0"/>
       <path d="M 26.59375 63.796875 
C 26.59375 65.890625 26.5 66 25.09375 66 
C 21.203125 61.359375 15.296875 59.890625 9.703125 59.6875 
C 9.40625 59.6875 8.90625 59.6875 8.796875 59.5 
C 8.703125 59.296875 8.703125 59.09375 8.703125 57 
C 11.796875 57 17 57.59375 21 59.984375 
L 21 7.296875 
C 21 3.796875 20.796875 2.59375 12.203125 2.59375 
L 9.203125 2.59375 
L 9.203125 0 
C 14 0.09375 19 0.1875 23.796875 0.1875 
C 28.59375 0.1875 33.59375 0.09375 38.40625 0 
L 38.40625 2.59375 
L 35.40625 2.59375 
C 26.796875 2.59375 26.59375 3.6875 26.59375 7.296875 
z
" id="CMR17-49"/>
      </defs>
      <g transform="translate(10.8 262.894669)scale(0.35 -0.35)">
       <use transform="scale(0.996264)" xlink:href="#CMSY10-0"/>
       <use transform="translate(77.487468 0)scale(0.996264)" xlink:href="#CMR17-49"/>
      </g>
     </g>
    </g>
    <g id="ytick_2">
     <g id="line2d_9">
      <path clip-path="url(#p8740f3d891)" d="M 60.91227 136.503753 
L 450 136.503753 
" style="fill:none;stroke:#b0b0b0;stroke-linecap:square;stroke-width:0.8;"/>
     </g>
     <g id="line2d_10">
      <g>
       <use style="stroke:#000000;stroke-width:0.8;" x="60.91227" xlink:href="#md45805135b" y="136.503753"/>
      </g>
     </g>
     <g id="text_6">
      <!-- $0$ -->
      <g transform="translate(37.920603 148.611129)scale(0.35 -0.35)">
       <use transform="scale(0.996264)" xlink:href="#CMR17-48"/>
      </g>
     </g>
    </g>
    <g id="ytick_3">
     <g id="line2d_11">
      <path clip-path="url(#p8740f3d891)" d="M 60.91227 22.220213 
L 450 22.220213 
" style="fill:none;stroke:#b0b0b0;stroke-linecap:square;stroke-width:0.8;"/>
     </g>
     <g id="line2d_12">
      <g>
       <use style="stroke:#000000;stroke-width:0.8;" x="60.91227" xlink:href="#md45805135b" y="22.220213"/>
      </g>
     </g>
     <g id="text_7">
      <!-- $1$ -->
      <g transform="translate(37.920603 34.327589)scale(0.35 -0.35)">
       <use transform="scale(0.996264)" xlink:href="#CMR17-49"/>
      </g>
     </g>
    </g>
   </g>
   <g id="line2d_13">
    <path clip-path="url(#p8740f3d891)" d="M 78.598076 22.220213 
L 97.214714 28.412411 
L 115.831352 46.317982 
L 134.447989 73.996581 
L 153.064627 108.448803 
L 171.681265 145.941213 
L 190.297903 182.410928 
L 208.914541 213.905888 
L 227.531178 237.013126 
L 246.147816 249.228614 
L 264.764454 249.228614 
L 283.381092 237.013126 
L 301.99773 213.905888 
L 320.614367 182.410928 
L 339.231005 145.941213 
L 357.847643 108.448803 
L 376.464281 73.996581 
L 395.080918 46.317982 
L 413.697556 28.412411 
L 432.314194 22.220213 
" style="fill:none;stroke:#000000;stroke-dasharray:5.55,2.4;stroke-dashoffset:0;stroke-width:1.5;"/>
   </g>
   <g id="line2d_14">
    <path clip-path="url(#p8740f3d891)" d="M 78.598076 136.503753 
L 97.214714 99.395948 
L 115.831352 66.30935 
L 134.447989 40.829404 
L 153.064627 25.717259 
L 171.681265 22.610549 
L 190.297903 31.845936 
L 208.914541 52.42262 
L 227.531178 82.1108 
L 246.147816 117.693301 
L 264.764454 155.314205 
L 283.381092 190.896706 
L 301.99773 220.584886 
L 320.614367 241.16157 
L 339.231005 250.396957 
L 357.847643 247.290247 
L 376.464281 232.178101 
L 395.080918 206.698156 
L 413.697556 173.611558 
L 432.314194 136.503753 
" style="fill:none;stroke:#000000;stroke-dasharray:5.55,2.4;stroke-dashoffset:0;stroke-width:1.5;"/>
   </g>
   <g id="line2d_15">
    <path clip-path="url(#p8740f3d891)" d="M 78.598076 22.220213 
L 78.603706 22.220214 
L 78.660001 22.220282 
L 79.222958 22.227254 
L 84.852525 22.924801 
L 102.538331 32.399273 
L 120.224137 52.06422 
L 137.909942 79.994692 
L 155.595748 113.456656 
L 173.281554 149.174615 
L 190.96736 183.652244 
L 208.653166 213.514631 
L 226.338972 235.838638 
L 244.024778 248.439037 
L 261.710584 250.082417 
L 279.39639 240.607919 
L 297.082196 220.942977 
L 314.768002 193.01254 
L 332.453807 159.550639 
L 350.139613 123.832762 
L 367.825419 89.355228 
L 385.511225 59.49294 
L 403.197031 37.169025 
L 420.882837 24.568703 
L 432.314194 22.220731 
" style="fill:none;stroke:#1f77b4;stroke-linecap:square;stroke-width:2;"/>
    <defs>
     <path d="M 0 2.5 
C 0.663008 2.5 1.29895 2.236584 1.767767 1.767767 
C 2.236584 1.29895 2.5 0.663008 2.5 0 
C 2.5 -0.663008 2.236584 -1.29895 1.767767 -1.767767 
C 1.29895 -2.236584 0.663008 -2.5 0 -2.5 
C -0.663008 -2.5 -1.29895 -2.236584 -1.767767 -1.767767 
C -2.236584 -1.29895 -2.5 -0.663008 -2.5 0 
C -2.5 0.663008 -2.236584 1.29895 -1.767767 1.767767 
C -1.29895 2.236584 -0.663008 2.5 0 2.5 
z
" id="m8a0f0582ef" style="stroke:#1f77b4;"/>
    </defs>
    <g clip-path="url(#p8740f3d891)">
     <use style="fill:#1f77b4;stroke:#1f77b4;" x="78.598076" xlink:href="#m8a0f0582ef" y="22.220213"/>
     <use style="fill:#1f77b4;stroke:#1f77b4;" x="78.603706" xlink:href="#m8a0f0582ef" y="22.220214"/>
     <use style="fill:#1f77b4;stroke:#1f77b4;" x="78.660001" xlink:href="#m8a0f0582ef" y="22.220282"/>
     <use style="fill:#1f77b4;stroke:#1f77b4;" x="79.222958" xlink:href="#m8a0f0582ef" y="22.227254"/>
     <use style="fill:#1f77b4;stroke:#1f77b4;" x="84.852525" xlink:href="#m8a0f0582ef" y="22.924801"/>
     <use style="fill:#1f77b4;stroke:#1f77b4;" x="102.538331" xlink:href="#m8a0f0582ef" y="32.399273"/>
     <use style="fill:#1f77b4;stroke:#1f77b4;" x="120.224137" xlink:href="#m8a0f0582ef" y="52.06422"/>
     <use style="fill:#1f77b4;stroke:#1f77b4;" x="137.909942" xlink:href="#m8a0f0582ef" y="79.994692"/>
     <use style="fill:#1f77b4;stroke:#1f77b4;" x="155.595748" xlink:href="#m8a0f0582ef" y="113.456656"/>
     <use style="fill:#1f77b4;stroke:#1f77b4;" x="173.281554" xlink:href="#m8a0f0582ef" y="149.174615"/>
     <use style="fill:#1f77b4;stroke:#1f77b4;" x="190.96736" xlink:href="#m8a0f0582ef" y="183.652244"/>
     <use style="fill:#1f77b4;stroke:#1f77b4;" x="208.653166" xlink:href="#m8a0f0582ef" y="213.514631"/>
     <use style="fill:#1f77b4;stroke:#1f77b4;" x="226.338972" xlink:href="#m8a0f0582ef" y="235.838638"/>
     <use style="fill:#1f77b4;stroke:#1f77b4;" x="244.024778" xlink:href="#m8a0f0582ef" y="248.439037"/>
     <use style="fill:#1f77b4;stroke:#1f77b4;" x="261.710584" xlink:href="#m8a0f0582ef" y="250.082417"/>
     <use style="fill:#1f77b4;stroke:#1f77b4;" x="279.39639" xlink:href="#m8a0f0582ef" y="240.607919"/>
     <use style="fill:#1f77b4;stroke:#1f77b4;" x="297.082196" xlink:href="#m8a0f0582ef" y="220.942977"/>
     <use style="fill:#1f77b4;stroke:#1f77b4;" x="314.768002" xlink:href="#m8a0f0582ef" y="193.01254"/>
     <use style="fill:#1f77b4;stroke:#1f77b4;" x="332.453807" xlink:href="#m8a0f0582ef" y="159.550639"/>
     <use style="fill:#1f77b4;stroke:#1f77b4;" x="350.139613" xlink:href="#m8a0f0582ef" y="123.832762"/>
     <use style="fill:#1f77b4;stroke:#1f77b4;" x="367.825419" xlink:href="#m8a0f0582ef" y="89.355228"/>
     <use style="fill:#1f77b4;stroke:#1f77b4;" x="385.511225" xlink:href="#m8a0f0582ef" y="59.49294"/>
     <use style="fill:#1f77b4;stroke:#1f77b4;" x="403.197031" xlink:href="#m8a0f0582ef" y="37.169025"/>
     <use style="fill:#1f77b4;stroke:#1f77b4;" x="420.882837" xlink:href="#m8a0f0582ef" y="24.568703"/>
     <use style="fill:#1f77b4;stroke:#1f77b4;" x="432.314194" xlink:href="#m8a0f0582ef" y="22.220731"/>
    </g>
   </g>
   <g id="line2d_16">
    <path clip-path="url(#p8740f3d891)" d="M 78.598076 136.503753 
L 78.603706 136.492325 
L 78.660001 136.378041 
L 79.222958 135.235232 
L 84.852525 123.832956 
L 102.538331 89.355279 
L 120.224137 59.492843 
L 137.909942 37.16879 
L 155.595748 24.568352 
L 173.281554 22.924945 
L 190.96736 32.39943 
L 208.653166 52.064374 
L 226.338972 79.994829 
L 244.024778 113.456761 
L 261.710584 149.174679 
L 279.39639 183.652261 
L 297.082196 213.514599 
L 314.768002 235.838559 
L 332.453807 248.43892 
L 350.139613 250.082273 
L 367.825419 240.607762 
L 385.511225 220.942823 
L 403.197031 193.012403 
L 420.882837 159.550533 
L 432.314194 136.503448 
" style="fill:none;stroke:#ff7f0e;stroke-linecap:square;stroke-width:2;"/>
    <defs>
     <path d="M 0 2.5 
C 0.663008 2.5 1.29895 2.236584 1.767767 1.767767 
C 2.236584 1.29895 2.5 0.663008 2.5 0 
C 2.5 -0.663008 2.236584 -1.29895 1.767767 -1.767767 
C 1.29895 -2.236584 0.663008 -2.5 0 -2.5 
C -0.663008 -2.5 -1.29895 -2.236584 -1.767767 -1.767767 
C -2.236584 -1.29895 -2.5 -0.663008 -2.5 0 
C -2.5 0.663008 -2.236584 1.29895 -1.767767 1.767767 
C -1.29895 2.236584 -0.663008 2.5 0 2.5 
z
" id="m6289880612" style="stroke:#ff7f0e;"/>
    </defs>
    <g clip-path="url(#p8740f3d891)">
     <use style="fill:#ff7f0e;stroke:#ff7f0e;" x="78.598076" xlink:href="#m6289880612" y="136.503753"/>
     <use style="fill:#ff7f0e;stroke:#ff7f0e;" x="78.603706" xlink:href="#m6289880612" y="136.492325"/>
     <use style="fill:#ff7f0e;stroke:#ff7f0e;" x="78.660001" xlink:href="#m6289880612" y="136.378041"/>
     <use style="fill:#ff7f0e;stroke:#ff7f0e;" x="79.222958" xlink:href="#m6289880612" y="135.235232"/>
     <use style="fill:#ff7f0e;stroke:#ff7f0e;" x="84.852525" xlink:href="#m6289880612" y="123.832956"/>
     <use style="fill:#ff7f0e;stroke:#ff7f0e;" x="102.538331" xlink:href="#m6289880612" y="89.355279"/>
     <use style="fill:#ff7f0e;stroke:#ff7f0e;" x="120.224137" xlink:href="#m6289880612" y="59.492843"/>
     <use style="fill:#ff7f0e;stroke:#ff7f0e;" x="137.909942" xlink:href="#m6289880612" y="37.16879"/>
     <use style="fill:#ff7f0e;stroke:#ff7f0e;" x="155.595748" xlink:href="#m6289880612" y="24.568352"/>
     <use style="fill:#ff7f0e;stroke:#ff7f0e;" x="173.281554" xlink:href="#m6289880612" y="22.924945"/>
     <use style="fill:#ff7f0e;stroke:#ff7f0e;" x="190.96736" xlink:href="#m6289880612" y="32.39943"/>
     <use style="fill:#ff7f0e;stroke:#ff7f0e;" x="208.653166" xlink:href="#m6289880612" y="52.064374"/>
     <use style="fill:#ff7f0e;stroke:#ff7f0e;" x="226.338972" xlink:href="#m6289880612" y="79.994829"/>
     <use style="fill:#ff7f0e;stroke:#ff7f0e;" x="244.024778" xlink:href="#m6289880612" y="113.456761"/>
     <use style="fill:#ff7f0e;stroke:#ff7f0e;" x="261.710584" xlink:href="#m6289880612" y="149.174679"/>
     <use style="fill:#ff7f0e;stroke:#ff7f0e;" x="279.39639" xlink:href="#m6289880612" y="183.652261"/>
     <use style="fill:#ff7f0e;stroke:#ff7f0e;" x="297.082196" xlink:href="#m6289880612" y="213.514599"/>
     <use style="fill:#ff7f0e;stroke:#ff7f0e;" x="314.768002" xlink:href="#m6289880612" y="235.838559"/>
     <use style="fill:#ff7f0e;stroke:#ff7f0e;" x="332.453807" xlink:href="#m6289880612" y="248.43892"/>
     <use style="fill:#ff7f0e;stroke:#ff7f0e;" x="350.139613" xlink:href="#m6289880612" y="250.082273"/>
     <use style="fill:#ff7f0e;stroke:#ff7f0e;" x="367.825419" xlink:href="#m6289880612" y="240.607762"/>
     <use style="fill:#ff7f0e;stroke:#ff7f0e;" x="385.511225" xlink:href="#m6289880612" y="220.942823"/>
     <use style="fill:#ff7f0e;stroke:#ff7f0e;" x="403.197031" xlink:href="#m6289880612" y="193.012403"/>
     <use style="fill:#ff7f0e;stroke:#ff7f0e;" x="420.882837" xlink:href="#m6289880612" y="159.550533"/>
     <use style="fill:#ff7f0e;stroke:#ff7f0e;" x="432.314194" xlink:href="#m6289880612" y="136.503448"/>
    </g>
   </g>
   <g id="patch_3">
    <path d="M 60.91227 261.805794 
L 60.91227 10.811376 
" style="fill:none;stroke:#000000;stroke-linecap:square;stroke-linejoin:miter;stroke-width:0.8;"/>
   </g>
   <g id="patch_4">
    <path d="M 450 261.805794 
L 450 10.811376 
" style="fill:none;stroke:#000000;stroke-linecap:square;stroke-linejoin:miter;stroke-width:0.8;"/>
   </g>
   <g id="patch_5">
    <path d="M 60.91227 261.805794 
L 450 261.805794 
" style="fill:none;stroke:#000000;stroke-linecap:square;stroke-linejoin:miter;stroke-width:0.8;"/>
   </g>
   <g id="patch_6">
    <path d="M 60.91227 10.811376 
L 450 10.811376 
" style="fill:none;stroke:#000000;stroke-linecap:square;stroke-linejoin:miter;stroke-width:0.8;"/>
   </g>
   <g id="legend_1">
    <g id="patch_7">
     <path d="M 165.3962 143.428729 
L 345.51607 143.428729 
Q 352.51607 143.428729 352.51607 136.428729 
L 352.51607 35.311376 
Q 352.51607 28.311376 345.51607 28.311376 
L 165.3962 28.311376 
Q 158.3962 28.311376 158.3962 35.311376 
L 158.3962 136.428729 
Q 158.3962 143.428729 165.3962 143.428729 
z
" style="fill:#ffffff;opacity:0.8;stroke:#cccccc;stroke-linejoin:miter;"/>
    </g>
    <g id="line2d_17">
     <path d="M 172.3962 58.087701 
L 242.3962 58.087701 
" style="fill:none;stroke:#1f77b4;stroke-linecap:square;stroke-width:2;"/>
    </g>
    <g id="line2d_18">
     <g>
      <use style="fill:#1f77b4;stroke:#1f77b4;" x="207.3962" xlink:href="#m8a0f0582ef" y="58.087701"/>
     </g>
    </g>
    <g id="text_8">
     <!-- $x_1(t)$ -->
     <defs>
      <path d="M 47.40625 41 
C 44.203125 40.390625 43 37.984375 43 36.09375 
C 43 33.6875 44.90625 32.890625 46.296875 32.890625 
C 49.296875 32.890625 51.40625 35.484375 51.40625 38.1875 
C 51.40625 42.09375 46.59375 44 42.40625 44 
C 36.296875 44 32.90625 38.296875 32 36.390625 
C 29.703125 43.59375 23.5 44 21.703125 44 
C 11.5 44 6.09375 31.140625 6.09375 28.890625 
C 6.09375 28.484375 6.5 27.96875 7.203125 27.96875 
C 8 27.96875 8.203125 28.578125 8.40625 28.984375 
C 11.796875 40.1875 18.5 41.984375 21.40625 41.984375 
C 25.90625 41.984375 26.796875 38.09375 26.796875 35.6875 
C 26.796875 33.484375 26.203125 31.140625 25 26.21875 
L 21.59375 12.15625 
C 20.09375 6.09375 17.203125 1 11.90625 1 
C 11.40625 1 8.90625 1 6.796875 1.96875 
C 10.40625 2.59375 11.203125 5.59375 11.203125 6.796875 
C 11.203125 8.796875 9.703125 10 7.796875 10 
C 5.40625 10 2.796875 7.890625 2.796875 4.6875 
C 2.796875 0.890625 7.5 -1 11.796875 -1 
C 16.59375 -1 20 2.390625 22.09375 6.484375 
C 23.703125 1 28.703125 -1 32.40625 -1 
C 42.59375 -1 48 11.734375 48 14 
C 48 14.515625 47.59375 14.921875 47 14.921875 
C 46.09375 14.921875 46 14.40625 45.703125 13.59375 
C 43 4.6875 37.203125 1 32.703125 1 
C 29.203125 1 27.296875 3.1875 27.296875 7.296875 
C 27.296875 9.484375 27.703125 11.125 29.296875 17.90625 
L 32.796875 31.859375 
C 34.296875 37.890625 37.703125 41.984375 42.296875 41.984375 
C 42.5 41.984375 45.296875 41.984375 47.40625 41 
z
" id="CMMI12-120"/>
      <path d="M 30.59375 -24.40625 
C 30.59375 -24.3125 30.59375 -24.109375 30.296875 -23.8125 
C 25.703125 -19.109375 13.40625 -6.296875 13.40625 24.9375 
C 13.40625 56.171875 25.5 68.875 30.40625 73.890625 
C 30.40625 73.984375 30.59375 74.1875 30.59375 74.484375 
C 30.59375 74.796875 30.296875 75 29.90625 75 
C 28.796875 75 20.296875 67.578125 15.40625 56.5625 
C 10.40625 45.453125 9 34.65625 9 25.046875 
C 9 17.828125 9.703125 5.625 15.703125 -7.296875 
C 20.5 -17.703125 28.703125 -25 29.90625 -25 
C 30.40625 -25 30.59375 -24.8125 30.59375 -24.40625 
z
" id="CMR17-40"/>
      <path d="M 26.296875 24.9375 
C 26.296875 32.140625 25.59375 44.359375 19.59375 57.265625 
C 14.796875 67.6875 6.59375 75 5.40625 75 
C 5.09375 75 4.703125 74.890625 4.703125 74.390625 
C 4.703125 74.1875 4.796875 74.09375 4.90625 73.890625 
C 9.703125 68.875 21.90625 56.171875 21.90625 25.046875 
C 21.90625 -6.1875 9.796875 -18.90625 4.90625 -23.90625 
C 4.796875 -24.109375 4.703125 -24.203125 4.703125 -24.40625 
C 4.703125 -24.90625 5.09375 -25 5.40625 -25 
C 6.5 -25 15 -17.609375 19.90625 -6.59375 
C 24.90625 4.515625 26.296875 15.328125 26.296875 24.9375 
z
" id="CMR17-41"/>
     </defs>
     <g transform="translate(270.3962 70.337701)scale(0.35 -0.35)">
      <use transform="translate(0 14.943915)scale(0.996264)" xlink:href="#CMMI12-120"/>
      <use transform="translate(55.43406 0)scale(0.697382)" xlink:href="#CMR17-49"/>
      <use transform="translate(87.915374 14.943915)scale(0.996264)" xlink:href="#CMR17-40"/>
      <use transform="translate(123.196141 14.943915)scale(0.996264)" xlink:href="#CMMI12-116"/>
      <use transform="translate(158.422472 14.943915)scale(0.996264)" xlink:href="#CMR17-41"/>
     </g>
    </g>
    <g id="line2d_19">
     <path d="M 172.3962 110.396378 
L 242.3962 110.396378 
" style="fill:none;stroke:#ff7f0e;stroke-linecap:square;stroke-width:2;"/>
    </g>
    <g id="line2d_20">
     <g>
      <use style="fill:#ff7f0e;stroke:#ff7f0e;" x="207.3962" xlink:href="#m6289880612" y="110.396378"/>
     </g>
    </g>
    <g id="text_9">
     <!-- $x_2(t)$ -->
     <g transform="translate(270.3962 122.646378)scale(0.35 -0.35)">
      <use transform="translate(0 14.943915)scale(0.996264)" xlink:href="#CMMI12-120"/>
      <use transform="translate(55.43406 0)scale(0.697382)" xlink:href="#CMR17-50"/>
      <use transform="translate(87.915374 14.943915)scale(0.996264)" xlink:href="#CMR17-40"/>
      <use transform="translate(123.196141 14.943915)scale(0.996264)" xlink:href="#CMMI12-116"/>
      <use transform="translate(158.422472 14.943915)scale(0.996264)" xlink:href="#CMR17-41"/>
     </g>
    </g>
   </g>
  </g>
 </g>
 <defs>
  <clipPath id="p8740f3d891">
   <rect height="250.994418" width="389.08773" x="60.91227" y="10.811376"/>
  </clipPath>
 </defs>
</svg>
