<?xml version="1.0" encoding="utf-8" standalone="no"?>
<!DOCTYPE svg PUBLIC "-//W3C//DTD SVG 1.1//EN"
  "http://www.w3.org/Graphics/SVG/1.1/DTD/svg11.dtd">
<!-- Created with matplotlib (https://matplotlib.org/) -->
<svg height="345.6pt" version="1.1" viewBox="0 0 460.8 345.6" width="460.8pt" xmlns="http://www.w3.org/2000/svg" xmlns:xlink="http://www.w3.org/1999/xlink">
 <defs>
  <style type="text/css">
*{stroke-linecap:butt;stroke-linejoin:round;}
  </style>
 </defs>
 <g id="figure_1">
  <g id="patch_1">
   <path d="M 0 345.6 
L 460.8 345.6 
L 460.8 0 
L 0 0 
z
" style="fill:#ffffff;"/>
  </g>
  <g id="axes_1">
   <g id="patch_2">
    <path d="M 60.91227 256.12 
L 447.48 256.12 
L 447.48 13.32 
L 60.91227 13.32 
z
" style="fill:#ffffff;"/>
   </g>
   <g id="matplotlib.axis_1">
    <g id="xtick_1">
     <g id="line2d_1">
      <path clip-path="url(#p25716448d0)" d="M 78.48353 256.12 
L 78.48353 13.32 
" style="fill:none;stroke:#b0b0b0;stroke-linecap:square;stroke-width:0.8;"/>
     </g>
     <g id="line2d_2">
      <defs>
       <path d="M 0 0 
L 0 3.5 
" id="mc47adf94e4" style="stroke:#000000;stroke-width:0.8;"/>
      </defs>
      <g>
       <use style="stroke:#000000;stroke-width:0.8;" x="78.48353" xlink:href="#mc47adf94e4" y="256.12"/>
      </g>
     </g>
     <g id="text_1">
      <!-- $0.0$ -->
      <defs>
       <path d="M 42 31.84375 
C 42 37.96875 41.90625 48.421875 37.703125 56.453125 
C 34 63.484375 28.09375 66 22.90625 66 
C 18.09375 66 12 63.78125 8.203125 56.5625 
C 4.203125 49.015625 3.796875 39.671875 3.796875 31.84375 
C 3.796875 26.109375 3.90625 17.375 7 9.734375 
C 11.296875 -0.609375 19 -2 22.90625 -2 
C 27.5 -2 34.5 -0.109375 38.59375 9.4375 
C 41.59375 16.375 42 24.5 42 31.84375 
z
M 22.90625 -0.40625 
C 16.5 -0.40625 12.703125 5.125 11.296875 12.75 
C 10.203125 18.6875 10.203125 27.328125 10.203125 32.953125 
C 10.203125 40.6875 10.203125 47.109375 11.5 53.234375 
C 13.40625 61.78125 19 64.390625 22.90625 64.390625 
C 27 64.390625 32.296875 61.671875 34.203125 53.4375 
C 35.5 47.71875 35.59375 40.984375 35.59375 32.953125 
C 35.59375 26.421875 35.59375 18.375 34.40625 12.453125 
C 32.296875 1.5 26.40625 -0.40625 22.90625 -0.40625 
z
" id="CMR17-48"/>
       <path d="M 18.40625 4.796875 
C 18.40625 7.6875 16 9.6875 13.59375 9.6875 
C 10.703125 9.6875 8.703125 7.296875 8.703125 4.890625 
C 8.703125 2 11.09375 0 13.5 0 
C 16.40625 0 18.40625 2.390625 18.40625 4.796875 
z
" id="CMMI12-58"/>
      </defs>
      <g transform="translate(57.749857 287.334752)scale(0.35 -0.35)">
       <use transform="scale(0.996264)" xlink:href="#CMR17-48"/>
       <use transform="translate(45.690477 0)scale(0.996264)" xlink:href="#CMMI12-58"/>
       <use transform="translate(72.787654 0)scale(0.996264)" xlink:href="#CMR17-48"/>
      </g>
     </g>
    </g>
    <g id="xtick_2">
     <g id="line2d_3">
      <path clip-path="url(#p25716448d0)" d="M 218.311178 256.12 
L 218.311178 13.32 
" style="fill:none;stroke:#b0b0b0;stroke-linecap:square;stroke-width:0.8;"/>
     </g>
     <g id="line2d_4">
      <g>
       <use style="stroke:#000000;stroke-width:0.8;" x="218.311178" xlink:href="#mc47adf94e4" y="256.12"/>
      </g>
     </g>
     <g id="text_2">
      <!-- $2.5$ -->
      <defs>
       <path d="M 41.703125 15.46875 
L 39.90625 15.46875 
C 38.90625 8.390625 38.09375 7.1875 37.703125 6.59375 
C 37.203125 5.796875 30 5.796875 28.59375 5.796875 
L 9.40625 5.796875 
C 13 9.6875 20 16.765625 28.5 24.9375 
C 34.59375 30.71875 41.703125 37.5 41.703125 47.390625 
C 41.703125 59.1875 32.296875 66 21.796875 66 
C 10.796875 66 4.09375 56.296875 4.09375 47.296875 
C 4.09375 43.390625 7 42.890625 8.203125 42.890625 
C 9.203125 42.890625 12.203125 43.484375 12.203125 46.984375 
C 12.203125 50.09375 9.59375 51 8.203125 51 
C 7.59375 51 7 50.890625 6.59375 50.6875 
C 8.5 59.1875 14.296875 63.390625 20.40625 63.390625 
C 29.09375 63.390625 34.796875 56.5 34.796875 47.390625 
C 34.796875 38.703125 29.703125 31.21875 24 24.734375 
L 4.09375 2.296875 
L 4.09375 0 
L 39.296875 0 
z
" id="CMR17-50"/>
       <path d="M 11.40625 58.59375 
C 12.40625 58.1875 16.5 56.890625 20.703125 56.890625 
C 30 56.890625 35.09375 61.890625 38 64.6875 
C 38 65.484375 38 66 37.40625 66 
C 37.296875 66 37.09375 66 36.296875 65.59375 
C 32.796875 64.09375 28.703125 63 23.703125 63 
C 20.703125 63 16.203125 63.359375 11.296875 65.484375 
C 10.203125 66 10 66 9.90625 66 
C 9.40625 66 9.296875 65.890625 9.296875 63.90625 
L 9.296875 34.859375 
C 9.296875 33.015625 9.296875 32.5 10.296875 32.5 
C 10.796875 32.5 11 32.703125 11.5 33.421875 
C 14.703125 38.046875 19.09375 40 24.09375 40 
C 27.59375 40 35.09375 37.734375 35.09375 20.203125 
C 35.09375 16.984375 35.09375 11.1875 32.09375 6.59375 
C 29.59375 2.484375 25.703125 0.390625 21.40625 0.390625 
C 14.796875 0.390625 8.09375 4.984375 6.296875 12.6875 
C 6.703125 12.59375 7.5 12.390625 7.90625 12.390625 
C 9.203125 12.390625 11.703125 13.09375 11.703125 16.1875 
C 11.703125 18.890625 9.796875 20 7.90625 20 
C 5.59375 20 4.09375 18.59375 4.09375 15.796875 
C 4.09375 7.09375 11 -2 21.59375 -2 
C 31.90625 -2 41.703125 6.890625 41.703125 19.796875 
C 41.703125 32.09375 33.90625 41.59375 24.203125 41.59375 
C 19.09375 41.59375 14.796875 39.6875 11.40625 36 
z
" id="CMR17-53"/>
      </defs>
      <g transform="translate(197.577505 287.334752)scale(0.35 -0.35)">
       <use transform="scale(0.996264)" xlink:href="#CMR17-50"/>
       <use transform="translate(45.690477 0)scale(0.996264)" xlink:href="#CMMI12-58"/>
       <use transform="translate(72.787654 0)scale(0.996264)" xlink:href="#CMR17-53"/>
      </g>
     </g>
    </g>
    <g id="xtick_3">
     <g id="line2d_5">
      <path clip-path="url(#p25716448d0)" d="M 358.138826 256.12 
L 358.138826 13.32 
" style="fill:none;stroke:#b0b0b0;stroke-linecap:square;stroke-width:0.8;"/>
     </g>
     <g id="line2d_6">
      <g>
       <use style="stroke:#000000;stroke-width:0.8;" x="358.138826" xlink:href="#mc47adf94e4" y="256.12"/>
      </g>
     </g>
     <g id="text_3">
      <!-- $5.0$ -->
      <g transform="translate(337.405153 287.334752)scale(0.35 -0.35)">
       <use transform="scale(0.996264)" xlink:href="#CMR17-53"/>
       <use transform="translate(45.690477 0)scale(0.996264)" xlink:href="#CMMI12-58"/>
       <use transform="translate(72.787654 0)scale(0.996264)" xlink:href="#CMR17-48"/>
      </g>
     </g>
    </g>
    <g id="text_4">
     <!-- $t$ -->
     <defs>
      <path d="M 20.09375 40.09375 
L 29.296875 40.09375 
C 31.203125 40.09375 32.203125 40.09375 32.203125 41.890625 
C 32.203125 43 31.59375 43 29.59375 43 
L 20.796875 43 
L 24.5 57.25 
C 24.90625 58.625 24.90625 58.8125 24.90625 59.5 
C 24.90625 61.09375 23.59375 62 22.296875 62 
C 21.5 62 19.203125 61.6875 18.40625 58.53125 
L 14.5 43 
L 5.09375 43 
C 3.09375 43 2.203125 43 2.203125 41.09375 
C 2.203125 40.09375 2.90625 40.09375 4.796875 40.09375 
L 13.703125 40.09375 
L 7.09375 13.765625 
C 6.296875 10.265625 6 9.265625 6 7.96875 
C 6 3.28125 9.296875 -1 14.90625 -1 
C 25 -1 30.40625 13.5625 30.40625 14.265625 
C 30.40625 14.859375 30 15.15625 29.40625 15.15625 
C 29.203125 15.15625 28.796875 15.15625 28.59375 14.75 
C 28.5 14.65625 28.40625 14.5625 27.703125 12.96875 
C 25.59375 7.96875 21 1 15.203125 1 
C 12.203125 1 12 3.484375 12 5.6875 
C 12 5.78125 12 7.671875 12.296875 8.875 
z
" id="CMMI12-116"/>
     </defs>
     <g transform="translate(248.031531 322.331855)scale(0.35 -0.35)">
      <use transform="scale(0.996264)" xlink:href="#CMMI12-116"/>
     </g>
    </g>
   </g>
   <g id="matplotlib.axis_2">
    <g id="ytick_1">
     <g id="line2d_7">
      <path clip-path="url(#p25716448d0)" d="M 60.91227 245.083773 
L 447.48 245.083773 
" style="fill:none;stroke:#b0b0b0;stroke-linecap:square;stroke-width:0.8;"/>
     </g>
     <g id="line2d_8">
      <defs>
       <path d="M 0 0 
L -3.5 0 
" id="m2cd7cfa0c0" style="stroke:#000000;stroke-width:0.8;"/>
      </defs>
      <g>
       <use style="stroke:#000000;stroke-width:0.8;" x="60.91227" xlink:href="#m2cd7cfa0c0" y="245.083773"/>
      </g>
     </g>
     <g id="text_5">
      <!-- $-1$ -->
      <defs>
       <path d="M 65.90625 23 
C 67.59375 23 69.40625 23 69.40625 25 
C 69.40625 27 67.59375 27 65.90625 27 
L 11.796875 27 
C 10.09375 27 8.296875 27 8.296875 25 
C 8.296875 23 10.09375 23 11.796875 23 
z
" id="CMSY10-0"/>
       <path d="M 26.59375 63.796875 
C 26.59375 65.890625 26.5 66 25.09375 66 
C 21.203125 61.359375 15.296875 59.890625 9.703125 59.6875 
C 9.40625 59.6875 8.90625 59.6875 8.796875 59.5 
C 8.703125 59.296875 8.703125 59.09375 8.703125 57 
C 11.796875 57 17 57.59375 21 59.984375 
L 21 7.296875 
C 21 3.796875 20.796875 2.59375 12.203125 2.59375 
L 9.203125 2.59375 
L 9.203125 0 
C 14 0.09375 19 0.1875 23.796875 0.1875 
C 28.59375 0.1875 33.59375 0.09375 38.40625 0 
L 38.40625 2.59375 
L 35.40625 2.59375 
C 26.796875 2.59375 26.59375 3.6875 26.59375 7.296875 
z
" id="CMR17-49"/>
      </defs>
      <g transform="translate(10.8 257.191149)scale(0.35 -0.35)">
       <use transform="scale(0.996264)" xlink:href="#CMSY10-0"/>
       <use transform="translate(77.487468 0)scale(0.996264)" xlink:href="#CMR17-49"/>
      </g>
     </g>
    </g>
    <g id="ytick_2">
     <g id="line2d_9">
      <path clip-path="url(#p25716448d0)" d="M 60.91227 134.720068 
L 447.48 134.720068 
" style="fill:none;stroke:#b0b0b0;stroke-linecap:square;stroke-width:0.8;"/>
     </g>
     <g id="line2d_10">
      <g>
       <use style="stroke:#000000;stroke-width:0.8;" x="60.91227" xlink:href="#m2cd7cfa0c0" y="134.720068"/>
      </g>
     </g>
     <g id="text_6">
      <!-- $0$ -->
      <g transform="translate(37.920603 146.827444)scale(0.35 -0.35)">
       <use transform="scale(0.996264)" xlink:href="#CMR17-48"/>
      </g>
     </g>
    </g>
    <g id="ytick_3">
     <g id="line2d_11">
      <path clip-path="url(#p25716448d0)" d="M 60.91227 24.356364 
L 447.48 24.356364 
" style="fill:none;stroke:#b0b0b0;stroke-linecap:square;stroke-width:0.8;"/>
     </g>
     <g id="line2d_12">
      <g>
       <use style="stroke:#000000;stroke-width:0.8;" x="60.91227" xlink:href="#m2cd7cfa0c0" y="24.356364"/>
      </g>
     </g>
     <g id="text_7">
      <!-- $1$ -->
      <g transform="translate(37.920603 36.46374)scale(0.35 -0.35)">
       <use transform="scale(0.996264)" xlink:href="#CMR17-49"/>
      </g>
     </g>
    </g>
   </g>
   <g id="line2d_13">
    <path clip-path="url(#p25716448d0)" d="M 78.48353 24.356364 
L 80.945969 24.463306 
L 83.408408 24.783927 
L 85.870847 25.317604 
L 88.333286 26.063304 
L 90.795725 27.019581 
L 93.609941 28.367923 
L 96.424157 29.985458 
L 99.238373 31.868091 
L 102.052589 34.011057 
L 105.218581 36.726295 
L 108.384574 39.755437 
L 111.550567 43.088779 
L 115.068337 47.136251 
L 118.586107 51.530069 
L 122.455654 56.742521 
L 126.325201 62.328061 
L 130.546524 68.815434 
L 135.119625 76.265651 
L 140.044503 84.724258 
L 145.672935 94.861618 
L 152.004921 106.742937 
L 160.095791 122.424842 
L 182.961295 167.037074 
L 189.293281 178.751362 
L 194.921713 188.695319 
L 199.846591 196.951591 
L 204.419691 204.187683 
L 208.641015 210.456238 
L 212.510562 215.824435 
L 216.380109 220.804585 
L 219.897879 224.97517 
L 223.415649 228.788847 
L 226.581642 231.903504 
L 229.747634 234.706853 
L 232.913627 237.189915 
L 235.727843 239.121743 
L 238.542059 240.789316 
L 241.356275 242.188412 
L 244.170491 243.31549 
L 246.63293 244.076284 
L 249.095369 244.625145 
L 251.557808 244.96101 
L 254.020247 245.083227 
L 256.482685 244.99156 
L 258.945124 244.686186 
L 261.407563 244.167698 
L 263.870002 243.437099 
L 266.332441 242.495807 
L 269.146657 241.16441 
L 271.960873 239.563587 
L 274.775089 237.69739 
L 277.589305 235.570542 
L 280.755297 232.873008 
L 283.92129 229.86106 
L 287.087283 226.544346 
L 290.605053 222.514623 
L 294.122823 218.137721 
L 297.99237 212.942834 
L 301.861917 207.373686 
L 306.08324 200.902765 
L 310.656341 193.468582 
L 315.581219 185.025041 
L 321.209651 174.90196 
L 327.541637 163.032788 
L 335.632507 147.360137 
L 358.849788 102.071371 
L 365.181774 90.370746 
L 370.810206 80.442359 
L 375.735084 72.202227 
L 380.308185 64.983112 
L 384.529508 58.731828 
L 388.399055 53.380726 
L 392.268602 48.418795 
L 395.786372 44.265675 
L 399.304142 40.470252 
L 402.470135 37.372637 
L 405.636128 34.586855 
L 408.80212 32.12183 
L 411.616336 30.206381 
L 414.430552 28.555471 
L 417.244768 27.173279 
L 420.058984 26.063304 
L 422.521423 25.317604 
L 424.983862 24.783927 
L 427.446301 24.463306 
L 429.90874 24.356364 
L 429.90874 24.356364 
" style="fill:none;stroke:#000000;stroke-dasharray:5.55,2.4;stroke-dashoffset:0;stroke-width:1.5;"/>
   </g>
   <g id="line2d_14">
    <path clip-path="url(#p25716448d0)" d="M 78.48353 134.720068 
L 91.499279 109.268446 
L 98.534819 95.99675 
L 104.515027 85.188928 
L 109.791682 76.11853 
L 114.364783 68.676321 
L 118.586107 62.197166 
L 122.807431 56.130926 
L 126.676978 50.962482 
L 130.194747 46.611035 
L 133.712517 42.60801 
L 136.87851 39.316301 
L 140.044503 36.3302 
L 143.210496 33.65927 
L 146.024712 31.55664 
L 148.838928 29.715131 
L 151.653144 28.139405 
L 154.467359 26.833451 
L 157.281575 25.800573 
L 159.744014 25.122885 
L 162.206453 24.657597 
L 164.668892 24.405611 
L 167.131331 24.367414 
L 169.59377 24.543082 
L 172.056209 24.932272 
L 174.518648 25.534232 
L 176.981087 26.347795 
L 179.443525 27.371384 
L 182.257741 28.79581 
L 185.071957 30.488347 
L 187.886173 32.444709 
L 190.700389 34.659945 
L 193.866382 37.454514 
L 197.032375 40.560654 
L 200.198368 43.968415 
L 203.716138 48.095261 
L 207.233907 52.564659 
L 211.103454 57.855514 
L 214.973001 63.51413 
L 219.194325 70.07474 
L 223.767426 77.596194 
L 228.692304 86.121564 
L 234.320735 96.32194 
L 241.004498 108.930863 
L 249.798923 126.052382 
L 268.79488 163.200478 
L 275.478643 175.708821 
L 281.107074 185.795764 
L 286.031952 194.201274 
L 290.605053 201.595052 
L 294.826377 208.024564 
L 299.047701 214.036711 
L 302.917248 219.151922 
L 306.435017 223.45217 
L 309.952787 227.401532 
L 313.11878 230.643012 
L 316.284773 233.577222 
L 319.450766 236.194763 
L 322.264982 238.248819 
L 325.079198 240.040828 
L 327.893414 241.566256 
L 330.707629 242.82124 
L 333.170068 243.694988 
L 335.632507 244.357543 
L 338.094946 244.80762 
L 340.557385 245.044347 
L 343.019824 245.067265 
L 345.482263 244.87633 
L 347.944702 244.471912 
L 350.407141 243.854793 
L 352.86958 243.026172 
L 355.332019 241.987653 
L 358.146234 240.546356 
L 360.96045 238.837198 
L 363.774666 236.864504 
L 366.588882 234.633268 
L 369.754875 231.821145 
L 372.920868 228.697978 
L 376.086861 225.273772 
L 379.604631 221.1294 
L 383.1224 216.643327 
L 386.991947 211.335193 
L 390.861494 205.66049 
L 395.082818 199.083783 
L 399.655919 191.546703 
L 404.580797 183.006728 
L 410.209228 172.792625 
L 416.892991 160.17169 
L 425.687416 143.041719 
L 429.90874 134.720068 
L 429.90874 134.720068 
" style="fill:none;stroke:#000000;stroke-dasharray:5.55,2.4;stroke-dashoffset:0;stroke-width:1.5;"/>
   </g>
   <g id="line2d_15">
    <path clip-path="url(#p25716448d0)" d="M 78.48353 24.356364 
L 78.539406 24.356419 
L 79.098158 24.363027 
L 84.685676 25.034207 
L 120.999556 54.738414 
L 173.200856 148.251502 
L 228.484598 233.651526 
L 283.768339 229.958592 
L 339.052081 140.499073 
L 394.985123 45.080513 
L 429.90874 24.36226 
" style="fill:none;stroke:#1f77b4;stroke-linecap:square;stroke-width:2;"/>
    <defs>
     <path d="M 0 2.5 
C 0.663008 2.5 1.29895 2.236584 1.767767 1.767767 
C 2.236584 1.29895 2.5 0.663008 2.5 0 
C 2.5 -0.663008 2.236584 -1.29895 1.767767 -1.767767 
C 1.29895 -2.236584 0.663008 -2.5 0 -2.5 
C -0.663008 -2.5 -1.29895 -2.236584 -1.767767 -1.767767 
C -2.236584 -1.29895 -2.5 -0.663008 -2.5 0 
C -2.5 0.663008 -2.236584 1.29895 -1.767767 1.767767 
C -1.29895 2.236584 -0.663008 2.5 0 2.5 
z
" id="m6799e88722" style="stroke:#1f77b4;"/>
    </defs>
    <g clip-path="url(#p25716448d0)">
     <use style="fill:#1f77b4;stroke:#1f77b4;" x="78.48353" xlink:href="#m6799e88722" y="24.356364"/>
     <use style="fill:#1f77b4;stroke:#1f77b4;" x="78.539406" xlink:href="#m6799e88722" y="24.356419"/>
     <use style="fill:#1f77b4;stroke:#1f77b4;" x="79.098158" xlink:href="#m6799e88722" y="24.363027"/>
     <use style="fill:#1f77b4;stroke:#1f77b4;" x="84.685676" xlink:href="#m6799e88722" y="25.034207"/>
     <use style="fill:#1f77b4;stroke:#1f77b4;" x="120.999556" xlink:href="#m6799e88722" y="54.738414"/>
     <use style="fill:#1f77b4;stroke:#1f77b4;" x="173.200856" xlink:href="#m6799e88722" y="148.251502"/>
     <use style="fill:#1f77b4;stroke:#1f77b4;" x="228.484598" xlink:href="#m6799e88722" y="233.651526"/>
     <use style="fill:#1f77b4;stroke:#1f77b4;" x="283.768339" xlink:href="#m6799e88722" y="229.958592"/>
     <use style="fill:#1f77b4;stroke:#1f77b4;" x="339.052081" xlink:href="#m6799e88722" y="140.499073"/>
     <use style="fill:#1f77b4;stroke:#1f77b4;" x="394.985123" xlink:href="#m6799e88722" y="45.080513"/>
     <use style="fill:#1f77b4;stroke:#1f77b4;" x="429.90874" xlink:href="#m6799e88722" y="24.36226"/>
    </g>
   </g>
   <g id="line2d_16">
    <path clip-path="url(#p25716448d0)" d="M 78.48353 134.720068 
L 78.539406 134.609815 
L 79.098158 133.507305 
L 84.685676 122.507001 
L 120.999556 58.675314 
L 173.200856 25.192579 
L 228.484598 85.813634 
L 283.768339 190.476666 
L 339.052081 244.927507 
L 394.985123 199.092896 
L 429.90874 134.540143 
" style="fill:none;stroke:#ff7f0e;stroke-linecap:square;stroke-width:2;"/>
    <defs>
     <path d="M 0 2.5 
C 0.663008 2.5 1.29895 2.236584 1.767767 1.767767 
C 2.236584 1.29895 2.5 0.663008 2.5 0 
C 2.5 -0.663008 2.236584 -1.29895 1.767767 -1.767767 
C 1.29895 -2.236584 0.663008 -2.5 0 -2.5 
C -0.663008 -2.5 -1.29895 -2.236584 -1.767767 -1.767767 
C -2.236584 -1.29895 -2.5 -0.663008 -2.5 0 
C -2.5 0.663008 -2.236584 1.29895 -1.767767 1.767767 
C -1.29895 2.236584 -0.663008 2.5 0 2.5 
z
" id="m0b276f17ff" style="stroke:#ff7f0e;"/>
    </defs>
    <g clip-path="url(#p25716448d0)">
     <use style="fill:#ff7f0e;stroke:#ff7f0e;" x="78.48353" xlink:href="#m0b276f17ff" y="134.720068"/>
     <use style="fill:#ff7f0e;stroke:#ff7f0e;" x="78.539406" xlink:href="#m0b276f17ff" y="134.609815"/>
     <use style="fill:#ff7f0e;stroke:#ff7f0e;" x="79.098158" xlink:href="#m0b276f17ff" y="133.507305"/>
     <use style="fill:#ff7f0e;stroke:#ff7f0e;" x="84.685676" xlink:href="#m0b276f17ff" y="122.507001"/>
     <use style="fill:#ff7f0e;stroke:#ff7f0e;" x="120.999556" xlink:href="#m0b276f17ff" y="58.675314"/>
     <use style="fill:#ff7f0e;stroke:#ff7f0e;" x="173.200856" xlink:href="#m0b276f17ff" y="25.192579"/>
     <use style="fill:#ff7f0e;stroke:#ff7f0e;" x="228.484598" xlink:href="#m0b276f17ff" y="85.813634"/>
     <use style="fill:#ff7f0e;stroke:#ff7f0e;" x="283.768339" xlink:href="#m0b276f17ff" y="190.476666"/>
     <use style="fill:#ff7f0e;stroke:#ff7f0e;" x="339.052081" xlink:href="#m0b276f17ff" y="244.927507"/>
     <use style="fill:#ff7f0e;stroke:#ff7f0e;" x="394.985123" xlink:href="#m0b276f17ff" y="199.092896"/>
     <use style="fill:#ff7f0e;stroke:#ff7f0e;" x="429.90874" xlink:href="#m0b276f17ff" y="134.540143"/>
    </g>
   </g>
   <g id="patch_3">
    <path d="M 60.91227 256.12 
L 60.91227 13.32 
" style="fill:none;stroke:#000000;stroke-linecap:square;stroke-linejoin:miter;stroke-width:0.8;"/>
   </g>
   <g id="patch_4">
    <path d="M 447.48 256.12 
L 447.48 13.32 
" style="fill:none;stroke:#000000;stroke-linecap:square;stroke-linejoin:miter;stroke-width:0.8;"/>
   </g>
   <g id="patch_5">
    <path d="M 60.91227 256.12 
L 447.48 256.12 
" style="fill:none;stroke:#000000;stroke-linecap:square;stroke-linejoin:miter;stroke-width:0.8;"/>
   </g>
   <g id="patch_6">
    <path d="M 60.91227 13.32 
L 447.48 13.32 
" style="fill:none;stroke:#000000;stroke-linecap:square;stroke-linejoin:miter;stroke-width:0.8;"/>
   </g>
   <g id="legend_1">
    <g id="patch_7">
     <path d="M 164.1362 145.937353 
L 344.25607 145.937353 
Q 351.25607 145.937353 351.25607 138.937353 
L 351.25607 37.82 
Q 351.25607 30.82 344.25607 30.82 
L 164.1362 30.82 
Q 157.1362 30.82 157.1362 37.82 
L 157.1362 138.937353 
Q 157.1362 145.937353 164.1362 145.937353 
z
" style="fill:#ffffff;opacity:0.8;stroke:#cccccc;stroke-linejoin:miter;"/>
    </g>
    <g id="line2d_17">
     <path d="M 171.1362 60.596325 
L 241.1362 60.596325 
" style="fill:none;stroke:#1f77b4;stroke-linecap:square;stroke-width:2;"/>
    </g>
    <g id="line2d_18">
     <g>
      <use style="fill:#1f77b4;stroke:#1f77b4;" x="206.1362" xlink:href="#m6799e88722" y="60.596325"/>
     </g>
    </g>
    <g id="text_8">
     <!-- $x_1(t)$ -->
     <defs>
      <path d="M 47.40625 41 
C 44.203125 40.390625 43 37.984375 43 36.09375 
C 43 33.6875 44.90625 32.890625 46.296875 32.890625 
C 49.296875 32.890625 51.40625 35.484375 51.40625 38.1875 
C 51.40625 42.09375 46.59375 44 42.40625 44 
C 36.296875 44 32.90625 38.296875 32 36.390625 
C 29.703125 43.59375 23.5 44 21.703125 44 
C 11.5 44 6.09375 31.140625 6.09375 28.890625 
C 6.09375 28.484375 6.5 27.96875 7.203125 27.96875 
C 8 27.96875 8.203125 28.578125 8.40625 28.984375 
C 11.796875 40.1875 18.5 41.984375 21.40625 41.984375 
C 25.90625 41.984375 26.796875 38.09375 26.796875 35.6875 
C 26.796875 33.484375 26.203125 31.140625 25 26.21875 
L 21.59375 12.15625 
C 20.09375 6.09375 17.203125 1 11.90625 1 
C 11.40625 1 8.90625 1 6.796875 1.96875 
C 10.40625 2.59375 11.203125 5.59375 11.203125 6.796875 
C 11.203125 8.796875 9.703125 10 7.796875 10 
C 5.40625 10 2.796875 7.890625 2.796875 4.6875 
C 2.796875 0.890625 7.5 -1 11.796875 -1 
C 16.59375 -1 20 2.390625 22.09375 6.484375 
C 23.703125 1 28.703125 -1 32.40625 -1 
C 42.59375 -1 48 11.734375 48 14 
C 48 14.515625 47.59375 14.921875 47 14.921875 
C 46.09375 14.921875 46 14.40625 45.703125 13.59375 
C 43 4.6875 37.203125 1 32.703125 1 
C 29.203125 1 27.296875 3.1875 27.296875 7.296875 
C 27.296875 9.484375 27.703125 11.125 29.296875 17.90625 
L 32.796875 31.859375 
C 34.296875 37.890625 37.703125 41.984375 42.296875 41.984375 
C 42.5 41.984375 45.296875 41.984375 47.40625 41 
z
" id="CMMI12-120"/>
      <path d="M 30.59375 -24.40625 
C 30.59375 -24.3125 30.59375 -24.109375 30.296875 -23.8125 
C 25.703125 -19.109375 13.40625 -6.296875 13.40625 24.9375 
C 13.40625 56.171875 25.5 68.875 30.40625 73.890625 
C 30.40625 73.984375 30.59375 74.1875 30.59375 74.484375 
C 30.59375 74.796875 30.296875 75 29.90625 75 
C 28.796875 75 20.296875 67.578125 15.40625 56.5625 
C 10.40625 45.453125 9 34.65625 9 25.046875 
C 9 17.828125 9.703125 5.625 15.703125 -7.296875 
C 20.5 -17.703125 28.703125 -25 29.90625 -25 
C 30.40625 -25 30.59375 -24.8125 30.59375 -24.40625 
z
" id="CMR17-40"/>
      <path d="M 26.296875 24.9375 
C 26.296875 32.140625 25.59375 44.359375 19.59375 57.265625 
C 14.796875 67.6875 6.59375 75 5.40625 75 
C 5.09375 75 4.703125 74.890625 4.703125 74.390625 
C 4.703125 74.1875 4.796875 74.09375 4.90625 73.890625 
C 9.703125 68.875 21.90625 56.171875 21.90625 25.046875 
C 21.90625 -6.1875 9.796875 -18.90625 4.90625 -23.90625 
C 4.796875 -24.109375 4.703125 -24.203125 4.703125 -24.40625 
C 4.703125 -24.90625 5.09375 -25 5.40625 -25 
C 6.5 -25 15 -17.609375 19.90625 -6.59375 
C 24.90625 4.515625 26.296875 15.328125 26.296875 24.9375 
z
" id="CMR17-41"/>
     </defs>
     <g transform="translate(269.1362 72.846325)scale(0.35 -0.35)">
      <use transform="translate(0 14.943915)scale(0.996264)" xlink:href="#CMMI12-120"/>
      <use transform="translate(55.43406 0)scale(0.697382)" xlink:href="#CMR17-49"/>
      <use transform="translate(87.915374 14.943915)scale(0.996264)" xlink:href="#CMR17-40"/>
      <use transform="translate(123.196141 14.943915)scale(0.996264)" xlink:href="#CMMI12-116"/>
      <use transform="translate(158.422472 14.943915)scale(0.996264)" xlink:href="#CMR17-41"/>
     </g>
    </g>
    <g id="line2d_19">
     <path d="M 171.1362 112.905002 
L 241.1362 112.905002 
" style="fill:none;stroke:#ff7f0e;stroke-linecap:square;stroke-width:2;"/>
    </g>
    <g id="line2d_20">
     <g>
      <use style="fill:#ff7f0e;stroke:#ff7f0e;" x="206.1362" xlink:href="#m0b276f17ff" y="112.905002"/>
     </g>
    </g>
    <g id="text_9">
     <!-- $x_2(t)$ -->
     <g transform="translate(269.1362 125.155002)scale(0.35 -0.35)">
      <use transform="translate(0 14.943915)scale(0.996264)" xlink:href="#CMMI12-120"/>
      <use transform="translate(55.43406 0)scale(0.697382)" xlink:href="#CMR17-50"/>
      <use transform="translate(87.915374 14.943915)scale(0.996264)" xlink:href="#CMR17-40"/>
      <use transform="translate(123.196141 14.943915)scale(0.996264)" xlink:href="#CMMI12-116"/>
      <use transform="translate(158.422472 14.943915)scale(0.996264)" xlink:href="#CMR17-41"/>
     </g>
    </g>
   </g>
  </g>
 </g>
 <defs>
  <clipPath id="p25716448d0">
   <rect height="242.8" width="386.56773" x="60.91227" y="13.32"/>
  </clipPath>
 </defs>
</svg>
