<?xml version="1.0" encoding="utf-8" standalone="no"?>
<!DOCTYPE svg PUBLIC "-//W3C//DTD SVG 1.1//EN"
  "http://www.w3.org/Graphics/SVG/1.1/DTD/svg11.dtd">
<!-- Created with matplotlib (https://matplotlib.org/) -->
<svg height="345.6pt" version="1.1" viewBox="0 0 460.8 345.6" width="460.8pt" xmlns="http://www.w3.org/2000/svg" xmlns:xlink="http://www.w3.org/1999/xlink">
 <defs>
  <style type="text/css">
*{stroke-linecap:butt;stroke-linejoin:round;}
  </style>
 </defs>
 <g id="figure_1">
  <g id="patch_1">
   <path d="M 0 345.6 
L 460.8 345.6 
L 460.8 0 
L 0 0 
z
" style="fill:#ffffff;"/>
  </g>
  <g id="axes_1">
   <g id="patch_2">
    <path d="M 60.91227 261.805794 
L 450 261.805794 
L 450 10.809393 
L 60.91227 10.809393 
z
" style="fill:#ffffff;"/>
   </g>
   <g id="matplotlib.axis_1">
    <g id="xtick_1">
     <g id="line2d_1">
      <path clip-path="url(#p096bd87005)" d="M 78.598076 261.805794 
L 78.598076 10.809393 
" style="fill:none;stroke:#b0b0b0;stroke-linecap:square;stroke-width:0.8;"/>
     </g>
     <g id="line2d_2">
      <defs>
       <path d="M 0 0 
L 0 3.5 
" id="m7a91a09d64" style="stroke:#000000;stroke-width:0.8;"/>
      </defs>
      <g>
       <use style="stroke:#000000;stroke-width:0.8;" x="78.598076" xlink:href="#m7a91a09d64" y="261.805794"/>
      </g>
     </g>
     <g id="text_1">
      <!-- $0.0$ -->
      <defs>
       <path d="M 42 31.84375 
C 42 37.96875 41.90625 48.421875 37.703125 56.453125 
C 34 63.484375 28.09375 66 22.90625 66 
C 18.09375 66 12 63.78125 8.203125 56.5625 
C 4.203125 49.015625 3.796875 39.671875 3.796875 31.84375 
C 3.796875 26.109375 3.90625 17.375 7 9.734375 
C 11.296875 -0.609375 19 -2 22.90625 -2 
C 27.5 -2 34.5 -0.109375 38.59375 9.4375 
C 41.59375 16.375 42 24.5 42 31.84375 
z
M 22.90625 -0.40625 
C 16.5 -0.40625 12.703125 5.125 11.296875 12.75 
C 10.203125 18.6875 10.203125 27.328125 10.203125 32.953125 
C 10.203125 40.6875 10.203125 47.109375 11.5 53.234375 
C 13.40625 61.78125 19 64.390625 22.90625 64.390625 
C 27 64.390625 32.296875 61.671875 34.203125 53.4375 
C 35.5 47.71875 35.59375 40.984375 35.59375 32.953125 
C 35.59375 26.421875 35.59375 18.375 34.40625 12.453125 
C 32.296875 1.5 26.40625 -0.40625 22.90625 -0.40625 
z
" id="CMR17-48"/>
       <path d="M 18.40625 4.796875 
C 18.40625 7.6875 16 9.6875 13.59375 9.6875 
C 10.703125 9.6875 8.703125 7.296875 8.703125 4.890625 
C 8.703125 2 11.09375 0 13.5 0 
C 16.40625 0 18.40625 2.390625 18.40625 4.796875 
z
" id="CMMI12-58"/>
      </defs>
      <g transform="translate(57.864403 293.020546)scale(0.35 -0.35)">
       <use transform="scale(0.996264)" xlink:href="#CMR17-48"/>
       <use transform="translate(45.690477 0)scale(0.996264)" xlink:href="#CMMI12-58"/>
       <use transform="translate(72.787654 0)scale(0.996264)" xlink:href="#CMR17-48"/>
      </g>
     </g>
    </g>
    <g id="xtick_2">
     <g id="line2d_3">
      <path clip-path="url(#p096bd87005)" d="M 219.337248 261.805794 
L 219.337248 10.809393 
" style="fill:none;stroke:#b0b0b0;stroke-linecap:square;stroke-width:0.8;"/>
     </g>
     <g id="line2d_4">
      <g>
       <use style="stroke:#000000;stroke-width:0.8;" x="219.337248" xlink:href="#m7a91a09d64" y="261.805794"/>
      </g>
     </g>
     <g id="text_2">
      <!-- $2.5$ -->
      <defs>
       <path d="M 41.703125 15.46875 
L 39.90625 15.46875 
C 38.90625 8.390625 38.09375 7.1875 37.703125 6.59375 
C 37.203125 5.796875 30 5.796875 28.59375 5.796875 
L 9.40625 5.796875 
C 13 9.6875 20 16.765625 28.5 24.9375 
C 34.59375 30.71875 41.703125 37.5 41.703125 47.390625 
C 41.703125 59.1875 32.296875 66 21.796875 66 
C 10.796875 66 4.09375 56.296875 4.09375 47.296875 
C 4.09375 43.390625 7 42.890625 8.203125 42.890625 
C 9.203125 42.890625 12.203125 43.484375 12.203125 46.984375 
C 12.203125 50.09375 9.59375 51 8.203125 51 
C 7.59375 51 7 50.890625 6.59375 50.6875 
C 8.5 59.1875 14.296875 63.390625 20.40625 63.390625 
C 29.09375 63.390625 34.796875 56.5 34.796875 47.390625 
C 34.796875 38.703125 29.703125 31.21875 24 24.734375 
L 4.09375 2.296875 
L 4.09375 0 
L 39.296875 0 
z
" id="CMR17-50"/>
       <path d="M 11.40625 58.59375 
C 12.40625 58.1875 16.5 56.890625 20.703125 56.890625 
C 30 56.890625 35.09375 61.890625 38 64.6875 
C 38 65.484375 38 66 37.40625 66 
C 37.296875 66 37.09375 66 36.296875 65.59375 
C 32.796875 64.09375 28.703125 63 23.703125 63 
C 20.703125 63 16.203125 63.359375 11.296875 65.484375 
C 10.203125 66 10 66 9.90625 66 
C 9.40625 66 9.296875 65.890625 9.296875 63.90625 
L 9.296875 34.859375 
C 9.296875 33.015625 9.296875 32.5 10.296875 32.5 
C 10.796875 32.5 11 32.703125 11.5 33.421875 
C 14.703125 38.046875 19.09375 40 24.09375 40 
C 27.59375 40 35.09375 37.734375 35.09375 20.203125 
C 35.09375 16.984375 35.09375 11.1875 32.09375 6.59375 
C 29.59375 2.484375 25.703125 0.390625 21.40625 0.390625 
C 14.796875 0.390625 8.09375 4.984375 6.296875 12.6875 
C 6.703125 12.59375 7.5 12.390625 7.90625 12.390625 
C 9.203125 12.390625 11.703125 13.09375 11.703125 16.1875 
C 11.703125 18.890625 9.796875 20 7.90625 20 
C 5.59375 20 4.09375 18.59375 4.09375 15.796875 
C 4.09375 7.09375 11 -2 21.59375 -2 
C 31.90625 -2 41.703125 6.890625 41.703125 19.796875 
C 41.703125 32.09375 33.90625 41.59375 24.203125 41.59375 
C 19.09375 41.59375 14.796875 39.6875 11.40625 36 
z
" id="CMR17-53"/>
      </defs>
      <g transform="translate(198.603575 293.020546)scale(0.35 -0.35)">
       <use transform="scale(0.996264)" xlink:href="#CMR17-50"/>
       <use transform="translate(45.690477 0)scale(0.996264)" xlink:href="#CMMI12-58"/>
       <use transform="translate(72.787654 0)scale(0.996264)" xlink:href="#CMR17-53"/>
      </g>
     </g>
    </g>
    <g id="xtick_3">
     <g id="line2d_5">
      <path clip-path="url(#p096bd87005)" d="M 360.076419 261.805794 
L 360.076419 10.809393 
" style="fill:none;stroke:#b0b0b0;stroke-linecap:square;stroke-width:0.8;"/>
     </g>
     <g id="line2d_6">
      <g>
       <use style="stroke:#000000;stroke-width:0.8;" x="360.076419" xlink:href="#m7a91a09d64" y="261.805794"/>
      </g>
     </g>
     <g id="text_3">
      <!-- $5.0$ -->
      <g transform="translate(339.342746 293.020546)scale(0.35 -0.35)">
       <use transform="scale(0.996264)" xlink:href="#CMR17-53"/>
       <use transform="translate(45.690477 0)scale(0.996264)" xlink:href="#CMMI12-58"/>
       <use transform="translate(72.787654 0)scale(0.996264)" xlink:href="#CMR17-48"/>
      </g>
     </g>
    </g>
    <g id="text_4">
     <!-- $t$ -->
     <defs>
      <path d="M 20.09375 40.09375 
L 29.296875 40.09375 
C 31.203125 40.09375 32.203125 40.09375 32.203125 41.890625 
C 32.203125 43 31.59375 43 29.59375 43 
L 20.796875 43 
L 24.5 57.25 
C 24.90625 58.625 24.90625 58.8125 24.90625 59.5 
C 24.90625 61.09375 23.59375 62 22.296875 62 
C 21.5 62 19.203125 61.6875 18.40625 58.53125 
L 14.5 43 
L 5.09375 43 
C 3.09375 43 2.203125 43 2.203125 41.09375 
C 2.203125 40.09375 2.90625 40.09375 4.796875 40.09375 
L 13.703125 40.09375 
L 7.09375 13.765625 
C 6.296875 10.265625 6 9.265625 6 7.96875 
C 6 3.28125 9.296875 -1 14.90625 -1 
C 25 -1 30.40625 13.5625 30.40625 14.265625 
C 30.40625 14.859375 30 15.15625 29.40625 15.15625 
C 29.203125 15.15625 28.796875 15.15625 28.59375 14.75 
C 28.5 14.65625 28.40625 14.5625 27.703125 12.96875 
C 25.59375 7.96875 21 1 15.203125 1 
C 12.203125 1 12 3.484375 12 5.6875 
C 12 5.78125 12 7.671875 12.296875 8.875 
z
" id="CMMI12-116"/>
     </defs>
     <g transform="translate(249.291531 328.017649)scale(0.35 -0.35)">
      <use transform="scale(0.996264)" xlink:href="#CMMI12-116"/>
     </g>
    </g>
   </g>
   <g id="matplotlib.axis_2">
    <g id="ytick_1">
     <g id="line2d_7">
      <path clip-path="url(#p096bd87005)" d="M 60.91227 250.353995 
L 450 250.353995 
" style="fill:none;stroke:#b0b0b0;stroke-linecap:square;stroke-width:0.8;"/>
     </g>
     <g id="line2d_8">
      <defs>
       <path d="M 0 0 
L -3.5 0 
" id="m7466469de0" style="stroke:#000000;stroke-width:0.8;"/>
      </defs>
      <g>
       <use style="stroke:#000000;stroke-width:0.8;" x="60.91227" xlink:href="#m7466469de0" y="250.353995"/>
      </g>
     </g>
     <g id="text_5">
      <!-- $-1$ -->
      <defs>
       <path d="M 65.90625 23 
C 67.59375 23 69.40625 23 69.40625 25 
C 69.40625 27 67.59375 27 65.90625 27 
L 11.796875 27 
C 10.09375 27 8.296875 27 8.296875 25 
C 8.296875 23 10.09375 23 11.796875 23 
z
" id="CMSY10-0"/>
       <path d="M 26.59375 63.796875 
C 26.59375 65.890625 26.5 66 25.09375 66 
C 21.203125 61.359375 15.296875 59.890625 9.703125 59.6875 
C 9.40625 59.6875 8.90625 59.6875 8.796875 59.5 
C 8.703125 59.296875 8.703125 59.09375 8.703125 57 
C 11.796875 57 17 57.59375 21 59.984375 
L 21 7.296875 
C 21 3.796875 20.796875 2.59375 12.203125 2.59375 
L 9.203125 2.59375 
L 9.203125 0 
C 14 0.09375 19 0.1875 23.796875 0.1875 
C 28.59375 0.1875 33.59375 0.09375 38.40625 0 
L 38.40625 2.59375 
L 35.40625 2.59375 
C 26.796875 2.59375 26.59375 3.6875 26.59375 7.296875 
z
" id="CMR17-49"/>
      </defs>
      <g transform="translate(10.8 262.461371)scale(0.35 -0.35)">
       <use transform="scale(0.996264)" xlink:href="#CMSY10-0"/>
       <use transform="translate(77.487468 0)scale(0.996264)" xlink:href="#CMR17-49"/>
      </g>
     </g>
    </g>
    <g id="ytick_2">
     <g id="line2d_9">
      <path clip-path="url(#p096bd87005)" d="M 60.91227 136.287093 
L 450 136.287093 
" style="fill:none;stroke:#b0b0b0;stroke-linecap:square;stroke-width:0.8;"/>
     </g>
     <g id="line2d_10">
      <g>
       <use style="stroke:#000000;stroke-width:0.8;" x="60.91227" xlink:href="#m7466469de0" y="136.287093"/>
      </g>
     </g>
     <g id="text_6">
      <!-- $0$ -->
      <g transform="translate(37.920603 148.394469)scale(0.35 -0.35)">
       <use transform="scale(0.996264)" xlink:href="#CMR17-48"/>
      </g>
     </g>
    </g>
    <g id="ytick_3">
     <g id="line2d_11">
      <path clip-path="url(#p096bd87005)" d="M 60.91227 22.220191 
L 450 22.220191 
" style="fill:none;stroke:#b0b0b0;stroke-linecap:square;stroke-width:0.8;"/>
     </g>
     <g id="line2d_12">
      <g>
       <use style="stroke:#000000;stroke-width:0.8;" x="60.91227" xlink:href="#m7466469de0" y="22.220191"/>
      </g>
     </g>
     <g id="text_7">
      <!-- $1$ -->
      <g transform="translate(37.920603 34.327567)scale(0.35 -0.35)">
       <use transform="scale(0.996264)" xlink:href="#CMR17-49"/>
      </g>
     </g>
    </g>
   </g>
   <g id="line2d_13">
    <path clip-path="url(#p096bd87005)" d="M 78.598076 22.220191 
L 81.076567 22.330722 
L 83.555059 22.662101 
L 86.03355 23.213685 
L 88.512041 23.984407 
L 90.990533 24.972771 
L 93.469024 26.176863 
L 96.301585 27.814112 
L 99.134147 29.725922 
L 101.966708 31.907454 
L 104.79927 34.353186 
L 107.985902 37.412702 
L 111.172533 40.788943 
L 114.359165 44.471094 
L 117.899867 48.906776 
L 121.440569 53.688 
L 125.335341 59.32384 
L 129.584183 65.89102 
L 134.187096 73.456534 
L 139.144078 82.071981 
L 144.455131 91.767138 
L 150.474324 103.228858 
L 157.909798 117.894156 
L 171.010395 144.351345 
L 181.278431 164.855846 
L 188.005764 177.817268 
L 193.670887 188.280023 
L 198.62787 197.006882 
L 203.230782 204.690516 
L 207.479624 211.378566 
L 211.728467 217.639076 
L 215.623239 222.971807 
L 219.163941 227.460473 
L 222.704643 231.588599 
L 225.891274 234.982128 
L 229.077906 238.059507 
L 232.264538 240.810878 
L 235.097099 242.975707 
L 237.929661 244.870492 
L 240.762222 246.490436 
L 243.594784 247.831439 
L 246.073275 248.773313 
L 248.551766 249.497188 
L 251.030258 250.001661 
L 253.508749 250.285755 
L 255.98724 250.348919 
L 258.465732 250.19103 
L 260.944223 249.812396 
L 263.422714 249.213749 
L 265.901206 248.396249 
L 268.379697 247.361482 
L 271.212258 245.91544 
L 274.04482 244.191913 
L 276.877381 242.195262 
L 279.709943 239.930543 
L 282.542504 237.403488 
L 285.729136 234.254965 
L 288.915768 230.792622 
L 292.45647 226.591035 
L 295.997172 222.032347 
L 299.891944 216.626892 
L 303.786716 210.837048 
L 308.035558 204.115057 
L 312.63847 196.398357 
L 317.595453 187.640439 
L 323.260576 177.14827 
L 329.633839 164.855846 
L 337.777454 148.638339 
L 360.083876 103.916139 
L 366.457139 91.767138 
L 372.122262 81.441851 
L 377.079245 72.859005 
L 381.682157 65.327915 
L 385.930999 58.795856 
L 389.825771 53.194856 
L 393.720544 47.991415 
L 397.261245 43.62699 
L 400.801947 39.628985 
L 403.988579 36.357167 
L 407.175211 33.405454 
L 410.007772 31.058107 
L 412.840334 28.977111 
L 415.672895 27.167731 
L 418.505457 25.634548 
L 421.338018 24.381443 
L 423.81651 23.517239 
L 426.295001 22.871583 
L 428.773492 22.445726 
L 431.251984 22.240495 
L 432.314194 22.220191 
L 432.314194 22.220191 
" style="fill:none;stroke:#000000;stroke-dasharray:5.55,2.4;stroke-dashoffset:0;stroke-width:1.5;"/>
   </g>
   <g id="line2d_14">
    <path clip-path="url(#p096bd87005)" d="M 78.598076 136.287093 
L 91.698673 109.981455 
L 98.780077 96.264433 
L 104.79927 85.093961 
L 110.110323 75.71921 
L 114.713235 68.027281 
L 118.962077 61.330722 
L 123.21092 55.060932 
L 127.105692 49.719064 
L 130.646394 45.221606 
L 134.187096 41.084261 
L 137.373727 37.682101 
L 140.560359 34.595802 
L 143.746991 31.835252 
L 146.579552 29.662069 
L 149.412114 27.758769 
L 152.244675 26.13017 
L 155.077237 24.780395 
L 157.555728 23.830767 
L 160.034219 23.09908 
L 162.512711 22.586751 
L 164.991202 22.294775 
L 167.469693 22.223716 
L 169.948185 22.373712 
L 172.426676 22.744473 
L 174.905167 23.33528 
L 177.383658 24.144988 
L 179.86215 25.172028 
L 182.340641 26.414409 
L 185.173203 28.094849 
L 188.005764 30.049139 
L 190.838326 32.272334 
L 193.670887 34.758804 
L 196.857519 37.86292 
L 200.044151 41.282317 
L 203.584852 45.438068 
L 207.125554 49.953077 
L 211.020326 55.313178 
L 214.915098 61.060704 
L 219.163941 67.740227 
L 223.766853 75.415546 
L 228.723836 84.134587 
L 234.034889 93.922984 
L 240.408152 106.158503 
L 248.197696 121.620679 
L 273.33668 171.910762 
L 279.355873 183.271392 
L 284.666926 192.853932 
L 289.623908 201.345377 
L 294.226821 208.780269 
L 298.475663 215.214416 
L 302.370435 220.718467 
L 305.911137 225.372256 
L 309.451839 229.673763 
L 312.992541 233.605977 
L 316.179172 236.816342 
L 319.365804 239.704682 
L 322.198366 241.994249 
L 325.030927 244.016256 
L 327.863489 245.765585 
L 330.69605 247.237807 
L 333.174541 248.295742 
L 335.653033 249.136603 
L 338.131524 249.758762 
L 340.610015 250.161012 
L 343.088507 250.342574 
L 345.566998 250.303095 
L 348.045489 250.042654 
L 350.523981 249.561753 
L 353.002472 248.861326 
L 355.480963 247.94273 
L 357.959455 246.807744 
L 360.792016 245.248492 
L 363.624578 243.413443 
L 366.457139 241.307242 
L 369.289701 238.935219 
L 372.476332 235.956456 
L 375.662964 232.658421 
L 378.849596 229.05168 
L 382.390298 224.696211 
L 385.930999 219.991134 
L 389.825771 214.433996 
L 394.074614 207.946202 
L 398.323456 201.050411 
L 402.926368 193.165147 
L 408.237421 183.598026 
L 414.256614 172.251353 
L 421.338018 158.3865 
L 431.606054 137.721897 
L 432.314194 136.287093 
L 432.314194 136.287093 
" style="fill:none;stroke:#000000;stroke-dasharray:5.55,2.4;stroke-dashoffset:0;stroke-width:1.5;"/>
   </g>
   <g id="line2d_15">
    <path clip-path="url(#p096bd87005)" d="M 78.598076 22.220191 
L 81.076567 22.330722 
L 83.555059 22.662101 
L 86.03355 23.213645 
L 88.512041 23.984064 
L 90.990533 24.971918 
L 93.469024 26.175397 
L 96.301585 27.811956 
L 99.134147 29.723226 
L 101.966708 31.904495 
L 104.79927 34.350332 
L 107.985902 37.410459 
L 111.172533 40.787798 
L 114.359165 44.471365 
L 117.899867 48.908586 
L 121.440569 53.690569 
L 125.335341 59.326513 
L 129.584183 65.893247 
L 134.187096 73.457148 
L 139.144078 82.069962 
L 144.455131 91.762655 
L 150.474324 103.224388 
L 157.909798 117.896747 
L 170.656325 143.661562 
L 180.92436 164.195903 
L 187.651694 177.194773 
L 193.316817 187.693066 
L 198.62787 197.060757 
L 203.230782 204.742283 
L 207.479624 211.42657 
L 211.374397 217.178368 
L 215.269169 222.543251 
L 218.809871 227.063376 
L 222.350572 231.225054 
L 225.537204 234.650307 
L 228.723836 237.760363 
L 231.910467 240.546298 
L 234.743029 242.745903 
L 237.575591 244.678108 
L 240.408152 246.33698 
L 243.240714 247.71745 
L 245.719205 248.693652 
L 248.197696 249.451184 
L 250.676187 249.988267 
L 253.154679 250.303627 
L 255.63317 250.396496 
L 258.111661 250.266606 
L 260.590153 249.914197 
L 263.068644 249.340009 
L 265.547135 248.545288 
L 268.025627 247.531784 
L 270.504118 246.30175 
L 273.33668 244.634417 
L 276.169241 242.69281 
L 279.001803 240.482708 
L 281.834364 238.010754 
L 285.020996 234.926166 
L 288.207627 231.528295 
L 291.748329 227.396573 
L 295.289031 222.905472 
L 299.183803 217.570976 
L 303.078575 211.847535 
L 307.327418 205.191476 
L 311.93033 197.536993 
L 316.887313 188.833872 
L 322.198366 179.054617 
L 328.571629 166.8214 
L 336.715243 150.649381 
L 361.500156 101.035371 
L 367.87342 89.006494 
L 373.184473 79.438162 
L 378.141455 70.960716 
L 382.744368 63.539207 
L 386.99321 57.118464 
L 390.887982 51.629043 
L 394.428684 46.991459 
L 397.969386 42.705913 
L 401.510088 38.789885 
L 404.696719 35.594926 
L 407.883351 32.723132 
L 410.715913 30.449344 
L 413.548474 28.444116 
L 416.381036 26.712472 
L 419.213597 25.258671 
L 421.692088 24.217282 
L 424.17058 23.393172 
L 426.649071 22.787758 
L 429.127562 22.402012 
L 431.606054 22.236457 
L 432.314194 22.229621 
L 432.314194 22.229621 
" style="fill:none;stroke:#1f77b4;stroke-linecap:square;stroke-width:2;"/>
   </g>
   <g id="line2d_16">
    <path clip-path="url(#p096bd87005)" d="M 78.598076 136.287093 
L 91.698673 109.979394 
L 98.780077 96.260465 
L 104.79927 85.090354 
L 110.110323 75.716819 
L 114.713235 68.025862 
L 118.962077 61.329781 
L 123.21092 55.059428 
L 127.105692 49.712231 
L 130.646394 45.207556 
L 134.187096 41.062666 
L 137.373727 37.654557 
L 140.560359 34.563814 
L 143.746991 31.800739 
L 146.579552 29.627084 
L 149.412114 27.724989 
L 152.244675 26.099165 
L 155.077237 24.753536 
L 157.555728 23.808437 
L 160.034219 23.081869 
L 162.512711 22.574967 
L 164.991202 22.288404 
L 167.469693 22.222388 
L 169.948185 22.376661 
L 172.426676 22.750504 
L 174.905167 23.342725 
L 177.383658 24.151915 
L 179.86215 25.176866 
L 182.694711 26.610413 
L 185.527273 28.320712 
L 188.359834 30.30403 
L 191.192396 32.55591 
L 194.024957 35.071172 
L 197.211589 38.208282 
L 200.398221 41.661733 
L 203.938923 45.856905 
L 207.479624 50.413113 
L 211.374397 55.820302 
L 215.269169 61.615887 
L 219.518011 68.347006 
L 224.120923 76.073448 
L 229.077906 84.835041 
L 234.743029 95.324276 
L 241.116292 107.615789 
L 249.259907 123.830688 
L 271.920399 169.251959 
L 278.293662 181.387546 
L 283.958785 191.691065 
L 288.915768 200.247543 
L 293.51868 207.755278 
L 297.767523 214.26336 
L 301.662295 219.838621 
L 305.557067 225.011946 
L 309.097769 229.345035 
L 312.63847 233.308129 
L 315.825102 236.54582 
L 319.011734 239.46129 
L 321.844295 241.775061 
L 324.676857 243.821616 
L 327.509418 245.5961 
L 330.34198 247.094352 
L 333.174541 248.312898 
L 335.653033 249.147477 
L 338.131524 249.764797 
L 340.610015 250.164584 
L 343.088507 250.345465 
L 345.566998 250.306474 
L 348.045489 250.047127 
L 350.523981 249.56742 
L 353.002472 248.86783 
L 355.480963 247.949317 
L 357.959455 246.81332 
L 360.792016 245.251214 
L 363.624578 243.411205 
L 366.457139 241.297748 
L 369.289701 238.916119 
L 372.476332 235.923859 
L 375.662964 232.609851 
L 378.849596 228.98533 
L 382.390298 224.60921 
L 385.930999 219.884378 
L 389.825771 214.309566 
L 394.074614 207.811329 
L 398.323456 200.907879 
L 402.926368 193.015445 
L 408.237421 183.441984 
L 414.256614 172.090051 
L 421.338018 158.220069 
L 431.606054 137.550541 
L 432.314194 136.115805 
L 432.314194 136.115805 
" style="fill:none;stroke:#ff7f0e;stroke-linecap:square;stroke-width:2;"/>
   </g>
   <g id="line2d_17">
    <defs>
     <path d="M 0 2.5 
C 0.663008 2.5 1.29895 2.236584 1.767767 1.767767 
C 2.236584 1.29895 2.5 0.663008 2.5 0 
C 2.5 -0.663008 2.236584 -1.29895 1.767767 -1.767767 
C 1.29895 -2.236584 0.663008 -2.5 0 -2.5 
C -0.663008 -2.5 -1.29895 -2.236584 -1.767767 -1.767767 
C -2.236584 -1.29895 -2.5 -0.663008 -2.5 0 
C -2.5 0.663008 -2.236584 1.29895 -1.767767 1.767767 
C -1.29895 2.236584 -0.663008 2.5 0 2.5 
z
" id="mb33239ef9a" style="stroke:#1f77b4;"/>
    </defs>
    <g clip-path="url(#p096bd87005)">
     <use style="fill:#1f77b4;stroke:#1f77b4;" x="78.598076" xlink:href="#mb33239ef9a" y="22.220191"/>
     <use style="fill:#1f77b4;stroke:#1f77b4;" x="78.654315" xlink:href="#mb33239ef9a" y="22.220248"/>
     <use style="fill:#1f77b4;stroke:#1f77b4;" x="79.21671" xlink:href="#mb33239ef9a" y="22.227078"/>
     <use style="fill:#1f77b4;stroke:#1f77b4;" x="84.840653" xlink:href="#mb33239ef9a" y="22.920778"/>
     <use style="fill:#1f77b4;stroke:#1f77b4;" x="121.39126" xlink:href="#mb33239ef9a" y="53.621695"/>
     <use style="fill:#1f77b4;stroke:#1f77b4;" x="173.932856" xlink:href="#mb33239ef9a" y="150.272567"/>
     <use style="fill:#1f77b4;stroke:#1f77b4;" x="229.576987" xlink:href="#mb33239ef9a" y="238.538145"/>
     <use style="fill:#1f77b4;stroke:#1f77b4;" x="284.780885" xlink:href="#mb33239ef9a" y="235.169555"/>
     <use style="fill:#1f77b4;stroke:#1f77b4;" x="336.312452" xlink:href="#mb33239ef9a" y="151.458627"/>
     <use style="fill:#1f77b4;stroke:#1f77b4;" x="392.564785" xlink:href="#mb33239ef9a" y="49.389842"/>
     <use style="fill:#1f77b4;stroke:#1f77b4;" x="432.314194" xlink:href="#mb33239ef9a" y="22.229621"/>
    </g>
   </g>
   <g id="line2d_18">
    <defs>
     <path d="M 0 2.5 
C 0.663008 2.5 1.29895 2.236584 1.767767 1.767767 
C 2.236584 1.29895 2.5 0.663008 2.5 0 
C 2.5 -0.663008 2.236584 -1.29895 1.767767 -1.767767 
C 1.29895 -2.236584 0.663008 -2.5 0 -2.5 
C -0.663008 -2.5 -1.29895 -2.236584 -1.767767 -1.767767 
C -2.236584 -1.29895 -2.5 -0.663008 -2.5 0 
C -2.5 0.663008 -2.236584 1.29895 -1.767767 1.767767 
C -1.29895 2.236584 -0.663008 2.5 0 2.5 
z
" id="m96feb8cf23" style="stroke:#ff7f0e;"/>
    </defs>
    <g clip-path="url(#p096bd87005)">
     <use style="fill:#ff7f0e;stroke:#ff7f0e;" x="78.598076" xlink:href="#m96feb8cf23" y="136.287093"/>
     <use style="fill:#ff7f0e;stroke:#ff7f0e;" x="78.654315" xlink:href="#m96feb8cf23" y="136.17314"/>
     <use style="fill:#ff7f0e;stroke:#ff7f0e;" x="79.21671" xlink:href="#m96feb8cf23" y="135.033636"/>
     <use style="fill:#ff7f0e;stroke:#ff7f0e;" x="84.840653" xlink:href="#m96feb8cf23" y="123.664222"/>
     <use style="fill:#ff7f0e;stroke:#ff7f0e;" x="121.39126" xlink:href="#m96feb8cf23" y="57.690695"/>
     <use style="fill:#ff7f0e;stroke:#ff7f0e;" x="173.932856" xlink:href="#m96feb8cf23" y="23.084464"/>
     <use style="fill:#ff7f0e;stroke:#ff7f0e;" x="229.576987" xlink:href="#m96feb8cf23" y="85.739628"/>
     <use style="fill:#ff7f0e;stroke:#ff7f0e;" x="284.780885" xlink:href="#m96feb8cf23" y="193.141238"/>
     <use style="fill:#ff7f0e;stroke:#ff7f0e;" x="336.312452" xlink:href="#m96feb8cf23" y="249.332903"/>
     <use style="fill:#ff7f0e;stroke:#ff7f0e;" x="392.564785" xlink:href="#m96feb8cf23" y="210.168245"/>
     <use style="fill:#ff7f0e;stroke:#ff7f0e;" x="432.314194" xlink:href="#m96feb8cf23" y="136.115805"/>
    </g>
   </g>
   <g id="patch_3">
    <path d="M 60.91227 261.805794 
L 60.91227 10.809393 
" style="fill:none;stroke:#000000;stroke-linecap:square;stroke-linejoin:miter;stroke-width:0.8;"/>
   </g>
   <g id="patch_4">
    <path d="M 450 261.805794 
L 450 10.809393 
" style="fill:none;stroke:#000000;stroke-linecap:square;stroke-linejoin:miter;stroke-width:0.8;"/>
   </g>
   <g id="patch_5">
    <path d="M 60.91227 261.805794 
L 450 261.805794 
" style="fill:none;stroke:#000000;stroke-linecap:square;stroke-linejoin:miter;stroke-width:0.8;"/>
   </g>
   <g id="patch_6">
    <path d="M 60.91227 10.809393 
L 450 10.809393 
" style="fill:none;stroke:#000000;stroke-linecap:square;stroke-linejoin:miter;stroke-width:0.8;"/>
   </g>
   <g id="legend_1">
    <g id="patch_7">
     <path d="M 245.380129 143.426746 
L 425.5 143.426746 
Q 432.5 143.426746 432.5 136.426746 
L 432.5 35.309393 
Q 432.5 28.309393 425.5 28.309393 
L 245.380129 28.309393 
Q 238.380129 28.309393 238.380129 35.309393 
L 238.380129 136.426746 
Q 238.380129 143.426746 245.380129 143.426746 
z
" style="fill:#ffffff;opacity:0.8;stroke:#cccccc;stroke-linejoin:miter;"/>
    </g>
    <g id="line2d_19">
     <path d="M 252.380129 58.085718 
L 322.380129 58.085718 
" style="fill:none;stroke:#1f77b4;stroke-linecap:square;stroke-width:2;"/>
    </g>
    <g id="line2d_20"/>
    <g id="text_8">
     <!-- $x_1(t)$ -->
     <defs>
      <path d="M 47.40625 41 
C 44.203125 40.390625 43 37.984375 43 36.09375 
C 43 33.6875 44.90625 32.890625 46.296875 32.890625 
C 49.296875 32.890625 51.40625 35.484375 51.40625 38.1875 
C 51.40625 42.09375 46.59375 44 42.40625 44 
C 36.296875 44 32.90625 38.296875 32 36.390625 
C 29.703125 43.59375 23.5 44 21.703125 44 
C 11.5 44 6.09375 31.140625 6.09375 28.890625 
C 6.09375 28.484375 6.5 27.96875 7.203125 27.96875 
C 8 27.96875 8.203125 28.578125 8.40625 28.984375 
C 11.796875 40.1875 18.5 41.984375 21.40625 41.984375 
C 25.90625 41.984375 26.796875 38.09375 26.796875 35.6875 
C 26.796875 33.484375 26.203125 31.140625 25 26.21875 
L 21.59375 12.15625 
C 20.09375 6.09375 17.203125 1 11.90625 1 
C 11.40625 1 8.90625 1 6.796875 1.96875 
C 10.40625 2.59375 11.203125 5.59375 11.203125 6.796875 
C 11.203125 8.796875 9.703125 10 7.796875 10 
C 5.40625 10 2.796875 7.890625 2.796875 4.6875 
C 2.796875 0.890625 7.5 -1 11.796875 -1 
C 16.59375 -1 20 2.390625 22.09375 6.484375 
C 23.703125 1 28.703125 -1 32.40625 -1 
C 42.59375 -1 48 11.734375 48 14 
C 48 14.515625 47.59375 14.921875 47 14.921875 
C 46.09375 14.921875 46 14.40625 45.703125 13.59375 
C 43 4.6875 37.203125 1 32.703125 1 
C 29.203125 1 27.296875 3.1875 27.296875 7.296875 
C 27.296875 9.484375 27.703125 11.125 29.296875 17.90625 
L 32.796875 31.859375 
C 34.296875 37.890625 37.703125 41.984375 42.296875 41.984375 
C 42.5 41.984375 45.296875 41.984375 47.40625 41 
z
" id="CMMI12-120"/>
      <path d="M 30.59375 -24.40625 
C 30.59375 -24.3125 30.59375 -24.109375 30.296875 -23.8125 
C 25.703125 -19.109375 13.40625 -6.296875 13.40625 24.9375 
C 13.40625 56.171875 25.5 68.875 30.40625 73.890625 
C 30.40625 73.984375 30.59375 74.1875 30.59375 74.484375 
C 30.59375 74.796875 30.296875 75 29.90625 75 
C 28.796875 75 20.296875 67.578125 15.40625 56.5625 
C 10.40625 45.453125 9 34.65625 9 25.046875 
C 9 17.828125 9.703125 5.625 15.703125 -7.296875 
C 20.5 -17.703125 28.703125 -25 29.90625 -25 
C 30.40625 -25 30.59375 -24.8125 30.59375 -24.40625 
z
" id="CMR17-40"/>
      <path d="M 26.296875 24.9375 
C 26.296875 32.140625 25.59375 44.359375 19.59375 57.265625 
C 14.796875 67.6875 6.59375 75 5.40625 75 
C 5.09375 75 4.703125 74.890625 4.703125 74.390625 
C 4.703125 74.1875 4.796875 74.09375 4.90625 73.890625 
C 9.703125 68.875 21.90625 56.171875 21.90625 25.046875 
C 21.90625 -6.1875 9.796875 -18.90625 4.90625 -23.90625 
C 4.796875 -24.109375 4.703125 -24.203125 4.703125 -24.40625 
C 4.703125 -24.90625 5.09375 -25 5.40625 -25 
C 6.5 -25 15 -17.609375 19.90625 -6.59375 
C 24.90625 4.515625 26.296875 15.328125 26.296875 24.9375 
z
" id="CMR17-41"/>
     </defs>
     <g transform="translate(350.380129 70.335718)scale(0.35 -0.35)">
      <use transform="translate(0 14.943915)scale(0.996264)" xlink:href="#CMMI12-120"/>
      <use transform="translate(55.43406 0)scale(0.697382)" xlink:href="#CMR17-49"/>
      <use transform="translate(87.915374 14.943915)scale(0.996264)" xlink:href="#CMR17-40"/>
      <use transform="translate(123.196141 14.943915)scale(0.996264)" xlink:href="#CMMI12-116"/>
      <use transform="translate(158.422472 14.943915)scale(0.996264)" xlink:href="#CMR17-41"/>
     </g>
    </g>
    <g id="line2d_21">
     <path d="M 252.380129 110.394395 
L 322.380129 110.394395 
" style="fill:none;stroke:#ff7f0e;stroke-linecap:square;stroke-width:2;"/>
    </g>
    <g id="line2d_22"/>
    <g id="text_9">
     <!-- $x_2(t)$ -->
     <g transform="translate(350.380129 122.644395)scale(0.35 -0.35)">
      <use transform="translate(0 14.943915)scale(0.996264)" xlink:href="#CMMI12-120"/>
      <use transform="translate(55.43406 0)scale(0.697382)" xlink:href="#CMR17-50"/>
      <use transform="translate(87.915374 14.943915)scale(0.996264)" xlink:href="#CMR17-40"/>
      <use transform="translate(123.196141 14.943915)scale(0.996264)" xlink:href="#CMMI12-116"/>
      <use transform="translate(158.422472 14.943915)scale(0.996264)" xlink:href="#CMR17-41"/>
     </g>
    </g>
   </g>
  </g>
 </g>
 <defs>
  <clipPath id="p096bd87005">
   <rect height="250.9964" width="389.08773" x="60.91227" y="10.809393"/>
  </clipPath>
 </defs>
</svg>
