<?xml version="1.0" encoding="utf-8" standalone="no"?>
<!DOCTYPE svg PUBLIC "-//W3C//DTD SVG 1.1//EN"
  "http://www.w3.org/Graphics/SVG/1.1/DTD/svg11.dtd">
<svg xmlns:xlink="http://www.w3.org/1999/xlink" width="343.711083pt" height="193.337484pt" viewBox="0 0 343.711083 193.337484" xmlns="http://www.w3.org/2000/svg" version="1.1">
 <metadata>
  <rdf:RDF xmlns:dc="http://purl.org/dc/elements/1.1/" xmlns:cc="http://creativecommons.org/ns#" xmlns:rdf="http://www.w3.org/1999/02/22-rdf-syntax-ns#">
   <cc:Work>
    <dc:type rdf:resource="http://purl.org/dc/dcmitype/StillImage"/>
    <dc:date>2026-02-12T22:39:54.751154</dc:date>
    <dc:format>image/svg+xml</dc:format>
    <dc:creator>
     <cc:Agent>
      <dc:title>Matplotlib v3.10.0, https://matplotlib.org/</dc:title>
     </cc:Agent>
    </dc:creator>
   </cc:Work>
  </rdf:RDF>
 </metadata>
 <defs>
  <style type="text/css">*{stroke-linejoin: round; stroke-linecap: butt}</style>
 </defs>
 <g id="figure_1">
  <g id="patch_1">
   <path d="M 0 193.337484 
L 343.711083 193.337484 
L 343.711083 0 
L 0 0 
z
" style="fill: #ffffff"/>
  </g>
  <g id="axes_1">
   <g id="patch_2">
    <path d="M 38.278823 153.826131 
L 332.911083 153.826131 
L 332.911083 10.8 
L 38.278823 10.8 
z
" style="fill: #ffffff"/>
   </g>
   <g id="matplotlib.axis_1">
    <g id="xtick_1">
     <g id="line2d_1">
      <path d="M 51.671198 153.826131 
L 51.671198 10.8 
" clip-path="url(#ped1c4a4f8f)" style="fill: none; stroke: #b0b0b0; stroke-width: 0.8; stroke-linecap: square"/>
     </g>
     <g id="line2d_2">
      <defs>
       <path id="m1456daca9e" d="M 0 0 
L 0 3.5 
" style="stroke: #000000; stroke-width: 0.8"/>
      </defs>
      <g>
       <use xlink:href="#m1456daca9e" x="51.671198" y="153.826131" style="stroke: #000000; stroke-width: 0.8"/>
      </g>
     </g>
     <g id="text_1">
      <!-- $\mathdefault{0}$ -->
      <g transform="translate(49.180531 167.744629) scale(0.1 -0.1)">
       <defs>
        <path id="CMR17-30" d="M 2688 2038 
C 2688 2430 2682 3099 2413 3613 
C 2176 4063 1798 4224 1466 4224 
C 1158 4224 768 4082 525 3620 
C 269 3137 243 2539 243 2038 
C 243 1671 250 1112 448 623 
C 723 -39 1216 -128 1466 -128 
C 1760 -128 2208 -7 2470 604 
C 2662 1048 2688 1568 2688 2038 
z
M 1466 -26 
C 1056 -26 813 328 723 816 
C 653 1196 653 1749 653 2109 
C 653 2604 653 3015 736 3407 
C 858 3954 1216 4121 1466 4121 
C 1728 4121 2067 3947 2189 3420 
C 2272 3054 2278 2623 2278 2109 
C 2278 1691 2278 1176 2202 797 
C 2067 96 1690 -26 1466 -26 
z
" transform="scale(0.015625)"/>
       </defs>
       <use xlink:href="#CMR17-30" transform="scale(0.996264)"/>
      </g>
     </g>
    </g>
    <g id="xtick_2">
     <g id="line2d_3">
      <path d="M 94.300453 153.826131 
L 94.300453 10.8 
" clip-path="url(#ped1c4a4f8f)" style="fill: none; stroke: #b0b0b0; stroke-width: 0.8; stroke-linecap: square"/>
     </g>
     <g id="line2d_4">
      <g>
       <use xlink:href="#m1456daca9e" x="94.300453" y="153.826131" style="stroke: #000000; stroke-width: 0.8"/>
      </g>
     </g>
     <g id="text_2">
      <!-- $\mathdefault{1}$ -->
      <g transform="translate(91.809786 167.744629) scale(0.1 -0.1)">
       <defs>
        <path id="CMR17-31" d="M 1702 4083 
C 1702 4217 1696 4224 1606 4224 
C 1357 3927 979 3833 621 3820 
C 602 3820 570 3820 563 3808 
C 557 3795 557 3782 557 3648 
C 755 3648 1088 3686 1344 3839 
L 1344 467 
C 1344 243 1331 166 781 166 
L 589 166 
L 589 0 
C 896 6 1216 12 1523 12 
C 1830 12 2150 6 2458 0 
L 2458 166 
L 2266 166 
C 1715 166 1702 236 1702 467 
L 1702 4083 
z
" transform="scale(0.015625)"/>
       </defs>
       <use xlink:href="#CMR17-31" transform="scale(0.996264)"/>
      </g>
     </g>
    </g>
    <g id="xtick_3">
     <g id="line2d_5">
      <path d="M 136.929709 153.826131 
L 136.929709 10.8 
" clip-path="url(#ped1c4a4f8f)" style="fill: none; stroke: #b0b0b0; stroke-width: 0.8; stroke-linecap: square"/>
     </g>
     <g id="line2d_6">
      <g>
       <use xlink:href="#m1456daca9e" x="136.929709" y="153.826131" style="stroke: #000000; stroke-width: 0.8"/>
      </g>
     </g>
     <g id="text_3">
      <!-- $\mathdefault{2}$ -->
      <g transform="translate(134.439041 167.744629) scale(0.1 -0.1)">
       <defs>
        <path id="CMR17-32" d="M 2669 990 
L 2554 990 
C 2490 537 2438 460 2413 422 
C 2381 371 1920 371 1830 371 
L 602 371 
C 832 620 1280 1073 1824 1596 
C 2214 1966 2669 2400 2669 3033 
C 2669 3788 2067 4224 1395 4224 
C 691 4224 262 3603 262 3027 
C 262 2777 448 2745 525 2745 
C 589 2745 781 2783 781 3007 
C 781 3206 614 3264 525 3264 
C 486 3264 448 3257 422 3244 
C 544 3788 915 4057 1306 4057 
C 1862 4057 2227 3616 2227 3033 
C 2227 2477 1901 1998 1536 1583 
L 262 147 
L 262 0 
L 2515 0 
L 2669 990 
z
" transform="scale(0.015625)"/>
       </defs>
       <use xlink:href="#CMR17-32" transform="scale(0.996264)"/>
      </g>
     </g>
    </g>
    <g id="xtick_4">
     <g id="line2d_7">
      <path d="M 179.558964 153.826131 
L 179.558964 10.8 
" clip-path="url(#ped1c4a4f8f)" style="fill: none; stroke: #b0b0b0; stroke-width: 0.8; stroke-linecap: square"/>
     </g>
     <g id="line2d_8">
      <g>
       <use xlink:href="#m1456daca9e" x="179.558964" y="153.826131" style="stroke: #000000; stroke-width: 0.8"/>
      </g>
     </g>
     <g id="text_4">
      <!-- $\mathdefault{3}$ -->
      <g transform="translate(177.068296 167.744629) scale(0.1 -0.1)">
       <defs>
        <path id="CMR17-33" d="M 1414 2176 
C 1984 2176 2234 1673 2234 1094 
C 2234 322 1824 25 1453 25 
C 1114 25 563 193 390 691 
C 422 678 454 678 486 678 
C 640 678 755 780 755 947 
C 755 1132 614 1216 486 1216 
C 378 1216 211 1164 211 927 
C 211 335 787 -128 1466 -128 
C 2176 -128 2720 432 2720 1087 
C 2720 1718 2208 2176 1600 2246 
C 2086 2347 2554 2776 2554 3353 
C 2554 3856 2048 4224 1472 4224 
C 890 4224 378 3862 378 3347 
C 378 3123 544 3084 627 3084 
C 762 3084 877 3167 877 3334 
C 877 3500 762 3584 627 3584 
C 602 3584 570 3584 544 3571 
C 730 3999 1235 4076 1459 4076 
C 1683 4076 2106 3966 2106 3347 
C 2106 3167 2080 2851 1862 2574 
C 1670 2329 1453 2316 1242 2297 
C 1210 2297 1062 2284 1037 2284 
C 992 2278 966 2272 966 2227 
C 966 2182 973 2176 1101 2176 
L 1414 2176 
z
" transform="scale(0.015625)"/>
       </defs>
       <use xlink:href="#CMR17-33" transform="scale(0.996264)"/>
      </g>
     </g>
    </g>
    <g id="xtick_5">
     <g id="line2d_9">
      <path d="M 222.188219 153.826131 
L 222.188219 10.8 
" clip-path="url(#ped1c4a4f8f)" style="fill: none; stroke: #b0b0b0; stroke-width: 0.8; stroke-linecap: square"/>
     </g>
     <g id="line2d_10">
      <g>
       <use xlink:href="#m1456daca9e" x="222.188219" y="153.826131" style="stroke: #000000; stroke-width: 0.8"/>
      </g>
     </g>
     <g id="text_5">
      <!-- $\mathdefault{4}$ -->
      <g transform="translate(219.697551 167.744629) scale(0.1 -0.1)">
       <defs>
        <path id="CMR17-34" d="M 2150 4147 
C 2150 4281 2144 4288 2029 4288 
L 128 1254 
L 128 1088 
L 1779 1088 
L 1779 460 
C 1779 230 1766 166 1318 166 
L 1197 166 
L 1197 0 
C 1402 12 1747 12 1965 12 
C 2182 12 2528 12 2733 0 
L 2733 166 
L 2611 166 
C 2163 166 2150 230 2150 460 
L 2150 1088 
L 2803 1088 
L 2803 1254 
L 2150 1254 
L 2150 4147 
z
M 1798 3723 
L 1798 1254 
L 256 1254 
L 1798 3723 
z
" transform="scale(0.015625)"/>
       </defs>
       <use xlink:href="#CMR17-34" transform="scale(0.996264)"/>
      </g>
     </g>
    </g>
    <g id="xtick_6">
     <g id="line2d_11">
      <path d="M 264.817474 153.826131 
L 264.817474 10.8 
" clip-path="url(#ped1c4a4f8f)" style="fill: none; stroke: #b0b0b0; stroke-width: 0.8; stroke-linecap: square"/>
     </g>
     <g id="line2d_12">
      <g>
       <use xlink:href="#m1456daca9e" x="264.817474" y="153.826131" style="stroke: #000000; stroke-width: 0.8"/>
      </g>
     </g>
     <g id="text_6">
      <!-- $\mathdefault{5}$ -->
      <g transform="translate(262.326806 167.744629) scale(0.1 -0.1)">
       <defs>
        <path id="CMR17-35" d="M 730 3750 
C 794 3724 1056 3641 1325 3641 
C 1920 3641 2246 3961 2432 4140 
C 2432 4191 2432 4224 2394 4224 
C 2387 4224 2374 4224 2323 4198 
C 2099 4102 1837 4032 1517 4032 
C 1325 4032 1037 4055 723 4191 
C 653 4224 640 4224 634 4224 
C 602 4224 595 4217 595 4090 
L 595 2231 
C 595 2113 595 2080 659 2080 
C 691 2080 704 2093 736 2139 
C 941 2435 1222 2560 1542 2560 
C 1766 2560 2246 2415 2246 1293 
C 2246 1087 2246 716 2054 422 
C 1894 159 1645 25 1370 25 
C 947 25 518 319 403 812 
C 429 806 480 793 506 793 
C 589 793 749 838 749 1036 
C 749 1209 627 1280 506 1280 
C 358 1280 262 1190 262 1011 
C 262 454 704 -128 1382 -128 
C 2042 -128 2669 441 2669 1267 
C 2669 2054 2170 2662 1549 2662 
C 1222 2662 947 2540 730 2304 
L 730 3750 
z
" transform="scale(0.015625)"/>
       </defs>
       <use xlink:href="#CMR17-35" transform="scale(0.996264)"/>
      </g>
     </g>
    </g>
    <g id="xtick_7">
     <g id="line2d_13">
      <path d="M 307.446729 153.826131 
L 307.446729 10.8 
" clip-path="url(#ped1c4a4f8f)" style="fill: none; stroke: #b0b0b0; stroke-width: 0.8; stroke-linecap: square"/>
     </g>
     <g id="line2d_14">
      <g>
       <use xlink:href="#m1456daca9e" x="307.446729" y="153.826131" style="stroke: #000000; stroke-width: 0.8"/>
      </g>
     </g>
     <g id="text_7">
      <!-- $\mathdefault{6}$ -->
      <g transform="translate(304.956062 167.744629) scale(0.1 -0.1)">
       <defs>
        <path id="CMR17-36" d="M 678 2198 
C 678 3712 1395 4076 1811 4076 
C 1946 4076 2272 4049 2400 3782 
C 2298 3782 2106 3782 2106 3558 
C 2106 3385 2246 3328 2336 3328 
C 2394 3328 2566 3353 2566 3571 
C 2566 3987 2246 4224 1805 4224 
C 1043 4224 243 3411 243 2011 
C 243 257 966 -128 1478 -128 
C 2099 -128 2688 431 2688 1295 
C 2688 2101 2170 2688 1517 2688 
C 1126 2688 838 2430 678 1979 
L 678 2198 
z
M 1478 25 
C 691 25 691 1212 691 1450 
C 691 1914 909 2585 1504 2585 
C 1613 2585 1926 2585 2138 2140 
C 2253 1889 2253 1624 2253 1302 
C 2253 954 2253 696 2118 438 
C 1978 173 1773 25 1478 25 
z
" transform="scale(0.015625)"/>
       </defs>
       <use xlink:href="#CMR17-36" transform="scale(0.996264)"/>
      </g>
     </g>
    </g>
    <g id="text_8">
     <!-- $t$ -->
     <g transform="translate(183.796141 180.600306) scale(0.1 -0.1)">
      <defs>
       <path id="CMMI12-74" d="M 1286 2566 
L 1875 2566 
C 1997 2566 2061 2566 2061 2681 
C 2061 2752 2022 2752 1894 2752 
L 1331 2752 
L 1568 3664 
C 1594 3752 1594 3764 1594 3808 
C 1594 3910 1510 3968 1427 3968 
C 1376 3968 1229 3948 1178 3746 
L 928 2752 
L 326 2752 
C 198 2752 141 2752 141 2630 
C 141 2566 186 2566 307 2566 
L 877 2566 
L 454 881 
C 403 657 384 593 384 510 
C 384 210 595 -64 954 -64 
C 1600 -64 1946 868 1946 913 
C 1946 951 1920 970 1882 970 
C 1869 970 1843 970 1830 944 
C 1824 938 1818 932 1773 830 
C 1638 510 1344 64 973 64 
C 781 64 768 223 768 364 
C 768 370 768 491 787 568 
L 1286 2566 
z
" transform="scale(0.015625)"/>
      </defs>
      <use xlink:href="#CMMI12-74" transform="scale(0.996264)"/>
     </g>
    </g>
   </g>
   <g id="matplotlib.axis_2">
    <g id="ytick_1">
     <g id="line2d_15">
      <path d="M 38.278823 147.300514 
L 332.911083 147.300514 
" clip-path="url(#ped1c4a4f8f)" style="fill: none; stroke: #b0b0b0; stroke-width: 0.8; stroke-linecap: square"/>
     </g>
     <g id="line2d_16">
      <defs>
       <path id="m6ad04c6e70" d="M 0 0 
L -3.5 0 
" style="stroke: #000000; stroke-width: 0.8"/>
      </defs>
      <g>
       <use xlink:href="#m6ad04c6e70" x="38.278823" y="147.300514" style="stroke: #000000; stroke-width: 0.8"/>
      </g>
     </g>
     <g id="text_9">
      <!-- $\mathdefault{−1.0}$ -->
      <g transform="translate(10.8 150.759763) scale(0.1 -0.1)">
       <defs>
        <path id="CMSY10-0" d="M 4218 1472 
C 4326 1472 4442 1472 4442 1600 
C 4442 1728 4326 1728 4218 1728 
L 755 1728 
C 646 1728 531 1728 531 1600 
C 531 1472 646 1472 755 1472 
L 4218 1472 
z
" transform="scale(0.015625)"/>
        <path id="CMMI12-3a" d="M 1178 307 
C 1178 492 1024 620 870 620 
C 685 620 557 467 557 313 
C 557 128 710 0 864 0 
C 1050 0 1178 153 1178 307 
z
" transform="scale(0.015625)"/>
       </defs>
       <use xlink:href="#CMSY10-0" transform="scale(0.996264)"/>
       <use xlink:href="#CMR17-31" transform="translate(77.487468 0) scale(0.996264)"/>
       <use xlink:href="#CMMI12-3a" transform="translate(123.177945 0) scale(0.996264)"/>
       <use xlink:href="#CMR17-30" transform="translate(150.275122 0) scale(0.996264)"/>
      </g>
     </g>
    </g>
    <g id="ytick_2">
     <g id="line2d_17">
      <path d="M 38.278823 114.800949 
L 332.911083 114.800949 
" clip-path="url(#ped1c4a4f8f)" style="fill: none; stroke: #b0b0b0; stroke-width: 0.8; stroke-linecap: square"/>
     </g>
     <g id="line2d_18">
      <g>
       <use xlink:href="#m6ad04c6e70" x="38.278823" y="114.800949" style="stroke: #000000; stroke-width: 0.8"/>
      </g>
     </g>
     <g id="text_10">
      <!-- $\mathdefault{−0.5}$ -->
      <g transform="translate(10.8 118.260198) scale(0.1 -0.1)">
       <use xlink:href="#CMSY10-0" transform="scale(0.996264)"/>
       <use xlink:href="#CMR17-30" transform="translate(77.487468 0) scale(0.996264)"/>
       <use xlink:href="#CMMI12-3a" transform="translate(123.177945 0) scale(0.996264)"/>
       <use xlink:href="#CMR17-35" transform="translate(150.275122 0) scale(0.996264)"/>
      </g>
     </g>
    </g>
    <g id="ytick_3">
     <g id="line2d_19">
      <path d="M 38.278823 82.301384 
L 332.911083 82.301384 
" clip-path="url(#ped1c4a4f8f)" style="fill: none; stroke: #b0b0b0; stroke-width: 0.8; stroke-linecap: square"/>
     </g>
     <g id="line2d_20">
      <g>
       <use xlink:href="#m6ad04c6e70" x="38.278823" y="82.301384" style="stroke: #000000; stroke-width: 0.8"/>
      </g>
     </g>
     <g id="text_11">
      <!-- $\mathdefault{0.0}$ -->
      <g transform="translate(18.548744 85.760633) scale(0.1 -0.1)">
       <use xlink:href="#CMR17-30" transform="scale(0.996264)"/>
       <use xlink:href="#CMMI12-3a" transform="translate(45.690477 0) scale(0.996264)"/>
       <use xlink:href="#CMR17-30" transform="translate(72.787654 0) scale(0.996264)"/>
      </g>
     </g>
    </g>
    <g id="ytick_4">
     <g id="line2d_21">
      <path d="M 38.278823 49.801818 
L 332.911083 49.801818 
" clip-path="url(#ped1c4a4f8f)" style="fill: none; stroke: #b0b0b0; stroke-width: 0.8; stroke-linecap: square"/>
     </g>
     <g id="line2d_22">
      <g>
       <use xlink:href="#m6ad04c6e70" x="38.278823" y="49.801818" style="stroke: #000000; stroke-width: 0.8"/>
      </g>
     </g>
     <g id="text_12">
      <!-- $\mathdefault{0.5}$ -->
      <g transform="translate(18.548744 53.261068) scale(0.1 -0.1)">
       <use xlink:href="#CMR17-30" transform="scale(0.996264)"/>
       <use xlink:href="#CMMI12-3a" transform="translate(45.690477 0) scale(0.996264)"/>
       <use xlink:href="#CMR17-35" transform="translate(72.787654 0) scale(0.996264)"/>
      </g>
     </g>
    </g>
    <g id="ytick_5">
     <g id="line2d_23">
      <path d="M 38.278823 17.302253 
L 332.911083 17.302253 
" clip-path="url(#ped1c4a4f8f)" style="fill: none; stroke: #b0b0b0; stroke-width: 0.8; stroke-linecap: square"/>
     </g>
     <g id="line2d_24">
      <g>
       <use xlink:href="#m6ad04c6e70" x="38.278823" y="17.302253" style="stroke: #000000; stroke-width: 0.8"/>
      </g>
     </g>
     <g id="text_13">
      <!-- $\mathdefault{1.0}$ -->
      <g transform="translate(18.548744 20.761503) scale(0.1 -0.1)">
       <use xlink:href="#CMR17-31" transform="scale(0.996264)"/>
       <use xlink:href="#CMMI12-3a" transform="translate(45.690477 0) scale(0.996264)"/>
       <use xlink:href="#CMR17-30" transform="translate(72.787654 0) scale(0.996264)"/>
      </g>
     </g>
    </g>
   </g>
   <g id="line2d_25">
    <path d="M 51.671198 17.302253 
L 54.084239 17.406359 
L 56.497279 17.718343 
L 58.91032 18.237045 
L 61.591476 19.05373 
L 64.272633 20.12044 
L 66.953789 21.433123 
L 69.634945 22.986732 
L 72.584217 24.966729 
L 75.533489 27.221478 
L 78.750876 29.981716 
L 81.968264 33.039814 
L 85.453767 36.667909 
L 89.207386 40.914908 
L 93.22912 45.81941 
L 97.51897 51.406652 
L 102.345051 58.063321 
L 107.97548 66.218176 
L 115.750833 77.917006 
L 130.497192 100.180413 
L 136.395736 108.63671 
L 141.221817 115.185081 
L 145.511667 120.652352 
L 149.533401 125.425041 
L 153.28702 129.53389 
L 156.772523 133.022412 
L 159.989911 135.942717 
L 163.207298 138.557924 
L 166.15657 140.674018 
L 169.105842 142.5128 
L 171.786998 143.937027 
L 174.468155 145.118544 
L 177.149311 146.051706 
L 179.830467 146.732065 
L 182.243508 147.12553 
L 184.656548 147.310032 
L 187.069589 147.284814 
L 189.48263 147.049902 
L 191.89567 146.606107 
L 194.308711 145.955026 
L 196.989867 144.991409 
L 199.671023 143.779241 
L 202.35218 142.324119 
L 205.301452 140.451017 
L 208.250723 138.302845 
L 211.199995 135.888748 
L 214.417383 132.964013 
L 217.902886 129.471277 
L 221.388389 125.663506 
L 225.142008 121.23889 
L 229.163742 116.162593 
L 233.721708 110.044807 
L 238.815905 102.832033 
L 245.25068 93.315977 
L 258.656461 72.952064 
L 266.163698 61.825379 
L 271.794127 53.879947 
L 276.620208 47.457962 
L 280.910058 42.120291 
L 284.663677 37.780937 
L 288.14918 34.060399 
L 291.634683 30.663622 
L 294.85207 27.833034 
L 297.801342 25.510312 
L 300.750614 23.459741 
L 303.699886 21.691372 
L 306.381042 20.335831 
L 309.062199 19.225828 
L 311.743355 18.365575 
L 314.424511 17.758222 
L 316.837552 17.429585 
L 319.250592 17.308294 
L 319.518708 17.307627 
L 319.518708 17.307627 
" clip-path="url(#ped1c4a4f8f)" style="fill: none; stroke: #1f77b4; stroke-linecap: square"/>
   </g>
   <g id="line2d_26">
    <path d="M 51.671198 82.301384 
L 62.932054 65.328777 
L 68.830598 56.836068 
L 73.924795 49.888709 
L 78.214645 44.393209 
L 82.236379 39.588204 
L 85.989998 35.444422 
L 89.475501 31.91746 
L 92.692889 28.958811 
L 95.910276 26.304238 
L 98.859548 24.151797 
L 101.80882 22.279142 
L 104.489976 20.827211 
L 107.171133 19.619739 
L 109.852289 18.66131 
L 112.533445 17.955409 
L 114.946486 17.538 
L 117.359526 17.328056 
L 119.772567 17.325828 
L 122.185608 17.530846 
L 124.598648 17.941911 
L 127.279805 18.638314 
L 129.960961 19.58487 
L 132.642117 20.778534 
L 135.323273 22.215255 
L 138.00443 23.889972 
L 140.953701 25.999771 
L 143.902973 28.380693 
L 147.120361 31.274355 
L 150.337748 34.461364 
L 153.823251 38.223682 
L 157.57687 42.606363 
L 161.598605 47.642521 
L 166.15657 53.714328 
L 171.250767 60.878842 
L 177.417426 69.950402 
L 187.60582 85.407153 
L 197.257983 99.907594 
L 203.156527 108.376441 
L 207.982608 114.938814 
L 212.272458 120.423877 
L 216.294192 125.219266 
L 220.047811 129.350798 
L 223.533314 132.859768 
L 226.750702 135.797729 
L 229.968089 138.429502 
L 232.917361 140.560438 
L 235.866633 142.411951 
L 238.547789 143.84557 
L 241.228945 145.035992 
L 243.910102 145.978872 
L 246.591258 146.670826 
L 249.004298 147.077631 
L 251.417339 147.27897 
L 253.83038 147.273435 
L 256.24342 147.060355 
L 258.656461 146.639811 
L 261.069502 146.012629 
L 263.750658 145.075351 
L 266.431814 143.888176 
L 269.11297 142.455493 
L 271.794127 140.78283 
L 274.743399 138.673719 
L 277.69267 136.292801 
L 280.910058 133.399755 
L 284.127445 130.215753 
L 287.612949 126.461799 
L 291.366567 122.095745 
L 295.388302 117.077507 
L 299.946267 111.0192 
L 305.040464 103.863739 
L 311.207124 94.799526 
L 319.518708 82.203778 
L 319.518708 82.203778 
" clip-path="url(#ped1c4a4f8f)" style="fill: none; stroke: #ff7f0e; stroke-linecap: square"/>
   </g>
   <g id="line2d_27">
    <defs>
     <path id="m89d6a077cc" d="M 0 1.5 
C 0.397805 1.5 0.77937 1.341951 1.06066 1.06066 
C 1.341951 0.77937 1.5 0.397805 1.5 0 
C 1.5 -0.397805 1.341951 -0.77937 1.06066 -1.06066 
C 0.77937 -1.341951 0.397805 -1.5 0 -1.5 
C -0.397805 -1.5 -0.77937 -1.341951 -1.06066 -1.06066 
C -1.341951 -0.77937 -1.5 -0.397805 -1.5 0 
C -1.5 0.397805 -1.341951 0.77937 -1.06066 1.06066 
C -0.77937 1.341951 -0.397805 1.5 0 1.5 
z
" style="stroke: #1f77b4"/>
    </defs>
    <g clip-path="url(#ped1c4a4f8f)">
     <use xlink:href="#m89d6a077cc" x="51.671198" y="17.302253" style="fill: #1f77b4; stroke: #1f77b4"/>
     <use xlink:href="#m89d6a077cc" x="51.713785" y="17.302286" style="fill: #1f77b4; stroke: #1f77b4"/>
     <use xlink:href="#m89d6a077cc" x="52.139652" y="17.306178" style="fill: #1f77b4; stroke: #1f77b4"/>
     <use xlink:href="#m89d6a077cc" x="56.398318" y="17.701472" style="fill: #1f77b4; stroke: #1f77b4"/>
     <use xlink:href="#m89d6a077cc" x="84.07585" y="35.195879" style="fill: #1f77b4; stroke: #1f77b4"/>
     <use xlink:href="#m89d6a077cc" x="123.862376" y="90.270774" style="fill: #1f77b4; stroke: #1f77b4"/>
     <use xlink:href="#m89d6a077cc" x="165.998262" y="140.567448" style="fill: #1f77b4; stroke: #1f77b4"/>
     <use xlink:href="#m89d6a077cc" x="207.800786" y="138.647913" style="fill: #1f77b4; stroke: #1f77b4"/>
     <use xlink:href="#m89d6a077cc" x="246.82248" y="90.94663" style="fill: #1f77b4; stroke: #1f77b4"/>
     <use xlink:href="#m89d6a077cc" x="289.41892" y="32.784428" style="fill: #1f77b4; stroke: #1f77b4"/>
     <use xlink:href="#m89d6a077cc" x="319.518708" y="17.307627" style="fill: #1f77b4; stroke: #1f77b4"/>
    </g>
   </g>
   <g id="line2d_28">
    <defs>
     <path id="m4f45582cd8" d="M 0 1.5 
C 0.397805 1.5 0.77937 1.341951 1.06066 1.06066 
C 1.341951 0.77937 1.5 0.397805 1.5 0 
C 1.5 -0.397805 1.341951 -0.77937 1.06066 -1.06066 
C 0.77937 -1.341951 0.397805 -1.5 0 -1.5 
C -0.397805 -1.5 -0.77937 -1.341951 -1.06066 -1.06066 
C -1.341951 -0.77937 -1.5 -0.397805 -1.5 0 
C -1.5 0.397805 -1.341951 0.77937 -1.06066 1.06066 
C -0.77937 1.341951 -0.397805 1.5 0 1.5 
z
" style="stroke: #ff7f0e"/>
    </defs>
    <g clip-path="url(#ped1c4a4f8f)">
     <use xlink:href="#m4f45582cd8" x="51.671198" y="82.301384" style="fill: #ff7f0e; stroke: #ff7f0e"/>
     <use xlink:href="#m4f45582cd8" x="51.713785" y="82.236449" style="fill: #ff7f0e; stroke: #ff7f0e"/>
     <use xlink:href="#m4f45582cd8" x="52.139652" y="81.587122" style="fill: #ff7f0e; stroke: #ff7f0e"/>
     <use xlink:href="#m4f45582cd8" x="56.398318" y="75.10845" style="fill: #ff7f0e; stroke: #ff7f0e"/>
     <use xlink:href="#m4f45582cd8" x="84.07585" y="37.514532" style="fill: #ff7f0e; stroke: #ff7f0e"/>
     <use xlink:href="#m4f45582cd8" x="123.862376" y="17.794745" style="fill: #ff7f0e; stroke: #ff7f0e"/>
     <use xlink:href="#m4f45582cd8" x="165.998262" y="53.49775" style="fill: #ff7f0e; stroke: #ff7f0e"/>
     <use xlink:href="#m4f45582cd8" x="207.800786" y="114.698774" style="fill: #ff7f0e; stroke: #ff7f0e"/>
     <use xlink:href="#m4f45582cd8" x="246.82248" y="146.718661" style="fill: #ff7f0e; stroke: #ff7f0e"/>
     <use xlink:href="#m4f45582cd8" x="289.41892" y="124.401331" style="fill: #ff7f0e; stroke: #ff7f0e"/>
     <use xlink:href="#m4f45582cd8" x="319.518708" y="82.203778" style="fill: #ff7f0e; stroke: #ff7f0e"/>
    </g>
   </g>
   <g id="patch_3">
    <path d="M 38.278823 153.826131 
L 38.278823 10.8 
" style="fill: none; stroke: #000000; stroke-width: 0.8; stroke-linejoin: miter; stroke-linecap: square"/>
   </g>
   <g id="patch_4">
    <path d="M 332.911083 153.826131 
L 332.911083 10.8 
" style="fill: none; stroke: #000000; stroke-width: 0.8; stroke-linejoin: miter; stroke-linecap: square"/>
   </g>
   <g id="patch_5">
    <path d="M 38.278823 153.826131 
L 332.911083 153.826131 
" style="fill: none; stroke: #000000; stroke-width: 0.8; stroke-linejoin: miter; stroke-linecap: square"/>
   </g>
   <g id="patch_6">
    <path d="M 38.278823 10.8 
L 332.911083 10.8 
" style="fill: none; stroke: #000000; stroke-width: 0.8; stroke-linejoin: miter; stroke-linecap: square"/>
   </g>
   <g id="legend_1">
    <g id="patch_7">
     <path d="M 45.278823 148.826131 
L 98.788478 148.826131 
Q 100.788478 148.826131 100.788478 146.826131 
L 100.788478 117.900851 
Q 100.788478 115.900851 98.788478 115.900851 
L 45.278823 115.900851 
Q 43.278823 115.900851 43.278823 117.900851 
L 43.278823 146.826131 
Q 43.278823 148.826131 45.278823 148.826131 
z
" style="fill: #ffffff; opacity: 0.8; stroke: #cccccc; stroke-linejoin: miter"/>
    </g>
    <g id="line2d_29">
     <path d="M 47.278823 123.872831 
L 57.278823 123.872831 
L 67.278823 123.872831 
" style="fill: none; stroke: #1f77b4; stroke-linecap: square"/>
    </g>
    <g id="text_14">
     <!-- $x_1(t)$ -->
     <g transform="translate(75.278823 127.372831) scale(0.1 -0.1)">
      <defs>
       <path id="CMMI12-78" d="M 3034 2624 
C 2829 2585 2752 2431 2752 2310 
C 2752 2156 2874 2105 2963 2105 
C 3155 2105 3290 2271 3290 2444 
C 3290 2694 2982 2816 2714 2816 
C 2323 2816 2106 2451 2048 2329 
C 1901 2790 1504 2816 1389 2816 
C 736 2816 390 1993 390 1849 
C 390 1823 416 1790 461 1790 
C 512 1790 525 1829 538 1855 
C 755 2572 1184 2687 1370 2687 
C 1658 2687 1715 2438 1715 2284 
C 1715 2143 1677 1993 1600 1678 
L 1382 778 
C 1286 390 1101 64 762 64 
C 730 64 570 64 435 126 
C 666 166 717 358 717 435 
C 717 563 621 640 499 640 
C 346 640 179 505 179 300 
C 179 57 480 -64 755 -64 
C 1062 -64 1280 153 1414 415 
C 1517 64 1837 -64 2074 -64 
C 2726 -64 3072 751 3072 896 
C 3072 929 3046 955 3008 955 
C 2950 955 2944 922 2925 870 
C 2752 300 2381 64 2093 64 
C 1869 64 1747 204 1747 467 
C 1747 607 1773 712 1875 1146 
L 2099 2039 
C 2195 2425 2413 2687 2707 2687 
C 2720 2687 2899 2687 3034 2624 
z
" transform="scale(0.015625)"/>
       <path id="CMR17-28" d="M 1958 -1562 
C 1958 -1556 1958 -1543 1939 -1524 
C 1645 -1223 858 -403 858 1596 
C 858 3595 1632 4408 1946 4729 
C 1946 4735 1958 4748 1958 4767 
C 1958 4787 1939 4800 1914 4800 
C 1843 4800 1299 4325 986 3620 
C 666 2909 576 2218 576 1603 
C 576 1141 621 360 1005 -467 
C 1312 -1133 1837 -1600 1914 -1600 
C 1946 -1600 1958 -1588 1958 -1562 
z
" transform="scale(0.015625)"/>
       <path id="CMR17-29" d="M 1683 1596 
C 1683 2057 1638 2839 1254 3665 
C 947 4332 422 4800 346 4800 
C 326 4800 301 4793 301 4761 
C 301 4748 307 4742 314 4729 
C 621 4408 1402 3595 1402 1603 
C 1402 -396 627 -1210 314 -1530 
C 307 -1543 301 -1549 301 -1562 
C 301 -1594 326 -1600 346 -1600 
C 416 -1600 960 -1127 1274 -422 
C 1594 289 1683 981 1683 1596 
z
" transform="scale(0.015625)"/>
      </defs>
      <use xlink:href="#CMMI12-78" transform="scale(0.996264)"/>
      <use xlink:href="#CMR17-31" transform="translate(55.43406 -14.943915) scale(0.697382)"/>
      <use xlink:href="#CMR17-28" transform="translate(87.915374 0) scale(0.996264)"/>
      <use xlink:href="#CMMI12-74" transform="translate(123.196141 0) scale(0.996264)"/>
      <use xlink:href="#CMR17-29" transform="translate(158.422472 0) scale(0.996264)"/>
     </g>
    </g>
    <g id="line2d_30">
     <path d="M 47.278823 138.835471 
L 57.278823 138.835471 
L 67.278823 138.835471 
" style="fill: none; stroke: #ff7f0e; stroke-linecap: square"/>
    </g>
    <g id="text_15">
     <!-- $x_2(t)$ -->
     <g transform="translate(75.278823 142.335471) scale(0.1 -0.1)">
      <use xlink:href="#CMMI12-78" transform="scale(0.996264)"/>
      <use xlink:href="#CMR17-32" transform="translate(55.43406 -14.943915) scale(0.697382)"/>
      <use xlink:href="#CMR17-28" transform="translate(87.915374 0) scale(0.996264)"/>
      <use xlink:href="#CMMI12-74" transform="translate(123.196141 0) scale(0.996264)"/>
      <use xlink:href="#CMR17-29" transform="translate(158.422472 0) scale(0.996264)"/>
     </g>
    </g>
   </g>
  </g>
 </g>
 <defs>
  <clipPath id="ped1c4a4f8f">
   <rect x="38.278823" y="10.8" width="294.632261" height="143.026131"/>
  </clipPath>
 </defs>
</svg>
