<?xml version="1.0" encoding="utf-8" standalone="no"?>
<!DOCTYPE svg PUBLIC "-//W3C//DTD SVG 1.1//EN"
  "http://www.w3.org/Graphics/SVG/1.1/DTD/svg11.dtd">
<!-- Created with matplotlib (https://matplotlib.org/) -->
<svg height="345.6pt" version="1.1" viewBox="0 0 460.8 345.6" width="460.8pt" xmlns="http://www.w3.org/2000/svg" xmlns:xlink="http://www.w3.org/1999/xlink">
 <defs>
  <style type="text/css">
*{stroke-linecap:butt;stroke-linejoin:round;}
  </style>
 </defs>
 <g id="figure_1">
  <g id="patch_1">
   <path d="M 0 345.6 
L 460.8 345.6 
L 460.8 0 
L 0 0 
z
" style="fill:#ffffff;"/>
  </g>
  <g id="axes_1">
   <g id="patch_2">
    <path d="M 60.91227 261.805794 
L 450 261.805794 
L 450 10.811376 
L 60.91227 10.811376 
z
" style="fill:#ffffff;"/>
   </g>
   <g id="matplotlib.axis_1">
    <g id="xtick_1">
     <g id="line2d_1">
      <path clip-path="url(#p8740afe2ca)" d="M 78.598076 261.805794 
L 78.598076 10.811376 
" style="fill:none;stroke:#b0b0b0;stroke-linecap:square;stroke-width:0.8;"/>
     </g>
     <g id="line2d_2">
      <defs>
       <path d="M 0 0 
L 0 3.5 
" id="m55e77c5607" style="stroke:#000000;stroke-width:0.8;"/>
      </defs>
      <g>
       <use style="stroke:#000000;stroke-width:0.8;" x="78.598076" xlink:href="#m55e77c5607" y="261.805794"/>
      </g>
     </g>
     <g id="text_1">
      <!-- $0.0$ -->
      <defs>
       <path d="M 42 31.84375 
C 42 37.96875 41.90625 48.421875 37.703125 56.453125 
C 34 63.484375 28.09375 66 22.90625 66 
C 18.09375 66 12 63.78125 8.203125 56.5625 
C 4.203125 49.015625 3.796875 39.671875 3.796875 31.84375 
C 3.796875 26.109375 3.90625 17.375 7 9.734375 
C 11.296875 -0.609375 19 -2 22.90625 -2 
C 27.5 -2 34.5 -0.109375 38.59375 9.4375 
C 41.59375 16.375 42 24.5 42 31.84375 
z
M 22.90625 -0.40625 
C 16.5 -0.40625 12.703125 5.125 11.296875 12.75 
C 10.203125 18.6875 10.203125 27.328125 10.203125 32.953125 
C 10.203125 40.6875 10.203125 47.109375 11.5 53.234375 
C 13.40625 61.78125 19 64.390625 22.90625 64.390625 
C 27 64.390625 32.296875 61.671875 34.203125 53.4375 
C 35.5 47.71875 35.59375 40.984375 35.59375 32.953125 
C 35.59375 26.421875 35.59375 18.375 34.40625 12.453125 
C 32.296875 1.5 26.40625 -0.40625 22.90625 -0.40625 
z
" id="CMR17-48"/>
       <path d="M 18.40625 4.796875 
C 18.40625 7.6875 16 9.6875 13.59375 9.6875 
C 10.703125 9.6875 8.703125 7.296875 8.703125 4.890625 
C 8.703125 2 11.09375 0 13.5 0 
C 16.40625 0 18.40625 2.390625 18.40625 4.796875 
z
" id="CMMI12-58"/>
      </defs>
      <g transform="translate(57.864403 293.020546)scale(0.35 -0.35)">
       <use transform="scale(0.996264)" xlink:href="#CMR17-48"/>
       <use transform="translate(45.690477 0)scale(0.996264)" xlink:href="#CMMI12-58"/>
       <use transform="translate(72.787654 0)scale(0.996264)" xlink:href="#CMR17-48"/>
      </g>
     </g>
    </g>
    <g id="xtick_2">
     <g id="line2d_3">
      <path clip-path="url(#p8740afe2ca)" d="M 219.337248 261.805794 
L 219.337248 10.811376 
" style="fill:none;stroke:#b0b0b0;stroke-linecap:square;stroke-width:0.8;"/>
     </g>
     <g id="line2d_4">
      <g>
       <use style="stroke:#000000;stroke-width:0.8;" x="219.337248" xlink:href="#m55e77c5607" y="261.805794"/>
      </g>
     </g>
     <g id="text_2">
      <!-- $2.5$ -->
      <defs>
       <path d="M 41.703125 15.46875 
L 39.90625 15.46875 
C 38.90625 8.390625 38.09375 7.1875 37.703125 6.59375 
C 37.203125 5.796875 30 5.796875 28.59375 5.796875 
L 9.40625 5.796875 
C 13 9.6875 20 16.765625 28.5 24.9375 
C 34.59375 30.71875 41.703125 37.5 41.703125 47.390625 
C 41.703125 59.1875 32.296875 66 21.796875 66 
C 10.796875 66 4.09375 56.296875 4.09375 47.296875 
C 4.09375 43.390625 7 42.890625 8.203125 42.890625 
C 9.203125 42.890625 12.203125 43.484375 12.203125 46.984375 
C 12.203125 50.09375 9.59375 51 8.203125 51 
C 7.59375 51 7 50.890625 6.59375 50.6875 
C 8.5 59.1875 14.296875 63.390625 20.40625 63.390625 
C 29.09375 63.390625 34.796875 56.5 34.796875 47.390625 
C 34.796875 38.703125 29.703125 31.21875 24 24.734375 
L 4.09375 2.296875 
L 4.09375 0 
L 39.296875 0 
z
" id="CMR17-50"/>
       <path d="M 11.40625 58.59375 
C 12.40625 58.1875 16.5 56.890625 20.703125 56.890625 
C 30 56.890625 35.09375 61.890625 38 64.6875 
C 38 65.484375 38 66 37.40625 66 
C 37.296875 66 37.09375 66 36.296875 65.59375 
C 32.796875 64.09375 28.703125 63 23.703125 63 
C 20.703125 63 16.203125 63.359375 11.296875 65.484375 
C 10.203125 66 10 66 9.90625 66 
C 9.40625 66 9.296875 65.890625 9.296875 63.90625 
L 9.296875 34.859375 
C 9.296875 33.015625 9.296875 32.5 10.296875 32.5 
C 10.796875 32.5 11 32.703125 11.5 33.421875 
C 14.703125 38.046875 19.09375 40 24.09375 40 
C 27.59375 40 35.09375 37.734375 35.09375 20.203125 
C 35.09375 16.984375 35.09375 11.1875 32.09375 6.59375 
C 29.59375 2.484375 25.703125 0.390625 21.40625 0.390625 
C 14.796875 0.390625 8.09375 4.984375 6.296875 12.6875 
C 6.703125 12.59375 7.5 12.390625 7.90625 12.390625 
C 9.203125 12.390625 11.703125 13.09375 11.703125 16.1875 
C 11.703125 18.890625 9.796875 20 7.90625 20 
C 5.59375 20 4.09375 18.59375 4.09375 15.796875 
C 4.09375 7.09375 11 -2 21.59375 -2 
C 31.90625 -2 41.703125 6.890625 41.703125 19.796875 
C 41.703125 32.09375 33.90625 41.59375 24.203125 41.59375 
C 19.09375 41.59375 14.796875 39.6875 11.40625 36 
z
" id="CMR17-53"/>
      </defs>
      <g transform="translate(198.603575 293.020546)scale(0.35 -0.35)">
       <use transform="scale(0.996264)" xlink:href="#CMR17-50"/>
       <use transform="translate(45.690477 0)scale(0.996264)" xlink:href="#CMMI12-58"/>
       <use transform="translate(72.787654 0)scale(0.996264)" xlink:href="#CMR17-53"/>
      </g>
     </g>
    </g>
    <g id="xtick_3">
     <g id="line2d_5">
      <path clip-path="url(#p8740afe2ca)" d="M 360.076419 261.805794 
L 360.076419 10.811376 
" style="fill:none;stroke:#b0b0b0;stroke-linecap:square;stroke-width:0.8;"/>
     </g>
     <g id="line2d_6">
      <g>
       <use style="stroke:#000000;stroke-width:0.8;" x="360.076419" xlink:href="#m55e77c5607" y="261.805794"/>
      </g>
     </g>
     <g id="text_3">
      <!-- $5.0$ -->
      <g transform="translate(339.342746 293.020546)scale(0.35 -0.35)">
       <use transform="scale(0.996264)" xlink:href="#CMR17-53"/>
       <use transform="translate(45.690477 0)scale(0.996264)" xlink:href="#CMMI12-58"/>
       <use transform="translate(72.787654 0)scale(0.996264)" xlink:href="#CMR17-48"/>
      </g>
     </g>
    </g>
    <g id="text_4">
     <!-- $t$ -->
     <defs>
      <path d="M 20.09375 40.09375 
L 29.296875 40.09375 
C 31.203125 40.09375 32.203125 40.09375 32.203125 41.890625 
C 32.203125 43 31.59375 43 29.59375 43 
L 20.796875 43 
L 24.5 57.25 
C 24.90625 58.625 24.90625 58.8125 24.90625 59.5 
C 24.90625 61.09375 23.59375 62 22.296875 62 
C 21.5 62 19.203125 61.6875 18.40625 58.53125 
L 14.5 43 
L 5.09375 43 
C 3.09375 43 2.203125 43 2.203125 41.09375 
C 2.203125 40.09375 2.90625 40.09375 4.796875 40.09375 
L 13.703125 40.09375 
L 7.09375 13.765625 
C 6.296875 10.265625 6 9.265625 6 7.96875 
C 6 3.28125 9.296875 -1 14.90625 -1 
C 25 -1 30.40625 13.5625 30.40625 14.265625 
C 30.40625 14.859375 30 15.15625 29.40625 15.15625 
C 29.203125 15.15625 28.796875 15.15625 28.59375 14.75 
C 28.5 14.65625 28.40625 14.5625 27.703125 12.96875 
C 25.59375 7.96875 21 1 15.203125 1 
C 12.203125 1 12 3.484375 12 5.6875 
C 12 5.78125 12 7.671875 12.296875 8.875 
z
" id="CMMI12-116"/>
     </defs>
     <g transform="translate(249.291531 328.017649)scale(0.35 -0.35)">
      <use transform="scale(0.996264)" xlink:href="#CMMI12-116"/>
     </g>
    </g>
   </g>
   <g id="matplotlib.axis_2">
    <g id="ytick_1">
     <g id="line2d_7">
      <path clip-path="url(#p8740afe2ca)" d="M 60.91227 250.397098 
L 450 250.397098 
" style="fill:none;stroke:#b0b0b0;stroke-linecap:square;stroke-width:0.8;"/>
     </g>
     <g id="line2d_8">
      <defs>
       <path d="M 0 0 
L -3.5 0 
" id="m56e94d20d6" style="stroke:#000000;stroke-width:0.8;"/>
      </defs>
      <g>
       <use style="stroke:#000000;stroke-width:0.8;" x="60.91227" xlink:href="#m56e94d20d6" y="250.397098"/>
      </g>
     </g>
     <g id="text_5">
      <!-- $-1$ -->
      <defs>
       <path d="M 65.90625 23 
C 67.59375 23 69.40625 23 69.40625 25 
C 69.40625 27 67.59375 27 65.90625 27 
L 11.796875 27 
C 10.09375 27 8.296875 27 8.296875 25 
C 8.296875 23 10.09375 23 11.796875 23 
z
" id="CMSY10-0"/>
       <path d="M 26.59375 63.796875 
C 26.59375 65.890625 26.5 66 25.09375 66 
C 21.203125 61.359375 15.296875 59.890625 9.703125 59.6875 
C 9.40625 59.6875 8.90625 59.6875 8.796875 59.5 
C 8.703125 59.296875 8.703125 59.09375 8.703125 57 
C 11.796875 57 17 57.59375 21 59.984375 
L 21 7.296875 
C 21 3.796875 20.796875 2.59375 12.203125 2.59375 
L 9.203125 2.59375 
L 9.203125 0 
C 14 0.09375 19 0.1875 23.796875 0.1875 
C 28.59375 0.1875 33.59375 0.09375 38.40625 0 
L 38.40625 2.59375 
L 35.40625 2.59375 
C 26.796875 2.59375 26.59375 3.6875 26.59375 7.296875 
z
" id="CMR17-49"/>
      </defs>
      <g transform="translate(10.8 262.504474)scale(0.35 -0.35)">
       <use transform="scale(0.996264)" xlink:href="#CMSY10-0"/>
       <use transform="translate(77.487468 0)scale(0.996264)" xlink:href="#CMR17-49"/>
      </g>
     </g>
    </g>
    <g id="ytick_2">
     <g id="line2d_9">
      <path clip-path="url(#p8740afe2ca)" d="M 60.91227 136.308655 
L 450 136.308655 
" style="fill:none;stroke:#b0b0b0;stroke-linecap:square;stroke-width:0.8;"/>
     </g>
     <g id="line2d_10">
      <g>
       <use style="stroke:#000000;stroke-width:0.8;" x="60.91227" xlink:href="#m56e94d20d6" y="136.308655"/>
      </g>
     </g>
     <g id="text_6">
      <!-- $0$ -->
      <g transform="translate(37.920603 148.416031)scale(0.35 -0.35)">
       <use transform="scale(0.996264)" xlink:href="#CMR17-48"/>
      </g>
     </g>
    </g>
    <g id="ytick_3">
     <g id="line2d_11">
      <path clip-path="url(#p8740afe2ca)" d="M 60.91227 22.220213 
L 450 22.220213 
" style="fill:none;stroke:#b0b0b0;stroke-linecap:square;stroke-width:0.8;"/>
     </g>
     <g id="line2d_12">
      <g>
       <use style="stroke:#000000;stroke-width:0.8;" x="60.91227" xlink:href="#m56e94d20d6" y="22.220213"/>
      </g>
     </g>
     <g id="text_7">
      <!-- $1$ -->
      <g transform="translate(37.920603 34.327589)scale(0.35 -0.35)">
       <use transform="scale(0.996264)" xlink:href="#CMR17-49"/>
      </g>
     </g>
    </g>
   </g>
   <g id="line2d_13">
    <path clip-path="url(#p8740afe2ca)" d="M 78.598076 22.220213 
L 81.076567 22.330765 
L 83.555059 22.662207 
L 86.03355 23.213895 
L 88.512041 23.984762 
L 90.990533 24.973313 
L 93.469024 26.177633 
L 96.301585 27.815191 
L 99.134147 29.727362 
L 101.966708 31.909306 
L 104.79927 34.3555 
L 107.985902 37.415594 
L 111.172533 40.792472 
L 114.359165 44.475318 
L 117.899867 48.911838 
L 121.440569 53.693964 
L 125.335341 59.330869 
L 129.584183 65.899289 
L 134.187096 73.466232 
L 139.144078 82.083306 
L 144.455131 91.780293 
L 150.474324 103.244178 
L 157.909798 117.912246 
L 171.010395 144.37443 
L 181.278431 164.882804 
L 188.005764 177.846673 
L 193.670887 188.311404 
L 198.62787 197.039911 
L 203.230782 204.724996 
L 207.479624 211.414308 
L 211.728467 217.676001 
L 215.623239 223.009739 
L 219.163941 227.499253 
L 222.704643 231.628158 
L 225.891274 235.022328 
L 229.077906 238.100288 
L 232.264538 240.852179 
L 235.097099 243.017416 
L 237.929661 244.912559 
L 240.762222 246.532809 
L 243.594784 247.874065 
L 246.073275 248.816117 
L 248.551766 249.540128 
L 251.030258 250.044697 
L 253.508749 250.328844 
L 255.98724 250.39202 
L 258.465732 250.234102 
L 260.944223 249.855396 
L 263.422714 249.256636 
L 265.901206 248.438982 
L 268.379697 247.40402 
L 271.212258 245.957705 
L 274.04482 244.233852 
L 276.877381 242.236825 
L 279.709943 239.971678 
L 282.542504 237.444145 
L 285.729136 234.295028 
L 288.915768 230.832031 
L 292.45647 226.629651 
L 295.997172 222.070101 
L 299.891944 216.663626 
L 303.786716 210.872688 
L 308.035558 204.149428 
L 312.63847 196.43127 
L 317.595453 187.671699 
L 323.260576 177.177549 
L 329.633839 164.882804 
L 337.777454 148.662234 
L 360.083876 103.931588 
L 366.457139 91.780293 
L 372.122262 81.453056 
L 377.079245 72.86859 
L 381.682157 65.336078 
L 385.930999 58.802786 
L 389.825771 53.200728 
L 393.720544 47.996304 
L 397.261245 43.631055 
L 400.801947 39.632295 
L 403.988579 36.359859 
L 407.175211 33.407589 
L 410.007772 31.059799 
L 412.840334 28.978409 
L 415.672895 27.168688 
L 418.505457 25.635216 
L 421.338018 24.381874 
L 423.81651 23.517506 
L 426.295001 22.871728 
L 428.773492 22.445791 
L 431.251984 22.240521 
L 432.314194 22.220213 
L 432.314194 22.220213 
" style="fill:none;stroke:#000000;stroke-dasharray:5.55,2.4;stroke-dashoffset:0;stroke-width:1.5;"/>
   </g>
   <g id="line2d_14">
    <path clip-path="url(#p8740afe2ca)" d="M 78.598076 136.308655 
L 91.698673 109.99805 
L 98.780077 96.278438 
L 104.79927 85.105856 
L 110.110323 75.729335 
L 114.713235 68.035954 
L 118.962077 61.33813 
L 123.21092 55.067156 
L 127.105692 49.724279 
L 130.646394 45.225972 
L 134.187096 41.087846 
L 137.373727 37.685043 
L 140.560359 34.598162 
L 143.746991 31.83709 
L 146.579552 29.663496 
L 149.412114 27.759837 
L 152.244675 26.130931 
L 155.077237 24.780901 
L 157.555728 23.831094 
L 160.034219 23.099268 
L 162.512711 22.586843 
L 164.991202 22.294811 
L 167.469693 22.223739 
L 169.948185 22.373764 
L 172.426676 22.744594 
L 174.905167 23.335513 
L 177.383658 24.145374 
L 179.86215 25.172607 
L 182.340641 26.415223 
L 185.173203 28.095981 
L 188.005764 30.05064 
L 190.838326 32.274254 
L 193.670887 34.761195 
L 196.857519 37.865896 
L 200.044151 41.28594 
L 203.584852 45.442475 
L 207.125554 49.958336 
L 211.020326 55.31945 
L 214.915098 61.068061 
L 219.163941 67.748845 
L 223.766853 75.425614 
L 228.723836 84.146301 
L 234.034889 93.936546 
L 240.408152 106.174376 
L 248.197696 121.639472 
L 273.33668 171.939051 
L 279.355873 183.301827 
L 284.666926 192.886177 
L 289.623908 201.379225 
L 294.226821 208.815521 
L 298.475663 215.250883 
L 302.370435 220.755973 
L 305.911137 225.410641 
L 309.451839 229.71296 
L 312.992541 233.645918 
L 316.179172 236.856889 
L 319.365804 239.745774 
L 322.198366 242.035773 
L 325.030927 244.058162 
L 327.863489 245.807821 
L 330.69605 247.280322 
L 333.174541 248.338456 
L 335.653033 249.179476 
L 338.131524 249.801752 
L 340.610015 250.204078 
L 343.088507 250.385674 
L 345.566998 250.346188 
L 348.045489 250.085698 
L 350.523981 249.604706 
L 353.002472 248.904147 
L 355.480963 247.985377 
L 357.959455 246.850177 
L 360.792016 245.290631 
L 363.624578 243.455235 
L 366.457139 241.348636 
L 369.289701 238.976166 
L 372.476332 235.99684 
L 375.662964 232.698182 
L 378.849596 229.09076 
L 382.390298 224.734469 
L 385.930999 220.028503 
L 389.825771 214.470315 
L 394.074614 207.981296 
L 398.323456 201.084204 
L 402.926368 193.19745 
L 408.237421 183.628523 
L 414.256614 172.279707 
L 421.338018 158.412236 
L 431.606054 137.74373 
L 432.314194 136.308655 
L 432.314194 136.308655 
" style="fill:none;stroke:#000000;stroke-dasharray:5.55,2.4;stroke-dashoffset:0;stroke-width:1.5;"/>
   </g>
   <g id="line2d_15">
    <path clip-path="url(#p8740afe2ca)" d="M 78.598076 22.220213 
L 78.654315 22.22027 
L 79.21671 22.227102 
L 84.840653 22.920933 
L 121.39126 53.627647 
L 173.932856 150.296771 
L 229.576987 238.579016 
L 284.780885 235.209791 
L 336.312452 151.483055 
L 392.564785 49.394995 
L 432.314194 22.229645 
" style="fill:none;stroke:#1f77b4;stroke-linecap:square;stroke-width:2;"/>
    <defs>
     <path d="M 0 2.5 
C 0.663008 2.5 1.29895 2.236584 1.767767 1.767767 
C 2.236584 1.29895 2.5 0.663008 2.5 0 
C 2.5 -0.663008 2.236584 -1.29895 1.767767 -1.767767 
C 1.29895 -2.236584 0.663008 -2.5 0 -2.5 
C -0.663008 -2.5 -1.29895 -2.236584 -1.767767 -1.767767 
C -2.236584 -1.29895 -2.5 -0.663008 -2.5 0 
C -2.5 0.663008 -2.236584 1.29895 -1.767767 1.767767 
C -1.29895 2.236584 -0.663008 2.5 0 2.5 
z
" id="ma6d008d081" style="stroke:#1f77b4;"/>
    </defs>
    <g clip-path="url(#p8740afe2ca)">
     <use style="fill:#1f77b4;stroke:#1f77b4;" x="78.598076" xlink:href="#ma6d008d081" y="22.220213"/>
     <use style="fill:#1f77b4;stroke:#1f77b4;" x="78.654315" xlink:href="#ma6d008d081" y="22.22027"/>
     <use style="fill:#1f77b4;stroke:#1f77b4;" x="79.21671" xlink:href="#ma6d008d081" y="22.227102"/>
     <use style="fill:#1f77b4;stroke:#1f77b4;" x="84.840653" xlink:href="#ma6d008d081" y="22.920933"/>
     <use style="fill:#1f77b4;stroke:#1f77b4;" x="121.39126" xlink:href="#ma6d008d081" y="53.627647"/>
     <use style="fill:#1f77b4;stroke:#1f77b4;" x="173.932856" xlink:href="#ma6d008d081" y="150.296771"/>
     <use style="fill:#1f77b4;stroke:#1f77b4;" x="229.576987" xlink:href="#ma6d008d081" y="238.579016"/>
     <use style="fill:#1f77b4;stroke:#1f77b4;" x="284.780885" xlink:href="#ma6d008d081" y="235.209791"/>
     <use style="fill:#1f77b4;stroke:#1f77b4;" x="336.312452" xlink:href="#ma6d008d081" y="151.483055"/>
     <use style="fill:#1f77b4;stroke:#1f77b4;" x="392.564785" xlink:href="#ma6d008d081" y="49.394995"/>
     <use style="fill:#1f77b4;stroke:#1f77b4;" x="432.314194" xlink:href="#ma6d008d081" y="22.229645"/>
    </g>
   </g>
   <g id="line2d_16">
    <path clip-path="url(#p8740afe2ca)" d="M 78.598076 136.308655 
L 78.654315 136.194681 
L 79.21671 135.054961 
L 84.840653 123.683401 
L 121.39126 57.697416 
L 173.932856 23.08465 
L 229.576987 85.751645 
L 284.780885 193.173536 
L 336.312452 249.375813 
L 392.564785 210.203759 
L 432.314194 136.137336 
" style="fill:none;stroke:#ff7f0e;stroke-linecap:square;stroke-width:2;"/>
    <defs>
     <path d="M 0 2.5 
C 0.663008 2.5 1.29895 2.236584 1.767767 1.767767 
C 2.236584 1.29895 2.5 0.663008 2.5 0 
C 2.5 -0.663008 2.236584 -1.29895 1.767767 -1.767767 
C 1.29895 -2.236584 0.663008 -2.5 0 -2.5 
C -0.663008 -2.5 -1.29895 -2.236584 -1.767767 -1.767767 
C -2.236584 -1.29895 -2.5 -0.663008 -2.5 0 
C -2.5 0.663008 -2.236584 1.29895 -1.767767 1.767767 
C -1.29895 2.236584 -0.663008 2.5 0 2.5 
z
" id="me8829b05b5" style="stroke:#ff7f0e;"/>
    </defs>
    <g clip-path="url(#p8740afe2ca)">
     <use style="fill:#ff7f0e;stroke:#ff7f0e;" x="78.598076" xlink:href="#me8829b05b5" y="136.308655"/>
     <use style="fill:#ff7f0e;stroke:#ff7f0e;" x="78.654315" xlink:href="#me8829b05b5" y="136.194681"/>
     <use style="fill:#ff7f0e;stroke:#ff7f0e;" x="79.21671" xlink:href="#me8829b05b5" y="135.054961"/>
     <use style="fill:#ff7f0e;stroke:#ff7f0e;" x="84.840653" xlink:href="#me8829b05b5" y="123.683401"/>
     <use style="fill:#ff7f0e;stroke:#ff7f0e;" x="121.39126" xlink:href="#me8829b05b5" y="57.697416"/>
     <use style="fill:#ff7f0e;stroke:#ff7f0e;" x="173.932856" xlink:href="#me8829b05b5" y="23.08465"/>
     <use style="fill:#ff7f0e;stroke:#ff7f0e;" x="229.576987" xlink:href="#me8829b05b5" y="85.751645"/>
     <use style="fill:#ff7f0e;stroke:#ff7f0e;" x="284.780885" xlink:href="#me8829b05b5" y="193.173536"/>
     <use style="fill:#ff7f0e;stroke:#ff7f0e;" x="336.312452" xlink:href="#me8829b05b5" y="249.375813"/>
     <use style="fill:#ff7f0e;stroke:#ff7f0e;" x="392.564785" xlink:href="#me8829b05b5" y="210.203759"/>
     <use style="fill:#ff7f0e;stroke:#ff7f0e;" x="432.314194" xlink:href="#me8829b05b5" y="136.137336"/>
    </g>
   </g>
   <g id="patch_3">
    <path d="M 60.91227 261.805794 
L 60.91227 10.811376 
" style="fill:none;stroke:#000000;stroke-linecap:square;stroke-linejoin:miter;stroke-width:0.8;"/>
   </g>
   <g id="patch_4">
    <path d="M 450 261.805794 
L 450 10.811376 
" style="fill:none;stroke:#000000;stroke-linecap:square;stroke-linejoin:miter;stroke-width:0.8;"/>
   </g>
   <g id="patch_5">
    <path d="M 60.91227 261.805794 
L 450 261.805794 
" style="fill:none;stroke:#000000;stroke-linecap:square;stroke-linejoin:miter;stroke-width:0.8;"/>
   </g>
   <g id="patch_6">
    <path d="M 60.91227 10.811376 
L 450 10.811376 
" style="fill:none;stroke:#000000;stroke-linecap:square;stroke-linejoin:miter;stroke-width:0.8;"/>
   </g>
   <g id="legend_1">
    <g id="patch_7">
     <path d="M 245.380129 143.428729 
L 425.5 143.428729 
Q 432.5 143.428729 432.5 136.428729 
L 432.5 35.311376 
Q 432.5 28.311376 425.5 28.311376 
L 245.380129 28.311376 
Q 238.380129 28.311376 238.380129 35.311376 
L 238.380129 136.428729 
Q 238.380129 143.428729 245.380129 143.428729 
z
" style="fill:#ffffff;opacity:0.8;stroke:#cccccc;stroke-linejoin:miter;"/>
    </g>
    <g id="line2d_17">
     <path d="M 252.380129 58.087701 
L 322.380129 58.087701 
" style="fill:none;stroke:#1f77b4;stroke-linecap:square;stroke-width:2;"/>
    </g>
    <g id="line2d_18">
     <g>
      <use style="fill:#1f77b4;stroke:#1f77b4;" x="287.380129" xlink:href="#ma6d008d081" y="58.087701"/>
     </g>
    </g>
    <g id="text_8">
     <!-- $x_1(t)$ -->
     <defs>
      <path d="M 47.40625 41 
C 44.203125 40.390625 43 37.984375 43 36.09375 
C 43 33.6875 44.90625 32.890625 46.296875 32.890625 
C 49.296875 32.890625 51.40625 35.484375 51.40625 38.1875 
C 51.40625 42.09375 46.59375 44 42.40625 44 
C 36.296875 44 32.90625 38.296875 32 36.390625 
C 29.703125 43.59375 23.5 44 21.703125 44 
C 11.5 44 6.09375 31.140625 6.09375 28.890625 
C 6.09375 28.484375 6.5 27.96875 7.203125 27.96875 
C 8 27.96875 8.203125 28.578125 8.40625 28.984375 
C 11.796875 40.1875 18.5 41.984375 21.40625 41.984375 
C 25.90625 41.984375 26.796875 38.09375 26.796875 35.6875 
C 26.796875 33.484375 26.203125 31.140625 25 26.21875 
L 21.59375 12.15625 
C 20.09375 6.09375 17.203125 1 11.90625 1 
C 11.40625 1 8.90625 1 6.796875 1.96875 
C 10.40625 2.59375 11.203125 5.59375 11.203125 6.796875 
C 11.203125 8.796875 9.703125 10 7.796875 10 
C 5.40625 10 2.796875 7.890625 2.796875 4.6875 
C 2.796875 0.890625 7.5 -1 11.796875 -1 
C 16.59375 -1 20 2.390625 22.09375 6.484375 
C 23.703125 1 28.703125 -1 32.40625 -1 
C 42.59375 -1 48 11.734375 48 14 
C 48 14.515625 47.59375 14.921875 47 14.921875 
C 46.09375 14.921875 46 14.40625 45.703125 13.59375 
C 43 4.6875 37.203125 1 32.703125 1 
C 29.203125 1 27.296875 3.1875 27.296875 7.296875 
C 27.296875 9.484375 27.703125 11.125 29.296875 17.90625 
L 32.796875 31.859375 
C 34.296875 37.890625 37.703125 41.984375 42.296875 41.984375 
C 42.5 41.984375 45.296875 41.984375 47.40625 41 
z
" id="CMMI12-120"/>
      <path d="M 30.59375 -24.40625 
C 30.59375 -24.3125 30.59375 -24.109375 30.296875 -23.8125 
C 25.703125 -19.109375 13.40625 -6.296875 13.40625 24.9375 
C 13.40625 56.171875 25.5 68.875 30.40625 73.890625 
C 30.40625 73.984375 30.59375 74.1875 30.59375 74.484375 
C 30.59375 74.796875 30.296875 75 29.90625 75 
C 28.796875 75 20.296875 67.578125 15.40625 56.5625 
C 10.40625 45.453125 9 34.65625 9 25.046875 
C 9 17.828125 9.703125 5.625 15.703125 -7.296875 
C 20.5 -17.703125 28.703125 -25 29.90625 -25 
C 30.40625 -25 30.59375 -24.8125 30.59375 -24.40625 
z
" id="CMR17-40"/>
      <path d="M 26.296875 24.9375 
C 26.296875 32.140625 25.59375 44.359375 19.59375 57.265625 
C 14.796875 67.6875 6.59375 75 5.40625 75 
C 5.09375 75 4.703125 74.890625 4.703125 74.390625 
C 4.703125 74.1875 4.796875 74.09375 4.90625 73.890625 
C 9.703125 68.875 21.90625 56.171875 21.90625 25.046875 
C 21.90625 -6.1875 9.796875 -18.90625 4.90625 -23.90625 
C 4.796875 -24.109375 4.703125 -24.203125 4.703125 -24.40625 
C 4.703125 -24.90625 5.09375 -25 5.40625 -25 
C 6.5 -25 15 -17.609375 19.90625 -6.59375 
C 24.90625 4.515625 26.296875 15.328125 26.296875 24.9375 
z
" id="CMR17-41"/>
     </defs>
     <g transform="translate(350.380129 70.337701)scale(0.35 -0.35)">
      <use transform="translate(0 14.943915)scale(0.996264)" xlink:href="#CMMI12-120"/>
      <use transform="translate(55.43406 0)scale(0.697382)" xlink:href="#CMR17-49"/>
      <use transform="translate(87.915374 14.943915)scale(0.996264)" xlink:href="#CMR17-40"/>
      <use transform="translate(123.196141 14.943915)scale(0.996264)" xlink:href="#CMMI12-116"/>
      <use transform="translate(158.422472 14.943915)scale(0.996264)" xlink:href="#CMR17-41"/>
     </g>
    </g>
    <g id="line2d_19">
     <path d="M 252.380129 110.396378 
L 322.380129 110.396378 
" style="fill:none;stroke:#ff7f0e;stroke-linecap:square;stroke-width:2;"/>
    </g>
    <g id="line2d_20">
     <g>
      <use style="fill:#ff7f0e;stroke:#ff7f0e;" x="287.380129" xlink:href="#me8829b05b5" y="110.396378"/>
     </g>
    </g>
    <g id="text_9">
     <!-- $x_2(t)$ -->
     <g transform="translate(350.380129 122.646378)scale(0.35 -0.35)">
      <use transform="translate(0 14.943915)scale(0.996264)" xlink:href="#CMMI12-120"/>
      <use transform="translate(55.43406 0)scale(0.697382)" xlink:href="#CMR17-50"/>
      <use transform="translate(87.915374 14.943915)scale(0.996264)" xlink:href="#CMR17-40"/>
      <use transform="translate(123.196141 14.943915)scale(0.996264)" xlink:href="#CMMI12-116"/>
      <use transform="translate(158.422472 14.943915)scale(0.996264)" xlink:href="#CMR17-41"/>
     </g>
    </g>
   </g>
  </g>
 </g>
 <defs>
  <clipPath id="p8740afe2ca">
   <rect height="250.994418" width="389.08773" x="60.91227" y="10.811376"/>
  </clipPath>
 </defs>
</svg>
