<?xml version="1.0" encoding="utf-8" standalone="no"?>
<!DOCTYPE svg PUBLIC "-//W3C//DTD SVG 1.1//EN"
  "http://www.w3.org/Graphics/SVG/1.1/DTD/svg11.dtd">
<svg xmlns:xlink="http://www.w3.org/1999/xlink" width="343.711083pt" height="193.337484pt" viewBox="0 0 343.711083 193.337484" xmlns="http://www.w3.org/2000/svg" version="1.1">
 <metadata>
  <rdf:RDF xmlns:dc="http://purl.org/dc/elements/1.1/" xmlns:cc="http://creativecommons.org/ns#" xmlns:rdf="http://www.w3.org/1999/02/22-rdf-syntax-ns#">
   <cc:Work>
    <dc:type rdf:resource="http://purl.org/dc/dcmitype/StillImage"/>
    <dc:date>2026-02-12T22:39:57.154439</dc:date>
    <dc:format>image/svg+xml</dc:format>
    <dc:creator>
     <cc:Agent>
      <dc:title>Matplotlib v3.10.0, https://matplotlib.org/</dc:title>
     </cc:Agent>
    </dc:creator>
   </cc:Work>
  </rdf:RDF>
 </metadata>
 <defs>
  <style type="text/css">*{stroke-linejoin: round; stroke-linecap: butt}</style>
 </defs>
 <g id="figure_1">
  <g id="patch_1">
   <path d="M 0 193.337484 
L 343.711083 193.337484 
L 343.711083 0 
L 0 0 
z
" style="fill: #ffffff"/>
  </g>
  <g id="axes_1">
   <g id="patch_2">
    <path d="M 125.348276 172.070361 
L 226.955584 172.070361 
L 226.955584 23.200498 
L 125.348276 23.200498 
z
" style="fill: #ffffff"/>
   </g>
   <g id="matplotlib.axis_1">
    <g id="xtick_1">
     <g id="line2d_1">
      <path d="M 163.277886 172.070361 
L 163.277886 23.200498 
" clip-path="url(#pad40196280)" style="fill: none; stroke: #b0b0b0; stroke-width: 0.8; stroke-linecap: square"/>
     </g>
     <g id="line2d_2">
      <defs>
       <path id="mc270ce8702" d="M 0 0 
L 0 3.5 
" style="stroke: #000000; stroke-width: 0.8"/>
      </defs>
      <g>
       <use xlink:href="#mc270ce8702" x="163.277886" y="172.070361" style="stroke: #000000; stroke-width: 0.8"/>
      </g>
     </g>
     <g id="text_1">
      <!-- $\mathdefault{−10}$ -->
      <g transform="translate(154.422179 185.98886) scale(0.1 -0.1)">
       <defs>
        <path id="CMSY10-0" d="M 4218 1472 
C 4326 1472 4442 1472 4442 1600 
C 4442 1728 4326 1728 4218 1728 
L 755 1728 
C 646 1728 531 1728 531 1600 
C 531 1472 646 1472 755 1472 
L 4218 1472 
z
" transform="scale(0.015625)"/>
        <path id="CMR17-31" d="M 1702 4083 
C 1702 4217 1696 4224 1606 4224 
C 1357 3927 979 3833 621 3820 
C 602 3820 570 3820 563 3808 
C 557 3795 557 3782 557 3648 
C 755 3648 1088 3686 1344 3839 
L 1344 467 
C 1344 243 1331 166 781 166 
L 589 166 
L 589 0 
C 896 6 1216 12 1523 12 
C 1830 12 2150 6 2458 0 
L 2458 166 
L 2266 166 
C 1715 166 1702 236 1702 467 
L 1702 4083 
z
" transform="scale(0.015625)"/>
        <path id="CMR17-30" d="M 2688 2038 
C 2688 2430 2682 3099 2413 3613 
C 2176 4063 1798 4224 1466 4224 
C 1158 4224 768 4082 525 3620 
C 269 3137 243 2539 243 2038 
C 243 1671 250 1112 448 623 
C 723 -39 1216 -128 1466 -128 
C 1760 -128 2208 -7 2470 604 
C 2662 1048 2688 1568 2688 2038 
z
M 1466 -26 
C 1056 -26 813 328 723 816 
C 653 1196 653 1749 653 2109 
C 653 2604 653 3015 736 3407 
C 858 3954 1216 4121 1466 4121 
C 1728 4121 2067 3947 2189 3420 
C 2272 3054 2278 2623 2278 2109 
C 2278 1691 2278 1176 2202 797 
C 2067 96 1690 -26 1466 -26 
z
" transform="scale(0.015625)"/>
       </defs>
       <use xlink:href="#CMSY10-0" transform="scale(0.996264)"/>
       <use xlink:href="#CMR17-31" transform="translate(77.487468 0) scale(0.996264)"/>
       <use xlink:href="#CMR17-30" transform="translate(123.177945 0) scale(0.996264)"/>
      </g>
     </g>
    </g>
    <g id="xtick_2">
     <g id="line2d_3">
      <path d="M 222.33707 172.070361 
L 222.33707 23.200498 
" clip-path="url(#pad40196280)" style="fill: none; stroke: #b0b0b0; stroke-width: 0.8; stroke-linecap: square"/>
     </g>
     <g id="line2d_4">
      <g>
       <use xlink:href="#mc270ce8702" x="222.33707" y="172.070361" style="stroke: #000000; stroke-width: 0.8"/>
      </g>
     </g>
     <g id="text_2">
      <!-- $\mathdefault{0}$ -->
      <g transform="translate(219.846403 185.98886) scale(0.1 -0.1)">
       <use xlink:href="#CMR17-30" transform="scale(0.996264)"/>
      </g>
     </g>
    </g>
   </g>
   <g id="matplotlib.axis_2">
    <g id="ytick_1">
     <g id="line2d_5">
      <path d="M 125.348276 156.694614 
L 226.955584 156.694614 
" clip-path="url(#pad40196280)" style="fill: none; stroke: #b0b0b0; stroke-width: 0.8; stroke-linecap: square"/>
     </g>
     <g id="line2d_6">
      <defs>
       <path id="m8347534a90" d="M 0 0 
L -3.5 0 
" style="stroke: #000000; stroke-width: 0.8"/>
      </defs>
      <g>
       <use xlink:href="#m8347534a90" x="125.348276" y="156.694614" style="stroke: #000000; stroke-width: 0.8"/>
      </g>
     </g>
     <g id="text_3">
      <!-- $\mathdefault{−10}$ -->
      <g transform="translate(100.636862 160.153863) scale(0.1 -0.1)">
       <use xlink:href="#CMSY10-0" transform="scale(0.996264)"/>
       <use xlink:href="#CMR17-31" transform="translate(77.487468 0) scale(0.996264)"/>
       <use xlink:href="#CMR17-30" transform="translate(123.177945 0) scale(0.996264)"/>
      </g>
     </g>
    </g>
    <g id="ytick_2">
     <g id="line2d_7">
      <path d="M 125.348276 127.165022 
L 226.955584 127.165022 
" clip-path="url(#pad40196280)" style="fill: none; stroke: #b0b0b0; stroke-width: 0.8; stroke-linecap: square"/>
     </g>
     <g id="line2d_8">
      <g>
       <use xlink:href="#m8347534a90" x="125.348276" y="127.165022" style="stroke: #000000; stroke-width: 0.8"/>
      </g>
     </g>
     <g id="text_4">
      <!-- $\mathdefault{−5}$ -->
      <g transform="translate(105.618197 130.624271) scale(0.1 -0.1)">
       <defs>
        <path id="CMR17-35" d="M 730 3750 
C 794 3724 1056 3641 1325 3641 
C 1920 3641 2246 3961 2432 4140 
C 2432 4191 2432 4224 2394 4224 
C 2387 4224 2374 4224 2323 4198 
C 2099 4102 1837 4032 1517 4032 
C 1325 4032 1037 4055 723 4191 
C 653 4224 640 4224 634 4224 
C 602 4224 595 4217 595 4090 
L 595 2231 
C 595 2113 595 2080 659 2080 
C 691 2080 704 2093 736 2139 
C 941 2435 1222 2560 1542 2560 
C 1766 2560 2246 2415 2246 1293 
C 2246 1087 2246 716 2054 422 
C 1894 159 1645 25 1370 25 
C 947 25 518 319 403 812 
C 429 806 480 793 506 793 
C 589 793 749 838 749 1036 
C 749 1209 627 1280 506 1280 
C 358 1280 262 1190 262 1011 
C 262 454 704 -128 1382 -128 
C 2042 -128 2669 441 2669 1267 
C 2669 2054 2170 2662 1549 2662 
C 1222 2662 947 2540 730 2304 
L 730 3750 
z
" transform="scale(0.015625)"/>
       </defs>
       <use xlink:href="#CMSY10-0" transform="scale(0.996264)"/>
       <use xlink:href="#CMR17-35" transform="translate(77.487468 0) scale(0.996264)"/>
      </g>
     </g>
    </g>
    <g id="ytick_3">
     <g id="line2d_9">
      <path d="M 125.348276 97.63543 
L 226.955584 97.63543 
" clip-path="url(#pad40196280)" style="fill: none; stroke: #b0b0b0; stroke-width: 0.8; stroke-linecap: square"/>
     </g>
     <g id="line2d_10">
      <g>
       <use xlink:href="#m8347534a90" x="125.348276" y="97.63543" style="stroke: #000000; stroke-width: 0.8"/>
      </g>
     </g>
     <g id="text_5">
      <!-- $\mathdefault{0}$ -->
      <g transform="translate(113.366941 101.094679) scale(0.1 -0.1)">
       <use xlink:href="#CMR17-30" transform="scale(0.996264)"/>
      </g>
     </g>
    </g>
    <g id="ytick_4">
     <g id="line2d_11">
      <path d="M 125.348276 68.105838 
L 226.955584 68.105838 
" clip-path="url(#pad40196280)" style="fill: none; stroke: #b0b0b0; stroke-width: 0.8; stroke-linecap: square"/>
     </g>
     <g id="line2d_12">
      <g>
       <use xlink:href="#m8347534a90" x="125.348276" y="68.105838" style="stroke: #000000; stroke-width: 0.8"/>
      </g>
     </g>
     <g id="text_6">
      <!-- $\mathdefault{5}$ -->
      <g transform="translate(113.366941 71.565087) scale(0.1 -0.1)">
       <use xlink:href="#CMR17-35" transform="scale(0.996264)"/>
      </g>
     </g>
    </g>
    <g id="ytick_5">
     <g id="line2d_13">
      <path d="M 125.348276 38.576246 
L 226.955584 38.576246 
" clip-path="url(#pad40196280)" style="fill: none; stroke: #b0b0b0; stroke-width: 0.8; stroke-linecap: square"/>
     </g>
     <g id="line2d_14">
      <g>
       <use xlink:href="#m8347534a90" x="125.348276" y="38.576246" style="stroke: #000000; stroke-width: 0.8"/>
      </g>
     </g>
     <g id="text_7">
      <!-- $\mathdefault{10}$ -->
      <g transform="translate(108.385606 42.035495) scale(0.1 -0.1)">
       <use xlink:href="#CMR17-31" transform="scale(0.996264)"/>
       <use xlink:href="#CMR17-30" transform="translate(45.690477 0) scale(0.996264)"/>
      </g>
     </g>
    </g>
   </g>
   <g id="line2d_15">
    <defs>
     <path id="m8f630562b8" d="M -3 3 
L 3 -3 
M -3 -3 
L 3 3 
" style="stroke: #000000"/>
    </defs>
    <g clip-path="url(#pad40196280)">
     <use xlink:href="#m8f630562b8" x="129.96679" y="97.63543" style="stroke: #000000"/>
     <use xlink:href="#m8f630562b8" x="203.690778" y="29.96731" style="stroke: #000000"/>
     <use xlink:href="#m8f630562b8" x="203.690778" y="165.303549" style="stroke: #000000"/>
     <use xlink:href="#m8f630562b8" x="222.06973" y="97.63543" style="stroke: #000000"/>
    </g>
   </g>
   <g id="line2d_16">
    <defs>
     <path id="m8657a0f570" d="M 0 1.5 
C 0.397805 1.5 0.77937 1.341951 1.06066 1.06066 
C 1.341951 0.77937 1.5 0.397805 1.5 0 
C 1.5 -0.397805 1.341951 -0.77937 1.06066 -1.06066 
C 0.77937 -1.341951 0.397805 -1.5 0 -1.5 
C -0.397805 -1.5 -0.77937 -1.341951 -1.06066 -1.06066 
C -1.341951 -0.77937 -1.5 -0.397805 -1.5 0 
C -1.5 0.397805 -1.341951 0.77937 -1.06066 1.06066 
C -0.77937 1.341951 -0.397805 1.5 0 1.5 
z
" style="stroke: #000000"/>
    </defs>
    <g clip-path="url(#pad40196280)">
     <use xlink:href="#m8657a0f570" x="222.33707" y="97.63543" style="stroke: #000000"/>
    </g>
   </g>
   <g id="patch_3">
    <path d="M 125.348276 172.070361 
L 125.348276 23.200498 
" style="fill: none; stroke: #000000; stroke-width: 0.8; stroke-linejoin: miter; stroke-linecap: square"/>
   </g>
   <g id="patch_4">
    <path d="M 226.955584 172.070361 
L 226.955584 23.200498 
" style="fill: none; stroke: #000000; stroke-width: 0.8; stroke-linejoin: miter; stroke-linecap: square"/>
   </g>
   <g id="patch_5">
    <path d="M 125.348276 172.070361 
L 226.955584 172.070361 
" style="fill: none; stroke: #000000; stroke-width: 0.8; stroke-linejoin: miter; stroke-linecap: square"/>
   </g>
   <g id="patch_6">
    <path d="M 125.348276 23.200498 
L 226.955584 23.200498 
" style="fill: none; stroke: #000000; stroke-width: 0.8; stroke-linejoin: miter; stroke-linecap: square"/>
   </g>
   <g id="text_8">
    <!-- Spectrum of $A$ -->
    <g transform="translate(145.14316 17.200498) scale(0.1 -0.1)">
     <defs>
      <path id="CMSS17-53" d="M 2797 4230 
C 2515 4396 2208 4544 1690 4544 
C 864 4544 333 3934 333 3309 
C 333 3064 403 2787 653 2504 
C 902 2220 1184 2143 1542 2053 
C 1690 2014 1939 1943 1984 1924 
C 2342 1782 2515 1454 2515 1144 
C 2515 738 2202 307 1645 307 
C 1453 307 890 339 358 829 
L 269 320 
C 794 -64 1363 -128 1651 -128 
C 2438 -128 3002 494 3002 1202 
C 3002 1460 2925 1789 2656 2092 
C 2394 2381 2163 2446 1638 2588 
C 1338 2665 1146 2717 986 2916 
C 877 3058 819 3193 819 3367 
C 819 3728 1126 4121 1690 4121 
C 1971 4121 2336 4063 2707 3715 
L 2797 4230 
z
" transform="scale(0.015625)"/>
      <path id="CMSS17-70" d="M 966 275 
C 1178 70 1466 -64 1773 -64 
C 2368 -64 2880 553 2880 1382 
C 2880 2147 2496 2816 1946 2816 
C 1626 2816 1242 2700 954 2470 
L 954 2764 
L 480 2764 
L 480 -1280 
L 966 -1280 
L 966 275 
z
M 966 2088 
C 1018 2166 1235 2412 1587 2412 
C 2035 2412 2394 1946 2394 1382 
C 2394 741 1958 326 1530 326 
C 1402 326 1267 358 1139 468 
C 966 624 966 721 966 812 
L 966 2088 
z
" transform="scale(0.015625)"/>
      <path id="CMSS17-65" d="M 2502 1375 
C 2502 1587 2490 2001 2285 2347 
C 2061 2713 1696 2816 1421 2816 
C 755 2816 192 2184 192 1363 
C 192 579 774 -64 1510 -64 
C 1798 -64 2150 19 2470 249 
C 2470 275 2458 414 2451 421 
C 2451 433 2432 629 2432 655 
C 2125 408 1773 326 1517 326 
C 1107 326 666 667 646 1375 
L 2502 1375 
z
M 698 1728 
C 781 2086 1062 2425 1421 2425 
C 1517 2425 1965 2412 2080 1728 
L 698 1728 
z
" transform="scale(0.015625)"/>
      <path id="CMSS17-63" d="M 2464 2540 
C 2464 2585 2170 2713 2093 2739 
C 1882 2816 1613 2816 1542 2816 
C 710 2816 211 2092 211 1363 
C 211 595 768 -64 1517 -64 
C 1946 -64 2253 76 2502 243 
L 2464 665 
C 2189 454 1869 339 1523 339 
C 1024 339 698 774 698 1369 
C 698 1830 909 2412 1549 2412 
C 1901 2412 2099 2342 2394 2143 
L 2464 2540 
z
" transform="scale(0.015625)"/>
      <path id="CMSS17-74" d="M 1069 2380 
L 1901 2380 
L 1901 2752 
L 1069 2752 
L 1069 3520 
L 614 3520 
L 614 2752 
L 109 2752 
L 109 2380 
L 602 2380 
L 602 751 
C 602 384 685 -64 1107 -64 
C 1427 -64 1722 25 2003 172 
L 1901 551 
C 1747 416 1562 339 1363 339 
C 1082 339 1069 699 1069 860 
L 1069 2380 
z
" transform="scale(0.015625)"/>
      <path id="CMSS17-72" d="M 954 1369 
C 954 1974 1395 2379 1958 2392 
L 1958 2816 
C 1549 2809 1165 2604 934 2270 
L 934 2783 
L 480 2783 
L 480 0 
L 954 0 
L 954 1369 
z
" transform="scale(0.015625)"/>
      <path id="CMSS17-75" d="M 2618 2752 
L 2131 2752 
L 2131 976 
C 2131 500 1786 307 1421 307 
C 998 307 960 448 960 712 
L 960 2752 
L 474 2752 
L 474 680 
C 474 179 646 -64 1088 -64 
C 1306 -64 1798 -13 2144 307 
L 2144 -13 
L 2618 -13 
L 2618 2752 
z
" transform="scale(0.015625)"/>
      <path id="CMSS17-6d" d="M 4288 1878 
C 4288 2309 4179 2816 3462 2816 
C 2982 2816 2694 2515 2566 2328 
C 2451 2668 2182 2816 1798 2816 
C 1363 2816 1088 2566 941 2386 
L 941 2783 
L 474 2783 
L 474 0 
L 960 0 
L 960 1556 
C 960 1936 1101 2425 1555 2425 
C 2138 2425 2138 2013 2138 1826 
L 2138 0 
L 2624 0 
L 2624 1556 
C 2624 1936 2765 2425 3219 2425 
C 3802 2425 3802 2013 3802 1826 
L 3802 0 
L 4288 0 
L 4288 1878 
z
" transform="scale(0.015625)"/>
      <path id="CMSS17-6f" d="M 2829 1356 
C 2829 2175 2221 2816 1504 2816 
C 768 2816 173 2156 173 1356 
C 173 544 787 -64 1498 -64 
C 2227 -64 2829 563 2829 1356 
z
M 1504 339 
C 1050 339 659 710 659 1407 
C 659 2150 1114 2425 1498 2425 
C 1914 2425 2342 2124 2342 1407 
C 2342 684 1926 339 1504 339 
z
" transform="scale(0.015625)"/>
      <path id="CMSS17-66" d="M 1075 2380 
L 1722 2380 
L 1722 2752 
L 1062 2752 
L 1062 3563 
C 1062 4013 1408 4089 1606 4089 
C 1670 4089 1850 4089 2080 4007 
L 2080 4428 
C 1933 4460 1754 4480 1613 4480 
C 1018 4480 602 3994 602 3366 
L 602 2752 
L 160 2752 
L 160 2380 
L 602 2380 
L 602 0 
L 1075 0 
L 1075 2380 
z
" transform="scale(0.015625)"/>
      <path id="CMMI12-41" d="M 1088 720 
C 864 335 646 205 339 185 
C 269 179 218 179 218 64 
C 218 25 250 0 294 0 
C 410 0 698 12 813 12 
C 998 12 1203 0 1382 0 
C 1421 0 1498 0 1498 121 
C 1498 179 1446 185 1408 185 
C 1261 198 1139 250 1139 407 
C 1139 498 1178 570 1261 714 
L 1747 1536 
L 3379 1536 
C 3386 1477 3386 1425 3392 1366 
C 3411 1196 3488 518 3488 394 
C 3488 198 3162 185 3059 185 
C 2989 185 2918 185 2918 70 
C 2918 0 2976 0 3014 0 
C 3123 0 3251 12 3360 12 
L 3725 12 
C 4115 12 4397 0 4403 0 
C 4448 0 4518 0 4518 121 
C 4518 185 4461 185 4365 185 
C 4013 185 4006 244 3987 440 
L 3597 4403 
C 3584 4531 3558 4544 3488 4544 
C 3424 4544 3386 4531 3328 4435 
L 1088 720 
z
M 1856 1721 
L 3142 3831 
L 3360 1721 
L 1856 1721 
z
" transform="scale(0.015625)"/>
     </defs>
     <use xlink:href="#CMSS17-53" transform="scale(0.996264)"/>
     <use xlink:href="#CMSS17-70" transform="translate(52.048516 0) scale(0.996264)"/>
     <use xlink:href="#CMSS17-65" transform="translate(102.855898 0) scale(0.996264)"/>
     <use xlink:href="#CMSS17-63" transform="translate(144.49472 0) scale(0.996264)"/>
     <use xlink:href="#CMSS17-74" transform="translate(186.133542 0) scale(0.996264)"/>
     <use xlink:href="#CMSS17-72" transform="translate(219.965109 0) scale(0.996264)"/>
     <use xlink:href="#CMSS17-75" transform="translate(251.874881 0) scale(0.996264)"/>
     <use xlink:href="#CMSS17-6d" transform="translate(300.079825 0) scale(0.996264)"/>
     <use xlink:href="#CMSS17-6f" transform="translate(405.538192 0) scale(0.996264)"/>
     <use xlink:href="#CMSS17-66" transform="translate(452.381815 0) scale(0.996264)"/>
     <use xlink:href="#CMMI12-41" transform="translate(512.237587 0) scale(0.996264)"/>
    </g>
   </g>
  </g>
 </g>
 <defs>
  <clipPath id="pad40196280">
   <rect x="125.348276" y="23.200498" width="101.607308" height="148.869863"/>
  </clipPath>
 </defs>
</svg>
