<?xml version="1.0" encoding="utf-8" standalone="no"?>
<!DOCTYPE svg PUBLIC "-//W3C//DTD SVG 1.1//EN"
  "http://www.w3.org/Graphics/SVG/1.1/DTD/svg11.dtd">
<svg xmlns:xlink="http://www.w3.org/1999/xlink" width="343.711083pt" height="193.337484pt" viewBox="0 0 343.711083 193.337484" xmlns="http://www.w3.org/2000/svg" version="1.1">
 <metadata>
  <rdf:RDF xmlns:dc="http://purl.org/dc/elements/1.1/" xmlns:cc="http://creativecommons.org/ns#" xmlns:rdf="http://www.w3.org/1999/02/22-rdf-syntax-ns#">
   <cc:Work>
    <dc:type rdf:resource="http://purl.org/dc/dcmitype/StillImage"/>
    <dc:date>2026-02-12T22:40:04.156812</dc:date>
    <dc:format>image/svg+xml</dc:format>
    <dc:creator>
     <cc:Agent>
      <dc:title>Matplotlib v3.10.0, https://matplotlib.org/</dc:title>
     </cc:Agent>
    </dc:creator>
   </cc:Work>
  </rdf:RDF>
 </metadata>
 <defs>
  <style type="text/css">*{stroke-linejoin: round; stroke-linecap: butt}</style>
 </defs>
 <g id="figure_1">
  <g id="patch_1">
   <path d="M 0 193.337484 
L 343.711083 193.337484 
L 343.711083 0 
L 0 0 
z
" style="fill: #ffffff"/>
  </g>
  <g id="axes_1">
   <g id="patch_2">
    <path d="M 42.963885 172.070361 
L 309.339975 172.070361 
L 309.339975 23.200498 
L 42.963885 23.200498 
z
" style="fill: #ffffff"/>
   </g>
   <g id="matplotlib.axis_1">
    <g id="xtick_1">
     <g id="line2d_1">
      <defs>
       <path id="mb30c546812" d="M 0 0 
L 0 3.5 
" style="stroke: #000000; stroke-width: 0.8"/>
      </defs>
      <g>
       <use xlink:href="#mb30c546812" x="87.3599" y="172.070361" style="stroke: #000000; stroke-width: 0.8"/>
      </g>
     </g>
     <g id="text_1">
      <!-- $-\pi$ -->
      <g transform="translate(80.646041 185.98886) scale(0.1 -0.1)">
       <defs>
        <path id="CMSY10-0" d="M 4218 1472 
C 4326 1472 4442 1472 4442 1600 
C 4442 1728 4326 1728 4218 1728 
L 755 1728 
C 646 1728 531 1728 531 1600 
C 531 1472 646 1472 755 1472 
L 4218 1472 
z
" transform="scale(0.015625)"/>
        <path id="CMMI12-19" d="M 1658 2406 
L 2381 2406 
C 2208 1691 2099 1225 2099 715 
C 2099 625 2099 -64 2362 -64 
C 2496 -64 2611 57 2611 166 
C 2611 198 2611 210 2566 306 
C 2394 746 2394 1295 2394 1340 
C 2394 1378 2394 1832 2528 2406 
L 3245 2406 
C 3328 2406 3539 2406 3539 2611 
C 3539 2752 3418 2752 3302 2752 
L 1197 2752 
C 1050 2752 832 2752 538 2438 
C 371 2253 166 1915 166 1876 
C 166 1838 198 1825 237 1825 
C 282 1825 288 1844 320 1883 
C 653 2406 986 2406 1146 2406 
L 1510 2406 
C 1370 1927 1210 1372 685 255 
C 634 153 634 140 634 102 
C 634 -32 749 -64 806 -64 
C 992 -64 1043 102 1120 370 
C 1222 695 1222 708 1286 964 
L 1658 2406 
z
" transform="scale(0.015625)"/>
       </defs>
       <use xlink:href="#CMSY10-0" transform="scale(0.996264)"/>
       <use xlink:href="#CMMI12-19" transform="translate(77.487468 0) scale(0.996264)"/>
      </g>
     </g>
    </g>
    <g id="xtick_2">
     <g id="line2d_2">
      <g>
       <use xlink:href="#mb30c546812" x="176.15193" y="172.070361" style="stroke: #000000; stroke-width: 0.8"/>
      </g>
     </g>
     <g id="text_2">
      <!-- $0$ -->
      <g transform="translate(173.661263 185.98886) scale(0.1 -0.1)">
       <defs>
        <path id="CMR17-30" d="M 2688 2038 
C 2688 2430 2682 3099 2413 3613 
C 2176 4063 1798 4224 1466 4224 
C 1158 4224 768 4082 525 3620 
C 269 3137 243 2539 243 2038 
C 243 1671 250 1112 448 623 
C 723 -39 1216 -128 1466 -128 
C 1760 -128 2208 -7 2470 604 
C 2662 1048 2688 1568 2688 2038 
z
M 1466 -26 
C 1056 -26 813 328 723 816 
C 653 1196 653 1749 653 2109 
C 653 2604 653 3015 736 3407 
C 858 3954 1216 4121 1466 4121 
C 1728 4121 2067 3947 2189 3420 
C 2272 3054 2278 2623 2278 2109 
C 2278 1691 2278 1176 2202 797 
C 2067 96 1690 -26 1466 -26 
z
" transform="scale(0.015625)"/>
       </defs>
       <use xlink:href="#CMR17-30" transform="scale(0.996264)"/>
      </g>
     </g>
    </g>
    <g id="xtick_3">
     <g id="line2d_3">
      <g>
       <use xlink:href="#mb30c546812" x="264.94396" y="172.070361" style="stroke: #000000; stroke-width: 0.8"/>
      </g>
     </g>
     <g id="text_3">
      <!-- $\pi$ -->
      <g transform="translate(262.104472 185.98886) scale(0.1 -0.1)">
       <use xlink:href="#CMMI12-19" transform="scale(0.996264)"/>
      </g>
     </g>
    </g>
   </g>
   <g id="matplotlib.axis_2">
    <g id="ytick_1">
     <g id="line2d_4">
      <defs>
       <path id="m6cc814d18a" d="M 0 0 
L -3.5 0 
" style="stroke: #000000; stroke-width: 0.8"/>
      </defs>
      <g>
       <use xlink:href="#m6cc814d18a" x="42.963885" y="172.070361" style="stroke: #000000; stroke-width: 0.8"/>
      </g>
     </g>
     <g id="text_4">
      <!-- $\mathdefault{−5}$ -->
      <g transform="translate(23.233806 175.52961) scale(0.1 -0.1)">
       <defs>
        <path id="CMR17-35" d="M 730 3750 
C 794 3724 1056 3641 1325 3641 
C 1920 3641 2246 3961 2432 4140 
C 2432 4191 2432 4224 2394 4224 
C 2387 4224 2374 4224 2323 4198 
C 2099 4102 1837 4032 1517 4032 
C 1325 4032 1037 4055 723 4191 
C 653 4224 640 4224 634 4224 
C 602 4224 595 4217 595 4090 
L 595 2231 
C 595 2113 595 2080 659 2080 
C 691 2080 704 2093 736 2139 
C 941 2435 1222 2560 1542 2560 
C 1766 2560 2246 2415 2246 1293 
C 2246 1087 2246 716 2054 422 
C 1894 159 1645 25 1370 25 
C 947 25 518 319 403 812 
C 429 806 480 793 506 793 
C 589 793 749 838 749 1036 
C 749 1209 627 1280 506 1280 
C 358 1280 262 1190 262 1011 
C 262 454 704 -128 1382 -128 
C 2042 -128 2669 441 2669 1267 
C 2669 2054 2170 2662 1549 2662 
C 1222 2662 947 2540 730 2304 
L 730 3750 
z
" transform="scale(0.015625)"/>
       </defs>
       <use xlink:href="#CMSY10-0" transform="scale(0.996264)"/>
       <use xlink:href="#CMR17-35" transform="translate(77.487468 0) scale(0.996264)"/>
      </g>
     </g>
    </g>
    <g id="ytick_2">
     <g id="line2d_5">
      <g>
       <use xlink:href="#m6cc814d18a" x="42.963885" y="97.63543" style="stroke: #000000; stroke-width: 0.8"/>
      </g>
     </g>
     <g id="text_5">
      <!-- $\mathdefault{0}$ -->
      <g transform="translate(30.98255 101.094679) scale(0.1 -0.1)">
       <use xlink:href="#CMR17-30" transform="scale(0.996264)"/>
      </g>
     </g>
    </g>
    <g id="ytick_3">
     <g id="line2d_6">
      <g>
       <use xlink:href="#m6cc814d18a" x="42.963885" y="23.200498" style="stroke: #000000; stroke-width: 0.8"/>
      </g>
     </g>
     <g id="text_6">
      <!-- $\mathdefault{5}$ -->
      <g transform="translate(30.98255 26.659747) scale(0.1 -0.1)">
       <use xlink:href="#CMR17-35" transform="scale(0.996264)"/>
      </g>
     </g>
    </g>
   </g>
   <g id="LineCollection_1">
    <path d="M 131.73133 172.070361 
L 129.4672 169.661601 
L 125.402476 165.250041 
L 121.443471 160.808477 
L 117.539611 156.351736 
L 113.634593 151.895487 
L 109.658411 147.459355 
L 105.504831 143.075384 
L 101.289232 139.081549 
L 97.860166 136.334643 
L 94.943734 134.473242 
L 92.331531 133.255689 
L 89.739875 132.524707 
L 86.595346 132.32473 
L 83.580546 132.856332 
L 83.580546 132.856332 
L 80.234174 134.230766 
L 80.234174 134.230766 
L 76.009597 136.974454 
L 76.009597 136.974454 
L 71.20162 141.136465 
L 66.913654 145.478812 
L 62.873319 149.89666 
L 58.946302 154.346782 
L 55.048816 158.805319 
L 51.120851 163.255506 
L 47.109623 167.682432 
L 42.963885 172.070361 
L 42.963885 172.070361 
" clip-path="url(#p3a037a5a91)" style="fill: none; stroke: #000000"/>
    <path d="M 122.579164 172.070361 
L 119.808841 169.363914 
L 115.361502 165.06927 
L 110.773988 160.821628 
L 105.883214 156.684258 
L 101.643879 153.588249 
L 97.988203 151.409742 
L 94.701036 149.924807 
L 91.530367 148.975832 
L 88.075223 148.527527 
L 84.564827 148.720785 
L 84.564827 148.720785 
L 80.810671 149.640777 
L 80.810671 149.640777 
L 76.614598 151.474063 
L 76.614598 151.474063 
L 70.789486 155.195795 
L 65.725886 159.266506 
L 61.048733 163.482682 
L 56.563776 167.764919 
L 52.149268 172.070361 
L 52.149268 172.070361 
" clip-path="url(#p3a037a5a91)" style="fill: none; stroke: #000000"/>
    <path d="M 113.49099 172.070361 
L 110.135804 169.479123 
L 105.155958 165.900298 
L 100.906265 163.34241 
L 97.119315 161.548228 
L 93.563499 160.348501 
L 89.928698 159.657553 
L 85.753192 159.568613 
L 81.749532 160.196256 
L 81.749532 160.196256 
L 77.378836 161.639067 
L 77.378836 161.639067 
L 72.211172 164.24732 
L 72.211172 164.24732 
L 66.504841 168.038962 
L 61.33465 172.070361 
L 61.33465 172.070361 
" clip-path="url(#p3a037a5a91)" style="fill: none; stroke: #000000"/>
    <path d="M 104.45998 172.070361 
L 101.163856 170.437917 
L 97.194509 168.721236 
L 93.42212 167.583334 
L 89.502376 166.95898 
L 85.023947 166.974787 
L 80.770624 167.710334 
L 80.770624 167.710334 
L 76.096494 169.28148 
L 76.096494 169.28148 
L 70.520033 172.070361 
L 70.520033 172.070361 
L 70.520033 172.070361 
" clip-path="url(#p3a037a5a91)" style="fill: none; stroke: #000000"/>
    <path d="M 144.003092 172.070361 
L 144.003092 172.070361 
L 139.650868 167.747029 
L 135.643189 163.319979 
L 131.910388 158.818158 
L 128.404856 154.259401 
L 125.092817 149.655583 
L 121.953684 145.014038 
L 118.975558 140.339466 
L 116.15426 135.634652 
L 113.494088 130.900698 
L 111.009702 126.137155 
L 108.72928 121.342087 
L 106.698915 116.512286 
L 104.987168 111.644295 
L 103.682958 106.737682 
L 102.886728 101.798056 
L 102.680183 96.840185 
L 103.086916 91.886215 
L 104.059992 86.956549 
L 105.50703 82.062516 
L 107.329454 77.207137 
L 109.444946 72.388664 
L 111.794241 67.604027 
L 114.337312 62.850262 
L 117.050389 58.125796 
L 119.922004 53.430574 
L 122.95028 48.76612 
L 126.141395 44.135674 
L 129.510817 39.544909 
L 133.085192 35.00295 
L 136.899727 30.522638 
L 141.0075 26.124558 
L 143.881446 23.200498 
" clip-path="url(#p3a037a5a91)" style="fill: none; stroke: #000000"/>
    <path d="M 162.373857 172.070361 
L 162.373857 172.070361 
L 162.373857 172.070361 
L 157.314444 169.181608 
L 153.028287 166.010629 
L 148.391011 161.813109 
L 144.298049 157.412594 
L 140.646719 152.891089 
L 137.359163 148.28263 
L 134.386137 143.607593 
L 131.698674 138.878714 
L 129.281895 134.104386 
L 127.130488 129.290584 
L 125.248562 124.44169 
L 123.647709 119.561404 
L 122.34225 114.653769 
L 121.348229 109.723518 
L 120.682113 104.77613 
L 120.356254 99.818117 
L 120.377405 94.856808 
L 120.745073 89.899757 
L 121.451527 84.954106 
L 122.484222 80.026329 
L 123.825996 75.121804 
L 125.461105 70.24511 
L 127.375723 65.400206 
L 129.559323 60.590918 
L 132.008414 55.821762 
L 134.728731 51.098818 
L 137.737265 46.430941 
L 141.065228 41.831583 
L 144.762995 37.321864 
L 148.912822 32.937993 
L 153.650147 28.74683 
L 159.198792 24.887107 
L 162.026408 23.200498 
" clip-path="url(#p3a037a5a91)" style="fill: none; stroke: #000000"/>
    <path d="M 171.559239 172.070361 
L 171.559239 172.070361 
L 171.559239 172.070361 
L 167.00795 170.936344 
L 163.167151 169.388582 
L 159.158345 167.190165 
L 154.968857 164.244386 
L 150.543999 160.387512 
" clip-path="url(#p3a037a5a91)" style="fill: none; stroke: #000000"/>
    <path d="M 183.046353 23.200498 
L 188.009407 25.351097 
L 192.935552 27.934243 
L 192.935552 27.934243 
L 198.366625 31.845275 
L 202.977358 36.080007 
L 206.992099 40.502929 
L 210.54536 45.048817 
L 213.720124 49.681825 
L 216.564492 54.381677 
L 219.107337 59.135358 
L 221.363488 63.934097 
L 223.337055 68.771567 
L 225.026271 73.642509 
L 226.423363 78.542228 
L 227.517265 83.465935 
L 228.2959 88.408267 
L 228.748826 93.363198 
L 228.869703 98.324143 
L 228.656559 103.284132 
L 228.112532 108.236223 
L 227.245367 113.173966 
L 226.066466 118.091584 
L 224.587097 122.983797 
L 222.81781 127.845876 
L 220.766203 132.673204 
L 218.431738 137.46023 
L 215.807145 142.200011 
L 212.874679 146.88288 
L 209.600646 151.49414 
L 205.926969 156.009516 
L 201.759862 160.387512 
L 197.335004 164.244386 
L 193.145515 167.190165 
L 189.13671 169.388582 
L 185.29591 170.936344 
L 180.744621 172.070361 
L 180.744621 172.070361 
L 180.744621 172.070361 
" clip-path="url(#p3a037a5a91)" style="fill: none; stroke: #000000"/>
    <path d="M 208.422415 23.200498 
L 211.29636 26.124558 
L 215.404133 30.522638 
L 219.218669 35.00295 
L 222.793044 39.544909 
L 226.162465 44.135674 
L 229.353581 48.76612 
L 232.381856 53.430574 
L 235.253472 58.125796 
L 237.966549 62.850262 
L 240.509619 67.604027 
L 242.858914 72.388664 
L 244.974406 77.207137 
L 246.796831 82.062516 
L 248.243869 86.956549 
L 249.216945 91.886215 
L 249.623677 96.840185 
L 249.417133 101.798056 
L 248.620902 106.737682 
L 247.316692 111.644295 
L 245.604945 116.512286 
L 243.57458 121.342087 
L 241.294158 126.137155 
L 238.809773 130.900698 
L 236.149601 135.634652 
L 233.328302 140.339466 
L 230.350176 145.014038 
L 227.211043 149.655583 
L 223.899005 154.259401 
L 220.393473 158.818158 
L 216.660672 163.319979 
L 212.652993 167.747029 
L 208.300769 172.070361 
L 208.300769 172.070361 
" clip-path="url(#p3a037a5a91)" style="fill: none; stroke: #000000"/>
    <path d="M 303.204836 172.070361 
L 300.376563 169.184157 
L 296.112932 164.83148 
L 291.808962 160.491582 
L 287.363393 156.197324 
L 282.618758 152.006064 
L 278.531986 148.89249 
L 275.035777 146.720228 
L 271.911376 145.247604 
L 268.908829 144.308658 
L 265.612359 143.861978 
L 262.264011 144.058187 
L 262.264011 144.058187 
L 258.669225 144.986731 
L 258.669225 144.986731 
L 254.639508 146.840013 
L 254.639508 146.840013 
L 248.98146 150.640984 
L 244.081479 154.773735 
L 239.558737 159.042522 
L 235.220548 163.371785 
L 230.952002 167.722819 
L 226.671533 172.070361 
L 226.671533 172.070361 
" clip-path="url(#p3a037a5a91)" style="fill: none; stroke: #000000"/>
    <path d="M 294.037867 172.070361 
L 293.3187 171.438151 
L 288.432431 167.296299 
L 283.328294 163.405718 
L 279.042637 160.635382 
L 275.270503 158.683724 
L 271.786657 157.36102 
L 268.310187 156.553631 
L 264.425248 156.297566 
L 260.595681 156.726091 
L 260.595681 156.726091 
L 256.443108 157.928807 
L 256.443108 157.928807 
L 251.69761 160.152851 
L 251.69761 160.152851 
L 245.886579 163.888915 
L 240.707109 167.915165 
L 235.856916 172.070361 
L 235.856916 172.070361 
" clip-path="url(#p3a037a5a91)" style="fill: none; stroke: #000000"/>
    <path d="M 284.848838 172.070361 
L 284.804989 172.041076 
L 280.2203 169.240128 
L 276.168433 167.254144 
L 272.412588 165.898576 
L 268.671632 165.066822 
L 264.550212 164.789179 
L 260.47062 165.188022 
L 260.47062 165.188022 
L 256.080582 166.343064 
L 256.080582 166.343064 
L 251.124072 168.470267 
L 251.124072 168.470267 
L 245.042298 172.070361 
L 245.042298 172.070361 
" clip-path="url(#p3a037a5a91)" style="fill: none; stroke: #000000"/>
    <path d="M 309.339975 166.936918 
L 309.339975 166.936918 
L 305.433492 162.481044 
L 301.683788 157.983184 
L 298.053042 153.454904 
L 294.50541 148.906167 
L 291.007494 144.345469 
L 287.522369 139.781757 
L 283.999232 135.227765 
L 280.360162 130.703268 
L 276.456533 126.250249 
L 271.899365 122.010153 
L 271.899365 122.010153 
L 269.039384 120.187086 
L 269.039384 120.187086 
L 266.521078 119.308218 
L 266.521078 119.308218 
L 264.246564 119.184764 
L 262.113059 119.653661 
L 260.166981 120.544594 
L 257.974622 122.01127 
L 255.346907 124.293124 
L 252.013337 127.784832 
L 248.228306 132.270047 
L 244.643465 136.808636 
L 241.141393 141.368196 
L 237.656657 145.931842 
L 234.147054 150.489772 
" clip-path="url(#p3a037a5a91)" style="fill: none; stroke: #000000"/>
    <path d="M 309.339975 156.67003 
L 309.339975 156.67003 
L 305.944021 152.085464 
L 302.748258 147.456103 
L 299.736486 142.788364 
L 296.901024 138.086281 
L 294.242758 133.352025 
L 291.772077 128.58621 
L 289.51065 123.788179 
L 287.49374 118.956399 
L 285.770946 114.089433 
L 284.405324 109.187606 
L 283.469572 104.254745 
L 283.028507 99.300811 
L 283.118026 94.341216 
L 283.730244 89.392944 
L 284.816706 84.46975 
L 286.308045 79.579403 
L 288.133757 74.724178 
L 290.234566 69.903489 
L 292.566528 65.11595 
L 295.099791 60.360412 
L 297.816239 55.6365 
L 300.708287 50.945206 
L 303.777382 46.289151 
L 307.0347 41.673237 
L 309.339975 38.51679 
" clip-path="url(#p3a037a5a91)" style="fill: none; stroke: #000000"/>
    <path d="M 309.339975 141.2697 
L 309.339975 141.2697 
L 306.785775 136.517777 
L 304.489812 131.724835 
L 302.454277 126.895276 
L 300.689518 122.032628 
L 299.211147 117.140344 
L 298.036913 112.22246 
L 297.186121 107.283879 
L 296.675624 102.330766 
L 296.517037 97.370306 
L 296.714072 92.410242 
L 297.262099 87.45838 
L 298.148681 82.521825 
L 299.356376 77.606492 
L 300.866297 72.717207 
L 302.660283 67.857931 
L 304.72398 63.032172 
L 307.047791 58.243456 
L 309.339975 53.784618 
" clip-path="url(#p3a037a5a91)" style="fill: none; stroke: #000000"/>
    <path d="M 309.339975 120.735926 
L 309.339975 120.735926 
L 308.021556 115.829401 
L 307.010542 110.900184 
L 306.313069 105.954015 
L 305.934076 100.997051 
L 305.87685 96.035711 
L 306.141964 91.076467 
L 306.726748 86.125752 
L 307.626943 81.189835 
L 308.837081 76.274639 
L 309.339975 74.465176 
" clip-path="url(#p3a037a5a91)" style="fill: none; stroke: #000000"/>
    <path d="M 220.572531 23.200498 
L 222.836661 25.609258 
L 226.901385 30.020818 
L 230.86039 34.462382 
L 234.764249 38.919123 
L 238.669267 43.375372 
L 242.645449 47.811504 
L 246.799029 52.195475 
L 251.014628 56.18931 
L 254.443695 58.936216 
L 257.360126 60.797617 
L 259.97233 62.015171 
L 262.563985 62.746152 
L 265.708515 62.946129 
L 268.723315 62.414527 
L 268.723315 62.414527 
L 272.069686 61.040093 
L 272.069686 61.040093 
L 276.294263 58.296405 
L 276.294263 58.296405 
L 281.102241 54.134395 
L 285.390207 49.792047 
L 289.430541 45.374199 
L 293.357559 40.924078 
L 297.255045 36.46554 
L 301.183009 32.015354 
L 305.194237 27.588428 
L 309.339975 23.200498 
L 309.339975 23.200498 
" clip-path="url(#p3a037a5a91)" style="fill: none; stroke: #000000"/>
    <path d="M 229.724696 23.200498 
L 232.49502 25.906945 
L 236.942359 30.201589 
L 241.529873 34.449232 
L 246.420647 38.586602 
L 250.659982 41.68261 
L 254.315657 43.861117 
L 257.602825 45.346052 
L 260.773493 46.295027 
L 264.228638 46.743333 
L 267.739034 46.550075 
L 267.739034 46.550075 
L 271.49319 45.630082 
L 271.49319 45.630082 
L 275.689263 43.796797 
L 275.689263 43.796797 
L 281.514375 40.075064 
L 286.577975 36.004353 
L 291.255127 31.788177 
L 295.740085 27.50594 
L 300.154593 23.200498 
L 300.154593 23.200498 
" clip-path="url(#p3a037a5a91)" style="fill: none; stroke: #000000"/>
    <path d="M 238.81287 23.200498 
L 242.168057 25.791736 
L 247.147902 29.370561 
L 251.397596 31.928449 
L 255.184545 33.722632 
L 258.740361 34.922359 
L 262.375163 35.613306 
L 266.550669 35.702246 
L 270.554328 35.074604 
L 270.554328 35.074604 
L 274.925025 33.631792 
L 274.925025 33.631792 
L 280.092689 31.023539 
L 280.092689 31.023539 
L 285.799019 27.231897 
L 290.96921 23.200498 
L 290.96921 23.200498 
" clip-path="url(#p3a037a5a91)" style="fill: none; stroke: #000000"/>
    <path d="M 247.84388 23.200498 
L 251.140004 24.832942 
L 255.109351 26.549623 
L 258.881741 27.687525 
L 262.801485 28.311879 
L 267.279913 28.296072 
L 271.533236 27.560525 
L 271.533236 27.560525 
L 276.207366 25.98938 
L 276.207366 25.98938 
L 281.783828 23.200498 
L 281.783828 23.200498 
L 281.783828 23.200498 
" clip-path="url(#p3a037a5a91)" style="fill: none; stroke: #000000"/>
    <path d="M 49.099024 23.200498 
L 51.927297 26.086703 
L 56.190929 30.439379 
L 60.494899 34.779277 
L 64.940468 39.073536 
L 69.685102 43.264795 
L 73.771875 46.378369 
L 77.268084 48.550631 
L 80.392484 50.023256 
L 83.395031 50.962201 
L 86.691502 51.408882 
L 90.039849 51.212672 
L 90.039849 51.212672 
L 93.634635 50.284128 
L 93.634635 50.284128 
L 97.664353 48.430846 
L 97.664353 48.430846 
L 103.322401 44.629875 
L 108.222382 40.497124 
L 112.745123 36.228337 
L 117.083312 31.899074 
L 121.351859 27.54804 
L 125.632327 23.200498 
L 125.632327 23.200498 
" clip-path="url(#p3a037a5a91)" style="fill: none; stroke: #000000"/>
    <path d="M 58.265994 23.200498 
L 58.98516 23.832708 
L 63.87143 27.97456 
L 68.975567 31.865141 
L 73.261223 34.635477 
L 77.033357 36.587135 
L 80.517203 37.909839 
L 83.993674 38.717229 
L 87.878612 38.973293 
L 91.70818 38.544768 
L 91.70818 38.544768 
L 95.860753 37.342053 
L 95.860753 37.342053 
L 100.606251 35.118008 
L 100.606251 35.118008 
L 106.417282 31.381944 
L 111.596752 27.355694 
L 116.446945 23.200498 
L 116.446945 23.200498 
" clip-path="url(#p3a037a5a91)" style="fill: none; stroke: #000000"/>
    <path d="M 67.455022 23.200498 
L 67.498872 23.229783 
L 72.08356 26.030731 
L 76.135428 28.016715 
L 79.891272 29.372284 
L 83.632228 30.204037 
L 87.753648 30.48168 
L 91.833241 30.082837 
L 91.833241 30.082837 
L 96.223278 28.927795 
L 96.223278 28.927795 
L 101.179788 26.800592 
L 101.179788 26.800592 
L 107.261562 23.200498 
L 107.261562 23.200498 
" clip-path="url(#p3a037a5a91)" style="fill: none; stroke: #000000"/>
    <path d="M 42.963885 28.333942 
L 42.963885 28.333942 
L 46.870368 32.789816 
L 50.620073 37.287676 
L 54.250818 41.815955 
L 57.798451 46.364692 
L 61.296367 50.925391 
L 64.781492 55.489102 
L 68.304628 60.043094 
L 71.943698 64.567591 
L 75.847327 69.02061 
L 80.404495 73.260707 
L 80.404495 73.260707 
L 83.264477 75.083773 
L 83.264477 75.083773 
L 85.782783 75.962641 
L 85.782783 75.962641 
L 88.057297 76.086095 
L 90.190801 75.617199 
L 92.13688 74.726265 
L 94.329238 73.259589 
L 96.956954 70.977736 
L 100.290524 67.486027 
L 104.075554 63.000812 
L 107.660396 58.462223 
L 111.162467 53.902663 
L 114.647203 49.339017 
L 118.156806 44.781088 
" clip-path="url(#p3a037a5a91)" style="fill: none; stroke: #000000"/>
    <path d="M 42.963885 38.600829 
L 42.963885 38.600829 
L 46.359839 43.185396 
L 49.555603 47.814756 
L 52.567374 52.482496 
L 55.402837 57.184578 
L 58.061103 61.918834 
L 60.531783 66.68465 
L 62.793211 71.48268 
L 64.81012 76.314461 
L 66.532915 81.181426 
L 67.898536 86.083253 
L 68.834289 91.016114 
L 69.275354 95.970049 
L 69.185834 100.929643 
L 68.573617 105.877915 
L 67.487155 110.801109 
L 65.995815 115.691456 
L 64.170104 120.546681 
L 62.069294 125.367371 
L 59.737333 130.154909 
L 57.204069 134.910448 
L 54.487621 139.63436 
L 51.595573 144.325653 
L 48.526478 148.981708 
L 45.269161 153.597622 
L 42.963885 156.754069 
" clip-path="url(#p3a037a5a91)" style="fill: none; stroke: #000000"/>
    <path d="M 42.963885 54.001159 
L 42.963885 54.001159 
L 45.518085 58.753083 
L 47.814048 63.546025 
L 49.849584 68.375583 
L 51.614343 73.238231 
L 53.092714 78.130515 
L 54.266948 83.0484 
L 55.11774 87.98698 
L 55.628237 92.940093 
L 55.786823 97.900554 
L 55.589788 102.860617 
L 55.041762 107.81248 
L 54.15518 112.749035 
L 52.947484 117.664367 
L 51.437564 122.553652 
L 49.643578 127.412929 
L 47.57988 132.238687 
L 45.256069 137.027404 
L 42.963885 141.486241 
" clip-path="url(#p3a037a5a91)" style="fill: none; stroke: #000000"/>
    <path d="M 42.963885 74.534934 
L 42.963885 74.534934 
L 44.282304 79.441458 
L 45.293319 84.370675 
L 45.990792 89.316844 
L 46.369784 94.273809 
L 46.427011 99.235149 
L 46.161897 104.194393 
L 45.577112 109.145108 
L 44.676917 114.081024 
L 43.466779 118.99622 
L 42.963885 120.805683 
" clip-path="url(#p3a037a5a91)" style="fill: none; stroke: #000000"/>
    <path d="M 183.713343 166.235332 
L 179.899762 167.076069 
L 175.723181 167.345293 
L 171.559239 166.936918 
L 171.559239 166.936918 
L 171.559239 166.936918 
L 167.138326 165.763985 
L 163.457244 164.195041 
L 159.608346 161.967467 
L 155.591978 158.980454 
L 151.385601 155.082333 
" clip-path="url(#p3a037a5a91)" style="fill: none; stroke: #000000"/>
    <path d="M 161.086126 32.374916 
L 164.87554 30.406077 
L 168.590518 29.035527 
L 172.404099 28.19479 
L 176.580679 27.925566 
L 180.744621 28.333942 
L 180.744621 28.333942 
L 180.744621 28.333942 
L 185.165535 29.506874 
L 188.846616 31.075818 
L 192.695514 33.303392 
" clip-path="url(#p3a037a5a91)" style="fill: none; stroke: #000000"/>
    <path d="M 211.023398 133.317098 
L 208.4829 138.070551 
L 205.542173 142.750821 
L 202.13257 147.329627 
L 198.13547 151.754595 
L 194.21432 155.252737 
L 190.460836 157.896338 
L 186.843224 159.833821 
L 183.288946 161.177038 
L 179.625802 161.995568 
L 175.580417 162.241414 
L 171.559239 161.803474 
L 171.559239 161.803474 
L 171.559239 161.803474 
L 167.272383 160.585978 
L 163.756397 158.992791 
L 160.072186 156.730575 
L 156.236015 153.69517 
L 152.255063 149.749909 
L 148.546464 145.245507 
L 145.363968 140.615294 
L 142.615305 135.89826 
L 140.245188 131.117175 
L 138.220738 126.286588 
L 136.524938 121.41655 
L 135.149842 116.514957 
L 134.091984 111.588812 
L 133.351563 106.644629 
L 132.929775 101.688768 
L 132.828127 96.727609 
L 133.046983 91.767646 
L 133.585558 86.815327 
L 134.441941 81.876967 
L 135.615335 76.959007 
L 137.106532 72.068052 
L 138.920104 67.211302 
L 141.068541 62.397487 
L 143.573225 57.637969 
L 146.472948 52.949501 
L 149.833143 48.358987 
L 153.763249 43.913798 
L 158.458332 39.712592 
L 158.458332 39.712592 
L 163.203936 36.55503 
L 163.203936 36.55503 
L 167.62582 34.527799 
L 167.62582 34.527799 
L 171.795776 33.391594 
L 176.402544 32.992394 
L 180.389428 33.367558 
L 184.012415 34.29104 
" clip-path="url(#p3a037a5a91)" style="fill: none; stroke: #000000"/>
    <path d="M 290.96921 115.602482 
L 289.702466 110.692005 
L 288.805613 105.756333 
L 288.315826 100.803052 
L 288.256243 95.842459 
L 288.629734 90.886061 
L 289.418226 85.944744 
L 290.586881 81.026814 
" clip-path="url(#p3a037a5a91)" style="fill: none; stroke: #000000"/>
    <path d="M 61.33465 79.668377 
L 62.601395 84.578854 
L 63.498248 89.514526 
L 63.988034 94.467808 
L 64.047617 99.4284 
L 63.674126 104.384798 
L 62.885634 109.326115 
L 61.71698 114.244046 
" clip-path="url(#p3a037a5a91)" style="fill: none; stroke: #000000"/>
    <path d="M 182.854988 156.126557 
L 179.346414 156.921571 
L 175.433227 157.141564 
L 171.559239 156.67003 
L 171.559239 156.67003 
L 171.559239 156.67003 
L 167.410601 155.40094 
L 164.06548 153.77955 
L 160.551685 151.475933 
L 156.902629 148.385088 
L 153.143005 144.367714 
L 149.692963 139.799424 
" clip-path="url(#p3a037a5a91)" style="fill: none; stroke: #000000"/>
    <path d="M 281.783828 156.67003 
L 275.926744 152.962436 
L 275.926744 152.962436 
L 271.668485 151.111193 
L 271.668485 151.111193 
L 267.858663 150.174841 
L 267.858663 150.174841 
L 264.296316 149.966851 
L 260.78174 150.403576 
L 257.558589 151.345324 
L 254.227878 152.821158 
" clip-path="url(#p3a037a5a91)" style="fill: none; stroke: #000000"/>
    <path d="M 281.783828 141.2697 
L 277.131815 137.049614 
L 277.131815 137.049614 
L 272.631209 133.903673 
L 272.631209 133.903673 
L 269.245723 132.360288 
L 269.245723 132.360288 
L 266.202168 131.692501 
L 262.918871 131.795165 
L 260.33022 132.469491 
L 257.769853 133.617268 
L 254.929387 135.385951 
L 251.601043 138.00828 
" clip-path="url(#p3a037a5a91)" style="fill: none; stroke: #000000"/>
    <path d="M 281.783828 125.869369 
L 278.734653 121.210625 
L 275.667793 116.556967 
L 272.515121 111.923911 
L 269.040637 107.368647 
L 269.040637 107.368647 
L 267.318836 105.663197 
L 267.318836 105.663197 
L 265.851242 104.795549 
L 265.851242 104.795549 
L 264.589139 104.66881 
L 263.368437 105.114462 
L 262.237778 105.941913 
L 260.800078 107.415533 
L 258.678955 110.095514 
L 255.450746 114.710523 
" clip-path="url(#p3a037a5a91)" style="fill: none; stroke: #000000"/>
    <path d="M 252.362743 75.908979 
L 255.450746 80.560336 
L 258.678955 85.175345 
L 260.800078 87.855326 
L 262.237778 89.328947 
L 263.368437 90.156398 
L 264.589139 90.602049 
L 265.851242 90.47531 
L 265.851242 90.47531 
L 267.318836 89.607662 
L 267.318836 89.607662 
L 269.040637 87.902212 
L 269.040637 87.902212 
L 272.515121 83.346948 
L 275.667793 78.713892 
L 278.734653 74.060234 
L 281.783828 69.40149 
L 284.847249 64.744754 
" clip-path="url(#p3a037a5a91)" style="fill: none; stroke: #000000"/>
    <path d="M 185.55167 36.373036 
L 185.55167 36.373036 
L 189.930004 38.600829 
L 189.930004 38.600829 
L 189.930004 38.600829 
L 194.516303 41.889391 
L 198.297837 45.414833 
L 202.166001 49.875863 
L 205.456587 54.48191 
L 208.282158 59.184366 
L 210.707828 63.956571 
L 212.771907 68.781845 
L 214.49679 73.648651 
L 215.895405 78.548114 
L 216.972431 83.472942 
L 217.729181 88.416353 
L 218.165522 93.371808 
L 218.280993 98.332867 
L 218.075303 103.293019 
L 217.549026 108.245747 
L 216.702359 113.18459 
L 215.535487 118.103019 
L 214.046296 122.994139 
L 212.22834 127.850349 
" clip-path="url(#p3a037a5a91)" style="fill: none; stroke: #000000"/>
    <path d="M 70.520033 38.600829 
L 76.377117 42.308423 
L 76.377117 42.308423 
L 80.635375 44.159666 
L 80.635375 44.159666 
L 84.445197 45.096018 
L 84.445197 45.096018 
L 88.007545 45.304009 
L 91.522121 44.867283 
L 94.745272 43.925535 
L 98.075982 42.449701 
" clip-path="url(#p3a037a5a91)" style="fill: none; stroke: #000000"/>
    <path d="M 70.520033 54.001159 
L 75.172045 58.221245 
L 75.172045 58.221245 
L 79.672651 61.367186 
L 79.672651 61.367186 
L 83.058137 62.910571 
L 83.058137 62.910571 
L 86.101693 63.578359 
L 89.38499 63.475695 
L 91.973641 62.801369 
L 94.534008 61.653591 
L 97.374474 59.884908 
L 100.702817 57.26258 
" clip-path="url(#p3a037a5a91)" style="fill: none; stroke: #000000"/>
    <path d="M 70.520033 69.40149 
L 73.569208 74.060234 
L 76.636067 78.713892 
L 79.788739 83.346948 
L 83.263224 87.902212 
L 83.263224 87.902212 
L 84.985025 89.607662 
L 84.985025 89.607662 
L 86.452618 90.47531 
L 86.452618 90.47531 
L 87.714722 90.602049 
L 88.935424 90.156398 
L 90.066083 89.328947 
L 91.503782 87.855326 
L 93.624905 85.175345 
L 96.853114 80.560336 
" clip-path="url(#p3a037a5a91)" style="fill: none; stroke: #000000"/>
    <path d="M 99.941118 119.36188 
L 96.853114 114.710523 
L 93.624905 110.095514 
L 91.503782 107.415533 
L 90.066083 105.941913 
L 88.935424 105.114462 
L 87.714722 104.66881 
L 86.452618 104.795549 
L 86.452618 104.795549 
L 84.985025 105.663197 
L 84.985025 105.663197 
L 83.263224 107.368647 
L 83.263224 107.368647 
L 79.788739 111.923911 
L 76.636067 116.556967 
L 73.569208 121.210625 
L 70.520033 125.869369 
L 67.456612 130.526105 
" clip-path="url(#p3a037a5a91)" style="fill: none; stroke: #000000"/>
    <path d="M 202.242901 132.89489 
L 199.250039 137.563455 
L 195.72648 141.955548 
L 192.249373 145.370933 
L 188.880458 147.941126 
L 185.622467 149.806098 
L 182.406881 151.087505 
L 179.062054 151.855622 
L 175.281217 152.04677 
L 171.559239 151.536587 
L 171.559239 151.536587 
L 171.559239 151.536587 
L 167.553982 150.207159 
L 164.386437 148.552962 
L 161.048806 146.19963 
" clip-path="url(#p3a037a5a91)" style="fill: none; stroke: #000000"/>
    <path d="M 228.512098 132.681093 
L 226.116085 137.458825 
L 223.483097 142.197449 
L 220.611073 146.892443 
L 217.486151 151.536587 
" clip-path="url(#p3a037a5a91)" style="fill: none; stroke: #000000"/>
    <path d="M 276.921949 143.775414 
L 272.598445 141.2697 
L 272.598445 141.2697 
L 272.598445 141.2697 
L 269.139076 139.983323 
L 269.139076 139.983323 
L 265.841608 139.442278 
L 262.42091 139.623791 
L 259.535021 140.354566 
L 256.653742 141.577851 
L 253.489073 143.428496 
" clip-path="url(#p3a037a5a91)" style="fill: none; stroke: #000000"/>
    <path d="M 247.321551 59.498044 
L 251.278628 63.936521 
L 254.702089 67.299929 
L 257.462494 69.533629 
L 259.805572 70.986152 
L 261.930903 71.879599 
L 264.297235 72.340273 
L 266.76919 72.18625 
L 266.76919 72.18625 
L 269.490008 71.277304 
L 269.490008 71.277304 
L 272.598445 69.40149 
L 272.598445 69.40149 
" clip-path="url(#p3a037a5a91)" style="fill: none; stroke: #000000"/>
    <path d="M 151.725571 135.623671 
L 148.962291 130.91046 
L 146.675976 126.117314 
L 144.807171 121.267562 
L 143.320008 116.376485 
L 142.193575 111.455295 
L 141.415283 106.513078 
L 140.978561 101.55772 
L 140.880521 96.596632 
L 141.12052 91.637086 
L 141.700141 86.686338 
L 142.623441 81.751918 
L 143.899614 76.842239 
L 145.54413 71.96708 
L 147.582565 67.138886 
L 150.06096 62.375969 
L 153.053821 57.707404 
L 156.577381 53.315311 
L 160.054488 49.899927 
L 163.423402 47.329733 
L 166.681394 45.464761 
L 169.89698 44.183355 
L 173.241807 43.415237 
L 177.022643 43.22409 
L 180.744621 43.734272 
L 180.744621 43.734272 
L 180.744621 43.734272 
L 184.749879 45.0637 
L 187.917423 46.717898 
L 191.255055 49.071229 
L 194.703794 52.225404 
L 198.229958 56.328413 
L 201.399475 60.959625 
" clip-path="url(#p3a037a5a91)" style="fill: none; stroke: #000000"/>
    <path d="M 75.381911 51.495445 
L 79.705415 54.001159 
L 79.705415 54.001159 
L 79.705415 54.001159 
L 83.164785 55.287536 
L 83.164785 55.287536 
L 86.462252 55.828581 
L 89.88295 55.647069 
L 92.76884 54.916293 
L 95.650118 53.693008 
L 98.814788 51.842363 
" clip-path="url(#p3a037a5a91)" style="fill: none; stroke: #000000"/>
    <path d="M 104.98231 135.772816 
L 101.025233 131.334338 
L 97.601772 127.970931 
L 94.841366 125.73723 
L 92.498288 124.284707 
L 90.372957 123.39126 
L 88.006625 122.930586 
L 85.53467 123.084609 
L 85.53467 123.084609 
L 82.813852 123.993556 
L 82.813852 123.993556 
L 79.705415 125.869369 
L 79.705415 125.869369 
" clip-path="url(#p3a037a5a91)" style="fill: none; stroke: #000000"/>
    <path d="M 107.909301 153.892782 
L 103.632509 150.244183 
L 98.07618 146.403143 
L 98.07618 146.403143 
L 93.997229 144.42211 
L 93.997229 144.42211 
L 90.388473 143.402829 
L 90.388473 143.402829 
L 87.048005 143.133966 
L 83.725748 143.524009 
L 80.739394 144.416222 
L 77.661813 145.831198 
" clip-path="url(#p3a037a5a91)" style="fill: none; stroke: #000000"/>
    <path d="M 194.467807 137.095171 
L 191.2163 140.467246 
L 188.053947 142.991509 
L 184.983315 144.816013 
L 181.94673 146.061396 
L 178.773617 146.799866 
L 175.12388 146.958461 
L 171.559239 146.403143 
L 171.559239 146.403143 
L 171.559239 146.403143 
L 167.703677 145.002205 
L 164.72117 143.309531 
L 161.563235 140.891101 
L 158.327723 137.659953 
" clip-path="url(#p3a037a5a91)" style="fill: none; stroke: #000000"/>
    <path d="M 244.39456 41.378078 
L 248.671351 45.026676 
L 254.227681 48.867716 
L 254.227681 48.867716 
L 258.306631 50.848749 
L 258.306631 50.848749 
L 261.915388 51.86803 
L 261.915388 51.86803 
L 265.255856 52.136893 
L 268.578112 51.746851 
L 271.564467 50.854638 
L 274.642048 49.439661 
" clip-path="url(#p3a037a5a91)" style="fill: none; stroke: #000000"/>
    <path d="M 157.836054 58.175688 
L 161.087561 54.803613 
L 164.249913 52.27935 
L 167.320545 50.454847 
L 170.35713 49.209463 
L 173.530244 48.470993 
L 177.179981 48.312398 
L 180.744621 48.867716 
L 180.744621 48.867716 
L 180.744621 48.867716 
L 184.600184 50.268654 
L 187.582691 51.961329 
L 190.740625 54.379759 
L 193.976137 57.610906 
L 197.247554 61.811378 
L 200.112011 66.504084 
L 202.422607 71.292878 
L 204.264503 76.145505 
L 205.688996 81.042127 
L 206.725892 85.969238 
L 207.392236 90.916468 
L 207.697696 95.874802 
L 207.646208 100.835966 
L 207.237209 105.791961 
L 206.465413 110.734396 
L 205.318861 115.653914 
L 203.777956 120.539484 
L 201.808448 125.376421 
" clip-path="url(#p3a037a5a91)" style="fill: none; stroke: #000000"/>
    <path d="M 189.446987 64.886385 
L 189.446987 64.886385 
L 192.986958 69.424846 
L 195.640066 74.155362 
L 197.636744 78.987567 
L 199.093606 83.880477 
L 200.074969 88.810655 
L 200.616028 93.762233 
L 200.733247 98.722688 
L 200.430066 103.680597 
L 199.697379 108.624325 
L 198.510976 113.540187 
L 196.824808 118.409552 
L 194.553245 123.202274 
L 191.840559 127.459238 
L 189.064009 130.736503 
L 186.322636 133.167052 
L 183.648234 134.897861 
L 180.998738 136.059333 
L 178.183923 136.733699 
L 174.775636 136.808845 
L 171.559239 136.136256 
L 171.559239 136.136256 
L 171.559239 136.136256 
L 168.030731 134.544302 
L 165.441723 132.742573 
L 162.67576 130.141599 
L 159.904144 126.677702 
L 157.223542 122.211436 
L 155.083404 117.399427 
L 153.506747 112.518511 
L 152.418058 107.595518 
L 151.776292 102.647761 
L 151.561076 97.68839 
L 151.765957 92.728876 
L 152.397 87.780637 
L 153.473629 82.856664 
L 155.036549 77.974172 
L 157.158361 73.159103 
L 159.972729 68.458939 
L 163.747533 63.982442 
L 163.747533 63.982442 
L 167.340996 61.093522 
L 167.340996 61.093522 
L 170.759832 59.344875 
L 170.759832 59.344875 
L 173.982839 58.49017 
L 177.580933 58.395628 
L 180.516506 58.985368 
L 183.166067 60.049984 
" clip-path="url(#p3a037a5a91)" style="fill: none; stroke: #000000"/>
    <path d="M 234.733888 71.503299 
L 236.476039 76.368362 
L 237.917946 81.263842 
L 239.02448 86.186322 
L 239.759519 91.130328 
L 240.095653 96.087652 
L 240.018244 101.048323 
L 239.530709 106.001838 
L 238.652809 110.938662 
L 237.416193 115.851578 
L 235.856916 120.735926 
L 234.010536 125.589063 
" clip-path="url(#p3a037a5a91)" style="fill: none; stroke: #000000"/>
    <path d="M 166.716784 122.631689 
L 166.716784 122.631689 
L 163.24018 118.085832 
L 160.895113 113.307268 
L 159.33428 108.426282 
L 158.406019 103.494037 
L 158.039977 98.538355 
L 158.21249 93.579343 
L 158.934973 88.636287 
L 160.259556 83.733458 
L 162.22198 79.071645 
L 164.429209 75.433249 
L 166.711828 72.716513 
L 168.9776 70.773758 
L 171.207694 69.453764 
L 173.507219 68.630364 
L 176.239612 68.307993 
L 178.956642 68.676437 
L 178.956642 68.676437 
L 181.826938 69.842445 
L 181.826938 69.842445 
L 184.86401 72.051338 
L 184.86401 72.051338 
L 187.98527 75.648468 
L 187.98527 75.648468 
L 190.661528 80.370998 
L 192.464715 85.225405 
L 193.594794 90.144151 
L 194.143522 95.094451 
L 194.148468 100.054418 
L 193.609685 105.004993 
L 192.489165 109.9241 
L 190.694895 114.778596 
L 188.548372 118.727145 
L 186.278264 121.715024 
L 184.003766 123.880074 
L 181.772748 125.374343 
L 179.540598 126.335296 
L 177.016797 126.835831 
L 174.357163 126.718778 
L 174.357163 126.718778 
L 171.559239 125.869369 
L 171.559239 125.869369 
L 171.559239 125.869369 
L 168.420183 123.976106 
" clip-path="url(#p3a037a5a91)" style="fill: none; stroke: #000000"/>
    <path d="M 185.335109 110.05432 
L 183.627434 112.806813 
L 181.875353 114.729836 
L 180.133969 116.013369 
L 178.320205 116.814909 
L 176.061064 117.139899 
L 173.823333 116.755338 
L 173.823333 116.755338 
L 171.559239 115.602482 
L 171.559239 115.602482 
L 171.559239 115.602482 
L 168.967845 113.178594 
L 167.355804 110.776376 
" clip-path="url(#p3a037a5a91)" style="fill: none; stroke: #000000"/>
    <path d="M 166.968751 85.216539 
L 168.676427 82.464046 
L 170.428508 80.541023 
L 172.169892 79.25749 
L 173.983656 78.45595 
L 176.242797 78.13096 
L 178.480528 78.515521 
L 178.480528 78.515521 
L 180.744621 79.668377 
L 180.744621 79.668377 
L 180.744621 79.668377 
L 183.336016 82.092265 
L 184.948057 84.494484 
" clip-path="url(#p3a037a5a91)" style="fill: none; stroke: #000000"/>
    <path d="M 173.255254 107.337538 
L 173.255254 107.337538 
L 171.559239 105.335595 
L 171.559239 105.335595 
L 171.559239 105.335595 
L 170.085687 101.864787 
L 169.572084 98.477342 
L 169.878736 94.16607 
L 171.562794 89.700032 
L 171.562794 89.700032 
L 173.375668 87.652788 
L 173.375668 87.652788 
" clip-path="url(#p3a037a5a91)" style="fill: none; stroke: #000000"/>
    <path d="M 178.928193 87.652788 
L 178.928193 87.652788 
L 180.741067 89.700032 
L 180.741067 89.700032 
L 182.425125 94.16607 
L 182.731777 98.477342 
L 182.218173 101.864787 
L 180.744621 105.335595 
L 180.744621 105.335595 
L 180.744621 105.335595 
L 179.048606 107.337538 
L 179.048606 107.337538 
" clip-path="url(#p3a037a5a91)" style="fill: none; stroke: #000000"/>
   </g>
   <g id="patch_3">
    <path d="M 89.739875 132.524707 
Q 88.953743 132.474713 89.283391 132.495677 
" clip-path="url(#p3a037a5a91)" style="fill: none; stroke: #000000; stroke-linecap: round"/>
    <path d="M 93.148392 134.745513 
L 89.283391 132.495677 
L 93.40226 130.753577 
z
" clip-path="url(#p3a037a5a91)" style="stroke: #000000; stroke-linecap: round"/>
   </g>
   <g id="patch_4">
    <path d="M 88.075223 148.527527 
Q 87.197624 148.575841 87.436368 148.562697 
" clip-path="url(#p3a037a5a91)" style="fill: none; stroke: #000000; stroke-linecap: round"/>
    <path d="M 91.54026 150.339794 
L 87.436368 148.562697 
L 91.320381 146.345842 
z
" clip-path="url(#p3a037a5a91)" style="stroke: #000000; stroke-linecap: round"/>
   </g>
   <g id="patch_5">
    <path d="M 87.926575 159.614907 
Q 87.88376 159.613995 88.958725 159.636893 
" clip-path="url(#p3a037a5a91)" style="fill: none; stroke: #000000; stroke-linecap: round"/>
    <path d="M 92.915227 161.721621 
L 88.958725 159.636893 
L 93.000409 157.722528 
z
" clip-path="url(#p3a037a5a91)" style="stroke: #000000; stroke-linecap: round"/>
   </g>
   <g id="patch_6">
    <path d="M 87.503702 166.966034 
Q 87.383432 166.966459 88.381189 166.962937 
" clip-path="url(#p3a037a5a91)" style="fill: none; stroke: #000000; stroke-linecap: round"/>
    <path d="M 92.388223 168.948807 
L 88.381189 166.962937 
L 92.374105 164.948831 
z
" clip-path="url(#p3a037a5a91)" style="stroke: #000000; stroke-linecap: round"/>
   </g>
   <g id="patch_7">
    <path d="M 102.803424 99.798446 
Q 102.79344 99.558783 102.829992 100.436186 
" clip-path="url(#p3a037a5a91)" style="fill: none; stroke: #000000; stroke-linecap: round"/>
    <path d="M 100.998221 104.515967 
L 102.829992 100.436186 
L 104.994754 104.349472 
z
" clip-path="url(#p3a037a5a91)" style="stroke: #000000; stroke-linecap: round"/>
   </g>
   <g id="patch_8">
    <path d="M 120.364785 97.817121 
Q 120.365807 97.577292 120.362063 98.455487 
" clip-path="url(#p3a037a5a91)" style="fill: none; stroke: #000000; stroke-linecap: round"/>
    <path d="M 118.345029 102.446924 
L 120.362063 98.455487 
L 122.344993 102.463976 
z
" clip-path="url(#p3a037a5a91)" style="stroke: #000000; stroke-linecap: round"/>
   </g>
   <g id="patch_9">
    <path d="M 161.417213 168.428921 
Q 161.289981 168.359147 162.14305 168.826968 
" clip-path="url(#p3a037a5a91)" style="fill: none; stroke: #000000; stroke-linecap: round"/>
    <path d="M 164.688607 172.503942 
L 162.14305 168.826968 
L 166.611964 168.996707 
z
" clip-path="url(#p3a037a5a91)" style="stroke: #000000; stroke-linecap: round"/>
   </g>
   <g id="patch_10">
    <path d="M 228.797578 95.364048 
Q 228.803421 95.603859 228.782031 94.725968 
" clip-path="url(#p3a037a5a91)" style="fill: none; stroke: #000000; stroke-linecap: round"/>
    <path d="M 230.684003 90.678438 
L 228.782031 94.725968 
L 226.68519 90.775872 
z
" clip-path="url(#p3a037a5a91)" style="stroke: #000000; stroke-linecap: round"/>
   </g>
   <g id="patch_11">
    <path d="M 249.540374 98.839795 
Q 249.530389 99.079458 249.566942 98.202056 
" clip-path="url(#p3a037a5a91)" style="fill: none; stroke: #000000; stroke-linecap: round"/>
    <path d="M 251.731704 94.28877 
L 249.566942 98.202056 
L 247.73517 94.122275 
z
" clip-path="url(#p3a037a5a91)" style="stroke: #000000; stroke-linecap: round"/>
   </g>
   <g id="patch_12">
    <path d="M 265.612359 143.861978 
Q 264.775272 143.91103 265.054304 143.894679 
" clip-path="url(#p3a037a5a91)" style="fill: none; stroke: #000000; stroke-linecap: round"/>
    <path d="M 269.164451 145.65726 
L 265.054304 143.894679 
L 268.930458 141.66411 
z
" clip-path="url(#p3a037a5a91)" style="stroke: #000000; stroke-linecap: round"/>
   </g>
   <g id="patch_13">
    <path d="M 268.310187 156.553631 
Q 267.338952 156.489614 267.483331 156.499131 
" clip-path="url(#p3a037a5a91)" style="fill: none; stroke: #000000; stroke-linecap: round"/>
    <path d="M 271.343131 158.757878 
L 267.483331 156.499131 
L 271.606209 154.766539 
z
" clip-path="url(#p3a037a5a91)" style="stroke: #000000; stroke-linecap: round"/>
   </g>
   <g id="patch_14">
    <path d="M 266.679344 164.93261 
Q 266.645133 164.930305 267.726428 165.003147 
" clip-path="url(#p3a037a5a91)" style="fill: none; stroke: #000000; stroke-linecap: round"/>
    <path d="M 271.582955 167.267479 
L 267.726428 165.003147 
L 271.85181 163.276524 
z
" clip-path="url(#p3a037a5a91)" style="stroke: #000000; stroke-linecap: round"/>
   </g>
   <g id="patch_15">
    <path d="M 274.99014 124.885882 
Q 274.584045 124.508042 274.996481 124.891782 
" clip-path="url(#p3a037a5a91)" style="fill: none; stroke: #000000; stroke-linecap: round"/>
    <path d="M 276.562591 129.080732 
L 274.996481 124.891782 
L 279.287307 126.152264 
z
" clip-path="url(#p3a037a5a91)" style="stroke: #000000; stroke-linecap: round"/>
   </g>
   <g id="patch_16">
    <path d="M 283.064612 97.300505 
Q 283.068939 97.060759 283.05309 97.938865 
" clip-path="url(#p3a037a5a91)" style="fill: none; stroke: #000000; stroke-linecap: round"/>
    <path d="M 280.981228 101.90212 
L 283.05309 97.938865 
L 284.980577 101.974307 
z
" clip-path="url(#p3a037a5a91)" style="stroke: #000000; stroke-linecap: round"/>
   </g>
   <g id="patch_17">
    <path d="M 296.611663 100.330112 
Q 296.603997 100.090324 296.632056 100.967999 
" clip-path="url(#p3a037a5a91)" style="fill: none; stroke: #000000; stroke-linecap: round"/>
    <path d="M 294.760893 105.029864 
L 296.632056 100.967999 
L 298.75885 104.902049 
z
" clip-path="url(#p3a037a5a91)" style="stroke: #000000; stroke-linecap: round"/>
   </g>
   <g id="patch_18">
    <path d="M 305.910996 98.996042 
Q 305.908229 98.756211 305.918358 99.63434 
" clip-path="url(#p3a037a5a91)" style="fill: none; stroke: #000000; stroke-linecap: round"/>
    <path d="M 303.964626 103.657142 
L 305.918358 99.63434 
L 307.96436 103.611007 
z
" clip-path="url(#p3a037a5a91)" style="stroke: #000000; stroke-linecap: round"/>
   </g>
   <g id="patch_19">
    <path d="M 262.563985 62.746152 
Q 263.350118 62.796147 263.02047 62.775183 
" clip-path="url(#p3a037a5a91)" style="fill: none; stroke: #000000; stroke-linecap: round"/>
    <path d="M 259.155468 60.525346 
L 263.02047 62.775183 
L 258.9016 64.517282 
z
" clip-path="url(#p3a037a5a91)" style="stroke: #000000; stroke-linecap: round"/>
   </g>
   <g id="patch_20">
    <path d="M 264.228638 46.743333 
Q 265.106237 46.695018 264.867492 46.708162 
" clip-path="url(#p3a037a5a91)" style="fill: none; stroke: #000000; stroke-linecap: round"/>
    <path d="M 260.7636 44.931065 
L 264.867492 46.708162 
L 260.98348 48.925017 
z
" clip-path="url(#p3a037a5a91)" style="stroke: #000000; stroke-linecap: round"/>
   </g>
   <g id="patch_21">
    <path d="M 264.377285 35.655952 
Q 264.4201 35.656864 263.345135 35.633967 
" clip-path="url(#p3a037a5a91)" style="fill: none; stroke: #000000; stroke-linecap: round"/>
    <path d="M 259.388634 33.549238 
L 263.345135 35.633967 
L 259.303451 37.548331 
z
" clip-path="url(#p3a037a5a91)" style="stroke: #000000; stroke-linecap: round"/>
   </g>
   <g id="patch_22">
    <path d="M 264.800158 28.304825 
Q 264.920429 28.3044 263.922672 28.307922 
" clip-path="url(#p3a037a5a91)" style="fill: none; stroke: #000000; stroke-linecap: round"/>
    <path d="M 259.915638 26.322053 
L 263.922672 28.307922 
L 259.929756 30.322028 
z
" clip-path="url(#p3a037a5a91)" style="stroke: #000000; stroke-linecap: round"/>
   </g>
   <g id="patch_23">
    <path d="M 86.691502 51.408882 
Q 87.528589 51.359829 87.249556 51.37618 
" clip-path="url(#p3a037a5a91)" style="fill: none; stroke: #000000; stroke-linecap: round"/>
    <path d="M 83.139409 49.613599 
L 87.249556 51.37618 
L 83.373403 53.606749 
z
" clip-path="url(#p3a037a5a91)" style="stroke: #000000; stroke-linecap: round"/>
   </g>
   <g id="patch_24">
    <path d="M 83.993674 38.717229 
Q 84.964909 38.781245 84.82053 38.771729 
" clip-path="url(#p3a037a5a91)" style="fill: none; stroke: #000000; stroke-linecap: round"/>
    <path d="M 80.960729 36.512981 
L 84.82053 38.771729 
L 80.697652 40.504321 
z
" clip-path="url(#p3a037a5a91)" style="stroke: #000000; stroke-linecap: round"/>
   </g>
   <g id="patch_25">
    <path d="M 85.624516 30.33825 
Q 85.658727 30.340554 84.577432 30.267712 
" clip-path="url(#p3a037a5a91)" style="fill: none; stroke: #000000; stroke-linecap: round"/>
    <path d="M 80.720905 28.003381 
L 84.577432 30.267712 
L 80.452051 31.994335 
z
" clip-path="url(#p3a037a5a91)" style="stroke: #000000; stroke-linecap: round"/>
   </g>
   <g id="patch_26">
    <path d="M 77.313721 70.384977 
Q 77.719816 70.762818 77.307379 70.379077 
" clip-path="url(#p3a037a5a91)" style="fill: none; stroke: #000000; stroke-linecap: round"/>
    <path d="M 75.741269 66.190128 
L 77.307379 70.379077 
L 73.016554 69.118596 
z
" clip-path="url(#p3a037a5a91)" style="stroke: #000000; stroke-linecap: round"/>
   </g>
   <g id="patch_27">
    <path d="M 69.239249 97.970354 
Q 69.234921 98.2101 69.250771 97.331994 
" clip-path="url(#p3a037a5a91)" style="fill: none; stroke: #000000; stroke-linecap: round"/>
    <path d="M 71.322632 93.368739 
L 69.250771 97.331994 
L 67.323284 93.296552 
z
" clip-path="url(#p3a037a5a91)" style="stroke: #000000; stroke-linecap: round"/>
   </g>
   <g id="patch_28">
    <path d="M 55.692198 94.940748 
Q 55.699864 95.180535 55.671805 94.30286 
" clip-path="url(#p3a037a5a91)" style="fill: none; stroke: #000000; stroke-linecap: round"/>
    <path d="M 57.542968 90.240995 
L 55.671805 94.30286 
L 53.54501 90.368811 
z
" clip-path="url(#p3a037a5a91)" style="stroke: #000000; stroke-linecap: round"/>
   </g>
   <g id="patch_29">
    <path d="M 46.392865 96.274818 
Q 46.395631 96.514648 46.385502 95.636519 
" clip-path="url(#p3a037a5a91)" style="fill: none; stroke: #000000; stroke-linecap: round"/>
    <path d="M 48.339234 91.613717 
L 46.385502 95.636519 
L 44.3395 91.659852 
z
" clip-path="url(#p3a037a5a91)" style="stroke: #000000; stroke-linecap: round"/>
   </g>
   <g id="patch_30">
    <path d="M 165.30138 164.981045 
Q 165.299582 164.980279 166.326295 165.417883 
" clip-path="url(#p3a037a5a91)" style="fill: none; stroke: #000000; stroke-linecap: round"/>
    <path d="M 169.221823 168.826095 
L 166.326295 165.417883 
L 170.790182 165.146387 
z
" clip-path="url(#p3a037a5a91)" style="stroke: #000000; stroke-linecap: round"/>
   </g>
   <g id="patch_31">
    <path d="M 178.569124 28.120582 
Q 178.615887 28.125168 177.549955 28.020627 
" clip-path="url(#p3a037a5a91)" style="fill: none; stroke: #000000; stroke-linecap: round"/>
    <path d="M 173.764266 25.639753 
L 177.549955 28.020627 
L 173.373842 29.620654 
z
" clip-path="url(#p3a037a5a91)" style="stroke: #000000; stroke-linecap: round"/>
   </g>
   <g id="patch_32">
    <path d="M 134.729385 114.557007 
Q 134.675149 114.304446 134.855652 115.144998 
" clip-path="url(#p3a037a5a91)" style="fill: none; stroke: #000000; stroke-linecap: round"/>
    <path d="M 133.74006 119.475755 
L 134.855652 115.144998 
L 137.650902 118.635926 
z
" clip-path="url(#p3a037a5a91)" style="stroke: #000000; stroke-linecap: round"/>
   </g>
   <g id="patch_33">
    <path d="M 288.291795 98.802344 
Q 288.288915 98.56255 288.299463 99.440709 
" clip-path="url(#p3a037a5a91)" style="fill: none; stroke: #000000; stroke-linecap: round"/>
    <path d="M 286.347648 103.464441 
L 288.299463 99.440709 
L 290.34736 103.416399 
z
" clip-path="url(#p3a037a5a91)" style="stroke: #000000; stroke-linecap: round"/>
   </g>
   <g id="patch_34">
    <path d="M 64.012065 96.468515 
Q 64.014946 96.70831 64.004398 95.830151 
" clip-path="url(#p3a037a5a91)" style="fill: none; stroke: #000000; stroke-linecap: round"/>
    <path d="M 65.956212 91.806418 
L 64.004398 95.830151 
L 61.956501 91.85446 
z
" clip-path="url(#p3a037a5a91)" style="stroke: #000000; stroke-linecap: round"/>
   </g>
   <g id="patch_35">
    <path d="M 162.394368 152.683982 
Q 162.351475 152.655862 163.243594 153.240728 
" clip-path="url(#p3a037a5a91)" style="fill: none; stroke: #000000; stroke-linecap: round"/>
    <path d="M 165.492251 157.106416 
L 163.243594 153.240728 
L 167.685339 153.761215 
z
" clip-path="url(#p3a037a5a91)" style="stroke: #000000; stroke-linecap: round"/>
   </g>
   <g id="patch_36">
    <path d="M 271.668485 151.111193 
Q 270.71603 150.877105 270.849298 150.909859 
" clip-path="url(#p3a037a5a91)" style="fill: none; stroke: #000000; stroke-linecap: round"/>
    <path d="M 274.256359 153.806742 
L 270.849298 150.909859 
L 275.211041 149.922339 
z
" clip-path="url(#p3a037a5a91)" style="stroke: #000000; stroke-linecap: round"/>
   </g>
   <g id="patch_37">
    <path d="M 269.245723 132.360288 
Q 268.484834 132.193341 268.816002 132.266003 
" clip-path="url(#p3a037a5a91)" style="fill: none; stroke: #000000; stroke-linecap: round"/>
    <path d="M 272.294438 135.076783 
L 268.816002 132.266003 
L 273.151688 131.169723 
z
" clip-path="url(#p3a037a5a91)" style="stroke: #000000; stroke-linecap: round"/>
   </g>
   <g id="patch_38">
    <path d="M 271.302106 110.333572 
Q 271.039992 109.989926 271.455926 110.53524 
" clip-path="url(#p3a037a5a91)" style="fill: none; stroke: #000000; stroke-linecap: round"/>
    <path d="M 272.291558 114.928613 
L 271.455926 110.53524 
L 275.472003 112.502758 
z
" clip-path="url(#p3a037a5a91)" style="stroke: #000000; stroke-linecap: round"/>
   </g>
   <g id="patch_39">
    <path d="M 270.253653 86.311874 
Q 270.515766 85.968227 270.099832 86.513542 
" clip-path="url(#p3a037a5a91)" style="fill: none; stroke: #000000; stroke-linecap: round"/>
    <path d="M 266.083756 88.48106 
L 270.099832 86.513542 
L 269.264201 90.906914 
z
" clip-path="url(#p3a037a5a91)" style="stroke: #000000; stroke-linecap: round"/>
   </g>
   <g id="patch_40">
    <path d="M 216.32348 80.505541 
Q 216.378699 80.758034 216.195057 79.918308 
" clip-path="url(#p3a037a5a91)" style="fill: none; stroke: #000000; stroke-linecap: round"/>
    <path d="M 217.294304 75.583373 
L 216.195057 79.918308 
L 213.386658 76.437949 
z
" clip-path="url(#p3a037a5a91)" style="stroke: #000000; stroke-linecap: round"/>
   </g>
   <g id="patch_41">
    <path d="M 80.635375 44.159666 
Q 81.587831 44.393754 81.454563 44.361001 
" clip-path="url(#p3a037a5a91)" style="fill: none; stroke: #000000; stroke-linecap: round"/>
    <path d="M 78.047501 41.464118 
L 81.454563 44.361001 
L 77.092819 45.34852 
z
" clip-path="url(#p3a037a5a91)" style="stroke: #000000; stroke-linecap: round"/>
   </g>
   <g id="patch_42">
    <path d="M 83.058137 62.910571 
Q 83.819026 63.077518 83.487858 63.004856 
" clip-path="url(#p3a037a5a91)" style="fill: none; stroke: #000000; stroke-linecap: round"/>
    <path d="M 80.009423 60.194076 
L 83.487858 63.004856 
L 79.152173 64.101137 
z
" clip-path="url(#p3a037a5a91)" style="stroke: #000000; stroke-linecap: round"/>
   </g>
   <g id="patch_43">
    <path d="M 81.001755 84.937287 
Q 81.263868 85.280934 80.847934 84.735619 
" clip-path="url(#p3a037a5a91)" style="fill: none; stroke: #000000; stroke-linecap: round"/>
    <path d="M 80.012303 80.342247 
L 80.847934 84.735619 
L 76.831858 82.768101 
z
" clip-path="url(#p3a037a5a91)" style="stroke: #000000; stroke-linecap: round"/>
   </g>
   <g id="patch_44">
    <path d="M 82.050208 108.958986 
Q 81.788095 109.302632 82.204028 108.757318 
" clip-path="url(#p3a037a5a91)" style="fill: none; stroke: #000000; stroke-linecap: round"/>
    <path d="M 86.220105 106.7898 
L 82.204028 108.757318 
L 83.03966 104.363945 
z
" clip-path="url(#p3a037a5a91)" style="stroke: #000000; stroke-linecap: round"/>
   </g>
   <g id="patch_45">
    <path d="M 188.880458 147.941126 
Q 188.065961 148.407369 188.221769 148.31818 
" clip-path="url(#p3a037a5a91)" style="fill: none; stroke: #000000; stroke-linecap: round"/>
    <path d="M 192.686831 148.066741 
L 188.221769 148.31818 
L 190.699656 144.595267 
z
" clip-path="url(#p3a037a5a91)" style="stroke: #000000; stroke-linecap: round"/>
   </g>
   <g id="patch_46">
    <path d="M 225.145428 139.20573 
Q 224.972509 139.516933 225.342622 138.850836 
" clip-path="url(#p3a037a5a91)" style="fill: none; stroke: #000000; stroke-linecap: round"/>
    <path d="M 229.033679 136.325742 
L 225.342622 138.850836 
L 225.537181 134.382934 
z
" clip-path="url(#p3a037a5a91)" style="stroke: #000000; stroke-linecap: round"/>
   </g>
   <g id="patch_47">
    <path d="M 265.841608 139.442278 
Q 264.986434 139.487656 265.247722 139.473792 
" clip-path="url(#p3a037a5a91)" style="fill: none; stroke: #000000; stroke-linecap: round"/>
    <path d="M 269.34808 141.259028 
L 265.247722 139.473792 
L 269.136126 137.264647 
z
" clip-path="url(#p3a037a5a91)" style="stroke: #000000; stroke-linecap: round"/>
   </g>
   <g id="patch_48">
    <path d="M 254.702089 67.299929 
Q 255.39219 67.858354 255.213165 67.713488 
" clip-path="url(#p3a037a5a91)" style="fill: none; stroke: #000000; stroke-linecap: round"/>
    <path d="M 253.361768 63.642575 
L 255.213165 67.713488 
L 250.845596 66.752058 
z
" clip-path="url(#p3a037a5a91)" style="stroke: #000000; stroke-linecap: round"/>
   </g>
   <g id="patch_49">
    <path d="M 144.539594 74.945022 
Q 144.630733 74.674841 144.364514 75.464044 
" clip-path="url(#p3a037a5a91)" style="fill: none; stroke: #000000; stroke-linecap: round"/>
    <path d="M 141.190909 78.614953 
L 144.364514 75.464044 
L 144.981078 79.893474 
z
" clip-path="url(#p3a037a5a91)" style="stroke: #000000; stroke-linecap: round"/>
   </g>
   <g id="patch_50">
    <path d="M 86.462252 55.828581 
Q 87.317427 55.783203 87.056138 55.797068 
" clip-path="url(#p3a037a5a91)" style="fill: none; stroke: #000000; stroke-linecap: round"/>
    <path d="M 82.955781 54.011831 
L 87.056138 55.797068 
L 83.167734 58.006212 
z
" clip-path="url(#p3a037a5a91)" style="stroke: #000000; stroke-linecap: round"/>
   </g>
   <g id="patch_51">
    <path d="M 97.601772 127.970931 
Q 96.91167 127.412505 97.090696 127.557371 
" clip-path="url(#p3a037a5a91)" style="fill: none; stroke: #000000; stroke-linecap: round"/>
    <path d="M 98.942093 131.628284 
L 97.090696 127.557371 
L 101.458264 128.518802 
z
" clip-path="url(#p3a037a5a91)" style="stroke: #000000; stroke-linecap: round"/>
   </g>
   <g id="patch_52">
    <path d="M 96.279689 145.530637 
Q 96.158197 145.471632 97.042402 145.901066 
" clip-path="url(#p3a037a5a91)" style="fill: none; stroke: #000000; stroke-linecap: round"/>
    <path d="M 99.766747 149.447606 
L 97.042402 145.901066 
L 101.514241 145.849514 
z
" clip-path="url(#p3a037a5a91)" style="stroke: #000000; stroke-linecap: round"/>
   </g>
   <g id="patch_53">
    <path d="M 178.773617 146.799866 
Q 177.861182 146.839515 178.065728 146.830627 
" clip-path="url(#p3a037a5a91)" style="fill: none; stroke: #000000; stroke-linecap: round"/>
    <path d="M 182.148783 148.655089 
L 178.065728 146.830627 
L 181.975131 144.658861 
z
" clip-path="url(#p3a037a5a91)" style="stroke: #000000; stroke-linecap: round"/>
   </g>
   <g id="patch_54">
    <path d="M 256.024172 49.740222 
Q 256.145664 49.799227 255.261459 49.369793 
" clip-path="url(#p3a037a5a91)" style="fill: none; stroke: #000000; stroke-linecap: round"/>
    <path d="M 252.537114 45.823254 
L 255.261459 49.369793 
L 250.78962 49.421345 
z
" clip-path="url(#p3a037a5a91)" style="stroke: #000000; stroke-linecap: round"/>
   </g>
   <g id="patch_55">
    <path d="M 204.822337 78.06303 
Q 204.899543 78.328423 204.664445 77.520286 
" clip-path="url(#p3a037a5a91)" style="fill: none; stroke: #000000; stroke-linecap: round"/>
    <path d="M 205.467499 73.120843 
L 204.664445 77.520286 
L 201.626723 74.238177 
z
" clip-path="url(#p3a037a5a91)" style="stroke: #000000; stroke-linecap: round"/>
   </g>
   <g id="patch_56">
    <path d="M 168.030731 134.544302 
Q 167.383479 134.09387 167.653914 134.282069 
" clip-path="url(#p3a037a5a91)" style="fill: none; stroke: #000000; stroke-linecap: round"/>
    <path d="M 169.79471 138.208517 
L 167.653914 134.282069 
L 172.07955 134.925301 
z
" clip-path="url(#p3a037a5a91)" style="stroke: #000000; stroke-linecap: round"/>
   </g>
   <g id="patch_57">
    <path d="M 240.064433 98.088392 
Q 240.060691 98.32819 240.074393 97.45009 
" clip-path="url(#p3a037a5a91)" style="fill: none; stroke: #000000; stroke-linecap: round"/>
    <path d="M 242.13656 93.481782 
L 240.074393 97.45009 
L 238.137047 93.419371 
z
" clip-path="url(#p3a037a5a91)" style="stroke: #000000; stroke-linecap: round"/>
   </g>
   <g id="patch_58">
    <path d="M 181.826938 69.842445 
Q 182.586206 70.394669 182.441296 70.289274 
" clip-path="url(#p3a037a5a91)" style="fill: none; stroke: #000000; stroke-linecap: round"/>
    <path d="M 180.382792 66.319064 
L 182.441296 70.289274 
L 178.030026 69.553951 
z
" clip-path="url(#p3a037a5a91)" style="stroke: #000000; stroke-linecap: round"/>
   </g>
   <g id="patch_59">
    <path d="M 178.320205 116.814909 
Q 177.755419 116.896156 178.297276 116.818207 
" clip-path="url(#p3a037a5a91)" style="fill: none; stroke: #000000; stroke-linecap: round"/>
    <path d="M 182.541299 118.228269 
L 178.297276 116.818207 
L 181.971739 114.269027 
z
" clip-path="url(#p3a037a5a91)" style="stroke: #000000; stroke-linecap: round"/>
   </g>
   <g id="patch_60">
    <path d="M 173.983656 78.45595 
Q 174.548441 78.374703 174.006584 78.452652 
" clip-path="url(#p3a037a5a91)" style="fill: none; stroke: #000000; stroke-linecap: round"/>
    <path d="M 169.762562 77.04259 
L 174.006584 78.452652 
L 170.332121 81.001833 
z
" clip-path="url(#p3a037a5a91)" style="stroke: #000000; stroke-linecap: round"/>
   </g>
   <g id="patch_61">
    <path d="M 169.713731 96.485905 
Q 169.71957 96.403805 169.646087 97.436922 
" clip-path="url(#p3a037a5a91)" style="fill: none; stroke: #000000; stroke-linecap: round"/>
    <path d="M 167.367332 101.284945 
L 169.646087 97.436922 
L 171.357252 101.56874 
z
" clip-path="url(#p3a037a5a91)" style="stroke: #000000; stroke-linecap: round"/>
   </g>
   <g id="patch_62">
    <path d="M 182.566772 96.157507 
Q 182.572611 96.239607 182.499128 95.206489 
" clip-path="url(#p3a037a5a91)" style="fill: none; stroke: #000000; stroke-linecap: round"/>
    <path d="M 184.210293 91.074672 
L 182.499128 95.206489 
L 180.220373 91.358467 
z
" clip-path="url(#p3a037a5a91)" style="stroke: #000000; stroke-linecap: round"/>
   </g>
   <g id="patch_63">
    <path d="M 42.963885 172.070361 
L 42.963885 23.200498 
" style="fill: none; stroke: #000000; stroke-width: 0.8; stroke-linejoin: miter; stroke-linecap: square"/>
   </g>
   <g id="patch_64">
    <path d="M 309.339975 172.070361 
L 309.339975 23.200498 
" style="fill: none; stroke: #000000; stroke-width: 0.8; stroke-linejoin: miter; stroke-linecap: square"/>
   </g>
   <g id="patch_65">
    <path d="M 42.963885 172.070361 
L 309.339975 172.070361 
" style="fill: none; stroke: #000000; stroke-width: 0.8; stroke-linejoin: miter; stroke-linecap: square"/>
   </g>
   <g id="patch_66">
    <path d="M 42.963885 23.200498 
L 309.339975 23.200498 
" style="fill: none; stroke: #000000; stroke-width: 0.8; stroke-linejoin: miter; stroke-linecap: square"/>
   </g>
  </g>
 </g>
 <defs>
  <clipPath id="p3a037a5a91">
   <rect x="42.963885" y="23.200498" width="266.37609" height="148.869863"/>
  </clipPath>
 </defs>
</svg>
