<?xml version="1.0" encoding="utf-8" standalone="no"?>
<!DOCTYPE svg PUBLIC "-//W3C//DTD SVG 1.1//EN"
  "http://www.w3.org/Graphics/SVG/1.1/DTD/svg11.dtd">
<svg xmlns:xlink="http://www.w3.org/1999/xlink" width="343.711083pt" height="193.337484pt" viewBox="0 0 343.711083 193.337484" xmlns="http://www.w3.org/2000/svg" version="1.1">
 <metadata>
  <rdf:RDF xmlns:dc="http://purl.org/dc/elements/1.1/" xmlns:cc="http://creativecommons.org/ns#" xmlns:rdf="http://www.w3.org/1999/02/22-rdf-syntax-ns#">
   <cc:Work>
    <dc:type rdf:resource="http://purl.org/dc/dcmitype/StillImage"/>
    <dc:date>2026-02-12T22:47:45.657783</dc:date>
    <dc:format>image/svg+xml</dc:format>
    <dc:creator>
     <cc:Agent>
      <dc:title>Matplotlib v3.10.0, https://matplotlib.org/</dc:title>
     </cc:Agent>
    </dc:creator>
   </cc:Work>
  </rdf:RDF>
 </metadata>
 <defs>
  <style type="text/css">*{stroke-linejoin: round; stroke-linecap: butt}</style>
 </defs>
 <g id="figure_1">
  <g id="patch_1">
   <path d="M 0 193.337484 
L 343.711083 193.337484 
L 343.711083 0 
L 0 0 
z
" style="fill: #ffffff"/>
  </g>
  <g id="axes_1">
   <g id="LineCollection_1">
    <path d="M 111.983886 172.070361 
L 111.983886 172.070361 
L 108.095205 169.016353 
L 105.218659 165.772369 
L 103.194697 162.38265 
L 101.716999 159.272656 
" clip-path="url(#pff2b78addb)" style="fill: none; stroke: #ced4da"/>
    <path d="M 117.117329 172.070361 
L 117.117329 172.070361 
L 112.915026 169.459278 
L 109.52026 166.456695 
L 106.964063 163.199882 
L 105.216516 159.811086 
L 104.206371 156.372324 
L 103.855673 152.921676 
L 104.104859 149.465313 
L 104.921901 145.993763 
L 106.300399 142.493704 
L 108.253826 138.953929 
L 110.809959 135.367017 
L 114.006241 131.729713 
L 117.586825 128.301393 
L 121.40106 125.13245 
L 125.392835 122.188508 
L 129.521945 119.439275 
L 133.759017 116.858671 
L 138.082151 114.424399 
L 142.47474 112.117319 
L 146.923864 109.920985 
L 151.419396 107.821013 
L 155.953189 105.804734 
L 160.518499 103.860908 
L 165.109706 101.97971 
L 169.723508 100.154962 
L 174.37849 98.457964 
L 174.37849 98.457964 
L 175.570909 98.041996 
L 175.88918 96.742816 
L 175.946878 95.342462 
L 175.974949 91.739724 
L 176.044133 86.778 
L 176.208169 81.818745 
L 176.519451 76.866935 
L 177.034516 71.932749 
L 177.816899 67.034727 
L 178.937957 62.20429 
L 180.475588 57.491832 
L 182.508665 52.973729 
L 185.104958 48.757678 
L 188.264601 45.019524 
L 191.743998 42.047062 
L 195.477189 39.799215 
L 199.409732 38.246933 
L 203.469749 37.386593 
L 207.556497 37.225925 
L 211.538832 37.764739 
L 215.266679 38.976269 
L 218.594621 40.796835 
L 221.407458 43.130365 
L 223.634106 45.86537 
L 225.244156 48.893258 
L 226.234245 52.118365 
L 226.615423 55.460096 
L 226.405521 58.852591 
L 225.624303 62.245899 
L 224.288331 65.606996 
L 222.405614 68.918752 
L 219.971664 72.176623 
L 216.968549 75.383663 
L 213.365903 78.547069 
L 209.386222 81.501975 
L 205.219058 84.18933 
L 200.914539 86.652915 
L 196.507866 88.930287 
L 192.024201 91.053095 
L 187.482007 93.047295 
L 182.892891 94.929864 
L 178.238486 96.607303 
L 178.238486 96.607303 
L 177.039668 97.093753 
L 176.61827 98.301425 
L 176.420347 99.450649 
" clip-path="url(#pff2b78addb)" style="fill: none; stroke: #ced4da"/>
    <path d="M 127.384217 172.070361 
L 127.384217 172.070361 
L 122.700509 170.464317 
L 118.347099 168.212012 
L 114.686246 165.47665 
L 111.811688 162.399734 
L 109.733783 159.115044 
L 108.407541 155.726571 
L 107.764611 152.296841 
" clip-path="url(#pff2b78addb)" style="fill: none; stroke: #ced4da"/>
    <path d="M 250.586862 101.553644 
L 248.341502 101.566619 
L 243.379272 101.597699 
L 238.417079 101.634288 
L 233.454945 101.677994 
L 228.492903 101.731102 
L 223.531018 101.797026 
L 218.569413 101.881028 
L 213.608348 101.991739 
L 208.648439 102.144276 
L 203.691379 102.367738 
L 198.742972 102.725946 
L 194.662605 103.233032 
L 191.750285 103.850451 
L 189.544011 104.627623 
L 187.659956 105.748638 
L 186.148825 107.323735 
L 186.148825 107.323735 
L 184.974573 109.506953 
L 184.974573 109.506953 
L 183.961659 112.920056 
L 183.961659 112.920056 
L 183.113964 117.806456 
L 182.459787 122.72542 
L 181.778227 127.640485 
L 180.950953 132.53241 
L 179.891725 137.378384 
L 178.526524 142.145864 
L 176.789199 146.788999 
L 174.624399 151.24692 
L 171.994681 155.445341 
L 168.888576 159.302878 
L 165.327299 162.739685 
L 161.354458 165.6955 
L 157.038906 168.124575 
L 152.456039 170.002809 
L 147.680952 171.319713 
L 142.784547 172.070361 
L 142.784547 172.070361 
" clip-path="url(#pff2b78addb)" style="fill: none; stroke: #ced4da"/>
    <path d="M 250.586862 104.486882 
L 247.320082 104.545758 
L 242.358719 104.643294 
L 237.397768 104.759695 
L 232.437474 104.900998 
L 227.478278 105.076121 
L 222.521032 105.298772 
L 217.567518 105.591149 
L 212.621868 105.9915 
L 207.695027 106.570996 
L 203.324683 107.355713 
L 199.955158 108.283415 
L 197.23394 109.416776 
L 194.854171 110.932638 
L 192.599534 113.243046 
L 190.986487 115.926476 
L 190.986487 115.926476 
L 189.265956 120.564709 
L 188.071413 125.378827 
L 187.050496 130.234918 
L 186.012126 135.087195 
L 184.835358 139.907028 
L 183.430623 144.664354 
L 181.725689 149.321221 
L 179.662649 153.829401 
L 177.20039 158.131032 
L 174.319087 162.162687 
L 171.0233 165.862368 
L 167.341066 169.177439 
L 163.318321 172.070361 
L 163.318321 172.070361 
" clip-path="url(#pff2b78addb)" style="fill: none; stroke: #ced4da"/>
    <path d="M 250.586862 107.97127 
L 249.610234 108.007803 
L 244.652079 108.210493 
L 239.695757 108.453436 
L 234.742388 108.749811 
L 229.794022 109.119169 
L 224.854646 109.591601 
L 219.932656 110.215574 
L 215.047391 111.072781 
L 210.695475 112.165668 
L 207.14867 113.445369 
L 204.131715 115.002611 
L 201.383689 117.061831 
L 198.731516 120.063963 
L 196.740568 123.450128 
L 196.740568 123.450128 
L 194.84958 128.029621 
L 193.340323 132.755325 
L 191.969056 137.524372 
L 190.574855 142.286613 
L 189.044793 147.006208 
L 187.293805 151.647335 
L 185.25635 156.168829 
L 182.884743 160.523116 
L 180.150577 164.658267 
L 177.046386 168.522582 
L 173.585208 172.070361 
L 173.585208 172.070361 
" clip-path="url(#pff2b78addb)" style="fill: none; stroke: #ced4da"/>
    <path d="M 250.586862 112.85634 
L 247.91037 113.082341 
L 242.969654 113.542733 
L 238.039723 114.10552 
L 233.128043 114.807552 
L 228.248877 115.703981 
L 223.430909 116.878526 
L 219.023339 118.341251 
L 215.263608 120.050609 
L 211.919604 122.136445 
L 208.787354 124.854361 
L 206.156921 128.024273 
L 206.156921 128.024273 
L 203.587671 132.256783 
L 201.486672 136.748292 
L 199.643783 141.354937 
L 197.887926 145.99623 
L 196.09058 150.621348 
L 194.154894 155.18956 
L 192.007466 159.661188 
L 189.594598 163.994332 
L 186.88146 168.145129 
L 183.852096 172.070361 
L 183.852096 172.070361 
" clip-path="url(#pff2b78addb)" style="fill: none; stroke: #ced4da"/>
    <path d="M 250.586862 119.050501 
L 246.567053 119.747096 
L 241.695802 120.687946 
L 236.874292 121.853524 
L 232.137394 123.319992 
L 227.577711 125.170565 
L 223.54648 127.339059 
L 219.822798 130.004472 
L 216.257095 133.434958 
L 213.202331 137.333116 
L 210.58481 141.543375 
L 208.267131 145.929433 
L 206.105612 150.395994 
L 203.976598 154.878387 
L 201.780878 159.328094 
L 199.441353 163.703201 
L 196.900498 167.963714 
L 194.118983 172.070361 
L 194.118983 172.070361 
" clip-path="url(#pff2b78addb)" style="fill: none; stroke: #ced4da"/>
    <path d="M 250.586862 122.702979 
L 249.886057 122.845466 
L 245.046814 123.937931 
L 240.270731 125.276208 
L 235.597612 126.933543 
L 231.091601 128.996027 
L 226.957847 131.467663 
L 223.065976 134.527327 
L 219.6126 138.076441 
L 216.595774 142.008103 
L 213.934572 146.192873 
L 211.508779 150.520784 
L 209.196504 154.911353 
L 206.891624 159.305866 
L 204.507789 163.657618 
L 201.977809 167.925389 
L 199.252426 172.070361 
L 199.252426 172.070361 
" clip-path="url(#pff2b78addb)" style="fill: none; stroke: #ced4da"/>
    <path d="M 243.079418 128.928531 
L 238.489745 130.803437 
L 234.092176 133.087934 
L 229.970854 135.835941 
L 226.20593 139.054338 
L 222.83633 142.687144 
L 219.835253 146.633589 
L 217.120888 150.785416 
L 214.587404 155.051668 
L 212.130183 159.362878 
L 209.657821 163.665332 
L 207.095626 167.914439 
L 204.38587 172.070361 
L 204.38587 172.070361 
" clip-path="url(#pff2b78addb)" style="fill: none; stroke: #ced4da"/>
    <path d="M 250.586862 135.323955 
L 248.086337 136.494774 
L 243.687804 138.781718 
L 239.515685 141.457358 
L 235.625238 144.527696 
L 232.047542 147.958685 
L 228.773207 151.682587 
L 225.752546 155.617242 
L 222.910389 159.684185 
L 220.163676 163.816888 
L 217.433775 167.960824 
L 214.652757 172.070361 
L 214.652757 172.070361 
" clip-path="url(#pff2b78addb)" style="fill: none; stroke: #ced4da"/>
    <path d="M 250.586862 145.218671 
L 248.380705 146.722063 
L 244.402338 149.680637 
L 240.678359 152.954424 
L 237.205549 156.495028 
L 233.951738 160.239469 
L 230.862807 164.122259 
L 227.873939 168.083277 
L 224.919644 172.070361 
L 224.919644 172.070361 
" clip-path="url(#pff2b78addb)" style="fill: none; stroke: #ced4da"/>
    <path d="M 250.586862 155.937372 
L 248.717471 157.582366 
L 245.094407 160.969944 
L 241.660111 164.549922 
L 238.374446 168.267755 
L 235.186531 172.070361 
L 235.186531 172.070361 
" clip-path="url(#pff2b78addb)" style="fill: none; stroke: #ced4da"/>
    <path d="M 250.586862 151.536587 
L 250.586862 151.536587 
L 246.718472 154.639212 
L 243.079624 158.009031 
L 239.652239 161.594981 
L 236.39667 165.338801 
L 233.259429 169.183144 
L 230.958065 172.070361 
" clip-path="url(#pff2b78addb)" style="fill: none; stroke: #ced4da"/>
    <path d="M 250.586862 95.068708 
L 250.586862 95.068708 
L 245.62455 95.081561 
L 240.662243 95.096258 
L 235.699943 95.113226 
L 230.737655 95.133033 
L 225.775382 95.156456 
L 220.813133 95.184584 
L 215.850926 95.219016 
L 210.888788 95.262149 
L 205.926777 95.317735 
L 200.965022 95.392141 
L 196.003841 95.496957 
" clip-path="url(#pff2b78addb)" style="fill: none; stroke: #ced4da"/>
    <path d="M 250.586862 89.935264 
L 250.586862 89.935264 
L 245.625964 90.05423 
L 240.665433 90.187513 
L 235.705392 90.337843 
L 230.746019 90.50869 
L 225.787577 90.704516 
L 220.830461 90.931175 
L 215.875282 91.196465 
L 210.92302 91.510985 
L 205.975307 91.889485 
L 201.034963 92.352956 
" clip-path="url(#pff2b78addb)" style="fill: none; stroke: #ced4da"/>
    <path d="M 250.586862 84.801821 
L 250.586862 84.801821 
L 245.636263 85.142433 
L 240.687997 85.515322 
L 235.742664 85.925142 
L 230.801049 86.377422 
L 225.864191 86.878774 
" clip-path="url(#pff2b78addb)" style="fill: none; stroke: #ced4da"/>
    <path d="M 250.586862 79.668377 
L 250.586862 79.668377 
L 245.672443 80.35587 
L 240.764575 81.088583 
L 235.864328 81.870554 
" clip-path="url(#pff2b78addb)" style="fill: none; stroke: #ced4da"/>
    <path d="M 250.586862 69.40149 
L 250.586862 69.40149 
L 245.948317 71.164602 
L 241.308784 72.925095 
L 236.668468 74.683505 
L 232.027561 76.440351 
L 227.386247 78.196136 
L 222.744713 79.95134 
L 218.103145 81.70642 
L 213.461714 83.461824 
L 208.820571 85.217984 
" clip-path="url(#pff2b78addb)" style="fill: none; stroke: #ced4da"/>
    <path d="M 250.586862 64.268047 
L 250.586862 64.268047 
L 246.27399 66.721689 
L 241.913768 69.09033 
L 237.51289 71.382649 
" clip-path="url(#pff2b78addb)" style="fill: none; stroke: #ced4da"/>
    <path d="M 250.586862 54.001159 
L 250.586862 54.001159 
L 247.490492 57.868125 
L 244.051998 61.438508 
L 240.359224 64.747954 
" clip-path="url(#pff2b78addb)" style="fill: none; stroke: #ced4da"/>
    <path d="M 239.971424 23.200498 
L 240.721922 23.718399 
L 243.796881 26.168056 
L 246.333069 28.884127 
L 248.329374 31.861411 
L 249.767437 35.115752 
L 250.586862 38.600829 
L 250.586862 38.600829 
L 250.586862 38.600829 
" clip-path="url(#pff2b78addb)" style="fill: none; stroke: #ced4da"/>
    <path d="M 235.186531 23.200498 
L 235.186531 23.200498 
L 239.388834 25.811581 
L 242.7836 28.814164 
L 245.339797 32.070977 
L 247.087345 35.459773 
" clip-path="url(#pff2b78addb)" style="fill: none; stroke: #ced4da"/>
    <path d="M 224.919644 23.200498 
L 224.919644 23.200498 
L 229.603352 24.806543 
L 233.956762 27.058848 
L 237.617615 29.794209 
L 240.492173 32.871126 
L 242.570077 36.155815 
L 243.89632 39.544288 
L 244.539249 42.974018 
L 244.56166 46.418997 
L 244.005151 49.875779 
L 242.887202 53.350497 
L 241.204663 56.850833 
L 238.938708 60.382708 
L 236.059211 63.949174 
L 232.593105 67.491129 
L 228.85605 70.749318 
L 224.915747 73.760815 
" clip-path="url(#pff2b78addb)" style="fill: none; stroke: #ced4da"/>
    <path d="M 101.716999 93.717216 
L 103.962358 93.70424 
L 108.924589 93.67316 
L 113.886782 93.636571 
L 118.848916 93.592865 
L 123.810957 93.539758 
L 128.772842 93.473834 
L 133.734448 93.389831 
L 138.695513 93.279121 
L 143.655422 93.126583 
L 148.612482 92.903121 
L 153.560888 92.544913 
L 157.641256 92.037827 
L 160.553575 91.420409 
L 162.75985 90.643237 
L 164.643904 89.522221 
L 166.155036 87.947124 
L 166.155036 87.947124 
L 167.329287 85.763906 
L 167.329287 85.763906 
L 168.342202 82.350804 
L 168.342202 82.350804 
L 169.189897 77.464404 
L 169.844073 72.54544 
L 170.525633 67.630374 
L 171.352907 62.738449 
L 172.412135 57.892476 
L 173.777337 53.124995 
L 175.514661 48.48186 
L 177.679462 44.023939 
L 180.30918 39.825519 
L 183.415285 35.967981 
L 186.976562 32.531174 
L 190.949402 29.575359 
L 195.264954 27.146284 
L 199.847821 25.26805 
L 204.622909 23.951147 
L 209.519313 23.200498 
L 209.519313 23.200498 
" clip-path="url(#pff2b78addb)" style="fill: none; stroke: #ced4da"/>
    <path d="M 101.716999 90.783977 
L 104.983779 90.725101 
L 109.945141 90.627566 
L 114.906092 90.511165 
L 119.866387 90.369861 
L 124.825583 90.194738 
L 129.782829 89.972088 
L 134.736343 89.67971 
L 139.681992 89.279359 
L 144.608834 88.699864 
L 148.979178 87.915147 
L 152.348703 86.987444 
L 155.069921 85.854083 
L 157.449689 84.338221 
L 159.704326 82.027813 
L 161.317374 79.344383 
L 161.317374 79.344383 
L 163.037905 74.706151 
L 164.232447 69.892032 
L 165.253364 65.035941 
L 166.291735 60.183664 
L 167.468503 55.363831 
L 168.873238 50.606506 
L 170.578172 45.949638 
L 172.641212 41.441458 
L 175.10347 37.139827 
L 177.984774 33.108173 
L 181.28056 29.408492 
L 184.962794 26.093421 
L 188.985539 23.200498 
L 188.985539 23.200498 
" clip-path="url(#pff2b78addb)" style="fill: none; stroke: #ced4da"/>
    <path d="M 101.716999 87.299589 
L 102.693626 87.263056 
L 107.651781 87.060366 
L 112.608104 86.817424 
L 117.561473 86.521048 
L 122.509839 86.15169 
L 127.449214 85.679258 
L 132.371205 85.055285 
L 137.25647 84.198078 
L 141.608385 83.105192 
L 145.155191 81.82549 
L 148.172146 80.268248 
L 150.920171 78.209028 
L 153.572345 75.206896 
L 155.563292 71.820732 
L 155.563292 71.820732 
L 157.454281 67.241238 
L 158.963537 62.515534 
L 160.334805 57.746487 
L 161.729005 52.984246 
L 163.259068 48.264651 
L 165.010055 43.623524 
L 167.04751 39.102031 
L 169.419118 34.747743 
L 172.153284 30.612592 
L 175.257474 26.748278 
L 178.718652 23.200498 
L 178.718652 23.200498 
" clip-path="url(#pff2b78addb)" style="fill: none; stroke: #ced4da"/>
    <path d="M 101.716999 82.414519 
L 104.39349 82.188519 
L 109.334207 81.728126 
L 114.264138 81.165339 
L 119.175818 80.463307 
L 124.054984 79.566878 
L 128.872952 78.392334 
L 133.280522 76.929609 
L 137.040253 75.22025 
L 140.384257 73.134414 
L 143.516507 70.416498 
L 146.146939 67.246586 
L 146.146939 67.246586 
L 148.71619 63.014076 
L 150.817189 58.522567 
L 152.660077 53.915922 
L 154.415934 49.274629 
L 156.213281 44.649511 
L 158.148967 40.0813 
L 160.296394 35.609672 
L 162.709262 31.276527 
L 165.4224 27.125731 
L 168.451765 23.200498 
L 168.451765 23.200498 
" clip-path="url(#pff2b78addb)" style="fill: none; stroke: #ced4da"/>
    <path d="M 101.716999 76.220359 
L 105.736808 75.523763 
L 110.608058 74.582913 
L 115.429568 73.417335 
L 120.166466 71.950867 
L 124.72615 70.100294 
L 128.757381 67.931801 
L 132.481063 65.266387 
L 136.046766 61.835901 
L 139.101529 57.937743 
L 141.71905 53.727484 
L 144.036729 49.341426 
L 146.198249 44.874866 
L 148.327263 40.392472 
L 150.522983 35.942765 
L 152.862507 31.567659 
L 155.403363 27.307145 
L 158.184878 23.200498 
L 158.184878 23.200498 
" clip-path="url(#pff2b78addb)" style="fill: none; stroke: #ced4da"/>
    <path d="M 101.716999 72.56788 
L 102.417804 72.425393 
L 107.257047 71.332928 
L 112.03313 69.994651 
L 116.706249 68.337316 
L 121.212259 66.274832 
L 125.346014 63.803196 
L 129.237885 60.743533 
L 132.691261 57.194418 
L 135.708086 53.262756 
L 138.369288 49.077987 
L 140.795082 44.750075 
L 143.107357 40.359506 
L 145.412236 35.964993 
L 147.796071 31.613241 
L 150.326052 27.34547 
L 153.051434 23.200498 
L 153.051434 23.200498 
" clip-path="url(#pff2b78addb)" style="fill: none; stroke: #ced4da"/>
    <path d="M 109.224443 66.342328 
L 113.814116 64.467422 
L 118.211685 62.182926 
L 122.333007 59.434918 
L 126.097931 56.216521 
L 129.46753 52.583715 
L 132.468607 48.63727 
L 135.182972 44.485443 
L 137.716457 40.219191 
L 140.173677 35.907981 
L 142.646039 31.605527 
L 145.208235 27.356421 
L 147.917991 23.200498 
L 147.917991 23.200498 
" clip-path="url(#pff2b78addb)" style="fill: none; stroke: #ced4da"/>
    <path d="M 101.716999 59.946904 
L 104.217524 58.776086 
L 108.616057 56.489141 
L 112.788176 53.813501 
L 116.678622 50.743163 
L 120.256318 47.312174 
L 123.530653 43.588272 
L 126.551315 39.653617 
L 129.393471 35.586674 
L 132.140184 31.453972 
L 134.870085 27.310035 
L 137.651104 23.200498 
L 137.651104 23.200498 
" clip-path="url(#pff2b78addb)" style="fill: none; stroke: #ced4da"/>
    <path d="M 101.716999 50.052189 
L 103.923156 48.548796 
L 107.901523 45.590222 
L 111.625501 42.316435 
L 115.098311 38.775832 
L 118.352123 35.031391 
L 121.441054 31.1486 
L 124.429922 27.187583 
L 127.384217 23.200498 
L 127.384217 23.200498 
" clip-path="url(#pff2b78addb)" style="fill: none; stroke: #ced4da"/>
    <path d="M 101.716999 39.333487 
L 103.586389 37.688493 
L 107.209453 34.300915 
L 110.643749 30.720937 
L 113.929414 27.003104 
L 117.117329 23.200498 
L 117.117329 23.200498 
" clip-path="url(#pff2b78addb)" style="fill: none; stroke: #ced4da"/>
    <path d="M 101.716999 43.734272 
L 101.716999 43.734272 
L 105.585388 40.631647 
L 109.224236 37.261828 
L 112.651621 33.675878 
L 115.90719 29.932059 
L 119.044432 26.087716 
L 121.345796 23.200498 
" clip-path="url(#pff2b78addb)" style="fill: none; stroke: #ced4da"/>
    <path d="M 101.716999 100.202151 
L 101.716999 100.202151 
L 106.679311 100.189298 
L 111.641618 100.174601 
L 116.603917 100.157633 
L 121.566206 100.137826 
L 126.528479 100.114403 
L 131.490727 100.086276 
L 136.452935 100.051844 
L 141.415073 100.00871 
L 146.377084 99.953124 
L 151.338839 99.878719 
L 156.30002 99.773902 
" clip-path="url(#pff2b78addb)" style="fill: none; stroke: #ced4da"/>
    <path d="M 101.716999 105.335595 
L 101.716999 105.335595 
L 106.677896 105.216629 
L 111.638428 105.083346 
L 116.598469 104.933016 
L 121.557841 104.762169 
L 126.516283 104.566343 
L 131.4734 104.339685 
L 136.428579 104.074395 
L 141.380841 103.759874 
L 146.328553 103.381374 
" clip-path="url(#pff2b78addb)" style="fill: none; stroke: #ced4da"/>
    <path d="M 101.716999 110.469039 
L 101.716999 110.469039 
L 106.667598 110.128427 
L 111.615863 109.755537 
L 116.561196 109.345717 
L 121.502812 108.893438 
L 126.439669 108.392085 
" clip-path="url(#pff2b78addb)" style="fill: none; stroke: #ced4da"/>
    <path d="M 101.716999 120.735926 
L 101.716999 120.735926 
L 106.540732 119.571533 
L 111.35497 118.368503 
L 116.159083 117.125686 
L 120.952431 115.841985 
L 125.734359 114.516391 
" clip-path="url(#pff2b78addb)" style="fill: none; stroke: #ced4da"/>
    <path d="M 135.593555 170.91979 
L 130.9831 170.192892 
L 126.758216 168.971663 
L 122.250773 166.936918 
L 118.161159 164.161646 
L 115.173333 161.193228 
" clip-path="url(#pff2b78addb)" style="fill: none; stroke: #ced4da"/>
    <path d="M 151.300435 166.455972 
L 146.643647 167.516202 
L 141.954351 167.956019 
L 137.390854 167.792872 
L 132.51766 166.936918 
" clip-path="url(#pff2b78addb)" style="fill: none; stroke: #ced4da"/>
    <path d="M 216.710306 24.351069 
L 221.32076 25.077968 
L 225.545645 26.299196 
L 230.053088 28.333942 
L 234.142702 31.109213 
L 237.130527 34.077632 
" clip-path="url(#pff2b78addb)" style="fill: none; stroke: #ced4da"/>
    <path d="M 201.003426 28.814887 
L 205.660214 27.754657 
L 210.349509 27.31484 
L 214.913006 27.477987 
L 219.7862 28.333942 
" clip-path="url(#pff2b78addb)" style="fill: none; stroke: #ced4da"/>
    <path d="M 101.716999 128.224059 
L 102.33892 127.935873 
L 106.850442 125.869369 
L 111.378059 123.838388 
L 115.920002 121.839649 
L 120.474858 119.870503 
" clip-path="url(#pff2b78addb)" style="fill: none; stroke: #ced4da"/>
    <path d="M 125.562191 164.018933 
L 122.250773 161.803474 
L 122.250773 161.803474 
L 122.250773 161.803474 
L 119.475159 159.191496 
L 117.206915 156.112852 
L 115.651292 152.841772 
L 114.775119 149.472079 
L 114.528901 146.055576 
L 114.872255 142.618456 
L 115.781299 139.171982 
L 117.249062 135.720079 
L 119.28328 132.263635 
L 121.903833 128.802501 
L 125.140495 125.336101 
" clip-path="url(#pff2b78addb)" style="fill: none; stroke: #ced4da"/>
    <path d="M 175.697256 134.62673 
L 174.278184 139.376759 
L 172.416952 143.969133 
L 170.154696 148.158732 
L 167.510773 151.891124 
L 164.477535 155.17301 
L 161.060892 157.985324 
L 157.29177 160.289576 
L 153.235466 162.039117 
L 148.992589 163.194216 
L 144.688947 163.735575 
L 140.456784 163.670693 
L 136.421813 163.032132 
L 132.51766 161.803474 
L 132.51766 161.803474 
L 132.51766 161.803474 
" clip-path="url(#pff2b78addb)" style="fill: none; stroke: #ced4da"/>
    <path d="M 250.586862 131.575243 
L 249.337445 132.032089 
L 244.744222 133.900536 
L 240.319975 136.136256 
L 236.131813 138.786184 
L 232.246299 141.861544 
" clip-path="url(#pff2b78addb)" style="fill: none; stroke: #ced4da"/>
    <path d="M 239.506141 41.594403 
L 240.260781 45.185155 
L 240.319975 48.867716 
L 240.319975 48.867716 
L 240.319975 48.867716 
L 239.740369 52.447973 
L 238.61419 55.901361 
L 236.923934 59.375372 
" clip-path="url(#pff2b78addb)" style="fill: none; stroke: #ced4da"/>
    <path d="M 226.741669 31.251927 
L 230.053088 33.467385 
L 230.053088 33.467385 
L 230.053088 33.467385 
L 232.828702 36.079363 
L 235.096945 39.158007 
L 236.652569 42.429088 
L 237.528742 45.79878 
" clip-path="url(#pff2b78addb)" style="fill: none; stroke: #ced4da"/>
    <path d="M 184.793088 43.379735 
L 187.826326 40.097849 
L 191.242969 37.285536 
L 195.01209 34.981284 
L 199.068395 33.231743 
L 203.311271 32.076643 
L 207.614913 31.535285 
L 211.847077 31.600166 
L 215.882047 32.238727 
L 219.7862 33.467385 
L 219.7862 33.467385 
L 219.7862 33.467385 
" clip-path="url(#pff2b78addb)" style="fill: none; stroke: #ced4da"/>
    <path d="M 101.716999 63.695616 
L 102.966416 63.238771 
L 107.559639 61.370324 
L 111.983886 59.134603 
L 116.172047 56.484675 
L 120.057562 53.409316 
" clip-path="url(#pff2b78addb)" style="fill: none; stroke: #ced4da"/>
    <path d="M 130.378544 158.850756 
L 127.384217 156.67003 
L 127.384217 156.67003 
L 127.384217 156.67003 
L 124.895578 154.075101 
L 122.929696 151.056052 
L 121.622663 147.83244 
L 120.953947 144.491098 
L 120.892648 141.090626 
L 121.411548 137.670584 
L 122.492198 134.25596 
" clip-path="url(#pff2b78addb)" style="fill: none; stroke: #ced4da"/>
    <path d="M 165.672115 148.601913 
L 162.796245 151.546114 
L 159.597392 153.994703 
L 156.118821 155.912271 
L 152.433964 157.260208 
L 148.642664 158.010694 
L 144.858985 158.156345 
L 141.197117 157.712204 
L 137.651104 156.67003 
L 137.651104 156.67003 
L 137.651104 156.67003 
" clip-path="url(#pff2b78addb)" style="fill: none; stroke: #ced4da"/>
    <path d="M 210.040919 134.362841 
L 207.51871 138.629789 
L 205.327094 143.079925 
L 203.303854 147.610778 
L 201.314168 152.156729 
L 199.252426 156.67003 
" clip-path="url(#pff2b78addb)" style="fill: none; stroke: #ced4da"/>
    <path d="M 242.598673 144.964802 
L 238.75047 148.089672 
L 235.186531 151.536587 
L 231.89039 155.242238 
L 228.812198 159.132587 
" clip-path="url(#pff2b78addb)" style="fill: none; stroke: #ced4da"/>
    <path d="M 142.262942 60.908018 
L 144.78515 56.64107 
L 146.976766 52.190935 
L 149.000007 47.660081 
L 150.989692 43.11413 
L 153.051434 38.600829 
" clip-path="url(#pff2b78addb)" style="fill: none; stroke: #ced4da"/>
    <path d="M 109.705188 50.306058 
L 113.553391 47.181187 
L 117.117329 43.734272 
L 120.413471 40.028621 
L 123.491663 36.138272 
" clip-path="url(#pff2b78addb)" style="fill: none; stroke: #ced4da"/>
    <path d="M 135.218364 153.664445 
L 132.51766 151.536587 
L 132.51766 151.536587 
L 132.51766 151.536587 
L 130.284576 148.962939 
L 128.588157 146.010705 
L 127.500707 142.833327 
L 127.019325 139.51757 
L 127.131028 136.136558 
L 127.817608 132.748568 
L 129.060846 129.393878 
L 130.849144 126.094306 
L 133.182906 122.85654 
L 136.076777 119.677514 
" clip-path="url(#pff2b78addb)" style="fill: none; stroke: #ced4da"/>
    <path d="M 154.450054 150.773026 
L 151.220456 151.453831 
L 147.917991 151.536587 
L 147.917991 151.536587 
L 147.917991 151.536587 
L 144.557654 150.96381 
L 141.417204 149.730415 
L 138.6613 147.915992 
L 136.370267 145.612581 
L 134.595467 142.913443 
L 133.371631 139.909912 
L 132.723132 136.695331 
L 132.661656 133.366129 
L 133.181653 130.013118 
" clip-path="url(#pff2b78addb)" style="fill: none; stroke: #ced4da"/>
    <path d="M 233.963907 47.477794 
L 234.292999 51.287277 
L 233.813744 55.445234 
L 232.379627 59.89978 
L 230.053088 64.268047 
" clip-path="url(#pff2b78addb)" style="fill: none; stroke: #ced4da"/>
    <path d="M 222.874286 36.092928 
L 225.736456 38.239646 
L 228.137828 40.78259 
L 230.053088 43.734272 
L 230.053088 43.734272 
L 230.053088 43.734272 
L 231.34365 46.881968 
L 232.034067 50.225976 
L 232.11509 53.628298 
" clip-path="url(#pff2b78addb)" style="fill: none; stroke: #ced4da"/>
    <path d="M 199.716436 43.162402 
L 203.040145 42.753289 
L 206.323307 42.941096 
L 209.519313 43.734272 
L 209.519313 43.734272 
L 209.519313 43.734272 
L 212.568119 45.163159 
L 215.244798 47.16206 
L 217.428343 49.619987 
L 219.072104 52.440418 
L 220.14772 55.530402 
L 220.638372 58.796959 
L 220.540595 62.148177 
L 219.866105 65.502794 
L 218.636273 68.80252 
" clip-path="url(#pff2b78addb)" style="fill: none; stroke: #ced4da"/>
    <path d="M 174.603496 103.521948 
L 174.603496 103.521948 
L 174.416879 105.217157 
L 174.416879 105.217157 
L 173.97061 110.159089 
L 173.513511 115.099811 
L 172.88469 120.02054 
L 171.984452 124.897306 
L 170.715246 129.688701 
L 169.131691 133.954702 
L 167.267946 137.644819 
L 165.135037 140.80092 
L 162.749243 143.440299 
L 160.135388 145.561251 
L 157.331482 147.148126 
L 154.391219 148.178566 
L 151.382401 148.630835 
L 148.382115 148.488209 
L 145.472977 147.739299 
L 142.784547 146.403143 
L 142.784547 146.403143 
L 142.784547 146.403143 
L 140.338096 144.451074 
L 138.376775 142.05992 
L 136.911161 139.290693 
L 135.981799 136.230811 
L 135.622302 132.98177 
L 135.847543 129.654587 
L 136.646948 126.349885 
" clip-path="url(#pff2b78addb)" style="fill: none; stroke: #ced4da"/>
    <path d="M 181.588615 65.582159 
L 183.17217 61.316158 
L 185.035914 57.626041 
L 187.168823 54.46994 
L 189.554618 51.83056 
L 192.168472 49.709609 
L 194.972379 48.122733 
L 197.912641 47.092294 
L 200.921459 46.640025 
L 203.921746 46.78265 
L 206.830884 47.53156 
L 209.519313 48.867716 
L 209.519313 48.867716 
L 209.519313 48.867716 
L 211.965765 50.819785 
L 213.927085 53.210939 
L 215.392699 55.980167 
L 216.322061 59.040048 
L 216.681559 62.28909 
L 216.456318 65.616272 
L 215.656912 68.920974 
" clip-path="url(#pff2b78addb)" style="fill: none; stroke: #ced4da"/>
    <path d="M 160.433776 140.636697 
L 158.006362 141.908047 
L 155.481361 142.635874 
L 152.897728 142.792112 
L 150.309522 142.331649 
L 147.917991 141.2697 
L 147.917991 141.2697 
L 147.917991 141.2697 
L 145.655953 139.521574 
L 143.893217 137.363776 
L 142.546847 134.778108 
L 141.679067 131.840112 
L 141.354438 128.663478 
L 141.612091 125.395924 
L 142.445684 122.180014 
L 143.815801 119.106244 
L 145.684336 116.201087 
L 148.038389 113.449365 
L 150.892332 110.821657 
L 154.279972 108.288838 
" clip-path="url(#pff2b78addb)" style="fill: none; stroke: #ced4da"/>
    <path d="M 191.870084 54.634162 
L 194.297498 53.362812 
L 196.8225 52.634985 
L 199.406133 52.478747 
L 201.994339 52.93921 
L 204.38587 54.001159 
L 204.38587 54.001159 
L 204.38587 54.001159 
L 206.647907 55.749285 
L 208.410643 57.907084 
L 209.757013 60.492752 
L 210.624794 63.430747 
L 210.949423 66.607381 
L 210.691769 69.874936 
L 209.858176 73.090846 
L 208.48806 76.164615 
L 206.619525 79.069772 
L 204.265471 81.821494 
" clip-path="url(#pff2b78addb)" style="fill: none; stroke: #ced4da"/>
    <path d="M 165.32779 131.6474 
L 163.481349 133.737584 
L 161.533279 135.29478 
L 159.497577 136.338162 
L 157.373994 136.860941 
L 155.159852 136.807056 
L 153.051434 136.136256 
L 153.051434 136.136256 
L 153.051434 136.136256 
L 150.937727 134.713384 
L 149.339864 132.8923 
L 148.066639 130.591561 
L 147.19484 127.860264 
L 146.823057 124.810386 
L 147.027451 121.628326 
L 147.81487 118.516204 
" clip-path="url(#pff2b78addb)" style="fill: none; stroke: #ced4da"/>
    <path d="M 186.976071 63.623459 
L 188.822512 61.533275 
L 190.770582 59.97608 
L 192.806284 58.932698 
L 194.929867 58.409918 
L 197.144008 58.463804 
L 199.252426 59.134603 
L 199.252426 59.134603 
L 199.252426 59.134603 
L 201.366134 60.557475 
L 202.963996 62.378559 
L 204.237222 64.679298 
L 205.109021 67.410595 
L 205.480803 70.460474 
L 205.276409 73.642533 
L 204.48899 76.754655 
" clip-path="url(#pff2b78addb)" style="fill: none; stroke: #ced4da"/>
    <path d="M 160.078448 131.077644 
L 158.184878 131.002813 
L 158.184878 131.002813 
L 158.184878 131.002813 
L 156.181939 130.145588 
L 154.69869 128.821673 
L 153.456849 126.99981 
L 152.501349 124.67041 
L 151.948425 121.893193 
L 151.930928 118.852145 
L 152.51043 115.823926 
" clip-path="url(#pff2b78addb)" style="fill: none; stroke: #ced4da"/>
    <path d="M 192.225413 64.193215 
L 194.118983 64.268047 
L 194.118983 64.268047 
L 194.118983 64.268047 
L 196.121921 65.125272 
L 197.605171 66.449187 
L 198.847012 68.271049 
L 199.802512 70.60045 
L 200.355435 73.377666 
L 200.372933 76.418715 
L 199.793431 79.446933 
" clip-path="url(#pff2b78addb)" style="fill: none; stroke: #ced4da"/>
    <path d="M 169.871536 117.470874 
L 168.55 120.597767 
L 167.190994 123.010626 
L 165.808735 124.805814 
L 164.413774 126.065725 
L 162.98688 126.855509 
L 161.427443 127.180343 
L 159.647113 126.840522 
L 158.184878 125.869369 
L 158.184878 125.869369 
L 158.184878 125.869369 
L 156.699581 123.960164 
L 155.80943 121.907373 
" clip-path="url(#pff2b78addb)" style="fill: none; stroke: #ced4da"/>
    <path d="M 180.826365 106.148223 
L 180.826365 106.148223 
L 180.098412 111.048785 
L 179.688427 115.994021 
L 179.2687 120.938391 
L 178.718652 125.869369 
" clip-path="url(#pff2b78addb)" style="fill: none; stroke: #ced4da"/>
    <path d="M 182.432324 77.799986 
L 183.75386 74.673092 
L 185.112866 72.260233 
L 186.495125 70.465045 
L 187.890086 69.205134 
L 189.31698 68.41535 
L 190.876418 68.090517 
L 192.656747 68.430337 
L 194.118983 69.40149 
L 194.118983 69.40149 
L 194.118983 69.40149 
L 195.60428 71.310696 
L 196.49443 73.363486 
" clip-path="url(#pff2b78addb)" style="fill: none; stroke: #ced4da"/>
    <path d="M 165.753806 120.646709 
L 164.542613 120.974693 
L 163.318321 120.735926 
L 163.318321 120.735926 
L 163.318321 120.735926 
L 163.318321 120.735926 
L 163.318321 120.735926 
L 162.044103 119.759401 
L 161.169657 118.439788 
L 160.444467 116.533992 
L 160.043318 114.075726 
L 160.182056 111.324901 
L 160.929274 108.735658 
L 162.144087 106.539083 
L 163.720644 104.669024 
L 165.657813 103.006518 
" clip-path="url(#pff2b78addb)" style="fill: none; stroke: #ced4da"/>
    <path d="M 186.550054 74.62415 
L 187.761248 74.296166 
L 188.985539 74.534934 
L 188.985539 74.534934 
L 188.985539 74.534934 
L 188.985539 74.534934 
L 188.985539 74.534934 
L 190.259757 75.511459 
L 191.134204 76.831072 
L 191.859393 78.736867 
L 192.260543 81.195133 
L 192.121804 83.945958 
L 191.374587 86.535201 
L 190.159773 88.731776 
L 188.583216 90.601835 
L 186.646047 92.264342 
" clip-path="url(#pff2b78addb)" style="fill: none; stroke: #ced4da"/>
    <path d="M 178.241271 92.316867 
L 178.241271 92.316867 
L 179.330129 89.304809 
L 180.230236 87.189945 
L 180.999507 85.793215 
L 181.66384 84.944328 
L 182.302101 84.459117 
L 183.060918 84.316168 
L 183.060918 84.316168 
L 183.852096 84.801821 
L 183.852096 84.801821 
L 183.852096 84.801821 
L 183.852096 84.801821 
L 184.727702 86.440037 
L 185.030057 88.064934 
L 184.873746 90.260552 
L 184.10633 92.176094 
" clip-path="url(#pff2b78addb)" style="fill: none; stroke: #ced4da"/>
   </g>
   <g id="patch_2">
    <path d="M 106.766488 167.517911 
Q 106.71171 167.456136 107.398705 168.230885 
" clip-path="url(#pff2b78addb)" style="fill: none; stroke: #ced4da; stroke-linecap: round"/>
    <path d="M 108.556134 172.550649 
L 107.398705 168.230885 
L 111.548973 169.896801 
z
" clip-path="url(#pff2b78addb)" style="fill: #ced4da; stroke: #ced4da; stroke-linecap: round"/>
   </g>
   <g id="patch_3">
    <path d="M 177.350067 69.957277 
Q 177.387887 69.720508 177.249354 70.587776 
" clip-path="url(#pff2b78addb)" style="fill: none; stroke: #ced4da; stroke-linecap: round"/>
    <path d="M 174.643452 74.222232 
L 177.249354 70.587776 
L 178.593378 74.853172 
z
" clip-path="url(#pff2b78addb)" style="fill: #ced4da; stroke: #ced4da; stroke-linecap: round"/>
   </g>
   <g id="patch_4">
    <path d="M 113.319146 164.013312 
Q 113.284057 163.975752 114.012215 164.75517 
" clip-path="url(#pff2b78addb)" style="fill: none; stroke: #ced4da; stroke-linecap: round"/>
    <path d="M 115.281439 169.043418 
L 114.012215 164.75517 
L 118.204347 166.312739 
z
" clip-path="url(#pff2b78addb)" style="fill: #ced4da; stroke: #ced4da; stroke-linecap: round"/>
   </g>
   <g id="patch_5">
    <path d="M 183.619766 114.89084 
Q 183.578789 115.127048 183.728914 114.261675 
" clip-path="url(#pff2b78addb)" style="fill: none; stroke: #ced4da; stroke-linecap: round"/>
    <path d="M 186.383191 110.662396 
L 183.728914 114.261675 
L 182.442057 109.978686 
z
" clip-path="url(#pff2b78addb)" style="fill: #ced4da; stroke: #ced4da; stroke-linecap: round"/>
   </g>
   <g id="patch_6">
    <path d="M 190.292562 117.79717 
Q 190.209391 118.021381 190.515061 117.197354 
" clip-path="url(#pff2b78addb)" style="fill: none; stroke: #ced4da; stroke-linecap: round"/>
    <path d="M 193.781361 114.142639 
L 190.515061 117.197354 
L 190.031068 112.751485 
z
" clip-path="url(#pff2b78addb)" style="fill: #ced4da; stroke: #ced4da; stroke-linecap: round"/>
   </g>
   <g id="patch_7">
    <path d="M 198.731516 120.063963 
Q 198.233779 120.910504 198.302714 120.79326 
" clip-path="url(#pff2b78addb)" style="fill: none; stroke: #ced4da; stroke-linecap: round"/>
    <path d="M 202.054175 118.358811 
L 198.302714 120.79326 
L 198.606032 116.331422 
z
" clip-path="url(#pff2b78addb)" style="fill: #ced4da; stroke: #ced4da; stroke-linecap: round"/>
   </g>
   <g id="patch_8">
    <path d="M 205.12069 129.73133 
Q 204.996493 129.935929 205.452451 129.184798 
" clip-path="url(#pff2b78addb)" style="fill: none; stroke: #ced4da; stroke-linecap: round"/>
    <path d="M 209.237738 126.803285 
L 205.452451 129.184798 
L 205.818413 124.727661 
z
" clip-path="url(#pff2b78addb)" style="fill: #ced4da; stroke: #ced4da; stroke-linecap: round"/>
   </g>
   <g id="patch_9">
    <path d="M 215.025047 135.007164 
Q 214.87738 135.195601 215.419331 134.504022 
" clip-path="url(#pff2b78addb)" style="fill: none; stroke: #ced4da; stroke-linecap: round"/>
    <path d="M 219.460802 132.589208 
L 215.419331 134.504022 
L 216.312363 130.121956 
z
" clip-path="url(#pff2b78addb)" style="fill: #ced4da; stroke: #ced4da; stroke-linecap: round"/>
   </g>
   <g id="patch_10">
    <path d="M 218.395853 139.66216 
Q 218.25002 139.852216 218.784797 139.155271 
" clip-path="url(#pff2b78addb)" style="fill: none; stroke: #ced4da; stroke-linecap: round"/>
    <path d="M 222.806535 137.199351 
L 218.784797 139.155271 
L 219.633104 134.764329 
z
" clip-path="url(#pff2b78addb)" style="fill: #ced4da; stroke: #ced4da; stroke-linecap: round"/>
   </g>
   <g id="patch_11">
    <path d="M 218.740495 148.308105 
Q 218.609283 148.508804 219.089868 147.773712 
" clip-path="url(#pff2b78addb)" style="fill: none; stroke: #ced4da; stroke-linecap: round"/>
    <path d="M 222.952694 145.520142 
L 219.089868 147.773712 
L 219.604708 143.331309 
z
" clip-path="url(#pff2b78addb)" style="fill: #ced4da; stroke: #ced4da; stroke-linecap: round"/>
   </g>
   <g id="patch_12">
    <path d="M 230.726936 149.460611 
Q 230.568656 149.640623 231.148636 148.981011 
" clip-path="url(#pff2b78addb)" style="fill: none; stroke: #ced4da; stroke-linecap: round"/>
    <path d="M 235.291888 147.297721 
L 231.148636 148.981011 
L 232.287954 144.656436 
z
" clip-path="url(#pff2b78addb)" style="fill: #ced4da; stroke: #ced4da; stroke-linecap: round"/>
   </g>
   <g id="patch_13">
    <path d="M 235.893221 158.005237 
Q 235.735932 158.186242 236.311988 157.523325 
" clip-path="url(#pff2b78addb)" style="fill: none; stroke: #ced4da; stroke-linecap: round"/>
    <path d="M 240.445336 155.815862 
L 236.311988 157.523325 
L 237.426026 153.192169 
z
" clip-path="url(#pff2b78addb)" style="fill: #ced4da; stroke: #ced4da; stroke-linecap: round"/>
   </g>
   <g id="patch_14">
    <path d="M 243.709286 162.413822 
Q 243.543273 162.586878 244.151242 161.953118 
" clip-path="url(#pff2b78addb)" style="fill: none; stroke: #ced4da; stroke-linecap: round"/>
    <path d="M 248.363602 160.451112 
L 244.151242 161.953118 
L 245.477053 157.682026 
z
" clip-path="url(#pff2b78addb)" style="fill: #ced4da; stroke: #ced4da; stroke-linecap: round"/>
   </g>
   <g id="patch_15">
    <path d="M 241.69729 159.455318 
Q 241.531611 159.628662 242.13843 158.993769 
" clip-path="url(#pff2b78addb)" style="fill: none; stroke: #ced4da; stroke-linecap: round"/>
    <path d="M 246.348021 157.484019 
L 242.13843 158.993769 
L 243.456384 154.720247 
z
" clip-path="url(#pff2b78addb)" style="fill: #ced4da; stroke: #ced4da; stroke-linecap: round"/>
   </g>
   <g id="patch_16">
    <path d="M 223.774006 95.1678 
Q 223.534132 95.16916 224.412274 95.164183 
" clip-path="url(#pff2b78addb)" style="fill: none; stroke: #ced4da; stroke-linecap: round"/>
    <path d="M 228.423546 97.141477 
L 224.412274 95.164183 
L 228.400873 93.141542 
z
" clip-path="url(#pff2b78addb)" style="fill: #ced4da; stroke: #ced4da; stroke-linecap: round"/>
   </g>
   <g id="patch_17">
    <path d="M 228.746179 90.587671 
Q 228.506489 90.597137 229.383961 90.562483 
" clip-path="url(#pff2b78addb)" style="fill: none; stroke: #ced4da; stroke-linecap: round"/>
    <path d="M 233.459771 92.403074 
L 229.383961 90.562483 
L 233.30192 88.40619 
z
" clip-path="url(#pff2b78addb)" style="fill: #ced4da; stroke: #ced4da; stroke-linecap: round"/>
   </g>
   <g id="patch_18">
    <path d="M 238.693444 85.680611 
Q 238.454387 85.700421 239.329545 85.627897 
" clip-path="url(#pff2b78addb)" style="fill: none; stroke: #ced4da; stroke-linecap: round"/>
    <path d="M 243.481055 87.290717 
L 239.329545 85.627897 
L 243.150707 83.304382 
z
" clip-path="url(#pff2b78addb)" style="fill: #ced4da; stroke: #ced4da; stroke-linecap: round"/>
   </g>
   <g id="patch_19">
    <path d="M 243.693 80.651388 
Q 243.455754 80.686807 244.324287 80.557141 
" clip-path="url(#pff2b78addb)" style="fill: none; stroke: #ced4da; stroke-linecap: round"/>
    <path d="M 248.575756 81.94459 
L 244.324287 80.557141 
L 247.985128 77.988436 
z
" clip-path="url(#pff2b78addb)" style="fill: #ced4da; stroke: #ced4da; stroke-linecap: round"/>
   </g>
   <g id="patch_20">
    <path d="M 230.155625 77.148495 
Q 229.931265 77.233369 230.752615 76.922657 
" clip-path="url(#pff2b78addb)" style="fill: none; stroke: #ced4da; stroke-linecap: round"/>
    <path d="M 235.201511 77.377985 
L 230.752615 76.922657 
L 233.786216 73.636737 
z
" clip-path="url(#pff2b78addb)" style="fill: #ced4da; stroke: #ced4da; stroke-linecap: round"/>
   </g>
   <g id="patch_21">
    <path d="M 244.515424 67.67701 
Q 244.304652 67.791509 245.07631 67.372315 
" clip-path="url(#pff2b78addb)" style="fill: none; stroke: #ced4da; stroke-linecap: round"/>
    <path d="M 249.545863 67.220337 
L 245.07631 67.372315 
L 247.63646 63.705486 
z
" clip-path="url(#pff2b78addb)" style="fill: #ced4da; stroke: #ced4da; stroke-linecap: round"/>
   </g>
   <g id="patch_22">
    <path d="M 246.103677 59.308133 
Q 245.937461 59.480725 246.5468 58.848013 
" clip-path="url(#pff2b78addb)" style="fill: none; stroke: #ced4da; stroke-linecap: round"/>
    <path d="M 250.762083 57.354229 
L 246.5468 58.848013 
L 247.880942 54.579516 
z
" clip-path="url(#pff2b78addb)" style="fill: #ced4da; stroke: #ced4da; stroke-linecap: round"/>
   </g>
   <g id="patch_23">
    <path d="M 246.333069 28.884127 
Q 246.832145 29.628448 246.708578 29.44416 
" clip-path="url(#pff2b78addb)" style="fill: none; stroke: #ced4da; stroke-linecap: round"/>
    <path d="M 246.142086 25.008048 
L 246.708578 29.44416 
L 242.819793 27.235686 
z
" clip-path="url(#pff2b78addb)" style="fill: #ced4da; stroke: #ced4da; stroke-linecap: round"/>
   </g>
   <g id="patch_24">
    <path d="M 240.88399 27.134008 
Q 240.985104 27.22344 240.248755 26.572159 
" clip-path="url(#pff2b78addb)" style="fill: none; stroke: #ced4da; stroke-linecap: round"/>
    <path d="M 238.577588 22.424003 
L 240.248755 26.572159 
L 235.92753 25.420199 
z
" clip-path="url(#pff2b78addb)" style="fill: #ced4da; stroke: #ced4da; stroke-linecap: round"/>
   </g>
   <g id="patch_25">
    <path d="M 244.56166 46.418997 
Q 244.422533 47.283193 244.46111 47.043567 
" clip-path="url(#pff2b78addb)" style="fill: none; stroke: #ced4da; stroke-linecap: round"/>
    <path d="M 247.071461 43.412305 
L 244.46111 47.043567 
L 243.122311 42.776529 
z
" clip-path="url(#pff2b78addb)" style="fill: #ced4da; stroke: #ced4da; stroke-linecap: round"/>
   </g>
   <g id="patch_26">
    <path d="M 168.684094 80.380019 
Q 168.725072 80.143811 168.574947 81.009184 
" clip-path="url(#pff2b78addb)" style="fill: none; stroke: #ced4da; stroke-linecap: round"/>
    <path d="M 165.920669 84.608464 
L 168.574947 81.009184 
L 169.861804 85.292174 
z
" clip-path="url(#pff2b78addb)" style="fill: #ced4da; stroke: #ced4da; stroke-linecap: round"/>
   </g>
   <g id="patch_27">
    <path d="M 162.011299 77.47369 
Q 162.094469 77.249478 161.7888 78.073505 
" clip-path="url(#pff2b78addb)" style="fill: none; stroke: #ced4da; stroke-linecap: round"/>
    <path d="M 158.5225 81.12822 
L 161.7888 78.073505 
L 162.272792 82.519374 
z
" clip-path="url(#pff2b78addb)" style="fill: #ced4da; stroke: #ced4da; stroke-linecap: round"/>
   </g>
   <g id="patch_28">
    <path d="M 153.572345 75.206896 
Q 154.070082 74.360355 154.001146 74.477599 
" clip-path="url(#pff2b78addb)" style="fill: none; stroke: #ced4da; stroke-linecap: round"/>
    <path d="M 150.249685 76.912048 
L 154.001146 74.477599 
L 153.697829 78.939437 
z
" clip-path="url(#pff2b78addb)" style="fill: #ced4da; stroke: #ced4da; stroke-linecap: round"/>
   </g>
   <g id="patch_29">
    <path d="M 147.18317 65.539529 
Q 147.307367 65.33493 146.85141 66.086062 
" clip-path="url(#pff2b78addb)" style="fill: none; stroke: #ced4da; stroke-linecap: round"/>
    <path d="M 143.066123 68.467574 
L 146.85141 66.086062 
L 146.485448 70.543199 
z
" clip-path="url(#pff2b78addb)" style="fill: #ced4da; stroke: #ced4da; stroke-linecap: round"/>
   </g>
   <g id="patch_30">
    <path d="M 137.278814 60.263695 
Q 137.426481 60.075259 136.88453 60.766838 
" clip-path="url(#pff2b78addb)" style="fill: none; stroke: #ced4da; stroke-linecap: round"/>
    <path d="M 132.843059 62.681651 
L 136.88453 60.766838 
L 135.991498 65.148903 
z
" clip-path="url(#pff2b78addb)" style="fill: #ced4da; stroke: #ced4da; stroke-linecap: round"/>
   </g>
   <g id="patch_31">
    <path d="M 133.908008 55.608699 
Q 134.053841 55.418643 133.519064 56.115588 
" clip-path="url(#pff2b78addb)" style="fill: none; stroke: #ced4da; stroke-linecap: round"/>
    <path d="M 129.497326 58.071508 
L 133.519064 56.115588 
L 132.670757 60.506531 
z
" clip-path="url(#pff2b78addb)" style="fill: #ced4da; stroke: #ced4da; stroke-linecap: round"/>
   </g>
   <g id="patch_32">
    <path d="M 133.563366 46.962754 
Q 133.694578 46.762056 133.213992 47.497147 
" clip-path="url(#pff2b78addb)" style="fill: none; stroke: #ced4da; stroke-linecap: round"/>
    <path d="M 129.351167 49.750717 
L 133.213992 47.497147 
L 132.699153 51.93955 
z
" clip-path="url(#pff2b78addb)" style="fill: #ced4da; stroke: #ced4da; stroke-linecap: round"/>
   </g>
   <g id="patch_33">
    <path d="M 121.576924 45.810249 
Q 121.735205 45.630236 121.155224 46.289848 
" clip-path="url(#pff2b78addb)" style="fill: none; stroke: #ced4da; stroke-linecap: round"/>
    <path d="M 117.011973 47.973139 
L 121.155224 46.289848 
L 120.015906 50.614424 
z
" clip-path="url(#pff2b78addb)" style="fill: #ced4da; stroke: #ced4da; stroke-linecap: round"/>
   </g>
   <g id="patch_34">
    <path d="M 116.41064 37.265623 
Q 116.567928 37.084617 115.991873 37.747534 
" clip-path="url(#pff2b78addb)" style="fill: none; stroke: #ced4da; stroke-linecap: round"/>
    <path d="M 111.858524 39.454997 
L 115.991873 37.747534 
L 114.877834 42.078691 
z
" clip-path="url(#pff2b78addb)" style="fill: #ced4da; stroke: #ced4da; stroke-linecap: round"/>
   </g>
   <g id="patch_35">
    <path d="M 108.594575 32.857037 
Q 108.760588 32.683982 108.152618 33.317741 
" clip-path="url(#pff2b78addb)" style="fill: none; stroke: #ced4da; stroke-linecap: round"/>
    <path d="M 103.940258 34.819748 
L 108.152618 33.317741 
L 106.826807 37.588833 
z
" clip-path="url(#pff2b78addb)" style="fill: #ced4da; stroke: #ced4da; stroke-linecap: round"/>
   </g>
   <g id="patch_36">
    <path d="M 110.60657 35.815542 
Q 110.772249 35.642197 110.165431 36.27709 
" clip-path="url(#pff2b78addb)" style="fill: none; stroke: #ced4da; stroke-linecap: round"/>
    <path d="M 105.95584 37.78684 
L 110.165431 36.27709 
L 108.847476 40.550613 
z
" clip-path="url(#pff2b78addb)" style="fill: #ced4da; stroke: #ced4da; stroke-linecap: round"/>
   </g>
   <g id="patch_37">
    <path d="M 128.529854 100.103059 
Q 128.769729 100.101699 127.891587 100.106677 
" clip-path="url(#pff2b78addb)" style="fill: none; stroke: #ced4da; stroke-linecap: round"/>
    <path d="M 123.880315 98.129382 
L 127.891587 100.106677 
L 123.902988 102.129318 
z
" clip-path="url(#pff2b78addb)" style="fill: #ced4da; stroke: #ced4da; stroke-linecap: round"/>
   </g>
   <g id="patch_38">
    <path d="M 123.557682 104.683188 
Q 123.797372 104.673722 122.919899 104.708377 
" clip-path="url(#pff2b78addb)" style="fill: none; stroke: #ced4da; stroke-linecap: round"/>
    <path d="M 118.84409 102.867785 
L 122.919899 104.708377 
L 119.00194 106.864669 
z
" clip-path="url(#pff2b78addb)" style="fill: #ced4da; stroke: #ced4da; stroke-linecap: round"/>
   </g>
   <g id="patch_39">
    <path d="M 113.610417 109.590249 
Q 113.849473 109.570438 112.974315 109.642962 
" clip-path="url(#pff2b78addb)" style="fill: none; stroke: #ced4da; stroke-linecap: round"/>
    <path d="M 108.822806 107.980142 
L 112.974315 109.642962 
L 109.153153 111.966478 
z
" clip-path="url(#pff2b78addb)" style="fill: #ced4da; stroke: #ced4da; stroke-linecap: round"/>
   </g>
   <g id="patch_40">
    <path d="M 113.292566 117.86725 
Q 113.524796 117.807172 112.674626 118.02711 
" clip-path="url(#pff2b78addb)" style="fill: none; stroke: #ced4da; stroke-linecap: round"/>
    <path d="M 108.301204 117.092667 
L 112.674626 118.02711 
L 109.303018 120.965182 
z
" clip-path="url(#pff2b78addb)" style="fill: #ced4da; stroke: #ced4da; stroke-linecap: round"/>
   </g>
   <g id="patch_41">
    <path d="M 124.931469 168.147035 
Q 124.717982 168.050663 125.523512 168.414294 
" clip-path="url(#pff2b78addb)" style="fill: none; stroke: #ced4da; stroke-linecap: round"/>
    <path d="M 128.346379 171.882928 
L 125.523512 168.414294 
L 129.992139 168.23718 
z
" clip-path="url(#pff2b78addb)" style="fill: #ced4da; stroke: #ced4da; stroke-linecap: round"/>
   </g>
   <g id="patch_42">
    <path d="M 139.953365 167.884483 
Q 139.812984 167.879464 140.789923 167.91439 
" clip-path="url(#pff2b78addb)" style="fill: none; stroke: #ced4da; stroke-linecap: round"/>
    <path d="M 144.715914 170.056023 
L 140.789923 167.91439 
L 144.858824 166.058577 
z
" clip-path="url(#pff2b78addb)" style="fill: #ced4da; stroke: #ced4da; stroke-linecap: round"/>
   </g>
   <g id="patch_43">
    <path d="M 227.372392 27.123825 
Q 227.585879 27.220197 226.780349 26.856565 
" clip-path="url(#pff2b78addb)" style="fill: none; stroke: #ced4da; stroke-linecap: round"/>
    <path d="M 223.957481 23.387932 
L 226.780349 26.856565 
L 222.311721 27.033679 
z
" clip-path="url(#pff2b78addb)" style="fill: #ced4da; stroke: #ced4da; stroke-linecap: round"/>
   </g>
   <g id="patch_44">
    <path d="M 212.350496 27.386376 
Q 212.490877 27.391395 211.513937 27.356469 
" clip-path="url(#pff2b78addb)" style="fill: none; stroke: #ced4da; stroke-linecap: round"/>
    <path d="M 207.587946 25.214836 
L 211.513937 27.356469 
L 207.445036 29.212282 
z
" clip-path="url(#pff2b78addb)" style="fill: #ced4da; stroke: #ced4da; stroke-linecap: round"/>
   </g>
   <g id="patch_45">
    <path d="M 108.676522 125.050233 
Q 108.895386 124.952056 108.094149 125.311472 
" clip-path="url(#pff2b78addb)" style="fill: none; stroke: #ced4da; stroke-linecap: round"/>
    <path d="M 103.625953 125.123795 
L 108.094149 125.311472 
L 105.263089 128.773422 
z
" clip-path="url(#pff2b78addb)" style="fill: #ced4da; stroke: #ced4da; stroke-linecap: round"/>
   </g>
   <g id="patch_46">
    <path d="M 114.528901 146.055576 
Q 114.614739 145.196296 114.589444 145.449513 
" clip-path="url(#pff2b78addb)" style="fill: none; stroke: #ced4da; stroke-linecap: round"/>
    <path d="M 112.201745 149.2309 
L 114.589444 145.449513 
L 116.181934 149.628505 
z
" clip-path="url(#pff2b78addb)" style="fill: #ced4da; stroke: #ced4da; stroke-linecap: round"/>
   </g>
   <g id="patch_47">
    <path d="M 159.356689 159.027188 
Q 159.26651 159.082319 160.130228 158.554285 
" clip-path="url(#pff2b78addb)" style="fill: none; stroke: #ced4da; stroke-linecap: round"/>
    <path d="M 164.586189 158.174274 
L 160.130228 158.554285 
L 162.499796 154.761509 
z
" clip-path="url(#pff2b78addb)" style="fill: #ced4da; stroke: #ced4da; stroke-linecap: round"/>
   </g>
   <g id="patch_48">
    <path d="M 242.959833 134.802247 
Q 242.745966 134.910322 243.52996 134.514143 
" clip-path="url(#pff2b78addb)" style="fill: none; stroke: #ced4da; stroke-linecap: round"/>
    <path d="M 248.002056 134.495101 
L 243.52996 134.514143 
L 246.197984 130.925042 
z
" clip-path="url(#pff2b78addb)" style="fill: #ced4da; stroke: #ced4da; stroke-linecap: round"/>
   </g>
   <g id="patch_49">
    <path d="M 240.319975 48.867716 
Q 240.175073 49.76278 240.208843 49.55418 
" clip-path="url(#pff2b78addb)" style="fill: none; stroke: #ced4da; stroke-linecap: round"/>
    <path d="M 242.822375 45.925206 
L 240.208843 49.55418 
L 238.873783 45.28597 
z
" clip-path="url(#pff2b78addb)" style="fill: #ced4da; stroke: #ced4da; stroke-linecap: round"/>
   </g>
   <g id="patch_50">
    <path d="M 232.828702 36.079363 
Q 233.395763 36.849024 233.299651 36.718573 
" clip-path="url(#pff2b78addb)" style="fill: none; stroke: #ced4da; stroke-linecap: round"/>
    <path d="M 232.53718 32.311915 
L 233.299651 36.718573 
L 229.316842 34.684554 
z
" clip-path="url(#pff2b78addb)" style="fill: #ced4da; stroke: #ced4da; stroke-linecap: round"/>
   </g>
   <g id="patch_51">
    <path d="M 200.995092 32.70721 
Q 201.092462 32.680701 200.111062 32.947882 
" clip-path="url(#pff2b78addb)" style="fill: none; stroke: #ced4da; stroke-linecap: round"/>
    <path d="M 195.726167 32.068853 
L 200.111062 32.947882 
L 196.776902 35.928381 
z
" clip-path="url(#pff2b78addb)" style="fill: #ced4da; stroke: #ced4da; stroke-linecap: round"/>
   </g>
   <g id="patch_52">
    <path d="M 109.344028 60.468612 
Q 109.557895 60.360538 108.7739 60.756717 
" clip-path="url(#pff2b78addb)" style="fill: none; stroke: #ced4da; stroke-linecap: round"/>
    <path d="M 104.301805 60.775758 
L 108.7739 60.756717 
L 106.105876 64.345818 
z
" clip-path="url(#pff2b78addb)" style="fill: #ced4da; stroke: #ced4da; stroke-linecap: round"/>
   </g>
   <g id="patch_53">
    <path d="M 122.929696 151.056052 
Q 122.602938 150.250149 122.696276 150.480354 
" clip-path="url(#pff2b78addb)" style="fill: none; stroke: #ced4da; stroke-linecap: round"/>
    <path d="M 122.345811 154.938736 
L 122.696276 150.480354 
L 126.052703 153.435755 
z
" clip-path="url(#pff2b78addb)" style="fill: #ced4da; stroke: #ced4da; stroke-linecap: round"/>
   </g>
   <g id="patch_54">
    <path d="M 156.118821 155.912271 
Q 155.197607 156.249255 155.326381 156.202149 
" clip-path="url(#pff2b78addb)" style="fill: none; stroke: #ced4da; stroke-linecap: round"/>
    <path d="M 159.770013 156.706262 
L 155.326381 156.202149 
L 158.395851 152.949711 
z
" clip-path="url(#pff2b78addb)" style="fill: #ced4da; stroke: #ced4da; stroke-linecap: round"/>
   </g>
   <g id="patch_55">
    <path d="M 204.51108 144.90731 
Q 204.413277 145.126331 204.771342 144.324477 
" clip-path="url(#pff2b78addb)" style="fill: none; stroke: #ced4da; stroke-linecap: round"/>
    <path d="M 208.228503 141.48757 
L 204.771342 144.324477 
L 204.576113 139.856605 
z
" clip-path="url(#pff2b78addb)" style="fill: #ced4da; stroke: #ced4da; stroke-linecap: round"/>
   </g>
   <g id="patch_56">
    <path d="M 233.85713 153.031151 
Q 233.697795 153.210282 234.281522 152.554033 
" clip-path="url(#pff2b78addb)" style="fill: none; stroke: #ced4da; stroke-linecap: round"/>
    <path d="M 238.434354 150.894519 
L 234.281522 152.554033 
L 235.44561 148.236059 
z
" clip-path="url(#pff2b78addb)" style="fill: #ced4da; stroke: #ced4da; stroke-linecap: round"/>
   </g>
   <g id="patch_57">
    <path d="M 147.79278 50.363549 
Q 147.890584 50.144529 147.532518 50.946382 
" clip-path="url(#pff2b78addb)" style="fill: none; stroke: #ced4da; stroke-linecap: round"/>
    <path d="M 144.075358 53.783289 
L 147.532518 50.946382 
L 147.727748 55.414255 
z
" clip-path="url(#pff2b78addb)" style="fill: #ced4da; stroke: #ced4da; stroke-linecap: round"/>
   </g>
   <g id="patch_58">
    <path d="M 118.44673 42.239708 
Q 118.606065 42.060577 118.022338 42.716826 
" clip-path="url(#pff2b78addb)" style="fill: none; stroke: #ced4da; stroke-linecap: round"/>
    <path d="M 113.869506 44.376341 
L 118.022338 42.716826 
L 116.858251 47.0348 
z
" clip-path="url(#pff2b78addb)" style="fill: #ced4da; stroke: #ced4da; stroke-linecap: round"/>
   </g>
   <g id="patch_59">
    <path d="M 127.019325 139.51757 
Q 127.047251 138.672317 127.038259 138.944488 
" clip-path="url(#pff2b78addb)" style="fill: none; stroke: #ced4da; stroke-linecap: round"/>
    <path d="M 124.907269 142.876266 
L 127.038259 138.944488 
L 128.905087 143.008347 
z
" clip-path="url(#pff2b78addb)" style="fill: #ced4da; stroke: #ced4da; stroke-linecap: round"/>
   </g>
   <g id="patch_60">
    <path d="M 138.6613 147.915992 
Q 138.088542 147.340139 138.30422 147.556983 
" clip-path="url(#pff2b78addb)" style="fill: none; stroke: #ced4da; stroke-linecap: round"/>
    <path d="M 139.706999 151.803418 
L 138.30422 147.556983 
L 142.543035 148.982621 
z
" clip-path="url(#pff2b78addb)" style="fill: #ced4da; stroke: #ced4da; stroke-linecap: round"/>
   </g>
   <g id="patch_61">
    <path d="M 233.201724 57.346247 
Q 233.149205 57.509377 233.439312 56.608267 
" clip-path="url(#pff2b78addb)" style="fill: none; stroke: #ced4da; stroke-linecap: round"/>
    <path d="M 236.5689 53.413634 
L 233.439312 56.608267 
L 232.761359 52.187817 
z
" clip-path="url(#pff2b78addb)" style="fill: #ced4da; stroke: #ced4da; stroke-linecap: round"/>
   </g>
   <g id="patch_62">
    <path d="M 228.137828 40.78259 
Q 228.616643 41.52051 228.486887 41.320539 
" clip-path="url(#pff2b78addb)" style="fill: none; stroke: #ced4da; stroke-linecap: round"/>
    <path d="M 227.987352 36.876389 
L 228.486887 41.320539 
L 224.631846 39.053678 
z
" clip-path="url(#pff2b78addb)" style="fill: #ced4da; stroke: #ced4da; stroke-linecap: round"/>
   </g>
   <g id="patch_63">
    <path d="M 217.428343 49.619987 
Q 217.839283 50.325095 217.687259 50.064246 
" clip-path="url(#pff2b78addb)" style="fill: none; stroke: #ced4da; stroke-linecap: round"/>
    <path d="M 217.401094 45.601275 
L 217.687259 50.064246 
L 213.945183 47.615396 
z
" clip-path="url(#pff2b78addb)" style="fill: #ced4da; stroke: #ced4da; stroke-linecap: round"/>
   </g>
   <g id="patch_64">
    <path d="M 162.749243 143.440299 
Q 162.095779 143.970537 162.310493 143.796312 
" clip-path="url(#pff2b78addb)" style="fill: none; stroke: #ced4da; stroke-linecap: round"/>
    <path d="M 166.676761 142.828994 
L 162.310493 143.796312 
L 164.156399 139.722907 
z
" clip-path="url(#pff2b78addb)" style="fill: #ced4da; stroke: #ced4da; stroke-linecap: round"/>
   </g>
   <g id="patch_65">
    <path d="M 200.921459 46.640025 
Q 201.671531 46.675681 201.30483 46.658249 
" clip-path="url(#pff2b78addb)" style="fill: none; stroke: #ced4da; stroke-linecap: round"/>
    <path d="M 197.40431 44.47057 
L 201.30483 46.658249 
L 197.214374 48.466058 
z
" clip-path="url(#pff2b78addb)" style="fill: #ced4da; stroke: #ced4da; stroke-linecap: round"/>
   </g>
   <g id="patch_66">
    <path d="M 141.679067 131.840112 
Q 141.597909 131.045954 141.630415 131.364036 
" clip-path="url(#pff2b78addb)" style="fill: none; stroke: #ced4da; stroke-linecap: round"/>
    <path d="M 140.047431 135.546638 
L 141.630415 131.364036 
L 144.026706 135.139985 
z
" clip-path="url(#pff2b78addb)" style="fill: #ced4da; stroke: #ced4da; stroke-linecap: round"/>
   </g>
   <g id="patch_67">
    <path d="M 209.757013 60.492752 
Q 209.973959 61.22725 209.874202 60.889509 
" clip-path="url(#pff2b78addb)" style="fill: none; stroke: #ced4da; stroke-linecap: round"/>
    <path d="M 210.659216 56.486811 
L 209.874202 60.889509 
L 206.823052 57.619878 
z
" clip-path="url(#pff2b78addb)" style="fill: #ced4da; stroke: #ced4da; stroke-linecap: round"/>
   </g>
   <g id="patch_68">
    <path d="M 150.937727 134.713384 
Q 150.538261 134.258113 150.876179 134.643238 
" clip-path="url(#pff2b78addb)" style="fill: none; stroke: #ced4da; stroke-linecap: round"/>
    <path d="M 152.010977 138.969002 
L 150.876179 134.643238 
L 155.017669 136.330859 
z
" clip-path="url(#pff2b78addb)" style="fill: #ced4da; stroke: #ced4da; stroke-linecap: round"/>
   </g>
   <g id="patch_69">
    <path d="M 201.366134 60.557475 
Q 201.765599 61.012746 201.427681 60.627621 
" clip-path="url(#pff2b78addb)" style="fill: none; stroke: #ced4da; stroke-linecap: round"/>
    <path d="M 200.292884 56.301857 
L 201.427681 60.627621 
L 197.286191 58.940001 
z
" clip-path="url(#pff2b78addb)" style="fill: #ced4da; stroke: #ced4da; stroke-linecap: round"/>
   </g>
   <g id="patch_70">
    <path d="M 153.456849 126.99981 
Q 153.217974 126.41746 153.403398 126.869504 
" clip-path="url(#pff2b78addb)" style="fill: none; stroke: #ced4da; stroke-linecap: round"/>
    <path d="M 153.071037 131.329272 
L 153.403398 126.869504 
L 156.771796 129.811253 
z
" clip-path="url(#pff2b78addb)" style="fill: #ced4da; stroke: #ced4da; stroke-linecap: round"/>
   </g>
   <g id="patch_71">
    <path d="M 198.847012 68.271049 
Q 199.085887 68.853399 198.900463 68.401356 
" clip-path="url(#pff2b78addb)" style="fill: none; stroke: #ced4da; stroke-linecap: round"/>
    <path d="M 199.232823 63.941587 
L 198.900463 68.401356 
L 195.532064 65.459606 
z
" clip-path="url(#pff2b78addb)" style="fill: #ced4da; stroke: #ced4da; stroke-linecap: round"/>
   </g>
   <g id="patch_72">
    <path d="M 164.413774 126.065725 
Q 164.057051 126.263171 164.678518 125.91919 
" clip-path="url(#pff2b78addb)" style="fill: none; stroke: #ced4da; stroke-linecap: round"/>
    <path d="M 169.146733 125.731961 
L 164.678518 125.91919 
L 167.209663 122.232281 
z
" clip-path="url(#pff2b78addb)" style="fill: #ced4da; stroke: #ced4da; stroke-linecap: round"/>
   </g>
   <g id="patch_73">
    <path d="M 179.519143 117.988186 
Q 179.498853 118.227196 179.573133 117.352179 
" clip-path="url(#pff2b78addb)" style="fill: none; stroke: #ced4da; stroke-linecap: round"/>
    <path d="M 181.904308 113.535685 
L 179.573133 117.352179 
L 177.918644 113.197342 
z
" clip-path="url(#pff2b78addb)" style="fill: #ced4da; stroke: #ced4da; stroke-linecap: round"/>
   </g>
   <g id="patch_74">
    <path d="M 187.890086 69.205134 
Q 188.24681 69.007688 187.625343 69.351669 
" clip-path="url(#pff2b78addb)" style="fill: none; stroke: #ced4da; stroke-linecap: round"/>
    <path d="M 183.157128 69.538898 
L 187.625343 69.351669 
L 185.094197 73.038579 
z
" clip-path="url(#pff2b78addb)" style="fill: #ced4da; stroke: #ced4da; stroke-linecap: round"/>
   </g>
   <g id="patch_75">
    <path d="M 160.043318 114.075726 
Q 160.078002 113.38802 160.05637 113.816929 
" clip-path="url(#pff2b78addb)" style="fill: none; stroke: #ced4da; stroke-linecap: round"/>
    <path d="M 157.857425 117.711109 
L 160.05637 113.816929 
L 161.852347 117.912593 
z
" clip-path="url(#pff2b78addb)" style="fill: #ced4da; stroke: #ced4da; stroke-linecap: round"/>
   </g>
   <g id="patch_76">
    <path d="M 192.260543 81.195133 
Q 192.225858 81.882839 192.24749 81.453931 
" clip-path="url(#pff2b78addb)" style="fill: none; stroke: #ced4da; stroke-linecap: round"/>
    <path d="M 194.446436 77.559751 
L 192.24749 81.453931 
L 190.451514 77.358266 
z
" clip-path="url(#pff2b78addb)" style="fill: #ced4da; stroke: #ced4da; stroke-linecap: round"/>
   </g>
   <g id="patch_77">
    <path d="M 182.302101 84.459117 
Q 182.491805 84.42338 181.582801 84.594622 
" clip-path="url(#pff2b78addb)" style="fill: none; stroke: #ced4da; stroke-linecap: round"/>
    <path d="M 177.281688 83.369703 
L 181.582801 84.594622 
L 178.022199 87.300561 
z
" clip-path="url(#pff2b78addb)" style="fill: #ced4da; stroke: #ced4da; stroke-linecap: round"/>
   </g>
   <g id="line2d_1">
    <defs>
     <path id="mba696f96a9" d="M 0 2.5 
C 0.663008 2.5 1.29895 2.236584 1.767767 1.767767 
C 2.236584 1.29895 2.5 0.663008 2.5 0 
C 2.5 -0.663008 2.236584 -1.29895 1.767767 -1.767767 
C 1.29895 -2.236584 0.663008 -2.5 0 -2.5 
C -0.663008 -2.5 -1.29895 -2.236584 -1.767767 -1.767767 
C -2.236584 -1.29895 -2.5 -0.663008 -2.5 0 
C -2.5 0.663008 -2.236584 1.29895 -1.767767 1.767767 
C -1.29895 2.236584 -0.663008 2.5 0 2.5 
z
" style="stroke: #000000"/>
    </defs>
    <g clip-path="url(#pff2b78addb)">
     <use xlink:href="#mba696f96a9" x="176.15193" y="97.63543" style="stroke: #000000"/>
    </g>
   </g>
   <g id="line2d_2">
    <path d="M 176.15193 97.63543 
L 176.15193 97.635438 
L 176.26195 85.087774 
L 176.480531 79.470067 
L 176.903124 74.443389 
L 177.592277 69.029661 
L 178.267185 65.319759 
L 179.093042 62.010074 
L 180.091721 58.944429 
L 181.219915 56.183293 
L 182.566847 53.491622 
L 183.966751 51.163067 
L 185.539392 48.953955 
L 187.2746 46.892548 
L 189.157048 45.006037 
L 191.166259 43.320552 
L 193.276597 41.861156 
L 195.212576 40.77314 
L 197.429006 39.792182 
L 199.665287 39.047483 
L 201.900905 38.534998 
L 204.11629 38.250147 
L 206.292954 38.186783 
L 208.413492 38.337188 
L 210.461584 38.692073 
L 212.421992 39.240581 
L 214.280564 39.970284 
L 216.210346 40.9765 
L 217.981932 42.167621 
L 219.580617 43.519779 
L 220.993341 45.006717 
L 222.208699 46.599781 
L 223.218079 48.272085 
L 224.02509 50.028001 
L 224.632161 51.852787 
L 225.07178 53.915643 
L 225.27735 56.012692 
L 225.256084 58.121092 
L 225.01733 60.220006 
L 224.572569 62.290597 
L 223.868483 64.497395 
L 222.95605 66.631356 
L 221.759907 68.842116 
L 220.380992 70.931345 
L 218.737594 73.032644 
L 216.723396 75.249958 
L 214.476377 77.397564 
L 211.897855 79.555662 
L 208.910346 81.75876 
L 205.374081 84.081319 
L 201.473949 86.376701 
L 197.208785 88.624562 
L 191.734282 91.24376 
L 185.808187 93.813266 
L 178.804803 96.61543 
L 176.15187 97.635424 
L 176.151963 97.635423 
" clip-path="url(#pff2b78addb)" style="fill: none; stroke: #1f77b4; stroke-linecap: square"/>
   </g>
  </g>
 </g>
 <defs>
  <clipPath id="pff2b78addb">
   <rect x="101.716999" y="23.200498" width="148.869863" height="148.869863"/>
  </clipPath>
 </defs>
</svg>
