<?xml version="1.0" encoding="utf-8" standalone="no"?>
<!DOCTYPE svg PUBLIC "-//W3C//DTD SVG 1.1//EN"
  "http://www.w3.org/Graphics/SVG/1.1/DTD/svg11.dtd">
<svg xmlns:xlink="http://www.w3.org/1999/xlink" width="343.711083pt" height="193.337484pt" viewBox="0 0 343.711083 193.337484" xmlns="http://www.w3.org/2000/svg" version="1.1">
 <metadata>
  <rdf:RDF xmlns:dc="http://purl.org/dc/elements/1.1/" xmlns:cc="http://creativecommons.org/ns#" xmlns:rdf="http://www.w3.org/1999/02/22-rdf-syntax-ns#">
   <cc:Work>
    <dc:type rdf:resource="http://purl.org/dc/dcmitype/StillImage"/>
    <dc:date>2026-02-12T22:46:44.249379</dc:date>
    <dc:format>image/svg+xml</dc:format>
    <dc:creator>
     <cc:Agent>
      <dc:title>Matplotlib v3.10.0, https://matplotlib.org/</dc:title>
     </cc:Agent>
    </dc:creator>
   </cc:Work>
  </rdf:RDF>
 </metadata>
 <defs>
  <style type="text/css">*{stroke-linejoin: round; stroke-linecap: butt}</style>
 </defs>
 <g id="figure_1">
  <g id="patch_1">
   <path d="M 0 193.337484 
L 343.711083 193.337484 
L 343.711083 0 
L 0 0 
z
" style="fill: #ffffff"/>
  </g>
  <g id="axes_1">
   <g id="LineCollection_1">
    <path d="M 97.830764 182.537484 
L 97.830764 182.537484 
L 93.344751 179.014356 
L 90.026343 175.272069 
L 87.691484 171.361663 
L 85.9868 167.773947 
" clip-path="url(#p07391ad723)" style="fill: none; stroke: #000000"/>
    <path d="M 103.752746 182.537484 
L 103.752746 182.537484 
L 98.904935 179.525318 
L 94.988706 176.061513 
L 92.039856 172.304428 
L 90.023871 168.395085 
L 88.85856 164.428101 
L 88.453992 160.447406 
L 88.741455 156.460117 
L 89.684 152.455308 
L 91.274247 148.417613 
L 93.527736 144.334099 
L 96.476513 140.196208 
L 100.16377 136.000185 
L 104.29436 132.045247 
L 108.694493 128.389528 
L 113.299436 124.993373 
L 118.062812 121.821835 
L 122.950732 118.844829 
L 127.937934 116.036634 
L 133.005261 113.375167 
L 138.137807 110.841458 
L 143.323889 108.418914 
L 148.55411 106.092918 
L 153.820688 103.850505 
L 159.117142 101.68034 
L 164.439661 99.575296 
L 169.809687 97.617624 
L 169.809687 97.617624 
L 171.185271 97.137761 
L 171.552431 95.639015 
L 171.618991 94.023556 
L 171.651374 89.867408 
L 171.731186 84.143523 
L 171.92042 78.422487 
L 172.279516 72.710038 
L 172.8737 67.017921 
L 173.776263 61.367523 
L 175.069525 55.795091 
L 176.843348 50.358762 
L 179.188723 45.146641 
L 182.183828 40.282971 
L 185.828817 35.970606 
L 189.842678 32.541549 
L 194.149317 29.948415 
L 198.68593 28.157689 
L 203.3696 27.165194 
L 208.084106 26.979846 
L 212.67816 27.601426 
L 216.978633 28.999057 
L 220.817775 31.099278 
L 224.062686 33.791257 
L 226.631366 36.946381 
L 228.488733 40.439377 
L 229.630908 44.159886 
L 230.070637 48.014935 
L 229.828493 51.928544 
L 228.927274 55.843092 
L 227.386085 59.72048 
L 225.214167 63.540949 
L 222.406343 67.299256 
L 218.941925 70.998924 
L 214.785884 74.648254 
L 210.194891 78.057058 
L 205.387617 81.157212 
L 200.421888 83.999225 
L 195.338314 86.626419 
L 190.165922 89.075307 
L 184.926011 91.375833 
L 179.631969 93.547579 
L 174.262609 95.482687 
L 174.262609 95.482687 
L 172.879643 96.043859 
L 172.393515 97.43704 
L 172.165189 98.762794 
" clip-path="url(#p07391ad723)" style="fill: none; stroke: #000000"/>
    <path d="M 115.596711 182.537484 
L 115.596711 182.537484 
L 110.193547 180.684738 
L 105.171418 178.086461 
L 100.948228 174.930926 
L 97.632115 171.38137 
L 95.235027 167.592126 
L 93.705063 163.683155 
L 92.963375 159.726591 
" clip-path="url(#p07391ad723)" style="fill: none; stroke: #000000"/>
    <path d="M 257.724284 101.188826 
L 255.134019 101.203794 
L 249.409549 101.239649 
L 243.685124 101.281858 
L 237.960765 101.332277 
L 232.236514 101.393543 
L 226.512443 101.469593 
L 220.788695 101.566499 
L 215.06557 101.694216 
L 209.343778 101.870184 
L 203.625273 102.127972 
L 197.916751 102.541203 
L 193.209606 103.126182 
L 189.849931 103.838441 
L 187.304754 104.734993 
L 185.131294 106.028206 
L 183.388041 107.84525 
L 183.388041 107.84525 
L 182.033414 110.363828 
L 182.033414 110.363828 
L 180.864908 114.301211 
L 180.864908 114.301211 
L 179.887 119.938202 
L 179.132337 125.612759 
L 178.346084 131.282818 
L 177.391734 136.926183 
L 176.1698 142.516537 
L 174.594892 148.016342 
L 172.5907 153.3727 
L 170.093369 158.515393 
L 167.059705 163.358726 
L 163.476477 167.808812 
L 159.368159 171.77354 
L 154.785058 175.183393 
L 149.806602 177.985594 
L 144.519769 180.15234 
L 139.011189 181.67153 
L 133.362657 182.537484 
L 133.362657 182.537484 
" clip-path="url(#p07391ad723)" style="fill: none; stroke: #000000"/>
    <path d="M 257.724284 104.572633 
L 253.9557 104.640553 
L 248.232232 104.753071 
L 242.509238 104.887352 
L 236.787002 105.050361 
L 231.066033 105.252384 
L 225.347314 105.509236 
L 219.6329 105.846525 
L 213.927559 106.308373 
L 208.243914 106.976884 
L 203.20225 107.88214 
L 199.315138 108.952345 
L 196.175919 110.2598 
L 193.430599 112.00851 
L 190.829631 114.673816 
L 188.968807 117.769442 
L 188.968807 117.769442 
L 186.983988 123.120145 
L 185.605954 128.673751 
L 184.428216 134.275778 
L 183.230343 139.873403 
L 181.872814 145.433602 
L 180.252301 150.921691 
L 178.285475 156.293891 
L 175.905535 161.494565 
L 173.065053 166.456961 
L 169.741159 171.107911 
L 165.939113 175.375893 
L 161.691257 179.200186 
L 157.050586 182.537484 
L 157.050586 182.537484 
" clip-path="url(#p07391ad723)" style="fill: none; stroke: #000000"/>
    <path d="M 257.724284 108.592252 
L 256.597638 108.634397 
L 250.87787 108.868222 
L 245.160217 109.148482 
L 239.44597 109.490383 
L 233.737495 109.916477 
L 228.039391 110.461479 
L 222.361343 111.181299 
L 216.725661 112.17018 
L 211.705256 113.430943 
L 207.613632 114.907217 
L 204.133248 116.703664 
L 200.963104 119.079197 
L 197.903535 122.542481 
L 195.606762 126.448788 
L 195.606762 126.448788 
L 193.425302 131.731729 
L 191.684212 137.183339 
L 190.102307 142.68495 
L 188.493945 148.178711 
L 186.728853 153.623274 
L 184.708899 158.977315 
L 182.358475 164.193347 
L 179.622569 169.216489 
L 176.468413 173.986832 
L 172.887394 178.444737 
L 168.894551 182.537484 
L 168.894551 182.537484 
" clip-path="url(#p07391ad723)" style="fill: none; stroke: #000000"/>
    <path d="M 257.724284 114.227708 
L 254.636662 114.488424 
L 248.937011 115.019537 
L 243.249802 115.668772 
L 237.583648 116.478642 
L 231.955003 117.51277 
L 226.396956 118.867734 
L 221.312347 120.555146 
L 216.975091 122.527076 
L 213.117421 124.933313 
L 209.504032 128.068723 
L 206.469543 131.725559 
L 206.469543 131.725559 
L 203.505635 136.608217 
L 201.081906 141.789658 
L 198.955935 147.103921 
L 196.930364 152.458155 
L 194.85693 157.793728 
L 192.623907 163.063654 
L 190.146617 168.222161 
L 187.363113 173.220911 
L 184.233215 178.009304 
L 180.738515 182.537484 
L 180.738515 182.537484 
" clip-path="url(#p07391ad723)" style="fill: none; stroke: #000000"/>
    <path d="M 257.724284 121.373342 
L 253.087 122.176941 
L 247.467485 123.262313 
L 241.905352 124.606933 
L 236.440828 126.298662 
L 231.18074 128.433498 
L 226.530279 130.93509 
L 222.23461 134.009932 
L 218.121185 137.967369 
L 214.597186 142.464316 
L 211.577592 147.321306 
L 208.903899 152.381097 
L 206.410352 157.533758 
L 203.954304 162.704684 
L 201.421304 167.837902 
L 198.722409 172.88506 
L 195.791258 177.800023 
L 192.582479 182.537484 
L 192.582479 182.537484 
" clip-path="url(#p07391ad723)" style="fill: none; stroke: #000000"/>
    <path d="M 257.724284 125.586871 
L 256.91583 125.751245 
L 251.33324 127.011522 
L 245.823511 128.555369 
L 240.432563 130.467285 
L 235.234393 132.846582 
L 230.46566 135.697882 
L 225.975966 139.227535 
L 221.992123 143.321822 
L 218.511889 147.857419 
L 215.441905 152.685003 
L 212.64349 157.677717 
L 209.97603 162.742714 
L 207.317103 167.812259 
L 204.567091 172.832476 
L 201.648485 177.755811 
L 198.504462 182.537484 
L 198.504462 182.537484 
" clip-path="url(#p07391ad723)" style="fill: none; stroke: #000000"/>
    <path d="M 249.063636 132.768719 
L 243.768951 134.931625 
L 238.69588 137.567039 
L 233.941489 140.737163 
L 229.598242 144.449931 
L 225.711045 148.640766 
L 222.248978 153.193417 
L 219.117665 157.982998 
L 216.195016 162.904582 
L 213.360347 167.878028 
L 210.50821 172.841375 
L 207.55244 177.743178 
L 204.426444 182.537484 
L 204.426444 182.537484 
" clip-path="url(#p07391ad723)" style="fill: none; stroke: #000000"/>
    <path d="M 257.724284 140.146532 
L 254.839658 141.497198 
L 249.765474 144.135435 
L 244.952484 147.222075 
L 240.464434 150.764042 
L 236.337174 154.722059 
L 232.559874 159.017982 
L 229.075215 163.557033 
L 225.79648 168.248691 
L 222.62785 173.01621 
L 219.478614 177.796689 
L 216.270408 182.537484 
L 216.270408 182.537484 
" clip-path="url(#p07391ad723)" style="fill: none; stroke: #000000"/>
    <path d="M 257.724284 151.561156 
L 255.179243 153.295482 
L 250.589767 156.708517 
L 246.293755 160.485184 
L 242.287493 164.569653 
L 238.533869 168.889271 
L 234.970454 173.368489 
L 231.522471 177.937951 
L 228.114373 182.537484 
L 228.114373 182.537484 
" clip-path="url(#p07391ad723)" style="fill: none; stroke: #000000"/>
    <path d="M 257.724284 163.926337 
L 255.56774 165.824016 
L 251.388144 169.731953 
L 247.426312 173.861845 
L 243.635942 178.150767 
L 239.958337 182.537484 
L 239.958337 182.537484 
" clip-path="url(#p07391ad723)" style="fill: none; stroke: #000000"/>
    <path d="M 257.724284 158.849556 
L 257.724284 158.849556 
L 253.261678 162.428769 
L 249.063874 166.31622 
L 245.110015 170.453001 
L 241.354364 174.771902 
L 237.735216 179.206767 
L 235.080344 182.537484 
" clip-path="url(#p07391ad723)" style="fill: none; stroke: #000000"/>
    <path d="M 257.724284 93.707751 
L 257.724284 93.707751 
L 251.99972 93.722579 
L 246.275163 93.739533 
L 240.550614 93.759107 
L 234.826077 93.781957 
L 229.101559 93.808978 
L 223.377069 93.841426 
L 217.652626 93.881147 
L 211.928263 93.930906 
L 206.204047 93.995031 
L 200.480126 94.080866 
L 194.756867 94.201783 
" clip-path="url(#p07391ad723)" style="fill: none; stroke: #000000"/>
    <path d="M 257.724284 87.785769 
L 257.724284 87.785769 
L 252.001352 87.923009 
L 246.278843 88.076765 
L 240.556899 88.250187 
L 234.835727 88.447278 
L 229.115628 88.673184 
L 223.397058 88.934659 
L 217.680723 89.2407 
L 211.967753 89.603533 
L 206.260032 90.040174 
L 200.560811 90.574838 
" clip-path="url(#p07391ad723)" style="fill: none; stroke: #000000"/>
    <path d="M 257.724284 81.863787 
L 257.724284 81.863787 
L 252.013233 82.256719 
L 246.304873 82.686888 
L 240.599897 83.159659 
L 234.899209 83.681413 
L 229.20401 84.259777 
" clip-path="url(#p07391ad723)" style="fill: none; stroke: #000000"/>
    <path d="M 257.724284 75.941804 
L 257.724284 75.941804 
L 252.05497 76.734902 
L 246.393214 77.580165 
L 240.74025 78.482253 
" clip-path="url(#p07391ad723)" style="fill: none; stroke: #000000"/>
    <path d="M 257.724284 64.09784 
L 257.724284 64.09784 
L 252.373221 66.131781 
L 247.021018 68.1627 
L 241.667911 70.191215 
L 236.314124 72.217927 
L 230.959866 74.243416 
L 225.605354 76.268233 
L 220.250804 78.292907 
L 214.896412 80.317955 
L 209.542352 82.343876 
" clip-path="url(#p07391ad723)" style="fill: none; stroke: #000000"/>
    <path d="M 257.724284 58.175858 
L 257.724284 58.175858 
L 252.74892 61.006399 
L 247.718933 63.738883 
L 242.642044 66.383321 
" clip-path="url(#p07391ad723)" style="fill: none; stroke: #000000"/>
    <path d="M 257.724284 46.331893 
L 257.724284 46.331893 
L 254.152286 50.792856 
L 250.185612 54.911679 
L 245.925598 58.729483 
" clip-path="url(#p07391ad723)" style="fill: none; stroke: #000000"/>
    <path d="M 245.478228 10.8 
L 246.344009 11.397454 
L 249.891307 14.223399 
L 252.817074 17.35668 
L 255.120028 20.7913 
L 256.778989 24.545534 
L 257.724284 28.565947 
L 257.724284 28.565947 
L 257.724284 28.565947 
" clip-path="url(#p07391ad723)" style="fill: none; stroke: #000000"/>
    <path d="M 239.958337 10.8 
L 239.958337 10.8 
L 244.806148 13.812167 
L 248.722378 17.275971 
L 251.671227 21.033057 
L 253.687212 24.9424 
" clip-path="url(#p07391ad723)" style="fill: none; stroke: #000000"/>
    <path d="M 228.114373 10.8 
L 228.114373 10.8 
L 233.517536 12.652746 
L 238.539665 15.251023 
L 242.762855 18.406558 
L 246.078969 21.956115 
L 248.476056 25.745359 
L 250.00602 29.654329 
L 250.747709 33.610894 
L 250.773562 37.58505 
L 250.131569 41.572821 
L 248.841894 45.581284 
L 246.900903 49.6193 
L 244.28688 53.6937 
L 240.965068 57.808004 
L 236.96654 61.894031 
L 232.655442 65.652706 
L 228.109877 69.126793 
" clip-path="url(#p07391ad723)" style="fill: none; stroke: #000000"/>
    <path d="M 85.9868 92.148659 
L 88.577064 92.13369 
L 94.301534 92.097836 
L 100.02596 92.055626 
L 105.750319 92.005207 
L 111.47457 91.943942 
L 117.19864 91.867891 
L 122.922389 91.770985 
L 128.645514 91.643269 
L 134.367305 91.4673 
L 140.08581 91.209513 
L 145.794332 90.796281 
L 150.501477 90.211303 
L 153.861152 89.499044 
L 156.406329 88.602491 
L 158.579789 87.309279 
L 160.323043 85.492234 
L 160.323043 85.492234 
L 161.677669 82.973656 
L 161.677669 82.973656 
L 162.846175 79.036273 
L 162.846175 79.036273 
L 163.824083 73.399283 
L 164.578747 67.724726 
L 165.365 62.054666 
L 166.31935 56.411302 
L 167.541284 50.820947 
L 169.116191 45.321143 
L 171.120383 39.964784 
L 173.617714 34.822091 
L 176.651379 29.978759 
L 180.234606 25.528673 
L 184.342925 21.563944 
L 188.926026 18.154092 
L 193.904482 15.351891 
L 199.191314 13.185144 
L 204.699894 11.665954 
L 210.348426 10.8 
L 210.348426 10.8 
" clip-path="url(#p07391ad723)" style="fill: none; stroke: #000000"/>
    <path d="M 85.9868 88.764851 
L 89.755383 88.696931 
L 95.478852 88.584413 
L 101.201845 88.450132 
L 106.924081 88.287123 
L 112.64505 88.0851 
L 118.363769 87.828249 
L 124.078183 87.49096 
L 129.783525 87.029111 
L 135.467169 86.360601 
L 140.508834 85.455345 
L 144.395945 84.385139 
L 147.535164 83.077685 
L 150.280484 81.328975 
L 152.881452 78.663669 
L 154.742277 75.568042 
L 154.742277 75.568042 
L 156.727095 70.217339 
L 158.105129 64.663733 
L 159.282867 59.061707 
L 160.48074 53.464081 
L 161.838269 47.903883 
L 163.458783 42.415793 
L 165.425609 37.043593 
L 167.805548 31.84292 
L 170.64603 26.880523 
L 173.969925 22.229574 
L 177.771971 17.961592 
L 182.019826 14.137299 
L 186.660497 10.8 
L 186.660497 10.8 
" clip-path="url(#p07391ad723)" style="fill: none; stroke: #000000"/>
    <path d="M 85.9868 84.745233 
L 87.113445 84.703088 
L 92.833213 84.469263 
L 98.550867 84.189002 
L 104.265114 83.847101 
L 109.973589 83.421007 
L 115.671692 82.876005 
L 121.349741 82.156185 
L 126.985422 81.167304 
L 132.005827 79.906541 
L 136.097451 78.430267 
L 139.577835 76.633821 
L 142.74798 74.258287 
L 145.807549 70.795004 
L 148.104322 66.888697 
L 148.104322 66.888697 
L 150.285781 61.605756 
L 152.026872 56.154145 
L 153.608777 50.652534 
L 155.217138 45.158774 
L 156.982231 39.714211 
L 159.002184 34.360169 
L 161.352609 29.144137 
L 164.088515 24.120996 
L 167.242671 19.350652 
L 170.82369 14.892747 
L 174.816533 10.8 
L 174.816533 10.8 
" clip-path="url(#p07391ad723)" style="fill: none; stroke: #000000"/>
    <path d="M 85.9868 79.109776 
L 89.074422 78.84906 
L 94.774072 78.317947 
L 100.461281 77.668712 
L 106.127435 76.858842 
L 111.75608 75.824714 
L 117.314128 74.46975 
L 122.398736 72.782339 
L 126.735993 70.810409 
L 130.593663 68.404171 
L 134.207052 65.268762 
L 137.24154 61.611926 
L 137.24154 61.611926 
L 140.205448 56.729267 
L 142.629178 51.547826 
L 144.755149 46.233563 
L 146.78072 40.879329 
L 148.854153 35.543756 
L 151.087176 30.27383 
L 153.564466 25.115323 
L 156.347971 20.116573 
L 159.477869 15.32818 
L 162.972568 10.8 
L 162.972568 10.8 
" clip-path="url(#p07391ad723)" style="fill: none; stroke: #000000"/>
    <path d="M 85.9868 71.964142 
L 90.624084 71.160544 
L 96.243598 70.075172 
L 101.805731 68.730551 
L 107.270255 67.038822 
L 112.530343 64.903986 
L 117.180804 62.402394 
L 121.476474 59.327552 
L 125.589898 55.370115 
L 129.113898 50.873168 
L 132.133492 46.016179 
L 134.807185 40.956387 
L 137.300731 35.803727 
L 139.756779 30.632801 
L 142.289779 25.499582 
L 144.988674 20.452425 
L 147.919825 15.537461 
L 151.128604 10.8 
L 151.128604 10.8 
" clip-path="url(#p07391ad723)" style="fill: none; stroke: #000000"/>
    <path d="M 85.9868 67.750614 
L 86.795254 67.586239 
L 92.377844 66.325963 
L 97.887572 64.782115 
L 103.27852 62.8702 
L 108.476691 60.490902 
L 113.245423 57.639603 
L 117.735117 54.10995 
L 121.71896 50.015663 
L 125.199194 45.480065 
L 128.269178 40.652481 
L 131.067594 35.659767 
L 133.735053 30.594771 
L 136.393981 25.525226 
L 139.143992 20.505009 
L 142.062599 15.581673 
L 145.206622 10.8 
L 145.206622 10.8 
" clip-path="url(#p07391ad723)" style="fill: none; stroke: #000000"/>
    <path d="M 94.647448 60.568766 
L 99.942132 58.405859 
L 105.015204 55.770445 
L 109.769594 52.600321 
L 114.112841 48.887553 
L 118.000038 44.696718 
L 121.462105 40.144067 
L 124.593419 35.354486 
L 127.516067 30.432903 
L 130.350736 25.459456 
L 133.202873 20.496109 
L 136.158643 15.594306 
L 139.284639 10.8 
L 139.284639 10.8 
" clip-path="url(#p07391ad723)" style="fill: none; stroke: #000000"/>
    <path d="M 85.9868 53.190953 
L 88.871425 51.840287 
L 93.945609 49.202049 
L 98.758599 46.115409 
L 103.24665 42.573443 
L 107.373909 38.615425 
L 111.151209 34.319502 
L 114.635868 29.780452 
L 117.914603 25.088794 
L 121.083234 20.321274 
L 124.232469 15.540795 
L 127.440675 10.8 
L 127.440675 10.8 
" clip-path="url(#p07391ad723)" style="fill: none; stroke: #000000"/>
    <path d="M 85.9868 41.776328 
L 88.53184 40.042002 
L 93.121317 36.628968 
L 97.417329 32.852301 
L 101.423591 28.767831 
L 105.177214 24.448214 
L 108.74063 19.968995 
L 112.188612 15.399533 
L 115.596711 10.8 
L 115.596711 10.8 
" clip-path="url(#p07391ad723)" style="fill: none; stroke: #000000"/>
    <path d="M 85.9868 29.411147 
L 88.143343 27.513468 
L 92.32294 23.605531 
L 96.284771 19.47564 
L 100.075142 15.186717 
L 103.752746 10.8 
L 103.752746 10.8 
" clip-path="url(#p07391ad723)" style="fill: none; stroke: #000000"/>
    <path d="M 85.9868 34.487929 
L 85.9868 34.487929 
L 90.449405 30.908715 
L 94.64721 27.021265 
L 98.601069 22.884483 
L 102.35672 18.565583 
L 105.975867 14.130718 
L 108.63074 10.8 
" clip-path="url(#p07391ad723)" style="fill: none; stroke: #000000"/>
    <path d="M 85.9868 99.629733 
L 85.9868 99.629733 
L 91.711363 99.614906 
L 97.43592 99.597951 
L 103.16047 99.578377 
L 108.885006 99.555527 
L 114.609525 99.528506 
L 120.334015 99.496058 
L 126.058458 99.456337 
L 131.78282 99.406578 
L 137.507037 99.342453 
L 143.230958 99.256619 
L 148.954217 99.135701 
" clip-path="url(#p07391ad723)" style="fill: none; stroke: #000000"/>
    <path d="M 85.9868 105.551716 
L 85.9868 105.551716 
L 91.709731 105.414476 
L 97.432241 105.26072 
L 103.154185 105.087297 
L 108.875357 104.890207 
L 114.595456 104.6643 
L 120.314026 104.402825 
L 126.030361 104.096785 
L 131.74333 103.733951 
L 137.451052 103.297311 
" clip-path="url(#p07391ad723)" style="fill: none; stroke: #000000"/>
    <path d="M 85.9868 111.473698 
L 85.9868 111.473698 
L 91.697851 111.080765 
L 97.40621 110.650597 
L 103.111186 110.177825 
L 108.811874 109.656072 
L 114.507073 109.077707 
" clip-path="url(#p07391ad723)" style="fill: none; stroke: #000000"/>
    <path d="M 85.9868 123.317662 
L 85.9868 123.317662 
L 91.551498 121.974409 
L 97.105241 120.586585 
L 102.647305 119.15286 
L 108.176951 117.671973 
L 113.693422 116.142757 
" clip-path="url(#p07391ad723)" style="fill: none; stroke: #000000"/>
    <path d="M 125.06707 181.210176 
L 119.748412 180.37162 
L 114.874551 178.962801 
L 109.674728 176.615502 
L 104.956916 173.413926 
L 101.510136 169.989535 
" clip-path="url(#p07391ad723)" style="fill: none; stroke: #000000"/>
    <path d="M 143.186654 176.060679 
L 137.814546 177.28377 
L 132.404937 177.791146 
L 127.140449 177.602939 
L 121.518693 176.615502 
" clip-path="url(#p07391ad723)" style="fill: none; stroke: #000000"/>
    <path d="M 218.644013 12.127308 
L 223.962671 12.965864 
L 228.836532 14.374683 
L 234.036355 16.721982 
L 238.754167 19.923558 
L 242.200947 23.34795 
" clip-path="url(#p07391ad723)" style="fill: none; stroke: #000000"/>
    <path d="M 200.524429 17.276805 
L 205.896538 16.053715 
L 211.306147 15.546339 
L 216.570634 15.734546 
L 222.192391 16.721982 
" clip-path="url(#p07391ad723)" style="fill: none; stroke: #000000"/>
    <path d="M 85.9868 131.956033 
L 86.704252 131.62358 
L 91.908782 129.239644 
L 97.131877 126.896688 
L 102.371499 124.590927 
L 107.626019 122.319304 
" clip-path="url(#p07391ad723)" style="fill: none; stroke: #000000"/>
    <path d="M 113.494808 173.249291 
L 109.674728 170.69352 
L 109.674728 170.69352 
L 109.674728 170.69352 
L 106.472757 167.680321 
L 103.856093 164.128772 
L 102.061513 160.355227 
L 101.050753 156.467923 
L 100.766714 152.526616 
L 101.16281 148.561527 
L 102.211491 144.585647 
L 103.904714 140.603503 
L 106.251405 136.616122 
L 109.274495 132.62333 
L 113.008335 128.624462 
" clip-path="url(#p07391ad723)" style="fill: none; stroke: #000000"/>
    <path d="M 171.331026 139.342208 
L 169.693973 144.821879 
L 167.54684 150.11968 
L 164.937084 154.952835 
L 161.887032 159.258553 
L 158.387864 163.044563 
L 154.446397 166.288871 
L 150.098308 168.947074 
L 145.418922 170.965359 
L 140.524305 172.297892 
L 135.559589 172.922407 
L 130.67733 172.847559 
L 126.022556 172.11091 
L 121.518693 170.69352 
L 121.518693 170.69352 
L 121.518693 170.69352 
" clip-path="url(#p07391ad723)" style="fill: none; stroke: #000000"/>
    <path d="M 257.724284 135.821987 
L 256.282947 136.349008 
L 250.984167 138.504463 
L 245.880319 141.083609 
L 241.048823 144.140587 
L 236.566461 147.688347 
" clip-path="url(#p07391ad723)" style="fill: none; stroke: #000000"/>
    <path d="M 244.941474 32.019358 
L 245.812034 36.161679 
L 245.880319 40.409911 
L 245.880319 40.409911 
L 245.880319 40.409911 
L 245.211681 44.540125 
L 243.912512 48.523981 
L 241.96262 52.531629 
" clip-path="url(#p07391ad723)" style="fill: none; stroke: #000000"/>
    <path d="M 230.216276 20.088193 
L 234.036355 22.643964 
L 234.036355 22.643964 
L 234.036355 22.643964 
L 237.238326 25.657163 
L 239.85499 29.208713 
L 241.64957 32.982257 
L 242.660331 36.869562 
" clip-path="url(#p07391ad723)" style="fill: none; stroke: #000000"/>
    <path d="M 181.824051 34.078932 
L 185.32322 30.292921 
L 189.264687 27.048614 
L 193.612776 24.39041 
L 198.292161 22.372125 
L 203.186779 21.039593 
L 208.151495 20.415077 
L 213.033753 20.489926 
L 217.688527 21.226575 
L 222.192391 22.643964 
L 222.192391 22.643964 
L 222.192391 22.643964 
" clip-path="url(#p07391ad723)" style="fill: none; stroke: #000000"/>
    <path d="M 85.9868 57.515497 
L 87.428137 56.988477 
L 92.726917 54.833021 
L 97.830764 52.253876 
L 102.662261 49.196898 
L 107.144622 45.649137 
" clip-path="url(#p07391ad723)" style="fill: none; stroke: #000000"/>
    <path d="M 119.050991 167.287241 
L 115.596711 164.771538 
L 115.596711 164.771538 
L 115.596711 164.771538 
L 112.725797 161.778006 
L 110.457939 158.295206 
L 108.950136 154.576422 
L 108.1787 150.721822 
L 108.107985 146.79901 
L 108.706592 142.853621 
L 109.953238 138.914484 
" clip-path="url(#p07391ad723)" style="fill: none; stroke: #000000"/>
    <path d="M 159.765941 155.464092 
L 156.448315 158.860546 
L 152.758091 161.685258 
L 148.745184 163.89738 
L 144.494304 165.452371 
L 140.120628 166.318138 
L 135.755746 166.486163 
L 131.531385 165.973798 
L 127.440675 164.771538 
L 127.440675 164.771538 
L 127.440675 164.771538 
" clip-path="url(#p07391ad723)" style="fill: none; stroke: #000000"/>
    <path d="M 210.950154 139.037783 
L 208.040514 143.960168 
L 205.512248 149.093881 
L 203.178221 154.32071 
L 200.882904 159.564957 
L 198.504462 164.771538 
" clip-path="url(#p07391ad723)" style="fill: none; stroke: #000000"/>
    <path d="M 248.509044 151.268291 
L 244.069726 154.873167 
L 239.958337 158.849556 
L 236.155882 163.124425 
L 232.604854 167.612363 
" clip-path="url(#p07391ad723)" style="fill: none; stroke: #000000"/>
    <path d="M 132.760929 54.299702 
L 135.670569 49.377316 
L 138.198836 44.243603 
L 140.532862 39.016774 
L 142.828179 33.772527 
L 145.206622 28.565947 
" clip-path="url(#p07391ad723)" style="fill: none; stroke: #000000"/>
    <path d="M 95.202039 42.069194 
L 99.641357 38.464318 
L 103.752746 34.487929 
L 107.555202 30.21306 
L 111.106229 25.725121 
" clip-path="url(#p07391ad723)" style="fill: none; stroke: #000000"/>
    <path d="M 124.634247 161.30427 
L 121.518693 158.849556 
L 121.518693 158.849556 
L 121.518693 158.849556 
L 118.942589 155.880574 
L 116.985586 152.474854 
L 115.731095 148.809404 
L 115.175769 144.98432 
L 115.304631 141.083957 
L 116.096674 137.175544 
L 117.530884 133.305547 
L 119.593879 129.499134 
L 122.286126 125.76402 
L 125.624519 122.09667 
" clip-path="url(#p07391ad723)" style="fill: none; stroke: #000000"/>
    <path d="M 146.82008 157.968705 
L 143.09439 158.754087 
L 139.284639 158.849556 
L 139.284639 158.849556 
L 139.284639 158.849556 
L 135.408128 158.188795 
L 131.785279 156.765941 
L 128.606046 154.672808 
L 125.963091 152.015574 
L 123.915668 148.901827 
L 122.50384 145.436928 
L 121.755727 141.728562 
L 121.684808 137.887968 
L 122.284681 134.019907 
" clip-path="url(#p07391ad723)" style="fill: none; stroke: #000000"/>
    <path d="M 238.547908 38.806485 
L 238.927551 43.201137 
L 238.374679 47.99779 
L 236.72027 53.13659 
L 234.036355 58.175858 
" clip-path="url(#p07391ad723)" style="fill: none; stroke: #000000"/>
    <path d="M 225.754831 25.672811 
L 229.056653 28.149283 
L 231.826896 31.082844 
L 234.036355 34.487929 
L 234.036355 34.487929 
L 234.036355 34.487929 
L 235.525159 38.119136 
L 236.321629 41.976811 
L 236.415097 45.901757 
" clip-path="url(#p07391ad723)" style="fill: none; stroke: #000000"/>
    <path d="M 199.039747 33.828215 
L 202.874005 33.356259 
L 206.661488 33.572914 
L 210.348426 34.487929 
L 210.348426 34.487929 
L 210.348426 34.487929 
L 213.865553 36.136304 
L 216.953392 38.442253 
L 219.472347 41.277737 
L 221.368603 44.531409 
L 222.609442 48.09604 
L 223.175463 51.864367 
L 223.062666 55.730359 
L 222.284569 59.600273 
L 220.865825 63.406863 
" clip-path="url(#p07391ad723)" style="fill: none; stroke: #000000"/>
    <path d="M 170.069256 103.459478 
L 170.069256 103.459478 
L 169.853973 105.415085 
L 169.853973 105.415085 
L 169.339153 111.116137 
L 168.811839 116.815794 
L 168.086427 122.492388 
L 167.047904 128.118264 
L 165.583739 133.645656 
L 163.756936 138.56695 
L 161.606905 142.823899 
L 159.146365 146.464802 
L 156.394092 149.509612 
L 153.378729 151.956359 
L 150.144119 153.786992 
L 146.752209 154.975715 
L 143.281211 155.497456 
L 139.820057 155.332922 
L 136.464051 154.468973 
L 133.362657 152.927573 
L 133.362657 152.927573 
L 133.362657 152.927573 
L 130.540411 150.675651 
L 128.277816 147.917196 
L 126.587072 144.722592 
L 125.514952 141.192688 
L 125.100233 137.444568 
L 125.360073 133.606303 
L 126.282273 129.793972 
" clip-path="url(#p07391ad723)" style="fill: none; stroke: #000000"/>
    <path d="M 178.127345 59.691828 
L 179.954147 54.770535 
L 182.104178 50.513586 
L 184.564719 46.872682 
L 187.316991 43.827872 
L 190.332355 41.381125 
L 193.566964 39.550493 
L 196.958875 38.36177 
L 200.429872 37.840028 
L 203.891027 38.004563 
L 207.247032 38.868511 
L 210.348426 40.409911 
L 210.348426 40.409911 
L 210.348426 40.409911 
L 213.170672 42.661834 
L 215.433268 45.420289 
L 217.124012 48.614892 
L 218.196132 52.144796 
L 218.61085 55.892917 
L 218.351011 59.731182 
L 217.42881 63.543513 
" clip-path="url(#p07391ad723)" style="fill: none; stroke: #000000"/>
    <path d="M 153.722952 146.275354 
L 150.922667 147.741994 
L 148.009805 148.581621 
L 145.029305 148.761858 
L 142.043529 148.230665 
L 139.284639 147.005591 
L 139.284639 147.005591 
L 139.284639 147.005591 
L 136.675135 144.988939 
L 134.641628 142.499685 
L 133.088445 139.516838 
L 132.087366 136.127542 
L 131.712871 132.462951 
L 132.010102 128.693474 
L 132.971742 124.983574 
L 134.55232 121.437648 
L 136.707877 118.086236 
L 139.423532 114.911827 
L 142.715864 111.880482 
L 146.623873 108.9586 
" clip-path="url(#p07391ad723)" style="fill: none; stroke: #000000"/>
    <path d="M 189.988132 47.06213 
L 192.788417 45.595491 
L 195.701279 44.755863 
L 198.681779 44.575626 
L 201.667554 45.10682 
L 204.426444 46.331893 
L 204.426444 46.331893 
L 204.426444 46.331893 
L 207.035949 48.348545 
L 209.069455 50.837799 
L 210.622639 53.820647 
L 211.623717 57.209942 
L 211.998212 60.874534 
L 211.700981 64.644011 
L 210.739341 68.35391 
L 209.158763 71.899836 
L 207.003206 75.251248 
L 204.287551 78.425658 
" clip-path="url(#p07391ad723)" style="fill: none; stroke: #000000"/>
    <path d="M 159.368725 135.905228 
L 157.238656 138.316482 
L 154.991347 140.112875 
L 152.642944 141.316528 
L 150.193161 141.919611 
L 147.63891 141.857449 
L 145.206622 141.083609 
L 145.206622 141.083609 
L 145.206622 141.083609 
L 142.768232 139.442172 
L 140.924924 137.341355 
L 139.456121 134.687204 
L 138.450407 131.536357 
L 138.021515 128.017992 
L 138.257306 124.347143 
L 139.165679 120.756973 
" clip-path="url(#p07391ad723)" style="fill: none; stroke: #000000"/>
    <path d="M 184.342358 57.432257 
L 186.472428 55.021003 
L 188.719737 53.22461 
L 191.068139 52.020956 
L 193.517922 51.417873 
L 196.072174 51.480036 
L 198.504462 52.253876 
L 198.504462 52.253876 
L 198.504462 52.253876 
L 200.942852 53.895312 
L 202.786159 55.99613 
L 204.254963 58.650281 
L 205.260677 61.801128 
L 205.689568 65.319492 
L 205.453778 68.990342 
L 204.545405 72.580511 
" clip-path="url(#p07391ad723)" style="fill: none; stroke: #000000"/>
    <path d="M 153.313042 135.247953 
L 151.128604 135.161627 
L 151.128604 135.161627 
L 151.128604 135.161627 
L 148.817998 134.172725 
L 147.106909 132.645446 
L 145.674311 130.54373 
L 144.572039 127.856515 
L 143.934182 124.652696 
L 143.913996 121.144517 
L 144.582515 117.651139 
" clip-path="url(#p07391ad723)" style="fill: none; stroke: #000000"/>
    <path d="M 190.398042 58.089531 
L 192.582479 58.175858 
L 192.582479 58.175858 
L 192.582479 58.175858 
L 194.893086 59.16476 
L 196.604174 60.692039 
L 198.036772 62.793754 
L 199.139045 65.48097 
L 199.776902 68.684789 
L 199.797087 72.192967 
L 199.128569 75.686345 
" clip-path="url(#p07391ad723)" style="fill: none; stroke: #000000"/>
    <path d="M 164.610428 119.551072 
L 163.085893 123.158282 
L 161.518133 125.941775 
L 159.923548 128.012719 
L 158.314309 129.466162 
L 156.668233 130.377264 
L 154.869253 130.751994 
L 152.81545 130.359975 
L 151.128604 129.239644 
L 151.128604 129.239644 
L 151.128604 129.239644 
L 149.415153 127.03717 
L 148.388268 124.669053 
" clip-path="url(#p07391ad723)" style="fill: none; stroke: #000000"/>
    <path d="M 177.248007 106.48917 
L 177.248007 106.48917 
L 176.408235 112.142498 
L 175.935273 117.847362 
L 175.451073 123.551227 
L 174.816533 129.239644 
" clip-path="url(#p07391ad723)" style="fill: none; stroke: #000000"/>
    <path d="M 179.100655 73.786413 
L 180.62519 70.179203 
L 182.19295 67.39571 
L 183.787536 65.324765 
L 185.396774 63.871322 
L 187.04285 62.960221 
L 188.84183 62.58549 
L 190.895633 62.97751 
L 192.582479 64.09784 
L 192.582479 64.09784 
L 192.582479 64.09784 
L 194.29593 66.300315 
L 195.322815 68.668431 
" clip-path="url(#p07391ad723)" style="fill: none; stroke: #000000"/>
    <path d="M 159.860181 123.214741 
L 158.462939 123.593106 
L 157.050586 123.317662 
L 157.050586 123.317662 
L 157.050586 123.317662 
L 157.050586 123.317662 
L 157.050586 123.317662 
L 155.580638 122.191135 
L 154.571869 120.668819 
L 153.735285 118.470277 
L 153.272515 115.634402 
L 153.432565 112.461028 
L 154.294561 109.474056 
L 155.69598 106.940069 
L 157.514709 104.782754 
L 159.749443 102.864873 
" clip-path="url(#p07391ad723)" style="fill: none; stroke: #000000"/>
    <path d="M 183.850902 70.122743 
L 185.248145 69.744378 
L 186.660497 70.019822 
L 186.660497 70.019822 
L 186.660497 70.019822 
L 186.660497 70.019822 
L 186.660497 70.019822 
L 188.130446 71.146349 
L 189.139214 72.668666 
L 189.975799 74.867207 
L 190.438568 77.703082 
L 190.278518 80.876456 
L 189.416522 83.863428 
L 188.015103 86.397416 
L 186.196374 88.554731 
L 183.961641 90.472612 
" clip-path="url(#p07391ad723)" style="fill: none; stroke: #000000"/>
    <path d="M 174.265822 90.533205 
L 174.265822 90.533205 
L 175.521938 87.05847 
L 176.560308 84.618746 
L 177.447746 83.007467 
L 178.214126 82.028184 
L 178.950428 81.468441 
L 179.825806 81.303534 
L 179.825806 81.303534 
L 180.738515 81.863787 
L 180.738515 81.863787 
L 180.738515 81.863787 
L 180.738515 81.863787 
L 181.748621 83.753646 
L 182.097421 85.62814 
L 181.917099 88.161023 
L 181.031802 90.370808 
" clip-path="url(#p07391ad723)" style="fill: none; stroke: #000000"/>
   </g>
   <g id="patch_2">
    <path d="M 92.019332 177.519634 
Q 91.85244 177.331423 92.42732 177.979737 
" clip-path="url(#p07391ad723)" style="fill: none; stroke: #000000; stroke-linecap: round"/>
    <path d="M 93.584748 182.299501 
L 92.42732 177.979737 
L 96.577588 179.645652 
z
" clip-path="url(#p07391ad723)" style="stroke: #000000; stroke-linecap: round"/>
   </g>
   <g id="patch_3">
    <path d="M 173.188804 65.045248 
Q 173.256893 64.618985 173.148628 65.29676 
" clip-path="url(#p07391ad723)" style="fill: none; stroke: #000000; stroke-linecap: round"/>
    <path d="M 170.542726 68.931216 
L 173.148628 65.29676 
L 174.492652 69.562155 
z
" clip-path="url(#p07391ad723)" style="stroke: #000000; stroke-linecap: round"/>
   </g>
   <g id="patch_4">
    <path d="M 99.584865 173.471587 
Q 99.437518 173.313868 100.053419 173.973126 
" clip-path="url(#p07391ad723)" style="fill: none; stroke: #000000; stroke-linecap: round"/>
    <path d="M 101.322643 178.261374 
L 100.053419 173.973126 
L 104.245552 175.530695 
z
" clip-path="url(#p07391ad723)" style="stroke: #000000; stroke-linecap: round"/>
   </g>
   <g id="patch_5">
    <path d="M 180.5235 116.269203 
Q 180.449727 116.694455 180.567057 116.018126 
" clip-path="url(#p07391ad723)" style="fill: none; stroke: #000000; stroke-linecap: round"/>
    <path d="M 183.221334 112.418846 
L 180.567057 116.018126 
L 179.2802 111.735136 
z
" clip-path="url(#p07391ad723)" style="stroke: #000000; stroke-linecap: round"/>
   </g>
   <g id="patch_6">
    <path d="M 188.273926 119.642711 
Q 188.125162 120.043752 188.365237 119.396555 
" clip-path="url(#p07391ad723)" style="fill: none; stroke: #000000; stroke-linecap: round"/>
    <path d="M 191.631537 116.34184 
L 188.365237 119.396555 
L 187.881245 114.950686 
z
" clip-path="url(#p07391ad723)" style="stroke: #000000; stroke-linecap: round"/>
   </g>
   <g id="patch_7">
    <path d="M 196.891968 124.262934 
Q 196.823558 124.379284 197.321821 123.531849 
" clip-path="url(#p07391ad723)" style="fill: none; stroke: #000000; stroke-linecap: round"/>
    <path d="M 201.073282 121.0974 
L 197.321821 123.531849 
L 197.625138 119.070011 
z
" clip-path="url(#p07391ad723)" style="stroke: #000000; stroke-linecap: round"/>
   </g>
   <g id="patch_8">
    <path d="M 205.431886 133.434966 
Q 205.209738 133.800927 205.567744 133.211158 
" clip-path="url(#p07391ad723)" style="fill: none; stroke: #000000; stroke-linecap: round"/>
    <path d="M 209.353031 130.829645 
L 205.567744 133.211158 
L 205.933706 128.754021 
z
" clip-path="url(#p07391ad723)" style="stroke: #000000; stroke-linecap: round"/>
   </g>
   <g id="patch_9">
    <path d="M 216.887441 139.54174 
Q 216.623313 139.878791 217.048803 139.335827 
" clip-path="url(#p07391ad723)" style="fill: none; stroke: #000000; stroke-linecap: round"/>
    <path d="M 221.090275 137.421014 
L 217.048803 139.335827 
L 217.941835 134.953762 
z
" clip-path="url(#p07391ad723)" style="stroke: #000000; stroke-linecap: round"/>
   </g>
   <g id="patch_10">
    <path d="M 220.773701 144.909724 
Q 220.512854 145.249672 220.932616 144.702619 
" clip-path="url(#p07391ad723)" style="fill: none; stroke: #000000; stroke-linecap: round"/>
    <path d="M 224.954354 142.7467 
L 220.932616 144.702619 
L 221.780923 140.311677 
z
" clip-path="url(#p07391ad723)" style="stroke: #000000; stroke-linecap: round"/>
   </g>
   <g id="patch_11">
    <path d="M 221.155771 154.865561 
Q 220.919546 155.226884 221.295119 154.652417 
" clip-path="url(#p07391ad723)" style="fill: none; stroke: #000000; stroke-linecap: round"/>
    <path d="M 225.157945 152.398848 
L 221.295119 154.652417 
L 221.809959 150.210015 
z
" clip-path="url(#p07391ad723)" style="stroke: #000000; stroke-linecap: round"/>
   </g>
   <g id="patch_12">
    <path d="M 235.01475 156.226052 
Q 234.731637 156.548036 235.186786 156.030396 
" clip-path="url(#p07391ad723)" style="fill: none; stroke: #000000; stroke-linecap: round"/>
    <path d="M 239.330037 154.347105 
L 235.186786 156.030396 
L 236.326104 151.70582 
z
" clip-path="url(#p07391ad723)" style="stroke: #000000; stroke-linecap: round"/>
   </g>
   <g id="patch_13">
    <path d="M 240.977024 166.077723 
Q 240.693852 166.403592 241.144026 165.885539 
" clip-path="url(#p07391ad723)" style="fill: none; stroke: #000000; stroke-linecap: round"/>
    <path d="M 245.277374 164.178076 
L 241.144026 165.885539 
L 242.258064 161.554382 
z
" clip-path="url(#p07391ad723)" style="stroke: #000000; stroke-linecap: round"/>
   </g>
   <g id="patch_14">
    <path d="M 250.004985 171.173786 
Q 249.706106 171.485342 250.181211 170.990084 
" clip-path="url(#p07391ad723)" style="fill: none; stroke: #000000; stroke-linecap: round"/>
    <path d="M 254.393571 169.488078 
L 250.181211 170.990084 
L 251.507022 166.718992 
z
" clip-path="url(#p07391ad723)" style="stroke: #000000; stroke-linecap: round"/>
   </g>
   <g id="patch_15">
    <path d="M 247.683498 167.760457 
Q 247.385221 168.072534 247.859442 167.576373 
" clip-path="url(#p07391ad723)" style="fill: none; stroke: #000000; stroke-linecap: round"/>
    <path d="M 252.069033 166.066623 
L 247.859442 167.576373 
L 249.177397 163.302851 
z
" clip-path="url(#p07391ad723)" style="stroke: #000000; stroke-linecap: round"/>
   </g>
   <g id="patch_16">
    <path d="M 227.103019 93.820306 
Q 226.671166 93.822754 227.35733 93.818865 
" clip-path="url(#p07391ad723)" style="fill: none; stroke: #000000; stroke-linecap: round"/>
    <path d="M 231.368602 95.79616 
L 227.35733 93.818865 
L 231.345929 91.796224 
z
" clip-path="url(#p07391ad723)" style="stroke: #000000; stroke-linecap: round"/>
   </g>
   <g id="patch_17">
    <path d="M 232.83872 88.526147 
Q 232.407198 88.543189 233.09284 88.51611 
" clip-path="url(#p07391ad723)" style="fill: none; stroke: #000000; stroke-linecap: round"/>
    <path d="M 237.16865 90.356702 
L 233.09284 88.51611 
L 237.010799 86.359818 
z
" clip-path="url(#p07391ad723)" style="stroke: #000000; stroke-linecap: round"/>
   </g>
   <g id="patch_18">
    <path d="M 244.313146 82.851942 
Q 243.882765 82.887608 244.5666 82.830938 
" clip-path="url(#p07391ad723)" style="fill: none; stroke: #000000; stroke-linecap: round"/>
    <path d="M 248.718109 84.493759 
L 244.5666 82.830938 
L 248.387762 80.507423 
z
" clip-path="url(#p07391ad723)" style="stroke: #000000; stroke-linecap: round"/>
   </g>
   <g id="patch_19">
    <path d="M 250.078331 77.030001 
Q 249.651212 77.093767 250.329871 76.992448 
" clip-path="url(#p07391ad723)" style="fill: none; stroke: #000000; stroke-linecap: round"/>
    <path d="M 254.581339 78.379897 
L 250.329871 76.992448 
L 253.990711 74.423743 
z
" clip-path="url(#p07391ad723)" style="stroke: #000000; stroke-linecap: round"/>
   </g>
   <g id="patch_20">
    <path d="M 234.44484 72.925068 
Q 234.040917 73.07787 234.682706 72.835084 
" clip-path="url(#p07391ad723)" style="fill: none; stroke: #000000; stroke-linecap: round"/>
    <path d="M 239.131602 73.290413 
L 234.682706 72.835084 
L 237.716306 69.549165 
z
" clip-path="url(#p07391ad723)" style="stroke: #000000; stroke-linecap: round"/>
   </g>
   <g id="patch_21">
    <path d="M 250.992845 61.960367 
Q 250.613386 62.166504 251.216357 61.838947 
" clip-path="url(#p07391ad723)" style="fill: none; stroke: #000000; stroke-linecap: round"/>
    <path d="M 255.68591 61.686969 
L 251.216357 61.838947 
L 253.776507 58.172118 
z
" clip-path="url(#p07391ad723)" style="stroke: #000000; stroke-linecap: round"/>
   </g>
   <g id="patch_22">
    <path d="M 252.763563 52.234847 
Q 252.466256 52.543557 252.944505 52.046964 
" clip-path="url(#p07391ad723)" style="fill: none; stroke: #000000; stroke-linecap: round"/>
    <path d="M 257.159787 50.55318 
L 252.944505 52.046964 
L 254.278646 47.778468 
z
" clip-path="url(#p07391ad723)" style="stroke: #000000; stroke-linecap: round"/>
   </g>
   <g id="patch_23">
    <path d="M 253.930318 19.01697 
Q 253.949434 19.04548 253.345907 18.145381 
" clip-path="url(#p07391ad723)" style="fill: none; stroke: #000000; stroke-linecap: round"/>
    <path d="M 252.779415 13.709269 
L 253.345907 18.145381 
L 249.457123 15.936907 
z
" clip-path="url(#p07391ad723)" style="stroke: #000000; stroke-linecap: round"/>
   </g>
   <g id="patch_24">
    <path d="M 246.303418 15.136463 
Q 246.53384 15.340266 245.926801 14.803355 
" clip-path="url(#p07391ad723)" style="fill: none; stroke: #000000; stroke-linecap: round"/>
    <path d="M 244.255634 10.655199 
L 245.926801 14.803355 
L 241.605576 13.651395 
z
" clip-path="url(#p07391ad723)" style="stroke: #000000; stroke-linecap: round"/>
   </g>
   <g id="patch_25">
    <path d="M 250.4557 39.559464 
Q 250.454133 39.5692 250.63027 38.475114 
" clip-path="url(#p07391ad723)" style="fill: none; stroke: #000000; stroke-linecap: round"/>
    <path d="M 253.240621 34.843852 
L 250.63027 38.475114 
L 249.291471 34.208076 
z
" clip-path="url(#p07391ad723)" style="stroke: #000000; stroke-linecap: round"/>
   </g>
   <g id="patch_26">
    <path d="M 163.187584 77.068281 
Q 163.261356 76.643029 163.144027 77.319359 
" clip-path="url(#p07391ad723)" style="fill: none; stroke: #000000; stroke-linecap: round"/>
    <path d="M 160.489749 80.918638 
L 163.144027 77.319359 
L 164.430884 81.602348 
z
" clip-path="url(#p07391ad723)" style="stroke: #000000; stroke-linecap: round"/>
   </g>
   <g id="patch_27">
    <path d="M 155.437157 73.694774 
Q 155.585922 73.293732 155.345847 73.940929 
" clip-path="url(#p07391ad723)" style="fill: none; stroke: #000000; stroke-linecap: round"/>
    <path d="M 152.079547 76.995644 
L 155.345847 73.940929 
L 155.829839 78.386798 
z
" clip-path="url(#p07391ad723)" style="stroke: #000000; stroke-linecap: round"/>
   </g>
   <g id="patch_28">
    <path d="M 146.819116 69.07455 
Q 146.887525 68.9582 146.389263 69.805636 
" clip-path="url(#p07391ad723)" style="fill: none; stroke: #000000; stroke-linecap: round"/>
    <path d="M 142.637802 72.240085 
L 146.389263 69.805636 
L 146.085945 74.267474 
z
" clip-path="url(#p07391ad723)" style="stroke: #000000; stroke-linecap: round"/>
   </g>
   <g id="patch_29">
    <path d="M 138.279197 59.902518 
Q 138.501346 59.536557 138.14334 60.126327 
" clip-path="url(#p07391ad723)" style="fill: none; stroke: #000000; stroke-linecap: round"/>
    <path d="M 134.358053 62.507839 
L 138.14334 60.126327 
L 137.777378 64.583464 
z
" clip-path="url(#p07391ad723)" style="stroke: #000000; stroke-linecap: round"/>
   </g>
   <g id="patch_30">
    <path d="M 126.823642 53.795745 
Q 127.08777 53.458693 126.66228 54.001657 
" clip-path="url(#p07391ad723)" style="fill: none; stroke: #000000; stroke-linecap: round"/>
    <path d="M 122.620809 55.916471 
L 126.66228 54.001657 
L 125.769248 58.383722 
z
" clip-path="url(#p07391ad723)" style="stroke: #000000; stroke-linecap: round"/>
   </g>
   <g id="patch_31">
    <path d="M 122.937382 48.427761 
Q 123.19823 48.087812 122.778468 48.634865 
" clip-path="url(#p07391ad723)" style="fill: none; stroke: #000000; stroke-linecap: round"/>
    <path d="M 118.75673 50.590785 
L 122.778468 48.634865 
L 121.930161 53.025807 
z
" clip-path="url(#p07391ad723)" style="stroke: #000000; stroke-linecap: round"/>
   </g>
   <g id="patch_32">
    <path d="M 122.555313 38.471923 
Q 122.791537 38.1106 122.415965 38.685067 
" clip-path="url(#p07391ad723)" style="fill: none; stroke: #000000; stroke-linecap: round"/>
    <path d="M 118.553139 40.938637 
L 122.415965 38.685067 
L 121.901125 43.12747 
z
" clip-path="url(#p07391ad723)" style="stroke: #000000; stroke-linecap: round"/>
   </g>
   <g id="patch_33">
    <path d="M 108.696333 37.111433 
Q 108.979446 36.789448 108.524298 37.307088 
" clip-path="url(#p07391ad723)" style="fill: none; stroke: #000000; stroke-linecap: round"/>
    <path d="M 104.381046 38.990379 
L 108.524298 37.307088 
L 107.384979 41.631664 
z
" clip-path="url(#p07391ad723)" style="stroke: #000000; stroke-linecap: round"/>
   </g>
   <g id="patch_34">
    <path d="M 102.73406 27.259762 
Q 103.017231 26.933892 102.567058 27.451945 
" clip-path="url(#p07391ad723)" style="fill: none; stroke: #000000; stroke-linecap: round"/>
    <path d="M 98.433709 29.159409 
L 102.567058 27.451945 
L 101.453019 31.783102 
z
" clip-path="url(#p07391ad723)" style="stroke: #000000; stroke-linecap: round"/>
   </g>
   <g id="patch_35">
    <path d="M 93.706099 22.163699 
Q 94.004977 21.852142 93.529873 22.3474 
" clip-path="url(#p07391ad723)" style="fill: none; stroke: #000000; stroke-linecap: round"/>
    <path d="M 89.317513 23.849407 
L 93.529873 22.3474 
L 92.204062 26.618492 
z
" clip-path="url(#p07391ad723)" style="stroke: #000000; stroke-linecap: round"/>
   </g>
   <g id="patch_36">
    <path d="M 96.027585 25.577027 
Q 96.325862 25.264951 95.851641 25.761111 
" clip-path="url(#p07391ad723)" style="fill: none; stroke: #000000; stroke-linecap: round"/>
    <path d="M 91.64205 27.270861 
L 95.851641 25.761111 
L 94.533687 30.034634 
z
" clip-path="url(#p07391ad723)" style="stroke: #000000; stroke-linecap: round"/>
   </g>
   <g id="patch_37">
    <path d="M 116.608065 99.517178 
Q 117.039917 99.51473 116.353754 99.51862 
" clip-path="url(#p07391ad723)" style="fill: none; stroke: #000000; stroke-linecap: round"/>
    <path d="M 112.342481 97.541325 
L 116.353754 99.51862 
L 112.365154 101.54126 
z
" clip-path="url(#p07391ad723)" style="stroke: #000000; stroke-linecap: round"/>
   </g>
   <g id="patch_38">
    <path d="M 110.872364 104.811338 
Q 111.303885 104.794296 110.618243 104.821374 
" clip-path="url(#p07391ad723)" style="fill: none; stroke: #000000; stroke-linecap: round"/>
    <path d="M 106.542434 102.980783 
L 110.618243 104.821374 
L 106.700284 106.977667 
z
" clip-path="url(#p07391ad723)" style="stroke: #000000; stroke-linecap: round"/>
   </g>
   <g id="patch_39">
    <path d="M 99.397938 110.485542 
Q 99.828318 110.449877 99.144484 110.506546 
" clip-path="url(#p07391ad723)" style="fill: none; stroke: #000000; stroke-linecap: round"/>
    <path d="M 94.992974 108.843726 
L 99.144484 110.506546 
L 95.323322 112.830061 
z
" clip-path="url(#p07391ad723)" style="stroke: #000000; stroke-linecap: round"/>
   </g>
   <g id="patch_40">
    <path d="M 99.040093 120.086041 
Q 99.458183 119.977882 98.793873 120.149738 
" clip-path="url(#p07391ad723)" style="fill: none; stroke: #000000; stroke-linecap: round"/>
    <path d="M 94.420451 119.215295 
L 98.793873 120.149738 
L 95.422265 123.087809 
z
" clip-path="url(#p07391ad723)" style="stroke: #000000; stroke-linecap: round"/>
   </g>
   <g id="patch_41">
    <path d="M 113.054105 178.141017 
Q 112.664372 177.965084 113.293657 178.249156 
" clip-path="url(#p07391ad723)" style="fill: none; stroke: #000000; stroke-linecap: round"/>
    <path d="M 116.116525 181.717789 
L 113.293657 178.249156 
L 117.762284 178.072042 
z
" clip-path="url(#p07391ad723)" style="stroke: #000000; stroke-linecap: round"/>
   </g>
   <g id="patch_42">
    <path d="M 130.407619 177.719741 
Q 130.090156 177.708392 130.890013 177.736987 
" clip-path="url(#p07391ad723)" style="fill: none; stroke: #000000; stroke-linecap: round"/>
    <path d="M 134.816005 179.87862 
L 130.890013 177.736987 
L 134.958915 175.881174 
z
" clip-path="url(#p07391ad723)" style="stroke: #000000; stroke-linecap: round"/>
   </g>
   <g id="patch_43">
    <path d="M 230.656978 15.196467 
Q 231.046711 15.3724 230.417426 15.088329 
" clip-path="url(#p07391ad723)" style="fill: none; stroke: #000000; stroke-linecap: round"/>
    <path d="M 227.594559 11.619695 
L 230.417426 15.088329 
L 225.948799 15.265443 
z
" clip-path="url(#p07391ad723)" style="stroke: #000000; stroke-linecap: round"/>
   </g>
   <g id="patch_44">
    <path d="M 213.303464 15.617743 
Q 213.620927 15.629093 212.82107 15.600498 
" clip-path="url(#p07391ad723)" style="fill: none; stroke: #000000; stroke-linecap: round"/>
    <path d="M 208.895079 13.458865 
L 212.82107 15.600498 
L 208.752169 17.456311 
z
" clip-path="url(#p07391ad723)" style="stroke: #000000; stroke-linecap: round"/>
   </g>
   <g id="patch_45">
    <path d="M 93.732275 128.421669 
Q 94.126302 128.244917 93.500228 128.52576 
" clip-path="url(#p07391ad723)" style="fill: none; stroke: #000000; stroke-linecap: round"/>
    <path d="M 89.032031 128.338082 
L 93.500228 128.52576 
L 90.669168 131.98771 
z
" clip-path="url(#p07391ad723)" style="stroke: #000000; stroke-linecap: round"/>
   </g>
   <g id="patch_46">
    <path d="M 100.766714 152.526616 
Q 100.865738 151.535344 100.853628 151.656569 
" clip-path="url(#p07391ad723)" style="fill: none; stroke: #000000; stroke-linecap: round"/>
    <path d="M 98.465929 155.437956 
L 100.853628 151.656569 
L 102.446119 155.835561 
z
" clip-path="url(#p07391ad723)" style="stroke: #000000; stroke-linecap: round"/>
   </g>
   <g id="patch_47">
    <path d="M 152.743678 167.329827 
Q 152.508015 167.4739 153.226249 167.034808 
" clip-path="url(#p07391ad723)" style="fill: none; stroke: #000000; stroke-linecap: round"/>
    <path d="M 157.68221 166.654797 
L 153.226249 167.034808 
L 155.595817 163.242032 
z
" clip-path="url(#p07391ad723)" style="stroke: #000000; stroke-linecap: round"/>
   </g>
   <g id="patch_48">
    <path d="M 249.197322 139.407416 
Q 248.814782 139.600726 249.430105 139.289783 
" clip-path="url(#p07391ad723)" style="fill: none; stroke: #000000; stroke-linecap: round"/>
    <path d="M 253.902201 139.270741 
L 249.430105 139.289783 
L 252.098129 135.700682 
z
" clip-path="url(#p07391ad723)" style="stroke: #000000; stroke-linecap: round"/>
   </g>
   <g id="patch_49">
    <path d="M 245.561019 42.38225 
Q 245.553509 42.428634 245.724672 41.371353 
" clip-path="url(#p07391ad723)" style="fill: none; stroke: #000000; stroke-linecap: round"/>
    <path d="M 248.338204 37.742379 
L 245.724672 41.371353 
L 244.389612 37.103144 
z
" clip-path="url(#p07391ad723)" style="stroke: #000000; stroke-linecap: round"/>
   </g>
   <g id="patch_50">
    <path d="M 238.426557 27.269927 
Q 238.486608 27.351433 237.883485 26.532826 
" clip-path="url(#p07391ad723)" style="fill: none; stroke: #000000; stroke-linecap: round"/>
    <path d="M 237.121015 22.126167 
L 237.883485 26.532826 
L 233.900676 24.498807 
z
" clip-path="url(#p07391ad723)" style="stroke: #000000; stroke-linecap: round"/>
   </g>
   <g id="patch_51">
    <path d="M 200.218461 21.847701 
Q 200.478965 21.77678 199.660699 21.999548 
" clip-path="url(#p07391ad723)" style="fill: none; stroke: #000000; stroke-linecap: round"/>
    <path d="M 195.275804 21.120519 
L 199.660699 21.999548 
L 196.326539 24.980047 
z
" clip-path="url(#p07391ad723)" style="stroke: #000000; stroke-linecap: round"/>
   </g>
   <g id="patch_52">
    <path d="M 94.513762 53.930068 
Q 94.896301 53.736758 94.280978 54.047702 
" clip-path="url(#p07391ad723)" style="fill: none; stroke: #000000; stroke-linecap: round"/>
    <path d="M 89.808883 54.066743 
L 94.280978 54.047702 
L 91.612954 57.636803 
z
" clip-path="url(#p07391ad723)" style="stroke: #000000; stroke-linecap: round"/>
   </g>
   <g id="patch_53">
    <path d="M 109.70551 156.439446 
Q 109.704774 156.43763 110.124134 157.471922 
" clip-path="url(#p07391ad723)" style="fill: none; stroke: #000000; stroke-linecap: round"/>
    <path d="M 109.773669 161.930304 
L 110.124134 157.471922 
L 113.480561 160.427323 
z
" clip-path="url(#p07391ad723)" style="stroke: #000000; stroke-linecap: round"/>
   </g>
   <g id="patch_54">
    <path d="M 146.864668 164.585281 
Q 146.742206 164.630078 147.669732 164.290785 
" clip-path="url(#p07391ad723)" style="fill: none; stroke: #000000; stroke-linecap: round"/>
    <path d="M 152.113365 164.794898 
L 147.669732 164.290785 
L 150.739202 161.038347 
z
" clip-path="url(#p07391ad723)" style="stroke: #000000; stroke-linecap: round"/>
   </g>
   <g id="patch_55">
    <path d="M 204.69739 150.918677 
Q 204.521312 151.312987 204.801103 150.686422 
" clip-path="url(#p07391ad723)" style="fill: none; stroke: #000000; stroke-linecap: round"/>
    <path d="M 208.258263 147.849514 
L 204.801103 150.686422 
L 204.605873 146.218549 
z
" clip-path="url(#p07391ad723)" style="stroke: #000000; stroke-linecap: round"/>
   </g>
   <g id="patch_56">
    <path d="M 238.63082 160.342003 
Q 238.343965 160.664496 238.800171 160.151611 
" clip-path="url(#p07391ad723)" style="fill: none; stroke: #000000; stroke-linecap: round"/>
    <path d="M 242.953003 158.492096 
L 238.800171 160.151611 
L 239.964259 155.833637 
z
" clip-path="url(#p07391ad723)" style="stroke: #000000; stroke-linecap: round"/>
   </g>
   <g id="patch_57">
    <path d="M 139.013693 42.418807 
Q 139.189771 42.024498 138.90998 42.651063 
" clip-path="url(#p07391ad723)" style="fill: none; stroke: #000000; stroke-linecap: round"/>
    <path d="M 135.45282 45.48797 
L 138.90998 42.651063 
L 139.10521 47.118935 
z
" clip-path="url(#p07391ad723)" style="stroke: #000000; stroke-linecap: round"/>
   </g>
   <g id="patch_58">
    <path d="M 105.080264 32.995482 
Q 105.367119 32.672988 104.910912 33.185874 
" clip-path="url(#p07391ad723)" style="fill: none; stroke: #000000; stroke-linecap: round"/>
    <path d="M 100.75808 34.845388 
L 104.910912 33.185874 
L 103.746824 37.503848 
z
" clip-path="url(#p07391ad723)" style="stroke: #000000; stroke-linecap: round"/>
   </g>
   <g id="patch_59">
    <path d="M 115.175769 144.98432 
Q 115.207985 144.009229 115.203282 144.151563 
" clip-path="url(#p07391ad723)" style="fill: none; stroke: #000000; stroke-linecap: round"/>
    <path d="M 113.072292 148.083341 
L 115.203282 144.151563 
L 117.070111 148.215422 
z
" clip-path="url(#p07391ad723)" style="stroke: #000000; stroke-linecap: round"/>
   </g>
   <g id="patch_60">
    <path d="M 128.606046 154.672808 
Q 127.945307 154.008499 128.073005 154.136887 
" clip-path="url(#p07391ad723)" style="fill: none; stroke: #000000; stroke-linecap: round"/>
    <path d="M 129.475784 158.383323 
L 128.073005 154.136887 
L 132.311821 155.562526 
z
" clip-path="url(#p07391ad723)" style="stroke: #000000; stroke-linecap: round"/>
   </g>
   <g id="patch_61">
    <path d="M 237.761546 49.902257 
Q 237.65451 50.234724 237.890101 49.50295 
" clip-path="url(#p07391ad723)" style="fill: none; stroke: #000000; stroke-linecap: round"/>
    <path d="M 241.019689 46.308317 
L 237.890101 49.50295 
L 237.212148 45.0825 
z
" clip-path="url(#p07391ad723)" style="stroke: #000000; stroke-linecap: round"/>
   </g>
   <g id="patch_62">
    <path d="M 232.916522 32.762109 
Q 232.924074 32.773748 232.323055 31.847494 
" clip-path="url(#p07391ad723)" style="fill: none; stroke: #000000; stroke-linecap: round"/>
    <path d="M 231.823519 27.403345 
L 232.323055 31.847494 
L 228.468014 29.580633 
z
" clip-path="url(#p07391ad723)" style="stroke: #000000; stroke-linecap: round"/>
   </g>
   <g id="patch_63">
    <path d="M 219.472347 41.277737 
Q 219.946411 42.091155 219.857511 41.938617 
" clip-path="url(#p07391ad723)" style="fill: none; stroke: #000000; stroke-linecap: round"/>
    <path d="M 219.571345 37.475646 
L 219.857511 41.938617 
L 216.115435 39.489767 
z
" clip-path="url(#p07391ad723)" style="stroke: #000000; stroke-linecap: round"/>
   </g>
   <g id="patch_64">
    <path d="M 156.394092 149.509612 
Q 155.640251 150.121299 155.754588 150.028523 
" clip-path="url(#p07391ad723)" style="fill: none; stroke: #000000; stroke-linecap: round"/>
    <path d="M 160.120856 149.061205 
L 155.754588 150.028523 
L 157.600494 145.955118 
z
" clip-path="url(#p07391ad723)" style="stroke: #000000; stroke-linecap: round"/>
   </g>
   <g id="patch_65">
    <path d="M 200.429872 37.840028 
Q 201.295161 37.881162 201.043677 37.869207 
" clip-path="url(#p07391ad723)" style="fill: none; stroke: #000000; stroke-linecap: round"/>
    <path d="M 197.143156 35.681528 
L 201.043677 37.869207 
L 196.953221 39.677016 
z
" clip-path="url(#p07391ad723)" style="stroke: #000000; stroke-linecap: round"/>
   </g>
   <g id="patch_66">
    <path d="M 132.087366 136.127542 
Q 131.993742 135.211394 132.013782 135.407488 
" clip-path="url(#p07391ad723)" style="fill: none; stroke: #000000; stroke-linecap: round"/>
    <path d="M 130.430797 139.59009 
L 132.013782 135.407488 
L 134.410073 139.183437 
z
" clip-path="url(#p07391ad723)" style="stroke: #000000; stroke-linecap: round"/>
   </g>
   <g id="patch_67">
    <path d="M 210.622639 53.820647 
Q 210.872909 54.667971 210.806476 54.443054 
" clip-path="url(#p07391ad723)" style="fill: none; stroke: #000000; stroke-linecap: round"/>
    <path d="M 211.591491 50.040356 
L 210.806476 54.443054 
L 207.755326 51.173424 
z
" clip-path="url(#p07391ad723)" style="stroke: #000000; stroke-linecap: round"/>
   </g>
   <g id="patch_68">
    <path d="M 142.768232 139.442172 
Q 142.307405 138.916968 142.583962 139.232159 
" clip-path="url(#p07391ad723)" style="fill: none; stroke: #000000; stroke-linecap: round"/>
    <path d="M 143.718759 143.557923 
L 142.583962 139.232159 
L 146.725451 140.91978 
z
" clip-path="url(#p07391ad723)" style="stroke: #000000; stroke-linecap: round"/>
   </g>
   <g id="patch_69">
    <path d="M 200.942852 53.895312 
Q 201.403678 54.420517 201.127122 54.105325 
" clip-path="url(#p07391ad723)" style="fill: none; stroke: #000000; stroke-linecap: round"/>
    <path d="M 199.992324 49.779561 
L 201.127122 54.105325 
L 196.985632 52.417705 
z
" clip-path="url(#p07391ad723)" style="stroke: #000000; stroke-linecap: round"/>
   </g>
   <g id="patch_70">
    <path d="M 145.674311 130.54373 
Q 145.398743 129.871927 145.547474 130.234516 
" clip-path="url(#p07391ad723)" style="fill: none; stroke: #000000; stroke-linecap: round"/>
    <path d="M 145.215113 134.694285 
L 145.547474 130.234516 
L 148.915872 133.176266 
z
" clip-path="url(#p07391ad723)" style="stroke: #000000; stroke-linecap: round"/>
   </g>
   <g id="patch_71">
    <path d="M 198.036772 62.793754 
Q 198.31234 63.465558 198.163609 63.102968 
" clip-path="url(#p07391ad723)" style="fill: none; stroke: #000000; stroke-linecap: round"/>
    <path d="M 198.49597 58.6432 
L 198.163609 63.102968 
L 194.795211 60.161218 
z
" clip-path="url(#p07391ad723)" style="stroke: #000000; stroke-linecap: round"/>
   </g>
   <g id="patch_72">
    <path d="M 158.314309 129.466162 
Q 157.90279 129.693938 158.469462 129.380286 
" clip-path="url(#p07391ad723)" style="fill: none; stroke: #000000; stroke-linecap: round"/>
    <path d="M 162.937677 129.193057 
L 158.469462 129.380286 
L 161.000607 125.693376 
z
" clip-path="url(#p07391ad723)" style="stroke: #000000; stroke-linecap: round"/>
   </g>
   <g id="patch_73">
    <path d="M 175.766229 119.838702 
Q 175.729701 120.268998 175.787743 119.585268 
" clip-path="url(#p07391ad723)" style="fill: none; stroke: #000000; stroke-linecap: round"/>
    <path d="M 178.118918 115.768774 
L 175.787743 119.585268 
L 174.133253 115.430432 
z
" clip-path="url(#p07391ad723)" style="stroke: #000000; stroke-linecap: round"/>
   </g>
   <g id="patch_74">
    <path d="M 185.396774 63.871322 
Q 185.808293 63.643547 185.241622 63.957199 
" clip-path="url(#p07391ad723)" style="fill: none; stroke: #000000; stroke-linecap: round"/>
    <path d="M 180.773407 64.144428 
L 185.241622 63.957199 
L 182.710476 67.644108 
z
" clip-path="url(#p07391ad723)" style="stroke: #000000; stroke-linecap: round"/>
   </g>
   <g id="patch_75">
    <path d="M 153.272515 115.634402 
Q 153.312528 114.841059 153.296224 115.16433 
" clip-path="url(#p07391ad723)" style="fill: none; stroke: #000000; stroke-linecap: round"/>
    <path d="M 151.097278 119.05851 
L 153.296224 115.16433 
L 155.0922 119.259994 
z
" clip-path="url(#p07391ad723)" style="stroke: #000000; stroke-linecap: round"/>
   </g>
   <g id="patch_76">
    <path d="M 190.438568 77.703082 
Q 190.398556 78.496426 190.41486 78.173155 
" clip-path="url(#p07391ad723)" style="fill: none; stroke: #000000; stroke-linecap: round"/>
    <path d="M 192.613805 74.278975 
L 190.41486 78.173155 
L 188.618883 74.07749 
z
" clip-path="url(#p07391ad723)" style="stroke: #000000; stroke-linecap: round"/>
   </g>
   <g id="patch_77">
    <path d="M 178.950428 81.468441 
Q 179.169273 81.427214 178.289409 81.592967 
" clip-path="url(#p07391ad723)" style="fill: none; stroke: #000000; stroke-linecap: round"/>
    <path d="M 173.988296 80.368048 
L 178.289409 81.592967 
L 174.728806 84.298906 
z
" clip-path="url(#p07391ad723)" style="stroke: #000000; stroke-linecap: round"/>
   </g>
   <g id="line2d_1">
    <defs>
     <path id="meecb542688" d="M 0 2.5 
C 0.663008 2.5 1.29895 2.236584 1.767767 1.767767 
C 2.236584 1.29895 2.5 0.663008 2.5 0 
C 2.5 -0.663008 2.236584 -1.29895 1.767767 -1.767767 
C 1.29895 -2.236584 0.663008 -2.5 0 -2.5 
C -0.663008 -2.5 -1.29895 -2.236584 -1.767767 -1.767767 
C -2.236584 -1.29895 -2.5 -0.663008 -2.5 0 
C -2.5 0.663008 -2.236584 1.29895 -1.767767 1.767767 
C -1.29895 2.236584 -0.663008 2.5 0 2.5 
z
" style="stroke: #000000"/>
    </defs>
    <g clip-path="url(#p07391ad723)">
     <use xlink:href="#meecb542688" x="171.855542" y="96.668742" style="stroke: #000000"/>
    </g>
   </g>
  </g>
 </g>
 <defs>
  <clipPath id="p07391ad723">
   <rect x="85.9868" y="10.8" width="171.737484" height="171.737484"/>
  </clipPath>
 </defs>
</svg>
